%TF.GenerationSoftware,KiCad,Pcbnew,8.0.8+1*%
%TF.CreationDate,2025-07-09T06:01:43+00:00*%
%TF.ProjectId,frontplate,66726f6e-7470-46c6-9174-652e6b696361,0.2*%
%TF.SameCoordinates,Original*%
%TF.FileFunction,Drillmap*%
%TF.FilePolarity,Positive*%
%FSLAX45Y45*%
G04 Gerber Fmt 4.5, Leading zero omitted, Abs format (unit mm)*
G04 Created by KiCad (PCBNEW 8.0.8+1) date 2025-07-09 06:01:43*
%MOMM*%
%LPD*%
G01*
G04 APERTURE LIST*
%ADD10C,0.150000*%
%ADD11C,0.200000*%
%ADD12C,0.220000*%
G04 APERTURE END LIST*
D10*
X9131698Y-10801245D02*
X9131502Y-5720251D01*
X9181501Y-5670249D02*
X12781501Y-5670151D01*
X12831500Y-5620151D02*
X12831500Y-5282750D01*
X12881500Y-5232750D02*
X14631500Y-5232750D01*
X14681500Y-5182750D02*
X14681500Y-5075250D01*
X14731500Y-5025250D02*
X16384300Y-5025250D01*
X16434300Y-5075250D02*
X16434300Y-5182750D01*
X16484300Y-5232750D02*
X18234300Y-5232750D01*
X18284300Y-5282750D02*
X18284300Y-5412312D01*
X18334288Y-5462312D02*
X20083706Y-5462738D01*
X20133691Y-5513340D02*
X20131804Y-5669949D01*
X20131800Y-5670551D02*
X20131800Y-10111094D01*
X20156800Y-10154396D02*
X22081599Y-11265679D01*
X22099669Y-11334377D02*
X20779993Y-13572380D01*
X20711924Y-13590285D02*
X19318493Y-12785787D01*
X19300847Y-12779632D02*
X15624698Y-12233003D01*
X15592179Y-12213716D02*
X14575757Y-10870335D01*
X14535877Y-10850503D02*
X9181705Y-10851243D01*
X9131502Y-5720251D02*
G75*
G02*
X9181501Y-5670252I49998J1D01*
G01*
X12831500Y-5620151D02*
G75*
G02*
X12781501Y-5670150I-50000J1D01*
G01*
X12831500Y-5282750D02*
G75*
G02*
X12881500Y-5232750I50000J0D01*
G01*
X14681500Y-5182750D02*
G75*
G02*
X14631500Y-5232750I-50000J0D01*
G01*
X14681500Y-5075250D02*
G75*
G02*
X14731500Y-5025250I50000J0D01*
G01*
X16384300Y-5025250D02*
G75*
G02*
X16434300Y-5075250I0J-50000D01*
G01*
X16484300Y-5232750D02*
G75*
G02*
X16434300Y-5182750I0J50000D01*
G01*
X18234300Y-5232750D02*
G75*
G02*
X18284300Y-5282750I0J-50000D01*
G01*
X18334288Y-5462312D02*
G75*
G02*
X18284298Y-5412312I12J50002D01*
G01*
X20083706Y-5462738D02*
G75*
G02*
X20133689Y-5513340I-16J-50002D01*
G01*
X20131800Y-5670551D02*
G75*
G02*
X20131804Y-5669949I50400J1D01*
G01*
X20156800Y-10154396D02*
G75*
G02*
X20131796Y-10111094I25000J43306D01*
G01*
X22081599Y-11265679D02*
G75*
G02*
X22099669Y-11334377I-24999J-43301D01*
G01*
X20779993Y-13572380D02*
G75*
G02*
X20711922Y-13590288I-43073J25400D01*
G01*
X19300847Y-12779632D02*
G75*
G02*
X19318492Y-12785788I-7357J-49458D01*
G01*
X15624698Y-12233003D02*
G75*
G02*
X15592179Y-12213716I7352J49453D01*
G01*
X14535877Y-10850503D02*
G75*
G02*
X14575754Y-10870338I3J-49997D01*
G01*
X9181705Y-10851243D02*
G75*
G02*
X9131697Y-10801245I-5J50003D01*
G01*
X9310000Y-10690000D02*
X10690000Y-10690000D01*
X10690000Y-10690000D02*
X10690000Y-9310000D01*
X10690000Y-9310000D02*
X9310000Y-9310000D01*
X9310000Y-9310000D02*
X9310000Y-10690000D01*
X9310000Y-8940000D02*
X10690000Y-8940000D01*
X10690000Y-8940000D02*
X10690000Y-7560000D01*
X10690000Y-7560000D02*
X9310000Y-7560000D01*
X9310000Y-7560000D02*
X9310000Y-8940000D01*
X9310000Y-7190000D02*
X10690000Y-7190000D01*
X10690000Y-7190000D02*
X10690000Y-5810000D01*
X10690000Y-5810000D02*
X9310000Y-5810000D01*
X9310000Y-5810000D02*
X9310000Y-7190000D01*
X11160000Y-10690000D02*
X12540000Y-10690000D01*
X12540000Y-10690000D02*
X12540000Y-9310000D01*
X12540000Y-9310000D02*
X11160000Y-9310000D01*
X11160000Y-9310000D02*
X11160000Y-10690000D01*
X11160000Y-8940000D02*
X12540000Y-8940000D01*
X12540000Y-8940000D02*
X12540000Y-7560000D01*
X12540000Y-7560000D02*
X11160000Y-7560000D01*
X11160000Y-7560000D02*
X11160000Y-8940000D01*
X11160000Y-7190000D02*
X12540000Y-7190000D01*
X12540000Y-7190000D02*
X12540000Y-5810000D01*
X12540000Y-5810000D02*
X11160000Y-5810000D01*
X11160000Y-5810000D02*
X11160000Y-7190000D01*
X13010000Y-10252500D02*
X14390000Y-10252500D01*
X14390000Y-10252500D02*
X14390000Y-8872500D01*
X14390000Y-8872500D02*
X13010000Y-8872500D01*
X13010000Y-8872500D02*
X13010000Y-10252500D01*
X13010000Y-8502500D02*
X14390000Y-8502500D01*
X14390000Y-8502500D02*
X14390000Y-7122500D01*
X14390000Y-7122500D02*
X13010000Y-7122500D01*
X13010000Y-7122500D02*
X13010000Y-8502500D01*
X13010000Y-6752500D02*
X14390000Y-6752500D01*
X14390000Y-6752500D02*
X14390000Y-5372500D01*
X14390000Y-5372500D02*
X13010000Y-5372500D01*
X13010000Y-5372500D02*
X13010000Y-6752500D01*
X14860000Y-10033750D02*
X16240000Y-10033750D01*
X16240000Y-10033750D02*
X16240000Y-8653750D01*
X16240000Y-8653750D02*
X14860000Y-8653750D01*
X14860000Y-8653750D02*
X14860000Y-10033750D01*
X14860000Y-8283750D02*
X16240000Y-8283750D01*
X16240000Y-8283750D02*
X16240000Y-6903750D01*
X16240000Y-6903750D02*
X14860000Y-6903750D01*
X14860000Y-6903750D02*
X14860000Y-8283750D01*
X14860000Y-6533750D02*
X16240000Y-6533750D01*
X16240000Y-6533750D02*
X16240000Y-5153750D01*
X16240000Y-5153750D02*
X14860000Y-5153750D01*
X14860000Y-5153750D02*
X14860000Y-6533750D01*
X16710000Y-10252500D02*
X18090000Y-10252500D01*
X18090000Y-10252500D02*
X18090000Y-8872500D01*
X18090000Y-8872500D02*
X16710000Y-8872500D01*
X16710000Y-8872500D02*
X16710000Y-10252500D01*
X16710000Y-8502500D02*
X18090000Y-8502500D01*
X18090000Y-8502500D02*
X18090000Y-7122500D01*
X18090000Y-7122500D02*
X16710000Y-7122500D01*
X16710000Y-7122500D02*
X16710000Y-8502500D01*
X16710000Y-6752500D02*
X18090000Y-6752500D01*
X18090000Y-6752500D02*
X18090000Y-5372500D01*
X18090000Y-5372500D02*
X16710000Y-5372500D01*
X16710000Y-5372500D02*
X16710000Y-6752500D01*
X18560000Y-10471250D02*
X19940000Y-10471250D01*
X19940000Y-10471250D02*
X19940000Y-9091250D01*
X19940000Y-9091250D02*
X18560000Y-9091250D01*
X18560000Y-9091250D02*
X18560000Y-10471250D01*
X18560000Y-8721250D02*
X19940000Y-8721250D01*
X19940000Y-8721250D02*
X19940000Y-7341250D01*
X19940000Y-7341250D02*
X18560000Y-7341250D01*
X18560000Y-7341250D02*
X18560000Y-8721250D01*
X18560000Y-6971250D02*
X19940000Y-6971250D01*
X19940000Y-6971250D02*
X19940000Y-5591250D01*
X19940000Y-5591250D02*
X18560000Y-5591250D01*
X18560000Y-5591250D02*
X18560000Y-6971250D01*
X15785000Y-12083750D02*
X17165000Y-12083750D01*
X17165000Y-12083750D02*
X17165000Y-10703750D01*
X17165000Y-10703750D02*
X15785000Y-10703750D01*
X15785000Y-10703750D02*
X15785000Y-12083750D01*
X17679926Y-12156654D02*
X19012904Y-12513824D01*
X19012904Y-12513824D02*
X19370074Y-11180846D01*
X19370074Y-11180846D02*
X18037096Y-10823676D01*
X18037096Y-10823676D02*
X17679926Y-12156654D01*
X20953942Y-12974782D02*
X21643942Y-11779667D01*
X21643942Y-11779667D02*
X20448827Y-11089667D01*
X20448827Y-11089667D02*
X19758827Y-12284782D01*
X19758827Y-12284782D02*
X20953942Y-12974782D01*
X11035000Y-7375000D02*
G75*
G02*
X10815000Y-7375000I-110000J0D01*
G01*
X10815000Y-7375000D02*
G75*
G02*
X11035000Y-7375000I110000J0D01*
G01*
X11035000Y-9125000D02*
G75*
G02*
X10815000Y-9125000I-110000J0D01*
G01*
X10815000Y-9125000D02*
G75*
G02*
X11035000Y-9125000I110000J0D01*
G01*
X18431800Y-7042350D02*
G75*
G02*
X18211800Y-7042350I-110000J0D01*
G01*
X18211800Y-7042350D02*
G75*
G02*
X18431800Y-7042350I110000J0D01*
G01*
X15225700Y-10736500D02*
G75*
G02*
X15005700Y-10736500I-110000J0D01*
G01*
X15005700Y-10736500D02*
G75*
G02*
X15225700Y-10736500I110000J0D01*
G01*
X19825761Y-11463175D02*
G75*
G02*
X19605761Y-11463175I-110000J0D01*
G01*
X19605761Y-11463175D02*
G75*
G02*
X19825761Y-11463175I110000J0D01*
G01*
D11*
D12*
X10815000Y-7265000D02*
X11035000Y-7485000D01*
X11035000Y-7265000D02*
X10815000Y-7485000D01*
X10815000Y-9015000D02*
X11035000Y-9235000D01*
X11035000Y-9015000D02*
X10815000Y-9235000D01*
X15005700Y-10626500D02*
X15225700Y-10846500D01*
X15225700Y-10626500D02*
X15005700Y-10846500D01*
X18211800Y-6932350D02*
X18431800Y-7152350D01*
X18431800Y-6932350D02*
X18211800Y-7152350D01*
X19605761Y-11353175D02*
X19825761Y-11573175D01*
X19825761Y-11353175D02*
X19605761Y-11573175D01*
D11*
X9384779Y-13915969D02*
X9384779Y-13715969D01*
X9384779Y-13715969D02*
X9432398Y-13715969D01*
X9432398Y-13715969D02*
X9460969Y-13725492D01*
X9460969Y-13725492D02*
X9480017Y-13744540D01*
X9480017Y-13744540D02*
X9489541Y-13763588D01*
X9489541Y-13763588D02*
X9499064Y-13801683D01*
X9499064Y-13801683D02*
X9499064Y-13830254D01*
X9499064Y-13830254D02*
X9489541Y-13868350D01*
X9489541Y-13868350D02*
X9480017Y-13887397D01*
X9480017Y-13887397D02*
X9460969Y-13906445D01*
X9460969Y-13906445D02*
X9432398Y-13915969D01*
X9432398Y-13915969D02*
X9384779Y-13915969D01*
X9584779Y-13915969D02*
X9584779Y-13782635D01*
X9584779Y-13820731D02*
X9594303Y-13801683D01*
X9594303Y-13801683D02*
X9603826Y-13792159D01*
X9603826Y-13792159D02*
X9622874Y-13782635D01*
X9622874Y-13782635D02*
X9641922Y-13782635D01*
X9708588Y-13915969D02*
X9708588Y-13782635D01*
X9708588Y-13715969D02*
X9699064Y-13725492D01*
X9699064Y-13725492D02*
X9708588Y-13735016D01*
X9708588Y-13735016D02*
X9718112Y-13725492D01*
X9718112Y-13725492D02*
X9708588Y-13715969D01*
X9708588Y-13715969D02*
X9708588Y-13735016D01*
X9832398Y-13915969D02*
X9813350Y-13906445D01*
X9813350Y-13906445D02*
X9803826Y-13887397D01*
X9803826Y-13887397D02*
X9803826Y-13715969D01*
X9937160Y-13915969D02*
X9918112Y-13906445D01*
X9918112Y-13906445D02*
X9908588Y-13887397D01*
X9908588Y-13887397D02*
X9908588Y-13715969D01*
X10165731Y-13915969D02*
X10165731Y-13715969D01*
X10165731Y-13715969D02*
X10232398Y-13858826D01*
X10232398Y-13858826D02*
X10299064Y-13715969D01*
X10299064Y-13715969D02*
X10299064Y-13915969D01*
X10480017Y-13915969D02*
X10480017Y-13811207D01*
X10480017Y-13811207D02*
X10470493Y-13792159D01*
X10470493Y-13792159D02*
X10451445Y-13782635D01*
X10451445Y-13782635D02*
X10413350Y-13782635D01*
X10413350Y-13782635D02*
X10394303Y-13792159D01*
X10480017Y-13906445D02*
X10460969Y-13915969D01*
X10460969Y-13915969D02*
X10413350Y-13915969D01*
X10413350Y-13915969D02*
X10394303Y-13906445D01*
X10394303Y-13906445D02*
X10384779Y-13887397D01*
X10384779Y-13887397D02*
X10384779Y-13868350D01*
X10384779Y-13868350D02*
X10394303Y-13849302D01*
X10394303Y-13849302D02*
X10413350Y-13839778D01*
X10413350Y-13839778D02*
X10460969Y-13839778D01*
X10460969Y-13839778D02*
X10480017Y-13830254D01*
X10575255Y-13782635D02*
X10575255Y-13982635D01*
X10575255Y-13792159D02*
X10594303Y-13782635D01*
X10594303Y-13782635D02*
X10632398Y-13782635D01*
X10632398Y-13782635D02*
X10651445Y-13792159D01*
X10651445Y-13792159D02*
X10660969Y-13801683D01*
X10660969Y-13801683D02*
X10670493Y-13820731D01*
X10670493Y-13820731D02*
X10670493Y-13877873D01*
X10670493Y-13877873D02*
X10660969Y-13896921D01*
X10660969Y-13896921D02*
X10651445Y-13906445D01*
X10651445Y-13906445D02*
X10632398Y-13915969D01*
X10632398Y-13915969D02*
X10594303Y-13915969D01*
X10594303Y-13915969D02*
X10575255Y-13906445D01*
X10756207Y-13896921D02*
X10765731Y-13906445D01*
X10765731Y-13906445D02*
X10756207Y-13915969D01*
X10756207Y-13915969D02*
X10746684Y-13906445D01*
X10746684Y-13906445D02*
X10756207Y-13896921D01*
X10756207Y-13896921D02*
X10756207Y-13915969D01*
X10756207Y-13792159D02*
X10765731Y-13801683D01*
X10765731Y-13801683D02*
X10756207Y-13811207D01*
X10756207Y-13811207D02*
X10746684Y-13801683D01*
X10746684Y-13801683D02*
X10756207Y-13792159D01*
X10756207Y-13792159D02*
X10756207Y-13811207D01*
X8924002Y-14144485D02*
X9124002Y-14344485D01*
X9124002Y-14144485D02*
X8924002Y-14344485D01*
X9375255Y-14155016D02*
X9384779Y-14145492D01*
X9384779Y-14145492D02*
X9403826Y-14135969D01*
X9403826Y-14135969D02*
X9451445Y-14135969D01*
X9451445Y-14135969D02*
X9470493Y-14145492D01*
X9470493Y-14145492D02*
X9480017Y-14155016D01*
X9480017Y-14155016D02*
X9489541Y-14174064D01*
X9489541Y-14174064D02*
X9489541Y-14193111D01*
X9489541Y-14193111D02*
X9480017Y-14221683D01*
X9480017Y-14221683D02*
X9365731Y-14335969D01*
X9365731Y-14335969D02*
X9489541Y-14335969D01*
X9575255Y-14316921D02*
X9584779Y-14326445D01*
X9584779Y-14326445D02*
X9575255Y-14335969D01*
X9575255Y-14335969D02*
X9565731Y-14326445D01*
X9565731Y-14326445D02*
X9575255Y-14316921D01*
X9575255Y-14316921D02*
X9575255Y-14335969D01*
X9660969Y-14155016D02*
X9670493Y-14145492D01*
X9670493Y-14145492D02*
X9689541Y-14135969D01*
X9689541Y-14135969D02*
X9737160Y-14135969D01*
X9737160Y-14135969D02*
X9756207Y-14145492D01*
X9756207Y-14145492D02*
X9765731Y-14155016D01*
X9765731Y-14155016D02*
X9775255Y-14174064D01*
X9775255Y-14174064D02*
X9775255Y-14193111D01*
X9775255Y-14193111D02*
X9765731Y-14221683D01*
X9765731Y-14221683D02*
X9651445Y-14335969D01*
X9651445Y-14335969D02*
X9775255Y-14335969D01*
X9899064Y-14135969D02*
X9918112Y-14135969D01*
X9918112Y-14135969D02*
X9937160Y-14145492D01*
X9937160Y-14145492D02*
X9946684Y-14155016D01*
X9946684Y-14155016D02*
X9956207Y-14174064D01*
X9956207Y-14174064D02*
X9965731Y-14212159D01*
X9965731Y-14212159D02*
X9965731Y-14259778D01*
X9965731Y-14259778D02*
X9956207Y-14297873D01*
X9956207Y-14297873D02*
X9946684Y-14316921D01*
X9946684Y-14316921D02*
X9937160Y-14326445D01*
X9937160Y-14326445D02*
X9918112Y-14335969D01*
X9918112Y-14335969D02*
X9899064Y-14335969D01*
X9899064Y-14335969D02*
X9880017Y-14326445D01*
X9880017Y-14326445D02*
X9870493Y-14316921D01*
X9870493Y-14316921D02*
X9860969Y-14297873D01*
X9860969Y-14297873D02*
X9851445Y-14259778D01*
X9851445Y-14259778D02*
X9851445Y-14212159D01*
X9851445Y-14212159D02*
X9860969Y-14174064D01*
X9860969Y-14174064D02*
X9870493Y-14155016D01*
X9870493Y-14155016D02*
X9880017Y-14145492D01*
X9880017Y-14145492D02*
X9899064Y-14135969D01*
X10089541Y-14135969D02*
X10108588Y-14135969D01*
X10108588Y-14135969D02*
X10127636Y-14145492D01*
X10127636Y-14145492D02*
X10137160Y-14155016D01*
X10137160Y-14155016D02*
X10146684Y-14174064D01*
X10146684Y-14174064D02*
X10156207Y-14212159D01*
X10156207Y-14212159D02*
X10156207Y-14259778D01*
X10156207Y-14259778D02*
X10146684Y-14297873D01*
X10146684Y-14297873D02*
X10137160Y-14316921D01*
X10137160Y-14316921D02*
X10127636Y-14326445D01*
X10127636Y-14326445D02*
X10108588Y-14335969D01*
X10108588Y-14335969D02*
X10089541Y-14335969D01*
X10089541Y-14335969D02*
X10070493Y-14326445D01*
X10070493Y-14326445D02*
X10060969Y-14316921D01*
X10060969Y-14316921D02*
X10051445Y-14297873D01*
X10051445Y-14297873D02*
X10041922Y-14259778D01*
X10041922Y-14259778D02*
X10041922Y-14212159D01*
X10041922Y-14212159D02*
X10051445Y-14174064D01*
X10051445Y-14174064D02*
X10060969Y-14155016D01*
X10060969Y-14155016D02*
X10070493Y-14145492D01*
X10070493Y-14145492D02*
X10089541Y-14135969D01*
X10241922Y-14335969D02*
X10241922Y-14202635D01*
X10241922Y-14221683D02*
X10251445Y-14212159D01*
X10251445Y-14212159D02*
X10270493Y-14202635D01*
X10270493Y-14202635D02*
X10299065Y-14202635D01*
X10299065Y-14202635D02*
X10318112Y-14212159D01*
X10318112Y-14212159D02*
X10327636Y-14231207D01*
X10327636Y-14231207D02*
X10327636Y-14335969D01*
X10327636Y-14231207D02*
X10337160Y-14212159D01*
X10337160Y-14212159D02*
X10356207Y-14202635D01*
X10356207Y-14202635D02*
X10384779Y-14202635D01*
X10384779Y-14202635D02*
X10403826Y-14212159D01*
X10403826Y-14212159D02*
X10413350Y-14231207D01*
X10413350Y-14231207D02*
X10413350Y-14335969D01*
X10508588Y-14335969D02*
X10508588Y-14202635D01*
X10508588Y-14221683D02*
X10518112Y-14212159D01*
X10518112Y-14212159D02*
X10537160Y-14202635D01*
X10537160Y-14202635D02*
X10565731Y-14202635D01*
X10565731Y-14202635D02*
X10584779Y-14212159D01*
X10584779Y-14212159D02*
X10594303Y-14231207D01*
X10594303Y-14231207D02*
X10594303Y-14335969D01*
X10594303Y-14231207D02*
X10603826Y-14212159D01*
X10603826Y-14212159D02*
X10622874Y-14202635D01*
X10622874Y-14202635D02*
X10651445Y-14202635D01*
X10651445Y-14202635D02*
X10670493Y-14212159D01*
X10670493Y-14212159D02*
X10680017Y-14231207D01*
X10680017Y-14231207D02*
X10680017Y-14335969D01*
X11070493Y-14126445D02*
X10899065Y-14383588D01*
X11327636Y-14135969D02*
X11346684Y-14135969D01*
X11346684Y-14135969D02*
X11365731Y-14145492D01*
X11365731Y-14145492D02*
X11375255Y-14155016D01*
X11375255Y-14155016D02*
X11384779Y-14174064D01*
X11384779Y-14174064D02*
X11394303Y-14212159D01*
X11394303Y-14212159D02*
X11394303Y-14259778D01*
X11394303Y-14259778D02*
X11384779Y-14297873D01*
X11384779Y-14297873D02*
X11375255Y-14316921D01*
X11375255Y-14316921D02*
X11365731Y-14326445D01*
X11365731Y-14326445D02*
X11346684Y-14335969D01*
X11346684Y-14335969D02*
X11327636Y-14335969D01*
X11327636Y-14335969D02*
X11308588Y-14326445D01*
X11308588Y-14326445D02*
X11299065Y-14316921D01*
X11299065Y-14316921D02*
X11289541Y-14297873D01*
X11289541Y-14297873D02*
X11280017Y-14259778D01*
X11280017Y-14259778D02*
X11280017Y-14212159D01*
X11280017Y-14212159D02*
X11289541Y-14174064D01*
X11289541Y-14174064D02*
X11299065Y-14155016D01*
X11299065Y-14155016D02*
X11308588Y-14145492D01*
X11308588Y-14145492D02*
X11327636Y-14135969D01*
X11480017Y-14316921D02*
X11489541Y-14326445D01*
X11489541Y-14326445D02*
X11480017Y-14335969D01*
X11480017Y-14335969D02*
X11470493Y-14326445D01*
X11470493Y-14326445D02*
X11480017Y-14316921D01*
X11480017Y-14316921D02*
X11480017Y-14335969D01*
X11613350Y-14135969D02*
X11632398Y-14135969D01*
X11632398Y-14135969D02*
X11651446Y-14145492D01*
X11651446Y-14145492D02*
X11660969Y-14155016D01*
X11660969Y-14155016D02*
X11670493Y-14174064D01*
X11670493Y-14174064D02*
X11680017Y-14212159D01*
X11680017Y-14212159D02*
X11680017Y-14259778D01*
X11680017Y-14259778D02*
X11670493Y-14297873D01*
X11670493Y-14297873D02*
X11660969Y-14316921D01*
X11660969Y-14316921D02*
X11651446Y-14326445D01*
X11651446Y-14326445D02*
X11632398Y-14335969D01*
X11632398Y-14335969D02*
X11613350Y-14335969D01*
X11613350Y-14335969D02*
X11594303Y-14326445D01*
X11594303Y-14326445D02*
X11584779Y-14316921D01*
X11584779Y-14316921D02*
X11575255Y-14297873D01*
X11575255Y-14297873D02*
X11565731Y-14259778D01*
X11565731Y-14259778D02*
X11565731Y-14212159D01*
X11565731Y-14212159D02*
X11575255Y-14174064D01*
X11575255Y-14174064D02*
X11584779Y-14155016D01*
X11584779Y-14155016D02*
X11594303Y-14145492D01*
X11594303Y-14145492D02*
X11613350Y-14135969D01*
X11794303Y-14221683D02*
X11775255Y-14212159D01*
X11775255Y-14212159D02*
X11765731Y-14202635D01*
X11765731Y-14202635D02*
X11756207Y-14183588D01*
X11756207Y-14183588D02*
X11756207Y-14174064D01*
X11756207Y-14174064D02*
X11765731Y-14155016D01*
X11765731Y-14155016D02*
X11775255Y-14145492D01*
X11775255Y-14145492D02*
X11794303Y-14135969D01*
X11794303Y-14135969D02*
X11832398Y-14135969D01*
X11832398Y-14135969D02*
X11851446Y-14145492D01*
X11851446Y-14145492D02*
X11860969Y-14155016D01*
X11860969Y-14155016D02*
X11870493Y-14174064D01*
X11870493Y-14174064D02*
X11870493Y-14183588D01*
X11870493Y-14183588D02*
X11860969Y-14202635D01*
X11860969Y-14202635D02*
X11851446Y-14212159D01*
X11851446Y-14212159D02*
X11832398Y-14221683D01*
X11832398Y-14221683D02*
X11794303Y-14221683D01*
X11794303Y-14221683D02*
X11775255Y-14231207D01*
X11775255Y-14231207D02*
X11765731Y-14240731D01*
X11765731Y-14240731D02*
X11756207Y-14259778D01*
X11756207Y-14259778D02*
X11756207Y-14297873D01*
X11756207Y-14297873D02*
X11765731Y-14316921D01*
X11765731Y-14316921D02*
X11775255Y-14326445D01*
X11775255Y-14326445D02*
X11794303Y-14335969D01*
X11794303Y-14335969D02*
X11832398Y-14335969D01*
X11832398Y-14335969D02*
X11851446Y-14326445D01*
X11851446Y-14326445D02*
X11860969Y-14316921D01*
X11860969Y-14316921D02*
X11870493Y-14297873D01*
X11870493Y-14297873D02*
X11870493Y-14259778D01*
X11870493Y-14259778D02*
X11860969Y-14240731D01*
X11860969Y-14240731D02*
X11851446Y-14231207D01*
X11851446Y-14231207D02*
X11832398Y-14221683D01*
X12041922Y-14135969D02*
X12003826Y-14135969D01*
X12003826Y-14135969D02*
X11984779Y-14145492D01*
X11984779Y-14145492D02*
X11975255Y-14155016D01*
X11975255Y-14155016D02*
X11956207Y-14183588D01*
X11956207Y-14183588D02*
X11946684Y-14221683D01*
X11946684Y-14221683D02*
X11946684Y-14297873D01*
X11946684Y-14297873D02*
X11956207Y-14316921D01*
X11956207Y-14316921D02*
X11965731Y-14326445D01*
X11965731Y-14326445D02*
X11984779Y-14335969D01*
X11984779Y-14335969D02*
X12022874Y-14335969D01*
X12022874Y-14335969D02*
X12041922Y-14326445D01*
X12041922Y-14326445D02*
X12051446Y-14316921D01*
X12051446Y-14316921D02*
X12060969Y-14297873D01*
X12060969Y-14297873D02*
X12060969Y-14250254D01*
X12060969Y-14250254D02*
X12051446Y-14231207D01*
X12051446Y-14231207D02*
X12041922Y-14221683D01*
X12041922Y-14221683D02*
X12022874Y-14212159D01*
X12022874Y-14212159D02*
X11984779Y-14212159D01*
X11984779Y-14212159D02*
X11965731Y-14221683D01*
X11965731Y-14221683D02*
X11956207Y-14231207D01*
X11956207Y-14231207D02*
X11946684Y-14250254D01*
X12232398Y-14135969D02*
X12194303Y-14135969D01*
X12194303Y-14135969D02*
X12175255Y-14145492D01*
X12175255Y-14145492D02*
X12165731Y-14155016D01*
X12165731Y-14155016D02*
X12146684Y-14183588D01*
X12146684Y-14183588D02*
X12137160Y-14221683D01*
X12137160Y-14221683D02*
X12137160Y-14297873D01*
X12137160Y-14297873D02*
X12146684Y-14316921D01*
X12146684Y-14316921D02*
X12156207Y-14326445D01*
X12156207Y-14326445D02*
X12175255Y-14335969D01*
X12175255Y-14335969D02*
X12213350Y-14335969D01*
X12213350Y-14335969D02*
X12232398Y-14326445D01*
X12232398Y-14326445D02*
X12241922Y-14316921D01*
X12241922Y-14316921D02*
X12251446Y-14297873D01*
X12251446Y-14297873D02*
X12251446Y-14250254D01*
X12251446Y-14250254D02*
X12241922Y-14231207D01*
X12241922Y-14231207D02*
X12232398Y-14221683D01*
X12232398Y-14221683D02*
X12213350Y-14212159D01*
X12213350Y-14212159D02*
X12175255Y-14212159D01*
X12175255Y-14212159D02*
X12156207Y-14221683D01*
X12156207Y-14221683D02*
X12146684Y-14231207D01*
X12146684Y-14231207D02*
X12137160Y-14250254D01*
X12327636Y-14135969D02*
X12327636Y-14174064D01*
X12403827Y-14135969D02*
X12403827Y-14174064D01*
X12699065Y-14412159D02*
X12689541Y-14402635D01*
X12689541Y-14402635D02*
X12670493Y-14374064D01*
X12670493Y-14374064D02*
X12660969Y-14355016D01*
X12660969Y-14355016D02*
X12651446Y-14326445D01*
X12651446Y-14326445D02*
X12641922Y-14278826D01*
X12641922Y-14278826D02*
X12641922Y-14240731D01*
X12641922Y-14240731D02*
X12651446Y-14193111D01*
X12651446Y-14193111D02*
X12660969Y-14164540D01*
X12660969Y-14164540D02*
X12670493Y-14145492D01*
X12670493Y-14145492D02*
X12689541Y-14116921D01*
X12689541Y-14116921D02*
X12699065Y-14107397D01*
X12870493Y-14135969D02*
X12775255Y-14135969D01*
X12775255Y-14135969D02*
X12765731Y-14231207D01*
X12765731Y-14231207D02*
X12775255Y-14221683D01*
X12775255Y-14221683D02*
X12794303Y-14212159D01*
X12794303Y-14212159D02*
X12841922Y-14212159D01*
X12841922Y-14212159D02*
X12860969Y-14221683D01*
X12860969Y-14221683D02*
X12870493Y-14231207D01*
X12870493Y-14231207D02*
X12880017Y-14250254D01*
X12880017Y-14250254D02*
X12880017Y-14297873D01*
X12880017Y-14297873D02*
X12870493Y-14316921D01*
X12870493Y-14316921D02*
X12860969Y-14326445D01*
X12860969Y-14326445D02*
X12841922Y-14335969D01*
X12841922Y-14335969D02*
X12794303Y-14335969D01*
X12794303Y-14335969D02*
X12775255Y-14326445D01*
X12775255Y-14326445D02*
X12765731Y-14316921D01*
X13118112Y-14335969D02*
X13118112Y-14135969D01*
X13203827Y-14335969D02*
X13203827Y-14231207D01*
X13203827Y-14231207D02*
X13194303Y-14212159D01*
X13194303Y-14212159D02*
X13175255Y-14202635D01*
X13175255Y-14202635D02*
X13146684Y-14202635D01*
X13146684Y-14202635D02*
X13127636Y-14212159D01*
X13127636Y-14212159D02*
X13118112Y-14221683D01*
X13327636Y-14335969D02*
X13308589Y-14326445D01*
X13308589Y-14326445D02*
X13299065Y-14316921D01*
X13299065Y-14316921D02*
X13289541Y-14297873D01*
X13289541Y-14297873D02*
X13289541Y-14240731D01*
X13289541Y-14240731D02*
X13299065Y-14221683D01*
X13299065Y-14221683D02*
X13308589Y-14212159D01*
X13308589Y-14212159D02*
X13327636Y-14202635D01*
X13327636Y-14202635D02*
X13356208Y-14202635D01*
X13356208Y-14202635D02*
X13375255Y-14212159D01*
X13375255Y-14212159D02*
X13384779Y-14221683D01*
X13384779Y-14221683D02*
X13394303Y-14240731D01*
X13394303Y-14240731D02*
X13394303Y-14297873D01*
X13394303Y-14297873D02*
X13384779Y-14316921D01*
X13384779Y-14316921D02*
X13375255Y-14326445D01*
X13375255Y-14326445D02*
X13356208Y-14335969D01*
X13356208Y-14335969D02*
X13327636Y-14335969D01*
X13508589Y-14335969D02*
X13489541Y-14326445D01*
X13489541Y-14326445D02*
X13480017Y-14307397D01*
X13480017Y-14307397D02*
X13480017Y-14135969D01*
X13660970Y-14326445D02*
X13641922Y-14335969D01*
X13641922Y-14335969D02*
X13603827Y-14335969D01*
X13603827Y-14335969D02*
X13584779Y-14326445D01*
X13584779Y-14326445D02*
X13575255Y-14307397D01*
X13575255Y-14307397D02*
X13575255Y-14231207D01*
X13575255Y-14231207D02*
X13584779Y-14212159D01*
X13584779Y-14212159D02*
X13603827Y-14202635D01*
X13603827Y-14202635D02*
X13641922Y-14202635D01*
X13641922Y-14202635D02*
X13660970Y-14212159D01*
X13660970Y-14212159D02*
X13670493Y-14231207D01*
X13670493Y-14231207D02*
X13670493Y-14250254D01*
X13670493Y-14250254D02*
X13575255Y-14269302D01*
X13746684Y-14326445D02*
X13765731Y-14335969D01*
X13765731Y-14335969D02*
X13803827Y-14335969D01*
X13803827Y-14335969D02*
X13822874Y-14326445D01*
X13822874Y-14326445D02*
X13832398Y-14307397D01*
X13832398Y-14307397D02*
X13832398Y-14297873D01*
X13832398Y-14297873D02*
X13822874Y-14278826D01*
X13822874Y-14278826D02*
X13803827Y-14269302D01*
X13803827Y-14269302D02*
X13775255Y-14269302D01*
X13775255Y-14269302D02*
X13756208Y-14259778D01*
X13756208Y-14259778D02*
X13746684Y-14240731D01*
X13746684Y-14240731D02*
X13746684Y-14231207D01*
X13746684Y-14231207D02*
X13756208Y-14212159D01*
X13756208Y-14212159D02*
X13775255Y-14202635D01*
X13775255Y-14202635D02*
X13803827Y-14202635D01*
X13803827Y-14202635D02*
X13822874Y-14212159D01*
X13899065Y-14412159D02*
X13908589Y-14402635D01*
X13908589Y-14402635D02*
X13927636Y-14374064D01*
X13927636Y-14374064D02*
X13937160Y-14355016D01*
X13937160Y-14355016D02*
X13946684Y-14326445D01*
X13946684Y-14326445D02*
X13956208Y-14278826D01*
X13956208Y-14278826D02*
X13956208Y-14240731D01*
X13956208Y-14240731D02*
X13946684Y-14193111D01*
X13946684Y-14193111D02*
X13937160Y-14164540D01*
X13937160Y-14164540D02*
X13927636Y-14145492D01*
X13927636Y-14145492D02*
X13908589Y-14116921D01*
X13908589Y-14116921D02*
X13899065Y-14107397D01*
X14260970Y-14412159D02*
X14251446Y-14402635D01*
X14251446Y-14402635D02*
X14232398Y-14374064D01*
X14232398Y-14374064D02*
X14222874Y-14355016D01*
X14222874Y-14355016D02*
X14213351Y-14326445D01*
X14213351Y-14326445D02*
X14203827Y-14278826D01*
X14203827Y-14278826D02*
X14203827Y-14240731D01*
X14203827Y-14240731D02*
X14213351Y-14193111D01*
X14213351Y-14193111D02*
X14222874Y-14164540D01*
X14222874Y-14164540D02*
X14232398Y-14145492D01*
X14232398Y-14145492D02*
X14251446Y-14116921D01*
X14251446Y-14116921D02*
X14260970Y-14107397D01*
X14337160Y-14202635D02*
X14337160Y-14335969D01*
X14337160Y-14221683D02*
X14346684Y-14212159D01*
X14346684Y-14212159D02*
X14365731Y-14202635D01*
X14365731Y-14202635D02*
X14394303Y-14202635D01*
X14394303Y-14202635D02*
X14413351Y-14212159D01*
X14413351Y-14212159D02*
X14422874Y-14231207D01*
X14422874Y-14231207D02*
X14422874Y-14335969D01*
X14546684Y-14335969D02*
X14527636Y-14326445D01*
X14527636Y-14326445D02*
X14518112Y-14316921D01*
X14518112Y-14316921D02*
X14508589Y-14297873D01*
X14508589Y-14297873D02*
X14508589Y-14240731D01*
X14508589Y-14240731D02*
X14518112Y-14221683D01*
X14518112Y-14221683D02*
X14527636Y-14212159D01*
X14527636Y-14212159D02*
X14546684Y-14202635D01*
X14546684Y-14202635D02*
X14575255Y-14202635D01*
X14575255Y-14202635D02*
X14594303Y-14212159D01*
X14594303Y-14212159D02*
X14603827Y-14221683D01*
X14603827Y-14221683D02*
X14613351Y-14240731D01*
X14613351Y-14240731D02*
X14613351Y-14297873D01*
X14613351Y-14297873D02*
X14603827Y-14316921D01*
X14603827Y-14316921D02*
X14594303Y-14326445D01*
X14594303Y-14326445D02*
X14575255Y-14335969D01*
X14575255Y-14335969D02*
X14546684Y-14335969D01*
X14670493Y-14202635D02*
X14746684Y-14202635D01*
X14699065Y-14135969D02*
X14699065Y-14307397D01*
X14699065Y-14307397D02*
X14708589Y-14326445D01*
X14708589Y-14326445D02*
X14727636Y-14335969D01*
X14727636Y-14335969D02*
X14746684Y-14335969D01*
X14965732Y-14202635D02*
X14965732Y-14402635D01*
X14965732Y-14212159D02*
X14984779Y-14202635D01*
X14984779Y-14202635D02*
X15022874Y-14202635D01*
X15022874Y-14202635D02*
X15041922Y-14212159D01*
X15041922Y-14212159D02*
X15051446Y-14221683D01*
X15051446Y-14221683D02*
X15060970Y-14240731D01*
X15060970Y-14240731D02*
X15060970Y-14297873D01*
X15060970Y-14297873D02*
X15051446Y-14316921D01*
X15051446Y-14316921D02*
X15041922Y-14326445D01*
X15041922Y-14326445D02*
X15022874Y-14335969D01*
X15022874Y-14335969D02*
X14984779Y-14335969D01*
X14984779Y-14335969D02*
X14965732Y-14326445D01*
X15175255Y-14335969D02*
X15156208Y-14326445D01*
X15156208Y-14326445D02*
X15146684Y-14307397D01*
X15146684Y-14307397D02*
X15146684Y-14135969D01*
X15337160Y-14335969D02*
X15337160Y-14231207D01*
X15337160Y-14231207D02*
X15327636Y-14212159D01*
X15327636Y-14212159D02*
X15308589Y-14202635D01*
X15308589Y-14202635D02*
X15270493Y-14202635D01*
X15270493Y-14202635D02*
X15251446Y-14212159D01*
X15337160Y-14326445D02*
X15318113Y-14335969D01*
X15318113Y-14335969D02*
X15270493Y-14335969D01*
X15270493Y-14335969D02*
X15251446Y-14326445D01*
X15251446Y-14326445D02*
X15241922Y-14307397D01*
X15241922Y-14307397D02*
X15241922Y-14288350D01*
X15241922Y-14288350D02*
X15251446Y-14269302D01*
X15251446Y-14269302D02*
X15270493Y-14259778D01*
X15270493Y-14259778D02*
X15318113Y-14259778D01*
X15318113Y-14259778D02*
X15337160Y-14250254D01*
X15403827Y-14202635D02*
X15480017Y-14202635D01*
X15432398Y-14135969D02*
X15432398Y-14307397D01*
X15432398Y-14307397D02*
X15441922Y-14326445D01*
X15441922Y-14326445D02*
X15460970Y-14335969D01*
X15460970Y-14335969D02*
X15480017Y-14335969D01*
X15622874Y-14326445D02*
X15603827Y-14335969D01*
X15603827Y-14335969D02*
X15565732Y-14335969D01*
X15565732Y-14335969D02*
X15546684Y-14326445D01*
X15546684Y-14326445D02*
X15537160Y-14307397D01*
X15537160Y-14307397D02*
X15537160Y-14231207D01*
X15537160Y-14231207D02*
X15546684Y-14212159D01*
X15546684Y-14212159D02*
X15565732Y-14202635D01*
X15565732Y-14202635D02*
X15603827Y-14202635D01*
X15603827Y-14202635D02*
X15622874Y-14212159D01*
X15622874Y-14212159D02*
X15632398Y-14231207D01*
X15632398Y-14231207D02*
X15632398Y-14250254D01*
X15632398Y-14250254D02*
X15537160Y-14269302D01*
X15803827Y-14335969D02*
X15803827Y-14135969D01*
X15803827Y-14326445D02*
X15784779Y-14335969D01*
X15784779Y-14335969D02*
X15746684Y-14335969D01*
X15746684Y-14335969D02*
X15727636Y-14326445D01*
X15727636Y-14326445D02*
X15718113Y-14316921D01*
X15718113Y-14316921D02*
X15708589Y-14297873D01*
X15708589Y-14297873D02*
X15708589Y-14240731D01*
X15708589Y-14240731D02*
X15718113Y-14221683D01*
X15718113Y-14221683D02*
X15727636Y-14212159D01*
X15727636Y-14212159D02*
X15746684Y-14202635D01*
X15746684Y-14202635D02*
X15784779Y-14202635D01*
X15784779Y-14202635D02*
X15803827Y-14212159D01*
X15880017Y-14412159D02*
X15889541Y-14402635D01*
X15889541Y-14402635D02*
X15908589Y-14374064D01*
X15908589Y-14374064D02*
X15918113Y-14355016D01*
X15918113Y-14355016D02*
X15927636Y-14326445D01*
X15927636Y-14326445D02*
X15937160Y-14278826D01*
X15937160Y-14278826D02*
X15937160Y-14240731D01*
X15937160Y-14240731D02*
X15927636Y-14193111D01*
X15927636Y-14193111D02*
X15918113Y-14164540D01*
X15918113Y-14164540D02*
X15908589Y-14145492D01*
X15908589Y-14145492D02*
X15889541Y-14116921D01*
X15889541Y-14116921D02*
X15880017Y-14107397D01*
M02*
