<svg width="102.669mm" height="106.6mm" viewBox="0 0 102.669 106.6" xmlns="http://www.w3.org/2000/svg"><g id="svgGroup" stroke-linecap="round" fill-rule="evenodd" font-size="9pt" stroke="#000" stroke-width="0.25mm" fill="none" style="stroke:#000;stroke-width:0.25mm;fill:none"><path d="M 2 67.3 L 18 67.3 A 1 1 0 0 0 19 66.3 L 19 54.4 A 1 1 0 0 0 20 55.4 L 36 55.4 A 1 1 0 0 0 37 54.4 L 37 51 A 1 1 0 0 0 38 52 L 54 52 A 1 1 0 0 0 55 51 L 55 56.1 A 1 1 0 0 0 56 57.1 L 66.748 57.1 A 1 1 0 0 0 66.248 57.726 L 64 66.115 L 64 59.8 A 1 1 0 0 0 63 58.8 L 47 58.8 A 1 1 0 0 0 46 59.8 L 46 74.8 A 1 1 0 0 0 47 75.8 L 63 75.8 A 1 1 0 0 0 64 74.8 L 64 73.688 L 78.527 77.581 A 1 1 0 0 0 79.752 76.874 L 80.719 73.265 A 1 1 0 0 0 81.073 73.44 L 96.527 77.581 A 1 1 0 0 0 97.752 76.874 L 101.634 62.385 A 1 1 0 0 0 100.927 61.16 L 90.77 58.438 A 1 1 0 0 0 91 57.8 L 91 42.8 A 1 1 0 0 0 90 41.8 A 1 1 0 0 0 91 40.8 L 91 25.8 A 1 1 0 0 0 90 24.8 A 1 1 0 0 0 91 23.8 L 91 8.8 A 1 1 0 0 0 90 7.8 L 74 7.8 A 1 1 0 0 0 73 8.8 L 73 7.1 A 1 1 0 0 0 72 6.1 L 56 6.1 A 1 1 0 0 0 55 7.1 L 55 2 A 1 1 0 0 0 54 1 L 38 1 A 1 1 0 0 0 37 2 L 37 5.4 A 1 1 0 0 0 36 4.4 L 20 4.4 A 1 1 0 0 0 19 5.4 L 19 17.3 A 1 1 0 0 0 18 16.3 L 2 16.3 A 1 1 0 0 0 1 17.3 L 1 32.3 A 1 1 0 0 0 2 33.3 A 1 1 0 0 0 1 34.3 L 1 49.3 A 1 1 0 0 0 2 50.3 A 1 1 0 0 0 1 51.3 L 1 66.3 A 1 1 0 0 0 2 67.3 Z M 2 68.3 L 18 68.3 A 2 2 0 0 0 20 66.3 L 20 56.4 L 36 56.4 A 2 2 0 0 0 38 54.4 L 38 53 L 45 53 L 45 74.8 A 2 2 0 0 0 47 76.8 L 63 76.8 A 2 2 0 0 0 63.528 76.729 L 66.75 76.296 L 66.75 104.6 A 2 2 0 0 0 68.75 106.6 L 95.25 106.6 A 2 2 0 0 0 97.25 104.6 L 97.25 78.56 A 2 2 0 0 0 98.718 77.133 L 102.6 62.644 A 2 2 0 0 0 101.186 60.194 L 97.25 59.14 L 97.25 43.6 A 2 2 0 0 0 95.25 41.6 L 92 41.6 L 92 8.8 A 2 2 0 0 0 90 6.8 L 74 6.8 A 2 2 0 0 0 73.977 6.8 A 2 2 0 0 0 72 5.1 L 56 5.1 L 56 2 A 2 2 0 0 0 54 0 L 38 0 A 2 2 0 0 0 36 2 L 36 3.4 L 20 3.4 A 2 2 0 0 0 18 5.4 L 18 15.3 L 2 15.3 A 2 2 0 0 0 0 17.3 L 0 66.3 A 2 2 0 0 0 2 68.3 Z M 74.119 58.8 L 83.96 58.8 L 83.281 61.335 A 1 1 0 0 0 82.927 61.16 L 74.119 58.8 Z M 67.775 57.1 L 72 57.1 A 1 1 0 0 0 73 56.1 L 73 57.8 A 1 1 0 0 0 73.416 58.612 L 67.775 57.1 Z M 73 25.8 L 73 24.1 A 1 1 0 0 0 72 23.1 A 1 1 0 0 0 73 22.1 L 73 23.8 A 1 1 0 0 0 74 24.8 A 1 1 0 0 0 73 25.8 Z M 73 42.8 L 73 41.1 A 1 1 0 0 0 72 40.1 A 1 1 0 0 0 73 39.1 L 73 40.8 A 1 1 0 0 0 74 41.8 A 1 1 0 0 0 73 42.8 Z M 19 51.3 A 1 1 0 0 0 18 50.3 A 1 1 0 0 0 19 49.3 L 19 51.3 Z M 19 39.4 L 19 37.4 A 1 1 0 0 0 20 38.4 A 1 1 0 0 0 19 39.4 Z M 19 34.3 A 1 1 0 0 0 18 33.3 A 1 1 0 0 0 19 32.3 L 19 34.3 Z M 19 22.4 L 19 20.4 A 1 1 0 0 0 20 21.4 A 1 1 0 0 0 19 22.4 Z M 37 39.4 A 1 1 0 0 0 36 38.4 A 1 1 0 0 0 37 37.4 L 37 39.4 Z M 37 22.4 A 1 1 0 0 0 36 21.4 A 1 1 0 0 0 37 20.4 L 37 22.4 Z M 37 19 L 37 17 A 1 1 0 0 0 38 18 A 1 1 0 0 0 37 19 Z M 55 41.1 L 55 39.1 A 1 1 0 0 0 56 40.1 A 1 1 0 0 0 55 41.1 Z M 55 24.1 L 55 22.1 A 1 1 0 0 0 56 23.1 A 1 1 0 0 0 55 24.1 Z M 55 19 A 1 1 0 0 0 54 18 A 1 1 0 0 0 55 17 L 55 19 Z M 37 36 L 37 34 A 1 1 0 0 0 38 35 A 1 1 0 0 0 37 36 Z M 55 36 A 1 1 0 0 0 54 35 A 1 1 0 0 0 55 34 L 55 36 Z" vector-effect="non-scaling-stroke"/></g></svg>