<svg width="102.669mm" height="106.6mm" viewBox="0 0 102.669 106.6" xmlns="http://www.w3.org/2000/svg"><g id="svgGroup" stroke-linecap="round" fill-rule="evenodd" font-size="9pt" stroke="#000" stroke-width="0.25mm" fill="none" style="stroke:#000;stroke-width:0.25mm;fill:none"><path d="M 2 68.3 L 18 68.3 A 2 2 0 0 0 20 66.3 L 20 56.4 L 36 56.4 A 2 2 0 0 0 38 54.4 L 38 53 L 45 53 L 45 74.8 A 2 2 0 0 0 47 76.8 L 63 76.8 A 2 2 0 0 0 63.528 76.729 L 66.75 76.296 L 66.75 104.6 A 2 2 0 0 0 68.75 106.6 L 95.25 106.6 A 2 2 0 0 0 97.25 104.6 L 97.25 78.56 A 2 2 0 0 0 98.718 77.133 L 102.6 62.644 A 2 2 0 0 0 101.186 60.194 L 97.25 59.14 L 97.25 43.6 A 2 2 0 0 0 95.25 41.6 L 92 41.6 L 92 8.8 A 2 2 0 0 0 90 6.8 L 74 6.8 A 2 2 0 0 0 73.977 6.8 A 2 2 0 0 0 72 5.1 L 56 5.1 L 56 2 A 2 2 0 0 0 54 0 L 38 0 A 2 2 0 0 0 36 2 L 36 3.4 L 20 3.4 A 2 2 0 0 0 18 5.4 L 18 15.3 L 2 15.3 A 2 2 0 0 0 0 17.3 L 0 66.3 A 2 2 0 0 0 2 68.3 Z" vector-effect="non-scaling-stroke"/></g></svg>