0
SECTION
2
HEADER
9
$INSUNITS
70
4
0
ENDSEC
0
SECTION
2
TABLES
0
TABLE
2
LTYPE
0
LTYPE
72
65
70
64
2
CONTINUOUS
3
______
73
0
40
0
0
ENDTAB
0
TABLE
2
LAYER
0
ENDTAB
0
ENDSEC
0
SECTION
2
ENTITIES
0
LINE
8
0
10
-8
20
-9.5
11
8
21
-9.5
0
ARC
8
0
10
8
20
-7.5
40
2
50
270
51
360
0
LINE
8
0
10
10
20
-7.5
11
10
21
2.4
0
LINE
8
0
10
-10
20
-7.5
11
-10
21
41.5
0
ARC
8
0
10
-8
20
-7.5
40
2
50
180
51
270
0
LINE
8
0
10
8
20
43.5
11
-8
21
43.5
0
ARC
8
0
10
-8
20
41.5
40
2
50
90
51
180
0
LINE
8
0
10
10
20
2.4
11
26
21
2.4
0
ARC
8
0
10
26
20
4.4
40
2
50
270
51
360
0
LINE
8
0
10
28
20
4.4
11
28
21
5.8
0
LINE
8
0
10
26
20
55.4
11
10
21
55.4
0
ARC
8
0
10
10
20
53.4
40
2
50
90
51
180
0
LINE
8
0
10
8
20
53.4
11
8
21
43.5
0
LINE
8
0
10
28
20
5.8
11
35
21
5.8
0
LINE
8
0
10
46
20
53.7
11
46
21
56.8
0
ARC
8
0
10
44
20
56.8
40
2
50
0
51
90
0
LINE
8
0
10
44
20
58.8
11
28
21
58.8
0
ARC
8
0
10
28
20
56.8
40
2
50
90
51
180
0
LINE
8
0
10
26
20
56.8
11
26
21
55.4
0
ARC
8
0
10
62
20
51.7
40
2
50
8.6232234
51
90
0
LINE
8
0
10
62
20
53.7
11
46
21
53.7
0
LINE
8
0
10
82
20
17.2
11
82
21
50
0
ARC
8
0
10
80
20
50
40
2
50
0
51
90
0
LINE
8
0
10
80
20
52
11
64
21
52
0
ARC
8
0
10
64
20
50
40
2
50
90
51
90.6477025
0
LINE
8
0
10
37
20
-18
11
53
21
-18
0
ARC
8
0
10
53
20
-16
40
2
50
270
51
285.3098843
0
LINE
8
0
10
35
20
-16
11
35
21
5.8
0
ARC
8
0
10
37
20
-16
40
2
50
180
51
270
0
ARC
8
0
10
86.7862638
20
-17.8149961
40
2
50
283.4070794
51
345
0
LINE
8
0
10
88.7181154
20
-18.3326341
11
92.6004011
21
-3.8437468
0
ARC
8
0
10
90.6685494
20
-3.3261087
40
2
50
345
51
75
0
LINE
8
0
10
91.1861875
20
-1.394257
11
87.25
21
-0.3395587
0
LINE
8
0
10
56.75
20
-17.495983
11
53.5280789
21
-17.9290238
0
LINE
8
0
10
58.75
20
-47.8
11
85.25
21
-47.8
0
ARC
8
0
10
85.25
20
-45.8
40
2
50
270
51
360
0
LINE
8
0
10
87.25
20
-45.8
11
87.25
21
-19.7604906
0
LINE
8
0
10
87.25
20
-0.3395587
11
87.25
21
15.2
0
ARC
8
0
10
85.25
20
15.2
40
2
50
0
51
90
0
LINE
8
0
10
85.25
20
17.2
11
82
21
17.2
0
LINE
8
0
10
56.75
20
-17.495983
11
56.75
21
-45.8
0
ARC
8
0
10
58.75
20
-45.8
40
2
50
180
51
270
0
ENDSEC
0
EOF