<svg width="102.669mm" height="78.615mm" viewBox="0 0 102.669 78.615" xmlns="http://www.w3.org/2000/svg"><g id="svgGroup" stroke-linecap="round" fill-rule="evenodd" font-size="9pt" stroke="#000" stroke-width="0.25mm" fill="none" style="stroke:#000;stroke-width:0.25mm;fill:none"><path d="M 45 59.8 A 2 2 0 0 1 47 57.8 L 54.946 57.8 A 2 2 0 0 1 54 56.1 L 54 53 L 38 53 L 38 54.4 A 2 2 0 0 1 36 56.4 L 20 56.4 L 20 66.3 A 2 2 0 0 1 18 68.3 L 2 68.3 A 2 2 0 0 1 0 66.3 L 0 17.3 A 2 2 0 0 1 2 15.3 L 18 15.3 L 18 5.4 A 2 2 0 0 1 20 3.4 L 36 3.4 L 36 2 A 2 2 0 0 1 38 0 L 54 0 A 2 2 0 0 1 56 2 L 56 5.1 L 72 5.1 A 2 2 0 0 1 73.977 6.8 A 2 2 0 0 1 74 6.8 L 90 6.8 A 2 2 0 0 1 92 8.8 L 92 57.733 L 101.186 60.194 L 92 57.8 L 82 33.3 L 45 40.8 L 45 74.8 A 2 2 0 0 0 47 76.8 L 63 76.8 A 2 2 0 0 0 64.991 74.989 L 78.269 78.547 A 2 2 0 0 0 80.718 77.133 L 81.406 74.564 M 0 58.8 L 28 46.9 L 28 12.9 L 0 24.8 M 92 16.3 L 64 14.6 L 64 48.6 L 92 50.3 M 101.186 60.194 L 96.269 78.547 L 80.814 74.406 L 63 76.8 L 45 74.8 M 101.186 60.194 A 2 2 0 0 1 102.6 62.644 L 98.718 77.133 A 2 2 0 0 1 96.269 78.547 M 64.054 58.1 L 65.112 58.1 L 64.856 59.056 A 2 2 0 0 0 64.054 58.1 Z M 81.715 59.8 L 82.657 59.8 L 82.594 60.036 L 81.715 59.8 Z M 92 40.8 A 2 2 0 0 1 91.732 41.8 A 2 2 0 0 1 92 42.8 M 92 23.8 A 2 2 0 0 1 91.732 24.8 A 2 2 0 0 1 92 25.8 M 0 51.3 A 2 2 0 0 1 0.268 50.3 A 2 2 0 0 1 0 49.3 M 0 34.3 A 2 2 0 0 1 0.268 33.3 A 2 2 0 0 1 0 32.3" vector-effect="non-scaling-stroke"/></g></svg>