<svg width="129.751mm" height="85.717mm" viewBox="0 0 129.751 85.717" xmlns="http://www.w3.org/2000/svg"><g id="svgGroup" stroke-linecap="round" fill-rule="evenodd" font-size="9pt" stroke="#000" stroke-width="0.25mm" fill="none" style="stroke:#000;stroke-width:0.25mm;fill:none"><path d="M 0.002 57.76 L 0 6.95 A 0.5 0.5 0 0 1 0.5 6.45 L 36.5 6.449 A 0.5 0.5 0 0 0 37 5.949 L 37 2.575 A 0.5 0.5 0 0 1 37.5 2.075 L 55 2.075 A 0.5 0.5 0 0 0 55.5 1.575 L 55.5 0.5 A 0.5 0.5 0 0 1 56 0 L 72.528 0 A 0.5 0.5 0 0 1 73.028 0.5 L 73.028 1.575 A 0.5 0.5 0 0 0 73.528 2.075 L 91.028 2.075 A 0.5 0.5 0 0 1 91.528 2.575 L 91.528 3.871 A 0.5 0.5 0 0 0 92.028 4.371 L 109.522 4.375 A 0.5 0.5 0 0 1 110.022 4.881 L 110.003 6.447 A 0.5 0.5 0 0 0 110.003 6.453 L 110.003 50.858 A 0.5 0.5 0 0 0 110.253 51.291 L 129.501 62.404 A 0.5 0.5 0 0 1 129.682 63.091 L 116.485 85.471 A 0.5 0.5 0 0 1 115.804 85.65 L 101.87 77.605 A 0.5 0.5 0 0 0 101.693 77.544 L 64.932 72.078 A 0.5 0.5 0 0 1 64.607 71.885 L 54.443 58.451 A 0.5 0.5 0 0 0 54.044 58.253 L 0.502 58.26 A 0.5 0.5 0 0 1 0.002 57.76 Z M 118.224 79.495 L 125.124 67.544 L 113.173 60.644 L 106.273 72.595 L 118.224 79.495 Z M 38.785 52.273 L 52.585 52.273 L 52.585 38.473 L 38.785 38.473 L 38.785 52.273 Z M 38.785 34.773 L 52.585 34.773 L 52.585 20.973 L 38.785 20.973 L 38.785 34.773 Z M 38.785 17.273 L 52.585 17.273 L 52.585 3.473 L 38.785 3.473 L 38.785 17.273 Z M 57.285 50.085 L 71.085 50.085 L 71.085 36.285 L 57.285 36.285 L 57.285 50.085 Z M 57.285 32.585 L 71.085 32.585 L 71.085 18.785 L 57.285 18.785 L 57.285 32.585 Z M 57.285 15.085 L 71.085 15.085 L 71.085 1.285 L 57.285 1.285 L 57.285 15.085 Z M 75.785 52.273 L 89.585 52.273 L 89.585 38.473 L 75.785 38.473 L 75.785 52.273 Z M 75.785 34.773 L 89.585 34.773 L 89.585 20.973 L 75.785 20.973 L 75.785 34.773 Z M 75.785 17.273 L 89.585 17.273 L 89.585 3.473 L 75.785 3.473 L 75.785 17.273 Z M 94.285 54.46 L 108.085 54.46 L 108.085 40.66 L 94.285 40.66 L 94.285 54.46 Z M 94.285 36.96 L 108.085 36.96 L 108.085 23.16 L 94.285 23.16 L 94.285 36.96 Z M 94.285 19.46 L 108.085 19.46 L 108.085 5.66 L 94.285 5.66 L 94.285 19.46 Z M 66.535 70.585 L 80.335 70.585 L 80.335 56.785 L 66.535 56.785 L 66.535 70.585 Z M 1.785 56.648 L 15.585 56.648 L 15.585 42.848 L 1.785 42.848 L 1.785 56.648 Z M 1.785 39.148 L 15.585 39.148 L 15.585 25.348 L 1.785 25.348 L 1.785 39.148 Z M 1.785 21.648 L 15.585 21.648 L 15.585 7.848 L 1.785 7.848 L 1.785 21.648 Z M 20.285 56.648 L 34.085 56.648 L 34.085 42.848 L 20.285 42.848 L 20.285 56.648 Z M 20.285 39.148 L 34.085 39.148 L 34.085 25.348 L 20.285 25.348 L 20.285 39.148 Z M 20.285 21.648 L 34.085 21.648 L 34.085 7.848 L 20.285 7.848 L 20.285 21.648 Z M 85.484 71.314 L 98.814 74.886 L 102.386 61.556 L 89.056 57.984 L 85.484 71.314 Z M 17.935 23.498 m -1.1 0 a 1.1 1.1 0 0 1 2.2 0 a 1.1 1.1 0 0 1 -2.2 0 z M 17.935 40.998 m -1.1 0 a 1.1 1.1 0 0 1 2.2 0 a 1.1 1.1 0 0 1 -2.2 0 z M 91.903 20.171 m -1.1 0 a 1.1 1.1 0 0 1 2.2 0 a 1.1 1.1 0 0 1 -2.2 0 z M 59.842 57.113 m -1.1 0 a 1.1 1.1 0 0 1 2.2 0 a 1.1 1.1 0 0 1 -2.2 0 z M 105.843 64.379 m -1.1 0 a 1.1 1.1 0 0 1 2.2 0 a 1.1 1.1 0 0 1 -2.2 0 z" vector-effect="non-scaling-stroke"/></g></svg>