0
SECTION
2
HEADER
9
$INSUNITS
70
4
0
ENDSEC
0
SECTION
2
TABLES
0
TABLE
2
LTYPE
0
LTYPE
72
65
70
64
2
CONTINUOUS
3
______
73
0
40
0
0
ENDTAB
0
TABLE
2
LAYER
0
ENDTAB
0
ENDSEC
0
SECTION
2
ENTITIES
0
LINE
8
0
10
-8
20
-8.5
11
8
21
-8.5
0
ARC
8
0
10
8
20
-7.5
40
1
50
270
51
360
0
LINE
8
0
10
9
20
-7.5
11
9
21
4.4
0
ARC
8
0
10
8
20
7.5
40
1
50
0
51
90
0
ARC
8
0
10
-8
20
7.5
40
1
50
90
51
180
0
LINE
8
0
10
-9
20
7.5
11
-9
21
-7.5
0
ARC
8
0
10
-8
20
-7.5
40
1
50
180
51
270
0
ARC
8
0
10
8
20
9.5
40
1
50
270
51
360
0
LINE
8
0
10
9
20
19.4
11
9
21
21.4
0
ARC
8
0
10
8
20
24.5
40
1
50
0
51
90
0
ARC
8
0
10
-8
20
24.5
40
1
50
90
51
180
0
LINE
8
0
10
-9
20
24.5
11
-9
21
9.5
0
ARC
8
0
10
-8
20
9.5
40
1
50
180
51
270
0
ARC
8
0
10
8
20
26.5
40
1
50
270
51
360
0
LINE
8
0
10
9
20
36.4
11
9
21
38.4
0
ARC
8
0
10
8
20
41.5
40
1
50
0
51
90
0
LINE
8
0
10
8
20
42.5
11
-8
21
42.5
0
ARC
8
0
10
-8
20
41.5
40
1
50
90
51
180
0
LINE
8
0
10
-9
20
41.5
11
-9
21
26.5
0
ARC
8
0
10
-8
20
26.5
40
1
50
180
51
270
0
LINE
8
0
10
10
20
3.4
11
26
21
3.4
0
ARC
8
0
10
26
20
4.4
40
1
50
270
51
360
0
LINE
8
0
10
27
20
4.4
11
27
21
7.8
0
ARC
8
0
10
26
20
19.4
40
1
50
0
51
90
0
ARC
8
0
10
10
20
19.4
40
1
50
90
51
180
0
LINE
8
0
10
9
20
9.5
11
9
21
7.5
0
ARC
8
0
10
10
20
4.4
40
1
50
180
51
270
0
ARC
8
0
10
26
20
21.4
40
1
50
270
51
360
0
LINE
8
0
10
27
20
22.8
11
27
21
24.8
0
ARC
8
0
10
26
20
36.4
40
1
50
0
51
90
0
ARC
8
0
10
10
20
36.4
40
1
50
90
51
180
0
LINE
8
0
10
9
20
26.5
11
9
21
24.5
0
ARC
8
0
10
10
20
21.4
40
1
50
180
51
270
0
ARC
8
0
10
26
20
38.4
40
1
50
270
51
360
0
LINE
8
0
10
27
20
39.8
11
27
21
41.8
0
ARC
8
0
10
26
20
53.4
40
1
50
0
51
90
0
LINE
8
0
10
26
20
54.4
11
10
21
54.4
0
ARC
8
0
10
10
20
53.4
40
1
50
90
51
180
0
LINE
8
0
10
9
20
53.4
11
9
21
41.5
0
ARC
8
0
10
10
20
38.4
40
1
50
180
51
270
0
LINE
8
0
10
28
20
6.8
11
44
21
6.8
0
ARC
8
0
10
44
20
7.8
40
1
50
270
51
360
0
LINE
8
0
10
45
20
17.7
11
45
21
19.7
0
ARC
8
0
10
44
20
22.8
40
1
50
0
51
90
0
ARC
8
0
10
28
20
22.8
40
1
50
90
51
180
0
LINE
8
0
10
27
20
21.4
11
27
21
19.4
0
ARC
8
0
10
28
20
7.8
40
1
50
180
51
270
0
ARC
8
0
10
44
20
24.8
40
1
50
270
51
360
0
LINE
8
0
10
45
20
34.7
11
45
21
36.7
0
ARC
8
0
10
44
20
39.8
40
1
50
0
51
90
0
ARC
8
0
10
28
20
39.8
40
1
50
90
51
180
0
LINE
8
0
10
27
20
38.4
11
27
21
36.4
0
ARC
8
0
10
28
20
24.8
40
1
50
180
51
270
0
ARC
8
0
10
44
20
41.8
40
1
50
270
51
360
0
LINE
8
0
10
45
20
51.7
11
45
21
56.8
0
ARC
8
0
10
44
20
56.8
40
1
50
0
51
90
0
LINE
8
0
10
44
20
57.8
11
28
21
57.8
0
ARC
8
0
10
28
20
56.8
40
1
50
90
51
180
0
LINE
8
0
10
27
20
56.8
11
27
21
53.4
0
ARC
8
0
10
28
20
41.8
40
1
50
180
51
270
0
LINE
8
0
10
46
20
1.7
11
56.7481526
21
1.7
0
LINE
8
0
10
57.7745599
20
1.7
11
62
21
1.7
0
ARC
8
0
10
62
20
2.7
40
1
50
270
51
360
0
LINE
8
0
10
63
20
16
11
63
21
17.7
0
ARC
8
0
10
62
20
17.7
40
1
50
0
51
90
0
ARC
8
0
10
46
20
17.7
40
1
50
90
51
180
0
LINE
8
0
10
45
20
7.8
11
45
21
2.7
0
ARC
8
0
10
46
20
2.7
40
1
50
180
51
270
0
ARC
8
0
10
62
20
19.7
40
1
50
270
51
360
0
LINE
8
0
10
63
20
33
11
63
21
34.7
0
ARC
8
0
10
62
20
34.7
40
1
50
0
51
90
0
ARC
8
0
10
46
20
34.7
40
1
50
90
51
180
0
LINE
8
0
10
45
20
24.8
11
45
21
22.8
0
ARC
8
0
10
46
20
19.7
40
1
50
180
51
270
0
ARC
8
0
10
62
20
36.7
40
1
50
270
51
360
0
LINE
8
0
10
63
20
50
11
63
21
51.7
0
ARC
8
0
10
62
20
51.7
40
1
50
0
51
90
0
LINE
8
0
10
62
20
52.7
11
46
21
52.7
0
ARC
8
0
10
46
20
51.7
40
1
50
90
51
180
0
LINE
8
0
10
45
20
41.8
11
45
21
39.8
0
ARC
8
0
10
46
20
36.7
40
1
50
180
51
270
0
LINE
8
0
10
64.1190463
20
0
11
73.9600825
21
0
0
ARC
8
0
10
80
20
1
40
1
50
320.3246396
51
360
0
LINE
8
0
10
81
20
1
11
81
21
16
0
ARC
8
0
10
80
20
16
40
1
50
0
51
90
0
ARC
8
0
10
64
20
16
40
1
50
90
51
180
0
LINE
8
0
10
63
20
2.7
11
63
21
1
0
ARC
8
0
10
64
20
1
40
1
50
180
51
234.2466374
0
ARC
8
0
10
80
20
18
40
1
50
270
51
360
0
LINE
8
0
10
81
20
18
11
81
21
33
0
ARC
8
0
10
80
20
33
40
1
50
0
51
90
0
ARC
8
0
10
64
20
33
40
1
50
90
51
180
0
LINE
8
0
10
63
20
19.7
11
63
21
18
0
ARC
8
0
10
64
20
18
40
1
50
180
51
270
0
ARC
8
0
10
80
20
35
40
1
50
270
51
360
0
LINE
8
0
10
81
20
35
11
81
21
50
0
ARC
8
0
10
80
20
50
40
1
50
0
51
90
0
LINE
8
0
10
80
20
51
11
64
21
51
0
ARC
8
0
10
64
20
50
40
1
50
90
51
180
0
LINE
8
0
10
63
20
36.7
11
63
21
35
0
ARC
8
0
10
64
20
35
40
1
50
180
51
270
0
LINE
8
0
10
37
20
-17
11
53
21
-17
0
ARC
8
0
10
53
20
-16
40
1
50
270
51
360
0
LINE
8
0
10
54
20
-16
11
54
21
-14.8883048
0
LINE
8
0
10
54
20
-7.3151275
11
54
21
-1
0
ARC
8
0
10
53
20
-1
40
1
50
0
51
90
0
LINE
8
0
10
53
20
0
11
37
21
0
0
ARC
8
0
10
37
20
-1
40
1
50
90
51
180
0
LINE
8
0
10
36
20
-1
11
36
21
-16
0
ARC
8
0
10
37
20
-16
40
1
50
180
51
270
0
LINE
8
0
10
54
20
-14.8883048
11
68.5274447
21
-18.7809219
0
ARC
8
0
10
68.7862638
20
-17.8149961
40
1
50
255
51
345
0
LINE
8
0
10
69.7521896
20
-18.0738151
11
70.7192728
21
-14.4646115
0
ARC
8
0
10
72.6685494
20
-3.3261087
40
1
50
412.2528629
51
75
0
LINE
8
0
10
72.9273685
20
-2.3601828
11
64.1190463
21
0
0
LINE
8
0
10
63.4157027
20
0.1884603
11
57.7745599
21
1.7
0
ARC
8
0
10
57.2137362
20
0.8149961
40
1
50
117.7479983
51
165
0
LINE
8
0
10
56.2478104
20
1.0738151
11
54
21
-7.3151275
0
LINE
8
0
10
71.0726315
20
-14.6398172
11
86.5274447
21
-18.7809219
0
ARC
8
0
10
86.7862638
20
-17.8149961
40
1
50
255
51
345
0
LINE
8
0
10
87.7521896
20
-18.0738151
11
91.6344753
21
-3.5849277
0
ARC
8
0
10
90.6685494
20
-3.3261087
40
1
50
345
51
75
0
LINE
8
0
10
90.9273685
20
-2.3601828
11
80.7696742
21
0.3615631
0
LINE
8
0
10
73.9600825
20
0
11
73.2807272
21
-2.5353885
0
ARC
8
0
10
71.3314506
20
-13.6738913
40
1
50
232.2528629
51
255
0
ENDSEC
0
EOF