<svg width="130.253mm" height="85.717mm" viewBox="0 0 130.253 85.717" xmlns="http://www.w3.org/2000/svg"><g id="svgGroup" stroke-linecap="round" fill-rule="evenodd" font-size="9pt" stroke="#000" stroke-width="0.25mm" fill="none" style="stroke:#000;stroke-width:0.25mm;fill:none"><path d="M 0.002 57.76 L 0 6.95 A 0.5 0.5 0 0 1 0.5 6.45 L 36.5 6.449 A 0.5 0.5 0 0 0 37 5.949 L 37 2.575 A 0.5 0.5 0 0 1 37.5 2.075 L 55 2.075 A 0.5 0.5 0 0 0 55.5 1.575 L 55.5 0.5 A 0.5 0.5 0 0 1 56 0 L 72.528 0 A 0.5 0.5 0 0 1 73.028 0.5 L 73.028 1.575 A 0.5 0.5 0 0 0 73.528 2.075 L 91.028 2.075 A 0.5 0.5 0 0 1 91.528 2.575 L 91.528 3.871 A 0.5 0.5 0 0 0 92.028 4.371 L 109.522 4.375 A 0.5 0.5 0 0 1 110.022 4.881 L 110.009 5.944 A 0.5 0.5 0 0 0 110.509 6.45 L 129.753 6.45 A 0.5 0.5 0 0 1 130.253 6.95 L 130.253 61.977 A 0.5 0.5 0 0 1 130.186 62.227 L 129.938 62.657 L 116.485 85.471 A 0.5 0.5 0 0 1 115.804 85.65 L 101.87 77.605 A 0.5 0.5 0 0 0 101.693 77.544 L 64.932 72.078 A 0.5 0.5 0 0 1 64.607 71.885 L 54.443 58.451 A 0.5 0.5 0 0 0 54.044 58.253 L 0.502 58.26 A 0.5 0.5 0 0 1 0.002 57.76 Z M 17.935 23.498 m -2.15 0 a 2.15 2.15 0 0 1 4.3 0 a 2.15 2.15 0 0 1 -4.3 0 z M 17.935 40.998 m -2.15 0 a 2.15 2.15 0 0 1 4.3 0 a 2.15 2.15 0 0 1 -4.3 0 z M 91.903 20.171 m -2.15 0 a 2.15 2.15 0 0 1 4.3 0 a 2.15 2.15 0 0 1 -4.3 0 z M 59.842 57.113 m -2.15 0 a 2.15 2.15 0 0 1 4.3 0 a 2.15 2.15 0 0 1 -4.3 0 z M 105.843 64.379 m -2.15 0 a 2.15 2.15 0 0 1 4.3 0 a 2.15 2.15 0 0 1 -4.3 0 z M 113.612 50.186 m -1.1 0 a 1.1 1.1 0 0 1 2.2 0 a 1.1 1.1 0 0 1 -2.2 0 z M 127.654 58.63 m -1.1 0 a 1.1 1.1 0 0 1 2.2 0 a 1.1 1.1 0 0 1 -2.2 0 z" vector-effect="non-scaling-stroke"/></g></svg>