<svg width="102.669mm" height="106.6mm" viewBox="0 0 102.669 106.6" xmlns="http://www.w3.org/2000/svg"><g id="svgGroup" stroke-linecap="round" fill-rule="evenodd" font-size="9pt" stroke="#000" stroke-width="0.25mm" fill="none" style="stroke:#000;stroke-width:0.25mm;fill:none"><path d="M 2 68.3 L 18 68.3 A 2 2 0 0 0 20 66.3 L 20 56.4 L 36 56.4 A 2 2 0 0 0 38 54.4 L 38 53 L 45 53 L 45 74.8 A 2 2 0 0 0 47 76.8 L 63 76.8 A 2 2 0 0 0 63.528 76.729 L 66.75 76.296 L 66.75 104.6 A 2 2 0 0 0 68.75 106.6 L 95.25 106.6 A 2 2 0 0 0 97.25 104.6 L 97.25 78.56 A 2 2 0 0 0 98.718 77.133 L 102.6 62.644 A 2 2 0 0 0 101.186 60.194 L 97.25 59.14 L 97.25 43.6 A 2 2 0 0 0 95.25 41.6 L 92 41.6 L 92 8.8 A 2 2 0 0 0 90 6.8 L 74 6.8 A 2 2 0 0 0 73.977 6.8 A 2 2 0 0 0 72 5.1 L 56 5.1 L 56 2 A 2 2 0 0 0 54 0 L 38 0 A 2 2 0 0 0 36 2 L 36 3.4 L 20 3.4 A 2 2 0 0 0 18 5.4 L 18 15.3 L 2 15.3 A 2 2 0 0 0 0 17.3 L 0 66.3 A 2 2 0 0 0 2 68.3 Z M 74.25 58.55 L 84.286 58.55 L 83.338 62.086 A 1 1 0 0 0 82.621 61.337 L 67.649 57.325 A 1 1 0 0 0 66.425 58.032 L 63.75 68.014 L 63.75 60.05 A 1 1 0 0 0 62.75 59.05 L 47.25 59.05 A 1 1 0 0 0 46.25 60.05 L 46.25 74.55 A 1 1 0 0 0 47.25 75.55 L 62.75 75.55 A 1 1 0 0 0 63.75 74.55 L 63.75 73.362 L 78.351 77.275 A 1 1 0 0 0 79.575 76.568 L 80.662 72.514 A 1 1 0 0 0 81.379 73.263 L 96.351 77.275 A 1 1 0 0 0 97.575 76.568 L 101.328 62.562 A 1 1 0 0 0 100.621 61.337 L 90.049 58.504 A 1 1 0 0 0 90.75 57.55 L 90.75 43.05 A 1 1 0 0 0 89.75 42.05 L 74.25 42.05 A 1 1 0 0 0 73.25 43.05 L 73.25 57.55 A 1 1 0 0 0 74.25 58.55 Z M 2.25 67.05 L 17.75 67.05 A 1 1 0 0 0 18.75 66.05 L 18.75 51.55 A 1 1 0 0 0 17.75 50.55 L 2.25 50.55 A 1 1 0 0 0 1.25 51.55 L 1.25 66.05 A 1 1 0 0 0 2.25 67.05 Z M 2.25 50.05 L 17.75 50.05 A 1 1 0 0 0 18.75 49.05 L 18.75 34.55 A 1 1 0 0 0 17.75 33.55 L 2.25 33.55 A 1 1 0 0 0 1.25 34.55 L 1.25 49.05 A 1 1 0 0 0 2.25 50.05 Z M 2.25 33.05 L 17.75 33.05 A 1 1 0 0 0 18.75 32.05 L 18.75 17.55 A 1 1 0 0 0 17.75 16.55 L 2.25 16.55 A 1 1 0 0 0 1.25 17.55 L 1.25 32.05 A 1 1 0 0 0 2.25 33.05 Z M 20.25 38.15 L 35.75 38.15 A 1 1 0 0 0 36.75 37.15 L 36.75 22.65 A 1 1 0 0 0 35.75 21.65 L 20.25 21.65 A 1 1 0 0 0 19.25 22.65 L 19.25 37.15 A 1 1 0 0 0 20.25 38.15 Z M 20.25 21.15 L 35.75 21.15 A 1 1 0 0 0 36.75 20.15 L 36.75 5.65 A 1 1 0 0 0 35.75 4.65 L 20.25 4.65 A 1 1 0 0 0 19.25 5.65 L 19.25 20.15 A 1 1 0 0 0 20.25 21.15 Z M 38.25 51.75 L 53.75 51.75 A 1 1 0 0 0 54.75 50.75 L 54.75 36.25 A 1 1 0 0 0 53.75 35.25 L 38.25 35.25 A 1 1 0 0 0 37.25 36.25 L 37.25 50.75 A 1 1 0 0 0 38.25 51.75 Z M 38.25 34.75 L 53.75 34.75 A 1 1 0 0 0 54.75 33.75 L 54.75 19.25 A 1 1 0 0 0 53.75 18.25 L 38.25 18.25 A 1 1 0 0 0 37.25 19.25 L 37.25 33.75 A 1 1 0 0 0 38.25 34.75 Z M 38.25 17.75 L 53.75 17.75 A 1 1 0 0 0 54.75 16.75 L 54.75 2.25 A 1 1 0 0 0 53.75 1.25 L 38.25 1.25 A 1 1 0 0 0 37.25 2.25 L 37.25 16.75 A 1 1 0 0 0 38.25 17.75 Z M 56.25 56.85 L 71.75 56.85 A 1 1 0 0 0 72.75 55.85 L 72.75 41.35 A 1 1 0 0 0 71.75 40.35 L 56.25 40.35 A 1 1 0 0 0 55.25 41.35 L 55.25 55.85 A 1 1 0 0 0 56.25 56.85 Z M 56.25 39.85 L 71.75 39.85 A 1 1 0 0 0 72.75 38.85 L 72.75 24.35 A 1 1 0 0 0 71.75 23.35 L 56.25 23.35 A 1 1 0 0 0 55.25 24.35 L 55.25 38.85 A 1 1 0 0 0 56.25 39.85 Z M 56.25 22.85 L 71.75 22.85 A 1 1 0 0 0 72.75 21.85 L 72.75 7.35 A 1 1 0 0 0 71.75 6.35 L 56.25 6.35 A 1 1 0 0 0 55.25 7.35 L 55.25 21.85 A 1 1 0 0 0 56.25 22.85 Z M 74.25 41.55 L 89.75 41.55 A 1 1 0 0 0 90.75 40.55 L 90.75 26.05 A 1 1 0 0 0 89.75 25.05 L 74.25 25.05 A 1 1 0 0 0 73.25 26.05 L 73.25 40.55 A 1 1 0 0 0 74.25 41.55 Z M 74.25 24.55 L 89.75 24.55 A 1 1 0 0 0 90.75 23.55 L 90.75 9.05 A 1 1 0 0 0 89.75 8.05 L 74.25 8.05 A 1 1 0 0 0 73.25 9.05 L 73.25 23.55 A 1 1 0 0 0 74.25 24.55 Z M 20.25 55.15 L 35.75 55.15 A 1 1 0 0 0 36.75 54.15 L 36.75 39.65 A 1 1 0 0 0 35.75 38.65 L 20.25 38.65 A 1 1 0 0 0 19.25 39.65 L 19.25 54.15 A 1 1 0 0 0 20.25 55.15 Z" vector-effect="non-scaling-stroke"/></g></svg>