<svg width="133.153mm" height="89.141mm" viewBox="0 0 133.153 89.141" xmlns="http://www.w3.org/2000/svg"><g id="svgGroup" stroke-linecap="round" fill-rule="evenodd" font-size="9pt" stroke="#000" stroke-width="0.25mm" fill="none" style="stroke:#000;stroke-width:0.25mm;fill:none"><path d="M 1.202 59.71 L 1.2 7.9 L 1.2 7.65 L 37.7 7.649 A 0.5 0.5 0 0 0 38.2 7.149 L 38.2 3.275 L 56.2 3.275 A 0.5 0.5 0 0 0 56.7 2.775 L 56.7 1.2 L 74.728 1.2 L 74.728 2.775 A 0.5 0.5 0 0 0 75.228 3.275 L 93.228 3.275 L 93.228 5.071 A 0.5 0.5 0 0 0 93.728 5.571 L 111.731 5.575 L 111.728 5.828 L 111.712 7.144 A 0.5 0.5 0 0 0 112.212 7.65 L 131.953 7.65 L 131.953 63.628 L 131.605 64.232 L 131.604 64.233 L 117.899 87.475 L 117.773 87.689 L 103.236 79.296 A 0.5 0.5 0 0 0 103.06 79.234 L 66.042 73.73 L 55.768 60.151 A 0.5 0.5 0 0 0 55.369 59.953 L 1.202 59.96 L 1.202 59.71 Z M 3.852 56.81 L 3.85 10.8 A 0.5 0.5 0 0 1 4.35 10.3 L 40.35 10.299 A 0.5 0.5 0 0 0 40.85 9.799 L 40.85 6.425 A 0.5 0.5 0 0 1 41.35 5.925 L 58.608 5.925 A 0.5 0.5 0 0 0 59.103 5.493 L 59.269 4.282 A 0.5 0.5 0 0 1 59.764 3.85 L 71.664 3.85 A 0.5 0.5 0 0 1 72.159 4.282 L 72.325 5.493 A 0.5 0.5 0 0 0 72.82 5.925 L 90.102 5.925 A 0.5 0.5 0 0 1 90.601 6.403 L 90.659 7.742 A 0.5 0.5 0 0 0 91.159 8.22 L 108.639 8.224 A 0.5 0.5 0 0 1 109.134 8.657 L 109.299 9.868 A 0.5 0.5 0 0 0 109.795 10.3 L 128.803 10.3 A 0.5 0.5 0 0 1 129.303 10.8 L 129.303 62.781 A 0.5 0.5 0 0 1 129.234 63.035 L 117.076 83.654 A 0.5 0.5 0 0 1 116.395 83.833 L 104.042 76.701 L 67.705 71.298 A 0.5 0.5 0 0 1 67.379 71.105 L 57.657 58.255 L 57.086 57.501 A 0.5 0.5 0 0 0 56.687 57.302 L 4.352 57.31 A 0.5 0.5 0 0 1 3.852 56.81 Z M 133.153 6.95 L 133.153 63.95 L 132.644 64.832 L 132.64 64.837 L 118.454 88.895 M 118.731 85.279 L 129.856 66.01 A 2 2 0 0 0 129.124 63.278 L 118.299 57.028 A 2 2 0 0 0 115.567 57.76 L 104.442 77.029 A 2 2 0 0 0 105.174 79.761 L 115.999 86.011 A 2 2 0 0 0 118.731 85.279 Z M 111.472 6.331 L 111.453 7.897 A 0.5 0.5 0 0 0 111.453 7.903 L 111.453 52.308 A 0.5 0.5 0 0 0 111.703 52.741 L 130.951 63.854 A 0.5 0.5 0 0 1 131.132 64.541 M 112.983 7.9 A 0.5 0.5 0 0 0 112.483 8.4 L 112.483 52.176 A 0.5 0.5 0 0 0 112.733 52.609 L 130.953 63.128 A 0.5 0.5 0 0 0 131.703 62.695 M 3.385 59.448 L 16.885 59.448 A 2 2 0 0 0 18.885 57.448 L 18.885 44.948 A 2 2 0 0 0 16.885 42.948 L 3.385 42.948 A 2 2 0 0 0 1.385 44.948 L 1.385 57.448 A 2 2 0 0 0 3.385 59.448 Z M 3.385 41.948 L 16.885 41.948 A 2 2 0 0 0 18.885 39.948 L 18.885 27.448 A 2 2 0 0 0 16.885 25.448 L 3.385 25.448 A 2 2 0 0 0 1.385 27.448 L 1.385 39.948 A 2 2 0 0 0 3.385 41.948 Z M 3.385 24.448 L 16.885 24.448 A 2 2 0 0 0 18.885 22.448 L 18.885 9.948 A 2 2 0 0 0 16.885 7.948 L 3.385 7.948 A 2 2 0 0 0 1.385 9.948 L 1.385 22.448 A 2 2 0 0 0 3.385 24.448 Z M 21.885 59.448 L 35.385 59.448 A 2 2 0 0 0 37.385 57.448 L 37.385 44.948 A 2 2 0 0 0 35.385 42.948 L 21.885 42.948 A 2 2 0 0 0 19.885 44.948 L 19.885 57.448 A 2 2 0 0 0 21.885 59.448 Z M 21.885 41.948 L 35.385 41.948 A 2 2 0 0 0 37.385 39.948 L 37.385 27.448 A 2 2 0 0 0 35.385 25.448 L 21.885 25.448 A 2 2 0 0 0 19.885 27.448 L 19.885 39.948 A 2 2 0 0 0 21.885 41.948 Z M 21.885 24.448 L 35.385 24.448 A 2 2 0 0 0 37.385 22.448 L 37.385 9.948 A 2 2 0 0 0 35.385 7.948 L 21.885 7.948 A 2 2 0 0 0 19.885 9.948 L 19.885 22.448 A 2 2 0 0 0 21.885 24.448 Z M 40.385 55.073 L 53.885 55.073 A 2 2 0 0 0 55.885 53.073 L 55.885 40.573 A 2 2 0 0 0 53.885 38.573 L 40.385 38.573 A 2 2 0 0 0 38.385 40.573 L 38.385 53.073 A 2 2 0 0 0 40.385 55.073 Z M 40.385 37.573 L 53.885 37.573 A 2 2 0 0 0 55.885 35.573 L 55.885 23.073 A 2 2 0 0 0 53.885 21.073 L 40.385 21.073 A 2 2 0 0 0 38.385 23.073 L 38.385 35.573 A 2 2 0 0 0 40.385 37.573 Z M 40.385 20.073 L 53.885 20.073 A 2 2 0 0 0 55.885 18.073 L 55.885 5.573 A 2 2 0 0 0 53.885 3.573 L 40.385 3.573 A 2 2 0 0 0 38.385 5.573 L 38.385 18.073 A 2 2 0 0 0 40.385 20.073 Z M 58.885 52.885 L 72.385 52.885 A 2 2 0 0 0 74.385 50.885 L 74.385 38.385 A 2 2 0 0 0 72.385 36.385 L 58.885 36.385 A 2 2 0 0 0 56.885 38.385 L 56.885 50.885 A 2 2 0 0 0 58.885 52.885 Z M 58.885 35.385 L 72.385 35.385 A 2 2 0 0 0 74.385 33.385 L 74.385 20.885 A 2 2 0 0 0 72.385 18.885 L 58.885 18.885 A 2 2 0 0 0 56.885 20.885 L 56.885 33.385 A 2 2 0 0 0 58.885 35.385 Z M 58.885 17.885 L 72.385 17.885 A 2 2 0 0 0 74.385 15.885 L 74.385 3.385 A 2 2 0 0 0 72.385 1.385 L 58.885 1.385 A 2 2 0 0 0 56.885 3.385 L 56.885 15.885 A 2 2 0 0 0 58.885 17.885 Z M 77.385 55.073 L 90.885 55.073 A 2 2 0 0 0 92.885 53.073 L 92.885 40.573 A 2 2 0 0 0 90.885 38.573 L 77.385 38.573 A 2 2 0 0 0 75.385 40.573 L 75.385 53.073 A 2 2 0 0 0 77.385 55.073 Z M 77.385 37.573 L 90.885 37.573 A 2 2 0 0 0 92.885 35.573 L 92.885 23.073 A 2 2 0 0 0 90.885 21.073 L 77.385 21.073 A 2 2 0 0 0 75.385 23.073 L 75.385 35.573 A 2 2 0 0 0 77.385 37.573 Z M 77.385 20.073 L 90.885 20.073 A 2 2 0 0 0 92.885 18.073 L 92.885 5.573 A 2 2 0 0 0 90.885 3.573 L 77.385 3.573 A 2 2 0 0 0 75.385 5.573 L 75.385 18.073 A 2 2 0 0 0 77.385 20.073 Z M 95.885 57.26 L 109.385 57.26 A 2 2 0 0 0 111.385 55.26 L 111.385 42.76 A 2 2 0 0 0 109.385 40.76 L 95.885 40.76 A 2 2 0 0 0 93.885 42.76 L 93.885 55.26 A 2 2 0 0 0 95.885 57.26 Z M 95.885 39.76 L 109.385 39.76 A 2 2 0 0 0 111.385 37.76 L 111.385 25.26 A 2 2 0 0 0 109.385 23.26 L 95.885 23.26 A 2 2 0 0 0 93.885 25.26 L 93.885 37.76 A 2 2 0 0 0 95.885 39.76 Z M 95.885 22.26 L 109.385 22.26 A 2 2 0 0 0 111.385 20.26 L 111.385 7.76 A 2 2 0 0 0 109.385 5.76 L 95.885 5.76 A 2 2 0 0 0 93.885 7.76 L 93.885 20.26 A 2 2 0 0 0 95.885 22.26 Z M 68.135 73.385 L 81.635 73.385 A 2 2 0 0 0 83.635 71.385 L 83.635 58.885 A 2 2 0 0 0 81.635 56.885 L 68.135 56.885 A 2 2 0 0 0 66.135 58.885 L 66.135 71.385 A 2 2 0 0 0 68.135 73.385 Z M 86.73 74.107 L 99.77 77.601 A 2 2 0 0 0 102.219 76.187 L 105.455 64.113 A 2 2 0 0 0 104.04 61.663 L 91 58.169 A 2 2 0 0 0 88.551 59.583 L 85.316 71.657 A 2 2 0 0 0 86.73 74.107 Z M 119.674 80.945 L 126.574 68.994 L 114.623 62.094 L 107.723 74.045 L 119.674 80.945 Z M 40.235 53.723 L 54.035 53.723 L 54.035 39.923 L 40.235 39.923 L 40.235 53.723 Z M 40.235 36.223 L 54.035 36.223 L 54.035 22.423 L 40.235 22.423 L 40.235 36.223 Z M 40.235 18.723 L 54.035 18.723 L 54.035 4.923 L 40.235 4.923 L 40.235 18.723 Z M 58.735 51.535 L 72.535 51.535 L 72.535 37.735 L 58.735 37.735 L 58.735 51.535 Z M 58.735 34.035 L 72.535 34.035 L 72.535 20.235 L 58.735 20.235 L 58.735 34.035 Z M 58.735 16.535 L 72.535 16.535 L 72.535 2.735 L 58.735 2.735 L 58.735 16.535 Z M 77.235 53.723 L 91.035 53.723 L 91.035 39.923 L 77.235 39.923 L 77.235 53.723 Z M 77.235 36.223 L 91.035 36.223 L 91.035 22.423 L 77.235 22.423 L 77.235 36.223 Z M 77.235 18.723 L 91.035 18.723 L 91.035 4.923 L 77.235 4.923 L 77.235 18.723 Z M 95.735 55.91 L 109.535 55.91 L 109.535 42.11 L 95.735 42.11 L 95.735 55.91 Z M 95.735 38.41 L 109.535 38.41 L 109.535 24.61 L 95.735 24.61 L 95.735 38.41 Z M 95.735 20.91 L 109.535 20.91 L 109.535 7.11 L 95.735 7.11 L 95.735 20.91 Z M 67.985 72.035 L 81.785 72.035 L 81.785 58.235 L 67.985 58.235 L 67.985 72.035 Z M 3.235 58.098 L 17.035 58.098 L 17.035 44.298 L 3.235 44.298 L 3.235 58.098 Z M 3.235 40.598 L 17.035 40.598 L 17.035 26.798 L 3.235 26.798 L 3.235 40.598 Z M 3.235 23.098 L 17.035 23.098 L 17.035 9.298 L 3.235 9.298 L 3.235 23.098 Z M 21.735 58.098 L 35.535 58.098 L 35.535 44.298 L 21.735 44.298 L 21.735 58.098 Z M 21.735 40.598 L 35.535 40.598 L 35.535 26.798 L 21.735 26.798 L 21.735 40.598 Z M 21.735 23.098 L 35.535 23.098 L 35.535 9.298 L 21.735 9.298 L 21.735 23.098 Z M 86.934 72.764 L 100.264 76.336 L 103.836 63.006 L 90.506 59.434 L 86.934 72.764 Z M 0.002 60.66 L 0.002 59.71 L 0 7.9 L 0 6.95 M 131.636 63.677 L 131.388 64.107 L 117.935 86.921 M 19.385 24.948 m -2.15 0 a 2.15 2.15 0 0 1 4.3 0 a 2.15 2.15 0 0 1 -4.3 0 z M 19.385 42.448 m -2.15 0 a 2.15 2.15 0 0 1 4.3 0 a 2.15 2.15 0 0 1 -4.3 0 z M 93.353 21.621 m -2.15 0 a 2.15 2.15 0 0 1 4.3 0 a 2.15 2.15 0 0 1 -4.3 0 z M 61.292 58.563 m -2.15 0 a 2.15 2.15 0 0 1 4.3 0 a 2.15 2.15 0 0 1 -4.3 0 z M 107.293 65.829 m -2.15 0 a 2.15 2.15 0 0 1 4.3 0 a 2.15 2.15 0 0 1 -4.3 0 z M 19.385 24.948 m -1.1 0 a 1.1 1.1 0 0 1 2.2 0 a 1.1 1.1 0 0 1 -2.2 0 z M 19.385 42.448 m -1.1 0 a 1.1 1.1 0 0 1 2.2 0 a 1.1 1.1 0 0 1 -2.2 0 z M 93.353 21.621 m -1.1 0 a 1.1 1.1 0 0 1 2.2 0 a 1.1 1.1 0 0 1 -2.2 0 z M 61.292 58.563 m -1.1 0 a 1.1 1.1 0 0 1 2.2 0 a 1.1 1.1 0 0 1 -2.2 0 z M 107.293 65.829 m -1.1 0 a 1.1 1.1 0 0 1 2.2 0 a 1.1 1.1 0 0 1 -2.2 0 z M 115.062 51.636 m -1.1 0 a 1.1 1.1 0 0 1 2.2 0 a 1.1 1.1 0 0 1 -2.2 0 z M 129.104 60.08 m -1.1 0 a 1.1 1.1 0 0 1 2.2 0 a 1.1 1.1 0 0 1 -2.2 0 z M 37.95 7.399 m -0.5 0 a 0.5 0.5 0 0 0 1 0 a 0.5 0.5 0 0 0 -1 0 z M 111.959 7.4 m -0.5 0 a 0.5 0.5 0 0 0 1 0 a 0.5 0.5 0 0 0 -1 0 z M 1.952 59.21 m -0.5 0 a 0.5 0.5 0 0 0 1 0 a 0.5 0.5 0 0 0 -1 0 z M 36.5 5.949 m -0.5 0 a 0.5 0.5 0 0 0 1 0 a 0.5 0.5 0 0 0 -1 0 z M 1.95 8.4 m -0.5 0 a 0.5 0.5 0 0 0 1 0 a 0.5 0.5 0 0 0 -1 0 z M 38.95 4.025 m -0.5 0 a 0.5 0.5 0 0 0 1 0 a 0.5 0.5 0 0 0 -1 0 z M 56.45 3.025 m -0.5 0 a 0.5 0.5 0 0 0 1 0 a 0.5 0.5 0 0 0 -1 0 z M 57.45 1.95 m -0.5 0 a 0.5 0.5 0 0 0 1 0 a 0.5 0.5 0 0 0 -1 0 z M 73.978 1.95 m -0.5 0 a 0.5 0.5 0 0 0 1 0 a 0.5 0.5 0 0 0 -1 0 z M 74.978 3.025 m -0.5 0 a 0.5 0.5 0 0 0 1 0 a 0.5 0.5 0 0 0 -1 0 z M 92.478 4.025 m -0.5 0 a 0.5 0.5 0 0 0 1 0 a 0.5 0.5 0 0 0 -1 0 z M 93.478 5.321 m -0.5 0 a 0.5 0.5 0 0 0 1 0 a 0.5 0.5 0 0 0 -1 0 z M 110.972 6.325 m -0.5 0 a 0.5 0.5 0 0 0 1 0 a 0.5 0.5 0 0 0 -1 0 z M 131.203 8.4 m -0.5 0 a 0.5 0.5 0 0 0 1 0 a 0.5 0.5 0 0 0 -1 0 z M 131.203 63.427 m -0.5 0 a 0.5 0.5 0 0 0 1 0 a 0.5 0.5 0 0 0 -1 0 z M 103.07 79.488 m -0.5 0 a 0.5 0.5 0 0 0 1 0 a 0.5 0.5 0 0 0 -1 0 z M 66.456 73.033 m -0.5 0 a 0.5 0.5 0 0 0 1 0 a 0.5 0.5 0 0 0 -1 0 z M 55.494 60.203 m -0.5 0 a 0.5 0.5 0 0 0 1 0 a 0.5 0.5 0 0 0 -1 0 z M 0.5 6.95 m -0.5 0 a 0.5 0.5 0 0 0 1 0 a 0.5 0.5 0 0 0 -1 0 z M 37.5 2.575 m -0.5 0 a 0.5 0.5 0 0 0 1 0 a 0.5 0.5 0 0 0 -1 0 z M 55 1.575 m -0.5 0 a 0.5 0.5 0 0 0 1 0 a 0.5 0.5 0 0 0 -1 0 z M 56 0.5 m -0.5 0 a 0.5 0.5 0 0 0 1 0 a 0.5 0.5 0 0 0 -1 0 z M 75.428 0.5 m -0.5 0 a 0.5 0.5 0 0 0 1 0 a 0.5 0.5 0 0 0 -1 0 z M 76.428 1.575 m -0.5 0 a 0.5 0.5 0 0 0 1 0 a 0.5 0.5 0 0 0 -1 0 z M 93.928 2.575 m -0.5 0 a 0.5 0.5 0 0 0 1 0 a 0.5 0.5 0 0 0 -1 0 z M 94.928 3.871 m -0.5 0 a 0.5 0.5 0 0 0 1 0 a 0.5 0.5 0 0 0 -1 0 z M 112.44 4.875 m -0.5 0 a 0.5 0.5 0 0 0 1 0 a 0.5 0.5 0 0 0 -1 0 z M 113.427 5.95 m -0.5 0 a 0.5 0.5 0 0 0 1 0 a 0.5 0.5 0 0 0 -1 0 z M 132.653 6.95 m -0.5 0 a 0.5 0.5 0 0 0 1 0 a 0.5 0.5 0 0 0 -1 0 z M 118.024 88.641 m -0.5 0 a 0.5 0.5 0 0 0 1 0 a 0.5 0.5 0 0 0 -1 0 z M 102.584 80.882 m -0.5 0 a 0.5 0.5 0 0 0 1 0 a 0.5 0.5 0 0 0 -1 0 z M 65.657 74.38 m -0.5 0 a 0.5 0.5 0 0 0 1 0 a 0.5 0.5 0 0 0 -1 0 z M 54.773 61.653 m -0.5 0 a 0.5 0.5 0 0 0 1 0 a 0.5 0.5 0 0 0 -1 0 z M 0.502 60.66 m -0.5 0 a 0.5 0.5 0 0 0 1 0 a 0.5 0.5 0 0 0 -1 0 z M 117.504 86.667 m -0.5 0 a 0.5 0.5 0 0 0 1 0 a 0.5 0.5 0 0 0 -1 0 z M 112.94 4.881 L 112.928 5.842 L 112.927 5.944 M 1.45 8.4 1.452 59.21 M 1.95 7.9 37.95 7.899 M 38.45 7.399 38.45 4.025 M 38.95 3.525 56.45 3.525 M 56.95 3.025 56.95 1.95 M 57.45 1.45 73.978 1.45 M 74.478 3.025 74.478 1.95 M 74.978 3.525 92.478 3.525 M 92.978 5.321 92.978 4.025 M 93.478 5.821 110.972 5.825 M 103.32 79.055 117.254 87.1 M 66.382 73.528 103.144 78.994 M 55.893 59.901 66.057 73.335 M 1.952 59.71 55.494 59.703 M 111.959 7.9 131.203 7.9 M 131.703 63.427 131.703 8.4 M 0.5 6.45 36.5 6.449 M 37 5.949 37 2.575 M 37.5 2.075 55 2.075 M 55.5 1.575 55.5 0.5 M 56 0 75.428 0 M 75.928 1.575 75.928 0.5 M 76.428 2.075 93.928 2.075 M 94.428 3.871 94.428 2.575 M 94.928 4.371 112.44 4.375 M 113.427 6.45 132.653 6.45 M 102.834 80.449 117.774 89.074 M 65.583 74.875 102.657 80.387 M 55.172 61.351 65.258 74.682 M 0.502 61.16 54.773 61.153" vector-effect="non-scaling-stroke"/></g></svg>