<svg width="100.112mm" height="76.059mm" viewBox="0 0 100.112 76.059" xmlns="http://www.w3.org/2000/svg"><g id="svgGroup" stroke-linecap="round" fill-rule="evenodd" font-size="9pt" stroke="#000" stroke-width="0.25mm" fill="none" style="stroke:#000;stroke-width:0.25mm;fill:none"><path d="M 73 57.3 L 83.036 57.3 L 82.088 60.836 A 1 1 0 0 0 81.371 60.087 L 66.399 56.075 A 1 1 0 0 0 65.175 56.782 L 62.5 66.764 L 62.5 58.8 A 1 1 0 0 0 61.5 57.8 L 46 57.8 A 1 1 0 0 0 45 58.8 L 45 73.3 A 1 1 0 0 0 46 74.3 L 61.5 74.3 A 1 1 0 0 0 62.5 73.3 L 62.5 72.112 L 77.101 76.025 A 1 1 0 0 0 78.325 75.318 L 79.412 71.264 A 1 1 0 0 0 80.129 72.013 L 95.101 76.025 A 1 1 0 0 0 96.325 75.318 L 100.078 61.312 A 1 1 0 0 0 99.371 60.087 L 88.799 57.254 A 1 1 0 0 0 89.5 56.3 L 89.5 41.8 A 1 1 0 0 0 88.5 40.8 L 73 40.8 A 1 1 0 0 0 72 41.8 L 72 56.3 A 1 1 0 0 0 73 57.3 Z M 1 65.8 L 16.5 65.8 A 1 1 0 0 0 17.5 64.8 L 17.5 50.3 A 1 1 0 0 0 16.5 49.3 L 1 49.3 A 1 1 0 0 0 0 50.3 L 0 64.8 A 1 1 0 0 0 1 65.8 Z M 1 48.8 L 16.5 48.8 A 1 1 0 0 0 17.5 47.8 L 17.5 33.3 A 1 1 0 0 0 16.5 32.3 L 1 32.3 A 1 1 0 0 0 0 33.3 L 0 47.8 A 1 1 0 0 0 1 48.8 Z M 1 31.8 L 16.5 31.8 A 1 1 0 0 0 17.5 30.8 L 17.5 16.3 A 1 1 0 0 0 16.5 15.3 L 1 15.3 A 1 1 0 0 0 0 16.3 L 0 30.8 A 1 1 0 0 0 1 31.8 Z M 19 36.9 L 34.5 36.9 A 1 1 0 0 0 35.5 35.9 L 35.5 21.4 A 1 1 0 0 0 34.5 20.4 L 19 20.4 A 1 1 0 0 0 18 21.4 L 18 35.9 A 1 1 0 0 0 19 36.9 Z M 19 19.9 L 34.5 19.9 A 1 1 0 0 0 35.5 18.9 L 35.5 4.4 A 1 1 0 0 0 34.5 3.4 L 19 3.4 A 1 1 0 0 0 18 4.4 L 18 18.9 A 1 1 0 0 0 19 19.9 Z M 37 50.5 L 52.5 50.5 A 1 1 0 0 0 53.5 49.5 L 53.5 35 A 1 1 0 0 0 52.5 34 L 37 34 A 1 1 0 0 0 36 35 L 36 49.5 A 1 1 0 0 0 37 50.5 Z M 37 33.5 L 52.5 33.5 A 1 1 0 0 0 53.5 32.5 L 53.5 18 A 1 1 0 0 0 52.5 17 L 37 17 A 1 1 0 0 0 36 18 L 36 32.5 A 1 1 0 0 0 37 33.5 Z M 37 16.5 L 52.5 16.5 A 1 1 0 0 0 53.5 15.5 L 53.5 1 A 1 1 0 0 0 52.5 0 L 37 0 A 1 1 0 0 0 36 1 L 36 15.5 A 1 1 0 0 0 37 16.5 Z M 55 55.6 L 70.5 55.6 A 1 1 0 0 0 71.5 54.6 L 71.5 40.1 A 1 1 0 0 0 70.5 39.1 L 55 39.1 A 1 1 0 0 0 54 40.1 L 54 54.6 A 1 1 0 0 0 55 55.6 Z M 55 38.6 L 70.5 38.6 A 1 1 0 0 0 71.5 37.6 L 71.5 23.1 A 1 1 0 0 0 70.5 22.1 L 55 22.1 A 1 1 0 0 0 54 23.1 L 54 37.6 A 1 1 0 0 0 55 38.6 Z M 55 21.6 L 70.5 21.6 A 1 1 0 0 0 71.5 20.6 L 71.5 6.1 A 1 1 0 0 0 70.5 5.1 L 55 5.1 A 1 1 0 0 0 54 6.1 L 54 20.6 A 1 1 0 0 0 55 21.6 Z M 73 40.3 L 88.5 40.3 A 1 1 0 0 0 89.5 39.3 L 89.5 24.8 A 1 1 0 0 0 88.5 23.8 L 73 23.8 A 1 1 0 0 0 72 24.8 L 72 39.3 A 1 1 0 0 0 73 40.3 Z M 73 23.3 L 88.5 23.3 A 1 1 0 0 0 89.5 22.3 L 89.5 7.8 A 1 1 0 0 0 88.5 6.8 L 73 6.8 A 1 1 0 0 0 72 7.8 L 72 22.3 A 1 1 0 0 0 73 23.3 Z M 19 53.9 L 34.5 53.9 A 1 1 0 0 0 35.5 52.9 L 35.5 38.4 A 1 1 0 0 0 34.5 37.4 L 19 37.4 A 1 1 0 0 0 18 38.4 L 18 52.9 A 1 1 0 0 0 19 53.9 Z" vector-effect="non-scaling-stroke"/></g></svg>