0
SECTION
2
HEADER
9
$INSUNITS
70
4
0
ENDSEC
0
SECTION
2
TABLES
0
TABLE
2
LTYPE
0
LTYPE
72
65
70
64
2
CONTINUOUS
3
______
73
0
40
0
0
ENDTAB
0
TABLE
2
LAYER
0
ENDTAB
0
ENDSEC
0
SECTION
2
ENTITIES
0
LINE
8
0
10
-7.75
20
-8.25
11
7.75
21
-8.25
0
ARC
8
0
10
7.75
20
-7.25
40
1
50
270
51
360
0
LINE
8
0
10
8.75
20
-7.25
11
8.75
21
7.25
0
ARC
8
0
10
7.75
20
7.25
40
1
50
0
51
90
0
LINE
8
0
10
7.75
20
8.25
11
-7.75
21
8.25
0
ARC
8
0
10
-7.75
20
7.25
40
1
50
90
51
180
0
LINE
8
0
10
-8.75
20
7.25
11
-8.75
21
-7.25
0
ARC
8
0
10
-7.75
20
-7.25
40
1
50
180
51
270
0
LINE
8
0
10
-7.75
20
8.75
11
7.75
21
8.75
0
ARC
8
0
10
7.75
20
9.75
40
1
50
270
51
360
0
LINE
8
0
10
8.75
20
9.75
11
8.75
21
24.25
0
ARC
8
0
10
7.75
20
24.25
40
1
50
0
51
90
0
LINE
8
0
10
7.75
20
25.25
11
-7.75
21
25.25
0
ARC
8
0
10
-7.75
20
24.25
40
1
50
90
51
180
0
LINE
8
0
10
-8.75
20
24.25
11
-8.75
21
9.75
0
ARC
8
0
10
-7.75
20
9.75
40
1
50
180
51
270
0
LINE
8
0
10
-7.75
20
25.75
11
7.75
21
25.75
0
ARC
8
0
10
7.75
20
26.75
40
1
50
270
51
360
0
LINE
8
0
10
8.75
20
26.75
11
8.75
21
41.25
0
ARC
8
0
10
7.75
20
41.25
40
1
50
0
51
90
0
LINE
8
0
10
7.75
20
42.25
11
-7.75
21
42.25
0
ARC
8
0
10
-7.75
20
41.25
40
1
50
90
51
180
0
LINE
8
0
10
-8.75
20
41.25
11
-8.75
21
26.75
0
ARC
8
0
10
-7.75
20
26.75
40
1
50
180
51
270
0
LINE
8
0
10
10.25
20
3.65
11
25.75
21
3.65
0
ARC
8
0
10
25.75
20
4.65
40
1
50
270
51
360
0
LINE
8
0
10
26.75
20
4.65
11
26.75
21
19.15
0
ARC
8
0
10
25.75
20
19.15
40
1
50
0
51
90
0
LINE
8
0
10
25.75
20
20.15
11
10.25
21
20.15
0
ARC
8
0
10
10.25
20
19.15
40
1
50
90
51
180
0
LINE
8
0
10
9.25
20
19.15
11
9.25
21
4.65
0
ARC
8
0
10
10.25
20
4.65
40
1
50
180
51
270
0
LINE
8
0
10
10.25
20
20.65
11
25.75
21
20.65
0
ARC
8
0
10
25.75
20
21.65
40
1
50
270
51
360
0
LINE
8
0
10
26.75
20
21.65
11
26.75
21
36.15
0
ARC
8
0
10
25.75
20
36.15
40
1
50
0
51
90
0
LINE
8
0
10
25.75
20
37.15
11
10.25
21
37.15
0
ARC
8
0
10
10.25
20
36.15
40
1
50
90
51
180
0
LINE
8
0
10
9.25
20
36.15
11
9.25
21
21.65
0
ARC
8
0
10
10.25
20
21.65
40
1
50
180
51
270
0
LINE
8
0
10
10.25
20
37.65
11
25.75
21
37.65
0
ARC
8
0
10
25.75
20
38.65
40
1
50
270
51
360
0
LINE
8
0
10
26.75
20
38.65
11
26.75
21
53.15
0
ARC
8
0
10
25.75
20
53.15
40
1
50
0
51
90
0
LINE
8
0
10
25.75
20
54.15
11
10.25
21
54.15
0
ARC
8
0
10
10.25
20
53.15
40
1
50
90
51
180
0
LINE
8
0
10
9.25
20
53.15
11
9.25
21
38.65
0
ARC
8
0
10
10.25
20
38.65
40
1
50
180
51
270
0
LINE
8
0
10
28.25
20
7.05
11
43.75
21
7.05
0
ARC
8
0
10
43.75
20
8.05
40
1
50
270
51
360
0
LINE
8
0
10
44.75
20
8.05
11
44.75
21
22.55
0
ARC
8
0
10
43.75
20
22.55
40
1
50
0
51
90
0
LINE
8
0
10
43.75
20
23.55
11
28.25
21
23.55
0
ARC
8
0
10
28.25
20
22.55
40
1
50
90
51
180
0
LINE
8
0
10
27.25
20
22.55
11
27.25
21
8.05
0
ARC
8
0
10
28.25
20
8.05
40
1
50
180
51
270
0
LINE
8
0
10
28.25
20
24.05
11
43.75
21
24.05
0
ARC
8
0
10
43.75
20
25.05
40
1
50
270
51
360
0
LINE
8
0
10
44.75
20
25.05
11
44.75
21
39.55
0
ARC
8
0
10
43.75
20
39.55
40
1
50
0
51
90
0
LINE
8
0
10
43.75
20
40.55
11
28.25
21
40.55
0
ARC
8
0
10
28.25
20
39.55
40
1
50
90
51
180
0
LINE
8
0
10
27.25
20
39.55
11
27.25
21
25.05
0
ARC
8
0
10
28.25
20
25.05
40
1
50
180
51
270
0
LINE
8
0
10
28.25
20
41.05
11
43.75
21
41.05
0
ARC
8
0
10
43.75
20
42.05
40
1
50
270
51
360
0
LINE
8
0
10
44.75
20
42.05
11
44.75
21
56.55
0
ARC
8
0
10
43.75
20
56.55
40
1
50
0
51
90
0
LINE
8
0
10
43.75
20
57.55
11
28.25
21
57.55
0
ARC
8
0
10
28.25
20
56.55
40
1
50
90
51
180
0
LINE
8
0
10
27.25
20
56.55
11
27.25
21
42.05
0
ARC
8
0
10
28.25
20
42.05
40
1
50
180
51
270
0
LINE
8
0
10
46.25
20
1.95
11
61.75
21
1.95
0
ARC
8
0
10
61.75
20
2.95
40
1
50
270
51
360
0
LINE
8
0
10
62.75
20
2.95
11
62.75
21
17.45
0
ARC
8
0
10
61.75
20
17.45
40
1
50
0
51
90
0
LINE
8
0
10
61.75
20
18.45
11
46.25
21
18.45
0
ARC
8
0
10
46.25
20
17.45
40
1
50
90
51
180
0
LINE
8
0
10
45.25
20
17.45
11
45.25
21
2.95
0
ARC
8
0
10
46.25
20
2.95
40
1
50
180
51
270
0
LINE
8
0
10
46.25
20
18.95
11
61.75
21
18.95
0
ARC
8
0
10
61.75
20
19.95
40
1
50
270
51
360
0
LINE
8
0
10
62.75
20
19.95
11
62.75
21
34.45
0
ARC
8
0
10
61.75
20
34.45
40
1
50
0
51
90
0
LINE
8
0
10
61.75
20
35.45
11
46.25
21
35.45
0
ARC
8
0
10
46.25
20
34.45
40
1
50
90
51
180
0
LINE
8
0
10
45.25
20
34.45
11
45.25
21
19.95
0
ARC
8
0
10
46.25
20
19.95
40
1
50
180
51
270
0
LINE
8
0
10
46.25
20
35.95
11
61.75
21
35.95
0
ARC
8
0
10
61.75
20
36.95
40
1
50
270
51
360
0
LINE
8
0
10
62.75
20
36.95
11
62.75
21
51.45
0
ARC
8
0
10
61.75
20
51.45
40
1
50
0
51
90
0
LINE
8
0
10
61.75
20
52.45
11
46.25
21
52.45
0
ARC
8
0
10
46.25
20
51.45
40
1
50
90
51
180
0
LINE
8
0
10
45.25
20
51.45
11
45.25
21
36.95
0
ARC
8
0
10
46.25
20
36.95
40
1
50
180
51
270
0
LINE
8
0
10
64.25
20
0.25
11
74.2858889
21
0.25
0
ARC
8
0
10
79.75
20
1.25
40
1
50
287.4080106
51
360
0
LINE
8
0
10
80.75
20
1.25
11
80.75
21
15.75
0
ARC
8
0
10
79.75
20
15.75
40
1
50
0
51
90
0
LINE
8
0
10
79.75
20
16.75
11
64.25
21
16.75
0
ARC
8
0
10
64.25
20
15.75
40
1
50
90
51
180
0
LINE
8
0
10
63.25
20
15.75
11
63.25
21
1.25
0
ARC
8
0
10
64.25
20
1.25
40
1
50
180
51
270
0
LINE
8
0
10
64.25
20
17.25
11
79.75
21
17.25
0
ARC
8
0
10
79.75
20
18.25
40
1
50
270
51
360
0
LINE
8
0
10
80.75
20
18.25
11
80.75
21
32.75
0
ARC
8
0
10
79.75
20
32.75
40
1
50
0
51
90
0
LINE
8
0
10
79.75
20
33.75
11
64.25
21
33.75
0
ARC
8
0
10
64.25
20
32.75
40
1
50
90
51
180
0
LINE
8
0
10
63.25
20
32.75
11
63.25
21
18.25
0
ARC
8
0
10
64.25
20
18.25
40
1
50
180
51
270
0
LINE
8
0
10
64.25
20
34.25
11
79.75
21
34.25
0
ARC
8
0
10
79.75
20
35.25
40
1
50
270
51
360
0
LINE
8
0
10
80.75
20
35.25
11
80.75
21
49.75
0
ARC
8
0
10
79.75
20
49.75
40
1
50
0
51
90
0
LINE
8
0
10
79.75
20
50.75
11
64.25
21
50.75
0
ARC
8
0
10
64.25
20
49.75
40
1
50
90
51
180
0
LINE
8
0
10
63.25
20
49.75
11
63.25
21
35.25
0
ARC
8
0
10
64.25
20
35.25
40
1
50
180
51
270
0
LINE
8
0
10
37.25
20
-16.75
11
52.75
21
-16.75
0
ARC
8
0
10
52.75
20
-15.75
40
1
50
270
51
360
0
LINE
8
0
10
53.75
20
-15.75
11
53.75
21
-14.5624985
0
LINE
8
0
10
53.75
20
-9.2140659
11
53.75
21
-1.25
0
ARC
8
0
10
52.75
20
-1.25
40
1
50
0
51
90
0
LINE
8
0
10
52.75
20
-0.25
11
37.25
21
-0.25
0
ARC
8
0
10
37.25
20
-1.25
40
1
50
90
51
180
0
LINE
8
0
10
36.25
20
-1.25
11
36.25
21
-15.75
0
ARC
8
0
10
37.25
20
-15.75
40
1
50
180
51
270
0
LINE
8
0
10
53.75
20
-14.5624985
11
68.350668
21
-18.4747357
0
ARC
8
0
10
68.6094871
20
-17.5088098
40
1
50
255
51
345
0
LINE
8
0
10
69.5754129
20
-17.7676289
11
70.6615031
21
-13.714285
0
ARC
8
0
10
72.3623632
20
-3.5028854
40
1
50
372.5428912
51
75
0
LINE
8
0
10
72.6211823
20
-2.5369595
11
57.649332
21
1.4747357
0
ARC
8
0
10
57.3905129
20
0.5088098
40
1
50
75
51
165
0
LINE
8
0
10
56.4245871
20
0.7676289
11
53.75
21
-9.2140659
0
LINE
8
0
10
71.3788177
20
-14.4630405
11
86.350668
21
-18.4747357
0
ARC
8
0
10
86.6094871
20
-17.5088098
40
1
50
255
51
345
0
LINE
8
0
10
87.5754129
20
-17.7676289
11
91.3282891
21
-3.7617044
0
ARC
8
0
10
90.3623632
20
-3.5028854
40
1
50
345
51
75
0
LINE
8
0
10
90.6211823
20
-2.5369595
11
80.0491742
21
0.2958015
0
LINE
8
0
10
74.2858889
20
0.25
11
73.3384969
21
-3.285715
0
ARC
8
0
10
71.6376368
20
-13.4971146
40
1
50
192.5428912
51
255
0
ENDSEC
0
EOF