0
SECTION
2
HEADER
9
$INSUNITS
70
4
0
ENDSEC
0
SECTION
2
TABLES
0
TABLE
2
LTYPE
0
LTYPE
72
65
70
64
2
CONTINUOUS
3
______
73
0
40
0
0
ENDTAB
0
TABLE
2
LAYER
0
ENDTAB
0
ENDSEC
0
SECTION
2
ENTITIES
0
LINE
8
0
10
-8
20
-9.5
11
8
21
-9.5
0
ARC
8
0
10
8
20
-7.5
40
2
50
270
51
360
0
LINE
8
0
10
10
20
-7.5
11
10
21
2.4
0
ARC
8
0
10
-8
20
7.5
40
2
50
149.9999999
51
180
0
LINE
8
0
10
-10
20
7.5
11
-10
21
-7.5
0
ARC
8
0
10
-8
20
-7.5
40
2
50
180
51
270
0
ARC
8
0
10
-8
20
24.5
40
2
50
149.9999999
51
180
0
LINE
8
0
10
-10
20
24.5
11
-10
21
9.5
0
ARC
8
0
10
-8
20
9.5
40
2
50
180
51
210.0000001
0
LINE
8
0
10
8
20
43.5
11
-8
21
43.5
0
ARC
8
0
10
-8
20
41.5
40
2
50
90
51
180
0
LINE
8
0
10
-10
20
41.5
11
-10
21
26.5
0
ARC
8
0
10
-8
20
26.5
40
2
50
180
51
210.0000001
0
LINE
8
0
10
10
20
2.4
11
26
21
2.4
0
ARC
8
0
10
26
20
4.4
40
2
50
270
51
360
0
LINE
8
0
10
28
20
4.4
11
28
21
5.8
0
LINE
8
0
10
26
20
55.4
11
10
21
55.4
0
ARC
8
0
10
10
20
53.4
40
2
50
90
51
180
0
LINE
8
0
10
8
20
53.4
11
8
21
43.5
0
LINE
8
0
10
28
20
5.8
11
44
21
5.8
0
LINE
8
0
10
46
20
53.7
11
46
21
56.8
0
ARC
8
0
10
44
20
56.8
40
2
50
0
51
90
0
LINE
8
0
10
44
20
58.8
11
28
21
58.8
0
ARC
8
0
10
28
20
56.8
40
2
50
90
51
180
0
LINE
8
0
10
26
20
56.8
11
26
21
55.4
0
LINE
8
0
10
54.0535654
20
0.7
11
55.1123708
21
0.7
0
LINE
8
0
10
44
20
5.8
11
44
21
2.7
0
ARC
8
0
10
46
20
2.7
40
2
50
180
51
238.2116688
0
ARC
8
0
10
62
20
51.7
40
2
50
8.6232234
51
90
0
LINE
8
0
10
62
20
53.7
11
46
21
53.7
0
LINE
8
0
10
71.7148003
20
-1
11
72.6568572
21
-1
0
LINE
8
0
10
82
20
1.0671745
11
82
21
16
0
ARC
8
0
10
80
20
16
40
2
50
0
51
30.0000001
0
ARC
8
0
10
80
20
18
40
2
50
329.9999999
51
360
0
LINE
8
0
10
82
20
18
11
82
21
33
0
ARC
8
0
10
80
20
33
40
2
50
0
51
30.0000001
0
ARC
8
0
10
80
20
35
40
2
50
329.9999999
51
360
0
LINE
8
0
10
82
20
35
11
82
21
50
0
ARC
8
0
10
80
20
50
40
2
50
0
51
90
0
LINE
8
0
10
80
20
52
11
64
21
52
0
ARC
8
0
10
64
20
50
40
2
50
90
51
90.6477025
0
LINE
8
0
10
37
20
-18
11
53
21
-18
0
ARC
8
0
10
53
20
-16
40
2
50
270
51
354.573754
0
ARC
8
0
10
53
20
-1
40
2
50
21.8507414
51
58.2116688
0
LINE
8
0
10
44.9464346
20
1
11
37
21
1
0
ARC
8
0
10
37
20
-1
40
2
50
90
51
180
0
LINE
8
0
10
35
20
-1
11
35
21
-16
0
ARC
8
0
10
37
20
-16
40
2
50
180
51
270
0
LINE
8
0
10
54.9910375
20
-16.1891287
11
68.2686257
21
-19.7468477
0
ARC
8
0
10
68.7862638
20
-17.8149961
40
2
50
255
51
345
0
LINE
8
0
10
70.7181154
20
-18.3326341
11
71.4062487
21
-15.7644858
0
LINE
8
0
10
72.5937513
20
-1.2355142
11
71.7148003
21
-1
0
LINE
8
0
10
55.1123708
20
0.7
11
54.8563131
21
-0.2556201
0
LINE
8
0
10
71.4062487
20
-15.7644858
11
86.2686257
21
-19.7468477
0
ARC
8
0
10
86.7862638
20
-17.8149961
40
2
50
255
51
345
0
LINE
8
0
10
88.7181154
20
-18.3326341
11
92.6004011
21
-3.8437468
0
ARC
8
0
10
90.6685494
20
-3.3261087
40
2
50
345
51
75
0
LINE
8
0
10
91.1861875
20
-1.394257
11
82
21
1.0671745
0
LINE
8
0
10
72.6568572
20
-1
11
72.5937513
21
-1.2355142
0
ENDSEC
0
EOF