M48
; DRILL file {KiCad 8.0.8+1} date 2025-07-08T12:52:23+0000
; FORMAT={-:-/ absolute / metric / decimal}
; #@! TF.CreationDate,2025-07-08T12:52:23+00:00
; #@! TF.GenerationSoftware,Kicad,Pcbnew,8.0.8+1
; #@! TF.FileFunction,NonPlated,1,2,NPTH
FMAT,2
METRIC
; #@! TA.AperFunction,NonPlated,NPTH,ComponentDrill
T1C0.750
; #@! TA.AperFunction,NonPlated,NPTH,ComponentDrill
T2C0.900
; #@! TA.AperFunction,NonPlated,NPTH,ComponentDrill
T3C1.900
; #@! TA.AperFunction,NonPlated,NPTH,ComponentDrill
T4C2.200
; #@! TA.AperFunction,NonPlated,NPTH,ComponentDrill
T5C3.000
; #@! TA.AperFunction,NonPlated,NPTH,ComponentDrill
T6C4.100
; #@! TA.AperFunction,NonPlated,NPTH,ComponentDrill
T7C4.300
%
G90
G05
T1
X214.704Y-53.79
X214.704Y-56.54
T2
X223.025Y-97.5
X223.025Y-100.5
T3
X94.92Y-62.0
X94.92Y-62.0
X94.92Y-81.0
X94.92Y-81.0
X94.92Y-100.0
X94.92Y-100.0
X105.08Y-62.0
X105.08Y-62.0
X105.08Y-81.0
X105.08Y-81.0
X105.08Y-100.0
X105.08Y-100.0
X113.92Y-62.0
X113.92Y-62.0
X113.92Y-81.0
X113.92Y-81.0
X113.92Y-100.0
X113.92Y-100.0
X124.08Y-62.0
X124.08Y-62.0
X124.08Y-81.0
X124.08Y-81.0
X124.08Y-100.0
X124.08Y-100.0
X132.92Y-57.25
X132.92Y-57.25
X132.92Y-76.25
X132.92Y-76.25
X132.92Y-95.25
X132.92Y-95.25
X143.08Y-57.25
X143.08Y-57.25
X143.08Y-76.25
X143.08Y-76.25
X143.08Y-95.25
X143.08Y-95.25
X151.92Y-54.875
X151.92Y-54.875
X151.92Y-73.875
X151.92Y-73.875
X151.92Y-92.875
X151.92Y-92.875
X161.42Y-114.875
X161.42Y-114.875
X162.08Y-54.875
X162.08Y-54.875
X162.08Y-73.875
X162.08Y-73.875
X162.08Y-92.875
X162.08Y-92.875
X170.92Y-57.25
X170.92Y-57.25
X170.92Y-76.25
X170.92Y-76.25
X170.92Y-95.25
X170.92Y-95.25
X171.58Y-114.875
X171.58Y-114.875
X181.08Y-57.25
X181.08Y-57.25
X181.08Y-76.25
X181.08Y-76.25
X181.08Y-95.25
X181.08Y-95.25
X182.593Y-116.31
X182.593Y-116.31
X189.92Y-59.625
X189.92Y-59.625
X189.92Y-78.625
X189.92Y-78.625
X189.92Y-97.625
X189.92Y-97.625
X192.407Y-118.94
X192.407Y-118.94
X200.08Y-59.625
X200.08Y-59.625
X200.08Y-78.625
X200.08Y-78.625
X200.08Y-97.625
X200.08Y-97.625
X207.207Y-125.789
X207.207Y-125.789
X212.287Y-116.99
X212.287Y-116.99
T4
X207.762Y-100.476
X222.194Y-108.995
T5
X96.19Y-59.46
X96.19Y-78.46
X96.19Y-97.46
X97.46Y-56.92
X97.46Y-75.92
X97.46Y-94.92
X102.54Y-56.92
X102.54Y-75.92
X102.54Y-94.92
X103.81Y-59.46
X103.81Y-78.46
X103.81Y-97.46
X115.19Y-59.46
X115.19Y-78.46
X115.19Y-97.46
X116.46Y-56.92
X116.46Y-75.92
X116.46Y-94.92
X121.54Y-56.92
X121.54Y-75.92
X121.54Y-94.92
X122.81Y-59.46
X122.81Y-78.46
X122.81Y-97.46
X134.19Y-54.71
X134.19Y-73.71
X134.19Y-92.71
X135.46Y-52.17
X135.46Y-71.17
X135.46Y-90.17
X140.54Y-52.17
X140.54Y-71.17
X140.54Y-90.17
X141.81Y-54.71
X141.81Y-73.71
X141.81Y-92.71
X153.19Y-52.335
X153.19Y-71.335
X153.19Y-90.335
X154.46Y-49.795
X154.46Y-68.795
X154.46Y-87.795
X159.54Y-49.795
X159.54Y-68.795
X159.54Y-87.795
X160.81Y-52.335
X160.81Y-71.335
X160.81Y-90.335
X162.69Y-112.335
X163.96Y-109.795
X169.04Y-109.795
X170.31Y-112.335
X172.19Y-54.71
X172.19Y-73.71
X172.19Y-92.71
X173.46Y-52.17
X173.46Y-71.17
X173.46Y-90.17
X178.54Y-52.17
X178.54Y-71.17
X178.54Y-90.17
X179.81Y-54.71
X179.81Y-73.71
X179.81Y-92.71
X184.477Y-114.185
X186.361Y-112.061
X191.19Y-57.085
X191.19Y-76.085
X191.19Y-95.085
X191.268Y-113.375
X191.838Y-116.158
X192.46Y-54.545
X192.46Y-73.545
X192.46Y-92.545
X197.54Y-54.545
X197.54Y-73.545
X197.54Y-92.545
X198.81Y-57.085
X198.81Y-76.085
X198.81Y-95.085
X204.077Y-121.049
X205.642Y-123.419
X206.617Y-116.649
X209.452Y-116.82
T6
X100.0Y-62.0
X100.0Y-62.0
X100.0Y-81.0
X100.0Y-81.0
X100.0Y-100.0
X100.0Y-100.0
X119.0Y-62.0
X119.0Y-62.0
X119.0Y-81.0
X119.0Y-81.0
X119.0Y-100.0
X119.0Y-100.0
X138.0Y-57.25
X138.0Y-57.25
X138.0Y-76.25
X138.0Y-76.25
X138.0Y-95.25
X138.0Y-95.25
X157.0Y-54.875
X157.0Y-54.875
X157.0Y-73.875
X157.0Y-73.875
X157.0Y-92.875
X157.0Y-92.875
X166.5Y-114.875
X166.5Y-114.875
X176.0Y-57.25
X176.0Y-57.25
X176.0Y-76.25
X176.0Y-76.25
X176.0Y-95.25
X176.0Y-95.25
X187.5Y-117.625
X187.5Y-117.625
X195.0Y-59.625
X195.0Y-59.625
X195.0Y-78.625
X195.0Y-78.625
X195.0Y-97.625
X195.0Y-97.625
X209.747Y-121.389
X209.747Y-121.389
T7
X109.5Y-71.5
X109.5Y-90.5
X152.657Y-107.74
X185.468Y-67.986
X199.241Y-115.324
M30
