G04 #@! TF.GenerationSoftware,KiCad,Pcbnew,8.0.8+1*
G04 #@! TF.CreationDate,2025-07-08T12:52:23+00:00*
G04 #@! TF.ProjectId,corney_island_wireless_autorouted,636f726e-6579-45f6-9973-6c616e645f77,0.2*
G04 #@! TF.SameCoordinates,Original*
G04 #@! TF.FileFunction,Soldermask,Top*
G04 #@! TF.FilePolarity,Negative*
%FSLAX46Y46*%
G04 Gerber Fmt 4.6, Leading zero omitted, Abs format (unit mm)*
G04 Created by KiCad (PCBNEW 8.0.8+1) date 2025-07-08 12:52:23*
%MOMM*%
%LPD*%
G01*
G04 APERTURE LIST*
%ADD10C,2.000000*%
%ADD11C,3.100000*%
%ADD12C,4.200000*%
%ADD13C,4.400000*%
%ADD14C,0.850000*%
%ADD15C,1.000000*%
%ADD16O,1.850000X1.300000*%
%ADD17C,2.300000*%
%ADD18O,1.800000X1.800000*%
%ADD19C,1.800000*%
%ADD20C,0.900000*%
G04 APERTURE END LIST*
G36*
G01*
X131200000Y-96075000D02*
X130000000Y-96075000D01*
G75*
G02*
X129950000Y-96025000I0J50000D01*
G01*
X129950000Y-95125000D01*
G75*
G02*
X130000000Y-95075000I50000J0D01*
G01*
X131200000Y-95075000D01*
G75*
G02*
X131250000Y-95125000I0J-50000D01*
G01*
X131250000Y-96025000D01*
G75*
G02*
X131200000Y-96075000I-50000J0D01*
G01*
G37*
G36*
G01*
X131200000Y-92775000D02*
X130000000Y-92775000D01*
G75*
G02*
X129950000Y-92725000I0J50000D01*
G01*
X129950000Y-91825000D01*
G75*
G02*
X130000000Y-91775000I50000J0D01*
G01*
X131200000Y-91775000D01*
G75*
G02*
X131250000Y-91825000I0J-50000D01*
G01*
X131250000Y-92725000D01*
G75*
G02*
X131200000Y-92775000I-50000J0D01*
G01*
G37*
D10*
X189920000Y-59625000D03*
D11*
X192460000Y-54545000D03*
D12*
X195000000Y-59625000D03*
D11*
X198810000Y-57085000D03*
D10*
X200080000Y-59625000D03*
G36*
G01*
X200760000Y-58335000D02*
X200760000Y-55835000D01*
G75*
G02*
X200810000Y-55785000I50000J0D01*
G01*
X203360000Y-55785000D01*
G75*
G02*
X203410000Y-55835000I0J-50000D01*
G01*
X203410000Y-58335000D01*
G75*
G02*
X203360000Y-58385000I-50000J0D01*
G01*
X200810000Y-58385000D01*
G75*
G02*
X200760000Y-58335000I0J50000D01*
G01*
G37*
G36*
G01*
X187833000Y-55795000D02*
X187833000Y-53295000D01*
G75*
G02*
X187883000Y-53245000I50000J0D01*
G01*
X190433000Y-53245000D01*
G75*
G02*
X190483000Y-53295000I0J-50000D01*
G01*
X190483000Y-55795000D01*
G75*
G02*
X190433000Y-55845000I-50000J0D01*
G01*
X187883000Y-55845000D01*
G75*
G02*
X187833000Y-55795000I0J50000D01*
G01*
G37*
D13*
X199241100Y-115323700D03*
G36*
G01*
X93200000Y-100825000D02*
X92000000Y-100825000D01*
G75*
G02*
X91950000Y-100775000I0J50000D01*
G01*
X91950000Y-99875000D01*
G75*
G02*
X92000000Y-99825000I50000J0D01*
G01*
X93200000Y-99825000D01*
G75*
G02*
X93250000Y-99875000I0J-50000D01*
G01*
X93250000Y-100775000D01*
G75*
G02*
X93200000Y-100825000I-50000J0D01*
G01*
G37*
G36*
G01*
X93200000Y-97525000D02*
X92000000Y-97525000D01*
G75*
G02*
X91950000Y-97475000I0J50000D01*
G01*
X91950000Y-96575000D01*
G75*
G02*
X92000000Y-96525000I50000J0D01*
G01*
X93200000Y-96525000D01*
G75*
G02*
X93250000Y-96575000I0J-50000D01*
G01*
X93250000Y-97475000D01*
G75*
G02*
X93200000Y-97525000I-50000J0D01*
G01*
G37*
D10*
X189920000Y-97625000D03*
D11*
X192460000Y-92545000D03*
D12*
X195000000Y-97625000D03*
D11*
X198810000Y-95085000D03*
D10*
X200080000Y-97625000D03*
G36*
G01*
X200760000Y-96335000D02*
X200760000Y-93835000D01*
G75*
G02*
X200810000Y-93785000I50000J0D01*
G01*
X203360000Y-93785000D01*
G75*
G02*
X203410000Y-93835000I0J-50000D01*
G01*
X203410000Y-96335000D01*
G75*
G02*
X203360000Y-96385000I-50000J0D01*
G01*
X200810000Y-96385000D01*
G75*
G02*
X200760000Y-96335000I0J50000D01*
G01*
G37*
G36*
G01*
X187833000Y-93795000D02*
X187833000Y-91295000D01*
G75*
G02*
X187883000Y-91245000I50000J0D01*
G01*
X190433000Y-91245000D01*
G75*
G02*
X190483000Y-91295000I0J-50000D01*
G01*
X190483000Y-93795000D01*
G75*
G02*
X190433000Y-93845000I-50000J0D01*
G01*
X187883000Y-93845000D01*
G75*
G02*
X187833000Y-93795000I0J50000D01*
G01*
G37*
X132920000Y-76250000D03*
D11*
X135460000Y-71170000D03*
D12*
X138000000Y-76250000D03*
D11*
X141810000Y-73710000D03*
D10*
X143080000Y-76250000D03*
G36*
G01*
X143760000Y-74960000D02*
X143760000Y-72460000D01*
G75*
G02*
X143810000Y-72410000I50000J0D01*
G01*
X146360000Y-72410000D01*
G75*
G02*
X146410000Y-72460000I0J-50000D01*
G01*
X146410000Y-74960000D01*
G75*
G02*
X146360000Y-75010000I-50000J0D01*
G01*
X143810000Y-75010000D01*
G75*
G02*
X143760000Y-74960000I0J50000D01*
G01*
G37*
G36*
G01*
X130833000Y-72420000D02*
X130833000Y-69920000D01*
G75*
G02*
X130883000Y-69870000I50000J0D01*
G01*
X133433000Y-69870000D01*
G75*
G02*
X133483000Y-69920000I0J-50000D01*
G01*
X133483000Y-72420000D01*
G75*
G02*
X133433000Y-72470000I-50000J0D01*
G01*
X130883000Y-72470000D01*
G75*
G02*
X130833000Y-72420000I0J50000D01*
G01*
G37*
D13*
X109500000Y-90500000D03*
D10*
X151920000Y-73875000D03*
D11*
X154460000Y-68795000D03*
D12*
X157000000Y-73875000D03*
D11*
X160810000Y-71335000D03*
D10*
X162080000Y-73875000D03*
G36*
G01*
X162760000Y-72585000D02*
X162760000Y-70085000D01*
G75*
G02*
X162810000Y-70035000I50000J0D01*
G01*
X165360000Y-70035000D01*
G75*
G02*
X165410000Y-70085000I0J-50000D01*
G01*
X165410000Y-72585000D01*
G75*
G02*
X165360000Y-72635000I-50000J0D01*
G01*
X162810000Y-72635000D01*
G75*
G02*
X162760000Y-72585000I0J50000D01*
G01*
G37*
G36*
G01*
X149833000Y-70045000D02*
X149833000Y-67545000D01*
G75*
G02*
X149883000Y-67495000I50000J0D01*
G01*
X152433000Y-67495000D01*
G75*
G02*
X152483000Y-67545000I0J-50000D01*
G01*
X152483000Y-70045000D01*
G75*
G02*
X152433000Y-70095000I-50000J0D01*
G01*
X149883000Y-70095000D01*
G75*
G02*
X149833000Y-70045000I0J50000D01*
G01*
G37*
G36*
G01*
X131200000Y-77075000D02*
X130000000Y-77075000D01*
G75*
G02*
X129950000Y-77025000I0J50000D01*
G01*
X129950000Y-76125000D01*
G75*
G02*
X130000000Y-76075000I50000J0D01*
G01*
X131200000Y-76075000D01*
G75*
G02*
X131250000Y-76125000I0J-50000D01*
G01*
X131250000Y-77025000D01*
G75*
G02*
X131200000Y-77075000I-50000J0D01*
G01*
G37*
G36*
G01*
X131200000Y-73775000D02*
X130000000Y-73775000D01*
G75*
G02*
X129950000Y-73725000I0J50000D01*
G01*
X129950000Y-72825000D01*
G75*
G02*
X130000000Y-72775000I50000J0D01*
G01*
X131200000Y-72775000D01*
G75*
G02*
X131250000Y-72825000I0J-50000D01*
G01*
X131250000Y-73725000D01*
G75*
G02*
X131200000Y-73775000I-50000J0D01*
G01*
G37*
D13*
X109500000Y-71500000D03*
D14*
X214704000Y-53790000D03*
X214704000Y-56540000D03*
G36*
G01*
X218154000Y-53815000D02*
X218154000Y-54815000D01*
G75*
G02*
X218104000Y-54865000I-50000J0D01*
G01*
X216554000Y-54865000D01*
G75*
G02*
X216504000Y-54815000I0J50000D01*
G01*
X216504000Y-53815000D01*
G75*
G02*
X216554000Y-53765000I50000J0D01*
G01*
X218104000Y-53765000D01*
G75*
G02*
X218154000Y-53815000I0J-50000D01*
G01*
G37*
G36*
G01*
X218154000Y-55515000D02*
X218154000Y-56515000D01*
G75*
G02*
X218104000Y-56565000I-50000J0D01*
G01*
X216554000Y-56565000D01*
G75*
G02*
X216504000Y-56515000I0J50000D01*
G01*
X216504000Y-55515000D01*
G75*
G02*
X216554000Y-55465000I50000J0D01*
G01*
X218104000Y-55465000D01*
G75*
G02*
X218154000Y-55515000I0J-50000D01*
G01*
G37*
G36*
G01*
X212904000Y-53815000D02*
X212904000Y-54815000D01*
G75*
G02*
X212854000Y-54865000I-50000J0D01*
G01*
X211304000Y-54865000D01*
G75*
G02*
X211254000Y-54815000I0J50000D01*
G01*
X211254000Y-53815000D01*
G75*
G02*
X211304000Y-53765000I50000J0D01*
G01*
X212854000Y-53765000D01*
G75*
G02*
X212904000Y-53815000I0J-50000D01*
G01*
G37*
G36*
G01*
X212904000Y-55515000D02*
X212904000Y-56515000D01*
G75*
G02*
X212854000Y-56565000I-50000J0D01*
G01*
X211304000Y-56565000D01*
G75*
G02*
X211254000Y-56515000I0J50000D01*
G01*
X211254000Y-55515000D01*
G75*
G02*
X211304000Y-55465000I50000J0D01*
G01*
X212854000Y-55465000D01*
G75*
G02*
X212904000Y-55515000I0J-50000D01*
G01*
G37*
D10*
X207206800Y-125788609D03*
D11*
X204077391Y-121048905D03*
D12*
X209746800Y-121389200D03*
D11*
X209452095Y-116819643D03*
D10*
X212286800Y-116989791D03*
G36*
G01*
X211509627Y-115755893D02*
X209344563Y-114505893D01*
G75*
G02*
X209326262Y-114437592I25000J43301D01*
G01*
X210601262Y-112229228D01*
G75*
G02*
X210669563Y-112210927I43301J-25000D01*
G01*
X212834627Y-113460927D01*
G75*
G02*
X212852928Y-113529228I-25000J-43301D01*
G01*
X211577928Y-115737592D01*
G75*
G02*
X211509627Y-115755893I-43301J25000D01*
G01*
G37*
G36*
G01*
X202846423Y-125681003D02*
X200681359Y-124431003D01*
G75*
G02*
X200663058Y-124362702I25000J43301D01*
G01*
X201938058Y-122154338D01*
G75*
G02*
X202006359Y-122136037I43301J-25000D01*
G01*
X204171423Y-123386037D01*
G75*
G02*
X204189724Y-123454338I-25000J-43301D01*
G01*
X202914724Y-125662702D01*
G75*
G02*
X202846423Y-125681003I-43301J25000D01*
G01*
G37*
X189920000Y-78625000D03*
D11*
X192460000Y-73545000D03*
D12*
X195000000Y-78625000D03*
D11*
X198810000Y-76085000D03*
D10*
X200080000Y-78625000D03*
G36*
G01*
X200760000Y-77335000D02*
X200760000Y-74835000D01*
G75*
G02*
X200810000Y-74785000I50000J0D01*
G01*
X203360000Y-74785000D01*
G75*
G02*
X203410000Y-74835000I0J-50000D01*
G01*
X203410000Y-77335000D01*
G75*
G02*
X203360000Y-77385000I-50000J0D01*
G01*
X200810000Y-77385000D01*
G75*
G02*
X200760000Y-77335000I0J50000D01*
G01*
G37*
G36*
G01*
X187833000Y-74795000D02*
X187833000Y-72295000D01*
G75*
G02*
X187883000Y-72245000I50000J0D01*
G01*
X190433000Y-72245000D01*
G75*
G02*
X190483000Y-72295000I0J-50000D01*
G01*
X190483000Y-74795000D01*
G75*
G02*
X190433000Y-74845000I-50000J0D01*
G01*
X187883000Y-74845000D01*
G75*
G02*
X187833000Y-74795000I0J50000D01*
G01*
G37*
X113920000Y-62000000D03*
D11*
X116460000Y-56920000D03*
D12*
X119000000Y-62000000D03*
D11*
X122810000Y-59460000D03*
D10*
X124080000Y-62000000D03*
G36*
G01*
X124760000Y-60710000D02*
X124760000Y-58210000D01*
G75*
G02*
X124810000Y-58160000I50000J0D01*
G01*
X127360000Y-58160000D01*
G75*
G02*
X127410000Y-58210000I0J-50000D01*
G01*
X127410000Y-60710000D01*
G75*
G02*
X127360000Y-60760000I-50000J0D01*
G01*
X124810000Y-60760000D01*
G75*
G02*
X124760000Y-60710000I0J50000D01*
G01*
G37*
G36*
G01*
X111833000Y-58170000D02*
X111833000Y-55670000D01*
G75*
G02*
X111883000Y-55620000I50000J0D01*
G01*
X114433000Y-55620000D01*
G75*
G02*
X114483000Y-55670000I0J-50000D01*
G01*
X114483000Y-58170000D01*
G75*
G02*
X114433000Y-58220000I-50000J0D01*
G01*
X111883000Y-58220000D01*
G75*
G02*
X111833000Y-58170000I0J50000D01*
G01*
G37*
G36*
G01*
X188200000Y-98450000D02*
X187000000Y-98450000D01*
G75*
G02*
X186950000Y-98400000I0J50000D01*
G01*
X186950000Y-97500000D01*
G75*
G02*
X187000000Y-97450000I50000J0D01*
G01*
X188200000Y-97450000D01*
G75*
G02*
X188250000Y-97500000I0J-50000D01*
G01*
X188250000Y-98400000D01*
G75*
G02*
X188200000Y-98450000I-50000J0D01*
G01*
G37*
G36*
G01*
X188200000Y-95150000D02*
X187000000Y-95150000D01*
G75*
G02*
X186950000Y-95100000I0J50000D01*
G01*
X186950000Y-94200000D01*
G75*
G02*
X187000000Y-94150000I50000J0D01*
G01*
X188200000Y-94150000D01*
G75*
G02*
X188250000Y-94200000I0J-50000D01*
G01*
X188250000Y-95100000D01*
G75*
G02*
X188200000Y-95150000I-50000J0D01*
G01*
G37*
X132920000Y-95250000D03*
D11*
X135460000Y-90170000D03*
D12*
X138000000Y-95250000D03*
D11*
X141810000Y-92710000D03*
D10*
X143080000Y-95250000D03*
G36*
G01*
X143760000Y-93960000D02*
X143760000Y-91460000D01*
G75*
G02*
X143810000Y-91410000I50000J0D01*
G01*
X146360000Y-91410000D01*
G75*
G02*
X146410000Y-91460000I0J-50000D01*
G01*
X146410000Y-93960000D01*
G75*
G02*
X146360000Y-94010000I-50000J0D01*
G01*
X143810000Y-94010000D01*
G75*
G02*
X143760000Y-93960000I0J50000D01*
G01*
G37*
G36*
G01*
X130833000Y-91420000D02*
X130833000Y-88920000D01*
G75*
G02*
X130883000Y-88870000I50000J0D01*
G01*
X133433000Y-88870000D01*
G75*
G02*
X133483000Y-88920000I0J-50000D01*
G01*
X133483000Y-91420000D01*
G75*
G02*
X133433000Y-91470000I-50000J0D01*
G01*
X130883000Y-91470000D01*
G75*
G02*
X130833000Y-91420000I0J50000D01*
G01*
G37*
G36*
G01*
X93200000Y-62825000D02*
X92000000Y-62825000D01*
G75*
G02*
X91950000Y-62775000I0J50000D01*
G01*
X91950000Y-61875000D01*
G75*
G02*
X92000000Y-61825000I50000J0D01*
G01*
X93200000Y-61825000D01*
G75*
G02*
X93250000Y-61875000I0J-50000D01*
G01*
X93250000Y-62775000D01*
G75*
G02*
X93200000Y-62825000I-50000J0D01*
G01*
G37*
G36*
G01*
X93200000Y-59525000D02*
X92000000Y-59525000D01*
G75*
G02*
X91950000Y-59475000I0J50000D01*
G01*
X91950000Y-58575000D01*
G75*
G02*
X92000000Y-58525000I50000J0D01*
G01*
X93200000Y-58525000D01*
G75*
G02*
X93250000Y-58575000I0J-50000D01*
G01*
X93250000Y-59475000D01*
G75*
G02*
X93200000Y-59525000I-50000J0D01*
G01*
G37*
X132920000Y-57250000D03*
D11*
X135460000Y-52170000D03*
D12*
X138000000Y-57250000D03*
D11*
X141810000Y-54710000D03*
D10*
X143080000Y-57250000D03*
G36*
G01*
X143760000Y-55960000D02*
X143760000Y-53460000D01*
G75*
G02*
X143810000Y-53410000I50000J0D01*
G01*
X146360000Y-53410000D01*
G75*
G02*
X146410000Y-53460000I0J-50000D01*
G01*
X146410000Y-55960000D01*
G75*
G02*
X146360000Y-56010000I-50000J0D01*
G01*
X143810000Y-56010000D01*
G75*
G02*
X143760000Y-55960000I0J50000D01*
G01*
G37*
G36*
G01*
X130833000Y-53420000D02*
X130833000Y-50920000D01*
G75*
G02*
X130883000Y-50870000I50000J0D01*
G01*
X133433000Y-50870000D01*
G75*
G02*
X133483000Y-50920000I0J-50000D01*
G01*
X133483000Y-53420000D01*
G75*
G02*
X133433000Y-53470000I-50000J0D01*
G01*
X130883000Y-53470000D01*
G75*
G02*
X130833000Y-53420000I0J50000D01*
G01*
G37*
X94920000Y-81000000D03*
D11*
X97460000Y-75920000D03*
D12*
X100000000Y-81000000D03*
D11*
X103810000Y-78460000D03*
D10*
X105080000Y-81000000D03*
G36*
G01*
X105760000Y-79710000D02*
X105760000Y-77210000D01*
G75*
G02*
X105810000Y-77160000I50000J0D01*
G01*
X108360000Y-77160000D01*
G75*
G02*
X108410000Y-77210000I0J-50000D01*
G01*
X108410000Y-79710000D01*
G75*
G02*
X108360000Y-79760000I-50000J0D01*
G01*
X105810000Y-79760000D01*
G75*
G02*
X105760000Y-79710000I0J50000D01*
G01*
G37*
G36*
G01*
X92833000Y-77170000D02*
X92833000Y-74670000D01*
G75*
G02*
X92883000Y-74620000I50000J0D01*
G01*
X95433000Y-74620000D01*
G75*
G02*
X95483000Y-74670000I0J-50000D01*
G01*
X95483000Y-77170000D01*
G75*
G02*
X95433000Y-77220000I-50000J0D01*
G01*
X92883000Y-77220000D01*
G75*
G02*
X92833000Y-77170000I0J50000D01*
G01*
G37*
G36*
G01*
X222315000Y-95900000D02*
X221515000Y-95900000D01*
G75*
G02*
X221465000Y-95850000I0J50000D01*
G01*
X221465000Y-94850000D01*
G75*
G02*
X221515000Y-94800000I50000J0D01*
G01*
X222315000Y-94800000D01*
G75*
G02*
X222365000Y-94850000I0J-50000D01*
G01*
X222365000Y-95850000D01*
G75*
G02*
X222315000Y-95900000I-50000J0D01*
G01*
G37*
G36*
G01*
X222315000Y-103200000D02*
X221515000Y-103200000D01*
G75*
G02*
X221465000Y-103150000I0J50000D01*
G01*
X221465000Y-102150000D01*
G75*
G02*
X221515000Y-102100000I50000J0D01*
G01*
X222315000Y-102100000D01*
G75*
G02*
X222365000Y-102150000I0J-50000D01*
G01*
X222365000Y-103150000D01*
G75*
G02*
X222315000Y-103200000I-50000J0D01*
G01*
G37*
D15*
X223025000Y-97500000D03*
X223025000Y-100500000D03*
G36*
G01*
X224525000Y-95900000D02*
X223725000Y-95900000D01*
G75*
G02*
X223675000Y-95850000I0J50000D01*
G01*
X223675000Y-94850000D01*
G75*
G02*
X223725000Y-94800000I50000J0D01*
G01*
X224525000Y-94800000D01*
G75*
G02*
X224575000Y-94850000I0J-50000D01*
G01*
X224575000Y-95850000D01*
G75*
G02*
X224525000Y-95900000I-50000J0D01*
G01*
G37*
G36*
G01*
X224525000Y-103200000D02*
X223725000Y-103200000D01*
G75*
G02*
X223675000Y-103150000I0J50000D01*
G01*
X223675000Y-102150000D01*
G75*
G02*
X223725000Y-102100000I50000J0D01*
G01*
X224525000Y-102100000D01*
G75*
G02*
X224575000Y-102150000I0J-50000D01*
G01*
X224575000Y-103150000D01*
G75*
G02*
X224525000Y-103200000I-50000J0D01*
G01*
G37*
G36*
G01*
X222015000Y-101650000D02*
X220515000Y-101650000D01*
G75*
G02*
X220465000Y-101600000I0J50000D01*
G01*
X220465000Y-100900000D01*
G75*
G02*
X220515000Y-100850000I50000J0D01*
G01*
X222015000Y-100850000D01*
G75*
G02*
X222065000Y-100900000I0J-50000D01*
G01*
X222065000Y-101600000D01*
G75*
G02*
X222015000Y-101650000I-50000J0D01*
G01*
G37*
G36*
G01*
X222015000Y-98650000D02*
X220515000Y-98650000D01*
G75*
G02*
X220465000Y-98600000I0J50000D01*
G01*
X220465000Y-97900000D01*
G75*
G02*
X220515000Y-97850000I50000J0D01*
G01*
X222015000Y-97850000D01*
G75*
G02*
X222065000Y-97900000I0J-50000D01*
G01*
X222065000Y-98600000D01*
G75*
G02*
X222015000Y-98650000I-50000J0D01*
G01*
G37*
G36*
G01*
X222015000Y-97150000D02*
X220515000Y-97150000D01*
G75*
G02*
X220465000Y-97100000I0J50000D01*
G01*
X220465000Y-96400000D01*
G75*
G02*
X220515000Y-96350000I50000J0D01*
G01*
X222015000Y-96350000D01*
G75*
G02*
X222065000Y-96400000I0J-50000D01*
G01*
X222065000Y-97100000D01*
G75*
G02*
X222015000Y-97150000I-50000J0D01*
G01*
G37*
D10*
X182593097Y-116310199D03*
D11*
X186361349Y-112060696D03*
D12*
X187500000Y-117625000D03*
D11*
X191837578Y-116157649D03*
D10*
X192406903Y-118939801D03*
G36*
G01*
X193397610Y-117869753D02*
X194044657Y-115454938D01*
G75*
G02*
X194105894Y-115419583I48296J-12941D01*
G01*
X196569005Y-116079572D01*
G75*
G02*
X196604360Y-116140809I-12941J-48296D01*
G01*
X195957313Y-118555624D01*
G75*
G02*
X195896076Y-118590979I-48296J12941D01*
G01*
X193432965Y-117930990D01*
G75*
G02*
X193397610Y-117869753I12941J48296D01*
G01*
G37*
G36*
G01*
X181568487Y-112070548D02*
X182215534Y-109655733D01*
G75*
G02*
X182276771Y-109620378I48296J-12941D01*
G01*
X184739882Y-110280367D01*
G75*
G02*
X184775237Y-110341604I-12941J-48296D01*
G01*
X184128190Y-112756419D01*
G75*
G02*
X184066953Y-112791774I-48296J12941D01*
G01*
X181603842Y-112131785D01*
G75*
G02*
X181568487Y-112070548I12941J48296D01*
G01*
G37*
G36*
G01*
X207061254Y-127690585D02*
X206461254Y-128729815D01*
G75*
G02*
X206392953Y-128748116I-43301J25000D01*
G01*
X205613531Y-128298116D01*
G75*
G02*
X205595230Y-128229815I25000J43301D01*
G01*
X206195230Y-127190585D01*
G75*
G02*
X206263531Y-127172284I43301J-25000D01*
G01*
X207042953Y-127622284D01*
G75*
G02*
X207061254Y-127690585I-25000J-43301D01*
G01*
G37*
G36*
G01*
X204203370Y-126040585D02*
X203603370Y-127079815D01*
G75*
G02*
X203535069Y-127098116I-43301J25000D01*
G01*
X202755647Y-126648116D01*
G75*
G02*
X202737346Y-126579815I25000J43301D01*
G01*
X203337346Y-125540585D01*
G75*
G02*
X203405647Y-125522284I43301J-25000D01*
G01*
X204185069Y-125972284D01*
G75*
G02*
X204203370Y-126040585I-25000J-43301D01*
G01*
G37*
X94920000Y-100000000D03*
D11*
X97460000Y-94920000D03*
D12*
X100000000Y-100000000D03*
D11*
X103810000Y-97460000D03*
D10*
X105080000Y-100000000D03*
G36*
G01*
X105760000Y-98710000D02*
X105760000Y-96210000D01*
G75*
G02*
X105810000Y-96160000I50000J0D01*
G01*
X108360000Y-96160000D01*
G75*
G02*
X108410000Y-96210000I0J-50000D01*
G01*
X108410000Y-98710000D01*
G75*
G02*
X108360000Y-98760000I-50000J0D01*
G01*
X105810000Y-98760000D01*
G75*
G02*
X105760000Y-98710000I0J50000D01*
G01*
G37*
G36*
G01*
X92833000Y-96170000D02*
X92833000Y-93670000D01*
G75*
G02*
X92883000Y-93620000I50000J0D01*
G01*
X95433000Y-93620000D01*
G75*
G02*
X95483000Y-93670000I0J-50000D01*
G01*
X95483000Y-96170000D01*
G75*
G02*
X95433000Y-96220000I-50000J0D01*
G01*
X92883000Y-96220000D01*
G75*
G02*
X92833000Y-96170000I0J50000D01*
G01*
G37*
X161420000Y-114875000D03*
D11*
X163960000Y-109795000D03*
D12*
X166500000Y-114875000D03*
D11*
X170310000Y-112335000D03*
D10*
X171580000Y-114875000D03*
G36*
G01*
X172260000Y-113585000D02*
X172260000Y-111085000D01*
G75*
G02*
X172310000Y-111035000I50000J0D01*
G01*
X174860000Y-111035000D01*
G75*
G02*
X174910000Y-111085000I0J-50000D01*
G01*
X174910000Y-113585000D01*
G75*
G02*
X174860000Y-113635000I-50000J0D01*
G01*
X172310000Y-113635000D01*
G75*
G02*
X172260000Y-113585000I0J50000D01*
G01*
G37*
G36*
G01*
X159333000Y-111045000D02*
X159333000Y-108545000D01*
G75*
G02*
X159383000Y-108495000I50000J0D01*
G01*
X161933000Y-108495000D01*
G75*
G02*
X161983000Y-108545000I0J-50000D01*
G01*
X161983000Y-111045000D01*
G75*
G02*
X161933000Y-111095000I-50000J0D01*
G01*
X159383000Y-111095000D01*
G75*
G02*
X159333000Y-111045000I0J50000D01*
G01*
G37*
G36*
G01*
X131200000Y-58075000D02*
X130000000Y-58075000D01*
G75*
G02*
X129950000Y-58025000I0J50000D01*
G01*
X129950000Y-57125000D01*
G75*
G02*
X130000000Y-57075000I50000J0D01*
G01*
X131200000Y-57075000D01*
G75*
G02*
X131250000Y-57125000I0J-50000D01*
G01*
X131250000Y-58025000D01*
G75*
G02*
X131200000Y-58075000I-50000J0D01*
G01*
G37*
G36*
G01*
X131200000Y-54775000D02*
X130000000Y-54775000D01*
G75*
G02*
X129950000Y-54725000I0J50000D01*
G01*
X129950000Y-53825000D01*
G75*
G02*
X130000000Y-53775000I50000J0D01*
G01*
X131200000Y-53775000D01*
G75*
G02*
X131250000Y-53825000I0J-50000D01*
G01*
X131250000Y-54725000D01*
G75*
G02*
X131200000Y-54775000I-50000J0D01*
G01*
G37*
G36*
G01*
X150200000Y-74700000D02*
X149000000Y-74700000D01*
G75*
G02*
X148950000Y-74650000I0J50000D01*
G01*
X148950000Y-73750000D01*
G75*
G02*
X149000000Y-73700000I50000J0D01*
G01*
X150200000Y-73700000D01*
G75*
G02*
X150250000Y-73750000I0J-50000D01*
G01*
X150250000Y-74650000D01*
G75*
G02*
X150200000Y-74700000I-50000J0D01*
G01*
G37*
G36*
G01*
X150200000Y-71400000D02*
X149000000Y-71400000D01*
G75*
G02*
X148950000Y-71350000I0J50000D01*
G01*
X148950000Y-70450000D01*
G75*
G02*
X149000000Y-70400000I50000J0D01*
G01*
X150200000Y-70400000D01*
G75*
G02*
X150250000Y-70450000I0J-50000D01*
G01*
X150250000Y-71350000D01*
G75*
G02*
X150200000Y-71400000I-50000J0D01*
G01*
G37*
G36*
X214851355Y-99385355D02*
G01*
X214816000Y-99400000D01*
X213566000Y-99400000D01*
X213530645Y-99385355D01*
X213516000Y-99350000D01*
X213530645Y-99314645D01*
X214095290Y-98750000D01*
X213530645Y-98185355D01*
X213516000Y-98150000D01*
X213530645Y-98114645D01*
X213566000Y-98100000D01*
X214816000Y-98100000D01*
X214851355Y-98114645D01*
X214866000Y-98150000D01*
X214866000Y-99350000D01*
X214851355Y-99385355D01*
G37*
G36*
X214851355Y-97385355D02*
G01*
X214816000Y-97400000D01*
X213566000Y-97400000D01*
X213530645Y-97385355D01*
X213516000Y-97350000D01*
X213530645Y-97314645D01*
X214095290Y-96750000D01*
X213530645Y-96185355D01*
X213516000Y-96150000D01*
X213530645Y-96114645D01*
X213566000Y-96100000D01*
X214816000Y-96100000D01*
X214851355Y-96114645D01*
X214866000Y-96150000D01*
X214866000Y-97350000D01*
X214851355Y-97385355D01*
G37*
D16*
X211750000Y-98750000D03*
X211750000Y-96750000D03*
G36*
X213985355Y-98785355D02*
G01*
X213385355Y-99385355D01*
X213350000Y-99400000D01*
X213150000Y-99400000D01*
X213114645Y-99385355D01*
X213100000Y-99350000D01*
X213100000Y-98150000D01*
X213114645Y-98114645D01*
X213150000Y-98100000D01*
X213350000Y-98100000D01*
X213385355Y-98114645D01*
X213985355Y-98714645D01*
X214000000Y-98750000D01*
X213985355Y-98785355D01*
G37*
G36*
X213985355Y-96785355D02*
G01*
X213385355Y-97385355D01*
X213350000Y-97400000D01*
X213150000Y-97400000D01*
X213114645Y-97385355D01*
X213100000Y-97350000D01*
X213100000Y-96150000D01*
X213114645Y-96114645D01*
X213150000Y-96100000D01*
X213350000Y-96100000D01*
X213385355Y-96114645D01*
X213985355Y-96714645D01*
X214000000Y-96750000D01*
X213985355Y-96785355D01*
G37*
G36*
G01*
X112200000Y-62825000D02*
X111000000Y-62825000D01*
G75*
G02*
X110950000Y-62775000I0J50000D01*
G01*
X110950000Y-61875000D01*
G75*
G02*
X111000000Y-61825000I50000J0D01*
G01*
X112200000Y-61825000D01*
G75*
G02*
X112250000Y-61875000I0J-50000D01*
G01*
X112250000Y-62775000D01*
G75*
G02*
X112200000Y-62825000I-50000J0D01*
G01*
G37*
G36*
G01*
X112200000Y-59525000D02*
X111000000Y-59525000D01*
G75*
G02*
X110950000Y-59475000I0J50000D01*
G01*
X110950000Y-58575000D01*
G75*
G02*
X111000000Y-58525000I50000J0D01*
G01*
X112200000Y-58525000D01*
G75*
G02*
X112250000Y-58575000I0J-50000D01*
G01*
X112250000Y-59475000D01*
G75*
G02*
X112200000Y-59525000I-50000J0D01*
G01*
G37*
D10*
X170920000Y-76250000D03*
D11*
X173460000Y-71170000D03*
D12*
X176000000Y-76250000D03*
D11*
X179810000Y-73710000D03*
D10*
X181080000Y-76250000D03*
G36*
G01*
X181760000Y-74960000D02*
X181760000Y-72460000D01*
G75*
G02*
X181810000Y-72410000I50000J0D01*
G01*
X184360000Y-72410000D01*
G75*
G02*
X184410000Y-72460000I0J-50000D01*
G01*
X184410000Y-74960000D01*
G75*
G02*
X184360000Y-75010000I-50000J0D01*
G01*
X181810000Y-75010000D01*
G75*
G02*
X181760000Y-74960000I0J50000D01*
G01*
G37*
G36*
G01*
X168833000Y-72420000D02*
X168833000Y-69920000D01*
G75*
G02*
X168883000Y-69870000I50000J0D01*
G01*
X171433000Y-69870000D01*
G75*
G02*
X171483000Y-69920000I0J-50000D01*
G01*
X171483000Y-72420000D01*
G75*
G02*
X171433000Y-72470000I-50000J0D01*
G01*
X168883000Y-72470000D01*
G75*
G02*
X168833000Y-72420000I0J50000D01*
G01*
G37*
X94920000Y-62000000D03*
D11*
X97460000Y-56920000D03*
D12*
X100000000Y-62000000D03*
D11*
X103810000Y-59460000D03*
D10*
X105080000Y-62000000D03*
G36*
G01*
X105760000Y-60710000D02*
X105760000Y-58210000D01*
G75*
G02*
X105810000Y-58160000I50000J0D01*
G01*
X108360000Y-58160000D01*
G75*
G02*
X108410000Y-58210000I0J-50000D01*
G01*
X108410000Y-60710000D01*
G75*
G02*
X108360000Y-60760000I-50000J0D01*
G01*
X105810000Y-60760000D01*
G75*
G02*
X105760000Y-60710000I0J50000D01*
G01*
G37*
G36*
G01*
X92833000Y-58170000D02*
X92833000Y-55670000D01*
G75*
G02*
X92883000Y-55620000I50000J0D01*
G01*
X95433000Y-55620000D01*
G75*
G02*
X95483000Y-55670000I0J-50000D01*
G01*
X95483000Y-58170000D01*
G75*
G02*
X95433000Y-58220000I-50000J0D01*
G01*
X92883000Y-58220000D01*
G75*
G02*
X92833000Y-58170000I0J50000D01*
G01*
G37*
X170920000Y-95250000D03*
D11*
X173460000Y-90170000D03*
D12*
X176000000Y-95250000D03*
D11*
X179810000Y-92710000D03*
D10*
X181080000Y-95250000D03*
G36*
G01*
X181760000Y-93960000D02*
X181760000Y-91460000D01*
G75*
G02*
X181810000Y-91410000I50000J0D01*
G01*
X184360000Y-91410000D01*
G75*
G02*
X184410000Y-91460000I0J-50000D01*
G01*
X184410000Y-93960000D01*
G75*
G02*
X184360000Y-94010000I-50000J0D01*
G01*
X181810000Y-94010000D01*
G75*
G02*
X181760000Y-93960000I0J50000D01*
G01*
G37*
G36*
G01*
X168833000Y-91420000D02*
X168833000Y-88920000D01*
G75*
G02*
X168883000Y-88870000I50000J0D01*
G01*
X171433000Y-88870000D01*
G75*
G02*
X171483000Y-88920000I0J-50000D01*
G01*
X171483000Y-91420000D01*
G75*
G02*
X171433000Y-91470000I-50000J0D01*
G01*
X168883000Y-91470000D01*
G75*
G02*
X168833000Y-91420000I0J50000D01*
G01*
G37*
D13*
X185468000Y-67986000D03*
D10*
X113920000Y-100000000D03*
D11*
X116460000Y-94920000D03*
D12*
X119000000Y-100000000D03*
D11*
X122810000Y-97460000D03*
D10*
X124080000Y-100000000D03*
G36*
G01*
X124760000Y-98710000D02*
X124760000Y-96210000D01*
G75*
G02*
X124810000Y-96160000I50000J0D01*
G01*
X127360000Y-96160000D01*
G75*
G02*
X127410000Y-96210000I0J-50000D01*
G01*
X127410000Y-98710000D01*
G75*
G02*
X127360000Y-98760000I-50000J0D01*
G01*
X124810000Y-98760000D01*
G75*
G02*
X124760000Y-98710000I0J50000D01*
G01*
G37*
G36*
G01*
X111833000Y-96170000D02*
X111833000Y-93670000D01*
G75*
G02*
X111883000Y-93620000I50000J0D01*
G01*
X114433000Y-93620000D01*
G75*
G02*
X114483000Y-93670000I0J-50000D01*
G01*
X114483000Y-96170000D01*
G75*
G02*
X114433000Y-96220000I-50000J0D01*
G01*
X111883000Y-96220000D01*
G75*
G02*
X111833000Y-96170000I0J50000D01*
G01*
G37*
X151920000Y-92875000D03*
D11*
X154460000Y-87795000D03*
D12*
X157000000Y-92875000D03*
D11*
X160810000Y-90335000D03*
D10*
X162080000Y-92875000D03*
G36*
G01*
X162760000Y-91585000D02*
X162760000Y-89085000D01*
G75*
G02*
X162810000Y-89035000I50000J0D01*
G01*
X165360000Y-89035000D01*
G75*
G02*
X165410000Y-89085000I0J-50000D01*
G01*
X165410000Y-91585000D01*
G75*
G02*
X165360000Y-91635000I-50000J0D01*
G01*
X162810000Y-91635000D01*
G75*
G02*
X162760000Y-91585000I0J50000D01*
G01*
G37*
G36*
G01*
X149833000Y-89045000D02*
X149833000Y-86545000D01*
G75*
G02*
X149883000Y-86495000I50000J0D01*
G01*
X152433000Y-86495000D01*
G75*
G02*
X152483000Y-86545000I0J-50000D01*
G01*
X152483000Y-89045000D01*
G75*
G02*
X152433000Y-89095000I-50000J0D01*
G01*
X149883000Y-89095000D01*
G75*
G02*
X149833000Y-89045000I0J50000D01*
G01*
G37*
G36*
G01*
X93200000Y-81825000D02*
X92000000Y-81825000D01*
G75*
G02*
X91950000Y-81775000I0J50000D01*
G01*
X91950000Y-80875000D01*
G75*
G02*
X92000000Y-80825000I50000J0D01*
G01*
X93200000Y-80825000D01*
G75*
G02*
X93250000Y-80875000I0J-50000D01*
G01*
X93250000Y-81775000D01*
G75*
G02*
X93200000Y-81825000I-50000J0D01*
G01*
G37*
G36*
G01*
X93200000Y-78525000D02*
X92000000Y-78525000D01*
G75*
G02*
X91950000Y-78475000I0J50000D01*
G01*
X91950000Y-77575000D01*
G75*
G02*
X92000000Y-77525000I50000J0D01*
G01*
X93200000Y-77525000D01*
G75*
G02*
X93250000Y-77575000I0J-50000D01*
G01*
X93250000Y-78475000D01*
G75*
G02*
X93200000Y-78525000I-50000J0D01*
G01*
G37*
G36*
G01*
X150200000Y-55700000D02*
X149000000Y-55700000D01*
G75*
G02*
X148950000Y-55650000I0J50000D01*
G01*
X148950000Y-54750000D01*
G75*
G02*
X149000000Y-54700000I50000J0D01*
G01*
X150200000Y-54700000D01*
G75*
G02*
X150250000Y-54750000I0J-50000D01*
G01*
X150250000Y-55650000D01*
G75*
G02*
X150200000Y-55700000I-50000J0D01*
G01*
G37*
G36*
G01*
X150200000Y-52400000D02*
X149000000Y-52400000D01*
G75*
G02*
X148950000Y-52350000I0J50000D01*
G01*
X148950000Y-51450000D01*
G75*
G02*
X149000000Y-51400000I50000J0D01*
G01*
X150200000Y-51400000D01*
G75*
G02*
X150250000Y-51450000I0J-50000D01*
G01*
X150250000Y-52350000D01*
G75*
G02*
X150200000Y-52400000I-50000J0D01*
G01*
G37*
G36*
G01*
X169200000Y-77075000D02*
X168000000Y-77075000D01*
G75*
G02*
X167950000Y-77025000I0J50000D01*
G01*
X167950000Y-76125000D01*
G75*
G02*
X168000000Y-76075000I50000J0D01*
G01*
X169200000Y-76075000D01*
G75*
G02*
X169250000Y-76125000I0J-50000D01*
G01*
X169250000Y-77025000D01*
G75*
G02*
X169200000Y-77075000I-50000J0D01*
G01*
G37*
G36*
G01*
X169200000Y-73775000D02*
X168000000Y-73775000D01*
G75*
G02*
X167950000Y-73725000I0J50000D01*
G01*
X167950000Y-72825000D01*
G75*
G02*
X168000000Y-72775000I50000J0D01*
G01*
X169200000Y-72775000D01*
G75*
G02*
X169250000Y-72825000I0J-50000D01*
G01*
X169250000Y-73725000D01*
G75*
G02*
X169200000Y-73775000I-50000J0D01*
G01*
G37*
D13*
X152657000Y-107740000D03*
G36*
G01*
X169200000Y-96075000D02*
X168000000Y-96075000D01*
G75*
G02*
X167950000Y-96025000I0J50000D01*
G01*
X167950000Y-95125000D01*
G75*
G02*
X168000000Y-95075000I50000J0D01*
G01*
X169200000Y-95075000D01*
G75*
G02*
X169250000Y-95125000I0J-50000D01*
G01*
X169250000Y-96025000D01*
G75*
G02*
X169200000Y-96075000I-50000J0D01*
G01*
G37*
G36*
G01*
X169200000Y-92775000D02*
X168000000Y-92775000D01*
G75*
G02*
X167950000Y-92725000I0J50000D01*
G01*
X167950000Y-91825000D01*
G75*
G02*
X168000000Y-91775000I50000J0D01*
G01*
X169200000Y-91775000D01*
G75*
G02*
X169250000Y-91825000I0J-50000D01*
G01*
X169250000Y-92725000D01*
G75*
G02*
X169200000Y-92775000I-50000J0D01*
G01*
G37*
G36*
G01*
X188200000Y-60450000D02*
X187000000Y-60450000D01*
G75*
G02*
X186950000Y-60400000I0J50000D01*
G01*
X186950000Y-59500000D01*
G75*
G02*
X187000000Y-59450000I50000J0D01*
G01*
X188200000Y-59450000D01*
G75*
G02*
X188250000Y-59500000I0J-50000D01*
G01*
X188250000Y-60400000D01*
G75*
G02*
X188200000Y-60450000I-50000J0D01*
G01*
G37*
G36*
G01*
X188200000Y-57150000D02*
X187000000Y-57150000D01*
G75*
G02*
X186950000Y-57100000I0J50000D01*
G01*
X186950000Y-56200000D01*
G75*
G02*
X187000000Y-56150000I50000J0D01*
G01*
X188200000Y-56150000D01*
G75*
G02*
X188250000Y-56200000I0J-50000D01*
G01*
X188250000Y-57100000D01*
G75*
G02*
X188200000Y-57150000I-50000J0D01*
G01*
G37*
G36*
G01*
X150200000Y-93700000D02*
X149000000Y-93700000D01*
G75*
G02*
X148950000Y-93650000I0J50000D01*
G01*
X148950000Y-92750000D01*
G75*
G02*
X149000000Y-92700000I50000J0D01*
G01*
X150200000Y-92700000D01*
G75*
G02*
X150250000Y-92750000I0J-50000D01*
G01*
X150250000Y-93650000D01*
G75*
G02*
X150200000Y-93700000I-50000J0D01*
G01*
G37*
G36*
G01*
X150200000Y-90400000D02*
X149000000Y-90400000D01*
G75*
G02*
X148950000Y-90350000I0J50000D01*
G01*
X148950000Y-89450000D01*
G75*
G02*
X149000000Y-89400000I50000J0D01*
G01*
X150200000Y-89400000D01*
G75*
G02*
X150250000Y-89450000I0J-50000D01*
G01*
X150250000Y-90350000D01*
G75*
G02*
X150200000Y-90400000I-50000J0D01*
G01*
G37*
G36*
G01*
X112200000Y-100825000D02*
X111000000Y-100825000D01*
G75*
G02*
X110950000Y-100775000I0J50000D01*
G01*
X110950000Y-99875000D01*
G75*
G02*
X111000000Y-99825000I50000J0D01*
G01*
X112200000Y-99825000D01*
G75*
G02*
X112250000Y-99875000I0J-50000D01*
G01*
X112250000Y-100775000D01*
G75*
G02*
X112200000Y-100825000I-50000J0D01*
G01*
G37*
G36*
G01*
X112200000Y-97525000D02*
X111000000Y-97525000D01*
G75*
G02*
X110950000Y-97475000I0J50000D01*
G01*
X110950000Y-96575000D01*
G75*
G02*
X111000000Y-96525000I50000J0D01*
G01*
X112200000Y-96525000D01*
G75*
G02*
X112250000Y-96575000I0J-50000D01*
G01*
X112250000Y-97475000D01*
G75*
G02*
X112200000Y-97525000I-50000J0D01*
G01*
G37*
D17*
X222194000Y-108995000D03*
G36*
G01*
X159700000Y-115700000D02*
X158500000Y-115700000D01*
G75*
G02*
X158450000Y-115650000I0J50000D01*
G01*
X158450000Y-114750000D01*
G75*
G02*
X158500000Y-114700000I50000J0D01*
G01*
X159700000Y-114700000D01*
G75*
G02*
X159750000Y-114750000I0J-50000D01*
G01*
X159750000Y-115650000D01*
G75*
G02*
X159700000Y-115700000I-50000J0D01*
G01*
G37*
G36*
G01*
X159700000Y-112400000D02*
X158500000Y-112400000D01*
G75*
G02*
X158450000Y-112350000I0J50000D01*
G01*
X158450000Y-111450000D01*
G75*
G02*
X158500000Y-111400000I50000J0D01*
G01*
X159700000Y-111400000D01*
G75*
G02*
X159750000Y-111450000I0J-50000D01*
G01*
X159750000Y-112350000D01*
G75*
G02*
X159700000Y-112400000I-50000J0D01*
G01*
G37*
D18*
X209567000Y-89950000D03*
X212107000Y-89950000D03*
X214647000Y-89950000D03*
X217187000Y-89950000D03*
D19*
X219727000Y-89950000D03*
G36*
G01*
X210167000Y-92950000D02*
X208967000Y-92950000D01*
G75*
G02*
X208917000Y-92900000I0J50000D01*
G01*
X208917000Y-92300000D01*
G75*
G02*
X208967000Y-92250000I50000J0D01*
G01*
X210167000Y-92250000D01*
G75*
G02*
X210217000Y-92300000I0J-50000D01*
G01*
X210217000Y-92900000D01*
G75*
G02*
X210167000Y-92950000I-50000J0D01*
G01*
G37*
G36*
G01*
X212707000Y-92950000D02*
X211507000Y-92950000D01*
G75*
G02*
X211457000Y-92900000I0J50000D01*
G01*
X211457000Y-92300000D01*
G75*
G02*
X211507000Y-92250000I50000J0D01*
G01*
X212707000Y-92250000D01*
G75*
G02*
X212757000Y-92300000I0J-50000D01*
G01*
X212757000Y-92900000D01*
G75*
G02*
X212707000Y-92950000I-50000J0D01*
G01*
G37*
G36*
G01*
X217787000Y-92950000D02*
X216587000Y-92950000D01*
G75*
G02*
X216537000Y-92900000I0J50000D01*
G01*
X216537000Y-92300000D01*
G75*
G02*
X216587000Y-92250000I50000J0D01*
G01*
X217787000Y-92250000D01*
G75*
G02*
X217837000Y-92300000I0J-50000D01*
G01*
X217837000Y-92900000D01*
G75*
G02*
X217787000Y-92950000I-50000J0D01*
G01*
G37*
G36*
G01*
X220327000Y-92950000D02*
X219127000Y-92950000D01*
G75*
G02*
X219077000Y-92900000I0J50000D01*
G01*
X219077000Y-92300000D01*
G75*
G02*
X219127000Y-92250000I50000J0D01*
G01*
X220327000Y-92250000D01*
G75*
G02*
X220377000Y-92300000I0J-50000D01*
G01*
X220377000Y-92900000D01*
G75*
G02*
X220327000Y-92950000I-50000J0D01*
G01*
G37*
G36*
G01*
X210167000Y-92050000D02*
X208967000Y-92050000D01*
G75*
G02*
X208917000Y-92000000I0J50000D01*
G01*
X208917000Y-91400000D01*
G75*
G02*
X208967000Y-91350000I50000J0D01*
G01*
X210167000Y-91350000D01*
G75*
G02*
X210217000Y-91400000I0J-50000D01*
G01*
X210217000Y-92000000D01*
G75*
G02*
X210167000Y-92050000I-50000J0D01*
G01*
G37*
G36*
G01*
X212707000Y-92050000D02*
X211507000Y-92050000D01*
G75*
G02*
X211457000Y-92000000I0J50000D01*
G01*
X211457000Y-91400000D01*
G75*
G02*
X211507000Y-91350000I50000J0D01*
G01*
X212707000Y-91350000D01*
G75*
G02*
X212757000Y-91400000I0J-50000D01*
G01*
X212757000Y-92000000D01*
G75*
G02*
X212707000Y-92050000I-50000J0D01*
G01*
G37*
G36*
G01*
X217787000Y-92050000D02*
X216587000Y-92050000D01*
G75*
G02*
X216537000Y-92000000I0J50000D01*
G01*
X216537000Y-91400000D01*
G75*
G02*
X216587000Y-91350000I50000J0D01*
G01*
X217787000Y-91350000D01*
G75*
G02*
X217837000Y-91400000I0J-50000D01*
G01*
X217837000Y-92000000D01*
G75*
G02*
X217787000Y-92050000I-50000J0D01*
G01*
G37*
G36*
G01*
X220327000Y-92050000D02*
X219127000Y-92050000D01*
G75*
G02*
X219077000Y-92000000I0J50000D01*
G01*
X219077000Y-91400000D01*
G75*
G02*
X219127000Y-91350000I50000J0D01*
G01*
X220327000Y-91350000D01*
G75*
G02*
X220377000Y-91400000I0J-50000D01*
G01*
X220377000Y-92000000D01*
G75*
G02*
X220327000Y-92050000I-50000J0D01*
G01*
G37*
G36*
G01*
X180718196Y-116661932D02*
X179559085Y-116351349D01*
G75*
G02*
X179523730Y-116290112I12941J48296D01*
G01*
X179756667Y-115420779D01*
G75*
G02*
X179817904Y-115385424I48296J-12941D01*
G01*
X180977015Y-115696007D01*
G75*
G02*
X181012370Y-115757244I-12941J-48296D01*
G01*
X180779433Y-116626577D01*
G75*
G02*
X180718196Y-116661932I-48296J12941D01*
G01*
G37*
G36*
G01*
X181572296Y-113474376D02*
X180413185Y-113163793D01*
G75*
G02*
X180377830Y-113102556I12941J48296D01*
G01*
X180610767Y-112233223D01*
G75*
G02*
X180672004Y-112197868I48296J-12941D01*
G01*
X181831115Y-112508451D01*
G75*
G02*
X181866470Y-112569688I-12941J-48296D01*
G01*
X181633533Y-113439021D01*
G75*
G02*
X181572296Y-113474376I-48296J12941D01*
G01*
G37*
G36*
G01*
X219834000Y-58770000D02*
X219834000Y-57570000D01*
G75*
G02*
X219884000Y-57520000I50000J0D01*
G01*
X220484000Y-57520000D01*
G75*
G02*
X220534000Y-57570000I0J-50000D01*
G01*
X220534000Y-58770000D01*
G75*
G02*
X220484000Y-58820000I-50000J0D01*
G01*
X219884000Y-58820000D01*
G75*
G02*
X219834000Y-58770000I0J50000D01*
G01*
G37*
X222324000Y-58170000D03*
G36*
G01*
X219834000Y-61310000D02*
X219834000Y-60110000D01*
G75*
G02*
X219884000Y-60060000I50000J0D01*
G01*
X220484000Y-60060000D01*
G75*
G02*
X220534000Y-60110000I0J-50000D01*
G01*
X220534000Y-61310000D01*
G75*
G02*
X220484000Y-61360000I-50000J0D01*
G01*
X219884000Y-61360000D01*
G75*
G02*
X219834000Y-61310000I0J50000D01*
G01*
G37*
X222324000Y-60710000D03*
G36*
G01*
X219834000Y-63850000D02*
X219834000Y-62650000D01*
G75*
G02*
X219884000Y-62600000I50000J0D01*
G01*
X220484000Y-62600000D01*
G75*
G02*
X220534000Y-62650000I0J-50000D01*
G01*
X220534000Y-63850000D01*
G75*
G02*
X220484000Y-63900000I-50000J0D01*
G01*
X219884000Y-63900000D01*
G75*
G02*
X219834000Y-63850000I0J50000D01*
G01*
G37*
X222324000Y-63250000D03*
G36*
G01*
X219834000Y-66390000D02*
X219834000Y-65190000D01*
G75*
G02*
X219884000Y-65140000I50000J0D01*
G01*
X220484000Y-65140000D01*
G75*
G02*
X220534000Y-65190000I0J-50000D01*
G01*
X220534000Y-66390000D01*
G75*
G02*
X220484000Y-66440000I-50000J0D01*
G01*
X219884000Y-66440000D01*
G75*
G02*
X219834000Y-66390000I0J50000D01*
G01*
G37*
X222324000Y-65790000D03*
G36*
G01*
X219834000Y-68930000D02*
X219834000Y-67730000D01*
G75*
G02*
X219884000Y-67680000I50000J0D01*
G01*
X220484000Y-67680000D01*
G75*
G02*
X220534000Y-67730000I0J-50000D01*
G01*
X220534000Y-68930000D01*
G75*
G02*
X220484000Y-68980000I-50000J0D01*
G01*
X219884000Y-68980000D01*
G75*
G02*
X219834000Y-68930000I0J50000D01*
G01*
G37*
X222324000Y-68330000D03*
G36*
G01*
X219834000Y-71470000D02*
X219834000Y-70270000D01*
G75*
G02*
X219884000Y-70220000I50000J0D01*
G01*
X220484000Y-70220000D01*
G75*
G02*
X220534000Y-70270000I0J-50000D01*
G01*
X220534000Y-71470000D01*
G75*
G02*
X220484000Y-71520000I-50000J0D01*
G01*
X219884000Y-71520000D01*
G75*
G02*
X219834000Y-71470000I0J50000D01*
G01*
G37*
X222324000Y-70870000D03*
G36*
G01*
X219834000Y-74010000D02*
X219834000Y-72810000D01*
G75*
G02*
X219884000Y-72760000I50000J0D01*
G01*
X220484000Y-72760000D01*
G75*
G02*
X220534000Y-72810000I0J-50000D01*
G01*
X220534000Y-74010000D01*
G75*
G02*
X220484000Y-74060000I-50000J0D01*
G01*
X219884000Y-74060000D01*
G75*
G02*
X219834000Y-74010000I0J50000D01*
G01*
G37*
X222324000Y-73410000D03*
G36*
G01*
X219834000Y-76550000D02*
X219834000Y-75350000D01*
G75*
G02*
X219884000Y-75300000I50000J0D01*
G01*
X220484000Y-75300000D01*
G75*
G02*
X220534000Y-75350000I0J-50000D01*
G01*
X220534000Y-76550000D01*
G75*
G02*
X220484000Y-76600000I-50000J0D01*
G01*
X219884000Y-76600000D01*
G75*
G02*
X219834000Y-76550000I0J50000D01*
G01*
G37*
X222324000Y-75950000D03*
G36*
G01*
X219834000Y-79090000D02*
X219834000Y-77890000D01*
G75*
G02*
X219884000Y-77840000I50000J0D01*
G01*
X220484000Y-77840000D01*
G75*
G02*
X220534000Y-77890000I0J-50000D01*
G01*
X220534000Y-79090000D01*
G75*
G02*
X220484000Y-79140000I-50000J0D01*
G01*
X219884000Y-79140000D01*
G75*
G02*
X219834000Y-79090000I0J50000D01*
G01*
G37*
X222324000Y-78490000D03*
G36*
G01*
X219834000Y-81630000D02*
X219834000Y-80430000D01*
G75*
G02*
X219884000Y-80380000I50000J0D01*
G01*
X220484000Y-80380000D01*
G75*
G02*
X220534000Y-80430000I0J-50000D01*
G01*
X220534000Y-81630000D01*
G75*
G02*
X220484000Y-81680000I-50000J0D01*
G01*
X219884000Y-81680000D01*
G75*
G02*
X219834000Y-81630000I0J50000D01*
G01*
G37*
X222324000Y-81030000D03*
G36*
G01*
X219834000Y-84170000D02*
X219834000Y-82970000D01*
G75*
G02*
X219884000Y-82920000I50000J0D01*
G01*
X220484000Y-82920000D01*
G75*
G02*
X220534000Y-82970000I0J-50000D01*
G01*
X220534000Y-84170000D01*
G75*
G02*
X220484000Y-84220000I-50000J0D01*
G01*
X219884000Y-84220000D01*
G75*
G02*
X219834000Y-84170000I0J50000D01*
G01*
G37*
X222324000Y-83570000D03*
G36*
G01*
X219834000Y-86710000D02*
X219834000Y-85510000D01*
G75*
G02*
X219884000Y-85460000I50000J0D01*
G01*
X220484000Y-85460000D01*
G75*
G02*
X220534000Y-85510000I0J-50000D01*
G01*
X220534000Y-86710000D01*
G75*
G02*
X220484000Y-86760000I-50000J0D01*
G01*
X219884000Y-86760000D01*
G75*
G02*
X219834000Y-86710000I0J50000D01*
G01*
G37*
X222324000Y-86110000D03*
X207084000Y-86110000D03*
G36*
G01*
X208874000Y-86710000D02*
X208874000Y-85510000D01*
G75*
G02*
X208924000Y-85460000I50000J0D01*
G01*
X209524000Y-85460000D01*
G75*
G02*
X209574000Y-85510000I0J-50000D01*
G01*
X209574000Y-86710000D01*
G75*
G02*
X209524000Y-86760000I-50000J0D01*
G01*
X208924000Y-86760000D01*
G75*
G02*
X208874000Y-86710000I0J50000D01*
G01*
G37*
X207084000Y-83570000D03*
G36*
G01*
X208874000Y-84170000D02*
X208874000Y-82970000D01*
G75*
G02*
X208924000Y-82920000I50000J0D01*
G01*
X209524000Y-82920000D01*
G75*
G02*
X209574000Y-82970000I0J-50000D01*
G01*
X209574000Y-84170000D01*
G75*
G02*
X209524000Y-84220000I-50000J0D01*
G01*
X208924000Y-84220000D01*
G75*
G02*
X208874000Y-84170000I0J50000D01*
G01*
G37*
X207084000Y-81030000D03*
G36*
G01*
X208874000Y-81630000D02*
X208874000Y-80430000D01*
G75*
G02*
X208924000Y-80380000I50000J0D01*
G01*
X209524000Y-80380000D01*
G75*
G02*
X209574000Y-80430000I0J-50000D01*
G01*
X209574000Y-81630000D01*
G75*
G02*
X209524000Y-81680000I-50000J0D01*
G01*
X208924000Y-81680000D01*
G75*
G02*
X208874000Y-81630000I0J50000D01*
G01*
G37*
X207084000Y-78490000D03*
G36*
G01*
X208874000Y-79090000D02*
X208874000Y-77890000D01*
G75*
G02*
X208924000Y-77840000I50000J0D01*
G01*
X209524000Y-77840000D01*
G75*
G02*
X209574000Y-77890000I0J-50000D01*
G01*
X209574000Y-79090000D01*
G75*
G02*
X209524000Y-79140000I-50000J0D01*
G01*
X208924000Y-79140000D01*
G75*
G02*
X208874000Y-79090000I0J50000D01*
G01*
G37*
X207084000Y-75950000D03*
G36*
G01*
X208874000Y-76550000D02*
X208874000Y-75350000D01*
G75*
G02*
X208924000Y-75300000I50000J0D01*
G01*
X209524000Y-75300000D01*
G75*
G02*
X209574000Y-75350000I0J-50000D01*
G01*
X209574000Y-76550000D01*
G75*
G02*
X209524000Y-76600000I-50000J0D01*
G01*
X208924000Y-76600000D01*
G75*
G02*
X208874000Y-76550000I0J50000D01*
G01*
G37*
X207084000Y-73410000D03*
G36*
G01*
X208874000Y-74010000D02*
X208874000Y-72810000D01*
G75*
G02*
X208924000Y-72760000I50000J0D01*
G01*
X209524000Y-72760000D01*
G75*
G02*
X209574000Y-72810000I0J-50000D01*
G01*
X209574000Y-74010000D01*
G75*
G02*
X209524000Y-74060000I-50000J0D01*
G01*
X208924000Y-74060000D01*
G75*
G02*
X208874000Y-74010000I0J50000D01*
G01*
G37*
X207084000Y-70870000D03*
G36*
G01*
X208874000Y-71470000D02*
X208874000Y-70270000D01*
G75*
G02*
X208924000Y-70220000I50000J0D01*
G01*
X209524000Y-70220000D01*
G75*
G02*
X209574000Y-70270000I0J-50000D01*
G01*
X209574000Y-71470000D01*
G75*
G02*
X209524000Y-71520000I-50000J0D01*
G01*
X208924000Y-71520000D01*
G75*
G02*
X208874000Y-71470000I0J50000D01*
G01*
G37*
X207084000Y-68330000D03*
G36*
G01*
X208874000Y-68930000D02*
X208874000Y-67730000D01*
G75*
G02*
X208924000Y-67680000I50000J0D01*
G01*
X209524000Y-67680000D01*
G75*
G02*
X209574000Y-67730000I0J-50000D01*
G01*
X209574000Y-68930000D01*
G75*
G02*
X209524000Y-68980000I-50000J0D01*
G01*
X208924000Y-68980000D01*
G75*
G02*
X208874000Y-68930000I0J50000D01*
G01*
G37*
X207084000Y-65790000D03*
G36*
G01*
X208874000Y-66390000D02*
X208874000Y-65190000D01*
G75*
G02*
X208924000Y-65140000I50000J0D01*
G01*
X209524000Y-65140000D01*
G75*
G02*
X209574000Y-65190000I0J-50000D01*
G01*
X209574000Y-66390000D01*
G75*
G02*
X209524000Y-66440000I-50000J0D01*
G01*
X208924000Y-66440000D01*
G75*
G02*
X208874000Y-66390000I0J50000D01*
G01*
G37*
X207084000Y-63250000D03*
G36*
G01*
X208874000Y-63850000D02*
X208874000Y-62650000D01*
G75*
G02*
X208924000Y-62600000I50000J0D01*
G01*
X209524000Y-62600000D01*
G75*
G02*
X209574000Y-62650000I0J-50000D01*
G01*
X209574000Y-63850000D01*
G75*
G02*
X209524000Y-63900000I-50000J0D01*
G01*
X208924000Y-63900000D01*
G75*
G02*
X208874000Y-63850000I0J50000D01*
G01*
G37*
X207084000Y-60710000D03*
G36*
G01*
X208874000Y-61310000D02*
X208874000Y-60110000D01*
G75*
G02*
X208924000Y-60060000I50000J0D01*
G01*
X209524000Y-60060000D01*
G75*
G02*
X209574000Y-60110000I0J-50000D01*
G01*
X209574000Y-61310000D01*
G75*
G02*
X209524000Y-61360000I-50000J0D01*
G01*
X208924000Y-61360000D01*
G75*
G02*
X208874000Y-61310000I0J50000D01*
G01*
G37*
X207084000Y-58170000D03*
G36*
G01*
X208874000Y-58770000D02*
X208874000Y-57570000D01*
G75*
G02*
X208924000Y-57520000I50000J0D01*
G01*
X209524000Y-57520000D01*
G75*
G02*
X209574000Y-57570000I0J-50000D01*
G01*
X209574000Y-58770000D01*
G75*
G02*
X209524000Y-58820000I-50000J0D01*
G01*
X208924000Y-58820000D01*
G75*
G02*
X208874000Y-58770000I0J50000D01*
G01*
G37*
D20*
X218104000Y-58170000D03*
G36*
G01*
X218934000Y-58770000D02*
X218934000Y-57570000D01*
G75*
G02*
X218984000Y-57520000I50000J0D01*
G01*
X219584000Y-57520000D01*
G75*
G02*
X219634000Y-57570000I0J-50000D01*
G01*
X219634000Y-58770000D01*
G75*
G02*
X219584000Y-58820000I-50000J0D01*
G01*
X218984000Y-58820000D01*
G75*
G02*
X218934000Y-58770000I0J50000D01*
G01*
G37*
X218104000Y-60710000D03*
G36*
G01*
X218934000Y-61310000D02*
X218934000Y-60110000D01*
G75*
G02*
X218984000Y-60060000I50000J0D01*
G01*
X219584000Y-60060000D01*
G75*
G02*
X219634000Y-60110000I0J-50000D01*
G01*
X219634000Y-61310000D01*
G75*
G02*
X219584000Y-61360000I-50000J0D01*
G01*
X218984000Y-61360000D01*
G75*
G02*
X218934000Y-61310000I0J50000D01*
G01*
G37*
X218104000Y-63250000D03*
G36*
G01*
X218934000Y-63850000D02*
X218934000Y-62650000D01*
G75*
G02*
X218984000Y-62600000I50000J0D01*
G01*
X219584000Y-62600000D01*
G75*
G02*
X219634000Y-62650000I0J-50000D01*
G01*
X219634000Y-63850000D01*
G75*
G02*
X219584000Y-63900000I-50000J0D01*
G01*
X218984000Y-63900000D01*
G75*
G02*
X218934000Y-63850000I0J50000D01*
G01*
G37*
X218104000Y-65790000D03*
G36*
G01*
X218934000Y-66390000D02*
X218934000Y-65190000D01*
G75*
G02*
X218984000Y-65140000I50000J0D01*
G01*
X219584000Y-65140000D01*
G75*
G02*
X219634000Y-65190000I0J-50000D01*
G01*
X219634000Y-66390000D01*
G75*
G02*
X219584000Y-66440000I-50000J0D01*
G01*
X218984000Y-66440000D01*
G75*
G02*
X218934000Y-66390000I0J50000D01*
G01*
G37*
X218104000Y-68330000D03*
G36*
G01*
X218934000Y-68930000D02*
X218934000Y-67730000D01*
G75*
G02*
X218984000Y-67680000I50000J0D01*
G01*
X219584000Y-67680000D01*
G75*
G02*
X219634000Y-67730000I0J-50000D01*
G01*
X219634000Y-68930000D01*
G75*
G02*
X219584000Y-68980000I-50000J0D01*
G01*
X218984000Y-68980000D01*
G75*
G02*
X218934000Y-68930000I0J50000D01*
G01*
G37*
X218104000Y-70870000D03*
G36*
G01*
X218934000Y-71470000D02*
X218934000Y-70270000D01*
G75*
G02*
X218984000Y-70220000I50000J0D01*
G01*
X219584000Y-70220000D01*
G75*
G02*
X219634000Y-70270000I0J-50000D01*
G01*
X219634000Y-71470000D01*
G75*
G02*
X219584000Y-71520000I-50000J0D01*
G01*
X218984000Y-71520000D01*
G75*
G02*
X218934000Y-71470000I0J50000D01*
G01*
G37*
X218104000Y-73410000D03*
G36*
G01*
X218934000Y-74010000D02*
X218934000Y-72810000D01*
G75*
G02*
X218984000Y-72760000I50000J0D01*
G01*
X219584000Y-72760000D01*
G75*
G02*
X219634000Y-72810000I0J-50000D01*
G01*
X219634000Y-74010000D01*
G75*
G02*
X219584000Y-74060000I-50000J0D01*
G01*
X218984000Y-74060000D01*
G75*
G02*
X218934000Y-74010000I0J50000D01*
G01*
G37*
X218104000Y-75950000D03*
G36*
G01*
X218934000Y-76550000D02*
X218934000Y-75350000D01*
G75*
G02*
X218984000Y-75300000I50000J0D01*
G01*
X219584000Y-75300000D01*
G75*
G02*
X219634000Y-75350000I0J-50000D01*
G01*
X219634000Y-76550000D01*
G75*
G02*
X219584000Y-76600000I-50000J0D01*
G01*
X218984000Y-76600000D01*
G75*
G02*
X218934000Y-76550000I0J50000D01*
G01*
G37*
X218104000Y-78490000D03*
G36*
G01*
X218934000Y-79090000D02*
X218934000Y-77890000D01*
G75*
G02*
X218984000Y-77840000I50000J0D01*
G01*
X219584000Y-77840000D01*
G75*
G02*
X219634000Y-77890000I0J-50000D01*
G01*
X219634000Y-79090000D01*
G75*
G02*
X219584000Y-79140000I-50000J0D01*
G01*
X218984000Y-79140000D01*
G75*
G02*
X218934000Y-79090000I0J50000D01*
G01*
G37*
X218104000Y-81030000D03*
G36*
G01*
X218934000Y-81630000D02*
X218934000Y-80430000D01*
G75*
G02*
X218984000Y-80380000I50000J0D01*
G01*
X219584000Y-80380000D01*
G75*
G02*
X219634000Y-80430000I0J-50000D01*
G01*
X219634000Y-81630000D01*
G75*
G02*
X219584000Y-81680000I-50000J0D01*
G01*
X218984000Y-81680000D01*
G75*
G02*
X218934000Y-81630000I0J50000D01*
G01*
G37*
X218104000Y-83570000D03*
G36*
G01*
X218934000Y-84170000D02*
X218934000Y-82970000D01*
G75*
G02*
X218984000Y-82920000I50000J0D01*
G01*
X219584000Y-82920000D01*
G75*
G02*
X219634000Y-82970000I0J-50000D01*
G01*
X219634000Y-84170000D01*
G75*
G02*
X219584000Y-84220000I-50000J0D01*
G01*
X218984000Y-84220000D01*
G75*
G02*
X218934000Y-84170000I0J50000D01*
G01*
G37*
X218104000Y-86110000D03*
G36*
G01*
X218934000Y-86710000D02*
X218934000Y-85510000D01*
G75*
G02*
X218984000Y-85460000I50000J0D01*
G01*
X219584000Y-85460000D01*
G75*
G02*
X219634000Y-85510000I0J-50000D01*
G01*
X219634000Y-86710000D01*
G75*
G02*
X219584000Y-86760000I-50000J0D01*
G01*
X218984000Y-86760000D01*
G75*
G02*
X218934000Y-86710000I0J50000D01*
G01*
G37*
G36*
G01*
X209774000Y-86710000D02*
X209774000Y-85510000D01*
G75*
G02*
X209824000Y-85460000I50000J0D01*
G01*
X210424000Y-85460000D01*
G75*
G02*
X210474000Y-85510000I0J-50000D01*
G01*
X210474000Y-86710000D01*
G75*
G02*
X210424000Y-86760000I-50000J0D01*
G01*
X209824000Y-86760000D01*
G75*
G02*
X209774000Y-86710000I0J50000D01*
G01*
G37*
X211304000Y-86110000D03*
G36*
G01*
X209774000Y-84170000D02*
X209774000Y-82970000D01*
G75*
G02*
X209824000Y-82920000I50000J0D01*
G01*
X210424000Y-82920000D01*
G75*
G02*
X210474000Y-82970000I0J-50000D01*
G01*
X210474000Y-84170000D01*
G75*
G02*
X210424000Y-84220000I-50000J0D01*
G01*
X209824000Y-84220000D01*
G75*
G02*
X209774000Y-84170000I0J50000D01*
G01*
G37*
X211304000Y-83570000D03*
G36*
G01*
X209774000Y-81630000D02*
X209774000Y-80430000D01*
G75*
G02*
X209824000Y-80380000I50000J0D01*
G01*
X210424000Y-80380000D01*
G75*
G02*
X210474000Y-80430000I0J-50000D01*
G01*
X210474000Y-81630000D01*
G75*
G02*
X210424000Y-81680000I-50000J0D01*
G01*
X209824000Y-81680000D01*
G75*
G02*
X209774000Y-81630000I0J50000D01*
G01*
G37*
X211304000Y-81030000D03*
G36*
G01*
X209774000Y-79090000D02*
X209774000Y-77890000D01*
G75*
G02*
X209824000Y-77840000I50000J0D01*
G01*
X210424000Y-77840000D01*
G75*
G02*
X210474000Y-77890000I0J-50000D01*
G01*
X210474000Y-79090000D01*
G75*
G02*
X210424000Y-79140000I-50000J0D01*
G01*
X209824000Y-79140000D01*
G75*
G02*
X209774000Y-79090000I0J50000D01*
G01*
G37*
X211304000Y-78490000D03*
G36*
G01*
X209774000Y-76550000D02*
X209774000Y-75350000D01*
G75*
G02*
X209824000Y-75300000I50000J0D01*
G01*
X210424000Y-75300000D01*
G75*
G02*
X210474000Y-75350000I0J-50000D01*
G01*
X210474000Y-76550000D01*
G75*
G02*
X210424000Y-76600000I-50000J0D01*
G01*
X209824000Y-76600000D01*
G75*
G02*
X209774000Y-76550000I0J50000D01*
G01*
G37*
X211304000Y-75950000D03*
G36*
G01*
X209774000Y-74010000D02*
X209774000Y-72810000D01*
G75*
G02*
X209824000Y-72760000I50000J0D01*
G01*
X210424000Y-72760000D01*
G75*
G02*
X210474000Y-72810000I0J-50000D01*
G01*
X210474000Y-74010000D01*
G75*
G02*
X210424000Y-74060000I-50000J0D01*
G01*
X209824000Y-74060000D01*
G75*
G02*
X209774000Y-74010000I0J50000D01*
G01*
G37*
X211304000Y-73410000D03*
G36*
G01*
X209774000Y-71470000D02*
X209774000Y-70270000D01*
G75*
G02*
X209824000Y-70220000I50000J0D01*
G01*
X210424000Y-70220000D01*
G75*
G02*
X210474000Y-70270000I0J-50000D01*
G01*
X210474000Y-71470000D01*
G75*
G02*
X210424000Y-71520000I-50000J0D01*
G01*
X209824000Y-71520000D01*
G75*
G02*
X209774000Y-71470000I0J50000D01*
G01*
G37*
X211304000Y-70870000D03*
G36*
G01*
X209774000Y-68930000D02*
X209774000Y-67730000D01*
G75*
G02*
X209824000Y-67680000I50000J0D01*
G01*
X210424000Y-67680000D01*
G75*
G02*
X210474000Y-67730000I0J-50000D01*
G01*
X210474000Y-68930000D01*
G75*
G02*
X210424000Y-68980000I-50000J0D01*
G01*
X209824000Y-68980000D01*
G75*
G02*
X209774000Y-68930000I0J50000D01*
G01*
G37*
X211304000Y-68330000D03*
G36*
G01*
X209774000Y-66390000D02*
X209774000Y-65190000D01*
G75*
G02*
X209824000Y-65140000I50000J0D01*
G01*
X210424000Y-65140000D01*
G75*
G02*
X210474000Y-65190000I0J-50000D01*
G01*
X210474000Y-66390000D01*
G75*
G02*
X210424000Y-66440000I-50000J0D01*
G01*
X209824000Y-66440000D01*
G75*
G02*
X209774000Y-66390000I0J50000D01*
G01*
G37*
X211304000Y-65790000D03*
G36*
G01*
X209774000Y-63850000D02*
X209774000Y-62650000D01*
G75*
G02*
X209824000Y-62600000I50000J0D01*
G01*
X210424000Y-62600000D01*
G75*
G02*
X210474000Y-62650000I0J-50000D01*
G01*
X210474000Y-63850000D01*
G75*
G02*
X210424000Y-63900000I-50000J0D01*
G01*
X209824000Y-63900000D01*
G75*
G02*
X209774000Y-63850000I0J50000D01*
G01*
G37*
X211304000Y-63250000D03*
G36*
G01*
X209774000Y-61310000D02*
X209774000Y-60110000D01*
G75*
G02*
X209824000Y-60060000I50000J0D01*
G01*
X210424000Y-60060000D01*
G75*
G02*
X210474000Y-60110000I0J-50000D01*
G01*
X210474000Y-61310000D01*
G75*
G02*
X210424000Y-61360000I-50000J0D01*
G01*
X209824000Y-61360000D01*
G75*
G02*
X209774000Y-61310000I0J50000D01*
G01*
G37*
X211304000Y-60710000D03*
G36*
G01*
X209774000Y-58770000D02*
X209774000Y-57570000D01*
G75*
G02*
X209824000Y-57520000I50000J0D01*
G01*
X210424000Y-57520000D01*
G75*
G02*
X210474000Y-57570000I0J-50000D01*
G01*
X210474000Y-58770000D01*
G75*
G02*
X210424000Y-58820000I-50000J0D01*
G01*
X209824000Y-58820000D01*
G75*
G02*
X209774000Y-58770000I0J50000D01*
G01*
G37*
X211304000Y-58170000D03*
D10*
X170920000Y-57250000D03*
D11*
X173460000Y-52170000D03*
D12*
X176000000Y-57250000D03*
D11*
X179810000Y-54710000D03*
D10*
X181080000Y-57250000D03*
G36*
G01*
X181760000Y-55960000D02*
X181760000Y-53460000D01*
G75*
G02*
X181810000Y-53410000I50000J0D01*
G01*
X184360000Y-53410000D01*
G75*
G02*
X184410000Y-53460000I0J-50000D01*
G01*
X184410000Y-55960000D01*
G75*
G02*
X184360000Y-56010000I-50000J0D01*
G01*
X181810000Y-56010000D01*
G75*
G02*
X181760000Y-55960000I0J50000D01*
G01*
G37*
G36*
G01*
X168833000Y-53420000D02*
X168833000Y-50920000D01*
G75*
G02*
X168883000Y-50870000I50000J0D01*
G01*
X171433000Y-50870000D01*
G75*
G02*
X171483000Y-50920000I0J-50000D01*
G01*
X171483000Y-53420000D01*
G75*
G02*
X171433000Y-53470000I-50000J0D01*
G01*
X168883000Y-53470000D01*
G75*
G02*
X168833000Y-53420000I0J50000D01*
G01*
G37*
X151920000Y-54875000D03*
D11*
X154460000Y-49795000D03*
D12*
X157000000Y-54875000D03*
D11*
X160810000Y-52335000D03*
D10*
X162080000Y-54875000D03*
G36*
G01*
X162760000Y-53585000D02*
X162760000Y-51085000D01*
G75*
G02*
X162810000Y-51035000I50000J0D01*
G01*
X165360000Y-51035000D01*
G75*
G02*
X165410000Y-51085000I0J-50000D01*
G01*
X165410000Y-53585000D01*
G75*
G02*
X165360000Y-53635000I-50000J0D01*
G01*
X162810000Y-53635000D01*
G75*
G02*
X162760000Y-53585000I0J50000D01*
G01*
G37*
G36*
G01*
X149833000Y-51045000D02*
X149833000Y-48545000D01*
G75*
G02*
X149883000Y-48495000I50000J0D01*
G01*
X152433000Y-48495000D01*
G75*
G02*
X152483000Y-48545000I0J-50000D01*
G01*
X152483000Y-51045000D01*
G75*
G02*
X152433000Y-51095000I-50000J0D01*
G01*
X149883000Y-51095000D01*
G75*
G02*
X149833000Y-51045000I0J50000D01*
G01*
G37*
X113920000Y-81000000D03*
D11*
X116460000Y-75920000D03*
D12*
X119000000Y-81000000D03*
D11*
X122810000Y-78460000D03*
D10*
X124080000Y-81000000D03*
G36*
G01*
X124760000Y-79710000D02*
X124760000Y-77210000D01*
G75*
G02*
X124810000Y-77160000I50000J0D01*
G01*
X127360000Y-77160000D01*
G75*
G02*
X127410000Y-77210000I0J-50000D01*
G01*
X127410000Y-79710000D01*
G75*
G02*
X127360000Y-79760000I-50000J0D01*
G01*
X124810000Y-79760000D01*
G75*
G02*
X124760000Y-79710000I0J50000D01*
G01*
G37*
G36*
G01*
X111833000Y-77170000D02*
X111833000Y-74670000D01*
G75*
G02*
X111883000Y-74620000I50000J0D01*
G01*
X114433000Y-74620000D01*
G75*
G02*
X114483000Y-74670000I0J-50000D01*
G01*
X114483000Y-77170000D01*
G75*
G02*
X114433000Y-77220000I-50000J0D01*
G01*
X111883000Y-77220000D01*
G75*
G02*
X111833000Y-77170000I0J50000D01*
G01*
G37*
G36*
G01*
X169200000Y-58075000D02*
X168000000Y-58075000D01*
G75*
G02*
X167950000Y-58025000I0J50000D01*
G01*
X167950000Y-57125000D01*
G75*
G02*
X168000000Y-57075000I50000J0D01*
G01*
X169200000Y-57075000D01*
G75*
G02*
X169250000Y-57125000I0J-50000D01*
G01*
X169250000Y-58025000D01*
G75*
G02*
X169200000Y-58075000I-50000J0D01*
G01*
G37*
G36*
G01*
X169200000Y-54775000D02*
X168000000Y-54775000D01*
G75*
G02*
X167950000Y-54725000I0J50000D01*
G01*
X167950000Y-53825000D01*
G75*
G02*
X168000000Y-53775000I50000J0D01*
G01*
X169200000Y-53775000D01*
G75*
G02*
X169250000Y-53825000I0J-50000D01*
G01*
X169250000Y-54725000D01*
G75*
G02*
X169200000Y-54775000I-50000J0D01*
G01*
G37*
G36*
G01*
X188200000Y-79450000D02*
X187000000Y-79450000D01*
G75*
G02*
X186950000Y-79400000I0J50000D01*
G01*
X186950000Y-78500000D01*
G75*
G02*
X187000000Y-78450000I50000J0D01*
G01*
X188200000Y-78450000D01*
G75*
G02*
X188250000Y-78500000I0J-50000D01*
G01*
X188250000Y-79400000D01*
G75*
G02*
X188200000Y-79450000I-50000J0D01*
G01*
G37*
G36*
G01*
X188200000Y-76150000D02*
X187000000Y-76150000D01*
G75*
G02*
X186950000Y-76100000I0J50000D01*
G01*
X186950000Y-75200000D01*
G75*
G02*
X187000000Y-75150000I50000J0D01*
G01*
X188200000Y-75150000D01*
G75*
G02*
X188250000Y-75200000I0J-50000D01*
G01*
X188250000Y-76100000D01*
G75*
G02*
X188200000Y-76150000I-50000J0D01*
G01*
G37*
G36*
G01*
X112200000Y-81825000D02*
X111000000Y-81825000D01*
G75*
G02*
X110950000Y-81775000I0J50000D01*
G01*
X110950000Y-80875000D01*
G75*
G02*
X111000000Y-80825000I50000J0D01*
G01*
X112200000Y-80825000D01*
G75*
G02*
X112250000Y-80875000I0J-50000D01*
G01*
X112250000Y-81775000D01*
G75*
G02*
X112200000Y-81825000I-50000J0D01*
G01*
G37*
G36*
G01*
X112200000Y-78525000D02*
X111000000Y-78525000D01*
G75*
G02*
X110950000Y-78475000I0J50000D01*
G01*
X110950000Y-77575000D01*
G75*
G02*
X111000000Y-77525000I50000J0D01*
G01*
X112200000Y-77525000D01*
G75*
G02*
X112250000Y-77575000I0J-50000D01*
G01*
X112250000Y-78475000D01*
G75*
G02*
X112200000Y-78525000I-50000J0D01*
G01*
G37*
D17*
X207762000Y-100476000D03*
D10*
X151920000Y-92875000D03*
D11*
X153190000Y-90335000D03*
D12*
X157000000Y-92875000D03*
D11*
X159540000Y-87795000D03*
D10*
X162080000Y-92875000D03*
X161420000Y-114875000D03*
D11*
X162690000Y-112335000D03*
D12*
X166500000Y-114875000D03*
D11*
X169040000Y-109795000D03*
D10*
X171580000Y-114875000D03*
X113920000Y-100000000D03*
D11*
X115190000Y-97460000D03*
D12*
X119000000Y-100000000D03*
D11*
X121540000Y-94920000D03*
D10*
X124080000Y-100000000D03*
X207206800Y-125788609D03*
D11*
X205642095Y-123418757D03*
D12*
X209746800Y-121389200D03*
D11*
X206617391Y-116649495D03*
D10*
X212286800Y-116989791D03*
X132920000Y-57250000D03*
D11*
X134190000Y-54710000D03*
D12*
X138000000Y-57250000D03*
D11*
X140540000Y-52170000D03*
D10*
X143080000Y-57250000D03*
X170920000Y-76250000D03*
D11*
X172190000Y-73710000D03*
D12*
X176000000Y-76250000D03*
D11*
X178540000Y-71170000D03*
D10*
X181080000Y-76250000D03*
X132920000Y-76250000D03*
D11*
X134190000Y-73710000D03*
D12*
X138000000Y-76250000D03*
D11*
X140540000Y-71170000D03*
D10*
X143080000Y-76250000D03*
X151920000Y-54875000D03*
D11*
X153190000Y-52335000D03*
D12*
X157000000Y-54875000D03*
D11*
X159540000Y-49795000D03*
D10*
X162080000Y-54875000D03*
X94920000Y-62000000D03*
D11*
X96190000Y-59460000D03*
D12*
X100000000Y-62000000D03*
D11*
X102540000Y-56920000D03*
D10*
X105080000Y-62000000D03*
X189920000Y-97625000D03*
D11*
X191190000Y-95085000D03*
D12*
X195000000Y-97625000D03*
D11*
X197540000Y-92545000D03*
D10*
X200080000Y-97625000D03*
X170920000Y-95250000D03*
D11*
X172190000Y-92710000D03*
D12*
X176000000Y-95250000D03*
D11*
X178540000Y-90170000D03*
D10*
X181080000Y-95250000D03*
X94920000Y-81000000D03*
D11*
X96190000Y-78460000D03*
D12*
X100000000Y-81000000D03*
D11*
X102540000Y-75920000D03*
D10*
X105080000Y-81000000D03*
X132920000Y-95250000D03*
D11*
X134190000Y-92710000D03*
D12*
X138000000Y-95250000D03*
D11*
X140540000Y-90170000D03*
D10*
X143080000Y-95250000D03*
X94920000Y-100000000D03*
D11*
X96190000Y-97460000D03*
D12*
X100000000Y-100000000D03*
D11*
X102540000Y-94920000D03*
D10*
X105080000Y-100000000D03*
X113920000Y-81000000D03*
D11*
X115190000Y-78460000D03*
D12*
X119000000Y-81000000D03*
D11*
X121540000Y-75920000D03*
D10*
X124080000Y-81000000D03*
X189920000Y-78625000D03*
D11*
X191190000Y-76085000D03*
D12*
X195000000Y-78625000D03*
D11*
X197540000Y-73545000D03*
D10*
X200080000Y-78625000D03*
X151920000Y-73875000D03*
D11*
X153190000Y-71335000D03*
D12*
X157000000Y-73875000D03*
D11*
X159540000Y-68795000D03*
D10*
X162080000Y-73875000D03*
X189920000Y-59625000D03*
D11*
X191190000Y-57085000D03*
D12*
X195000000Y-59625000D03*
D11*
X197540000Y-54545000D03*
D10*
X200080000Y-59625000D03*
X182593097Y-116310199D03*
D11*
X184477223Y-114185448D03*
D12*
X187500000Y-117625000D03*
D11*
X191268252Y-113375497D03*
D10*
X192406903Y-118939801D03*
X170920000Y-57250000D03*
D11*
X172190000Y-54710000D03*
D12*
X176000000Y-57250000D03*
D11*
X178540000Y-52170000D03*
D10*
X181080000Y-57250000D03*
X113920000Y-62000000D03*
D11*
X115190000Y-59460000D03*
D12*
X119000000Y-62000000D03*
D11*
X121540000Y-56920000D03*
D10*
X124080000Y-62000000D03*
M02*
