M48
; DRILL file {KiCad 8.0.8+1} date 2025-07-08T12:52:23+0000
; FORMAT={-:-/ absolute / metric / decimal}
; #@! TF.CreationDate,2025-07-08T12:52:23+00:00
; #@! TF.GenerationSoftware,Kicad,Pcbnew,8.0.8+1
; #@! TF.FileFunction,Plated,1,2,PTH
FMAT,2
METRIC
; #@! TA.AperFunction,Plated,PTH,ViaDrill
T1C0.300
; #@! TA.AperFunction,Plated,PTH,ComponentDrill
T2C0.400
; #@! TA.AperFunction,Plated,PTH,ComponentDrill
T3C0.750
; #@! TA.AperFunction,Plated,PTH,ComponentDrill
T4C1.000
%
G90
G05
T1
X101.998Y-64.067
X102.088Y-83.362
X103.413Y-68.126
X107.56Y-101.5
X109.92Y-62.196
X109.92Y-81.172
X126.085Y-73.622
X128.171Y-56.266
X128.171Y-94.77
X129.154Y-80.345
X131.167Y-62.325
X131.266Y-79.086
X134.144Y-100.701
X145.085Y-80.01
X146.051Y-66.503
X146.328Y-51.678
X147.21Y-76.59
X148.27Y-57.575
X149.028Y-96.327
X162.056Y-56.775
X163.362Y-95.151
X164.758Y-67.707
X164.792Y-56.699
X166.52Y-74.056
X167.478Y-95.564
X171.737Y-77.977
X172.561Y-116.455
X173.495Y-116.167
X183.93Y-51.053
X184.509Y-77.021
X184.749Y-97.777
X184.773Y-75.764
X187.479Y-58.917
X188.615Y-80.543
X195.001Y-111.906
X200.162Y-61.493
X202.085Y-88.882
X204.959Y-128.287
X209.043Y-64.52
X211.802Y-67.322
X211.953Y-124.552
X212.811Y-94.398
X213.415Y-93.088
X213.691Y-55.568
X213.788Y-74.427
X215.411Y-98.305
X215.813Y-92.216
X216.24Y-69.976
X216.541Y-71.667
X219.749Y-98.18
X220.249Y-94.812
X223.558Y-59.44
T2
X211.304Y-58.17
X211.304Y-60.71
X211.304Y-63.25
X211.304Y-65.79
X211.304Y-68.33
X211.304Y-70.87
X211.304Y-73.41
X211.304Y-75.95
X211.304Y-78.49
X211.304Y-81.03
X211.304Y-83.57
X211.304Y-86.11
X218.104Y-58.17
X218.104Y-60.71
X218.104Y-63.25
X218.104Y-65.79
X218.104Y-68.33
X218.104Y-70.87
X218.104Y-73.41
X218.104Y-75.95
X218.104Y-78.49
X218.104Y-81.03
X218.104Y-83.57
X218.104Y-86.11
T3
X211.75Y-96.75
X211.75Y-98.75
T4
X207.084Y-58.17
X207.084Y-60.71
X207.084Y-63.25
X207.084Y-65.79
X207.084Y-68.33
X207.084Y-70.87
X207.084Y-73.41
X207.084Y-75.95
X207.084Y-78.49
X207.084Y-81.03
X207.084Y-83.57
X207.084Y-86.11
X209.567Y-89.95
X212.107Y-89.95
X214.647Y-89.95
X217.187Y-89.95
X219.727Y-89.95
X222.324Y-58.17
X222.324Y-60.71
X222.324Y-63.25
X222.324Y-65.79
X222.324Y-68.33
X222.324Y-70.87
X222.324Y-73.41
X222.324Y-75.95
X222.324Y-78.49
X222.324Y-81.03
X222.324Y-83.57
X222.324Y-86.11
M30
