%TF.GenerationSoftware,KiCad,Pcbnew,8.0.8+1*%
%TF.CreationDate,2025-07-08T12:52:23+00:00*%
%TF.ProjectId,corney_island_wireless_autorouted,636f726e-6579-45f6-9973-6c616e645f77,0.2*%
%TF.SameCoordinates,Original*%
%TF.FileFunction,Drillmap*%
%TF.FilePolarity,Positive*%
%FSLAX45Y45*%
G04 Gerber Fmt 4.5, Leading zero omitted, Abs format (unit mm)*
G04 Created by KiCad (PCBNEW 8.0.8+1) date 2025-07-08 12:52:23*
%MOMM*%
%LPD*%
G01*
G04 APERTURE LIST*
%ADD10C,0.150000*%
%ADD11C,0.200000*%
%ADD12C,0.100000*%
%ADD13C,0.190000*%
%ADD14C,0.220000*%
%ADD15C,0.300000*%
%ADD16C,0.410000*%
%ADD17C,0.430000*%
G04 APERTURE END LIST*
D10*
X9158001Y-5298999D02*
X12858001Y-5298901D01*
X12958000Y-4824000D02*
X14758000Y-4824000D01*
X20408222Y-5123778D02*
X20408278Y-5249022D01*
X16608200Y-4648800D02*
X16608200Y-4774000D01*
X14658569Y-10924000D02*
X9158198Y-10924000D01*
X14808000Y-4774000D02*
X14808000Y-4648800D01*
X19493827Y-12882201D02*
X15777297Y-12397776D01*
X22476601Y-11356702D02*
X22451800Y-11399660D01*
X15743351Y-12377643D02*
X14698978Y-10944552D01*
X12908000Y-4874000D02*
G75*
G02*
X12958000Y-4824000I50000J0D01*
G01*
X21029051Y-13764140D02*
X19512364Y-12888480D01*
X14808000Y-4774000D02*
G75*
G02*
X14758000Y-4824000I-50000J0D01*
G01*
X22483300Y-5349000D02*
X22483300Y-11331702D01*
X18458200Y-4824000D02*
G75*
G02*
X18508200Y-4874000I0J-50000D01*
G01*
X12908000Y-5248901D02*
X12908000Y-4874000D01*
X18558200Y-5073800D02*
G75*
G02*
X18508200Y-5023800I0J50000D01*
G01*
X14858000Y-4598800D02*
X16558200Y-4598800D01*
X18558200Y-5073800D02*
X20358222Y-5073800D01*
X20458278Y-5299000D02*
G75*
G02*
X20408280Y-5249022I2J50000D01*
G01*
X19493827Y-12882201D02*
G75*
G02*
X19512364Y-12888480I-6477J-49619D01*
G01*
X14808000Y-4648800D02*
G75*
G02*
X14858000Y-4598800I50000J0D01*
G01*
X20458278Y-5299000D02*
X22433300Y-5299000D01*
X9108002Y-5349001D02*
G75*
G02*
X9158001Y-5298992I50008J1D01*
G01*
X12908000Y-5248901D02*
G75*
G02*
X12858001Y-5298900I-50000J1D01*
G01*
X16658200Y-4824000D02*
G75*
G02*
X16608200Y-4774000I0J50000D01*
G01*
X22433300Y-5299000D02*
G75*
G02*
X22483300Y-5349000I0J-50000D01*
G01*
X22483300Y-11331702D02*
G75*
G02*
X22476602Y-11356703I-50020J3D01*
G01*
X16658200Y-4824000D02*
X18458200Y-4824000D01*
X21097353Y-13745837D02*
G75*
G02*
X21029050Y-13764141I-43303J24997D01*
G01*
X20358222Y-5073800D02*
G75*
G02*
X20408220Y-5123778I-2J-50000D01*
G01*
X18508200Y-4874000D02*
X18508200Y-5023800D01*
X9158198Y-10924000D02*
G75*
G02*
X9108200Y-10874002I2J50000D01*
G01*
X14658569Y-10924000D02*
G75*
G02*
X14698978Y-10944552I1J-50000D01*
G01*
X15777297Y-12397776D02*
G75*
G02*
X15743353Y-12377642I6463J49576D01*
G01*
X9108198Y-10874002D02*
X9108002Y-5349001D01*
X22451800Y-11399660D02*
X21097353Y-13745837D01*
X16558200Y-4598800D02*
G75*
G02*
X16608200Y-4648800I0J-50000D01*
G01*
D11*
D12*
X21432900Y-5341500D02*
X21507900Y-5416500D01*
X21507900Y-5341500D02*
X21432900Y-5416500D01*
X21432900Y-5616500D02*
X21507900Y-5691500D01*
X21507900Y-5616500D02*
X21432900Y-5691500D01*
X22347500Y-9750000D02*
G75*
G02*
X22257500Y-9750000I-45000J0D01*
G01*
X22257500Y-9750000D02*
G75*
G02*
X22347500Y-9750000I45000J0D01*
G01*
X22347500Y-10050000D02*
G75*
G02*
X22257500Y-10050000I-45000J0D01*
G01*
X22257500Y-10050000D02*
G75*
G02*
X22347500Y-10050000I45000J0D01*
G01*
D13*
X9492000Y-6105000D02*
X9492000Y-6295000D01*
X9397000Y-6200000D02*
X9587000Y-6200000D01*
X9492000Y-6105000D02*
X9492000Y-6295000D01*
X9397000Y-6200000D02*
X9587000Y-6200000D01*
X9492000Y-8005000D02*
X9492000Y-8195000D01*
X9397000Y-8100000D02*
X9587000Y-8100000D01*
X9492000Y-8005000D02*
X9492000Y-8195000D01*
X9397000Y-8100000D02*
X9587000Y-8100000D01*
X9492000Y-9905000D02*
X9492000Y-10095000D01*
X9397000Y-10000000D02*
X9587000Y-10000000D01*
X9492000Y-9905000D02*
X9492000Y-10095000D01*
X9397000Y-10000000D02*
X9587000Y-10000000D01*
X10508000Y-6105000D02*
X10508000Y-6295000D01*
X10413000Y-6200000D02*
X10603000Y-6200000D01*
X10508000Y-6105000D02*
X10508000Y-6295000D01*
X10413000Y-6200000D02*
X10603000Y-6200000D01*
X10508000Y-8005000D02*
X10508000Y-8195000D01*
X10413000Y-8100000D02*
X10603000Y-8100000D01*
X10508000Y-8005000D02*
X10508000Y-8195000D01*
X10413000Y-8100000D02*
X10603000Y-8100000D01*
X10508000Y-9905000D02*
X10508000Y-10095000D01*
X10413000Y-10000000D02*
X10603000Y-10000000D01*
X10508000Y-9905000D02*
X10508000Y-10095000D01*
X10413000Y-10000000D02*
X10603000Y-10000000D01*
X11392000Y-6105000D02*
X11392000Y-6295000D01*
X11297000Y-6200000D02*
X11487000Y-6200000D01*
X11392000Y-6105000D02*
X11392000Y-6295000D01*
X11297000Y-6200000D02*
X11487000Y-6200000D01*
X11392000Y-8005000D02*
X11392000Y-8195000D01*
X11297000Y-8100000D02*
X11487000Y-8100000D01*
X11392000Y-8005000D02*
X11392000Y-8195000D01*
X11297000Y-8100000D02*
X11487000Y-8100000D01*
X11392000Y-9905000D02*
X11392000Y-10095000D01*
X11297000Y-10000000D02*
X11487000Y-10000000D01*
X11392000Y-9905000D02*
X11392000Y-10095000D01*
X11297000Y-10000000D02*
X11487000Y-10000000D01*
X12408000Y-6105000D02*
X12408000Y-6295000D01*
X12313000Y-6200000D02*
X12503000Y-6200000D01*
X12408000Y-6105000D02*
X12408000Y-6295000D01*
X12313000Y-6200000D02*
X12503000Y-6200000D01*
X12408000Y-8005000D02*
X12408000Y-8195000D01*
X12313000Y-8100000D02*
X12503000Y-8100000D01*
X12408000Y-8005000D02*
X12408000Y-8195000D01*
X12313000Y-8100000D02*
X12503000Y-8100000D01*
X12408000Y-9905000D02*
X12408000Y-10095000D01*
X12313000Y-10000000D02*
X12503000Y-10000000D01*
X12408000Y-9905000D02*
X12408000Y-10095000D01*
X12313000Y-10000000D02*
X12503000Y-10000000D01*
X13292000Y-5630000D02*
X13292000Y-5820000D01*
X13197000Y-5725000D02*
X13387000Y-5725000D01*
X13292000Y-5630000D02*
X13292000Y-5820000D01*
X13197000Y-5725000D02*
X13387000Y-5725000D01*
X13292000Y-7530000D02*
X13292000Y-7720000D01*
X13197000Y-7625000D02*
X13387000Y-7625000D01*
X13292000Y-7530000D02*
X13292000Y-7720000D01*
X13197000Y-7625000D02*
X13387000Y-7625000D01*
X13292000Y-9430000D02*
X13292000Y-9620000D01*
X13197000Y-9525000D02*
X13387000Y-9525000D01*
X13292000Y-9430000D02*
X13292000Y-9620000D01*
X13197000Y-9525000D02*
X13387000Y-9525000D01*
X14308000Y-5630000D02*
X14308000Y-5820000D01*
X14213000Y-5725000D02*
X14403000Y-5725000D01*
X14308000Y-5630000D02*
X14308000Y-5820000D01*
X14213000Y-5725000D02*
X14403000Y-5725000D01*
X14308000Y-7530000D02*
X14308000Y-7720000D01*
X14213000Y-7625000D02*
X14403000Y-7625000D01*
X14308000Y-7530000D02*
X14308000Y-7720000D01*
X14213000Y-7625000D02*
X14403000Y-7625000D01*
X14308000Y-9430000D02*
X14308000Y-9620000D01*
X14213000Y-9525000D02*
X14403000Y-9525000D01*
X14308000Y-9430000D02*
X14308000Y-9620000D01*
X14213000Y-9525000D02*
X14403000Y-9525000D01*
X15192000Y-5392500D02*
X15192000Y-5582500D01*
X15097000Y-5487500D02*
X15287000Y-5487500D01*
X15192000Y-5392500D02*
X15192000Y-5582500D01*
X15097000Y-5487500D02*
X15287000Y-5487500D01*
X15192000Y-7292500D02*
X15192000Y-7482500D01*
X15097000Y-7387500D02*
X15287000Y-7387500D01*
X15192000Y-7292500D02*
X15192000Y-7482500D01*
X15097000Y-7387500D02*
X15287000Y-7387500D01*
X15192000Y-9192500D02*
X15192000Y-9382500D01*
X15097000Y-9287500D02*
X15287000Y-9287500D01*
X15192000Y-9192500D02*
X15192000Y-9382500D01*
X15097000Y-9287500D02*
X15287000Y-9287500D01*
X16142000Y-11392500D02*
X16142000Y-11582500D01*
X16047000Y-11487500D02*
X16237000Y-11487500D01*
X16142000Y-11392500D02*
X16142000Y-11582500D01*
X16047000Y-11487500D02*
X16237000Y-11487500D01*
X16208000Y-5392500D02*
X16208000Y-5582500D01*
X16113000Y-5487500D02*
X16303000Y-5487500D01*
X16208000Y-5392500D02*
X16208000Y-5582500D01*
X16113000Y-5487500D02*
X16303000Y-5487500D01*
X16208000Y-7292500D02*
X16208000Y-7482500D01*
X16113000Y-7387500D02*
X16303000Y-7387500D01*
X16208000Y-7292500D02*
X16208000Y-7482500D01*
X16113000Y-7387500D02*
X16303000Y-7387500D01*
X16208000Y-9192500D02*
X16208000Y-9382500D01*
X16113000Y-9287500D02*
X16303000Y-9287500D01*
X16208000Y-9192500D02*
X16208000Y-9382500D01*
X16113000Y-9287500D02*
X16303000Y-9287500D01*
X17092000Y-5630000D02*
X17092000Y-5820000D01*
X16997000Y-5725000D02*
X17187000Y-5725000D01*
X17092000Y-5630000D02*
X17092000Y-5820000D01*
X16997000Y-5725000D02*
X17187000Y-5725000D01*
X17092000Y-7530000D02*
X17092000Y-7720000D01*
X16997000Y-7625000D02*
X17187000Y-7625000D01*
X17092000Y-7530000D02*
X17092000Y-7720000D01*
X16997000Y-7625000D02*
X17187000Y-7625000D01*
X17092000Y-9430000D02*
X17092000Y-9620000D01*
X16997000Y-9525000D02*
X17187000Y-9525000D01*
X17092000Y-9430000D02*
X17092000Y-9620000D01*
X16997000Y-9525000D02*
X17187000Y-9525000D01*
X17158000Y-11392500D02*
X17158000Y-11582500D01*
X17063000Y-11487500D02*
X17253000Y-11487500D01*
X17158000Y-11392500D02*
X17158000Y-11582500D01*
X17063000Y-11487500D02*
X17253000Y-11487500D01*
X18108000Y-5630000D02*
X18108000Y-5820000D01*
X18013000Y-5725000D02*
X18203000Y-5725000D01*
X18108000Y-5630000D02*
X18108000Y-5820000D01*
X18013000Y-5725000D02*
X18203000Y-5725000D01*
X18108000Y-7530000D02*
X18108000Y-7720000D01*
X18013000Y-7625000D02*
X18203000Y-7625000D01*
X18108000Y-7530000D02*
X18108000Y-7720000D01*
X18013000Y-7625000D02*
X18203000Y-7625000D01*
X18108000Y-9430000D02*
X18108000Y-9620000D01*
X18013000Y-9525000D02*
X18203000Y-9525000D01*
X18108000Y-9430000D02*
X18108000Y-9620000D01*
X18013000Y-9525000D02*
X18203000Y-9525000D01*
X18259310Y-11536020D02*
X18259310Y-11726020D01*
X18164310Y-11631020D02*
X18354310Y-11631020D01*
X18259310Y-11536020D02*
X18259310Y-11726020D01*
X18164310Y-11631020D02*
X18354310Y-11631020D01*
X18992000Y-5867500D02*
X18992000Y-6057500D01*
X18897000Y-5962500D02*
X19087000Y-5962500D01*
X18992000Y-5867500D02*
X18992000Y-6057500D01*
X18897000Y-5962500D02*
X19087000Y-5962500D01*
X18992000Y-7767500D02*
X18992000Y-7957500D01*
X18897000Y-7862500D02*
X19087000Y-7862500D01*
X18992000Y-7767500D02*
X18992000Y-7957500D01*
X18897000Y-7862500D02*
X19087000Y-7862500D01*
X18992000Y-9667500D02*
X18992000Y-9857500D01*
X18897000Y-9762500D02*
X19087000Y-9762500D01*
X18992000Y-9667500D02*
X18992000Y-9857500D01*
X18897000Y-9762500D02*
X19087000Y-9762500D01*
X19240690Y-11798980D02*
X19240690Y-11988980D01*
X19145690Y-11893980D02*
X19335690Y-11893980D01*
X19240690Y-11798980D02*
X19240690Y-11988980D01*
X19145690Y-11893980D02*
X19335690Y-11893980D01*
X20008000Y-5867500D02*
X20008000Y-6057500D01*
X19913000Y-5962500D02*
X20103000Y-5962500D01*
X20008000Y-5867500D02*
X20008000Y-6057500D01*
X19913000Y-5962500D02*
X20103000Y-5962500D01*
X20008000Y-7767500D02*
X20008000Y-7957500D01*
X19913000Y-7862500D02*
X20103000Y-7862500D01*
X20008000Y-7767500D02*
X20008000Y-7957500D01*
X19913000Y-7862500D02*
X20103000Y-7862500D01*
X20008000Y-9667500D02*
X20008000Y-9857500D01*
X19913000Y-9762500D02*
X20103000Y-9762500D01*
X20008000Y-9667500D02*
X20008000Y-9857500D01*
X19913000Y-9762500D02*
X20103000Y-9762500D01*
X20720680Y-12483861D02*
X20720680Y-12673861D01*
X20625680Y-12578861D02*
X20815680Y-12578861D01*
X20720680Y-12483861D02*
X20720680Y-12673861D01*
X20625680Y-12578861D02*
X20815680Y-12578861D01*
X21228680Y-11603979D02*
X21228680Y-11793979D01*
X21133680Y-11698979D02*
X21323680Y-11698979D01*
X21228680Y-11603979D02*
X21228680Y-11793979D01*
X21133680Y-11698979D02*
X21323680Y-11698979D01*
D14*
X20853983Y-10125383D02*
X20853983Y-9969818D01*
X20698418Y-9969818D01*
X20698418Y-10125383D01*
X20853983Y-10125383D01*
X22297183Y-10977283D02*
X22297183Y-10821718D01*
X22141618Y-10821718D01*
X22141618Y-10977283D01*
X22297183Y-10977283D01*
D15*
X9619000Y-6096000D02*
X9769000Y-5946000D01*
X9619000Y-5796000D01*
X9469000Y-5946000D01*
X9619000Y-6096000D01*
X9619000Y-7996000D02*
X9769000Y-7846000D01*
X9619000Y-7696000D01*
X9469000Y-7846000D01*
X9619000Y-7996000D01*
X9619000Y-9896000D02*
X9769000Y-9746000D01*
X9619000Y-9596000D01*
X9469000Y-9746000D01*
X9619000Y-9896000D01*
X9746000Y-5842000D02*
X9896000Y-5692000D01*
X9746000Y-5542000D01*
X9596000Y-5692000D01*
X9746000Y-5842000D01*
X9746000Y-7742000D02*
X9896000Y-7592000D01*
X9746000Y-7442000D01*
X9596000Y-7592000D01*
X9746000Y-7742000D01*
X9746000Y-9642000D02*
X9896000Y-9492000D01*
X9746000Y-9342000D01*
X9596000Y-9492000D01*
X9746000Y-9642000D01*
X10254000Y-5842000D02*
X10404000Y-5692000D01*
X10254000Y-5542000D01*
X10104000Y-5692000D01*
X10254000Y-5842000D01*
X10254000Y-7742000D02*
X10404000Y-7592000D01*
X10254000Y-7442000D01*
X10104000Y-7592000D01*
X10254000Y-7742000D01*
X10254000Y-9642000D02*
X10404000Y-9492000D01*
X10254000Y-9342000D01*
X10104000Y-9492000D01*
X10254000Y-9642000D01*
X10381000Y-6096000D02*
X10531000Y-5946000D01*
X10381000Y-5796000D01*
X10231000Y-5946000D01*
X10381000Y-6096000D01*
X10381000Y-7996000D02*
X10531000Y-7846000D01*
X10381000Y-7696000D01*
X10231000Y-7846000D01*
X10381000Y-7996000D01*
X10381000Y-9896000D02*
X10531000Y-9746000D01*
X10381000Y-9596000D01*
X10231000Y-9746000D01*
X10381000Y-9896000D01*
X11519000Y-6096000D02*
X11669000Y-5946000D01*
X11519000Y-5796000D01*
X11369000Y-5946000D01*
X11519000Y-6096000D01*
X11519000Y-7996000D02*
X11669000Y-7846000D01*
X11519000Y-7696000D01*
X11369000Y-7846000D01*
X11519000Y-7996000D01*
X11519000Y-9896000D02*
X11669000Y-9746000D01*
X11519000Y-9596000D01*
X11369000Y-9746000D01*
X11519000Y-9896000D01*
X11646000Y-5842000D02*
X11796000Y-5692000D01*
X11646000Y-5542000D01*
X11496000Y-5692000D01*
X11646000Y-5842000D01*
X11646000Y-7742000D02*
X11796000Y-7592000D01*
X11646000Y-7442000D01*
X11496000Y-7592000D01*
X11646000Y-7742000D01*
X11646000Y-9642000D02*
X11796000Y-9492000D01*
X11646000Y-9342000D01*
X11496000Y-9492000D01*
X11646000Y-9642000D01*
X12154000Y-5842000D02*
X12304000Y-5692000D01*
X12154000Y-5542000D01*
X12004000Y-5692000D01*
X12154000Y-5842000D01*
X12154000Y-7742000D02*
X12304000Y-7592000D01*
X12154000Y-7442000D01*
X12004000Y-7592000D01*
X12154000Y-7742000D01*
X12154000Y-9642000D02*
X12304000Y-9492000D01*
X12154000Y-9342000D01*
X12004000Y-9492000D01*
X12154000Y-9642000D01*
X12281000Y-6096000D02*
X12431000Y-5946000D01*
X12281000Y-5796000D01*
X12131000Y-5946000D01*
X12281000Y-6096000D01*
X12281000Y-7996000D02*
X12431000Y-7846000D01*
X12281000Y-7696000D01*
X12131000Y-7846000D01*
X12281000Y-7996000D01*
X12281000Y-9896000D02*
X12431000Y-9746000D01*
X12281000Y-9596000D01*
X12131000Y-9746000D01*
X12281000Y-9896000D01*
X13419000Y-5621000D02*
X13569000Y-5471000D01*
X13419000Y-5321000D01*
X13269000Y-5471000D01*
X13419000Y-5621000D01*
X13419000Y-7521000D02*
X13569000Y-7371000D01*
X13419000Y-7221000D01*
X13269000Y-7371000D01*
X13419000Y-7521000D01*
X13419000Y-9421000D02*
X13569000Y-9271000D01*
X13419000Y-9121000D01*
X13269000Y-9271000D01*
X13419000Y-9421000D01*
X13546000Y-5367000D02*
X13696000Y-5217000D01*
X13546000Y-5067000D01*
X13396000Y-5217000D01*
X13546000Y-5367000D01*
X13546000Y-7267000D02*
X13696000Y-7117000D01*
X13546000Y-6967000D01*
X13396000Y-7117000D01*
X13546000Y-7267000D01*
X13546000Y-9167000D02*
X13696000Y-9017000D01*
X13546000Y-8867000D01*
X13396000Y-9017000D01*
X13546000Y-9167000D01*
X14054000Y-5367000D02*
X14204000Y-5217000D01*
X14054000Y-5067000D01*
X13904000Y-5217000D01*
X14054000Y-5367000D01*
X14054000Y-7267000D02*
X14204000Y-7117000D01*
X14054000Y-6967000D01*
X13904000Y-7117000D01*
X14054000Y-7267000D01*
X14054000Y-9167000D02*
X14204000Y-9017000D01*
X14054000Y-8867000D01*
X13904000Y-9017000D01*
X14054000Y-9167000D01*
X14181000Y-5621000D02*
X14331000Y-5471000D01*
X14181000Y-5321000D01*
X14031000Y-5471000D01*
X14181000Y-5621000D01*
X14181000Y-7521000D02*
X14331000Y-7371000D01*
X14181000Y-7221000D01*
X14031000Y-7371000D01*
X14181000Y-7521000D01*
X14181000Y-9421000D02*
X14331000Y-9271000D01*
X14181000Y-9121000D01*
X14031000Y-9271000D01*
X14181000Y-9421000D01*
X15319000Y-5383500D02*
X15469000Y-5233500D01*
X15319000Y-5083500D01*
X15169000Y-5233500D01*
X15319000Y-5383500D01*
X15319000Y-7283500D02*
X15469000Y-7133500D01*
X15319000Y-6983500D01*
X15169000Y-7133500D01*
X15319000Y-7283500D01*
X15319000Y-9183500D02*
X15469000Y-9033500D01*
X15319000Y-8883500D01*
X15169000Y-9033500D01*
X15319000Y-9183500D01*
X15446000Y-5129500D02*
X15596000Y-4979500D01*
X15446000Y-4829500D01*
X15296000Y-4979500D01*
X15446000Y-5129500D01*
X15446000Y-7029500D02*
X15596000Y-6879500D01*
X15446000Y-6729500D01*
X15296000Y-6879500D01*
X15446000Y-7029500D01*
X15446000Y-8929500D02*
X15596000Y-8779500D01*
X15446000Y-8629500D01*
X15296000Y-8779500D01*
X15446000Y-8929500D01*
X15954000Y-5129500D02*
X16104000Y-4979500D01*
X15954000Y-4829500D01*
X15804000Y-4979500D01*
X15954000Y-5129500D01*
X15954000Y-7029500D02*
X16104000Y-6879500D01*
X15954000Y-6729500D01*
X15804000Y-6879500D01*
X15954000Y-7029500D01*
X15954000Y-8929500D02*
X16104000Y-8779500D01*
X15954000Y-8629500D01*
X15804000Y-8779500D01*
X15954000Y-8929500D01*
X16081000Y-5383500D02*
X16231000Y-5233500D01*
X16081000Y-5083500D01*
X15931000Y-5233500D01*
X16081000Y-5383500D01*
X16081000Y-7283500D02*
X16231000Y-7133500D01*
X16081000Y-6983500D01*
X15931000Y-7133500D01*
X16081000Y-7283500D01*
X16081000Y-9183500D02*
X16231000Y-9033500D01*
X16081000Y-8883500D01*
X15931000Y-9033500D01*
X16081000Y-9183500D01*
X16269000Y-11383500D02*
X16419000Y-11233500D01*
X16269000Y-11083500D01*
X16119000Y-11233500D01*
X16269000Y-11383500D01*
X16396000Y-11129500D02*
X16546000Y-10979500D01*
X16396000Y-10829500D01*
X16246000Y-10979500D01*
X16396000Y-11129500D01*
X16904000Y-11129500D02*
X17054000Y-10979500D01*
X16904000Y-10829500D01*
X16754000Y-10979500D01*
X16904000Y-11129500D01*
X17031000Y-11383500D02*
X17181000Y-11233500D01*
X17031000Y-11083500D01*
X16881000Y-11233500D01*
X17031000Y-11383500D01*
X17219000Y-5621000D02*
X17369000Y-5471000D01*
X17219000Y-5321000D01*
X17069000Y-5471000D01*
X17219000Y-5621000D01*
X17219000Y-7521000D02*
X17369000Y-7371000D01*
X17219000Y-7221000D01*
X17069000Y-7371000D01*
X17219000Y-7521000D01*
X17219000Y-9421000D02*
X17369000Y-9271000D01*
X17219000Y-9121000D01*
X17069000Y-9271000D01*
X17219000Y-9421000D01*
X17346000Y-5367000D02*
X17496000Y-5217000D01*
X17346000Y-5067000D01*
X17196000Y-5217000D01*
X17346000Y-5367000D01*
X17346000Y-7267000D02*
X17496000Y-7117000D01*
X17346000Y-6967000D01*
X17196000Y-7117000D01*
X17346000Y-7267000D01*
X17346000Y-9167000D02*
X17496000Y-9017000D01*
X17346000Y-8867000D01*
X17196000Y-9017000D01*
X17346000Y-9167000D01*
X17854000Y-5367000D02*
X18004000Y-5217000D01*
X17854000Y-5067000D01*
X17704000Y-5217000D01*
X17854000Y-5367000D01*
X17854000Y-7267000D02*
X18004000Y-7117000D01*
X17854000Y-6967000D01*
X17704000Y-7117000D01*
X17854000Y-7267000D01*
X17854000Y-9167000D02*
X18004000Y-9017000D01*
X17854000Y-8867000D01*
X17704000Y-9017000D01*
X17854000Y-9167000D01*
X17981000Y-5621000D02*
X18131000Y-5471000D01*
X17981000Y-5321000D01*
X17831000Y-5471000D01*
X17981000Y-5621000D01*
X17981000Y-7521000D02*
X18131000Y-7371000D01*
X17981000Y-7221000D01*
X17831000Y-7371000D01*
X17981000Y-7521000D01*
X17981000Y-9421000D02*
X18131000Y-9271000D01*
X17981000Y-9121000D01*
X17831000Y-9271000D01*
X17981000Y-9421000D01*
X18447722Y-11568545D02*
X18597722Y-11418545D01*
X18447722Y-11268545D01*
X18297722Y-11418545D01*
X18447722Y-11568545D01*
X18636135Y-11356070D02*
X18786135Y-11206070D01*
X18636135Y-11056070D01*
X18486135Y-11206070D01*
X18636135Y-11356070D01*
X19119000Y-5858500D02*
X19269000Y-5708500D01*
X19119000Y-5558500D01*
X18969000Y-5708500D01*
X19119000Y-5858500D01*
X19119000Y-7758500D02*
X19269000Y-7608500D01*
X19119000Y-7458500D01*
X18969000Y-7608500D01*
X19119000Y-7758500D01*
X19119000Y-9658500D02*
X19269000Y-9508500D01*
X19119000Y-9358500D01*
X18969000Y-9508500D01*
X19119000Y-9658500D01*
X19126825Y-11487550D02*
X19276825Y-11337550D01*
X19126825Y-11187550D01*
X18976825Y-11337550D01*
X19126825Y-11487550D01*
X19183758Y-11765765D02*
X19333758Y-11615765D01*
X19183758Y-11465765D01*
X19033758Y-11615765D01*
X19183758Y-11765765D01*
X19246000Y-5604500D02*
X19396000Y-5454500D01*
X19246000Y-5304500D01*
X19096000Y-5454500D01*
X19246000Y-5604500D01*
X19246000Y-7504500D02*
X19396000Y-7354500D01*
X19246000Y-7204500D01*
X19096000Y-7354500D01*
X19246000Y-7504500D01*
X19246000Y-9404500D02*
X19396000Y-9254500D01*
X19246000Y-9104500D01*
X19096000Y-9254500D01*
X19246000Y-9404500D01*
X19754000Y-5604500D02*
X19904000Y-5454500D01*
X19754000Y-5304500D01*
X19604000Y-5454500D01*
X19754000Y-5604500D01*
X19754000Y-7504500D02*
X19904000Y-7354500D01*
X19754000Y-7204500D01*
X19604000Y-7354500D01*
X19754000Y-7504500D01*
X19754000Y-9404500D02*
X19904000Y-9254500D01*
X19754000Y-9104500D01*
X19604000Y-9254500D01*
X19754000Y-9404500D01*
X19881000Y-5858500D02*
X20031000Y-5708500D01*
X19881000Y-5558500D01*
X19731000Y-5708500D01*
X19881000Y-5858500D01*
X19881000Y-7758500D02*
X20031000Y-7608500D01*
X19881000Y-7458500D01*
X19731000Y-7608500D01*
X19881000Y-7758500D01*
X19881000Y-9658500D02*
X20031000Y-9508500D01*
X19881000Y-9358500D01*
X19731000Y-9508500D01*
X19881000Y-9658500D01*
X20407739Y-12254890D02*
X20557739Y-12104890D01*
X20407739Y-11954890D01*
X20257739Y-12104890D01*
X20407739Y-12254890D01*
X20564210Y-12491876D02*
X20714210Y-12341876D01*
X20564210Y-12191876D01*
X20414210Y-12341876D01*
X20564210Y-12491876D01*
X20661739Y-11814949D02*
X20811739Y-11664949D01*
X20661739Y-11514949D01*
X20511739Y-11664949D01*
X20661739Y-11814949D01*
X20945210Y-11831964D02*
X21095210Y-11681964D01*
X20945210Y-11531964D01*
X20795210Y-11681964D01*
X20945210Y-11831964D01*
D16*
X9795000Y-5995000D02*
X10205000Y-6405000D01*
X10205000Y-5995000D02*
X9795000Y-6405000D01*
X10205000Y-6200000D02*
G75*
G02*
X9795000Y-6200000I-205000J0D01*
G01*
X9795000Y-6200000D02*
G75*
G02*
X10205000Y-6200000I205000J0D01*
G01*
X9795000Y-5995000D02*
X10205000Y-6405000D01*
X10205000Y-5995000D02*
X9795000Y-6405000D01*
X10205000Y-6200000D02*
G75*
G02*
X9795000Y-6200000I-205000J0D01*
G01*
X9795000Y-6200000D02*
G75*
G02*
X10205000Y-6200000I205000J0D01*
G01*
X9795000Y-7895000D02*
X10205000Y-8305000D01*
X10205000Y-7895000D02*
X9795000Y-8305000D01*
X10205000Y-8100000D02*
G75*
G02*
X9795000Y-8100000I-205000J0D01*
G01*
X9795000Y-8100000D02*
G75*
G02*
X10205000Y-8100000I205000J0D01*
G01*
X9795000Y-7895000D02*
X10205000Y-8305000D01*
X10205000Y-7895000D02*
X9795000Y-8305000D01*
X10205000Y-8100000D02*
G75*
G02*
X9795000Y-8100000I-205000J0D01*
G01*
X9795000Y-8100000D02*
G75*
G02*
X10205000Y-8100000I205000J0D01*
G01*
X9795000Y-9795000D02*
X10205000Y-10205000D01*
X10205000Y-9795000D02*
X9795000Y-10205000D01*
X10205000Y-10000000D02*
G75*
G02*
X9795000Y-10000000I-205000J0D01*
G01*
X9795000Y-10000000D02*
G75*
G02*
X10205000Y-10000000I205000J0D01*
G01*
X9795000Y-9795000D02*
X10205000Y-10205000D01*
X10205000Y-9795000D02*
X9795000Y-10205000D01*
X10205000Y-10000000D02*
G75*
G02*
X9795000Y-10000000I-205000J0D01*
G01*
X9795000Y-10000000D02*
G75*
G02*
X10205000Y-10000000I205000J0D01*
G01*
X11695000Y-5995000D02*
X12105000Y-6405000D01*
X12105000Y-5995000D02*
X11695000Y-6405000D01*
X12105000Y-6200000D02*
G75*
G02*
X11695000Y-6200000I-205000J0D01*
G01*
X11695000Y-6200000D02*
G75*
G02*
X12105000Y-6200000I205000J0D01*
G01*
X11695000Y-5995000D02*
X12105000Y-6405000D01*
X12105000Y-5995000D02*
X11695000Y-6405000D01*
X12105000Y-6200000D02*
G75*
G02*
X11695000Y-6200000I-205000J0D01*
G01*
X11695000Y-6200000D02*
G75*
G02*
X12105000Y-6200000I205000J0D01*
G01*
X11695000Y-7895000D02*
X12105000Y-8305000D01*
X12105000Y-7895000D02*
X11695000Y-8305000D01*
X12105000Y-8100000D02*
G75*
G02*
X11695000Y-8100000I-205000J0D01*
G01*
X11695000Y-8100000D02*
G75*
G02*
X12105000Y-8100000I205000J0D01*
G01*
X11695000Y-7895000D02*
X12105000Y-8305000D01*
X12105000Y-7895000D02*
X11695000Y-8305000D01*
X12105000Y-8100000D02*
G75*
G02*
X11695000Y-8100000I-205000J0D01*
G01*
X11695000Y-8100000D02*
G75*
G02*
X12105000Y-8100000I205000J0D01*
G01*
X11695000Y-9795000D02*
X12105000Y-10205000D01*
X12105000Y-9795000D02*
X11695000Y-10205000D01*
X12105000Y-10000000D02*
G75*
G02*
X11695000Y-10000000I-205000J0D01*
G01*
X11695000Y-10000000D02*
G75*
G02*
X12105000Y-10000000I205000J0D01*
G01*
X11695000Y-9795000D02*
X12105000Y-10205000D01*
X12105000Y-9795000D02*
X11695000Y-10205000D01*
X12105000Y-10000000D02*
G75*
G02*
X11695000Y-10000000I-205000J0D01*
G01*
X11695000Y-10000000D02*
G75*
G02*
X12105000Y-10000000I205000J0D01*
G01*
X13595000Y-5520000D02*
X14005000Y-5930000D01*
X14005000Y-5520000D02*
X13595000Y-5930000D01*
X14005000Y-5725000D02*
G75*
G02*
X13595000Y-5725000I-205000J0D01*
G01*
X13595000Y-5725000D02*
G75*
G02*
X14005000Y-5725000I205000J0D01*
G01*
X13595000Y-5520000D02*
X14005000Y-5930000D01*
X14005000Y-5520000D02*
X13595000Y-5930000D01*
X14005000Y-5725000D02*
G75*
G02*
X13595000Y-5725000I-205000J0D01*
G01*
X13595000Y-5725000D02*
G75*
G02*
X14005000Y-5725000I205000J0D01*
G01*
X13595000Y-7420000D02*
X14005000Y-7830000D01*
X14005000Y-7420000D02*
X13595000Y-7830000D01*
X14005000Y-7625000D02*
G75*
G02*
X13595000Y-7625000I-205000J0D01*
G01*
X13595000Y-7625000D02*
G75*
G02*
X14005000Y-7625000I205000J0D01*
G01*
X13595000Y-7420000D02*
X14005000Y-7830000D01*
X14005000Y-7420000D02*
X13595000Y-7830000D01*
X14005000Y-7625000D02*
G75*
G02*
X13595000Y-7625000I-205000J0D01*
G01*
X13595000Y-7625000D02*
G75*
G02*
X14005000Y-7625000I205000J0D01*
G01*
X13595000Y-9320000D02*
X14005000Y-9730000D01*
X14005000Y-9320000D02*
X13595000Y-9730000D01*
X14005000Y-9525000D02*
G75*
G02*
X13595000Y-9525000I-205000J0D01*
G01*
X13595000Y-9525000D02*
G75*
G02*
X14005000Y-9525000I205000J0D01*
G01*
X13595000Y-9320000D02*
X14005000Y-9730000D01*
X14005000Y-9320000D02*
X13595000Y-9730000D01*
X14005000Y-9525000D02*
G75*
G02*
X13595000Y-9525000I-205000J0D01*
G01*
X13595000Y-9525000D02*
G75*
G02*
X14005000Y-9525000I205000J0D01*
G01*
X15495000Y-5282500D02*
X15905000Y-5692500D01*
X15905000Y-5282500D02*
X15495000Y-5692500D01*
X15905000Y-5487500D02*
G75*
G02*
X15495000Y-5487500I-205000J0D01*
G01*
X15495000Y-5487500D02*
G75*
G02*
X15905000Y-5487500I205000J0D01*
G01*
X15495000Y-5282500D02*
X15905000Y-5692500D01*
X15905000Y-5282500D02*
X15495000Y-5692500D01*
X15905000Y-5487500D02*
G75*
G02*
X15495000Y-5487500I-205000J0D01*
G01*
X15495000Y-5487500D02*
G75*
G02*
X15905000Y-5487500I205000J0D01*
G01*
X15495000Y-7182500D02*
X15905000Y-7592500D01*
X15905000Y-7182500D02*
X15495000Y-7592500D01*
X15905000Y-7387500D02*
G75*
G02*
X15495000Y-7387500I-205000J0D01*
G01*
X15495000Y-7387500D02*
G75*
G02*
X15905000Y-7387500I205000J0D01*
G01*
X15495000Y-7182500D02*
X15905000Y-7592500D01*
X15905000Y-7182500D02*
X15495000Y-7592500D01*
X15905000Y-7387500D02*
G75*
G02*
X15495000Y-7387500I-205000J0D01*
G01*
X15495000Y-7387500D02*
G75*
G02*
X15905000Y-7387500I205000J0D01*
G01*
X15495000Y-9082500D02*
X15905000Y-9492500D01*
X15905000Y-9082500D02*
X15495000Y-9492500D01*
X15905000Y-9287500D02*
G75*
G02*
X15495000Y-9287500I-205000J0D01*
G01*
X15495000Y-9287500D02*
G75*
G02*
X15905000Y-9287500I205000J0D01*
G01*
X15495000Y-9082500D02*
X15905000Y-9492500D01*
X15905000Y-9082500D02*
X15495000Y-9492500D01*
X15905000Y-9287500D02*
G75*
G02*
X15495000Y-9287500I-205000J0D01*
G01*
X15495000Y-9287500D02*
G75*
G02*
X15905000Y-9287500I205000J0D01*
G01*
X16445000Y-11282500D02*
X16855000Y-11692500D01*
X16855000Y-11282500D02*
X16445000Y-11692500D01*
X16855000Y-11487500D02*
G75*
G02*
X16445000Y-11487500I-205000J0D01*
G01*
X16445000Y-11487500D02*
G75*
G02*
X16855000Y-11487500I205000J0D01*
G01*
X16445000Y-11282500D02*
X16855000Y-11692500D01*
X16855000Y-11282500D02*
X16445000Y-11692500D01*
X16855000Y-11487500D02*
G75*
G02*
X16445000Y-11487500I-205000J0D01*
G01*
X16445000Y-11487500D02*
G75*
G02*
X16855000Y-11487500I205000J0D01*
G01*
X17395000Y-5520000D02*
X17805000Y-5930000D01*
X17805000Y-5520000D02*
X17395000Y-5930000D01*
X17805000Y-5725000D02*
G75*
G02*
X17395000Y-5725000I-205000J0D01*
G01*
X17395000Y-5725000D02*
G75*
G02*
X17805000Y-5725000I205000J0D01*
G01*
X17395000Y-5520000D02*
X17805000Y-5930000D01*
X17805000Y-5520000D02*
X17395000Y-5930000D01*
X17805000Y-5725000D02*
G75*
G02*
X17395000Y-5725000I-205000J0D01*
G01*
X17395000Y-5725000D02*
G75*
G02*
X17805000Y-5725000I205000J0D01*
G01*
X17395000Y-7420000D02*
X17805000Y-7830000D01*
X17805000Y-7420000D02*
X17395000Y-7830000D01*
X17805000Y-7625000D02*
G75*
G02*
X17395000Y-7625000I-205000J0D01*
G01*
X17395000Y-7625000D02*
G75*
G02*
X17805000Y-7625000I205000J0D01*
G01*
X17395000Y-7420000D02*
X17805000Y-7830000D01*
X17805000Y-7420000D02*
X17395000Y-7830000D01*
X17805000Y-7625000D02*
G75*
G02*
X17395000Y-7625000I-205000J0D01*
G01*
X17395000Y-7625000D02*
G75*
G02*
X17805000Y-7625000I205000J0D01*
G01*
X17395000Y-9320000D02*
X17805000Y-9730000D01*
X17805000Y-9320000D02*
X17395000Y-9730000D01*
X17805000Y-9525000D02*
G75*
G02*
X17395000Y-9525000I-205000J0D01*
G01*
X17395000Y-9525000D02*
G75*
G02*
X17805000Y-9525000I205000J0D01*
G01*
X17395000Y-9320000D02*
X17805000Y-9730000D01*
X17805000Y-9320000D02*
X17395000Y-9730000D01*
X17805000Y-9525000D02*
G75*
G02*
X17395000Y-9525000I-205000J0D01*
G01*
X17395000Y-9525000D02*
G75*
G02*
X17805000Y-9525000I205000J0D01*
G01*
X18545000Y-11557500D02*
X18955000Y-11967500D01*
X18955000Y-11557500D02*
X18545000Y-11967500D01*
X18955000Y-11762500D02*
G75*
G02*
X18545000Y-11762500I-205000J0D01*
G01*
X18545000Y-11762500D02*
G75*
G02*
X18955000Y-11762500I205000J0D01*
G01*
X18545000Y-11557500D02*
X18955000Y-11967500D01*
X18955000Y-11557500D02*
X18545000Y-11967500D01*
X18955000Y-11762500D02*
G75*
G02*
X18545000Y-11762500I-205000J0D01*
G01*
X18545000Y-11762500D02*
G75*
G02*
X18955000Y-11762500I205000J0D01*
G01*
X19295000Y-5757500D02*
X19705000Y-6167500D01*
X19705000Y-5757500D02*
X19295000Y-6167500D01*
X19705000Y-5962500D02*
G75*
G02*
X19295000Y-5962500I-205000J0D01*
G01*
X19295000Y-5962500D02*
G75*
G02*
X19705000Y-5962500I205000J0D01*
G01*
X19295000Y-5757500D02*
X19705000Y-6167500D01*
X19705000Y-5757500D02*
X19295000Y-6167500D01*
X19705000Y-5962500D02*
G75*
G02*
X19295000Y-5962500I-205000J0D01*
G01*
X19295000Y-5962500D02*
G75*
G02*
X19705000Y-5962500I205000J0D01*
G01*
X19295000Y-7657500D02*
X19705000Y-8067500D01*
X19705000Y-7657500D02*
X19295000Y-8067500D01*
X19705000Y-7862500D02*
G75*
G02*
X19295000Y-7862500I-205000J0D01*
G01*
X19295000Y-7862500D02*
G75*
G02*
X19705000Y-7862500I205000J0D01*
G01*
X19295000Y-7657500D02*
X19705000Y-8067500D01*
X19705000Y-7657500D02*
X19295000Y-8067500D01*
X19705000Y-7862500D02*
G75*
G02*
X19295000Y-7862500I-205000J0D01*
G01*
X19295000Y-7862500D02*
G75*
G02*
X19705000Y-7862500I205000J0D01*
G01*
X19295000Y-9557500D02*
X19705000Y-9967500D01*
X19705000Y-9557500D02*
X19295000Y-9967500D01*
X19705000Y-9762500D02*
G75*
G02*
X19295000Y-9762500I-205000J0D01*
G01*
X19295000Y-9762500D02*
G75*
G02*
X19705000Y-9762500I205000J0D01*
G01*
X19295000Y-9557500D02*
X19705000Y-9967500D01*
X19705000Y-9557500D02*
X19295000Y-9967500D01*
X19705000Y-9762500D02*
G75*
G02*
X19295000Y-9762500I-205000J0D01*
G01*
X19295000Y-9762500D02*
G75*
G02*
X19705000Y-9762500I205000J0D01*
G01*
X20769680Y-11933920D02*
X21179680Y-12343920D01*
X21179680Y-11933920D02*
X20769680Y-12343920D01*
X21179680Y-12138920D02*
G75*
G02*
X20769680Y-12138920I-205000J0D01*
G01*
X20769680Y-12138920D02*
G75*
G02*
X21179680Y-12138920I205000J0D01*
G01*
X20769680Y-11933920D02*
X21179680Y-12343920D01*
X21179680Y-11933920D02*
X20769680Y-12343920D01*
X21179680Y-12138920D02*
G75*
G02*
X20769680Y-12138920I-205000J0D01*
G01*
X20769680Y-12138920D02*
G75*
G02*
X21179680Y-12138920I205000J0D01*
G01*
D17*
X10735000Y-6935000D02*
X11165000Y-7365000D01*
X11165000Y-6935000D02*
X10735000Y-7365000D01*
X10950000Y-6935000D02*
X10950000Y-7365000D01*
X10735000Y-7150000D02*
X11165000Y-7150000D01*
X10735000Y-8835000D02*
X11165000Y-9265000D01*
X11165000Y-8835000D02*
X10735000Y-9265000D01*
X10950000Y-8835000D02*
X10950000Y-9265000D01*
X10735000Y-9050000D02*
X11165000Y-9050000D01*
X15050700Y-10559000D02*
X15480700Y-10989000D01*
X15480700Y-10559000D02*
X15050700Y-10989000D01*
X15265700Y-10559000D02*
X15265700Y-10989000D01*
X15050700Y-10774000D02*
X15480700Y-10774000D01*
X18331800Y-6583600D02*
X18761800Y-7013600D01*
X18761800Y-6583600D02*
X18331800Y-7013600D01*
X18546800Y-6583600D02*
X18546800Y-7013600D01*
X18331800Y-6798600D02*
X18761800Y-6798600D01*
X19709110Y-11317370D02*
X20139110Y-11747370D01*
X20139110Y-11317370D02*
X19709110Y-11747370D01*
X19924110Y-11317370D02*
X19924110Y-11747370D01*
X19709110Y-11532370D02*
X20139110Y-11532370D01*
D11*
X9361279Y-14089824D02*
X9361279Y-13889824D01*
X9361279Y-13889824D02*
X9408898Y-13889824D01*
X9408898Y-13889824D02*
X9437469Y-13899348D01*
X9437469Y-13899348D02*
X9456517Y-13918395D01*
X9456517Y-13918395D02*
X9466041Y-13937443D01*
X9466041Y-13937443D02*
X9475564Y-13975538D01*
X9475564Y-13975538D02*
X9475564Y-14004109D01*
X9475564Y-14004109D02*
X9466041Y-14042205D01*
X9466041Y-14042205D02*
X9456517Y-14061252D01*
X9456517Y-14061252D02*
X9437469Y-14080300D01*
X9437469Y-14080300D02*
X9408898Y-14089824D01*
X9408898Y-14089824D02*
X9361279Y-14089824D01*
X9561279Y-14089824D02*
X9561279Y-13956490D01*
X9561279Y-13994586D02*
X9570802Y-13975538D01*
X9570802Y-13975538D02*
X9580326Y-13966014D01*
X9580326Y-13966014D02*
X9599374Y-13956490D01*
X9599374Y-13956490D02*
X9618422Y-13956490D01*
X9685088Y-14089824D02*
X9685088Y-13956490D01*
X9685088Y-13889824D02*
X9675564Y-13899348D01*
X9675564Y-13899348D02*
X9685088Y-13908871D01*
X9685088Y-13908871D02*
X9694612Y-13899348D01*
X9694612Y-13899348D02*
X9685088Y-13889824D01*
X9685088Y-13889824D02*
X9685088Y-13908871D01*
X9808898Y-14089824D02*
X9789850Y-14080300D01*
X9789850Y-14080300D02*
X9780326Y-14061252D01*
X9780326Y-14061252D02*
X9780326Y-13889824D01*
X9913660Y-14089824D02*
X9894612Y-14080300D01*
X9894612Y-14080300D02*
X9885088Y-14061252D01*
X9885088Y-14061252D02*
X9885088Y-13889824D01*
X10142231Y-14089824D02*
X10142231Y-13889824D01*
X10142231Y-13889824D02*
X10208898Y-14032681D01*
X10208898Y-14032681D02*
X10275564Y-13889824D01*
X10275564Y-13889824D02*
X10275564Y-14089824D01*
X10456517Y-14089824D02*
X10456517Y-13985062D01*
X10456517Y-13985062D02*
X10446993Y-13966014D01*
X10446993Y-13966014D02*
X10427945Y-13956490D01*
X10427945Y-13956490D02*
X10389850Y-13956490D01*
X10389850Y-13956490D02*
X10370802Y-13966014D01*
X10456517Y-14080300D02*
X10437469Y-14089824D01*
X10437469Y-14089824D02*
X10389850Y-14089824D01*
X10389850Y-14089824D02*
X10370802Y-14080300D01*
X10370802Y-14080300D02*
X10361279Y-14061252D01*
X10361279Y-14061252D02*
X10361279Y-14042205D01*
X10361279Y-14042205D02*
X10370802Y-14023157D01*
X10370802Y-14023157D02*
X10389850Y-14013633D01*
X10389850Y-14013633D02*
X10437469Y-14013633D01*
X10437469Y-14013633D02*
X10456517Y-14004109D01*
X10551755Y-13956490D02*
X10551755Y-14156490D01*
X10551755Y-13966014D02*
X10570802Y-13956490D01*
X10570802Y-13956490D02*
X10608898Y-13956490D01*
X10608898Y-13956490D02*
X10627945Y-13966014D01*
X10627945Y-13966014D02*
X10637469Y-13975538D01*
X10637469Y-13975538D02*
X10646993Y-13994586D01*
X10646993Y-13994586D02*
X10646993Y-14051728D01*
X10646993Y-14051728D02*
X10637469Y-14070776D01*
X10637469Y-14070776D02*
X10627945Y-14080300D01*
X10627945Y-14080300D02*
X10608898Y-14089824D01*
X10608898Y-14089824D02*
X10570802Y-14089824D01*
X10570802Y-14089824D02*
X10551755Y-14080300D01*
X10732707Y-14070776D02*
X10742231Y-14080300D01*
X10742231Y-14080300D02*
X10732707Y-14089824D01*
X10732707Y-14089824D02*
X10723183Y-14080300D01*
X10723183Y-14080300D02*
X10732707Y-14070776D01*
X10732707Y-14070776D02*
X10732707Y-14089824D01*
X10732707Y-13966014D02*
X10742231Y-13975538D01*
X10742231Y-13975538D02*
X10732707Y-13985062D01*
X10732707Y-13985062D02*
X10723183Y-13975538D01*
X10723183Y-13975538D02*
X10732707Y-13966014D01*
X10732707Y-13966014D02*
X10732707Y-13985062D01*
D12*
X9025502Y-14380840D02*
X9100502Y-14455840D01*
X9100502Y-14380840D02*
X9025502Y-14455840D01*
D11*
X9399374Y-14309824D02*
X9418422Y-14309824D01*
X9418422Y-14309824D02*
X9437469Y-14319348D01*
X9437469Y-14319348D02*
X9446993Y-14328871D01*
X9446993Y-14328871D02*
X9456517Y-14347919D01*
X9456517Y-14347919D02*
X9466041Y-14386014D01*
X9466041Y-14386014D02*
X9466041Y-14433633D01*
X9466041Y-14433633D02*
X9456517Y-14471728D01*
X9456517Y-14471728D02*
X9446993Y-14490776D01*
X9446993Y-14490776D02*
X9437469Y-14500300D01*
X9437469Y-14500300D02*
X9418422Y-14509824D01*
X9418422Y-14509824D02*
X9399374Y-14509824D01*
X9399374Y-14509824D02*
X9380326Y-14500300D01*
X9380326Y-14500300D02*
X9370802Y-14490776D01*
X9370802Y-14490776D02*
X9361279Y-14471728D01*
X9361279Y-14471728D02*
X9351755Y-14433633D01*
X9351755Y-14433633D02*
X9351755Y-14386014D01*
X9351755Y-14386014D02*
X9361279Y-14347919D01*
X9361279Y-14347919D02*
X9370802Y-14328871D01*
X9370802Y-14328871D02*
X9380326Y-14319348D01*
X9380326Y-14319348D02*
X9399374Y-14309824D01*
X9551755Y-14490776D02*
X9561279Y-14500300D01*
X9561279Y-14500300D02*
X9551755Y-14509824D01*
X9551755Y-14509824D02*
X9542231Y-14500300D01*
X9542231Y-14500300D02*
X9551755Y-14490776D01*
X9551755Y-14490776D02*
X9551755Y-14509824D01*
X9627945Y-14309824D02*
X9761279Y-14309824D01*
X9761279Y-14309824D02*
X9675564Y-14509824D01*
X9932707Y-14309824D02*
X9837469Y-14309824D01*
X9837469Y-14309824D02*
X9827945Y-14405062D01*
X9827945Y-14405062D02*
X9837469Y-14395538D01*
X9837469Y-14395538D02*
X9856517Y-14386014D01*
X9856517Y-14386014D02*
X9904136Y-14386014D01*
X9904136Y-14386014D02*
X9923183Y-14395538D01*
X9923183Y-14395538D02*
X9932707Y-14405062D01*
X9932707Y-14405062D02*
X9942231Y-14424109D01*
X9942231Y-14424109D02*
X9942231Y-14471728D01*
X9942231Y-14471728D02*
X9932707Y-14490776D01*
X9932707Y-14490776D02*
X9923183Y-14500300D01*
X9923183Y-14500300D02*
X9904136Y-14509824D01*
X9904136Y-14509824D02*
X9856517Y-14509824D01*
X9856517Y-14509824D02*
X9837469Y-14500300D01*
X9837469Y-14500300D02*
X9827945Y-14490776D01*
X10066041Y-14309824D02*
X10085088Y-14309824D01*
X10085088Y-14309824D02*
X10104136Y-14319348D01*
X10104136Y-14319348D02*
X10113660Y-14328871D01*
X10113660Y-14328871D02*
X10123183Y-14347919D01*
X10123183Y-14347919D02*
X10132707Y-14386014D01*
X10132707Y-14386014D02*
X10132707Y-14433633D01*
X10132707Y-14433633D02*
X10123183Y-14471728D01*
X10123183Y-14471728D02*
X10113660Y-14490776D01*
X10113660Y-14490776D02*
X10104136Y-14500300D01*
X10104136Y-14500300D02*
X10085088Y-14509824D01*
X10085088Y-14509824D02*
X10066041Y-14509824D01*
X10066041Y-14509824D02*
X10046993Y-14500300D01*
X10046993Y-14500300D02*
X10037469Y-14490776D01*
X10037469Y-14490776D02*
X10027945Y-14471728D01*
X10027945Y-14471728D02*
X10018422Y-14433633D01*
X10018422Y-14433633D02*
X10018422Y-14386014D01*
X10018422Y-14386014D02*
X10027945Y-14347919D01*
X10027945Y-14347919D02*
X10037469Y-14328871D01*
X10037469Y-14328871D02*
X10046993Y-14319348D01*
X10046993Y-14319348D02*
X10066041Y-14309824D01*
X10218422Y-14509824D02*
X10218422Y-14376490D01*
X10218422Y-14395538D02*
X10227945Y-14386014D01*
X10227945Y-14386014D02*
X10246993Y-14376490D01*
X10246993Y-14376490D02*
X10275564Y-14376490D01*
X10275564Y-14376490D02*
X10294612Y-14386014D01*
X10294612Y-14386014D02*
X10304136Y-14405062D01*
X10304136Y-14405062D02*
X10304136Y-14509824D01*
X10304136Y-14405062D02*
X10313660Y-14386014D01*
X10313660Y-14386014D02*
X10332707Y-14376490D01*
X10332707Y-14376490D02*
X10361279Y-14376490D01*
X10361279Y-14376490D02*
X10380326Y-14386014D01*
X10380326Y-14386014D02*
X10389850Y-14405062D01*
X10389850Y-14405062D02*
X10389850Y-14509824D01*
X10485088Y-14509824D02*
X10485088Y-14376490D01*
X10485088Y-14395538D02*
X10494612Y-14386014D01*
X10494612Y-14386014D02*
X10513660Y-14376490D01*
X10513660Y-14376490D02*
X10542231Y-14376490D01*
X10542231Y-14376490D02*
X10561279Y-14386014D01*
X10561279Y-14386014D02*
X10570803Y-14405062D01*
X10570803Y-14405062D02*
X10570803Y-14509824D01*
X10570803Y-14405062D02*
X10580326Y-14386014D01*
X10580326Y-14386014D02*
X10599374Y-14376490D01*
X10599374Y-14376490D02*
X10627945Y-14376490D01*
X10627945Y-14376490D02*
X10646993Y-14386014D01*
X10646993Y-14386014D02*
X10656517Y-14405062D01*
X10656517Y-14405062D02*
X10656517Y-14509824D01*
X11046993Y-14300300D02*
X10875565Y-14557443D01*
X11304136Y-14309824D02*
X11323184Y-14309824D01*
X11323184Y-14309824D02*
X11342231Y-14319348D01*
X11342231Y-14319348D02*
X11351755Y-14328871D01*
X11351755Y-14328871D02*
X11361279Y-14347919D01*
X11361279Y-14347919D02*
X11370803Y-14386014D01*
X11370803Y-14386014D02*
X11370803Y-14433633D01*
X11370803Y-14433633D02*
X11361279Y-14471728D01*
X11361279Y-14471728D02*
X11351755Y-14490776D01*
X11351755Y-14490776D02*
X11342231Y-14500300D01*
X11342231Y-14500300D02*
X11323184Y-14509824D01*
X11323184Y-14509824D02*
X11304136Y-14509824D01*
X11304136Y-14509824D02*
X11285088Y-14500300D01*
X11285088Y-14500300D02*
X11275564Y-14490776D01*
X11275564Y-14490776D02*
X11266041Y-14471728D01*
X11266041Y-14471728D02*
X11256517Y-14433633D01*
X11256517Y-14433633D02*
X11256517Y-14386014D01*
X11256517Y-14386014D02*
X11266041Y-14347919D01*
X11266041Y-14347919D02*
X11275564Y-14328871D01*
X11275564Y-14328871D02*
X11285088Y-14319348D01*
X11285088Y-14319348D02*
X11304136Y-14309824D01*
X11456517Y-14490776D02*
X11466041Y-14500300D01*
X11466041Y-14500300D02*
X11456517Y-14509824D01*
X11456517Y-14509824D02*
X11446993Y-14500300D01*
X11446993Y-14500300D02*
X11456517Y-14490776D01*
X11456517Y-14490776D02*
X11456517Y-14509824D01*
X11589850Y-14309824D02*
X11608898Y-14309824D01*
X11608898Y-14309824D02*
X11627945Y-14319348D01*
X11627945Y-14319348D02*
X11637469Y-14328871D01*
X11637469Y-14328871D02*
X11646993Y-14347919D01*
X11646993Y-14347919D02*
X11656517Y-14386014D01*
X11656517Y-14386014D02*
X11656517Y-14433633D01*
X11656517Y-14433633D02*
X11646993Y-14471728D01*
X11646993Y-14471728D02*
X11637469Y-14490776D01*
X11637469Y-14490776D02*
X11627945Y-14500300D01*
X11627945Y-14500300D02*
X11608898Y-14509824D01*
X11608898Y-14509824D02*
X11589850Y-14509824D01*
X11589850Y-14509824D02*
X11570803Y-14500300D01*
X11570803Y-14500300D02*
X11561279Y-14490776D01*
X11561279Y-14490776D02*
X11551755Y-14471728D01*
X11551755Y-14471728D02*
X11542231Y-14433633D01*
X11542231Y-14433633D02*
X11542231Y-14386014D01*
X11542231Y-14386014D02*
X11551755Y-14347919D01*
X11551755Y-14347919D02*
X11561279Y-14328871D01*
X11561279Y-14328871D02*
X11570803Y-14319348D01*
X11570803Y-14319348D02*
X11589850Y-14309824D01*
X11732707Y-14328871D02*
X11742231Y-14319348D01*
X11742231Y-14319348D02*
X11761279Y-14309824D01*
X11761279Y-14309824D02*
X11808898Y-14309824D01*
X11808898Y-14309824D02*
X11827945Y-14319348D01*
X11827945Y-14319348D02*
X11837469Y-14328871D01*
X11837469Y-14328871D02*
X11846993Y-14347919D01*
X11846993Y-14347919D02*
X11846993Y-14366967D01*
X11846993Y-14366967D02*
X11837469Y-14395538D01*
X11837469Y-14395538D02*
X11723184Y-14509824D01*
X11723184Y-14509824D02*
X11846993Y-14509824D01*
X11942231Y-14509824D02*
X11980326Y-14509824D01*
X11980326Y-14509824D02*
X11999374Y-14500300D01*
X11999374Y-14500300D02*
X12008898Y-14490776D01*
X12008898Y-14490776D02*
X12027945Y-14462205D01*
X12027945Y-14462205D02*
X12037469Y-14424109D01*
X12037469Y-14424109D02*
X12037469Y-14347919D01*
X12037469Y-14347919D02*
X12027945Y-14328871D01*
X12027945Y-14328871D02*
X12018422Y-14319348D01*
X12018422Y-14319348D02*
X11999374Y-14309824D01*
X11999374Y-14309824D02*
X11961279Y-14309824D01*
X11961279Y-14309824D02*
X11942231Y-14319348D01*
X11942231Y-14319348D02*
X11932707Y-14328871D01*
X11932707Y-14328871D02*
X11923184Y-14347919D01*
X11923184Y-14347919D02*
X11923184Y-14395538D01*
X11923184Y-14395538D02*
X11932707Y-14414586D01*
X11932707Y-14414586D02*
X11942231Y-14424109D01*
X11942231Y-14424109D02*
X11961279Y-14433633D01*
X11961279Y-14433633D02*
X11999374Y-14433633D01*
X11999374Y-14433633D02*
X12018422Y-14424109D01*
X12018422Y-14424109D02*
X12027945Y-14414586D01*
X12027945Y-14414586D02*
X12037469Y-14395538D01*
X12218422Y-14309824D02*
X12123184Y-14309824D01*
X12123184Y-14309824D02*
X12113660Y-14405062D01*
X12113660Y-14405062D02*
X12123184Y-14395538D01*
X12123184Y-14395538D02*
X12142231Y-14386014D01*
X12142231Y-14386014D02*
X12189850Y-14386014D01*
X12189850Y-14386014D02*
X12208898Y-14395538D01*
X12208898Y-14395538D02*
X12218422Y-14405062D01*
X12218422Y-14405062D02*
X12227945Y-14424109D01*
X12227945Y-14424109D02*
X12227945Y-14471728D01*
X12227945Y-14471728D02*
X12218422Y-14490776D01*
X12218422Y-14490776D02*
X12208898Y-14500300D01*
X12208898Y-14500300D02*
X12189850Y-14509824D01*
X12189850Y-14509824D02*
X12142231Y-14509824D01*
X12142231Y-14509824D02*
X12123184Y-14500300D01*
X12123184Y-14500300D02*
X12113660Y-14490776D01*
X12304136Y-14309824D02*
X12304136Y-14347919D01*
X12380326Y-14309824D02*
X12380326Y-14347919D01*
X12675565Y-14586014D02*
X12666041Y-14576490D01*
X12666041Y-14576490D02*
X12646993Y-14547919D01*
X12646993Y-14547919D02*
X12637469Y-14528871D01*
X12637469Y-14528871D02*
X12627946Y-14500300D01*
X12627946Y-14500300D02*
X12618422Y-14452681D01*
X12618422Y-14452681D02*
X12618422Y-14414586D01*
X12618422Y-14414586D02*
X12627946Y-14366967D01*
X12627946Y-14366967D02*
X12637469Y-14338395D01*
X12637469Y-14338395D02*
X12646993Y-14319348D01*
X12646993Y-14319348D02*
X12666041Y-14290776D01*
X12666041Y-14290776D02*
X12675565Y-14281252D01*
X12742231Y-14328871D02*
X12751755Y-14319348D01*
X12751755Y-14319348D02*
X12770803Y-14309824D01*
X12770803Y-14309824D02*
X12818422Y-14309824D01*
X12818422Y-14309824D02*
X12837469Y-14319348D01*
X12837469Y-14319348D02*
X12846993Y-14328871D01*
X12846993Y-14328871D02*
X12856517Y-14347919D01*
X12856517Y-14347919D02*
X12856517Y-14366967D01*
X12856517Y-14366967D02*
X12846993Y-14395538D01*
X12846993Y-14395538D02*
X12732707Y-14509824D01*
X12732707Y-14509824D02*
X12856517Y-14509824D01*
X13094612Y-14509824D02*
X13094612Y-14309824D01*
X13180327Y-14509824D02*
X13180327Y-14405062D01*
X13180327Y-14405062D02*
X13170803Y-14386014D01*
X13170803Y-14386014D02*
X13151755Y-14376490D01*
X13151755Y-14376490D02*
X13123184Y-14376490D01*
X13123184Y-14376490D02*
X13104136Y-14386014D01*
X13104136Y-14386014D02*
X13094612Y-14395538D01*
X13304136Y-14509824D02*
X13285088Y-14500300D01*
X13285088Y-14500300D02*
X13275565Y-14490776D01*
X13275565Y-14490776D02*
X13266041Y-14471728D01*
X13266041Y-14471728D02*
X13266041Y-14414586D01*
X13266041Y-14414586D02*
X13275565Y-14395538D01*
X13275565Y-14395538D02*
X13285088Y-14386014D01*
X13285088Y-14386014D02*
X13304136Y-14376490D01*
X13304136Y-14376490D02*
X13332708Y-14376490D01*
X13332708Y-14376490D02*
X13351755Y-14386014D01*
X13351755Y-14386014D02*
X13361279Y-14395538D01*
X13361279Y-14395538D02*
X13370803Y-14414586D01*
X13370803Y-14414586D02*
X13370803Y-14471728D01*
X13370803Y-14471728D02*
X13361279Y-14490776D01*
X13361279Y-14490776D02*
X13351755Y-14500300D01*
X13351755Y-14500300D02*
X13332708Y-14509824D01*
X13332708Y-14509824D02*
X13304136Y-14509824D01*
X13485088Y-14509824D02*
X13466041Y-14500300D01*
X13466041Y-14500300D02*
X13456517Y-14481252D01*
X13456517Y-14481252D02*
X13456517Y-14309824D01*
X13637469Y-14500300D02*
X13618422Y-14509824D01*
X13618422Y-14509824D02*
X13580327Y-14509824D01*
X13580327Y-14509824D02*
X13561279Y-14500300D01*
X13561279Y-14500300D02*
X13551755Y-14481252D01*
X13551755Y-14481252D02*
X13551755Y-14405062D01*
X13551755Y-14405062D02*
X13561279Y-14386014D01*
X13561279Y-14386014D02*
X13580327Y-14376490D01*
X13580327Y-14376490D02*
X13618422Y-14376490D01*
X13618422Y-14376490D02*
X13637469Y-14386014D01*
X13637469Y-14386014D02*
X13646993Y-14405062D01*
X13646993Y-14405062D02*
X13646993Y-14424109D01*
X13646993Y-14424109D02*
X13551755Y-14443157D01*
X13723184Y-14500300D02*
X13742231Y-14509824D01*
X13742231Y-14509824D02*
X13780327Y-14509824D01*
X13780327Y-14509824D02*
X13799374Y-14500300D01*
X13799374Y-14500300D02*
X13808898Y-14481252D01*
X13808898Y-14481252D02*
X13808898Y-14471728D01*
X13808898Y-14471728D02*
X13799374Y-14452681D01*
X13799374Y-14452681D02*
X13780327Y-14443157D01*
X13780327Y-14443157D02*
X13751755Y-14443157D01*
X13751755Y-14443157D02*
X13732708Y-14433633D01*
X13732708Y-14433633D02*
X13723184Y-14414586D01*
X13723184Y-14414586D02*
X13723184Y-14405062D01*
X13723184Y-14405062D02*
X13732708Y-14386014D01*
X13732708Y-14386014D02*
X13751755Y-14376490D01*
X13751755Y-14376490D02*
X13780327Y-14376490D01*
X13780327Y-14376490D02*
X13799374Y-14386014D01*
X13875565Y-14586014D02*
X13885089Y-14576490D01*
X13885089Y-14576490D02*
X13904136Y-14547919D01*
X13904136Y-14547919D02*
X13913660Y-14528871D01*
X13913660Y-14528871D02*
X13923184Y-14500300D01*
X13923184Y-14500300D02*
X13932708Y-14452681D01*
X13932708Y-14452681D02*
X13932708Y-14414586D01*
X13932708Y-14414586D02*
X13923184Y-14366967D01*
X13923184Y-14366967D02*
X13913660Y-14338395D01*
X13913660Y-14338395D02*
X13904136Y-14319348D01*
X13904136Y-14319348D02*
X13885089Y-14290776D01*
X13885089Y-14290776D02*
X13875565Y-14281252D01*
X14237470Y-14586014D02*
X14227946Y-14576490D01*
X14227946Y-14576490D02*
X14208898Y-14547919D01*
X14208898Y-14547919D02*
X14199374Y-14528871D01*
X14199374Y-14528871D02*
X14189850Y-14500300D01*
X14189850Y-14500300D02*
X14180327Y-14452681D01*
X14180327Y-14452681D02*
X14180327Y-14414586D01*
X14180327Y-14414586D02*
X14189850Y-14366967D01*
X14189850Y-14366967D02*
X14199374Y-14338395D01*
X14199374Y-14338395D02*
X14208898Y-14319348D01*
X14208898Y-14319348D02*
X14227946Y-14290776D01*
X14227946Y-14290776D02*
X14237470Y-14281252D01*
X14313660Y-14376490D02*
X14313660Y-14509824D01*
X14313660Y-14395538D02*
X14323184Y-14386014D01*
X14323184Y-14386014D02*
X14342231Y-14376490D01*
X14342231Y-14376490D02*
X14370803Y-14376490D01*
X14370803Y-14376490D02*
X14389850Y-14386014D01*
X14389850Y-14386014D02*
X14399374Y-14405062D01*
X14399374Y-14405062D02*
X14399374Y-14509824D01*
X14523184Y-14509824D02*
X14504136Y-14500300D01*
X14504136Y-14500300D02*
X14494612Y-14490776D01*
X14494612Y-14490776D02*
X14485089Y-14471728D01*
X14485089Y-14471728D02*
X14485089Y-14414586D01*
X14485089Y-14414586D02*
X14494612Y-14395538D01*
X14494612Y-14395538D02*
X14504136Y-14386014D01*
X14504136Y-14386014D02*
X14523184Y-14376490D01*
X14523184Y-14376490D02*
X14551755Y-14376490D01*
X14551755Y-14376490D02*
X14570803Y-14386014D01*
X14570803Y-14386014D02*
X14580327Y-14395538D01*
X14580327Y-14395538D02*
X14589850Y-14414586D01*
X14589850Y-14414586D02*
X14589850Y-14471728D01*
X14589850Y-14471728D02*
X14580327Y-14490776D01*
X14580327Y-14490776D02*
X14570803Y-14500300D01*
X14570803Y-14500300D02*
X14551755Y-14509824D01*
X14551755Y-14509824D02*
X14523184Y-14509824D01*
X14646993Y-14376490D02*
X14723184Y-14376490D01*
X14675565Y-14309824D02*
X14675565Y-14481252D01*
X14675565Y-14481252D02*
X14685089Y-14500300D01*
X14685089Y-14500300D02*
X14704136Y-14509824D01*
X14704136Y-14509824D02*
X14723184Y-14509824D01*
X14942231Y-14376490D02*
X14942231Y-14576490D01*
X14942231Y-14386014D02*
X14961279Y-14376490D01*
X14961279Y-14376490D02*
X14999374Y-14376490D01*
X14999374Y-14376490D02*
X15018422Y-14386014D01*
X15018422Y-14386014D02*
X15027946Y-14395538D01*
X15027946Y-14395538D02*
X15037470Y-14414586D01*
X15037470Y-14414586D02*
X15037470Y-14471728D01*
X15037470Y-14471728D02*
X15027946Y-14490776D01*
X15027946Y-14490776D02*
X15018422Y-14500300D01*
X15018422Y-14500300D02*
X14999374Y-14509824D01*
X14999374Y-14509824D02*
X14961279Y-14509824D01*
X14961279Y-14509824D02*
X14942231Y-14500300D01*
X15151755Y-14509824D02*
X15132708Y-14500300D01*
X15132708Y-14500300D02*
X15123184Y-14481252D01*
X15123184Y-14481252D02*
X15123184Y-14309824D01*
X15313660Y-14509824D02*
X15313660Y-14405062D01*
X15313660Y-14405062D02*
X15304136Y-14386014D01*
X15304136Y-14386014D02*
X15285089Y-14376490D01*
X15285089Y-14376490D02*
X15246993Y-14376490D01*
X15246993Y-14376490D02*
X15227946Y-14386014D01*
X15313660Y-14500300D02*
X15294612Y-14509824D01*
X15294612Y-14509824D02*
X15246993Y-14509824D01*
X15246993Y-14509824D02*
X15227946Y-14500300D01*
X15227946Y-14500300D02*
X15218422Y-14481252D01*
X15218422Y-14481252D02*
X15218422Y-14462205D01*
X15218422Y-14462205D02*
X15227946Y-14443157D01*
X15227946Y-14443157D02*
X15246993Y-14433633D01*
X15246993Y-14433633D02*
X15294612Y-14433633D01*
X15294612Y-14433633D02*
X15313660Y-14424109D01*
X15380327Y-14376490D02*
X15456517Y-14376490D01*
X15408898Y-14309824D02*
X15408898Y-14481252D01*
X15408898Y-14481252D02*
X15418422Y-14500300D01*
X15418422Y-14500300D02*
X15437470Y-14509824D01*
X15437470Y-14509824D02*
X15456517Y-14509824D01*
X15599374Y-14500300D02*
X15580327Y-14509824D01*
X15580327Y-14509824D02*
X15542231Y-14509824D01*
X15542231Y-14509824D02*
X15523184Y-14500300D01*
X15523184Y-14500300D02*
X15513660Y-14481252D01*
X15513660Y-14481252D02*
X15513660Y-14405062D01*
X15513660Y-14405062D02*
X15523184Y-14386014D01*
X15523184Y-14386014D02*
X15542231Y-14376490D01*
X15542231Y-14376490D02*
X15580327Y-14376490D01*
X15580327Y-14376490D02*
X15599374Y-14386014D01*
X15599374Y-14386014D02*
X15608898Y-14405062D01*
X15608898Y-14405062D02*
X15608898Y-14424109D01*
X15608898Y-14424109D02*
X15513660Y-14443157D01*
X15780327Y-14509824D02*
X15780327Y-14309824D01*
X15780327Y-14500300D02*
X15761279Y-14509824D01*
X15761279Y-14509824D02*
X15723184Y-14509824D01*
X15723184Y-14509824D02*
X15704136Y-14500300D01*
X15704136Y-14500300D02*
X15694612Y-14490776D01*
X15694612Y-14490776D02*
X15685089Y-14471728D01*
X15685089Y-14471728D02*
X15685089Y-14414586D01*
X15685089Y-14414586D02*
X15694612Y-14395538D01*
X15694612Y-14395538D02*
X15704136Y-14386014D01*
X15704136Y-14386014D02*
X15723184Y-14376490D01*
X15723184Y-14376490D02*
X15761279Y-14376490D01*
X15761279Y-14376490D02*
X15780327Y-14386014D01*
X15856517Y-14586014D02*
X15866041Y-14576490D01*
X15866041Y-14576490D02*
X15885089Y-14547919D01*
X15885089Y-14547919D02*
X15894612Y-14528871D01*
X15894612Y-14528871D02*
X15904136Y-14500300D01*
X15904136Y-14500300D02*
X15913660Y-14452681D01*
X15913660Y-14452681D02*
X15913660Y-14414586D01*
X15913660Y-14414586D02*
X15904136Y-14366967D01*
X15904136Y-14366967D02*
X15894612Y-14338395D01*
X15894612Y-14338395D02*
X15885089Y-14319348D01*
X15885089Y-14319348D02*
X15866041Y-14290776D01*
X15866041Y-14290776D02*
X15856517Y-14281252D01*
D12*
X9100502Y-14682340D02*
G75*
G02*
X9010502Y-14682340I-45000J0D01*
G01*
X9010502Y-14682340D02*
G75*
G02*
X9100502Y-14682340I45000J0D01*
G01*
D11*
X9399374Y-14573824D02*
X9418422Y-14573824D01*
X9418422Y-14573824D02*
X9437469Y-14583348D01*
X9437469Y-14583348D02*
X9446993Y-14592871D01*
X9446993Y-14592871D02*
X9456517Y-14611919D01*
X9456517Y-14611919D02*
X9466041Y-14650014D01*
X9466041Y-14650014D02*
X9466041Y-14697633D01*
X9466041Y-14697633D02*
X9456517Y-14735728D01*
X9456517Y-14735728D02*
X9446993Y-14754776D01*
X9446993Y-14754776D02*
X9437469Y-14764300D01*
X9437469Y-14764300D02*
X9418422Y-14773824D01*
X9418422Y-14773824D02*
X9399374Y-14773824D01*
X9399374Y-14773824D02*
X9380326Y-14764300D01*
X9380326Y-14764300D02*
X9370802Y-14754776D01*
X9370802Y-14754776D02*
X9361279Y-14735728D01*
X9361279Y-14735728D02*
X9351755Y-14697633D01*
X9351755Y-14697633D02*
X9351755Y-14650014D01*
X9351755Y-14650014D02*
X9361279Y-14611919D01*
X9361279Y-14611919D02*
X9370802Y-14592871D01*
X9370802Y-14592871D02*
X9380326Y-14583348D01*
X9380326Y-14583348D02*
X9399374Y-14573824D01*
X9551755Y-14754776D02*
X9561279Y-14764300D01*
X9561279Y-14764300D02*
X9551755Y-14773824D01*
X9551755Y-14773824D02*
X9542231Y-14764300D01*
X9542231Y-14764300D02*
X9551755Y-14754776D01*
X9551755Y-14754776D02*
X9551755Y-14773824D01*
X9656517Y-14773824D02*
X9694612Y-14773824D01*
X9694612Y-14773824D02*
X9713660Y-14764300D01*
X9713660Y-14764300D02*
X9723183Y-14754776D01*
X9723183Y-14754776D02*
X9742231Y-14726205D01*
X9742231Y-14726205D02*
X9751755Y-14688109D01*
X9751755Y-14688109D02*
X9751755Y-14611919D01*
X9751755Y-14611919D02*
X9742231Y-14592871D01*
X9742231Y-14592871D02*
X9732707Y-14583348D01*
X9732707Y-14583348D02*
X9713660Y-14573824D01*
X9713660Y-14573824D02*
X9675564Y-14573824D01*
X9675564Y-14573824D02*
X9656517Y-14583348D01*
X9656517Y-14583348D02*
X9646993Y-14592871D01*
X9646993Y-14592871D02*
X9637469Y-14611919D01*
X9637469Y-14611919D02*
X9637469Y-14659538D01*
X9637469Y-14659538D02*
X9646993Y-14678586D01*
X9646993Y-14678586D02*
X9656517Y-14688109D01*
X9656517Y-14688109D02*
X9675564Y-14697633D01*
X9675564Y-14697633D02*
X9713660Y-14697633D01*
X9713660Y-14697633D02*
X9732707Y-14688109D01*
X9732707Y-14688109D02*
X9742231Y-14678586D01*
X9742231Y-14678586D02*
X9751755Y-14659538D01*
X9875564Y-14573824D02*
X9894612Y-14573824D01*
X9894612Y-14573824D02*
X9913660Y-14583348D01*
X9913660Y-14583348D02*
X9923183Y-14592871D01*
X9923183Y-14592871D02*
X9932707Y-14611919D01*
X9932707Y-14611919D02*
X9942231Y-14650014D01*
X9942231Y-14650014D02*
X9942231Y-14697633D01*
X9942231Y-14697633D02*
X9932707Y-14735728D01*
X9932707Y-14735728D02*
X9923183Y-14754776D01*
X9923183Y-14754776D02*
X9913660Y-14764300D01*
X9913660Y-14764300D02*
X9894612Y-14773824D01*
X9894612Y-14773824D02*
X9875564Y-14773824D01*
X9875564Y-14773824D02*
X9856517Y-14764300D01*
X9856517Y-14764300D02*
X9846993Y-14754776D01*
X9846993Y-14754776D02*
X9837469Y-14735728D01*
X9837469Y-14735728D02*
X9827945Y-14697633D01*
X9827945Y-14697633D02*
X9827945Y-14650014D01*
X9827945Y-14650014D02*
X9837469Y-14611919D01*
X9837469Y-14611919D02*
X9846993Y-14592871D01*
X9846993Y-14592871D02*
X9856517Y-14583348D01*
X9856517Y-14583348D02*
X9875564Y-14573824D01*
X10066041Y-14573824D02*
X10085088Y-14573824D01*
X10085088Y-14573824D02*
X10104136Y-14583348D01*
X10104136Y-14583348D02*
X10113660Y-14592871D01*
X10113660Y-14592871D02*
X10123183Y-14611919D01*
X10123183Y-14611919D02*
X10132707Y-14650014D01*
X10132707Y-14650014D02*
X10132707Y-14697633D01*
X10132707Y-14697633D02*
X10123183Y-14735728D01*
X10123183Y-14735728D02*
X10113660Y-14754776D01*
X10113660Y-14754776D02*
X10104136Y-14764300D01*
X10104136Y-14764300D02*
X10085088Y-14773824D01*
X10085088Y-14773824D02*
X10066041Y-14773824D01*
X10066041Y-14773824D02*
X10046993Y-14764300D01*
X10046993Y-14764300D02*
X10037469Y-14754776D01*
X10037469Y-14754776D02*
X10027945Y-14735728D01*
X10027945Y-14735728D02*
X10018422Y-14697633D01*
X10018422Y-14697633D02*
X10018422Y-14650014D01*
X10018422Y-14650014D02*
X10027945Y-14611919D01*
X10027945Y-14611919D02*
X10037469Y-14592871D01*
X10037469Y-14592871D02*
X10046993Y-14583348D01*
X10046993Y-14583348D02*
X10066041Y-14573824D01*
X10218422Y-14773824D02*
X10218422Y-14640490D01*
X10218422Y-14659538D02*
X10227945Y-14650014D01*
X10227945Y-14650014D02*
X10246993Y-14640490D01*
X10246993Y-14640490D02*
X10275564Y-14640490D01*
X10275564Y-14640490D02*
X10294612Y-14650014D01*
X10294612Y-14650014D02*
X10304136Y-14669062D01*
X10304136Y-14669062D02*
X10304136Y-14773824D01*
X10304136Y-14669062D02*
X10313660Y-14650014D01*
X10313660Y-14650014D02*
X10332707Y-14640490D01*
X10332707Y-14640490D02*
X10361279Y-14640490D01*
X10361279Y-14640490D02*
X10380326Y-14650014D01*
X10380326Y-14650014D02*
X10389850Y-14669062D01*
X10389850Y-14669062D02*
X10389850Y-14773824D01*
X10485088Y-14773824D02*
X10485088Y-14640490D01*
X10485088Y-14659538D02*
X10494612Y-14650014D01*
X10494612Y-14650014D02*
X10513660Y-14640490D01*
X10513660Y-14640490D02*
X10542231Y-14640490D01*
X10542231Y-14640490D02*
X10561279Y-14650014D01*
X10561279Y-14650014D02*
X10570803Y-14669062D01*
X10570803Y-14669062D02*
X10570803Y-14773824D01*
X10570803Y-14669062D02*
X10580326Y-14650014D01*
X10580326Y-14650014D02*
X10599374Y-14640490D01*
X10599374Y-14640490D02*
X10627945Y-14640490D01*
X10627945Y-14640490D02*
X10646993Y-14650014D01*
X10646993Y-14650014D02*
X10656517Y-14669062D01*
X10656517Y-14669062D02*
X10656517Y-14773824D01*
X11046993Y-14564300D02*
X10875565Y-14821443D01*
X11304136Y-14573824D02*
X11323184Y-14573824D01*
X11323184Y-14573824D02*
X11342231Y-14583348D01*
X11342231Y-14583348D02*
X11351755Y-14592871D01*
X11351755Y-14592871D02*
X11361279Y-14611919D01*
X11361279Y-14611919D02*
X11370803Y-14650014D01*
X11370803Y-14650014D02*
X11370803Y-14697633D01*
X11370803Y-14697633D02*
X11361279Y-14735728D01*
X11361279Y-14735728D02*
X11351755Y-14754776D01*
X11351755Y-14754776D02*
X11342231Y-14764300D01*
X11342231Y-14764300D02*
X11323184Y-14773824D01*
X11323184Y-14773824D02*
X11304136Y-14773824D01*
X11304136Y-14773824D02*
X11285088Y-14764300D01*
X11285088Y-14764300D02*
X11275564Y-14754776D01*
X11275564Y-14754776D02*
X11266041Y-14735728D01*
X11266041Y-14735728D02*
X11256517Y-14697633D01*
X11256517Y-14697633D02*
X11256517Y-14650014D01*
X11256517Y-14650014D02*
X11266041Y-14611919D01*
X11266041Y-14611919D02*
X11275564Y-14592871D01*
X11275564Y-14592871D02*
X11285088Y-14583348D01*
X11285088Y-14583348D02*
X11304136Y-14573824D01*
X11456517Y-14754776D02*
X11466041Y-14764300D01*
X11466041Y-14764300D02*
X11456517Y-14773824D01*
X11456517Y-14773824D02*
X11446993Y-14764300D01*
X11446993Y-14764300D02*
X11456517Y-14754776D01*
X11456517Y-14754776D02*
X11456517Y-14773824D01*
X11589850Y-14573824D02*
X11608898Y-14573824D01*
X11608898Y-14573824D02*
X11627945Y-14583348D01*
X11627945Y-14583348D02*
X11637469Y-14592871D01*
X11637469Y-14592871D02*
X11646993Y-14611919D01*
X11646993Y-14611919D02*
X11656517Y-14650014D01*
X11656517Y-14650014D02*
X11656517Y-14697633D01*
X11656517Y-14697633D02*
X11646993Y-14735728D01*
X11646993Y-14735728D02*
X11637469Y-14754776D01*
X11637469Y-14754776D02*
X11627945Y-14764300D01*
X11627945Y-14764300D02*
X11608898Y-14773824D01*
X11608898Y-14773824D02*
X11589850Y-14773824D01*
X11589850Y-14773824D02*
X11570803Y-14764300D01*
X11570803Y-14764300D02*
X11561279Y-14754776D01*
X11561279Y-14754776D02*
X11551755Y-14735728D01*
X11551755Y-14735728D02*
X11542231Y-14697633D01*
X11542231Y-14697633D02*
X11542231Y-14650014D01*
X11542231Y-14650014D02*
X11551755Y-14611919D01*
X11551755Y-14611919D02*
X11561279Y-14592871D01*
X11561279Y-14592871D02*
X11570803Y-14583348D01*
X11570803Y-14583348D02*
X11589850Y-14573824D01*
X11723184Y-14573824D02*
X11846993Y-14573824D01*
X11846993Y-14573824D02*
X11780326Y-14650014D01*
X11780326Y-14650014D02*
X11808898Y-14650014D01*
X11808898Y-14650014D02*
X11827945Y-14659538D01*
X11827945Y-14659538D02*
X11837469Y-14669062D01*
X11837469Y-14669062D02*
X11846993Y-14688109D01*
X11846993Y-14688109D02*
X11846993Y-14735728D01*
X11846993Y-14735728D02*
X11837469Y-14754776D01*
X11837469Y-14754776D02*
X11827945Y-14764300D01*
X11827945Y-14764300D02*
X11808898Y-14773824D01*
X11808898Y-14773824D02*
X11751755Y-14773824D01*
X11751755Y-14773824D02*
X11732707Y-14764300D01*
X11732707Y-14764300D02*
X11723184Y-14754776D01*
X12027945Y-14573824D02*
X11932707Y-14573824D01*
X11932707Y-14573824D02*
X11923184Y-14669062D01*
X11923184Y-14669062D02*
X11932707Y-14659538D01*
X11932707Y-14659538D02*
X11951755Y-14650014D01*
X11951755Y-14650014D02*
X11999374Y-14650014D01*
X11999374Y-14650014D02*
X12018422Y-14659538D01*
X12018422Y-14659538D02*
X12027945Y-14669062D01*
X12027945Y-14669062D02*
X12037469Y-14688109D01*
X12037469Y-14688109D02*
X12037469Y-14735728D01*
X12037469Y-14735728D02*
X12027945Y-14754776D01*
X12027945Y-14754776D02*
X12018422Y-14764300D01*
X12018422Y-14764300D02*
X11999374Y-14773824D01*
X11999374Y-14773824D02*
X11951755Y-14773824D01*
X11951755Y-14773824D02*
X11932707Y-14764300D01*
X11932707Y-14764300D02*
X11923184Y-14754776D01*
X12208898Y-14640490D02*
X12208898Y-14773824D01*
X12161279Y-14564300D02*
X12113660Y-14707157D01*
X12113660Y-14707157D02*
X12237469Y-14707157D01*
X12304136Y-14573824D02*
X12304136Y-14611919D01*
X12380326Y-14573824D02*
X12380326Y-14611919D01*
X12675565Y-14850014D02*
X12666041Y-14840490D01*
X12666041Y-14840490D02*
X12646993Y-14811919D01*
X12646993Y-14811919D02*
X12637469Y-14792871D01*
X12637469Y-14792871D02*
X12627946Y-14764300D01*
X12627946Y-14764300D02*
X12618422Y-14716681D01*
X12618422Y-14716681D02*
X12618422Y-14678586D01*
X12618422Y-14678586D02*
X12627946Y-14630967D01*
X12627946Y-14630967D02*
X12637469Y-14602395D01*
X12637469Y-14602395D02*
X12646993Y-14583348D01*
X12646993Y-14583348D02*
X12666041Y-14554776D01*
X12666041Y-14554776D02*
X12675565Y-14545252D01*
X12742231Y-14592871D02*
X12751755Y-14583348D01*
X12751755Y-14583348D02*
X12770803Y-14573824D01*
X12770803Y-14573824D02*
X12818422Y-14573824D01*
X12818422Y-14573824D02*
X12837469Y-14583348D01*
X12837469Y-14583348D02*
X12846993Y-14592871D01*
X12846993Y-14592871D02*
X12856517Y-14611919D01*
X12856517Y-14611919D02*
X12856517Y-14630967D01*
X12856517Y-14630967D02*
X12846993Y-14659538D01*
X12846993Y-14659538D02*
X12732707Y-14773824D01*
X12732707Y-14773824D02*
X12856517Y-14773824D01*
X13094612Y-14773824D02*
X13094612Y-14573824D01*
X13180327Y-14773824D02*
X13180327Y-14669062D01*
X13180327Y-14669062D02*
X13170803Y-14650014D01*
X13170803Y-14650014D02*
X13151755Y-14640490D01*
X13151755Y-14640490D02*
X13123184Y-14640490D01*
X13123184Y-14640490D02*
X13104136Y-14650014D01*
X13104136Y-14650014D02*
X13094612Y-14659538D01*
X13304136Y-14773824D02*
X13285088Y-14764300D01*
X13285088Y-14764300D02*
X13275565Y-14754776D01*
X13275565Y-14754776D02*
X13266041Y-14735728D01*
X13266041Y-14735728D02*
X13266041Y-14678586D01*
X13266041Y-14678586D02*
X13275565Y-14659538D01*
X13275565Y-14659538D02*
X13285088Y-14650014D01*
X13285088Y-14650014D02*
X13304136Y-14640490D01*
X13304136Y-14640490D02*
X13332708Y-14640490D01*
X13332708Y-14640490D02*
X13351755Y-14650014D01*
X13351755Y-14650014D02*
X13361279Y-14659538D01*
X13361279Y-14659538D02*
X13370803Y-14678586D01*
X13370803Y-14678586D02*
X13370803Y-14735728D01*
X13370803Y-14735728D02*
X13361279Y-14754776D01*
X13361279Y-14754776D02*
X13351755Y-14764300D01*
X13351755Y-14764300D02*
X13332708Y-14773824D01*
X13332708Y-14773824D02*
X13304136Y-14773824D01*
X13485088Y-14773824D02*
X13466041Y-14764300D01*
X13466041Y-14764300D02*
X13456517Y-14745252D01*
X13456517Y-14745252D02*
X13456517Y-14573824D01*
X13637469Y-14764300D02*
X13618422Y-14773824D01*
X13618422Y-14773824D02*
X13580327Y-14773824D01*
X13580327Y-14773824D02*
X13561279Y-14764300D01*
X13561279Y-14764300D02*
X13551755Y-14745252D01*
X13551755Y-14745252D02*
X13551755Y-14669062D01*
X13551755Y-14669062D02*
X13561279Y-14650014D01*
X13561279Y-14650014D02*
X13580327Y-14640490D01*
X13580327Y-14640490D02*
X13618422Y-14640490D01*
X13618422Y-14640490D02*
X13637469Y-14650014D01*
X13637469Y-14650014D02*
X13646993Y-14669062D01*
X13646993Y-14669062D02*
X13646993Y-14688109D01*
X13646993Y-14688109D02*
X13551755Y-14707157D01*
X13723184Y-14764300D02*
X13742231Y-14773824D01*
X13742231Y-14773824D02*
X13780327Y-14773824D01*
X13780327Y-14773824D02*
X13799374Y-14764300D01*
X13799374Y-14764300D02*
X13808898Y-14745252D01*
X13808898Y-14745252D02*
X13808898Y-14735728D01*
X13808898Y-14735728D02*
X13799374Y-14716681D01*
X13799374Y-14716681D02*
X13780327Y-14707157D01*
X13780327Y-14707157D02*
X13751755Y-14707157D01*
X13751755Y-14707157D02*
X13732708Y-14697633D01*
X13732708Y-14697633D02*
X13723184Y-14678586D01*
X13723184Y-14678586D02*
X13723184Y-14669062D01*
X13723184Y-14669062D02*
X13732708Y-14650014D01*
X13732708Y-14650014D02*
X13751755Y-14640490D01*
X13751755Y-14640490D02*
X13780327Y-14640490D01*
X13780327Y-14640490D02*
X13799374Y-14650014D01*
X13875565Y-14850014D02*
X13885089Y-14840490D01*
X13885089Y-14840490D02*
X13904136Y-14811919D01*
X13904136Y-14811919D02*
X13913660Y-14792871D01*
X13913660Y-14792871D02*
X13923184Y-14764300D01*
X13923184Y-14764300D02*
X13932708Y-14716681D01*
X13932708Y-14716681D02*
X13932708Y-14678586D01*
X13932708Y-14678586D02*
X13923184Y-14630967D01*
X13923184Y-14630967D02*
X13913660Y-14602395D01*
X13913660Y-14602395D02*
X13904136Y-14583348D01*
X13904136Y-14583348D02*
X13885089Y-14554776D01*
X13885089Y-14554776D02*
X13875565Y-14545252D01*
X14237470Y-14850014D02*
X14227946Y-14840490D01*
X14227946Y-14840490D02*
X14208898Y-14811919D01*
X14208898Y-14811919D02*
X14199374Y-14792871D01*
X14199374Y-14792871D02*
X14189850Y-14764300D01*
X14189850Y-14764300D02*
X14180327Y-14716681D01*
X14180327Y-14716681D02*
X14180327Y-14678586D01*
X14180327Y-14678586D02*
X14189850Y-14630967D01*
X14189850Y-14630967D02*
X14199374Y-14602395D01*
X14199374Y-14602395D02*
X14208898Y-14583348D01*
X14208898Y-14583348D02*
X14227946Y-14554776D01*
X14227946Y-14554776D02*
X14237470Y-14545252D01*
X14313660Y-14640490D02*
X14313660Y-14773824D01*
X14313660Y-14659538D02*
X14323184Y-14650014D01*
X14323184Y-14650014D02*
X14342231Y-14640490D01*
X14342231Y-14640490D02*
X14370803Y-14640490D01*
X14370803Y-14640490D02*
X14389850Y-14650014D01*
X14389850Y-14650014D02*
X14399374Y-14669062D01*
X14399374Y-14669062D02*
X14399374Y-14773824D01*
X14523184Y-14773824D02*
X14504136Y-14764300D01*
X14504136Y-14764300D02*
X14494612Y-14754776D01*
X14494612Y-14754776D02*
X14485089Y-14735728D01*
X14485089Y-14735728D02*
X14485089Y-14678586D01*
X14485089Y-14678586D02*
X14494612Y-14659538D01*
X14494612Y-14659538D02*
X14504136Y-14650014D01*
X14504136Y-14650014D02*
X14523184Y-14640490D01*
X14523184Y-14640490D02*
X14551755Y-14640490D01*
X14551755Y-14640490D02*
X14570803Y-14650014D01*
X14570803Y-14650014D02*
X14580327Y-14659538D01*
X14580327Y-14659538D02*
X14589850Y-14678586D01*
X14589850Y-14678586D02*
X14589850Y-14735728D01*
X14589850Y-14735728D02*
X14580327Y-14754776D01*
X14580327Y-14754776D02*
X14570803Y-14764300D01*
X14570803Y-14764300D02*
X14551755Y-14773824D01*
X14551755Y-14773824D02*
X14523184Y-14773824D01*
X14646993Y-14640490D02*
X14723184Y-14640490D01*
X14675565Y-14573824D02*
X14675565Y-14745252D01*
X14675565Y-14745252D02*
X14685089Y-14764300D01*
X14685089Y-14764300D02*
X14704136Y-14773824D01*
X14704136Y-14773824D02*
X14723184Y-14773824D01*
X14942231Y-14640490D02*
X14942231Y-14840490D01*
X14942231Y-14650014D02*
X14961279Y-14640490D01*
X14961279Y-14640490D02*
X14999374Y-14640490D01*
X14999374Y-14640490D02*
X15018422Y-14650014D01*
X15018422Y-14650014D02*
X15027946Y-14659538D01*
X15027946Y-14659538D02*
X15037470Y-14678586D01*
X15037470Y-14678586D02*
X15037470Y-14735728D01*
X15037470Y-14735728D02*
X15027946Y-14754776D01*
X15027946Y-14754776D02*
X15018422Y-14764300D01*
X15018422Y-14764300D02*
X14999374Y-14773824D01*
X14999374Y-14773824D02*
X14961279Y-14773824D01*
X14961279Y-14773824D02*
X14942231Y-14764300D01*
X15151755Y-14773824D02*
X15132708Y-14764300D01*
X15132708Y-14764300D02*
X15123184Y-14745252D01*
X15123184Y-14745252D02*
X15123184Y-14573824D01*
X15313660Y-14773824D02*
X15313660Y-14669062D01*
X15313660Y-14669062D02*
X15304136Y-14650014D01*
X15304136Y-14650014D02*
X15285089Y-14640490D01*
X15285089Y-14640490D02*
X15246993Y-14640490D01*
X15246993Y-14640490D02*
X15227946Y-14650014D01*
X15313660Y-14764300D02*
X15294612Y-14773824D01*
X15294612Y-14773824D02*
X15246993Y-14773824D01*
X15246993Y-14773824D02*
X15227946Y-14764300D01*
X15227946Y-14764300D02*
X15218422Y-14745252D01*
X15218422Y-14745252D02*
X15218422Y-14726205D01*
X15218422Y-14726205D02*
X15227946Y-14707157D01*
X15227946Y-14707157D02*
X15246993Y-14697633D01*
X15246993Y-14697633D02*
X15294612Y-14697633D01*
X15294612Y-14697633D02*
X15313660Y-14688109D01*
X15380327Y-14640490D02*
X15456517Y-14640490D01*
X15408898Y-14573824D02*
X15408898Y-14745252D01*
X15408898Y-14745252D02*
X15418422Y-14764300D01*
X15418422Y-14764300D02*
X15437470Y-14773824D01*
X15437470Y-14773824D02*
X15456517Y-14773824D01*
X15599374Y-14764300D02*
X15580327Y-14773824D01*
X15580327Y-14773824D02*
X15542231Y-14773824D01*
X15542231Y-14773824D02*
X15523184Y-14764300D01*
X15523184Y-14764300D02*
X15513660Y-14745252D01*
X15513660Y-14745252D02*
X15513660Y-14669062D01*
X15513660Y-14669062D02*
X15523184Y-14650014D01*
X15523184Y-14650014D02*
X15542231Y-14640490D01*
X15542231Y-14640490D02*
X15580327Y-14640490D01*
X15580327Y-14640490D02*
X15599374Y-14650014D01*
X15599374Y-14650014D02*
X15608898Y-14669062D01*
X15608898Y-14669062D02*
X15608898Y-14688109D01*
X15608898Y-14688109D02*
X15513660Y-14707157D01*
X15780327Y-14773824D02*
X15780327Y-14573824D01*
X15780327Y-14764300D02*
X15761279Y-14773824D01*
X15761279Y-14773824D02*
X15723184Y-14773824D01*
X15723184Y-14773824D02*
X15704136Y-14764300D01*
X15704136Y-14764300D02*
X15694612Y-14754776D01*
X15694612Y-14754776D02*
X15685089Y-14735728D01*
X15685089Y-14735728D02*
X15685089Y-14678586D01*
X15685089Y-14678586D02*
X15694612Y-14659538D01*
X15694612Y-14659538D02*
X15704136Y-14650014D01*
X15704136Y-14650014D02*
X15723184Y-14640490D01*
X15723184Y-14640490D02*
X15761279Y-14640490D01*
X15761279Y-14640490D02*
X15780327Y-14650014D01*
X15856517Y-14850014D02*
X15866041Y-14840490D01*
X15866041Y-14840490D02*
X15885089Y-14811919D01*
X15885089Y-14811919D02*
X15894612Y-14792871D01*
X15894612Y-14792871D02*
X15904136Y-14764300D01*
X15904136Y-14764300D02*
X15913660Y-14716681D01*
X15913660Y-14716681D02*
X15913660Y-14678586D01*
X15913660Y-14678586D02*
X15904136Y-14630967D01*
X15904136Y-14630967D02*
X15894612Y-14602395D01*
X15894612Y-14602395D02*
X15885089Y-14583348D01*
X15885089Y-14583348D02*
X15866041Y-14554776D01*
X15866041Y-14554776D02*
X15856517Y-14545252D01*
D13*
X9005502Y-14851340D02*
X9005502Y-15041340D01*
X8910502Y-14946340D02*
X9100502Y-14946340D01*
D11*
X9466041Y-15037824D02*
X9351755Y-15037824D01*
X9408898Y-15037824D02*
X9408898Y-14837824D01*
X9408898Y-14837824D02*
X9389850Y-14866395D01*
X9389850Y-14866395D02*
X9370802Y-14885443D01*
X9370802Y-14885443D02*
X9351755Y-14894967D01*
X9551755Y-15018776D02*
X9561279Y-15028300D01*
X9561279Y-15028300D02*
X9551755Y-15037824D01*
X9551755Y-15037824D02*
X9542231Y-15028300D01*
X9542231Y-15028300D02*
X9551755Y-15018776D01*
X9551755Y-15018776D02*
X9551755Y-15037824D01*
X9656517Y-15037824D02*
X9694612Y-15037824D01*
X9694612Y-15037824D02*
X9713660Y-15028300D01*
X9713660Y-15028300D02*
X9723183Y-15018776D01*
X9723183Y-15018776D02*
X9742231Y-14990205D01*
X9742231Y-14990205D02*
X9751755Y-14952109D01*
X9751755Y-14952109D02*
X9751755Y-14875919D01*
X9751755Y-14875919D02*
X9742231Y-14856871D01*
X9742231Y-14856871D02*
X9732707Y-14847348D01*
X9732707Y-14847348D02*
X9713660Y-14837824D01*
X9713660Y-14837824D02*
X9675564Y-14837824D01*
X9675564Y-14837824D02*
X9656517Y-14847348D01*
X9656517Y-14847348D02*
X9646993Y-14856871D01*
X9646993Y-14856871D02*
X9637469Y-14875919D01*
X9637469Y-14875919D02*
X9637469Y-14923538D01*
X9637469Y-14923538D02*
X9646993Y-14942586D01*
X9646993Y-14942586D02*
X9656517Y-14952109D01*
X9656517Y-14952109D02*
X9675564Y-14961633D01*
X9675564Y-14961633D02*
X9713660Y-14961633D01*
X9713660Y-14961633D02*
X9732707Y-14952109D01*
X9732707Y-14952109D02*
X9742231Y-14942586D01*
X9742231Y-14942586D02*
X9751755Y-14923538D01*
X9875564Y-14837824D02*
X9894612Y-14837824D01*
X9894612Y-14837824D02*
X9913660Y-14847348D01*
X9913660Y-14847348D02*
X9923183Y-14856871D01*
X9923183Y-14856871D02*
X9932707Y-14875919D01*
X9932707Y-14875919D02*
X9942231Y-14914014D01*
X9942231Y-14914014D02*
X9942231Y-14961633D01*
X9942231Y-14961633D02*
X9932707Y-14999728D01*
X9932707Y-14999728D02*
X9923183Y-15018776D01*
X9923183Y-15018776D02*
X9913660Y-15028300D01*
X9913660Y-15028300D02*
X9894612Y-15037824D01*
X9894612Y-15037824D02*
X9875564Y-15037824D01*
X9875564Y-15037824D02*
X9856517Y-15028300D01*
X9856517Y-15028300D02*
X9846993Y-15018776D01*
X9846993Y-15018776D02*
X9837469Y-14999728D01*
X9837469Y-14999728D02*
X9827945Y-14961633D01*
X9827945Y-14961633D02*
X9827945Y-14914014D01*
X9827945Y-14914014D02*
X9837469Y-14875919D01*
X9837469Y-14875919D02*
X9846993Y-14856871D01*
X9846993Y-14856871D02*
X9856517Y-14847348D01*
X9856517Y-14847348D02*
X9875564Y-14837824D01*
X10066041Y-14837824D02*
X10085088Y-14837824D01*
X10085088Y-14837824D02*
X10104136Y-14847348D01*
X10104136Y-14847348D02*
X10113660Y-14856871D01*
X10113660Y-14856871D02*
X10123183Y-14875919D01*
X10123183Y-14875919D02*
X10132707Y-14914014D01*
X10132707Y-14914014D02*
X10132707Y-14961633D01*
X10132707Y-14961633D02*
X10123183Y-14999728D01*
X10123183Y-14999728D02*
X10113660Y-15018776D01*
X10113660Y-15018776D02*
X10104136Y-15028300D01*
X10104136Y-15028300D02*
X10085088Y-15037824D01*
X10085088Y-15037824D02*
X10066041Y-15037824D01*
X10066041Y-15037824D02*
X10046993Y-15028300D01*
X10046993Y-15028300D02*
X10037469Y-15018776D01*
X10037469Y-15018776D02*
X10027945Y-14999728D01*
X10027945Y-14999728D02*
X10018422Y-14961633D01*
X10018422Y-14961633D02*
X10018422Y-14914014D01*
X10018422Y-14914014D02*
X10027945Y-14875919D01*
X10027945Y-14875919D02*
X10037469Y-14856871D01*
X10037469Y-14856871D02*
X10046993Y-14847348D01*
X10046993Y-14847348D02*
X10066041Y-14837824D01*
X10218422Y-15037824D02*
X10218422Y-14904490D01*
X10218422Y-14923538D02*
X10227945Y-14914014D01*
X10227945Y-14914014D02*
X10246993Y-14904490D01*
X10246993Y-14904490D02*
X10275564Y-14904490D01*
X10275564Y-14904490D02*
X10294612Y-14914014D01*
X10294612Y-14914014D02*
X10304136Y-14933062D01*
X10304136Y-14933062D02*
X10304136Y-15037824D01*
X10304136Y-14933062D02*
X10313660Y-14914014D01*
X10313660Y-14914014D02*
X10332707Y-14904490D01*
X10332707Y-14904490D02*
X10361279Y-14904490D01*
X10361279Y-14904490D02*
X10380326Y-14914014D01*
X10380326Y-14914014D02*
X10389850Y-14933062D01*
X10389850Y-14933062D02*
X10389850Y-15037824D01*
X10485088Y-15037824D02*
X10485088Y-14904490D01*
X10485088Y-14923538D02*
X10494612Y-14914014D01*
X10494612Y-14914014D02*
X10513660Y-14904490D01*
X10513660Y-14904490D02*
X10542231Y-14904490D01*
X10542231Y-14904490D02*
X10561279Y-14914014D01*
X10561279Y-14914014D02*
X10570803Y-14933062D01*
X10570803Y-14933062D02*
X10570803Y-15037824D01*
X10570803Y-14933062D02*
X10580326Y-14914014D01*
X10580326Y-14914014D02*
X10599374Y-14904490D01*
X10599374Y-14904490D02*
X10627945Y-14904490D01*
X10627945Y-14904490D02*
X10646993Y-14914014D01*
X10646993Y-14914014D02*
X10656517Y-14933062D01*
X10656517Y-14933062D02*
X10656517Y-15037824D01*
X11046993Y-14828300D02*
X10875565Y-15085443D01*
X11304136Y-14837824D02*
X11323184Y-14837824D01*
X11323184Y-14837824D02*
X11342231Y-14847348D01*
X11342231Y-14847348D02*
X11351755Y-14856871D01*
X11351755Y-14856871D02*
X11361279Y-14875919D01*
X11361279Y-14875919D02*
X11370803Y-14914014D01*
X11370803Y-14914014D02*
X11370803Y-14961633D01*
X11370803Y-14961633D02*
X11361279Y-14999728D01*
X11361279Y-14999728D02*
X11351755Y-15018776D01*
X11351755Y-15018776D02*
X11342231Y-15028300D01*
X11342231Y-15028300D02*
X11323184Y-15037824D01*
X11323184Y-15037824D02*
X11304136Y-15037824D01*
X11304136Y-15037824D02*
X11285088Y-15028300D01*
X11285088Y-15028300D02*
X11275564Y-15018776D01*
X11275564Y-15018776D02*
X11266041Y-14999728D01*
X11266041Y-14999728D02*
X11256517Y-14961633D01*
X11256517Y-14961633D02*
X11256517Y-14914014D01*
X11256517Y-14914014D02*
X11266041Y-14875919D01*
X11266041Y-14875919D02*
X11275564Y-14856871D01*
X11275564Y-14856871D02*
X11285088Y-14847348D01*
X11285088Y-14847348D02*
X11304136Y-14837824D01*
X11456517Y-15018776D02*
X11466041Y-15028300D01*
X11466041Y-15028300D02*
X11456517Y-15037824D01*
X11456517Y-15037824D02*
X11446993Y-15028300D01*
X11446993Y-15028300D02*
X11456517Y-15018776D01*
X11456517Y-15018776D02*
X11456517Y-15037824D01*
X11589850Y-14837824D02*
X11608898Y-14837824D01*
X11608898Y-14837824D02*
X11627945Y-14847348D01*
X11627945Y-14847348D02*
X11637469Y-14856871D01*
X11637469Y-14856871D02*
X11646993Y-14875919D01*
X11646993Y-14875919D02*
X11656517Y-14914014D01*
X11656517Y-14914014D02*
X11656517Y-14961633D01*
X11656517Y-14961633D02*
X11646993Y-14999728D01*
X11646993Y-14999728D02*
X11637469Y-15018776D01*
X11637469Y-15018776D02*
X11627945Y-15028300D01*
X11627945Y-15028300D02*
X11608898Y-15037824D01*
X11608898Y-15037824D02*
X11589850Y-15037824D01*
X11589850Y-15037824D02*
X11570803Y-15028300D01*
X11570803Y-15028300D02*
X11561279Y-15018776D01*
X11561279Y-15018776D02*
X11551755Y-14999728D01*
X11551755Y-14999728D02*
X11542231Y-14961633D01*
X11542231Y-14961633D02*
X11542231Y-14914014D01*
X11542231Y-14914014D02*
X11551755Y-14875919D01*
X11551755Y-14875919D02*
X11561279Y-14856871D01*
X11561279Y-14856871D02*
X11570803Y-14847348D01*
X11570803Y-14847348D02*
X11589850Y-14837824D01*
X11723184Y-14837824D02*
X11856517Y-14837824D01*
X11856517Y-14837824D02*
X11770803Y-15037824D01*
X12018422Y-14904490D02*
X12018422Y-15037824D01*
X11970803Y-14828300D02*
X11923184Y-14971157D01*
X11923184Y-14971157D02*
X12046993Y-14971157D01*
X12151755Y-14923538D02*
X12132707Y-14914014D01*
X12132707Y-14914014D02*
X12123184Y-14904490D01*
X12123184Y-14904490D02*
X12113660Y-14885443D01*
X12113660Y-14885443D02*
X12113660Y-14875919D01*
X12113660Y-14875919D02*
X12123184Y-14856871D01*
X12123184Y-14856871D02*
X12132707Y-14847348D01*
X12132707Y-14847348D02*
X12151755Y-14837824D01*
X12151755Y-14837824D02*
X12189850Y-14837824D01*
X12189850Y-14837824D02*
X12208898Y-14847348D01*
X12208898Y-14847348D02*
X12218422Y-14856871D01*
X12218422Y-14856871D02*
X12227945Y-14875919D01*
X12227945Y-14875919D02*
X12227945Y-14885443D01*
X12227945Y-14885443D02*
X12218422Y-14904490D01*
X12218422Y-14904490D02*
X12208898Y-14914014D01*
X12208898Y-14914014D02*
X12189850Y-14923538D01*
X12189850Y-14923538D02*
X12151755Y-14923538D01*
X12151755Y-14923538D02*
X12132707Y-14933062D01*
X12132707Y-14933062D02*
X12123184Y-14942586D01*
X12123184Y-14942586D02*
X12113660Y-14961633D01*
X12113660Y-14961633D02*
X12113660Y-14999728D01*
X12113660Y-14999728D02*
X12123184Y-15018776D01*
X12123184Y-15018776D02*
X12132707Y-15028300D01*
X12132707Y-15028300D02*
X12151755Y-15037824D01*
X12151755Y-15037824D02*
X12189850Y-15037824D01*
X12189850Y-15037824D02*
X12208898Y-15028300D01*
X12208898Y-15028300D02*
X12218422Y-15018776D01*
X12218422Y-15018776D02*
X12227945Y-14999728D01*
X12227945Y-14999728D02*
X12227945Y-14961633D01*
X12227945Y-14961633D02*
X12218422Y-14942586D01*
X12218422Y-14942586D02*
X12208898Y-14933062D01*
X12208898Y-14933062D02*
X12189850Y-14923538D01*
X12304136Y-14837824D02*
X12304136Y-14875919D01*
X12380326Y-14837824D02*
X12380326Y-14875919D01*
X12675565Y-15114014D02*
X12666041Y-15104490D01*
X12666041Y-15104490D02*
X12646993Y-15075919D01*
X12646993Y-15075919D02*
X12637469Y-15056871D01*
X12637469Y-15056871D02*
X12627946Y-15028300D01*
X12627946Y-15028300D02*
X12618422Y-14980681D01*
X12618422Y-14980681D02*
X12618422Y-14942586D01*
X12618422Y-14942586D02*
X12627946Y-14894967D01*
X12627946Y-14894967D02*
X12637469Y-14866395D01*
X12637469Y-14866395D02*
X12646993Y-14847348D01*
X12646993Y-14847348D02*
X12666041Y-14818776D01*
X12666041Y-14818776D02*
X12675565Y-14809252D01*
X12780326Y-14923538D02*
X12761279Y-14914014D01*
X12761279Y-14914014D02*
X12751755Y-14904490D01*
X12751755Y-14904490D02*
X12742231Y-14885443D01*
X12742231Y-14885443D02*
X12742231Y-14875919D01*
X12742231Y-14875919D02*
X12751755Y-14856871D01*
X12751755Y-14856871D02*
X12761279Y-14847348D01*
X12761279Y-14847348D02*
X12780326Y-14837824D01*
X12780326Y-14837824D02*
X12818422Y-14837824D01*
X12818422Y-14837824D02*
X12837469Y-14847348D01*
X12837469Y-14847348D02*
X12846993Y-14856871D01*
X12846993Y-14856871D02*
X12856517Y-14875919D01*
X12856517Y-14875919D02*
X12856517Y-14885443D01*
X12856517Y-14885443D02*
X12846993Y-14904490D01*
X12846993Y-14904490D02*
X12837469Y-14914014D01*
X12837469Y-14914014D02*
X12818422Y-14923538D01*
X12818422Y-14923538D02*
X12780326Y-14923538D01*
X12780326Y-14923538D02*
X12761279Y-14933062D01*
X12761279Y-14933062D02*
X12751755Y-14942586D01*
X12751755Y-14942586D02*
X12742231Y-14961633D01*
X12742231Y-14961633D02*
X12742231Y-14999728D01*
X12742231Y-14999728D02*
X12751755Y-15018776D01*
X12751755Y-15018776D02*
X12761279Y-15028300D01*
X12761279Y-15028300D02*
X12780326Y-15037824D01*
X12780326Y-15037824D02*
X12818422Y-15037824D01*
X12818422Y-15037824D02*
X12837469Y-15028300D01*
X12837469Y-15028300D02*
X12846993Y-15018776D01*
X12846993Y-15018776D02*
X12856517Y-14999728D01*
X12856517Y-14999728D02*
X12856517Y-14961633D01*
X12856517Y-14961633D02*
X12846993Y-14942586D01*
X12846993Y-14942586D02*
X12837469Y-14933062D01*
X12837469Y-14933062D02*
X12818422Y-14923538D01*
X13027946Y-14904490D02*
X13027946Y-15037824D01*
X12980326Y-14828300D02*
X12932707Y-14971157D01*
X12932707Y-14971157D02*
X13056517Y-14971157D01*
X13285088Y-15037824D02*
X13285088Y-14837824D01*
X13370803Y-15037824D02*
X13370803Y-14933062D01*
X13370803Y-14933062D02*
X13361279Y-14914014D01*
X13361279Y-14914014D02*
X13342231Y-14904490D01*
X13342231Y-14904490D02*
X13313660Y-14904490D01*
X13313660Y-14904490D02*
X13294612Y-14914014D01*
X13294612Y-14914014D02*
X13285088Y-14923538D01*
X13494612Y-15037824D02*
X13475565Y-15028300D01*
X13475565Y-15028300D02*
X13466041Y-15018776D01*
X13466041Y-15018776D02*
X13456517Y-14999728D01*
X13456517Y-14999728D02*
X13456517Y-14942586D01*
X13456517Y-14942586D02*
X13466041Y-14923538D01*
X13466041Y-14923538D02*
X13475565Y-14914014D01*
X13475565Y-14914014D02*
X13494612Y-14904490D01*
X13494612Y-14904490D02*
X13523184Y-14904490D01*
X13523184Y-14904490D02*
X13542231Y-14914014D01*
X13542231Y-14914014D02*
X13551755Y-14923538D01*
X13551755Y-14923538D02*
X13561279Y-14942586D01*
X13561279Y-14942586D02*
X13561279Y-14999728D01*
X13561279Y-14999728D02*
X13551755Y-15018776D01*
X13551755Y-15018776D02*
X13542231Y-15028300D01*
X13542231Y-15028300D02*
X13523184Y-15037824D01*
X13523184Y-15037824D02*
X13494612Y-15037824D01*
X13675565Y-15037824D02*
X13656517Y-15028300D01*
X13656517Y-15028300D02*
X13646993Y-15009252D01*
X13646993Y-15009252D02*
X13646993Y-14837824D01*
X13827946Y-15028300D02*
X13808898Y-15037824D01*
X13808898Y-15037824D02*
X13770803Y-15037824D01*
X13770803Y-15037824D02*
X13751755Y-15028300D01*
X13751755Y-15028300D02*
X13742231Y-15009252D01*
X13742231Y-15009252D02*
X13742231Y-14933062D01*
X13742231Y-14933062D02*
X13751755Y-14914014D01*
X13751755Y-14914014D02*
X13770803Y-14904490D01*
X13770803Y-14904490D02*
X13808898Y-14904490D01*
X13808898Y-14904490D02*
X13827946Y-14914014D01*
X13827946Y-14914014D02*
X13837469Y-14933062D01*
X13837469Y-14933062D02*
X13837469Y-14952109D01*
X13837469Y-14952109D02*
X13742231Y-14971157D01*
X13913660Y-15028300D02*
X13932708Y-15037824D01*
X13932708Y-15037824D02*
X13970803Y-15037824D01*
X13970803Y-15037824D02*
X13989850Y-15028300D01*
X13989850Y-15028300D02*
X13999374Y-15009252D01*
X13999374Y-15009252D02*
X13999374Y-14999728D01*
X13999374Y-14999728D02*
X13989850Y-14980681D01*
X13989850Y-14980681D02*
X13970803Y-14971157D01*
X13970803Y-14971157D02*
X13942231Y-14971157D01*
X13942231Y-14971157D02*
X13923184Y-14961633D01*
X13923184Y-14961633D02*
X13913660Y-14942586D01*
X13913660Y-14942586D02*
X13913660Y-14933062D01*
X13913660Y-14933062D02*
X13923184Y-14914014D01*
X13923184Y-14914014D02*
X13942231Y-14904490D01*
X13942231Y-14904490D02*
X13970803Y-14904490D01*
X13970803Y-14904490D02*
X13989850Y-14914014D01*
X14066041Y-15114014D02*
X14075565Y-15104490D01*
X14075565Y-15104490D02*
X14094612Y-15075919D01*
X14094612Y-15075919D02*
X14104136Y-15056871D01*
X14104136Y-15056871D02*
X14113660Y-15028300D01*
X14113660Y-15028300D02*
X14123184Y-14980681D01*
X14123184Y-14980681D02*
X14123184Y-14942586D01*
X14123184Y-14942586D02*
X14113660Y-14894967D01*
X14113660Y-14894967D02*
X14104136Y-14866395D01*
X14104136Y-14866395D02*
X14094612Y-14847348D01*
X14094612Y-14847348D02*
X14075565Y-14818776D01*
X14075565Y-14818776D02*
X14066041Y-14809252D01*
X14427946Y-15114014D02*
X14418422Y-15104490D01*
X14418422Y-15104490D02*
X14399374Y-15075919D01*
X14399374Y-15075919D02*
X14389850Y-15056871D01*
X14389850Y-15056871D02*
X14380327Y-15028300D01*
X14380327Y-15028300D02*
X14370803Y-14980681D01*
X14370803Y-14980681D02*
X14370803Y-14942586D01*
X14370803Y-14942586D02*
X14380327Y-14894967D01*
X14380327Y-14894967D02*
X14389850Y-14866395D01*
X14389850Y-14866395D02*
X14399374Y-14847348D01*
X14399374Y-14847348D02*
X14418422Y-14818776D01*
X14418422Y-14818776D02*
X14427946Y-14809252D01*
X14504136Y-14904490D02*
X14504136Y-15037824D01*
X14504136Y-14923538D02*
X14513660Y-14914014D01*
X14513660Y-14914014D02*
X14532708Y-14904490D01*
X14532708Y-14904490D02*
X14561279Y-14904490D01*
X14561279Y-14904490D02*
X14580327Y-14914014D01*
X14580327Y-14914014D02*
X14589850Y-14933062D01*
X14589850Y-14933062D02*
X14589850Y-15037824D01*
X14713660Y-15037824D02*
X14694612Y-15028300D01*
X14694612Y-15028300D02*
X14685089Y-15018776D01*
X14685089Y-15018776D02*
X14675565Y-14999728D01*
X14675565Y-14999728D02*
X14675565Y-14942586D01*
X14675565Y-14942586D02*
X14685089Y-14923538D01*
X14685089Y-14923538D02*
X14694612Y-14914014D01*
X14694612Y-14914014D02*
X14713660Y-14904490D01*
X14713660Y-14904490D02*
X14742231Y-14904490D01*
X14742231Y-14904490D02*
X14761279Y-14914014D01*
X14761279Y-14914014D02*
X14770803Y-14923538D01*
X14770803Y-14923538D02*
X14780327Y-14942586D01*
X14780327Y-14942586D02*
X14780327Y-14999728D01*
X14780327Y-14999728D02*
X14770803Y-15018776D01*
X14770803Y-15018776D02*
X14761279Y-15028300D01*
X14761279Y-15028300D02*
X14742231Y-15037824D01*
X14742231Y-15037824D02*
X14713660Y-15037824D01*
X14837470Y-14904490D02*
X14913660Y-14904490D01*
X14866041Y-14837824D02*
X14866041Y-15009252D01*
X14866041Y-15009252D02*
X14875565Y-15028300D01*
X14875565Y-15028300D02*
X14894612Y-15037824D01*
X14894612Y-15037824D02*
X14913660Y-15037824D01*
X15132708Y-14904490D02*
X15132708Y-15104490D01*
X15132708Y-14914014D02*
X15151755Y-14904490D01*
X15151755Y-14904490D02*
X15189851Y-14904490D01*
X15189851Y-14904490D02*
X15208898Y-14914014D01*
X15208898Y-14914014D02*
X15218422Y-14923538D01*
X15218422Y-14923538D02*
X15227946Y-14942586D01*
X15227946Y-14942586D02*
X15227946Y-14999728D01*
X15227946Y-14999728D02*
X15218422Y-15018776D01*
X15218422Y-15018776D02*
X15208898Y-15028300D01*
X15208898Y-15028300D02*
X15189851Y-15037824D01*
X15189851Y-15037824D02*
X15151755Y-15037824D01*
X15151755Y-15037824D02*
X15132708Y-15028300D01*
X15342231Y-15037824D02*
X15323184Y-15028300D01*
X15323184Y-15028300D02*
X15313660Y-15009252D01*
X15313660Y-15009252D02*
X15313660Y-14837824D01*
X15504136Y-15037824D02*
X15504136Y-14933062D01*
X15504136Y-14933062D02*
X15494612Y-14914014D01*
X15494612Y-14914014D02*
X15475565Y-14904490D01*
X15475565Y-14904490D02*
X15437470Y-14904490D01*
X15437470Y-14904490D02*
X15418422Y-14914014D01*
X15504136Y-15028300D02*
X15485089Y-15037824D01*
X15485089Y-15037824D02*
X15437470Y-15037824D01*
X15437470Y-15037824D02*
X15418422Y-15028300D01*
X15418422Y-15028300D02*
X15408898Y-15009252D01*
X15408898Y-15009252D02*
X15408898Y-14990205D01*
X15408898Y-14990205D02*
X15418422Y-14971157D01*
X15418422Y-14971157D02*
X15437470Y-14961633D01*
X15437470Y-14961633D02*
X15485089Y-14961633D01*
X15485089Y-14961633D02*
X15504136Y-14952109D01*
X15570803Y-14904490D02*
X15646993Y-14904490D01*
X15599374Y-14837824D02*
X15599374Y-15009252D01*
X15599374Y-15009252D02*
X15608898Y-15028300D01*
X15608898Y-15028300D02*
X15627946Y-15037824D01*
X15627946Y-15037824D02*
X15646993Y-15037824D01*
X15789851Y-15028300D02*
X15770803Y-15037824D01*
X15770803Y-15037824D02*
X15732708Y-15037824D01*
X15732708Y-15037824D02*
X15713660Y-15028300D01*
X15713660Y-15028300D02*
X15704136Y-15009252D01*
X15704136Y-15009252D02*
X15704136Y-14933062D01*
X15704136Y-14933062D02*
X15713660Y-14914014D01*
X15713660Y-14914014D02*
X15732708Y-14904490D01*
X15732708Y-14904490D02*
X15770803Y-14904490D01*
X15770803Y-14904490D02*
X15789851Y-14914014D01*
X15789851Y-14914014D02*
X15799374Y-14933062D01*
X15799374Y-14933062D02*
X15799374Y-14952109D01*
X15799374Y-14952109D02*
X15704136Y-14971157D01*
X15970803Y-15037824D02*
X15970803Y-14837824D01*
X15970803Y-15028300D02*
X15951755Y-15037824D01*
X15951755Y-15037824D02*
X15913660Y-15037824D01*
X15913660Y-15037824D02*
X15894612Y-15028300D01*
X15894612Y-15028300D02*
X15885089Y-15018776D01*
X15885089Y-15018776D02*
X15875565Y-14999728D01*
X15875565Y-14999728D02*
X15875565Y-14942586D01*
X15875565Y-14942586D02*
X15885089Y-14923538D01*
X15885089Y-14923538D02*
X15894612Y-14914014D01*
X15894612Y-14914014D02*
X15913660Y-14904490D01*
X15913660Y-14904490D02*
X15951755Y-14904490D01*
X15951755Y-14904490D02*
X15970803Y-14914014D01*
X16046993Y-15114014D02*
X16056517Y-15104490D01*
X16056517Y-15104490D02*
X16075565Y-15075919D01*
X16075565Y-15075919D02*
X16085089Y-15056871D01*
X16085089Y-15056871D02*
X16094612Y-15028300D01*
X16094612Y-15028300D02*
X16104136Y-14980681D01*
X16104136Y-14980681D02*
X16104136Y-14942586D01*
X16104136Y-14942586D02*
X16094612Y-14894967D01*
X16094612Y-14894967D02*
X16085089Y-14866395D01*
X16085089Y-14866395D02*
X16075565Y-14847348D01*
X16075565Y-14847348D02*
X16056517Y-14818776D01*
X16056517Y-14818776D02*
X16046993Y-14809252D01*
X9071213Y-15327051D02*
X9071213Y-15185629D01*
X8929790Y-15185629D01*
X8929790Y-15327051D01*
X9071213Y-15327051D01*
X9351755Y-15166871D02*
X9361279Y-15157348D01*
X9361279Y-15157348D02*
X9380326Y-15147824D01*
X9380326Y-15147824D02*
X9427945Y-15147824D01*
X9427945Y-15147824D02*
X9446993Y-15157348D01*
X9446993Y-15157348D02*
X9456517Y-15166871D01*
X9456517Y-15166871D02*
X9466041Y-15185919D01*
X9466041Y-15185919D02*
X9466041Y-15204967D01*
X9466041Y-15204967D02*
X9456517Y-15233538D01*
X9456517Y-15233538D02*
X9342231Y-15347824D01*
X9342231Y-15347824D02*
X9466041Y-15347824D01*
X9551755Y-15328776D02*
X9561279Y-15338300D01*
X9561279Y-15338300D02*
X9551755Y-15347824D01*
X9551755Y-15347824D02*
X9542231Y-15338300D01*
X9542231Y-15338300D02*
X9551755Y-15328776D01*
X9551755Y-15328776D02*
X9551755Y-15347824D01*
X9637469Y-15166871D02*
X9646993Y-15157348D01*
X9646993Y-15157348D02*
X9666041Y-15147824D01*
X9666041Y-15147824D02*
X9713660Y-15147824D01*
X9713660Y-15147824D02*
X9732707Y-15157348D01*
X9732707Y-15157348D02*
X9742231Y-15166871D01*
X9742231Y-15166871D02*
X9751755Y-15185919D01*
X9751755Y-15185919D02*
X9751755Y-15204967D01*
X9751755Y-15204967D02*
X9742231Y-15233538D01*
X9742231Y-15233538D02*
X9627945Y-15347824D01*
X9627945Y-15347824D02*
X9751755Y-15347824D01*
X9875564Y-15147824D02*
X9894612Y-15147824D01*
X9894612Y-15147824D02*
X9913660Y-15157348D01*
X9913660Y-15157348D02*
X9923183Y-15166871D01*
X9923183Y-15166871D02*
X9932707Y-15185919D01*
X9932707Y-15185919D02*
X9942231Y-15224014D01*
X9942231Y-15224014D02*
X9942231Y-15271633D01*
X9942231Y-15271633D02*
X9932707Y-15309728D01*
X9932707Y-15309728D02*
X9923183Y-15328776D01*
X9923183Y-15328776D02*
X9913660Y-15338300D01*
X9913660Y-15338300D02*
X9894612Y-15347824D01*
X9894612Y-15347824D02*
X9875564Y-15347824D01*
X9875564Y-15347824D02*
X9856517Y-15338300D01*
X9856517Y-15338300D02*
X9846993Y-15328776D01*
X9846993Y-15328776D02*
X9837469Y-15309728D01*
X9837469Y-15309728D02*
X9827945Y-15271633D01*
X9827945Y-15271633D02*
X9827945Y-15224014D01*
X9827945Y-15224014D02*
X9837469Y-15185919D01*
X9837469Y-15185919D02*
X9846993Y-15166871D01*
X9846993Y-15166871D02*
X9856517Y-15157348D01*
X9856517Y-15157348D02*
X9875564Y-15147824D01*
X10066041Y-15147824D02*
X10085088Y-15147824D01*
X10085088Y-15147824D02*
X10104136Y-15157348D01*
X10104136Y-15157348D02*
X10113660Y-15166871D01*
X10113660Y-15166871D02*
X10123183Y-15185919D01*
X10123183Y-15185919D02*
X10132707Y-15224014D01*
X10132707Y-15224014D02*
X10132707Y-15271633D01*
X10132707Y-15271633D02*
X10123183Y-15309728D01*
X10123183Y-15309728D02*
X10113660Y-15328776D01*
X10113660Y-15328776D02*
X10104136Y-15338300D01*
X10104136Y-15338300D02*
X10085088Y-15347824D01*
X10085088Y-15347824D02*
X10066041Y-15347824D01*
X10066041Y-15347824D02*
X10046993Y-15338300D01*
X10046993Y-15338300D02*
X10037469Y-15328776D01*
X10037469Y-15328776D02*
X10027945Y-15309728D01*
X10027945Y-15309728D02*
X10018422Y-15271633D01*
X10018422Y-15271633D02*
X10018422Y-15224014D01*
X10018422Y-15224014D02*
X10027945Y-15185919D01*
X10027945Y-15185919D02*
X10037469Y-15166871D01*
X10037469Y-15166871D02*
X10046993Y-15157348D01*
X10046993Y-15157348D02*
X10066041Y-15147824D01*
X10218422Y-15347824D02*
X10218422Y-15214490D01*
X10218422Y-15233538D02*
X10227945Y-15224014D01*
X10227945Y-15224014D02*
X10246993Y-15214490D01*
X10246993Y-15214490D02*
X10275564Y-15214490D01*
X10275564Y-15214490D02*
X10294612Y-15224014D01*
X10294612Y-15224014D02*
X10304136Y-15243062D01*
X10304136Y-15243062D02*
X10304136Y-15347824D01*
X10304136Y-15243062D02*
X10313660Y-15224014D01*
X10313660Y-15224014D02*
X10332707Y-15214490D01*
X10332707Y-15214490D02*
X10361279Y-15214490D01*
X10361279Y-15214490D02*
X10380326Y-15224014D01*
X10380326Y-15224014D02*
X10389850Y-15243062D01*
X10389850Y-15243062D02*
X10389850Y-15347824D01*
X10485088Y-15347824D02*
X10485088Y-15214490D01*
X10485088Y-15233538D02*
X10494612Y-15224014D01*
X10494612Y-15224014D02*
X10513660Y-15214490D01*
X10513660Y-15214490D02*
X10542231Y-15214490D01*
X10542231Y-15214490D02*
X10561279Y-15224014D01*
X10561279Y-15224014D02*
X10570803Y-15243062D01*
X10570803Y-15243062D02*
X10570803Y-15347824D01*
X10570803Y-15243062D02*
X10580326Y-15224014D01*
X10580326Y-15224014D02*
X10599374Y-15214490D01*
X10599374Y-15214490D02*
X10627945Y-15214490D01*
X10627945Y-15214490D02*
X10646993Y-15224014D01*
X10646993Y-15224014D02*
X10656517Y-15243062D01*
X10656517Y-15243062D02*
X10656517Y-15347824D01*
X11046993Y-15138300D02*
X10875565Y-15395443D01*
X11304136Y-15147824D02*
X11323184Y-15147824D01*
X11323184Y-15147824D02*
X11342231Y-15157348D01*
X11342231Y-15157348D02*
X11351755Y-15166871D01*
X11351755Y-15166871D02*
X11361279Y-15185919D01*
X11361279Y-15185919D02*
X11370803Y-15224014D01*
X11370803Y-15224014D02*
X11370803Y-15271633D01*
X11370803Y-15271633D02*
X11361279Y-15309728D01*
X11361279Y-15309728D02*
X11351755Y-15328776D01*
X11351755Y-15328776D02*
X11342231Y-15338300D01*
X11342231Y-15338300D02*
X11323184Y-15347824D01*
X11323184Y-15347824D02*
X11304136Y-15347824D01*
X11304136Y-15347824D02*
X11285088Y-15338300D01*
X11285088Y-15338300D02*
X11275564Y-15328776D01*
X11275564Y-15328776D02*
X11266041Y-15309728D01*
X11266041Y-15309728D02*
X11256517Y-15271633D01*
X11256517Y-15271633D02*
X11256517Y-15224014D01*
X11256517Y-15224014D02*
X11266041Y-15185919D01*
X11266041Y-15185919D02*
X11275564Y-15166871D01*
X11275564Y-15166871D02*
X11285088Y-15157348D01*
X11285088Y-15157348D02*
X11304136Y-15147824D01*
X11456517Y-15328776D02*
X11466041Y-15338300D01*
X11466041Y-15338300D02*
X11456517Y-15347824D01*
X11456517Y-15347824D02*
X11446993Y-15338300D01*
X11446993Y-15338300D02*
X11456517Y-15328776D01*
X11456517Y-15328776D02*
X11456517Y-15347824D01*
X11589850Y-15147824D02*
X11608898Y-15147824D01*
X11608898Y-15147824D02*
X11627945Y-15157348D01*
X11627945Y-15157348D02*
X11637469Y-15166871D01*
X11637469Y-15166871D02*
X11646993Y-15185919D01*
X11646993Y-15185919D02*
X11656517Y-15224014D01*
X11656517Y-15224014D02*
X11656517Y-15271633D01*
X11656517Y-15271633D02*
X11646993Y-15309728D01*
X11646993Y-15309728D02*
X11637469Y-15328776D01*
X11637469Y-15328776D02*
X11627945Y-15338300D01*
X11627945Y-15338300D02*
X11608898Y-15347824D01*
X11608898Y-15347824D02*
X11589850Y-15347824D01*
X11589850Y-15347824D02*
X11570803Y-15338300D01*
X11570803Y-15338300D02*
X11561279Y-15328776D01*
X11561279Y-15328776D02*
X11551755Y-15309728D01*
X11551755Y-15309728D02*
X11542231Y-15271633D01*
X11542231Y-15271633D02*
X11542231Y-15224014D01*
X11542231Y-15224014D02*
X11551755Y-15185919D01*
X11551755Y-15185919D02*
X11561279Y-15166871D01*
X11561279Y-15166871D02*
X11570803Y-15157348D01*
X11570803Y-15157348D02*
X11589850Y-15147824D01*
X11770803Y-15233538D02*
X11751755Y-15224014D01*
X11751755Y-15224014D02*
X11742231Y-15214490D01*
X11742231Y-15214490D02*
X11732707Y-15195443D01*
X11732707Y-15195443D02*
X11732707Y-15185919D01*
X11732707Y-15185919D02*
X11742231Y-15166871D01*
X11742231Y-15166871D02*
X11751755Y-15157348D01*
X11751755Y-15157348D02*
X11770803Y-15147824D01*
X11770803Y-15147824D02*
X11808898Y-15147824D01*
X11808898Y-15147824D02*
X11827945Y-15157348D01*
X11827945Y-15157348D02*
X11837469Y-15166871D01*
X11837469Y-15166871D02*
X11846993Y-15185919D01*
X11846993Y-15185919D02*
X11846993Y-15195443D01*
X11846993Y-15195443D02*
X11837469Y-15214490D01*
X11837469Y-15214490D02*
X11827945Y-15224014D01*
X11827945Y-15224014D02*
X11808898Y-15233538D01*
X11808898Y-15233538D02*
X11770803Y-15233538D01*
X11770803Y-15233538D02*
X11751755Y-15243062D01*
X11751755Y-15243062D02*
X11742231Y-15252586D01*
X11742231Y-15252586D02*
X11732707Y-15271633D01*
X11732707Y-15271633D02*
X11732707Y-15309728D01*
X11732707Y-15309728D02*
X11742231Y-15328776D01*
X11742231Y-15328776D02*
X11751755Y-15338300D01*
X11751755Y-15338300D02*
X11770803Y-15347824D01*
X11770803Y-15347824D02*
X11808898Y-15347824D01*
X11808898Y-15347824D02*
X11827945Y-15338300D01*
X11827945Y-15338300D02*
X11837469Y-15328776D01*
X11837469Y-15328776D02*
X11846993Y-15309728D01*
X11846993Y-15309728D02*
X11846993Y-15271633D01*
X11846993Y-15271633D02*
X11837469Y-15252586D01*
X11837469Y-15252586D02*
X11827945Y-15243062D01*
X11827945Y-15243062D02*
X11808898Y-15233538D01*
X12018422Y-15147824D02*
X11980326Y-15147824D01*
X11980326Y-15147824D02*
X11961279Y-15157348D01*
X11961279Y-15157348D02*
X11951755Y-15166871D01*
X11951755Y-15166871D02*
X11932707Y-15195443D01*
X11932707Y-15195443D02*
X11923184Y-15233538D01*
X11923184Y-15233538D02*
X11923184Y-15309728D01*
X11923184Y-15309728D02*
X11932707Y-15328776D01*
X11932707Y-15328776D02*
X11942231Y-15338300D01*
X11942231Y-15338300D02*
X11961279Y-15347824D01*
X11961279Y-15347824D02*
X11999374Y-15347824D01*
X11999374Y-15347824D02*
X12018422Y-15338300D01*
X12018422Y-15338300D02*
X12027945Y-15328776D01*
X12027945Y-15328776D02*
X12037469Y-15309728D01*
X12037469Y-15309728D02*
X12037469Y-15262109D01*
X12037469Y-15262109D02*
X12027945Y-15243062D01*
X12027945Y-15243062D02*
X12018422Y-15233538D01*
X12018422Y-15233538D02*
X11999374Y-15224014D01*
X11999374Y-15224014D02*
X11961279Y-15224014D01*
X11961279Y-15224014D02*
X11942231Y-15233538D01*
X11942231Y-15233538D02*
X11932707Y-15243062D01*
X11932707Y-15243062D02*
X11923184Y-15262109D01*
X12208898Y-15147824D02*
X12170803Y-15147824D01*
X12170803Y-15147824D02*
X12151755Y-15157348D01*
X12151755Y-15157348D02*
X12142231Y-15166871D01*
X12142231Y-15166871D02*
X12123184Y-15195443D01*
X12123184Y-15195443D02*
X12113660Y-15233538D01*
X12113660Y-15233538D02*
X12113660Y-15309728D01*
X12113660Y-15309728D02*
X12123184Y-15328776D01*
X12123184Y-15328776D02*
X12132707Y-15338300D01*
X12132707Y-15338300D02*
X12151755Y-15347824D01*
X12151755Y-15347824D02*
X12189850Y-15347824D01*
X12189850Y-15347824D02*
X12208898Y-15338300D01*
X12208898Y-15338300D02*
X12218422Y-15328776D01*
X12218422Y-15328776D02*
X12227945Y-15309728D01*
X12227945Y-15309728D02*
X12227945Y-15262109D01*
X12227945Y-15262109D02*
X12218422Y-15243062D01*
X12218422Y-15243062D02*
X12208898Y-15233538D01*
X12208898Y-15233538D02*
X12189850Y-15224014D01*
X12189850Y-15224014D02*
X12151755Y-15224014D01*
X12151755Y-15224014D02*
X12132707Y-15233538D01*
X12132707Y-15233538D02*
X12123184Y-15243062D01*
X12123184Y-15243062D02*
X12113660Y-15262109D01*
X12304136Y-15147824D02*
X12304136Y-15185919D01*
X12380326Y-15147824D02*
X12380326Y-15185919D01*
X12675565Y-15424014D02*
X12666041Y-15414490D01*
X12666041Y-15414490D02*
X12646993Y-15385919D01*
X12646993Y-15385919D02*
X12637469Y-15366871D01*
X12637469Y-15366871D02*
X12627946Y-15338300D01*
X12627946Y-15338300D02*
X12618422Y-15290681D01*
X12618422Y-15290681D02*
X12618422Y-15252586D01*
X12618422Y-15252586D02*
X12627946Y-15204967D01*
X12627946Y-15204967D02*
X12637469Y-15176395D01*
X12637469Y-15176395D02*
X12646993Y-15157348D01*
X12646993Y-15157348D02*
X12666041Y-15128776D01*
X12666041Y-15128776D02*
X12675565Y-15119252D01*
X12742231Y-15166871D02*
X12751755Y-15157348D01*
X12751755Y-15157348D02*
X12770803Y-15147824D01*
X12770803Y-15147824D02*
X12818422Y-15147824D01*
X12818422Y-15147824D02*
X12837469Y-15157348D01*
X12837469Y-15157348D02*
X12846993Y-15166871D01*
X12846993Y-15166871D02*
X12856517Y-15185919D01*
X12856517Y-15185919D02*
X12856517Y-15204967D01*
X12856517Y-15204967D02*
X12846993Y-15233538D01*
X12846993Y-15233538D02*
X12732707Y-15347824D01*
X12732707Y-15347824D02*
X12856517Y-15347824D01*
X13094612Y-15347824D02*
X13094612Y-15147824D01*
X13180327Y-15347824D02*
X13180327Y-15243062D01*
X13180327Y-15243062D02*
X13170803Y-15224014D01*
X13170803Y-15224014D02*
X13151755Y-15214490D01*
X13151755Y-15214490D02*
X13123184Y-15214490D01*
X13123184Y-15214490D02*
X13104136Y-15224014D01*
X13104136Y-15224014D02*
X13094612Y-15233538D01*
X13304136Y-15347824D02*
X13285088Y-15338300D01*
X13285088Y-15338300D02*
X13275565Y-15328776D01*
X13275565Y-15328776D02*
X13266041Y-15309728D01*
X13266041Y-15309728D02*
X13266041Y-15252586D01*
X13266041Y-15252586D02*
X13275565Y-15233538D01*
X13275565Y-15233538D02*
X13285088Y-15224014D01*
X13285088Y-15224014D02*
X13304136Y-15214490D01*
X13304136Y-15214490D02*
X13332708Y-15214490D01*
X13332708Y-15214490D02*
X13351755Y-15224014D01*
X13351755Y-15224014D02*
X13361279Y-15233538D01*
X13361279Y-15233538D02*
X13370803Y-15252586D01*
X13370803Y-15252586D02*
X13370803Y-15309728D01*
X13370803Y-15309728D02*
X13361279Y-15328776D01*
X13361279Y-15328776D02*
X13351755Y-15338300D01*
X13351755Y-15338300D02*
X13332708Y-15347824D01*
X13332708Y-15347824D02*
X13304136Y-15347824D01*
X13485088Y-15347824D02*
X13466041Y-15338300D01*
X13466041Y-15338300D02*
X13456517Y-15319252D01*
X13456517Y-15319252D02*
X13456517Y-15147824D01*
X13637469Y-15338300D02*
X13618422Y-15347824D01*
X13618422Y-15347824D02*
X13580327Y-15347824D01*
X13580327Y-15347824D02*
X13561279Y-15338300D01*
X13561279Y-15338300D02*
X13551755Y-15319252D01*
X13551755Y-15319252D02*
X13551755Y-15243062D01*
X13551755Y-15243062D02*
X13561279Y-15224014D01*
X13561279Y-15224014D02*
X13580327Y-15214490D01*
X13580327Y-15214490D02*
X13618422Y-15214490D01*
X13618422Y-15214490D02*
X13637469Y-15224014D01*
X13637469Y-15224014D02*
X13646993Y-15243062D01*
X13646993Y-15243062D02*
X13646993Y-15262109D01*
X13646993Y-15262109D02*
X13551755Y-15281157D01*
X13723184Y-15338300D02*
X13742231Y-15347824D01*
X13742231Y-15347824D02*
X13780327Y-15347824D01*
X13780327Y-15347824D02*
X13799374Y-15338300D01*
X13799374Y-15338300D02*
X13808898Y-15319252D01*
X13808898Y-15319252D02*
X13808898Y-15309728D01*
X13808898Y-15309728D02*
X13799374Y-15290681D01*
X13799374Y-15290681D02*
X13780327Y-15281157D01*
X13780327Y-15281157D02*
X13751755Y-15281157D01*
X13751755Y-15281157D02*
X13732708Y-15271633D01*
X13732708Y-15271633D02*
X13723184Y-15252586D01*
X13723184Y-15252586D02*
X13723184Y-15243062D01*
X13723184Y-15243062D02*
X13732708Y-15224014D01*
X13732708Y-15224014D02*
X13751755Y-15214490D01*
X13751755Y-15214490D02*
X13780327Y-15214490D01*
X13780327Y-15214490D02*
X13799374Y-15224014D01*
X13875565Y-15424014D02*
X13885089Y-15414490D01*
X13885089Y-15414490D02*
X13904136Y-15385919D01*
X13904136Y-15385919D02*
X13913660Y-15366871D01*
X13913660Y-15366871D02*
X13923184Y-15338300D01*
X13923184Y-15338300D02*
X13932708Y-15290681D01*
X13932708Y-15290681D02*
X13932708Y-15252586D01*
X13932708Y-15252586D02*
X13923184Y-15204967D01*
X13923184Y-15204967D02*
X13913660Y-15176395D01*
X13913660Y-15176395D02*
X13904136Y-15157348D01*
X13904136Y-15157348D02*
X13885089Y-15128776D01*
X13885089Y-15128776D02*
X13875565Y-15119252D01*
X14237470Y-15424014D02*
X14227946Y-15414490D01*
X14227946Y-15414490D02*
X14208898Y-15385919D01*
X14208898Y-15385919D02*
X14199374Y-15366871D01*
X14199374Y-15366871D02*
X14189850Y-15338300D01*
X14189850Y-15338300D02*
X14180327Y-15290681D01*
X14180327Y-15290681D02*
X14180327Y-15252586D01*
X14180327Y-15252586D02*
X14189850Y-15204967D01*
X14189850Y-15204967D02*
X14199374Y-15176395D01*
X14199374Y-15176395D02*
X14208898Y-15157348D01*
X14208898Y-15157348D02*
X14227946Y-15128776D01*
X14227946Y-15128776D02*
X14237470Y-15119252D01*
X14313660Y-15214490D02*
X14313660Y-15347824D01*
X14313660Y-15233538D02*
X14323184Y-15224014D01*
X14323184Y-15224014D02*
X14342231Y-15214490D01*
X14342231Y-15214490D02*
X14370803Y-15214490D01*
X14370803Y-15214490D02*
X14389850Y-15224014D01*
X14389850Y-15224014D02*
X14399374Y-15243062D01*
X14399374Y-15243062D02*
X14399374Y-15347824D01*
X14523184Y-15347824D02*
X14504136Y-15338300D01*
X14504136Y-15338300D02*
X14494612Y-15328776D01*
X14494612Y-15328776D02*
X14485089Y-15309728D01*
X14485089Y-15309728D02*
X14485089Y-15252586D01*
X14485089Y-15252586D02*
X14494612Y-15233538D01*
X14494612Y-15233538D02*
X14504136Y-15224014D01*
X14504136Y-15224014D02*
X14523184Y-15214490D01*
X14523184Y-15214490D02*
X14551755Y-15214490D01*
X14551755Y-15214490D02*
X14570803Y-15224014D01*
X14570803Y-15224014D02*
X14580327Y-15233538D01*
X14580327Y-15233538D02*
X14589850Y-15252586D01*
X14589850Y-15252586D02*
X14589850Y-15309728D01*
X14589850Y-15309728D02*
X14580327Y-15328776D01*
X14580327Y-15328776D02*
X14570803Y-15338300D01*
X14570803Y-15338300D02*
X14551755Y-15347824D01*
X14551755Y-15347824D02*
X14523184Y-15347824D01*
X14646993Y-15214490D02*
X14723184Y-15214490D01*
X14675565Y-15147824D02*
X14675565Y-15319252D01*
X14675565Y-15319252D02*
X14685089Y-15338300D01*
X14685089Y-15338300D02*
X14704136Y-15347824D01*
X14704136Y-15347824D02*
X14723184Y-15347824D01*
X14942231Y-15214490D02*
X14942231Y-15414490D01*
X14942231Y-15224014D02*
X14961279Y-15214490D01*
X14961279Y-15214490D02*
X14999374Y-15214490D01*
X14999374Y-15214490D02*
X15018422Y-15224014D01*
X15018422Y-15224014D02*
X15027946Y-15233538D01*
X15027946Y-15233538D02*
X15037470Y-15252586D01*
X15037470Y-15252586D02*
X15037470Y-15309728D01*
X15037470Y-15309728D02*
X15027946Y-15328776D01*
X15027946Y-15328776D02*
X15018422Y-15338300D01*
X15018422Y-15338300D02*
X14999374Y-15347824D01*
X14999374Y-15347824D02*
X14961279Y-15347824D01*
X14961279Y-15347824D02*
X14942231Y-15338300D01*
X15151755Y-15347824D02*
X15132708Y-15338300D01*
X15132708Y-15338300D02*
X15123184Y-15319252D01*
X15123184Y-15319252D02*
X15123184Y-15147824D01*
X15313660Y-15347824D02*
X15313660Y-15243062D01*
X15313660Y-15243062D02*
X15304136Y-15224014D01*
X15304136Y-15224014D02*
X15285089Y-15214490D01*
X15285089Y-15214490D02*
X15246993Y-15214490D01*
X15246993Y-15214490D02*
X15227946Y-15224014D01*
X15313660Y-15338300D02*
X15294612Y-15347824D01*
X15294612Y-15347824D02*
X15246993Y-15347824D01*
X15246993Y-15347824D02*
X15227946Y-15338300D01*
X15227946Y-15338300D02*
X15218422Y-15319252D01*
X15218422Y-15319252D02*
X15218422Y-15300205D01*
X15218422Y-15300205D02*
X15227946Y-15281157D01*
X15227946Y-15281157D02*
X15246993Y-15271633D01*
X15246993Y-15271633D02*
X15294612Y-15271633D01*
X15294612Y-15271633D02*
X15313660Y-15262109D01*
X15380327Y-15214490D02*
X15456517Y-15214490D01*
X15408898Y-15147824D02*
X15408898Y-15319252D01*
X15408898Y-15319252D02*
X15418422Y-15338300D01*
X15418422Y-15338300D02*
X15437470Y-15347824D01*
X15437470Y-15347824D02*
X15456517Y-15347824D01*
X15599374Y-15338300D02*
X15580327Y-15347824D01*
X15580327Y-15347824D02*
X15542231Y-15347824D01*
X15542231Y-15347824D02*
X15523184Y-15338300D01*
X15523184Y-15338300D02*
X15513660Y-15319252D01*
X15513660Y-15319252D02*
X15513660Y-15243062D01*
X15513660Y-15243062D02*
X15523184Y-15224014D01*
X15523184Y-15224014D02*
X15542231Y-15214490D01*
X15542231Y-15214490D02*
X15580327Y-15214490D01*
X15580327Y-15214490D02*
X15599374Y-15224014D01*
X15599374Y-15224014D02*
X15608898Y-15243062D01*
X15608898Y-15243062D02*
X15608898Y-15262109D01*
X15608898Y-15262109D02*
X15513660Y-15281157D01*
X15780327Y-15347824D02*
X15780327Y-15147824D01*
X15780327Y-15338300D02*
X15761279Y-15347824D01*
X15761279Y-15347824D02*
X15723184Y-15347824D01*
X15723184Y-15347824D02*
X15704136Y-15338300D01*
X15704136Y-15338300D02*
X15694612Y-15328776D01*
X15694612Y-15328776D02*
X15685089Y-15309728D01*
X15685089Y-15309728D02*
X15685089Y-15252586D01*
X15685089Y-15252586D02*
X15694612Y-15233538D01*
X15694612Y-15233538D02*
X15704136Y-15224014D01*
X15704136Y-15224014D02*
X15723184Y-15214490D01*
X15723184Y-15214490D02*
X15761279Y-15214490D01*
X15761279Y-15214490D02*
X15780327Y-15224014D01*
X15856517Y-15424014D02*
X15866041Y-15414490D01*
X15866041Y-15414490D02*
X15885089Y-15385919D01*
X15885089Y-15385919D02*
X15894612Y-15366871D01*
X15894612Y-15366871D02*
X15904136Y-15338300D01*
X15904136Y-15338300D02*
X15913660Y-15290681D01*
X15913660Y-15290681D02*
X15913660Y-15252586D01*
X15913660Y-15252586D02*
X15904136Y-15204967D01*
X15904136Y-15204967D02*
X15894612Y-15176395D01*
X15894612Y-15176395D02*
X15885089Y-15157348D01*
X15885089Y-15157348D02*
X15866041Y-15128776D01*
X15866041Y-15128776D02*
X15856517Y-15119252D01*
X9000502Y-15676340D02*
X9100502Y-15576340D01*
X9000502Y-15476340D01*
X8900502Y-15576340D01*
X9000502Y-15676340D01*
X9342231Y-15467824D02*
X9466041Y-15467824D01*
X9466041Y-15467824D02*
X9399374Y-15544014D01*
X9399374Y-15544014D02*
X9427945Y-15544014D01*
X9427945Y-15544014D02*
X9446993Y-15553538D01*
X9446993Y-15553538D02*
X9456517Y-15563062D01*
X9456517Y-15563062D02*
X9466041Y-15582109D01*
X9466041Y-15582109D02*
X9466041Y-15629728D01*
X9466041Y-15629728D02*
X9456517Y-15648776D01*
X9456517Y-15648776D02*
X9446993Y-15658300D01*
X9446993Y-15658300D02*
X9427945Y-15667824D01*
X9427945Y-15667824D02*
X9370802Y-15667824D01*
X9370802Y-15667824D02*
X9351755Y-15658300D01*
X9351755Y-15658300D02*
X9342231Y-15648776D01*
X9551755Y-15648776D02*
X9561279Y-15658300D01*
X9561279Y-15658300D02*
X9551755Y-15667824D01*
X9551755Y-15667824D02*
X9542231Y-15658300D01*
X9542231Y-15658300D02*
X9551755Y-15648776D01*
X9551755Y-15648776D02*
X9551755Y-15667824D01*
X9685088Y-15467824D02*
X9704136Y-15467824D01*
X9704136Y-15467824D02*
X9723183Y-15477348D01*
X9723183Y-15477348D02*
X9732707Y-15486871D01*
X9732707Y-15486871D02*
X9742231Y-15505919D01*
X9742231Y-15505919D02*
X9751755Y-15544014D01*
X9751755Y-15544014D02*
X9751755Y-15591633D01*
X9751755Y-15591633D02*
X9742231Y-15629728D01*
X9742231Y-15629728D02*
X9732707Y-15648776D01*
X9732707Y-15648776D02*
X9723183Y-15658300D01*
X9723183Y-15658300D02*
X9704136Y-15667824D01*
X9704136Y-15667824D02*
X9685088Y-15667824D01*
X9685088Y-15667824D02*
X9666041Y-15658300D01*
X9666041Y-15658300D02*
X9656517Y-15648776D01*
X9656517Y-15648776D02*
X9646993Y-15629728D01*
X9646993Y-15629728D02*
X9637469Y-15591633D01*
X9637469Y-15591633D02*
X9637469Y-15544014D01*
X9637469Y-15544014D02*
X9646993Y-15505919D01*
X9646993Y-15505919D02*
X9656517Y-15486871D01*
X9656517Y-15486871D02*
X9666041Y-15477348D01*
X9666041Y-15477348D02*
X9685088Y-15467824D01*
X9875564Y-15467824D02*
X9894612Y-15467824D01*
X9894612Y-15467824D02*
X9913660Y-15477348D01*
X9913660Y-15477348D02*
X9923183Y-15486871D01*
X9923183Y-15486871D02*
X9932707Y-15505919D01*
X9932707Y-15505919D02*
X9942231Y-15544014D01*
X9942231Y-15544014D02*
X9942231Y-15591633D01*
X9942231Y-15591633D02*
X9932707Y-15629728D01*
X9932707Y-15629728D02*
X9923183Y-15648776D01*
X9923183Y-15648776D02*
X9913660Y-15658300D01*
X9913660Y-15658300D02*
X9894612Y-15667824D01*
X9894612Y-15667824D02*
X9875564Y-15667824D01*
X9875564Y-15667824D02*
X9856517Y-15658300D01*
X9856517Y-15658300D02*
X9846993Y-15648776D01*
X9846993Y-15648776D02*
X9837469Y-15629728D01*
X9837469Y-15629728D02*
X9827945Y-15591633D01*
X9827945Y-15591633D02*
X9827945Y-15544014D01*
X9827945Y-15544014D02*
X9837469Y-15505919D01*
X9837469Y-15505919D02*
X9846993Y-15486871D01*
X9846993Y-15486871D02*
X9856517Y-15477348D01*
X9856517Y-15477348D02*
X9875564Y-15467824D01*
X10066041Y-15467824D02*
X10085088Y-15467824D01*
X10085088Y-15467824D02*
X10104136Y-15477348D01*
X10104136Y-15477348D02*
X10113660Y-15486871D01*
X10113660Y-15486871D02*
X10123183Y-15505919D01*
X10123183Y-15505919D02*
X10132707Y-15544014D01*
X10132707Y-15544014D02*
X10132707Y-15591633D01*
X10132707Y-15591633D02*
X10123183Y-15629728D01*
X10123183Y-15629728D02*
X10113660Y-15648776D01*
X10113660Y-15648776D02*
X10104136Y-15658300D01*
X10104136Y-15658300D02*
X10085088Y-15667824D01*
X10085088Y-15667824D02*
X10066041Y-15667824D01*
X10066041Y-15667824D02*
X10046993Y-15658300D01*
X10046993Y-15658300D02*
X10037469Y-15648776D01*
X10037469Y-15648776D02*
X10027945Y-15629728D01*
X10027945Y-15629728D02*
X10018422Y-15591633D01*
X10018422Y-15591633D02*
X10018422Y-15544014D01*
X10018422Y-15544014D02*
X10027945Y-15505919D01*
X10027945Y-15505919D02*
X10037469Y-15486871D01*
X10037469Y-15486871D02*
X10046993Y-15477348D01*
X10046993Y-15477348D02*
X10066041Y-15467824D01*
X10218422Y-15667824D02*
X10218422Y-15534490D01*
X10218422Y-15553538D02*
X10227945Y-15544014D01*
X10227945Y-15544014D02*
X10246993Y-15534490D01*
X10246993Y-15534490D02*
X10275564Y-15534490D01*
X10275564Y-15534490D02*
X10294612Y-15544014D01*
X10294612Y-15544014D02*
X10304136Y-15563062D01*
X10304136Y-15563062D02*
X10304136Y-15667824D01*
X10304136Y-15563062D02*
X10313660Y-15544014D01*
X10313660Y-15544014D02*
X10332707Y-15534490D01*
X10332707Y-15534490D02*
X10361279Y-15534490D01*
X10361279Y-15534490D02*
X10380326Y-15544014D01*
X10380326Y-15544014D02*
X10389850Y-15563062D01*
X10389850Y-15563062D02*
X10389850Y-15667824D01*
X10485088Y-15667824D02*
X10485088Y-15534490D01*
X10485088Y-15553538D02*
X10494612Y-15544014D01*
X10494612Y-15544014D02*
X10513660Y-15534490D01*
X10513660Y-15534490D02*
X10542231Y-15534490D01*
X10542231Y-15534490D02*
X10561279Y-15544014D01*
X10561279Y-15544014D02*
X10570803Y-15563062D01*
X10570803Y-15563062D02*
X10570803Y-15667824D01*
X10570803Y-15563062D02*
X10580326Y-15544014D01*
X10580326Y-15544014D02*
X10599374Y-15534490D01*
X10599374Y-15534490D02*
X10627945Y-15534490D01*
X10627945Y-15534490D02*
X10646993Y-15544014D01*
X10646993Y-15544014D02*
X10656517Y-15563062D01*
X10656517Y-15563062D02*
X10656517Y-15667824D01*
X11046993Y-15458300D02*
X10875565Y-15715443D01*
X11304136Y-15467824D02*
X11323184Y-15467824D01*
X11323184Y-15467824D02*
X11342231Y-15477348D01*
X11342231Y-15477348D02*
X11351755Y-15486871D01*
X11351755Y-15486871D02*
X11361279Y-15505919D01*
X11361279Y-15505919D02*
X11370803Y-15544014D01*
X11370803Y-15544014D02*
X11370803Y-15591633D01*
X11370803Y-15591633D02*
X11361279Y-15629728D01*
X11361279Y-15629728D02*
X11351755Y-15648776D01*
X11351755Y-15648776D02*
X11342231Y-15658300D01*
X11342231Y-15658300D02*
X11323184Y-15667824D01*
X11323184Y-15667824D02*
X11304136Y-15667824D01*
X11304136Y-15667824D02*
X11285088Y-15658300D01*
X11285088Y-15658300D02*
X11275564Y-15648776D01*
X11275564Y-15648776D02*
X11266041Y-15629728D01*
X11266041Y-15629728D02*
X11256517Y-15591633D01*
X11256517Y-15591633D02*
X11256517Y-15544014D01*
X11256517Y-15544014D02*
X11266041Y-15505919D01*
X11266041Y-15505919D02*
X11275564Y-15486871D01*
X11275564Y-15486871D02*
X11285088Y-15477348D01*
X11285088Y-15477348D02*
X11304136Y-15467824D01*
X11456517Y-15648776D02*
X11466041Y-15658300D01*
X11466041Y-15658300D02*
X11456517Y-15667824D01*
X11456517Y-15667824D02*
X11446993Y-15658300D01*
X11446993Y-15658300D02*
X11456517Y-15648776D01*
X11456517Y-15648776D02*
X11456517Y-15667824D01*
X11656517Y-15667824D02*
X11542231Y-15667824D01*
X11599374Y-15667824D02*
X11599374Y-15467824D01*
X11599374Y-15467824D02*
X11580326Y-15496395D01*
X11580326Y-15496395D02*
X11561279Y-15515443D01*
X11561279Y-15515443D02*
X11542231Y-15524967D01*
X11846993Y-15667824D02*
X11732707Y-15667824D01*
X11789850Y-15667824D02*
X11789850Y-15467824D01*
X11789850Y-15467824D02*
X11770803Y-15496395D01*
X11770803Y-15496395D02*
X11751755Y-15515443D01*
X11751755Y-15515443D02*
X11732707Y-15524967D01*
X11961279Y-15553538D02*
X11942231Y-15544014D01*
X11942231Y-15544014D02*
X11932707Y-15534490D01*
X11932707Y-15534490D02*
X11923184Y-15515443D01*
X11923184Y-15515443D02*
X11923184Y-15505919D01*
X11923184Y-15505919D02*
X11932707Y-15486871D01*
X11932707Y-15486871D02*
X11942231Y-15477348D01*
X11942231Y-15477348D02*
X11961279Y-15467824D01*
X11961279Y-15467824D02*
X11999374Y-15467824D01*
X11999374Y-15467824D02*
X12018422Y-15477348D01*
X12018422Y-15477348D02*
X12027945Y-15486871D01*
X12027945Y-15486871D02*
X12037469Y-15505919D01*
X12037469Y-15505919D02*
X12037469Y-15515443D01*
X12037469Y-15515443D02*
X12027945Y-15534490D01*
X12027945Y-15534490D02*
X12018422Y-15544014D01*
X12018422Y-15544014D02*
X11999374Y-15553538D01*
X11999374Y-15553538D02*
X11961279Y-15553538D01*
X11961279Y-15553538D02*
X11942231Y-15563062D01*
X11942231Y-15563062D02*
X11932707Y-15572586D01*
X11932707Y-15572586D02*
X11923184Y-15591633D01*
X11923184Y-15591633D02*
X11923184Y-15629728D01*
X11923184Y-15629728D02*
X11932707Y-15648776D01*
X11932707Y-15648776D02*
X11942231Y-15658300D01*
X11942231Y-15658300D02*
X11961279Y-15667824D01*
X11961279Y-15667824D02*
X11999374Y-15667824D01*
X11999374Y-15667824D02*
X12018422Y-15658300D01*
X12018422Y-15658300D02*
X12027945Y-15648776D01*
X12027945Y-15648776D02*
X12037469Y-15629728D01*
X12037469Y-15629728D02*
X12037469Y-15591633D01*
X12037469Y-15591633D02*
X12027945Y-15572586D01*
X12027945Y-15572586D02*
X12018422Y-15563062D01*
X12018422Y-15563062D02*
X11999374Y-15553538D01*
X12227945Y-15667824D02*
X12113660Y-15667824D01*
X12170803Y-15667824D02*
X12170803Y-15467824D01*
X12170803Y-15467824D02*
X12151755Y-15496395D01*
X12151755Y-15496395D02*
X12132707Y-15515443D01*
X12132707Y-15515443D02*
X12113660Y-15524967D01*
X12304136Y-15467824D02*
X12304136Y-15505919D01*
X12380326Y-15467824D02*
X12380326Y-15505919D01*
X12675565Y-15744014D02*
X12666041Y-15734490D01*
X12666041Y-15734490D02*
X12646993Y-15705919D01*
X12646993Y-15705919D02*
X12637469Y-15686871D01*
X12637469Y-15686871D02*
X12627946Y-15658300D01*
X12627946Y-15658300D02*
X12618422Y-15610681D01*
X12618422Y-15610681D02*
X12618422Y-15572586D01*
X12618422Y-15572586D02*
X12627946Y-15524967D01*
X12627946Y-15524967D02*
X12637469Y-15496395D01*
X12637469Y-15496395D02*
X12646993Y-15477348D01*
X12646993Y-15477348D02*
X12666041Y-15448776D01*
X12666041Y-15448776D02*
X12675565Y-15439252D01*
X12780326Y-15553538D02*
X12761279Y-15544014D01*
X12761279Y-15544014D02*
X12751755Y-15534490D01*
X12751755Y-15534490D02*
X12742231Y-15515443D01*
X12742231Y-15515443D02*
X12742231Y-15505919D01*
X12742231Y-15505919D02*
X12751755Y-15486871D01*
X12751755Y-15486871D02*
X12761279Y-15477348D01*
X12761279Y-15477348D02*
X12780326Y-15467824D01*
X12780326Y-15467824D02*
X12818422Y-15467824D01*
X12818422Y-15467824D02*
X12837469Y-15477348D01*
X12837469Y-15477348D02*
X12846993Y-15486871D01*
X12846993Y-15486871D02*
X12856517Y-15505919D01*
X12856517Y-15505919D02*
X12856517Y-15515443D01*
X12856517Y-15515443D02*
X12846993Y-15534490D01*
X12846993Y-15534490D02*
X12837469Y-15544014D01*
X12837469Y-15544014D02*
X12818422Y-15553538D01*
X12818422Y-15553538D02*
X12780326Y-15553538D01*
X12780326Y-15553538D02*
X12761279Y-15563062D01*
X12761279Y-15563062D02*
X12751755Y-15572586D01*
X12751755Y-15572586D02*
X12742231Y-15591633D01*
X12742231Y-15591633D02*
X12742231Y-15629728D01*
X12742231Y-15629728D02*
X12751755Y-15648776D01*
X12751755Y-15648776D02*
X12761279Y-15658300D01*
X12761279Y-15658300D02*
X12780326Y-15667824D01*
X12780326Y-15667824D02*
X12818422Y-15667824D01*
X12818422Y-15667824D02*
X12837469Y-15658300D01*
X12837469Y-15658300D02*
X12846993Y-15648776D01*
X12846993Y-15648776D02*
X12856517Y-15629728D01*
X12856517Y-15629728D02*
X12856517Y-15591633D01*
X12856517Y-15591633D02*
X12846993Y-15572586D01*
X12846993Y-15572586D02*
X12837469Y-15563062D01*
X12837469Y-15563062D02*
X12818422Y-15553538D01*
X13027946Y-15534490D02*
X13027946Y-15667824D01*
X12980326Y-15458300D02*
X12932707Y-15601157D01*
X12932707Y-15601157D02*
X13056517Y-15601157D01*
X13285088Y-15667824D02*
X13285088Y-15467824D01*
X13370803Y-15667824D02*
X13370803Y-15563062D01*
X13370803Y-15563062D02*
X13361279Y-15544014D01*
X13361279Y-15544014D02*
X13342231Y-15534490D01*
X13342231Y-15534490D02*
X13313660Y-15534490D01*
X13313660Y-15534490D02*
X13294612Y-15544014D01*
X13294612Y-15544014D02*
X13285088Y-15553538D01*
X13494612Y-15667824D02*
X13475565Y-15658300D01*
X13475565Y-15658300D02*
X13466041Y-15648776D01*
X13466041Y-15648776D02*
X13456517Y-15629728D01*
X13456517Y-15629728D02*
X13456517Y-15572586D01*
X13456517Y-15572586D02*
X13466041Y-15553538D01*
X13466041Y-15553538D02*
X13475565Y-15544014D01*
X13475565Y-15544014D02*
X13494612Y-15534490D01*
X13494612Y-15534490D02*
X13523184Y-15534490D01*
X13523184Y-15534490D02*
X13542231Y-15544014D01*
X13542231Y-15544014D02*
X13551755Y-15553538D01*
X13551755Y-15553538D02*
X13561279Y-15572586D01*
X13561279Y-15572586D02*
X13561279Y-15629728D01*
X13561279Y-15629728D02*
X13551755Y-15648776D01*
X13551755Y-15648776D02*
X13542231Y-15658300D01*
X13542231Y-15658300D02*
X13523184Y-15667824D01*
X13523184Y-15667824D02*
X13494612Y-15667824D01*
X13675565Y-15667824D02*
X13656517Y-15658300D01*
X13656517Y-15658300D02*
X13646993Y-15639252D01*
X13646993Y-15639252D02*
X13646993Y-15467824D01*
X13827946Y-15658300D02*
X13808898Y-15667824D01*
X13808898Y-15667824D02*
X13770803Y-15667824D01*
X13770803Y-15667824D02*
X13751755Y-15658300D01*
X13751755Y-15658300D02*
X13742231Y-15639252D01*
X13742231Y-15639252D02*
X13742231Y-15563062D01*
X13742231Y-15563062D02*
X13751755Y-15544014D01*
X13751755Y-15544014D02*
X13770803Y-15534490D01*
X13770803Y-15534490D02*
X13808898Y-15534490D01*
X13808898Y-15534490D02*
X13827946Y-15544014D01*
X13827946Y-15544014D02*
X13837469Y-15563062D01*
X13837469Y-15563062D02*
X13837469Y-15582109D01*
X13837469Y-15582109D02*
X13742231Y-15601157D01*
X13913660Y-15658300D02*
X13932708Y-15667824D01*
X13932708Y-15667824D02*
X13970803Y-15667824D01*
X13970803Y-15667824D02*
X13989850Y-15658300D01*
X13989850Y-15658300D02*
X13999374Y-15639252D01*
X13999374Y-15639252D02*
X13999374Y-15629728D01*
X13999374Y-15629728D02*
X13989850Y-15610681D01*
X13989850Y-15610681D02*
X13970803Y-15601157D01*
X13970803Y-15601157D02*
X13942231Y-15601157D01*
X13942231Y-15601157D02*
X13923184Y-15591633D01*
X13923184Y-15591633D02*
X13913660Y-15572586D01*
X13913660Y-15572586D02*
X13913660Y-15563062D01*
X13913660Y-15563062D02*
X13923184Y-15544014D01*
X13923184Y-15544014D02*
X13942231Y-15534490D01*
X13942231Y-15534490D02*
X13970803Y-15534490D01*
X13970803Y-15534490D02*
X13989850Y-15544014D01*
X14066041Y-15744014D02*
X14075565Y-15734490D01*
X14075565Y-15734490D02*
X14094612Y-15705919D01*
X14094612Y-15705919D02*
X14104136Y-15686871D01*
X14104136Y-15686871D02*
X14113660Y-15658300D01*
X14113660Y-15658300D02*
X14123184Y-15610681D01*
X14123184Y-15610681D02*
X14123184Y-15572586D01*
X14123184Y-15572586D02*
X14113660Y-15524967D01*
X14113660Y-15524967D02*
X14104136Y-15496395D01*
X14104136Y-15496395D02*
X14094612Y-15477348D01*
X14094612Y-15477348D02*
X14075565Y-15448776D01*
X14075565Y-15448776D02*
X14066041Y-15439252D01*
X14427946Y-15744014D02*
X14418422Y-15734490D01*
X14418422Y-15734490D02*
X14399374Y-15705919D01*
X14399374Y-15705919D02*
X14389850Y-15686871D01*
X14389850Y-15686871D02*
X14380327Y-15658300D01*
X14380327Y-15658300D02*
X14370803Y-15610681D01*
X14370803Y-15610681D02*
X14370803Y-15572586D01*
X14370803Y-15572586D02*
X14380327Y-15524967D01*
X14380327Y-15524967D02*
X14389850Y-15496395D01*
X14389850Y-15496395D02*
X14399374Y-15477348D01*
X14399374Y-15477348D02*
X14418422Y-15448776D01*
X14418422Y-15448776D02*
X14427946Y-15439252D01*
X14504136Y-15534490D02*
X14504136Y-15667824D01*
X14504136Y-15553538D02*
X14513660Y-15544014D01*
X14513660Y-15544014D02*
X14532708Y-15534490D01*
X14532708Y-15534490D02*
X14561279Y-15534490D01*
X14561279Y-15534490D02*
X14580327Y-15544014D01*
X14580327Y-15544014D02*
X14589850Y-15563062D01*
X14589850Y-15563062D02*
X14589850Y-15667824D01*
X14713660Y-15667824D02*
X14694612Y-15658300D01*
X14694612Y-15658300D02*
X14685089Y-15648776D01*
X14685089Y-15648776D02*
X14675565Y-15629728D01*
X14675565Y-15629728D02*
X14675565Y-15572586D01*
X14675565Y-15572586D02*
X14685089Y-15553538D01*
X14685089Y-15553538D02*
X14694612Y-15544014D01*
X14694612Y-15544014D02*
X14713660Y-15534490D01*
X14713660Y-15534490D02*
X14742231Y-15534490D01*
X14742231Y-15534490D02*
X14761279Y-15544014D01*
X14761279Y-15544014D02*
X14770803Y-15553538D01*
X14770803Y-15553538D02*
X14780327Y-15572586D01*
X14780327Y-15572586D02*
X14780327Y-15629728D01*
X14780327Y-15629728D02*
X14770803Y-15648776D01*
X14770803Y-15648776D02*
X14761279Y-15658300D01*
X14761279Y-15658300D02*
X14742231Y-15667824D01*
X14742231Y-15667824D02*
X14713660Y-15667824D01*
X14837470Y-15534490D02*
X14913660Y-15534490D01*
X14866041Y-15467824D02*
X14866041Y-15639252D01*
X14866041Y-15639252D02*
X14875565Y-15658300D01*
X14875565Y-15658300D02*
X14894612Y-15667824D01*
X14894612Y-15667824D02*
X14913660Y-15667824D01*
X15132708Y-15534490D02*
X15132708Y-15734490D01*
X15132708Y-15544014D02*
X15151755Y-15534490D01*
X15151755Y-15534490D02*
X15189851Y-15534490D01*
X15189851Y-15534490D02*
X15208898Y-15544014D01*
X15208898Y-15544014D02*
X15218422Y-15553538D01*
X15218422Y-15553538D02*
X15227946Y-15572586D01*
X15227946Y-15572586D02*
X15227946Y-15629728D01*
X15227946Y-15629728D02*
X15218422Y-15648776D01*
X15218422Y-15648776D02*
X15208898Y-15658300D01*
X15208898Y-15658300D02*
X15189851Y-15667824D01*
X15189851Y-15667824D02*
X15151755Y-15667824D01*
X15151755Y-15667824D02*
X15132708Y-15658300D01*
X15342231Y-15667824D02*
X15323184Y-15658300D01*
X15323184Y-15658300D02*
X15313660Y-15639252D01*
X15313660Y-15639252D02*
X15313660Y-15467824D01*
X15504136Y-15667824D02*
X15504136Y-15563062D01*
X15504136Y-15563062D02*
X15494612Y-15544014D01*
X15494612Y-15544014D02*
X15475565Y-15534490D01*
X15475565Y-15534490D02*
X15437470Y-15534490D01*
X15437470Y-15534490D02*
X15418422Y-15544014D01*
X15504136Y-15658300D02*
X15485089Y-15667824D01*
X15485089Y-15667824D02*
X15437470Y-15667824D01*
X15437470Y-15667824D02*
X15418422Y-15658300D01*
X15418422Y-15658300D02*
X15408898Y-15639252D01*
X15408898Y-15639252D02*
X15408898Y-15620205D01*
X15408898Y-15620205D02*
X15418422Y-15601157D01*
X15418422Y-15601157D02*
X15437470Y-15591633D01*
X15437470Y-15591633D02*
X15485089Y-15591633D01*
X15485089Y-15591633D02*
X15504136Y-15582109D01*
X15570803Y-15534490D02*
X15646993Y-15534490D01*
X15599374Y-15467824D02*
X15599374Y-15639252D01*
X15599374Y-15639252D02*
X15608898Y-15658300D01*
X15608898Y-15658300D02*
X15627946Y-15667824D01*
X15627946Y-15667824D02*
X15646993Y-15667824D01*
X15789851Y-15658300D02*
X15770803Y-15667824D01*
X15770803Y-15667824D02*
X15732708Y-15667824D01*
X15732708Y-15667824D02*
X15713660Y-15658300D01*
X15713660Y-15658300D02*
X15704136Y-15639252D01*
X15704136Y-15639252D02*
X15704136Y-15563062D01*
X15704136Y-15563062D02*
X15713660Y-15544014D01*
X15713660Y-15544014D02*
X15732708Y-15534490D01*
X15732708Y-15534490D02*
X15770803Y-15534490D01*
X15770803Y-15534490D02*
X15789851Y-15544014D01*
X15789851Y-15544014D02*
X15799374Y-15563062D01*
X15799374Y-15563062D02*
X15799374Y-15582109D01*
X15799374Y-15582109D02*
X15704136Y-15601157D01*
X15970803Y-15667824D02*
X15970803Y-15467824D01*
X15970803Y-15658300D02*
X15951755Y-15667824D01*
X15951755Y-15667824D02*
X15913660Y-15667824D01*
X15913660Y-15667824D02*
X15894612Y-15658300D01*
X15894612Y-15658300D02*
X15885089Y-15648776D01*
X15885089Y-15648776D02*
X15875565Y-15629728D01*
X15875565Y-15629728D02*
X15875565Y-15572586D01*
X15875565Y-15572586D02*
X15885089Y-15553538D01*
X15885089Y-15553538D02*
X15894612Y-15544014D01*
X15894612Y-15544014D02*
X15913660Y-15534490D01*
X15913660Y-15534490D02*
X15951755Y-15534490D01*
X15951755Y-15534490D02*
X15970803Y-15544014D01*
X16046993Y-15744014D02*
X16056517Y-15734490D01*
X16056517Y-15734490D02*
X16075565Y-15705919D01*
X16075565Y-15705919D02*
X16085089Y-15686871D01*
X16085089Y-15686871D02*
X16094612Y-15658300D01*
X16094612Y-15658300D02*
X16104136Y-15610681D01*
X16104136Y-15610681D02*
X16104136Y-15572586D01*
X16104136Y-15572586D02*
X16094612Y-15524967D01*
X16094612Y-15524967D02*
X16085089Y-15496395D01*
X16085089Y-15496395D02*
X16075565Y-15477348D01*
X16075565Y-15477348D02*
X16056517Y-15448776D01*
X16056517Y-15448776D02*
X16046993Y-15439252D01*
X8900502Y-15796340D02*
X9100502Y-15996340D01*
X9100502Y-15796340D02*
X8900502Y-15996340D01*
X9100502Y-15896340D02*
G75*
G02*
X8900502Y-15896340I-100000J0D01*
G01*
X8900502Y-15896340D02*
G75*
G02*
X9100502Y-15896340I100000J0D01*
G01*
X9446993Y-15854490D02*
X9446993Y-15987824D01*
X9399374Y-15778300D02*
X9351755Y-15921157D01*
X9351755Y-15921157D02*
X9475564Y-15921157D01*
X9551755Y-15968776D02*
X9561279Y-15978300D01*
X9561279Y-15978300D02*
X9551755Y-15987824D01*
X9551755Y-15987824D02*
X9542231Y-15978300D01*
X9542231Y-15978300D02*
X9551755Y-15968776D01*
X9551755Y-15968776D02*
X9551755Y-15987824D01*
X9751755Y-15987824D02*
X9637469Y-15987824D01*
X9694612Y-15987824D02*
X9694612Y-15787824D01*
X9694612Y-15787824D02*
X9675564Y-15816395D01*
X9675564Y-15816395D02*
X9656517Y-15835443D01*
X9656517Y-15835443D02*
X9637469Y-15844967D01*
X9875564Y-15787824D02*
X9894612Y-15787824D01*
X9894612Y-15787824D02*
X9913660Y-15797348D01*
X9913660Y-15797348D02*
X9923183Y-15806871D01*
X9923183Y-15806871D02*
X9932707Y-15825919D01*
X9932707Y-15825919D02*
X9942231Y-15864014D01*
X9942231Y-15864014D02*
X9942231Y-15911633D01*
X9942231Y-15911633D02*
X9932707Y-15949728D01*
X9932707Y-15949728D02*
X9923183Y-15968776D01*
X9923183Y-15968776D02*
X9913660Y-15978300D01*
X9913660Y-15978300D02*
X9894612Y-15987824D01*
X9894612Y-15987824D02*
X9875564Y-15987824D01*
X9875564Y-15987824D02*
X9856517Y-15978300D01*
X9856517Y-15978300D02*
X9846993Y-15968776D01*
X9846993Y-15968776D02*
X9837469Y-15949728D01*
X9837469Y-15949728D02*
X9827945Y-15911633D01*
X9827945Y-15911633D02*
X9827945Y-15864014D01*
X9827945Y-15864014D02*
X9837469Y-15825919D01*
X9837469Y-15825919D02*
X9846993Y-15806871D01*
X9846993Y-15806871D02*
X9856517Y-15797348D01*
X9856517Y-15797348D02*
X9875564Y-15787824D01*
X10066041Y-15787824D02*
X10085088Y-15787824D01*
X10085088Y-15787824D02*
X10104136Y-15797348D01*
X10104136Y-15797348D02*
X10113660Y-15806871D01*
X10113660Y-15806871D02*
X10123183Y-15825919D01*
X10123183Y-15825919D02*
X10132707Y-15864014D01*
X10132707Y-15864014D02*
X10132707Y-15911633D01*
X10132707Y-15911633D02*
X10123183Y-15949728D01*
X10123183Y-15949728D02*
X10113660Y-15968776D01*
X10113660Y-15968776D02*
X10104136Y-15978300D01*
X10104136Y-15978300D02*
X10085088Y-15987824D01*
X10085088Y-15987824D02*
X10066041Y-15987824D01*
X10066041Y-15987824D02*
X10046993Y-15978300D01*
X10046993Y-15978300D02*
X10037469Y-15968776D01*
X10037469Y-15968776D02*
X10027945Y-15949728D01*
X10027945Y-15949728D02*
X10018422Y-15911633D01*
X10018422Y-15911633D02*
X10018422Y-15864014D01*
X10018422Y-15864014D02*
X10027945Y-15825919D01*
X10027945Y-15825919D02*
X10037469Y-15806871D01*
X10037469Y-15806871D02*
X10046993Y-15797348D01*
X10046993Y-15797348D02*
X10066041Y-15787824D01*
X10218422Y-15987824D02*
X10218422Y-15854490D01*
X10218422Y-15873538D02*
X10227945Y-15864014D01*
X10227945Y-15864014D02*
X10246993Y-15854490D01*
X10246993Y-15854490D02*
X10275564Y-15854490D01*
X10275564Y-15854490D02*
X10294612Y-15864014D01*
X10294612Y-15864014D02*
X10304136Y-15883062D01*
X10304136Y-15883062D02*
X10304136Y-15987824D01*
X10304136Y-15883062D02*
X10313660Y-15864014D01*
X10313660Y-15864014D02*
X10332707Y-15854490D01*
X10332707Y-15854490D02*
X10361279Y-15854490D01*
X10361279Y-15854490D02*
X10380326Y-15864014D01*
X10380326Y-15864014D02*
X10389850Y-15883062D01*
X10389850Y-15883062D02*
X10389850Y-15987824D01*
X10485088Y-15987824D02*
X10485088Y-15854490D01*
X10485088Y-15873538D02*
X10494612Y-15864014D01*
X10494612Y-15864014D02*
X10513660Y-15854490D01*
X10513660Y-15854490D02*
X10542231Y-15854490D01*
X10542231Y-15854490D02*
X10561279Y-15864014D01*
X10561279Y-15864014D02*
X10570803Y-15883062D01*
X10570803Y-15883062D02*
X10570803Y-15987824D01*
X10570803Y-15883062D02*
X10580326Y-15864014D01*
X10580326Y-15864014D02*
X10599374Y-15854490D01*
X10599374Y-15854490D02*
X10627945Y-15854490D01*
X10627945Y-15854490D02*
X10646993Y-15864014D01*
X10646993Y-15864014D02*
X10656517Y-15883062D01*
X10656517Y-15883062D02*
X10656517Y-15987824D01*
X11046993Y-15778300D02*
X10875565Y-16035443D01*
X11304136Y-15787824D02*
X11323184Y-15787824D01*
X11323184Y-15787824D02*
X11342231Y-15797348D01*
X11342231Y-15797348D02*
X11351755Y-15806871D01*
X11351755Y-15806871D02*
X11361279Y-15825919D01*
X11361279Y-15825919D02*
X11370803Y-15864014D01*
X11370803Y-15864014D02*
X11370803Y-15911633D01*
X11370803Y-15911633D02*
X11361279Y-15949728D01*
X11361279Y-15949728D02*
X11351755Y-15968776D01*
X11351755Y-15968776D02*
X11342231Y-15978300D01*
X11342231Y-15978300D02*
X11323184Y-15987824D01*
X11323184Y-15987824D02*
X11304136Y-15987824D01*
X11304136Y-15987824D02*
X11285088Y-15978300D01*
X11285088Y-15978300D02*
X11275564Y-15968776D01*
X11275564Y-15968776D02*
X11266041Y-15949728D01*
X11266041Y-15949728D02*
X11256517Y-15911633D01*
X11256517Y-15911633D02*
X11256517Y-15864014D01*
X11256517Y-15864014D02*
X11266041Y-15825919D01*
X11266041Y-15825919D02*
X11275564Y-15806871D01*
X11275564Y-15806871D02*
X11285088Y-15797348D01*
X11285088Y-15797348D02*
X11304136Y-15787824D01*
X11456517Y-15968776D02*
X11466041Y-15978300D01*
X11466041Y-15978300D02*
X11456517Y-15987824D01*
X11456517Y-15987824D02*
X11446993Y-15978300D01*
X11446993Y-15978300D02*
X11456517Y-15968776D01*
X11456517Y-15968776D02*
X11456517Y-15987824D01*
X11656517Y-15987824D02*
X11542231Y-15987824D01*
X11599374Y-15987824D02*
X11599374Y-15787824D01*
X11599374Y-15787824D02*
X11580326Y-15816395D01*
X11580326Y-15816395D02*
X11561279Y-15835443D01*
X11561279Y-15835443D02*
X11542231Y-15844967D01*
X11827945Y-15787824D02*
X11789850Y-15787824D01*
X11789850Y-15787824D02*
X11770803Y-15797348D01*
X11770803Y-15797348D02*
X11761279Y-15806871D01*
X11761279Y-15806871D02*
X11742231Y-15835443D01*
X11742231Y-15835443D02*
X11732707Y-15873538D01*
X11732707Y-15873538D02*
X11732707Y-15949728D01*
X11732707Y-15949728D02*
X11742231Y-15968776D01*
X11742231Y-15968776D02*
X11751755Y-15978300D01*
X11751755Y-15978300D02*
X11770803Y-15987824D01*
X11770803Y-15987824D02*
X11808898Y-15987824D01*
X11808898Y-15987824D02*
X11827945Y-15978300D01*
X11827945Y-15978300D02*
X11837469Y-15968776D01*
X11837469Y-15968776D02*
X11846993Y-15949728D01*
X11846993Y-15949728D02*
X11846993Y-15902109D01*
X11846993Y-15902109D02*
X11837469Y-15883062D01*
X11837469Y-15883062D02*
X11827945Y-15873538D01*
X11827945Y-15873538D02*
X11808898Y-15864014D01*
X11808898Y-15864014D02*
X11770803Y-15864014D01*
X11770803Y-15864014D02*
X11751755Y-15873538D01*
X11751755Y-15873538D02*
X11742231Y-15883062D01*
X11742231Y-15883062D02*
X11732707Y-15902109D01*
X12037469Y-15987824D02*
X11923184Y-15987824D01*
X11980326Y-15987824D02*
X11980326Y-15787824D01*
X11980326Y-15787824D02*
X11961279Y-15816395D01*
X11961279Y-15816395D02*
X11942231Y-15835443D01*
X11942231Y-15835443D02*
X11923184Y-15844967D01*
X12208898Y-15854490D02*
X12208898Y-15987824D01*
X12161279Y-15778300D02*
X12113660Y-15921157D01*
X12113660Y-15921157D02*
X12237469Y-15921157D01*
X12304136Y-15787824D02*
X12304136Y-15825919D01*
X12380326Y-15787824D02*
X12380326Y-15825919D01*
X12675565Y-16064014D02*
X12666041Y-16054490D01*
X12666041Y-16054490D02*
X12646993Y-16025919D01*
X12646993Y-16025919D02*
X12637469Y-16006871D01*
X12637469Y-16006871D02*
X12627946Y-15978300D01*
X12627946Y-15978300D02*
X12618422Y-15930681D01*
X12618422Y-15930681D02*
X12618422Y-15892586D01*
X12618422Y-15892586D02*
X12627946Y-15844967D01*
X12627946Y-15844967D02*
X12637469Y-15816395D01*
X12637469Y-15816395D02*
X12646993Y-15797348D01*
X12646993Y-15797348D02*
X12666041Y-15768776D01*
X12666041Y-15768776D02*
X12675565Y-15759252D01*
X12837469Y-15854490D02*
X12837469Y-15987824D01*
X12789850Y-15778300D02*
X12742231Y-15921157D01*
X12742231Y-15921157D02*
X12866041Y-15921157D01*
X12932707Y-15806871D02*
X12942231Y-15797348D01*
X12942231Y-15797348D02*
X12961279Y-15787824D01*
X12961279Y-15787824D02*
X13008898Y-15787824D01*
X13008898Y-15787824D02*
X13027946Y-15797348D01*
X13027946Y-15797348D02*
X13037469Y-15806871D01*
X13037469Y-15806871D02*
X13046993Y-15825919D01*
X13046993Y-15825919D02*
X13046993Y-15844967D01*
X13046993Y-15844967D02*
X13037469Y-15873538D01*
X13037469Y-15873538D02*
X12923184Y-15987824D01*
X12923184Y-15987824D02*
X13046993Y-15987824D01*
X13285088Y-15987824D02*
X13285088Y-15787824D01*
X13370803Y-15987824D02*
X13370803Y-15883062D01*
X13370803Y-15883062D02*
X13361279Y-15864014D01*
X13361279Y-15864014D02*
X13342231Y-15854490D01*
X13342231Y-15854490D02*
X13313660Y-15854490D01*
X13313660Y-15854490D02*
X13294612Y-15864014D01*
X13294612Y-15864014D02*
X13285088Y-15873538D01*
X13494612Y-15987824D02*
X13475565Y-15978300D01*
X13475565Y-15978300D02*
X13466041Y-15968776D01*
X13466041Y-15968776D02*
X13456517Y-15949728D01*
X13456517Y-15949728D02*
X13456517Y-15892586D01*
X13456517Y-15892586D02*
X13466041Y-15873538D01*
X13466041Y-15873538D02*
X13475565Y-15864014D01*
X13475565Y-15864014D02*
X13494612Y-15854490D01*
X13494612Y-15854490D02*
X13523184Y-15854490D01*
X13523184Y-15854490D02*
X13542231Y-15864014D01*
X13542231Y-15864014D02*
X13551755Y-15873538D01*
X13551755Y-15873538D02*
X13561279Y-15892586D01*
X13561279Y-15892586D02*
X13561279Y-15949728D01*
X13561279Y-15949728D02*
X13551755Y-15968776D01*
X13551755Y-15968776D02*
X13542231Y-15978300D01*
X13542231Y-15978300D02*
X13523184Y-15987824D01*
X13523184Y-15987824D02*
X13494612Y-15987824D01*
X13675565Y-15987824D02*
X13656517Y-15978300D01*
X13656517Y-15978300D02*
X13646993Y-15959252D01*
X13646993Y-15959252D02*
X13646993Y-15787824D01*
X13827946Y-15978300D02*
X13808898Y-15987824D01*
X13808898Y-15987824D02*
X13770803Y-15987824D01*
X13770803Y-15987824D02*
X13751755Y-15978300D01*
X13751755Y-15978300D02*
X13742231Y-15959252D01*
X13742231Y-15959252D02*
X13742231Y-15883062D01*
X13742231Y-15883062D02*
X13751755Y-15864014D01*
X13751755Y-15864014D02*
X13770803Y-15854490D01*
X13770803Y-15854490D02*
X13808898Y-15854490D01*
X13808898Y-15854490D02*
X13827946Y-15864014D01*
X13827946Y-15864014D02*
X13837469Y-15883062D01*
X13837469Y-15883062D02*
X13837469Y-15902109D01*
X13837469Y-15902109D02*
X13742231Y-15921157D01*
X13913660Y-15978300D02*
X13932708Y-15987824D01*
X13932708Y-15987824D02*
X13970803Y-15987824D01*
X13970803Y-15987824D02*
X13989850Y-15978300D01*
X13989850Y-15978300D02*
X13999374Y-15959252D01*
X13999374Y-15959252D02*
X13999374Y-15949728D01*
X13999374Y-15949728D02*
X13989850Y-15930681D01*
X13989850Y-15930681D02*
X13970803Y-15921157D01*
X13970803Y-15921157D02*
X13942231Y-15921157D01*
X13942231Y-15921157D02*
X13923184Y-15911633D01*
X13923184Y-15911633D02*
X13913660Y-15892586D01*
X13913660Y-15892586D02*
X13913660Y-15883062D01*
X13913660Y-15883062D02*
X13923184Y-15864014D01*
X13923184Y-15864014D02*
X13942231Y-15854490D01*
X13942231Y-15854490D02*
X13970803Y-15854490D01*
X13970803Y-15854490D02*
X13989850Y-15864014D01*
X14066041Y-16064014D02*
X14075565Y-16054490D01*
X14075565Y-16054490D02*
X14094612Y-16025919D01*
X14094612Y-16025919D02*
X14104136Y-16006871D01*
X14104136Y-16006871D02*
X14113660Y-15978300D01*
X14113660Y-15978300D02*
X14123184Y-15930681D01*
X14123184Y-15930681D02*
X14123184Y-15892586D01*
X14123184Y-15892586D02*
X14113660Y-15844967D01*
X14113660Y-15844967D02*
X14104136Y-15816395D01*
X14104136Y-15816395D02*
X14094612Y-15797348D01*
X14094612Y-15797348D02*
X14075565Y-15768776D01*
X14075565Y-15768776D02*
X14066041Y-15759252D01*
X14427946Y-16064014D02*
X14418422Y-16054490D01*
X14418422Y-16054490D02*
X14399374Y-16025919D01*
X14399374Y-16025919D02*
X14389850Y-16006871D01*
X14389850Y-16006871D02*
X14380327Y-15978300D01*
X14380327Y-15978300D02*
X14370803Y-15930681D01*
X14370803Y-15930681D02*
X14370803Y-15892586D01*
X14370803Y-15892586D02*
X14380327Y-15844967D01*
X14380327Y-15844967D02*
X14389850Y-15816395D01*
X14389850Y-15816395D02*
X14399374Y-15797348D01*
X14399374Y-15797348D02*
X14418422Y-15768776D01*
X14418422Y-15768776D02*
X14427946Y-15759252D01*
X14504136Y-15854490D02*
X14504136Y-15987824D01*
X14504136Y-15873538D02*
X14513660Y-15864014D01*
X14513660Y-15864014D02*
X14532708Y-15854490D01*
X14532708Y-15854490D02*
X14561279Y-15854490D01*
X14561279Y-15854490D02*
X14580327Y-15864014D01*
X14580327Y-15864014D02*
X14589850Y-15883062D01*
X14589850Y-15883062D02*
X14589850Y-15987824D01*
X14713660Y-15987824D02*
X14694612Y-15978300D01*
X14694612Y-15978300D02*
X14685089Y-15968776D01*
X14685089Y-15968776D02*
X14675565Y-15949728D01*
X14675565Y-15949728D02*
X14675565Y-15892586D01*
X14675565Y-15892586D02*
X14685089Y-15873538D01*
X14685089Y-15873538D02*
X14694612Y-15864014D01*
X14694612Y-15864014D02*
X14713660Y-15854490D01*
X14713660Y-15854490D02*
X14742231Y-15854490D01*
X14742231Y-15854490D02*
X14761279Y-15864014D01*
X14761279Y-15864014D02*
X14770803Y-15873538D01*
X14770803Y-15873538D02*
X14780327Y-15892586D01*
X14780327Y-15892586D02*
X14780327Y-15949728D01*
X14780327Y-15949728D02*
X14770803Y-15968776D01*
X14770803Y-15968776D02*
X14761279Y-15978300D01*
X14761279Y-15978300D02*
X14742231Y-15987824D01*
X14742231Y-15987824D02*
X14713660Y-15987824D01*
X14837470Y-15854490D02*
X14913660Y-15854490D01*
X14866041Y-15787824D02*
X14866041Y-15959252D01*
X14866041Y-15959252D02*
X14875565Y-15978300D01*
X14875565Y-15978300D02*
X14894612Y-15987824D01*
X14894612Y-15987824D02*
X14913660Y-15987824D01*
X15132708Y-15854490D02*
X15132708Y-16054490D01*
X15132708Y-15864014D02*
X15151755Y-15854490D01*
X15151755Y-15854490D02*
X15189851Y-15854490D01*
X15189851Y-15854490D02*
X15208898Y-15864014D01*
X15208898Y-15864014D02*
X15218422Y-15873538D01*
X15218422Y-15873538D02*
X15227946Y-15892586D01*
X15227946Y-15892586D02*
X15227946Y-15949728D01*
X15227946Y-15949728D02*
X15218422Y-15968776D01*
X15218422Y-15968776D02*
X15208898Y-15978300D01*
X15208898Y-15978300D02*
X15189851Y-15987824D01*
X15189851Y-15987824D02*
X15151755Y-15987824D01*
X15151755Y-15987824D02*
X15132708Y-15978300D01*
X15342231Y-15987824D02*
X15323184Y-15978300D01*
X15323184Y-15978300D02*
X15313660Y-15959252D01*
X15313660Y-15959252D02*
X15313660Y-15787824D01*
X15504136Y-15987824D02*
X15504136Y-15883062D01*
X15504136Y-15883062D02*
X15494612Y-15864014D01*
X15494612Y-15864014D02*
X15475565Y-15854490D01*
X15475565Y-15854490D02*
X15437470Y-15854490D01*
X15437470Y-15854490D02*
X15418422Y-15864014D01*
X15504136Y-15978300D02*
X15485089Y-15987824D01*
X15485089Y-15987824D02*
X15437470Y-15987824D01*
X15437470Y-15987824D02*
X15418422Y-15978300D01*
X15418422Y-15978300D02*
X15408898Y-15959252D01*
X15408898Y-15959252D02*
X15408898Y-15940205D01*
X15408898Y-15940205D02*
X15418422Y-15921157D01*
X15418422Y-15921157D02*
X15437470Y-15911633D01*
X15437470Y-15911633D02*
X15485089Y-15911633D01*
X15485089Y-15911633D02*
X15504136Y-15902109D01*
X15570803Y-15854490D02*
X15646993Y-15854490D01*
X15599374Y-15787824D02*
X15599374Y-15959252D01*
X15599374Y-15959252D02*
X15608898Y-15978300D01*
X15608898Y-15978300D02*
X15627946Y-15987824D01*
X15627946Y-15987824D02*
X15646993Y-15987824D01*
X15789851Y-15978300D02*
X15770803Y-15987824D01*
X15770803Y-15987824D02*
X15732708Y-15987824D01*
X15732708Y-15987824D02*
X15713660Y-15978300D01*
X15713660Y-15978300D02*
X15704136Y-15959252D01*
X15704136Y-15959252D02*
X15704136Y-15883062D01*
X15704136Y-15883062D02*
X15713660Y-15864014D01*
X15713660Y-15864014D02*
X15732708Y-15854490D01*
X15732708Y-15854490D02*
X15770803Y-15854490D01*
X15770803Y-15854490D02*
X15789851Y-15864014D01*
X15789851Y-15864014D02*
X15799374Y-15883062D01*
X15799374Y-15883062D02*
X15799374Y-15902109D01*
X15799374Y-15902109D02*
X15704136Y-15921157D01*
X15970803Y-15987824D02*
X15970803Y-15787824D01*
X15970803Y-15978300D02*
X15951755Y-15987824D01*
X15951755Y-15987824D02*
X15913660Y-15987824D01*
X15913660Y-15987824D02*
X15894612Y-15978300D01*
X15894612Y-15978300D02*
X15885089Y-15968776D01*
X15885089Y-15968776D02*
X15875565Y-15949728D01*
X15875565Y-15949728D02*
X15875565Y-15892586D01*
X15875565Y-15892586D02*
X15885089Y-15873538D01*
X15885089Y-15873538D02*
X15894612Y-15864014D01*
X15894612Y-15864014D02*
X15913660Y-15854490D01*
X15913660Y-15854490D02*
X15951755Y-15854490D01*
X15951755Y-15854490D02*
X15970803Y-15864014D01*
X16046993Y-16064014D02*
X16056517Y-16054490D01*
X16056517Y-16054490D02*
X16075565Y-16025919D01*
X16075565Y-16025919D02*
X16085089Y-16006871D01*
X16085089Y-16006871D02*
X16094612Y-15978300D01*
X16094612Y-15978300D02*
X16104136Y-15930681D01*
X16104136Y-15930681D02*
X16104136Y-15892586D01*
X16104136Y-15892586D02*
X16094612Y-15844967D01*
X16094612Y-15844967D02*
X16085089Y-15816395D01*
X16085089Y-15816395D02*
X16075565Y-15797348D01*
X16075565Y-15797348D02*
X16056517Y-15768776D01*
X16056517Y-15768776D02*
X16046993Y-15759252D01*
X8900502Y-16116340D02*
X9100502Y-16316340D01*
X9100502Y-16116340D02*
X8900502Y-16316340D01*
X9000502Y-16116340D02*
X9000502Y-16316340D01*
X8900502Y-16216340D02*
X9100502Y-16216340D01*
X9446993Y-16174490D02*
X9446993Y-16307824D01*
X9399374Y-16098300D02*
X9351755Y-16241157D01*
X9351755Y-16241157D02*
X9475564Y-16241157D01*
X9551755Y-16288776D02*
X9561279Y-16298300D01*
X9561279Y-16298300D02*
X9551755Y-16307824D01*
X9551755Y-16307824D02*
X9542231Y-16298300D01*
X9542231Y-16298300D02*
X9551755Y-16288776D01*
X9551755Y-16288776D02*
X9551755Y-16307824D01*
X9627945Y-16107824D02*
X9751755Y-16107824D01*
X9751755Y-16107824D02*
X9685088Y-16184014D01*
X9685088Y-16184014D02*
X9713660Y-16184014D01*
X9713660Y-16184014D02*
X9732707Y-16193538D01*
X9732707Y-16193538D02*
X9742231Y-16203062D01*
X9742231Y-16203062D02*
X9751755Y-16222109D01*
X9751755Y-16222109D02*
X9751755Y-16269728D01*
X9751755Y-16269728D02*
X9742231Y-16288776D01*
X9742231Y-16288776D02*
X9732707Y-16298300D01*
X9732707Y-16298300D02*
X9713660Y-16307824D01*
X9713660Y-16307824D02*
X9656517Y-16307824D01*
X9656517Y-16307824D02*
X9637469Y-16298300D01*
X9637469Y-16298300D02*
X9627945Y-16288776D01*
X9875564Y-16107824D02*
X9894612Y-16107824D01*
X9894612Y-16107824D02*
X9913660Y-16117348D01*
X9913660Y-16117348D02*
X9923183Y-16126871D01*
X9923183Y-16126871D02*
X9932707Y-16145919D01*
X9932707Y-16145919D02*
X9942231Y-16184014D01*
X9942231Y-16184014D02*
X9942231Y-16231633D01*
X9942231Y-16231633D02*
X9932707Y-16269728D01*
X9932707Y-16269728D02*
X9923183Y-16288776D01*
X9923183Y-16288776D02*
X9913660Y-16298300D01*
X9913660Y-16298300D02*
X9894612Y-16307824D01*
X9894612Y-16307824D02*
X9875564Y-16307824D01*
X9875564Y-16307824D02*
X9856517Y-16298300D01*
X9856517Y-16298300D02*
X9846993Y-16288776D01*
X9846993Y-16288776D02*
X9837469Y-16269728D01*
X9837469Y-16269728D02*
X9827945Y-16231633D01*
X9827945Y-16231633D02*
X9827945Y-16184014D01*
X9827945Y-16184014D02*
X9837469Y-16145919D01*
X9837469Y-16145919D02*
X9846993Y-16126871D01*
X9846993Y-16126871D02*
X9856517Y-16117348D01*
X9856517Y-16117348D02*
X9875564Y-16107824D01*
X10066041Y-16107824D02*
X10085088Y-16107824D01*
X10085088Y-16107824D02*
X10104136Y-16117348D01*
X10104136Y-16117348D02*
X10113660Y-16126871D01*
X10113660Y-16126871D02*
X10123183Y-16145919D01*
X10123183Y-16145919D02*
X10132707Y-16184014D01*
X10132707Y-16184014D02*
X10132707Y-16231633D01*
X10132707Y-16231633D02*
X10123183Y-16269728D01*
X10123183Y-16269728D02*
X10113660Y-16288776D01*
X10113660Y-16288776D02*
X10104136Y-16298300D01*
X10104136Y-16298300D02*
X10085088Y-16307824D01*
X10085088Y-16307824D02*
X10066041Y-16307824D01*
X10066041Y-16307824D02*
X10046993Y-16298300D01*
X10046993Y-16298300D02*
X10037469Y-16288776D01*
X10037469Y-16288776D02*
X10027945Y-16269728D01*
X10027945Y-16269728D02*
X10018422Y-16231633D01*
X10018422Y-16231633D02*
X10018422Y-16184014D01*
X10018422Y-16184014D02*
X10027945Y-16145919D01*
X10027945Y-16145919D02*
X10037469Y-16126871D01*
X10037469Y-16126871D02*
X10046993Y-16117348D01*
X10046993Y-16117348D02*
X10066041Y-16107824D01*
X10218422Y-16307824D02*
X10218422Y-16174490D01*
X10218422Y-16193538D02*
X10227945Y-16184014D01*
X10227945Y-16184014D02*
X10246993Y-16174490D01*
X10246993Y-16174490D02*
X10275564Y-16174490D01*
X10275564Y-16174490D02*
X10294612Y-16184014D01*
X10294612Y-16184014D02*
X10304136Y-16203062D01*
X10304136Y-16203062D02*
X10304136Y-16307824D01*
X10304136Y-16203062D02*
X10313660Y-16184014D01*
X10313660Y-16184014D02*
X10332707Y-16174490D01*
X10332707Y-16174490D02*
X10361279Y-16174490D01*
X10361279Y-16174490D02*
X10380326Y-16184014D01*
X10380326Y-16184014D02*
X10389850Y-16203062D01*
X10389850Y-16203062D02*
X10389850Y-16307824D01*
X10485088Y-16307824D02*
X10485088Y-16174490D01*
X10485088Y-16193538D02*
X10494612Y-16184014D01*
X10494612Y-16184014D02*
X10513660Y-16174490D01*
X10513660Y-16174490D02*
X10542231Y-16174490D01*
X10542231Y-16174490D02*
X10561279Y-16184014D01*
X10561279Y-16184014D02*
X10570803Y-16203062D01*
X10570803Y-16203062D02*
X10570803Y-16307824D01*
X10570803Y-16203062D02*
X10580326Y-16184014D01*
X10580326Y-16184014D02*
X10599374Y-16174490D01*
X10599374Y-16174490D02*
X10627945Y-16174490D01*
X10627945Y-16174490D02*
X10646993Y-16184014D01*
X10646993Y-16184014D02*
X10656517Y-16203062D01*
X10656517Y-16203062D02*
X10656517Y-16307824D01*
X11046993Y-16098300D02*
X10875565Y-16355443D01*
X11304136Y-16107824D02*
X11323184Y-16107824D01*
X11323184Y-16107824D02*
X11342231Y-16117348D01*
X11342231Y-16117348D02*
X11351755Y-16126871D01*
X11351755Y-16126871D02*
X11361279Y-16145919D01*
X11361279Y-16145919D02*
X11370803Y-16184014D01*
X11370803Y-16184014D02*
X11370803Y-16231633D01*
X11370803Y-16231633D02*
X11361279Y-16269728D01*
X11361279Y-16269728D02*
X11351755Y-16288776D01*
X11351755Y-16288776D02*
X11342231Y-16298300D01*
X11342231Y-16298300D02*
X11323184Y-16307824D01*
X11323184Y-16307824D02*
X11304136Y-16307824D01*
X11304136Y-16307824D02*
X11285088Y-16298300D01*
X11285088Y-16298300D02*
X11275564Y-16288776D01*
X11275564Y-16288776D02*
X11266041Y-16269728D01*
X11266041Y-16269728D02*
X11256517Y-16231633D01*
X11256517Y-16231633D02*
X11256517Y-16184014D01*
X11256517Y-16184014D02*
X11266041Y-16145919D01*
X11266041Y-16145919D02*
X11275564Y-16126871D01*
X11275564Y-16126871D02*
X11285088Y-16117348D01*
X11285088Y-16117348D02*
X11304136Y-16107824D01*
X11456517Y-16288776D02*
X11466041Y-16298300D01*
X11466041Y-16298300D02*
X11456517Y-16307824D01*
X11456517Y-16307824D02*
X11446993Y-16298300D01*
X11446993Y-16298300D02*
X11456517Y-16288776D01*
X11456517Y-16288776D02*
X11456517Y-16307824D01*
X11656517Y-16307824D02*
X11542231Y-16307824D01*
X11599374Y-16307824D02*
X11599374Y-16107824D01*
X11599374Y-16107824D02*
X11580326Y-16136395D01*
X11580326Y-16136395D02*
X11561279Y-16155443D01*
X11561279Y-16155443D02*
X11542231Y-16164967D01*
X11827945Y-16107824D02*
X11789850Y-16107824D01*
X11789850Y-16107824D02*
X11770803Y-16117348D01*
X11770803Y-16117348D02*
X11761279Y-16126871D01*
X11761279Y-16126871D02*
X11742231Y-16155443D01*
X11742231Y-16155443D02*
X11732707Y-16193538D01*
X11732707Y-16193538D02*
X11732707Y-16269728D01*
X11732707Y-16269728D02*
X11742231Y-16288776D01*
X11742231Y-16288776D02*
X11751755Y-16298300D01*
X11751755Y-16298300D02*
X11770803Y-16307824D01*
X11770803Y-16307824D02*
X11808898Y-16307824D01*
X11808898Y-16307824D02*
X11827945Y-16298300D01*
X11827945Y-16298300D02*
X11837469Y-16288776D01*
X11837469Y-16288776D02*
X11846993Y-16269728D01*
X11846993Y-16269728D02*
X11846993Y-16222109D01*
X11846993Y-16222109D02*
X11837469Y-16203062D01*
X11837469Y-16203062D02*
X11827945Y-16193538D01*
X11827945Y-16193538D02*
X11808898Y-16184014D01*
X11808898Y-16184014D02*
X11770803Y-16184014D01*
X11770803Y-16184014D02*
X11751755Y-16193538D01*
X11751755Y-16193538D02*
X11742231Y-16203062D01*
X11742231Y-16203062D02*
X11732707Y-16222109D01*
X11942231Y-16307824D02*
X11980326Y-16307824D01*
X11980326Y-16307824D02*
X11999374Y-16298300D01*
X11999374Y-16298300D02*
X12008898Y-16288776D01*
X12008898Y-16288776D02*
X12027945Y-16260205D01*
X12027945Y-16260205D02*
X12037469Y-16222109D01*
X12037469Y-16222109D02*
X12037469Y-16145919D01*
X12037469Y-16145919D02*
X12027945Y-16126871D01*
X12027945Y-16126871D02*
X12018422Y-16117348D01*
X12018422Y-16117348D02*
X11999374Y-16107824D01*
X11999374Y-16107824D02*
X11961279Y-16107824D01*
X11961279Y-16107824D02*
X11942231Y-16117348D01*
X11942231Y-16117348D02*
X11932707Y-16126871D01*
X11932707Y-16126871D02*
X11923184Y-16145919D01*
X11923184Y-16145919D02*
X11923184Y-16193538D01*
X11923184Y-16193538D02*
X11932707Y-16212586D01*
X11932707Y-16212586D02*
X11942231Y-16222109D01*
X11942231Y-16222109D02*
X11961279Y-16231633D01*
X11961279Y-16231633D02*
X11999374Y-16231633D01*
X11999374Y-16231633D02*
X12018422Y-16222109D01*
X12018422Y-16222109D02*
X12027945Y-16212586D01*
X12027945Y-16212586D02*
X12037469Y-16193538D01*
X12104136Y-16107824D02*
X12227945Y-16107824D01*
X12227945Y-16107824D02*
X12161279Y-16184014D01*
X12161279Y-16184014D02*
X12189850Y-16184014D01*
X12189850Y-16184014D02*
X12208898Y-16193538D01*
X12208898Y-16193538D02*
X12218422Y-16203062D01*
X12218422Y-16203062D02*
X12227945Y-16222109D01*
X12227945Y-16222109D02*
X12227945Y-16269728D01*
X12227945Y-16269728D02*
X12218422Y-16288776D01*
X12218422Y-16288776D02*
X12208898Y-16298300D01*
X12208898Y-16298300D02*
X12189850Y-16307824D01*
X12189850Y-16307824D02*
X12132707Y-16307824D01*
X12132707Y-16307824D02*
X12113660Y-16298300D01*
X12113660Y-16298300D02*
X12104136Y-16288776D01*
X12304136Y-16107824D02*
X12304136Y-16145919D01*
X12380326Y-16107824D02*
X12380326Y-16145919D01*
X12675565Y-16384014D02*
X12666041Y-16374490D01*
X12666041Y-16374490D02*
X12646993Y-16345919D01*
X12646993Y-16345919D02*
X12637469Y-16326871D01*
X12637469Y-16326871D02*
X12627946Y-16298300D01*
X12627946Y-16298300D02*
X12618422Y-16250681D01*
X12618422Y-16250681D02*
X12618422Y-16212586D01*
X12618422Y-16212586D02*
X12627946Y-16164967D01*
X12627946Y-16164967D02*
X12637469Y-16136395D01*
X12637469Y-16136395D02*
X12646993Y-16117348D01*
X12646993Y-16117348D02*
X12666041Y-16088776D01*
X12666041Y-16088776D02*
X12675565Y-16079252D01*
X12846993Y-16107824D02*
X12751755Y-16107824D01*
X12751755Y-16107824D02*
X12742231Y-16203062D01*
X12742231Y-16203062D02*
X12751755Y-16193538D01*
X12751755Y-16193538D02*
X12770803Y-16184014D01*
X12770803Y-16184014D02*
X12818422Y-16184014D01*
X12818422Y-16184014D02*
X12837469Y-16193538D01*
X12837469Y-16193538D02*
X12846993Y-16203062D01*
X12846993Y-16203062D02*
X12856517Y-16222109D01*
X12856517Y-16222109D02*
X12856517Y-16269728D01*
X12856517Y-16269728D02*
X12846993Y-16288776D01*
X12846993Y-16288776D02*
X12837469Y-16298300D01*
X12837469Y-16298300D02*
X12818422Y-16307824D01*
X12818422Y-16307824D02*
X12770803Y-16307824D01*
X12770803Y-16307824D02*
X12751755Y-16298300D01*
X12751755Y-16298300D02*
X12742231Y-16288776D01*
X13094612Y-16307824D02*
X13094612Y-16107824D01*
X13180327Y-16307824D02*
X13180327Y-16203062D01*
X13180327Y-16203062D02*
X13170803Y-16184014D01*
X13170803Y-16184014D02*
X13151755Y-16174490D01*
X13151755Y-16174490D02*
X13123184Y-16174490D01*
X13123184Y-16174490D02*
X13104136Y-16184014D01*
X13104136Y-16184014D02*
X13094612Y-16193538D01*
X13304136Y-16307824D02*
X13285088Y-16298300D01*
X13285088Y-16298300D02*
X13275565Y-16288776D01*
X13275565Y-16288776D02*
X13266041Y-16269728D01*
X13266041Y-16269728D02*
X13266041Y-16212586D01*
X13266041Y-16212586D02*
X13275565Y-16193538D01*
X13275565Y-16193538D02*
X13285088Y-16184014D01*
X13285088Y-16184014D02*
X13304136Y-16174490D01*
X13304136Y-16174490D02*
X13332708Y-16174490D01*
X13332708Y-16174490D02*
X13351755Y-16184014D01*
X13351755Y-16184014D02*
X13361279Y-16193538D01*
X13361279Y-16193538D02*
X13370803Y-16212586D01*
X13370803Y-16212586D02*
X13370803Y-16269728D01*
X13370803Y-16269728D02*
X13361279Y-16288776D01*
X13361279Y-16288776D02*
X13351755Y-16298300D01*
X13351755Y-16298300D02*
X13332708Y-16307824D01*
X13332708Y-16307824D02*
X13304136Y-16307824D01*
X13485088Y-16307824D02*
X13466041Y-16298300D01*
X13466041Y-16298300D02*
X13456517Y-16279252D01*
X13456517Y-16279252D02*
X13456517Y-16107824D01*
X13637469Y-16298300D02*
X13618422Y-16307824D01*
X13618422Y-16307824D02*
X13580327Y-16307824D01*
X13580327Y-16307824D02*
X13561279Y-16298300D01*
X13561279Y-16298300D02*
X13551755Y-16279252D01*
X13551755Y-16279252D02*
X13551755Y-16203062D01*
X13551755Y-16203062D02*
X13561279Y-16184014D01*
X13561279Y-16184014D02*
X13580327Y-16174490D01*
X13580327Y-16174490D02*
X13618422Y-16174490D01*
X13618422Y-16174490D02*
X13637469Y-16184014D01*
X13637469Y-16184014D02*
X13646993Y-16203062D01*
X13646993Y-16203062D02*
X13646993Y-16222109D01*
X13646993Y-16222109D02*
X13551755Y-16241157D01*
X13723184Y-16298300D02*
X13742231Y-16307824D01*
X13742231Y-16307824D02*
X13780327Y-16307824D01*
X13780327Y-16307824D02*
X13799374Y-16298300D01*
X13799374Y-16298300D02*
X13808898Y-16279252D01*
X13808898Y-16279252D02*
X13808898Y-16269728D01*
X13808898Y-16269728D02*
X13799374Y-16250681D01*
X13799374Y-16250681D02*
X13780327Y-16241157D01*
X13780327Y-16241157D02*
X13751755Y-16241157D01*
X13751755Y-16241157D02*
X13732708Y-16231633D01*
X13732708Y-16231633D02*
X13723184Y-16212586D01*
X13723184Y-16212586D02*
X13723184Y-16203062D01*
X13723184Y-16203062D02*
X13732708Y-16184014D01*
X13732708Y-16184014D02*
X13751755Y-16174490D01*
X13751755Y-16174490D02*
X13780327Y-16174490D01*
X13780327Y-16174490D02*
X13799374Y-16184014D01*
X13875565Y-16384014D02*
X13885089Y-16374490D01*
X13885089Y-16374490D02*
X13904136Y-16345919D01*
X13904136Y-16345919D02*
X13913660Y-16326871D01*
X13913660Y-16326871D02*
X13923184Y-16298300D01*
X13923184Y-16298300D02*
X13932708Y-16250681D01*
X13932708Y-16250681D02*
X13932708Y-16212586D01*
X13932708Y-16212586D02*
X13923184Y-16164967D01*
X13923184Y-16164967D02*
X13913660Y-16136395D01*
X13913660Y-16136395D02*
X13904136Y-16117348D01*
X13904136Y-16117348D02*
X13885089Y-16088776D01*
X13885089Y-16088776D02*
X13875565Y-16079252D01*
X14237470Y-16384014D02*
X14227946Y-16374490D01*
X14227946Y-16374490D02*
X14208898Y-16345919D01*
X14208898Y-16345919D02*
X14199374Y-16326871D01*
X14199374Y-16326871D02*
X14189850Y-16298300D01*
X14189850Y-16298300D02*
X14180327Y-16250681D01*
X14180327Y-16250681D02*
X14180327Y-16212586D01*
X14180327Y-16212586D02*
X14189850Y-16164967D01*
X14189850Y-16164967D02*
X14199374Y-16136395D01*
X14199374Y-16136395D02*
X14208898Y-16117348D01*
X14208898Y-16117348D02*
X14227946Y-16088776D01*
X14227946Y-16088776D02*
X14237470Y-16079252D01*
X14313660Y-16174490D02*
X14313660Y-16307824D01*
X14313660Y-16193538D02*
X14323184Y-16184014D01*
X14323184Y-16184014D02*
X14342231Y-16174490D01*
X14342231Y-16174490D02*
X14370803Y-16174490D01*
X14370803Y-16174490D02*
X14389850Y-16184014D01*
X14389850Y-16184014D02*
X14399374Y-16203062D01*
X14399374Y-16203062D02*
X14399374Y-16307824D01*
X14523184Y-16307824D02*
X14504136Y-16298300D01*
X14504136Y-16298300D02*
X14494612Y-16288776D01*
X14494612Y-16288776D02*
X14485089Y-16269728D01*
X14485089Y-16269728D02*
X14485089Y-16212586D01*
X14485089Y-16212586D02*
X14494612Y-16193538D01*
X14494612Y-16193538D02*
X14504136Y-16184014D01*
X14504136Y-16184014D02*
X14523184Y-16174490D01*
X14523184Y-16174490D02*
X14551755Y-16174490D01*
X14551755Y-16174490D02*
X14570803Y-16184014D01*
X14570803Y-16184014D02*
X14580327Y-16193538D01*
X14580327Y-16193538D02*
X14589850Y-16212586D01*
X14589850Y-16212586D02*
X14589850Y-16269728D01*
X14589850Y-16269728D02*
X14580327Y-16288776D01*
X14580327Y-16288776D02*
X14570803Y-16298300D01*
X14570803Y-16298300D02*
X14551755Y-16307824D01*
X14551755Y-16307824D02*
X14523184Y-16307824D01*
X14646993Y-16174490D02*
X14723184Y-16174490D01*
X14675565Y-16107824D02*
X14675565Y-16279252D01*
X14675565Y-16279252D02*
X14685089Y-16298300D01*
X14685089Y-16298300D02*
X14704136Y-16307824D01*
X14704136Y-16307824D02*
X14723184Y-16307824D01*
X14942231Y-16174490D02*
X14942231Y-16374490D01*
X14942231Y-16184014D02*
X14961279Y-16174490D01*
X14961279Y-16174490D02*
X14999374Y-16174490D01*
X14999374Y-16174490D02*
X15018422Y-16184014D01*
X15018422Y-16184014D02*
X15027946Y-16193538D01*
X15027946Y-16193538D02*
X15037470Y-16212586D01*
X15037470Y-16212586D02*
X15037470Y-16269728D01*
X15037470Y-16269728D02*
X15027946Y-16288776D01*
X15027946Y-16288776D02*
X15018422Y-16298300D01*
X15018422Y-16298300D02*
X14999374Y-16307824D01*
X14999374Y-16307824D02*
X14961279Y-16307824D01*
X14961279Y-16307824D02*
X14942231Y-16298300D01*
X15151755Y-16307824D02*
X15132708Y-16298300D01*
X15132708Y-16298300D02*
X15123184Y-16279252D01*
X15123184Y-16279252D02*
X15123184Y-16107824D01*
X15313660Y-16307824D02*
X15313660Y-16203062D01*
X15313660Y-16203062D02*
X15304136Y-16184014D01*
X15304136Y-16184014D02*
X15285089Y-16174490D01*
X15285089Y-16174490D02*
X15246993Y-16174490D01*
X15246993Y-16174490D02*
X15227946Y-16184014D01*
X15313660Y-16298300D02*
X15294612Y-16307824D01*
X15294612Y-16307824D02*
X15246993Y-16307824D01*
X15246993Y-16307824D02*
X15227946Y-16298300D01*
X15227946Y-16298300D02*
X15218422Y-16279252D01*
X15218422Y-16279252D02*
X15218422Y-16260205D01*
X15218422Y-16260205D02*
X15227946Y-16241157D01*
X15227946Y-16241157D02*
X15246993Y-16231633D01*
X15246993Y-16231633D02*
X15294612Y-16231633D01*
X15294612Y-16231633D02*
X15313660Y-16222109D01*
X15380327Y-16174490D02*
X15456517Y-16174490D01*
X15408898Y-16107824D02*
X15408898Y-16279252D01*
X15408898Y-16279252D02*
X15418422Y-16298300D01*
X15418422Y-16298300D02*
X15437470Y-16307824D01*
X15437470Y-16307824D02*
X15456517Y-16307824D01*
X15599374Y-16298300D02*
X15580327Y-16307824D01*
X15580327Y-16307824D02*
X15542231Y-16307824D01*
X15542231Y-16307824D02*
X15523184Y-16298300D01*
X15523184Y-16298300D02*
X15513660Y-16279252D01*
X15513660Y-16279252D02*
X15513660Y-16203062D01*
X15513660Y-16203062D02*
X15523184Y-16184014D01*
X15523184Y-16184014D02*
X15542231Y-16174490D01*
X15542231Y-16174490D02*
X15580327Y-16174490D01*
X15580327Y-16174490D02*
X15599374Y-16184014D01*
X15599374Y-16184014D02*
X15608898Y-16203062D01*
X15608898Y-16203062D02*
X15608898Y-16222109D01*
X15608898Y-16222109D02*
X15513660Y-16241157D01*
X15780327Y-16307824D02*
X15780327Y-16107824D01*
X15780327Y-16298300D02*
X15761279Y-16307824D01*
X15761279Y-16307824D02*
X15723184Y-16307824D01*
X15723184Y-16307824D02*
X15704136Y-16298300D01*
X15704136Y-16298300D02*
X15694612Y-16288776D01*
X15694612Y-16288776D02*
X15685089Y-16269728D01*
X15685089Y-16269728D02*
X15685089Y-16212586D01*
X15685089Y-16212586D02*
X15694612Y-16193538D01*
X15694612Y-16193538D02*
X15704136Y-16184014D01*
X15704136Y-16184014D02*
X15723184Y-16174490D01*
X15723184Y-16174490D02*
X15761279Y-16174490D01*
X15761279Y-16174490D02*
X15780327Y-16184014D01*
X15856517Y-16384014D02*
X15866041Y-16374490D01*
X15866041Y-16374490D02*
X15885089Y-16345919D01*
X15885089Y-16345919D02*
X15894612Y-16326871D01*
X15894612Y-16326871D02*
X15904136Y-16298300D01*
X15904136Y-16298300D02*
X15913660Y-16250681D01*
X15913660Y-16250681D02*
X15913660Y-16212586D01*
X15913660Y-16212586D02*
X15904136Y-16164967D01*
X15904136Y-16164967D02*
X15894612Y-16136395D01*
X15894612Y-16136395D02*
X15885089Y-16117348D01*
X15885089Y-16117348D02*
X15866041Y-16088776D01*
X15866041Y-16088776D02*
X15856517Y-16079252D01*
M02*
