G04 #@! TF.GenerationSoftware,KiCad,Pcbnew,8.0.8+1*
G04 #@! TF.CreationDate,2025-07-08T12:52:23+00:00*
G04 #@! TF.ProjectId,corney_island_wireless_autorouted,636f726e-6579-45f6-9973-6c616e645f77,0.2*
G04 #@! TF.SameCoordinates,Original*
G04 #@! TF.FileFunction,Legend,Top*
G04 #@! TF.FilePolarity,Positive*
%FSLAX46Y46*%
G04 Gerber Fmt 4.6, Leading zero omitted, Abs format (unit mm)*
G04 Created by KiCad (PCBNEW 8.0.8+1) date 2025-07-08 12:52:23*
%MOMM*%
%LPD*%
G01*
G04 APERTURE LIST*
%ADD10C,0.150000*%
%ADD11C,0.100000*%
%ADD12C,0.120000*%
%ADD13C,2.000000*%
%ADD14C,3.100000*%
%ADD15C,4.200000*%
%ADD16C,4.400000*%
%ADD17C,0.850000*%
%ADD18C,1.000000*%
%ADD19O,1.850000X1.300000*%
%ADD20C,2.300000*%
%ADD21O,1.800000X1.800000*%
%ADD22C,1.800000*%
%ADD23C,0.900000*%
G04 APERTURE END LIST*
D10*
X133380951Y-107054819D02*
X133380951Y-107769104D01*
X133380951Y-107769104D02*
X133333332Y-107911961D01*
X133333332Y-107911961D02*
X133238094Y-108007200D01*
X133238094Y-108007200D02*
X133095237Y-108054819D01*
X133095237Y-108054819D02*
X132999999Y-108054819D01*
X134333332Y-108054819D02*
X133857142Y-108054819D01*
X133857142Y-108054819D02*
X133857142Y-107054819D01*
X135238094Y-107959580D02*
X135190475Y-108007200D01*
X135190475Y-108007200D02*
X135047618Y-108054819D01*
X135047618Y-108054819D02*
X134952380Y-108054819D01*
X134952380Y-108054819D02*
X134809523Y-108007200D01*
X134809523Y-108007200D02*
X134714285Y-107911961D01*
X134714285Y-107911961D02*
X134666666Y-107816723D01*
X134666666Y-107816723D02*
X134619047Y-107626247D01*
X134619047Y-107626247D02*
X134619047Y-107483390D01*
X134619047Y-107483390D02*
X134666666Y-107292914D01*
X134666666Y-107292914D02*
X134714285Y-107197676D01*
X134714285Y-107197676D02*
X134809523Y-107102438D01*
X134809523Y-107102438D02*
X134952380Y-107054819D01*
X134952380Y-107054819D02*
X135047618Y-107054819D01*
X135047618Y-107054819D02*
X135190475Y-107102438D01*
X135190475Y-107102438D02*
X135238094Y-107150057D01*
X135952380Y-107054819D02*
X135952380Y-107769104D01*
X135952380Y-107769104D02*
X135904761Y-107911961D01*
X135904761Y-107911961D02*
X135809523Y-108007200D01*
X135809523Y-108007200D02*
X135666666Y-108054819D01*
X135666666Y-108054819D02*
X135571428Y-108054819D01*
X136904761Y-108054819D02*
X136428571Y-108054819D01*
X136428571Y-108054819D02*
X136428571Y-107054819D01*
X137809523Y-107959580D02*
X137761904Y-108007200D01*
X137761904Y-108007200D02*
X137619047Y-108054819D01*
X137619047Y-108054819D02*
X137523809Y-108054819D01*
X137523809Y-108054819D02*
X137380952Y-108007200D01*
X137380952Y-108007200D02*
X137285714Y-107911961D01*
X137285714Y-107911961D02*
X137238095Y-107816723D01*
X137238095Y-107816723D02*
X137190476Y-107626247D01*
X137190476Y-107626247D02*
X137190476Y-107483390D01*
X137190476Y-107483390D02*
X137238095Y-107292914D01*
X137238095Y-107292914D02*
X137285714Y-107197676D01*
X137285714Y-107197676D02*
X137380952Y-107102438D01*
X137380952Y-107102438D02*
X137523809Y-107054819D01*
X137523809Y-107054819D02*
X137619047Y-107054819D01*
X137619047Y-107054819D02*
X137761904Y-107102438D01*
X137761904Y-107102438D02*
X137809523Y-107150057D01*
X138523809Y-107054819D02*
X138523809Y-107769104D01*
X138523809Y-107769104D02*
X138476190Y-107911961D01*
X138476190Y-107911961D02*
X138380952Y-108007200D01*
X138380952Y-108007200D02*
X138238095Y-108054819D01*
X138238095Y-108054819D02*
X138142857Y-108054819D01*
X139476190Y-108054819D02*
X139000000Y-108054819D01*
X139000000Y-108054819D02*
X139000000Y-107054819D01*
X140380952Y-107959580D02*
X140333333Y-108007200D01*
X140333333Y-108007200D02*
X140190476Y-108054819D01*
X140190476Y-108054819D02*
X140095238Y-108054819D01*
X140095238Y-108054819D02*
X139952381Y-108007200D01*
X139952381Y-108007200D02*
X139857143Y-107911961D01*
X139857143Y-107911961D02*
X139809524Y-107816723D01*
X139809524Y-107816723D02*
X139761905Y-107626247D01*
X139761905Y-107626247D02*
X139761905Y-107483390D01*
X139761905Y-107483390D02*
X139809524Y-107292914D01*
X139809524Y-107292914D02*
X139857143Y-107197676D01*
X139857143Y-107197676D02*
X139952381Y-107102438D01*
X139952381Y-107102438D02*
X140095238Y-107054819D01*
X140095238Y-107054819D02*
X140190476Y-107054819D01*
X140190476Y-107054819D02*
X140333333Y-107102438D01*
X140333333Y-107102438D02*
X140380952Y-107150057D01*
X141095238Y-107054819D02*
X141095238Y-107769104D01*
X141095238Y-107769104D02*
X141047619Y-107911961D01*
X141047619Y-107911961D02*
X140952381Y-108007200D01*
X140952381Y-108007200D02*
X140809524Y-108054819D01*
X140809524Y-108054819D02*
X140714286Y-108054819D01*
X142047619Y-108054819D02*
X141571429Y-108054819D01*
X141571429Y-108054819D02*
X141571429Y-107054819D01*
X142952381Y-107959580D02*
X142904762Y-108007200D01*
X142904762Y-108007200D02*
X142761905Y-108054819D01*
X142761905Y-108054819D02*
X142666667Y-108054819D01*
X142666667Y-108054819D02*
X142523810Y-108007200D01*
X142523810Y-108007200D02*
X142428572Y-107911961D01*
X142428572Y-107911961D02*
X142380953Y-107816723D01*
X142380953Y-107816723D02*
X142333334Y-107626247D01*
X142333334Y-107626247D02*
X142333334Y-107483390D01*
X142333334Y-107483390D02*
X142380953Y-107292914D01*
X142380953Y-107292914D02*
X142428572Y-107197676D01*
X142428572Y-107197676D02*
X142523810Y-107102438D01*
X142523810Y-107102438D02*
X142666667Y-107054819D01*
X142666667Y-107054819D02*
X142761905Y-107054819D01*
X142761905Y-107054819D02*
X142904762Y-107102438D01*
X142904762Y-107102438D02*
X142952381Y-107150057D01*
X222047619Y-103454819D02*
X222238095Y-103454819D01*
X222238095Y-103454819D02*
X222333333Y-103502438D01*
X222333333Y-103502438D02*
X222428571Y-103597676D01*
X222428571Y-103597676D02*
X222476190Y-103788152D01*
X222476190Y-103788152D02*
X222476190Y-104121485D01*
X222476190Y-104121485D02*
X222428571Y-104311961D01*
X222428571Y-104311961D02*
X222333333Y-104407200D01*
X222333333Y-104407200D02*
X222238095Y-104454819D01*
X222238095Y-104454819D02*
X222047619Y-104454819D01*
X222047619Y-104454819D02*
X221952381Y-104407200D01*
X221952381Y-104407200D02*
X221857143Y-104311961D01*
X221857143Y-104311961D02*
X221809524Y-104121485D01*
X221809524Y-104121485D02*
X221809524Y-103788152D01*
X221809524Y-103788152D02*
X221857143Y-103597676D01*
X221857143Y-103597676D02*
X221952381Y-103502438D01*
X221952381Y-103502438D02*
X222047619Y-103454819D01*
X223238095Y-103931009D02*
X222904762Y-103931009D01*
X222904762Y-104454819D02*
X222904762Y-103454819D01*
X222904762Y-103454819D02*
X223380952Y-103454819D01*
X224095238Y-103931009D02*
X223761905Y-103931009D01*
X223761905Y-104454819D02*
X223761905Y-103454819D01*
X223761905Y-103454819D02*
X224238095Y-103454819D01*
X222380952Y-93454819D02*
X222571428Y-93454819D01*
X222571428Y-93454819D02*
X222666666Y-93502438D01*
X222666666Y-93502438D02*
X222761904Y-93597676D01*
X222761904Y-93597676D02*
X222809523Y-93788152D01*
X222809523Y-93788152D02*
X222809523Y-94121485D01*
X222809523Y-94121485D02*
X222761904Y-94311961D01*
X222761904Y-94311961D02*
X222666666Y-94407200D01*
X222666666Y-94407200D02*
X222571428Y-94454819D01*
X222571428Y-94454819D02*
X222380952Y-94454819D01*
X222380952Y-94454819D02*
X222285714Y-94407200D01*
X222285714Y-94407200D02*
X222190476Y-94311961D01*
X222190476Y-94311961D02*
X222142857Y-94121485D01*
X222142857Y-94121485D02*
X222142857Y-93788152D01*
X222142857Y-93788152D02*
X222190476Y-93597676D01*
X222190476Y-93597676D02*
X222285714Y-93502438D01*
X222285714Y-93502438D02*
X222380952Y-93454819D01*
X223238095Y-94454819D02*
X223238095Y-93454819D01*
X223238095Y-93454819D02*
X223809523Y-94454819D01*
X223809523Y-94454819D02*
X223809523Y-93454819D01*
X216577333Y-81484819D02*
X216244000Y-81008628D01*
X216005905Y-81484819D02*
X216005905Y-80484819D01*
X216005905Y-80484819D02*
X216386857Y-80484819D01*
X216386857Y-80484819D02*
X216482095Y-80532438D01*
X216482095Y-80532438D02*
X216529714Y-80580057D01*
X216529714Y-80580057D02*
X216577333Y-80675295D01*
X216577333Y-80675295D02*
X216577333Y-80818152D01*
X216577333Y-80818152D02*
X216529714Y-80913390D01*
X216529714Y-80913390D02*
X216482095Y-80961009D01*
X216482095Y-80961009D02*
X216386857Y-81008628D01*
X216386857Y-81008628D02*
X216005905Y-81008628D01*
X216958286Y-80580057D02*
X217005905Y-80532438D01*
X217005905Y-80532438D02*
X217101143Y-80484819D01*
X217101143Y-80484819D02*
X217339238Y-80484819D01*
X217339238Y-80484819D02*
X217434476Y-80532438D01*
X217434476Y-80532438D02*
X217482095Y-80580057D01*
X217482095Y-80580057D02*
X217529714Y-80675295D01*
X217529714Y-80675295D02*
X217529714Y-80770533D01*
X217529714Y-80770533D02*
X217482095Y-80913390D01*
X217482095Y-80913390D02*
X216910667Y-81484819D01*
X216910667Y-81484819D02*
X217529714Y-81484819D01*
X212039714Y-84024819D02*
X212039714Y-83024819D01*
X212039714Y-83024819D02*
X212420666Y-83024819D01*
X212420666Y-83024819D02*
X212515904Y-83072438D01*
X212515904Y-83072438D02*
X212563523Y-83120057D01*
X212563523Y-83120057D02*
X212611142Y-83215295D01*
X212611142Y-83215295D02*
X212611142Y-83358152D01*
X212611142Y-83358152D02*
X212563523Y-83453390D01*
X212563523Y-83453390D02*
X212515904Y-83501009D01*
X212515904Y-83501009D02*
X212420666Y-83548628D01*
X212420666Y-83548628D02*
X212039714Y-83548628D01*
X213563523Y-84024819D02*
X212992095Y-84024819D01*
X213277809Y-84024819D02*
X213277809Y-83024819D01*
X213277809Y-83024819D02*
X213182571Y-83167676D01*
X213182571Y-83167676D02*
X213087333Y-83262914D01*
X213087333Y-83262914D02*
X212992095Y-83310533D01*
X214420666Y-83024819D02*
X214230190Y-83024819D01*
X214230190Y-83024819D02*
X214134952Y-83072438D01*
X214134952Y-83072438D02*
X214087333Y-83120057D01*
X214087333Y-83120057D02*
X213992095Y-83262914D01*
X213992095Y-83262914D02*
X213944476Y-83453390D01*
X213944476Y-83453390D02*
X213944476Y-83834342D01*
X213944476Y-83834342D02*
X213992095Y-83929580D01*
X213992095Y-83929580D02*
X214039714Y-83977200D01*
X214039714Y-83977200D02*
X214134952Y-84024819D01*
X214134952Y-84024819D02*
X214325428Y-84024819D01*
X214325428Y-84024819D02*
X214420666Y-83977200D01*
X214420666Y-83977200D02*
X214468285Y-83929580D01*
X214468285Y-83929580D02*
X214515904Y-83834342D01*
X214515904Y-83834342D02*
X214515904Y-83596247D01*
X214515904Y-83596247D02*
X214468285Y-83501009D01*
X214468285Y-83501009D02*
X214420666Y-83453390D01*
X214420666Y-83453390D02*
X214325428Y-83405771D01*
X214325428Y-83405771D02*
X214134952Y-83405771D01*
X214134952Y-83405771D02*
X214039714Y-83453390D01*
X214039714Y-83453390D02*
X213992095Y-83501009D01*
X213992095Y-83501009D02*
X213944476Y-83596247D01*
X212497333Y-81389580D02*
X212449714Y-81437200D01*
X212449714Y-81437200D02*
X212306857Y-81484819D01*
X212306857Y-81484819D02*
X212211619Y-81484819D01*
X212211619Y-81484819D02*
X212068762Y-81437200D01*
X212068762Y-81437200D02*
X211973524Y-81341961D01*
X211973524Y-81341961D02*
X211925905Y-81246723D01*
X211925905Y-81246723D02*
X211878286Y-81056247D01*
X211878286Y-81056247D02*
X211878286Y-80913390D01*
X211878286Y-80913390D02*
X211925905Y-80722914D01*
X211925905Y-80722914D02*
X211973524Y-80627676D01*
X211973524Y-80627676D02*
X212068762Y-80532438D01*
X212068762Y-80532438D02*
X212211619Y-80484819D01*
X212211619Y-80484819D02*
X212306857Y-80484819D01*
X212306857Y-80484819D02*
X212449714Y-80532438D01*
X212449714Y-80532438D02*
X212497333Y-80580057D01*
X213402095Y-80484819D02*
X212925905Y-80484819D01*
X212925905Y-80484819D02*
X212878286Y-80961009D01*
X212878286Y-80961009D02*
X212925905Y-80913390D01*
X212925905Y-80913390D02*
X213021143Y-80865771D01*
X213021143Y-80865771D02*
X213259238Y-80865771D01*
X213259238Y-80865771D02*
X213354476Y-80913390D01*
X213354476Y-80913390D02*
X213402095Y-80961009D01*
X213402095Y-80961009D02*
X213449714Y-81056247D01*
X213449714Y-81056247D02*
X213449714Y-81294342D01*
X213449714Y-81294342D02*
X213402095Y-81389580D01*
X213402095Y-81389580D02*
X213354476Y-81437200D01*
X213354476Y-81437200D02*
X213259238Y-81484819D01*
X213259238Y-81484819D02*
X213021143Y-81484819D01*
X213021143Y-81484819D02*
X212925905Y-81437200D01*
X212925905Y-81437200D02*
X212878286Y-81389580D01*
X214963524Y-71277200D02*
X215106381Y-71324819D01*
X215106381Y-71324819D02*
X215344476Y-71324819D01*
X215344476Y-71324819D02*
X215439714Y-71277200D01*
X215439714Y-71277200D02*
X215487333Y-71229580D01*
X215487333Y-71229580D02*
X215534952Y-71134342D01*
X215534952Y-71134342D02*
X215534952Y-71039104D01*
X215534952Y-71039104D02*
X215487333Y-70943866D01*
X215487333Y-70943866D02*
X215439714Y-70896247D01*
X215439714Y-70896247D02*
X215344476Y-70848628D01*
X215344476Y-70848628D02*
X215154000Y-70801009D01*
X215154000Y-70801009D02*
X215058762Y-70753390D01*
X215058762Y-70753390D02*
X215011143Y-70705771D01*
X215011143Y-70705771D02*
X214963524Y-70610533D01*
X214963524Y-70610533D02*
X214963524Y-70515295D01*
X214963524Y-70515295D02*
X215011143Y-70420057D01*
X215011143Y-70420057D02*
X215058762Y-70372438D01*
X215058762Y-70372438D02*
X215154000Y-70324819D01*
X215154000Y-70324819D02*
X215392095Y-70324819D01*
X215392095Y-70324819D02*
X215534952Y-70372438D01*
X216534952Y-71229580D02*
X216487333Y-71277200D01*
X216487333Y-71277200D02*
X216344476Y-71324819D01*
X216344476Y-71324819D02*
X216249238Y-71324819D01*
X216249238Y-71324819D02*
X216106381Y-71277200D01*
X216106381Y-71277200D02*
X216011143Y-71181961D01*
X216011143Y-71181961D02*
X215963524Y-71086723D01*
X215963524Y-71086723D02*
X215915905Y-70896247D01*
X215915905Y-70896247D02*
X215915905Y-70753390D01*
X215915905Y-70753390D02*
X215963524Y-70562914D01*
X215963524Y-70562914D02*
X216011143Y-70467676D01*
X216011143Y-70467676D02*
X216106381Y-70372438D01*
X216106381Y-70372438D02*
X216249238Y-70324819D01*
X216249238Y-70324819D02*
X216344476Y-70324819D01*
X216344476Y-70324819D02*
X216487333Y-70372438D01*
X216487333Y-70372438D02*
X216534952Y-70420057D01*
X217439714Y-71324819D02*
X216963524Y-71324819D01*
X216963524Y-71324819D02*
X216963524Y-70324819D01*
X212497333Y-68689580D02*
X212449714Y-68737200D01*
X212449714Y-68737200D02*
X212306857Y-68784819D01*
X212306857Y-68784819D02*
X212211619Y-68784819D01*
X212211619Y-68784819D02*
X212068762Y-68737200D01*
X212068762Y-68737200D02*
X211973524Y-68641961D01*
X211973524Y-68641961D02*
X211925905Y-68546723D01*
X211925905Y-68546723D02*
X211878286Y-68356247D01*
X211878286Y-68356247D02*
X211878286Y-68213390D01*
X211878286Y-68213390D02*
X211925905Y-68022914D01*
X211925905Y-68022914D02*
X211973524Y-67927676D01*
X211973524Y-67927676D02*
X212068762Y-67832438D01*
X212068762Y-67832438D02*
X212211619Y-67784819D01*
X212211619Y-67784819D02*
X212306857Y-67784819D01*
X212306857Y-67784819D02*
X212449714Y-67832438D01*
X212449714Y-67832438D02*
X212497333Y-67880057D01*
X213116381Y-67784819D02*
X213211619Y-67784819D01*
X213211619Y-67784819D02*
X213306857Y-67832438D01*
X213306857Y-67832438D02*
X213354476Y-67880057D01*
X213354476Y-67880057D02*
X213402095Y-67975295D01*
X213402095Y-67975295D02*
X213449714Y-68165771D01*
X213449714Y-68165771D02*
X213449714Y-68403866D01*
X213449714Y-68403866D02*
X213402095Y-68594342D01*
X213402095Y-68594342D02*
X213354476Y-68689580D01*
X213354476Y-68689580D02*
X213306857Y-68737200D01*
X213306857Y-68737200D02*
X213211619Y-68784819D01*
X213211619Y-68784819D02*
X213116381Y-68784819D01*
X213116381Y-68784819D02*
X213021143Y-68737200D01*
X213021143Y-68737200D02*
X212973524Y-68689580D01*
X212973524Y-68689580D02*
X212925905Y-68594342D01*
X212925905Y-68594342D02*
X212878286Y-68403866D01*
X212878286Y-68403866D02*
X212878286Y-68165771D01*
X212878286Y-68165771D02*
X212925905Y-67975295D01*
X212925905Y-67975295D02*
X212973524Y-67880057D01*
X212973524Y-67880057D02*
X213021143Y-67832438D01*
X213021143Y-67832438D02*
X213116381Y-67784819D01*
X216005905Y-86564819D02*
X216005905Y-85564819D01*
X216005905Y-85564819D02*
X216386857Y-85564819D01*
X216386857Y-85564819D02*
X216482095Y-85612438D01*
X216482095Y-85612438D02*
X216529714Y-85660057D01*
X216529714Y-85660057D02*
X216577333Y-85755295D01*
X216577333Y-85755295D02*
X216577333Y-85898152D01*
X216577333Y-85898152D02*
X216529714Y-85993390D01*
X216529714Y-85993390D02*
X216482095Y-86041009D01*
X216482095Y-86041009D02*
X216386857Y-86088628D01*
X216386857Y-86088628D02*
X216005905Y-86088628D01*
X217053524Y-86564819D02*
X217244000Y-86564819D01*
X217244000Y-86564819D02*
X217339238Y-86517200D01*
X217339238Y-86517200D02*
X217386857Y-86469580D01*
X217386857Y-86469580D02*
X217482095Y-86326723D01*
X217482095Y-86326723D02*
X217529714Y-86136247D01*
X217529714Y-86136247D02*
X217529714Y-85755295D01*
X217529714Y-85755295D02*
X217482095Y-85660057D01*
X217482095Y-85660057D02*
X217434476Y-85612438D01*
X217434476Y-85612438D02*
X217339238Y-85564819D01*
X217339238Y-85564819D02*
X217148762Y-85564819D01*
X217148762Y-85564819D02*
X217053524Y-85612438D01*
X217053524Y-85612438D02*
X217005905Y-85660057D01*
X217005905Y-85660057D02*
X216958286Y-85755295D01*
X216958286Y-85755295D02*
X216958286Y-85993390D01*
X216958286Y-85993390D02*
X217005905Y-86088628D01*
X217005905Y-86088628D02*
X217053524Y-86136247D01*
X217053524Y-86136247D02*
X217148762Y-86183866D01*
X217148762Y-86183866D02*
X217339238Y-86183866D01*
X217339238Y-86183866D02*
X217434476Y-86136247D01*
X217434476Y-86136247D02*
X217482095Y-86088628D01*
X217482095Y-86088628D02*
X217529714Y-85993390D01*
X215392095Y-62752438D02*
X215296857Y-62704819D01*
X215296857Y-62704819D02*
X215154000Y-62704819D01*
X215154000Y-62704819D02*
X215011143Y-62752438D01*
X215011143Y-62752438D02*
X214915905Y-62847676D01*
X214915905Y-62847676D02*
X214868286Y-62942914D01*
X214868286Y-62942914D02*
X214820667Y-63133390D01*
X214820667Y-63133390D02*
X214820667Y-63276247D01*
X214820667Y-63276247D02*
X214868286Y-63466723D01*
X214868286Y-63466723D02*
X214915905Y-63561961D01*
X214915905Y-63561961D02*
X215011143Y-63657200D01*
X215011143Y-63657200D02*
X215154000Y-63704819D01*
X215154000Y-63704819D02*
X215249238Y-63704819D01*
X215249238Y-63704819D02*
X215392095Y-63657200D01*
X215392095Y-63657200D02*
X215439714Y-63609580D01*
X215439714Y-63609580D02*
X215439714Y-63276247D01*
X215439714Y-63276247D02*
X215249238Y-63276247D01*
X215868286Y-63704819D02*
X215868286Y-62704819D01*
X215868286Y-62704819D02*
X216439714Y-63704819D01*
X216439714Y-63704819D02*
X216439714Y-62704819D01*
X216915905Y-63704819D02*
X216915905Y-62704819D01*
X216915905Y-62704819D02*
X217154000Y-62704819D01*
X217154000Y-62704819D02*
X217296857Y-62752438D01*
X217296857Y-62752438D02*
X217392095Y-62847676D01*
X217392095Y-62847676D02*
X217439714Y-62942914D01*
X217439714Y-62942914D02*
X217487333Y-63133390D01*
X217487333Y-63133390D02*
X217487333Y-63276247D01*
X217487333Y-63276247D02*
X217439714Y-63466723D01*
X217439714Y-63466723D02*
X217392095Y-63561961D01*
X217392095Y-63561961D02*
X217296857Y-63657200D01*
X217296857Y-63657200D02*
X217154000Y-63704819D01*
X217154000Y-63704819D02*
X216915905Y-63704819D01*
X215082571Y-61164819D02*
X215082571Y-60164819D01*
X215082571Y-60164819D02*
X215320666Y-60164819D01*
X215320666Y-60164819D02*
X215463523Y-60212438D01*
X215463523Y-60212438D02*
X215558761Y-60307676D01*
X215558761Y-60307676D02*
X215606380Y-60402914D01*
X215606380Y-60402914D02*
X215653999Y-60593390D01*
X215653999Y-60593390D02*
X215653999Y-60736247D01*
X215653999Y-60736247D02*
X215606380Y-60926723D01*
X215606380Y-60926723D02*
X215558761Y-61021961D01*
X215558761Y-61021961D02*
X215463523Y-61117200D01*
X215463523Y-61117200D02*
X215320666Y-61164819D01*
X215320666Y-61164819D02*
X215082571Y-61164819D01*
X216034952Y-60879104D02*
X216511142Y-60879104D01*
X215939714Y-61164819D02*
X216273047Y-60164819D01*
X216273047Y-60164819D02*
X216606380Y-61164819D01*
X216796857Y-60164819D02*
X217368285Y-60164819D01*
X217082571Y-61164819D02*
X217082571Y-60164819D01*
X216577333Y-76404819D02*
X216244000Y-75928628D01*
X216005905Y-76404819D02*
X216005905Y-75404819D01*
X216005905Y-75404819D02*
X216386857Y-75404819D01*
X216386857Y-75404819D02*
X216482095Y-75452438D01*
X216482095Y-75452438D02*
X216529714Y-75500057D01*
X216529714Y-75500057D02*
X216577333Y-75595295D01*
X216577333Y-75595295D02*
X216577333Y-75738152D01*
X216577333Y-75738152D02*
X216529714Y-75833390D01*
X216529714Y-75833390D02*
X216482095Y-75881009D01*
X216482095Y-75881009D02*
X216386857Y-75928628D01*
X216386857Y-75928628D02*
X216005905Y-75928628D01*
X217196381Y-75404819D02*
X217291619Y-75404819D01*
X217291619Y-75404819D02*
X217386857Y-75452438D01*
X217386857Y-75452438D02*
X217434476Y-75500057D01*
X217434476Y-75500057D02*
X217482095Y-75595295D01*
X217482095Y-75595295D02*
X217529714Y-75785771D01*
X217529714Y-75785771D02*
X217529714Y-76023866D01*
X217529714Y-76023866D02*
X217482095Y-76214342D01*
X217482095Y-76214342D02*
X217434476Y-76309580D01*
X217434476Y-76309580D02*
X217386857Y-76357200D01*
X217386857Y-76357200D02*
X217291619Y-76404819D01*
X217291619Y-76404819D02*
X217196381Y-76404819D01*
X217196381Y-76404819D02*
X217101143Y-76357200D01*
X217101143Y-76357200D02*
X217053524Y-76309580D01*
X217053524Y-76309580D02*
X217005905Y-76214342D01*
X217005905Y-76214342D02*
X216958286Y-76023866D01*
X216958286Y-76023866D02*
X216958286Y-75785771D01*
X216958286Y-75785771D02*
X217005905Y-75595295D01*
X217005905Y-75595295D02*
X217053524Y-75500057D01*
X217053524Y-75500057D02*
X217101143Y-75452438D01*
X217101143Y-75452438D02*
X217196381Y-75404819D01*
X212706380Y-63704819D02*
X212373047Y-63228628D01*
X212134952Y-63704819D02*
X212134952Y-62704819D01*
X212134952Y-62704819D02*
X212515904Y-62704819D01*
X212515904Y-62704819D02*
X212611142Y-62752438D01*
X212611142Y-62752438D02*
X212658761Y-62800057D01*
X212658761Y-62800057D02*
X212706380Y-62895295D01*
X212706380Y-62895295D02*
X212706380Y-63038152D01*
X212706380Y-63038152D02*
X212658761Y-63133390D01*
X212658761Y-63133390D02*
X212611142Y-63181009D01*
X212611142Y-63181009D02*
X212515904Y-63228628D01*
X212515904Y-63228628D02*
X212134952Y-63228628D01*
X213087333Y-63657200D02*
X213230190Y-63704819D01*
X213230190Y-63704819D02*
X213468285Y-63704819D01*
X213468285Y-63704819D02*
X213563523Y-63657200D01*
X213563523Y-63657200D02*
X213611142Y-63609580D01*
X213611142Y-63609580D02*
X213658761Y-63514342D01*
X213658761Y-63514342D02*
X213658761Y-63419104D01*
X213658761Y-63419104D02*
X213611142Y-63323866D01*
X213611142Y-63323866D02*
X213563523Y-63276247D01*
X213563523Y-63276247D02*
X213468285Y-63228628D01*
X213468285Y-63228628D02*
X213277809Y-63181009D01*
X213277809Y-63181009D02*
X213182571Y-63133390D01*
X213182571Y-63133390D02*
X213134952Y-63085771D01*
X213134952Y-63085771D02*
X213087333Y-62990533D01*
X213087333Y-62990533D02*
X213087333Y-62895295D01*
X213087333Y-62895295D02*
X213134952Y-62800057D01*
X213134952Y-62800057D02*
X213182571Y-62752438D01*
X213182571Y-62752438D02*
X213277809Y-62704819D01*
X213277809Y-62704819D02*
X213515904Y-62704819D01*
X213515904Y-62704819D02*
X213658761Y-62752438D01*
X213944476Y-62704819D02*
X214515904Y-62704819D01*
X214230190Y-63704819D02*
X214230190Y-62704819D01*
X212497333Y-78849580D02*
X212449714Y-78897200D01*
X212449714Y-78897200D02*
X212306857Y-78944819D01*
X212306857Y-78944819D02*
X212211619Y-78944819D01*
X212211619Y-78944819D02*
X212068762Y-78897200D01*
X212068762Y-78897200D02*
X211973524Y-78801961D01*
X211973524Y-78801961D02*
X211925905Y-78706723D01*
X211925905Y-78706723D02*
X211878286Y-78516247D01*
X211878286Y-78516247D02*
X211878286Y-78373390D01*
X211878286Y-78373390D02*
X211925905Y-78182914D01*
X211925905Y-78182914D02*
X211973524Y-78087676D01*
X211973524Y-78087676D02*
X212068762Y-77992438D01*
X212068762Y-77992438D02*
X212211619Y-77944819D01*
X212211619Y-77944819D02*
X212306857Y-77944819D01*
X212306857Y-77944819D02*
X212449714Y-77992438D01*
X212449714Y-77992438D02*
X212497333Y-78040057D01*
X213354476Y-78278152D02*
X213354476Y-78944819D01*
X213116381Y-77897200D02*
X212878286Y-78611485D01*
X212878286Y-78611485D02*
X213497333Y-78611485D01*
X212497333Y-73769580D02*
X212449714Y-73817200D01*
X212449714Y-73817200D02*
X212306857Y-73864819D01*
X212306857Y-73864819D02*
X212211619Y-73864819D01*
X212211619Y-73864819D02*
X212068762Y-73817200D01*
X212068762Y-73817200D02*
X211973524Y-73721961D01*
X211973524Y-73721961D02*
X211925905Y-73626723D01*
X211925905Y-73626723D02*
X211878286Y-73436247D01*
X211878286Y-73436247D02*
X211878286Y-73293390D01*
X211878286Y-73293390D02*
X211925905Y-73102914D01*
X211925905Y-73102914D02*
X211973524Y-73007676D01*
X211973524Y-73007676D02*
X212068762Y-72912438D01*
X212068762Y-72912438D02*
X212211619Y-72864819D01*
X212211619Y-72864819D02*
X212306857Y-72864819D01*
X212306857Y-72864819D02*
X212449714Y-72912438D01*
X212449714Y-72912438D02*
X212497333Y-72960057D01*
X212878286Y-72960057D02*
X212925905Y-72912438D01*
X212925905Y-72912438D02*
X213021143Y-72864819D01*
X213021143Y-72864819D02*
X213259238Y-72864819D01*
X213259238Y-72864819D02*
X213354476Y-72912438D01*
X213354476Y-72912438D02*
X213402095Y-72960057D01*
X213402095Y-72960057D02*
X213449714Y-73055295D01*
X213449714Y-73055295D02*
X213449714Y-73150533D01*
X213449714Y-73150533D02*
X213402095Y-73293390D01*
X213402095Y-73293390D02*
X212830667Y-73864819D01*
X212830667Y-73864819D02*
X213449714Y-73864819D01*
X216577333Y-84024819D02*
X216244000Y-83548628D01*
X216005905Y-84024819D02*
X216005905Y-83024819D01*
X216005905Y-83024819D02*
X216386857Y-83024819D01*
X216386857Y-83024819D02*
X216482095Y-83072438D01*
X216482095Y-83072438D02*
X216529714Y-83120057D01*
X216529714Y-83120057D02*
X216577333Y-83215295D01*
X216577333Y-83215295D02*
X216577333Y-83358152D01*
X216577333Y-83358152D02*
X216529714Y-83453390D01*
X216529714Y-83453390D02*
X216482095Y-83501009D01*
X216482095Y-83501009D02*
X216386857Y-83548628D01*
X216386857Y-83548628D02*
X216005905Y-83548628D01*
X216910667Y-83024819D02*
X217529714Y-83024819D01*
X217529714Y-83024819D02*
X217196381Y-83405771D01*
X217196381Y-83405771D02*
X217339238Y-83405771D01*
X217339238Y-83405771D02*
X217434476Y-83453390D01*
X217434476Y-83453390D02*
X217482095Y-83501009D01*
X217482095Y-83501009D02*
X217529714Y-83596247D01*
X217529714Y-83596247D02*
X217529714Y-83834342D01*
X217529714Y-83834342D02*
X217482095Y-83929580D01*
X217482095Y-83929580D02*
X217434476Y-83977200D01*
X217434476Y-83977200D02*
X217339238Y-84024819D01*
X217339238Y-84024819D02*
X217053524Y-84024819D01*
X217053524Y-84024819D02*
X216958286Y-83977200D01*
X216958286Y-83977200D02*
X216910667Y-83929580D01*
X212563523Y-58624819D02*
X212230190Y-58148628D01*
X211992095Y-58624819D02*
X211992095Y-57624819D01*
X211992095Y-57624819D02*
X212373047Y-57624819D01*
X212373047Y-57624819D02*
X212468285Y-57672438D01*
X212468285Y-57672438D02*
X212515904Y-57720057D01*
X212515904Y-57720057D02*
X212563523Y-57815295D01*
X212563523Y-57815295D02*
X212563523Y-57958152D01*
X212563523Y-57958152D02*
X212515904Y-58053390D01*
X212515904Y-58053390D02*
X212468285Y-58101009D01*
X212468285Y-58101009D02*
X212373047Y-58148628D01*
X212373047Y-58148628D02*
X211992095Y-58148628D01*
X212944476Y-58339104D02*
X213420666Y-58339104D01*
X212849238Y-58624819D02*
X213182571Y-57624819D01*
X213182571Y-57624819D02*
X213515904Y-58624819D01*
X213754000Y-57624819D02*
X213992095Y-58624819D01*
X213992095Y-58624819D02*
X214182571Y-57910533D01*
X214182571Y-57910533D02*
X214373047Y-58624819D01*
X214373047Y-58624819D02*
X214611143Y-57624819D01*
X212039714Y-86564819D02*
X212039714Y-85564819D01*
X212039714Y-85564819D02*
X212420666Y-85564819D01*
X212420666Y-85564819D02*
X212515904Y-85612438D01*
X212515904Y-85612438D02*
X212563523Y-85660057D01*
X212563523Y-85660057D02*
X212611142Y-85755295D01*
X212611142Y-85755295D02*
X212611142Y-85898152D01*
X212611142Y-85898152D02*
X212563523Y-85993390D01*
X212563523Y-85993390D02*
X212515904Y-86041009D01*
X212515904Y-86041009D02*
X212420666Y-86088628D01*
X212420666Y-86088628D02*
X212039714Y-86088628D01*
X213563523Y-86564819D02*
X212992095Y-86564819D01*
X213277809Y-86564819D02*
X213277809Y-85564819D01*
X213277809Y-85564819D02*
X213182571Y-85707676D01*
X213182571Y-85707676D02*
X213087333Y-85802914D01*
X213087333Y-85802914D02*
X212992095Y-85850533D01*
X214182571Y-85564819D02*
X214277809Y-85564819D01*
X214277809Y-85564819D02*
X214373047Y-85612438D01*
X214373047Y-85612438D02*
X214420666Y-85660057D01*
X214420666Y-85660057D02*
X214468285Y-85755295D01*
X214468285Y-85755295D02*
X214515904Y-85945771D01*
X214515904Y-85945771D02*
X214515904Y-86183866D01*
X214515904Y-86183866D02*
X214468285Y-86374342D01*
X214468285Y-86374342D02*
X214420666Y-86469580D01*
X214420666Y-86469580D02*
X214373047Y-86517200D01*
X214373047Y-86517200D02*
X214277809Y-86564819D01*
X214277809Y-86564819D02*
X214182571Y-86564819D01*
X214182571Y-86564819D02*
X214087333Y-86517200D01*
X214087333Y-86517200D02*
X214039714Y-86469580D01*
X214039714Y-86469580D02*
X213992095Y-86374342D01*
X213992095Y-86374342D02*
X213944476Y-86183866D01*
X213944476Y-86183866D02*
X213944476Y-85945771D01*
X213944476Y-85945771D02*
X213992095Y-85755295D01*
X213992095Y-85755295D02*
X214039714Y-85660057D01*
X214039714Y-85660057D02*
X214087333Y-85612438D01*
X214087333Y-85612438D02*
X214182571Y-85564819D01*
X212497333Y-71229580D02*
X212449714Y-71277200D01*
X212449714Y-71277200D02*
X212306857Y-71324819D01*
X212306857Y-71324819D02*
X212211619Y-71324819D01*
X212211619Y-71324819D02*
X212068762Y-71277200D01*
X212068762Y-71277200D02*
X211973524Y-71181961D01*
X211973524Y-71181961D02*
X211925905Y-71086723D01*
X211925905Y-71086723D02*
X211878286Y-70896247D01*
X211878286Y-70896247D02*
X211878286Y-70753390D01*
X211878286Y-70753390D02*
X211925905Y-70562914D01*
X211925905Y-70562914D02*
X211973524Y-70467676D01*
X211973524Y-70467676D02*
X212068762Y-70372438D01*
X212068762Y-70372438D02*
X212211619Y-70324819D01*
X212211619Y-70324819D02*
X212306857Y-70324819D01*
X212306857Y-70324819D02*
X212449714Y-70372438D01*
X212449714Y-70372438D02*
X212497333Y-70420057D01*
X213449714Y-71324819D02*
X212878286Y-71324819D01*
X213164000Y-71324819D02*
X213164000Y-70324819D01*
X213164000Y-70324819D02*
X213068762Y-70467676D01*
X213068762Y-70467676D02*
X212973524Y-70562914D01*
X212973524Y-70562914D02*
X212878286Y-70610533D01*
X214939714Y-68737200D02*
X215082571Y-68784819D01*
X215082571Y-68784819D02*
X215320666Y-68784819D01*
X215320666Y-68784819D02*
X215415904Y-68737200D01*
X215415904Y-68737200D02*
X215463523Y-68689580D01*
X215463523Y-68689580D02*
X215511142Y-68594342D01*
X215511142Y-68594342D02*
X215511142Y-68499104D01*
X215511142Y-68499104D02*
X215463523Y-68403866D01*
X215463523Y-68403866D02*
X215415904Y-68356247D01*
X215415904Y-68356247D02*
X215320666Y-68308628D01*
X215320666Y-68308628D02*
X215130190Y-68261009D01*
X215130190Y-68261009D02*
X215034952Y-68213390D01*
X215034952Y-68213390D02*
X214987333Y-68165771D01*
X214987333Y-68165771D02*
X214939714Y-68070533D01*
X214939714Y-68070533D02*
X214939714Y-67975295D01*
X214939714Y-67975295D02*
X214987333Y-67880057D01*
X214987333Y-67880057D02*
X215034952Y-67832438D01*
X215034952Y-67832438D02*
X215130190Y-67784819D01*
X215130190Y-67784819D02*
X215368285Y-67784819D01*
X215368285Y-67784819D02*
X215511142Y-67832438D01*
X215939714Y-68784819D02*
X215939714Y-67784819D01*
X215939714Y-67784819D02*
X216177809Y-67784819D01*
X216177809Y-67784819D02*
X216320666Y-67832438D01*
X216320666Y-67832438D02*
X216415904Y-67927676D01*
X216415904Y-67927676D02*
X216463523Y-68022914D01*
X216463523Y-68022914D02*
X216511142Y-68213390D01*
X216511142Y-68213390D02*
X216511142Y-68356247D01*
X216511142Y-68356247D02*
X216463523Y-68546723D01*
X216463523Y-68546723D02*
X216415904Y-68641961D01*
X216415904Y-68641961D02*
X216320666Y-68737200D01*
X216320666Y-68737200D02*
X216177809Y-68784819D01*
X216177809Y-68784819D02*
X215939714Y-68784819D01*
X216892095Y-68499104D02*
X217368285Y-68499104D01*
X216796857Y-68784819D02*
X217130190Y-67784819D01*
X217130190Y-67784819D02*
X217463523Y-68784819D01*
X216577333Y-73769580D02*
X216529714Y-73817200D01*
X216529714Y-73817200D02*
X216386857Y-73864819D01*
X216386857Y-73864819D02*
X216291619Y-73864819D01*
X216291619Y-73864819D02*
X216148762Y-73817200D01*
X216148762Y-73817200D02*
X216053524Y-73721961D01*
X216053524Y-73721961D02*
X216005905Y-73626723D01*
X216005905Y-73626723D02*
X215958286Y-73436247D01*
X215958286Y-73436247D02*
X215958286Y-73293390D01*
X215958286Y-73293390D02*
X216005905Y-73102914D01*
X216005905Y-73102914D02*
X216053524Y-73007676D01*
X216053524Y-73007676D02*
X216148762Y-72912438D01*
X216148762Y-72912438D02*
X216291619Y-72864819D01*
X216291619Y-72864819D02*
X216386857Y-72864819D01*
X216386857Y-72864819D02*
X216529714Y-72912438D01*
X216529714Y-72912438D02*
X216577333Y-72960057D01*
X216958286Y-73817200D02*
X217101143Y-73864819D01*
X217101143Y-73864819D02*
X217339238Y-73864819D01*
X217339238Y-73864819D02*
X217434476Y-73817200D01*
X217434476Y-73817200D02*
X217482095Y-73769580D01*
X217482095Y-73769580D02*
X217529714Y-73674342D01*
X217529714Y-73674342D02*
X217529714Y-73579104D01*
X217529714Y-73579104D02*
X217482095Y-73483866D01*
X217482095Y-73483866D02*
X217434476Y-73436247D01*
X217434476Y-73436247D02*
X217339238Y-73388628D01*
X217339238Y-73388628D02*
X217148762Y-73341009D01*
X217148762Y-73341009D02*
X217053524Y-73293390D01*
X217053524Y-73293390D02*
X217005905Y-73245771D01*
X217005905Y-73245771D02*
X216958286Y-73150533D01*
X216958286Y-73150533D02*
X216958286Y-73055295D01*
X216958286Y-73055295D02*
X217005905Y-72960057D01*
X217005905Y-72960057D02*
X217053524Y-72912438D01*
X217053524Y-72912438D02*
X217148762Y-72864819D01*
X217148762Y-72864819D02*
X217386857Y-72864819D01*
X217386857Y-72864819D02*
X217529714Y-72912438D01*
X211920667Y-65244819D02*
X212254000Y-66244819D01*
X212254000Y-66244819D02*
X212587333Y-65244819D01*
X213492095Y-66149580D02*
X213444476Y-66197200D01*
X213444476Y-66197200D02*
X213301619Y-66244819D01*
X213301619Y-66244819D02*
X213206381Y-66244819D01*
X213206381Y-66244819D02*
X213063524Y-66197200D01*
X213063524Y-66197200D02*
X212968286Y-66101961D01*
X212968286Y-66101961D02*
X212920667Y-66006723D01*
X212920667Y-66006723D02*
X212873048Y-65816247D01*
X212873048Y-65816247D02*
X212873048Y-65673390D01*
X212873048Y-65673390D02*
X212920667Y-65482914D01*
X212920667Y-65482914D02*
X212968286Y-65387676D01*
X212968286Y-65387676D02*
X213063524Y-65292438D01*
X213063524Y-65292438D02*
X213206381Y-65244819D01*
X213206381Y-65244819D02*
X213301619Y-65244819D01*
X213301619Y-65244819D02*
X213444476Y-65292438D01*
X213444476Y-65292438D02*
X213492095Y-65340057D01*
X214492095Y-66149580D02*
X214444476Y-66197200D01*
X214444476Y-66197200D02*
X214301619Y-66244819D01*
X214301619Y-66244819D02*
X214206381Y-66244819D01*
X214206381Y-66244819D02*
X214063524Y-66197200D01*
X214063524Y-66197200D02*
X213968286Y-66101961D01*
X213968286Y-66101961D02*
X213920667Y-66006723D01*
X213920667Y-66006723D02*
X213873048Y-65816247D01*
X213873048Y-65816247D02*
X213873048Y-65673390D01*
X213873048Y-65673390D02*
X213920667Y-65482914D01*
X213920667Y-65482914D02*
X213968286Y-65387676D01*
X213968286Y-65387676D02*
X214063524Y-65292438D01*
X214063524Y-65292438D02*
X214206381Y-65244819D01*
X214206381Y-65244819D02*
X214301619Y-65244819D01*
X214301619Y-65244819D02*
X214444476Y-65292438D01*
X214444476Y-65292438D02*
X214492095Y-65340057D01*
X212497333Y-76309580D02*
X212449714Y-76357200D01*
X212449714Y-76357200D02*
X212306857Y-76404819D01*
X212306857Y-76404819D02*
X212211619Y-76404819D01*
X212211619Y-76404819D02*
X212068762Y-76357200D01*
X212068762Y-76357200D02*
X211973524Y-76261961D01*
X211973524Y-76261961D02*
X211925905Y-76166723D01*
X211925905Y-76166723D02*
X211878286Y-75976247D01*
X211878286Y-75976247D02*
X211878286Y-75833390D01*
X211878286Y-75833390D02*
X211925905Y-75642914D01*
X211925905Y-75642914D02*
X211973524Y-75547676D01*
X211973524Y-75547676D02*
X212068762Y-75452438D01*
X212068762Y-75452438D02*
X212211619Y-75404819D01*
X212211619Y-75404819D02*
X212306857Y-75404819D01*
X212306857Y-75404819D02*
X212449714Y-75452438D01*
X212449714Y-75452438D02*
X212497333Y-75500057D01*
X212830667Y-75404819D02*
X213449714Y-75404819D01*
X213449714Y-75404819D02*
X213116381Y-75785771D01*
X213116381Y-75785771D02*
X213259238Y-75785771D01*
X213259238Y-75785771D02*
X213354476Y-75833390D01*
X213354476Y-75833390D02*
X213402095Y-75881009D01*
X213402095Y-75881009D02*
X213449714Y-75976247D01*
X213449714Y-75976247D02*
X213449714Y-76214342D01*
X213449714Y-76214342D02*
X213402095Y-76309580D01*
X213402095Y-76309580D02*
X213354476Y-76357200D01*
X213354476Y-76357200D02*
X213259238Y-76404819D01*
X213259238Y-76404819D02*
X212973524Y-76404819D01*
X212973524Y-76404819D02*
X212878286Y-76357200D01*
X212878286Y-76357200D02*
X212830667Y-76309580D01*
X215392095Y-65292438D02*
X215296857Y-65244819D01*
X215296857Y-65244819D02*
X215154000Y-65244819D01*
X215154000Y-65244819D02*
X215011143Y-65292438D01*
X215011143Y-65292438D02*
X214915905Y-65387676D01*
X214915905Y-65387676D02*
X214868286Y-65482914D01*
X214868286Y-65482914D02*
X214820667Y-65673390D01*
X214820667Y-65673390D02*
X214820667Y-65816247D01*
X214820667Y-65816247D02*
X214868286Y-66006723D01*
X214868286Y-66006723D02*
X214915905Y-66101961D01*
X214915905Y-66101961D02*
X215011143Y-66197200D01*
X215011143Y-66197200D02*
X215154000Y-66244819D01*
X215154000Y-66244819D02*
X215249238Y-66244819D01*
X215249238Y-66244819D02*
X215392095Y-66197200D01*
X215392095Y-66197200D02*
X215439714Y-66149580D01*
X215439714Y-66149580D02*
X215439714Y-65816247D01*
X215439714Y-65816247D02*
X215249238Y-65816247D01*
X215868286Y-66244819D02*
X215868286Y-65244819D01*
X215868286Y-65244819D02*
X216439714Y-66244819D01*
X216439714Y-66244819D02*
X216439714Y-65244819D01*
X216915905Y-66244819D02*
X216915905Y-65244819D01*
X216915905Y-65244819D02*
X217154000Y-65244819D01*
X217154000Y-65244819D02*
X217296857Y-65292438D01*
X217296857Y-65292438D02*
X217392095Y-65387676D01*
X217392095Y-65387676D02*
X217439714Y-65482914D01*
X217439714Y-65482914D02*
X217487333Y-65673390D01*
X217487333Y-65673390D02*
X217487333Y-65816247D01*
X217487333Y-65816247D02*
X217439714Y-66006723D01*
X217439714Y-66006723D02*
X217392095Y-66101961D01*
X217392095Y-66101961D02*
X217296857Y-66197200D01*
X217296857Y-66197200D02*
X217154000Y-66244819D01*
X217154000Y-66244819D02*
X216915905Y-66244819D01*
X212492095Y-60212438D02*
X212396857Y-60164819D01*
X212396857Y-60164819D02*
X212254000Y-60164819D01*
X212254000Y-60164819D02*
X212111143Y-60212438D01*
X212111143Y-60212438D02*
X212015905Y-60307676D01*
X212015905Y-60307676D02*
X211968286Y-60402914D01*
X211968286Y-60402914D02*
X211920667Y-60593390D01*
X211920667Y-60593390D02*
X211920667Y-60736247D01*
X211920667Y-60736247D02*
X211968286Y-60926723D01*
X211968286Y-60926723D02*
X212015905Y-61021961D01*
X212015905Y-61021961D02*
X212111143Y-61117200D01*
X212111143Y-61117200D02*
X212254000Y-61164819D01*
X212254000Y-61164819D02*
X212349238Y-61164819D01*
X212349238Y-61164819D02*
X212492095Y-61117200D01*
X212492095Y-61117200D02*
X212539714Y-61069580D01*
X212539714Y-61069580D02*
X212539714Y-60736247D01*
X212539714Y-60736247D02*
X212349238Y-60736247D01*
X212968286Y-61164819D02*
X212968286Y-60164819D01*
X212968286Y-60164819D02*
X213539714Y-61164819D01*
X213539714Y-61164819D02*
X213539714Y-60164819D01*
X214015905Y-61164819D02*
X214015905Y-60164819D01*
X214015905Y-60164819D02*
X214254000Y-60164819D01*
X214254000Y-60164819D02*
X214396857Y-60212438D01*
X214396857Y-60212438D02*
X214492095Y-60307676D01*
X214492095Y-60307676D02*
X214539714Y-60402914D01*
X214539714Y-60402914D02*
X214587333Y-60593390D01*
X214587333Y-60593390D02*
X214587333Y-60736247D01*
X214587333Y-60736247D02*
X214539714Y-60926723D01*
X214539714Y-60926723D02*
X214492095Y-61021961D01*
X214492095Y-61021961D02*
X214396857Y-61117200D01*
X214396857Y-61117200D02*
X214254000Y-61164819D01*
X214254000Y-61164819D02*
X214015905Y-61164819D01*
X215511142Y-58624819D02*
X215034952Y-58624819D01*
X215034952Y-58624819D02*
X215034952Y-57624819D01*
X215844476Y-58101009D02*
X216177809Y-58101009D01*
X216320666Y-58624819D02*
X215844476Y-58624819D01*
X215844476Y-58624819D02*
X215844476Y-57624819D01*
X215844476Y-57624819D02*
X216320666Y-57624819D01*
X216749238Y-58624819D02*
X216749238Y-57624819D01*
X216749238Y-57624819D02*
X216987333Y-57624819D01*
X216987333Y-57624819D02*
X217130190Y-57672438D01*
X217130190Y-57672438D02*
X217225428Y-57767676D01*
X217225428Y-57767676D02*
X217273047Y-57862914D01*
X217273047Y-57862914D02*
X217320666Y-58053390D01*
X217320666Y-58053390D02*
X217320666Y-58196247D01*
X217320666Y-58196247D02*
X217273047Y-58386723D01*
X217273047Y-58386723D02*
X217225428Y-58481961D01*
X217225428Y-58481961D02*
X217130190Y-58577200D01*
X217130190Y-58577200D02*
X216987333Y-58624819D01*
X216987333Y-58624819D02*
X216749238Y-58624819D01*
X216577333Y-78944819D02*
X216244000Y-78468628D01*
X216005905Y-78944819D02*
X216005905Y-77944819D01*
X216005905Y-77944819D02*
X216386857Y-77944819D01*
X216386857Y-77944819D02*
X216482095Y-77992438D01*
X216482095Y-77992438D02*
X216529714Y-78040057D01*
X216529714Y-78040057D02*
X216577333Y-78135295D01*
X216577333Y-78135295D02*
X216577333Y-78278152D01*
X216577333Y-78278152D02*
X216529714Y-78373390D01*
X216529714Y-78373390D02*
X216482095Y-78421009D01*
X216482095Y-78421009D02*
X216386857Y-78468628D01*
X216386857Y-78468628D02*
X216005905Y-78468628D01*
X217529714Y-78944819D02*
X216958286Y-78944819D01*
X217244000Y-78944819D02*
X217244000Y-77944819D01*
X217244000Y-77944819D02*
X217148762Y-78087676D01*
X217148762Y-78087676D02*
X217053524Y-78182914D01*
X217053524Y-78182914D02*
X216958286Y-78230533D01*
D11*
X130200000Y-93675000D02*
X131000000Y-93675000D01*
X130600000Y-93675000D02*
X130600000Y-93175000D01*
X130600000Y-94275000D02*
X130050000Y-94275000D01*
X130600000Y-94275000D02*
X130200000Y-93675000D01*
X130600000Y-94275000D02*
X131150000Y-94275000D01*
X130600000Y-94675000D02*
X130600000Y-94275000D01*
X131000000Y-93675000D02*
X130600000Y-94275000D01*
X92200000Y-98425000D02*
X93000000Y-98425000D01*
X92600000Y-98425000D02*
X92600000Y-97925000D01*
X92600000Y-99025000D02*
X92050000Y-99025000D01*
X92600000Y-99025000D02*
X92200000Y-98425000D01*
X92600000Y-99025000D02*
X93150000Y-99025000D01*
X92600000Y-99425000D02*
X92600000Y-99025000D01*
X93000000Y-98425000D02*
X92600000Y-99025000D01*
X130200000Y-74675000D02*
X131000000Y-74675000D01*
X130600000Y-74675000D02*
X130600000Y-74175000D01*
X130600000Y-75275000D02*
X130050000Y-75275000D01*
X130600000Y-75275000D02*
X130200000Y-74675000D01*
X130600000Y-75275000D02*
X131150000Y-75275000D01*
X130600000Y-75675000D02*
X130600000Y-75275000D01*
X131000000Y-74675000D02*
X130600000Y-75275000D01*
X212354000Y-53665000D02*
X212354000Y-53415000D01*
X212354000Y-56665000D02*
X212354000Y-56915000D01*
X212604000Y-53415000D02*
X212354000Y-53415000D01*
X212604000Y-56915000D02*
X212354000Y-56915000D01*
X216804000Y-53415000D02*
X217054000Y-53415000D01*
X216804000Y-56915000D02*
X217054000Y-56915000D01*
X217054000Y-53665000D02*
X217054000Y-53415000D01*
X217054000Y-56665000D02*
X217054000Y-56915000D01*
X187200000Y-96050000D02*
X188000000Y-96050000D01*
X187600000Y-96050000D02*
X187600000Y-95550000D01*
X187600000Y-96650000D02*
X187050000Y-96650000D01*
X187600000Y-96650000D02*
X187200000Y-96050000D01*
X187600000Y-96650000D02*
X188150000Y-96650000D01*
X187600000Y-97050000D02*
X187600000Y-96650000D01*
X188000000Y-96050000D02*
X187600000Y-96650000D01*
X92200000Y-60425000D02*
X93000000Y-60425000D01*
X92600000Y-60425000D02*
X92600000Y-59925000D01*
X92600000Y-61025000D02*
X92050000Y-61025000D01*
X92600000Y-61025000D02*
X92200000Y-60425000D01*
X92600000Y-61025000D02*
X93150000Y-61025000D01*
X92600000Y-61425000D02*
X92600000Y-61025000D01*
X93000000Y-60425000D02*
X92600000Y-61025000D01*
D12*
X221575000Y-97600000D02*
X221575000Y-97400000D01*
X221575000Y-100600000D02*
X221575000Y-98900000D01*
X222625000Y-102450000D02*
X223415000Y-102450000D01*
X223415000Y-95550000D02*
X222625000Y-95550000D01*
X224425000Y-101850000D02*
X224425000Y-96150000D01*
D11*
X204482794Y-127356610D02*
X204882794Y-126663790D01*
X204682794Y-127010200D02*
X204249781Y-126760200D01*
X204882794Y-126663790D02*
X205202409Y-127310200D01*
X205202409Y-127310200D02*
X204482794Y-127356610D01*
X205202409Y-127310200D02*
X204927409Y-127786514D01*
X205202409Y-127310200D02*
X205477409Y-126833886D01*
X205548819Y-127510200D02*
X205202409Y-127310200D01*
X130200000Y-55675000D02*
X131000000Y-55675000D01*
X130600000Y-55675000D02*
X130600000Y-55175000D01*
X130600000Y-56275000D02*
X130050000Y-56275000D01*
X130600000Y-56275000D02*
X130200000Y-55675000D01*
X130600000Y-56275000D02*
X131150000Y-56275000D01*
X130600000Y-56675000D02*
X130600000Y-56275000D01*
X131000000Y-55675000D02*
X130600000Y-56275000D01*
X149200000Y-72300000D02*
X150000000Y-72300000D01*
X149600000Y-72300000D02*
X149600000Y-71800000D01*
X149600000Y-72900000D02*
X149050000Y-72900000D01*
X149600000Y-72900000D02*
X149200000Y-72300000D01*
X149600000Y-72900000D02*
X150150000Y-72900000D01*
X149600000Y-73300000D02*
X149600000Y-72900000D01*
X150000000Y-72300000D02*
X149600000Y-72900000D01*
D12*
X210290000Y-94690000D02*
X211290000Y-94690000D01*
X210290000Y-95610000D02*
X210290000Y-94690000D01*
X210290000Y-99810000D02*
X210290000Y-100810000D01*
X210290000Y-100810000D02*
X211290000Y-100810000D01*
X218110000Y-94690000D02*
X217110000Y-94690000D01*
X218110000Y-95610000D02*
X218110000Y-94690000D01*
X218110000Y-99890000D02*
X218110000Y-100810000D01*
X218110000Y-100810000D02*
X217110000Y-100810000D01*
D11*
X218650000Y-96750000D02*
X219650000Y-96750000D01*
X219150000Y-96250000D02*
X219150000Y-97250000D01*
X219150000Y-99250000D02*
X219150000Y-98250000D01*
X111200000Y-60425000D02*
X112000000Y-60425000D01*
X111600000Y-60425000D02*
X111600000Y-59925000D01*
X111600000Y-61025000D02*
X111050000Y-61025000D01*
X111600000Y-61025000D02*
X111200000Y-60425000D01*
X111600000Y-61025000D02*
X112150000Y-61025000D01*
X111600000Y-61425000D02*
X111600000Y-61025000D01*
X112000000Y-60425000D02*
X111600000Y-61025000D01*
X92200000Y-79425000D02*
X93000000Y-79425000D01*
X92600000Y-79425000D02*
X92600000Y-78925000D01*
X92600000Y-80025000D02*
X92050000Y-80025000D01*
X92600000Y-80025000D02*
X92200000Y-79425000D01*
X92600000Y-80025000D02*
X93150000Y-80025000D01*
X92600000Y-80425000D02*
X92600000Y-80025000D01*
X93000000Y-79425000D02*
X92600000Y-80025000D01*
X149200000Y-53300000D02*
X150000000Y-53300000D01*
X149600000Y-53300000D02*
X149600000Y-52800000D01*
X149600000Y-53900000D02*
X149050000Y-53900000D01*
X149600000Y-53900000D02*
X149200000Y-53300000D01*
X149600000Y-53900000D02*
X150150000Y-53900000D01*
X149600000Y-54300000D02*
X149600000Y-53900000D01*
X150000000Y-53300000D02*
X149600000Y-53900000D01*
X168200000Y-74675000D02*
X169000000Y-74675000D01*
X168600000Y-74675000D02*
X168600000Y-74175000D01*
X168600000Y-75275000D02*
X168050000Y-75275000D01*
X168600000Y-75275000D02*
X168200000Y-74675000D01*
X168600000Y-75275000D02*
X169150000Y-75275000D01*
X168600000Y-75675000D02*
X168600000Y-75275000D01*
X169000000Y-74675000D02*
X168600000Y-75275000D01*
X168200000Y-93675000D02*
X169000000Y-93675000D01*
X168600000Y-93675000D02*
X168600000Y-93175000D01*
X168600000Y-94275000D02*
X168050000Y-94275000D01*
X168600000Y-94275000D02*
X168200000Y-93675000D01*
X168600000Y-94275000D02*
X169150000Y-94275000D01*
X168600000Y-94675000D02*
X168600000Y-94275000D01*
X169000000Y-93675000D02*
X168600000Y-94275000D01*
X187200000Y-58050000D02*
X188000000Y-58050000D01*
X187600000Y-58050000D02*
X187600000Y-57550000D01*
X187600000Y-58650000D02*
X187050000Y-58650000D01*
X187600000Y-58650000D02*
X187200000Y-58050000D01*
X187600000Y-58650000D02*
X188150000Y-58650000D01*
X187600000Y-59050000D02*
X187600000Y-58650000D01*
X188000000Y-58050000D02*
X187600000Y-58650000D01*
X149200000Y-91300000D02*
X150000000Y-91300000D01*
X149600000Y-91300000D02*
X149600000Y-90800000D01*
X149600000Y-91900000D02*
X149050000Y-91900000D01*
X149600000Y-91900000D02*
X149200000Y-91300000D01*
X149600000Y-91900000D02*
X150150000Y-91900000D01*
X149600000Y-92300000D02*
X149600000Y-91900000D01*
X150000000Y-91300000D02*
X149600000Y-91900000D01*
X111200000Y-98425000D02*
X112000000Y-98425000D01*
X111600000Y-98425000D02*
X111600000Y-97925000D01*
X111600000Y-99025000D02*
X111050000Y-99025000D01*
X111600000Y-99025000D02*
X111200000Y-98425000D01*
X111600000Y-99025000D02*
X112150000Y-99025000D01*
X111600000Y-99425000D02*
X111600000Y-99025000D01*
X112000000Y-98425000D02*
X111600000Y-99025000D01*
X158700000Y-113300000D02*
X159500000Y-113300000D01*
X159100000Y-113300000D02*
X159100000Y-112800000D01*
X159100000Y-113900000D02*
X158550000Y-113900000D01*
X159100000Y-113900000D02*
X158700000Y-113300000D01*
X159100000Y-113900000D02*
X159650000Y-113900000D01*
X159100000Y-114300000D02*
X159100000Y-113900000D01*
X159500000Y-113300000D02*
X159100000Y-113900000D01*
D12*
X208237000Y-88620000D02*
X208237000Y-91280000D01*
X221057000Y-88620000D02*
X208237000Y-88620000D01*
X221057000Y-88620000D02*
X221057000Y-91280000D01*
X221057000Y-91280000D02*
X208237000Y-91280000D01*
D11*
X180373434Y-114084891D02*
X181146175Y-114291946D01*
X180500986Y-115154344D02*
X180604513Y-114767974D01*
X180604513Y-114767974D02*
X180073254Y-114625624D01*
X180604513Y-114767974D02*
X180373434Y-114084891D01*
X180604513Y-114767974D02*
X181135774Y-114910325D01*
X180759805Y-114188419D02*
X180889214Y-113705456D01*
X181146175Y-114291946D02*
X180604513Y-114767974D01*
D12*
X205754000Y-56840000D02*
X205754000Y-87440000D01*
X205754000Y-56840000D02*
X208414000Y-56840000D01*
X205754000Y-87440000D02*
X208414000Y-87440000D01*
X208414000Y-56840000D02*
X208414000Y-87440000D01*
X220994000Y-56840000D02*
X220994000Y-87440000D01*
X220994000Y-56840000D02*
X223654000Y-56840000D01*
X220994000Y-59440000D02*
X223654000Y-59440000D01*
X220994000Y-87440000D02*
X223654000Y-87440000D01*
X223654000Y-56840000D02*
X223654000Y-87440000D01*
D11*
X168200000Y-55675000D02*
X169000000Y-55675000D01*
X168600000Y-55675000D02*
X168600000Y-55175000D01*
X168600000Y-56275000D02*
X168050000Y-56275000D01*
X168600000Y-56275000D02*
X168200000Y-55675000D01*
X168600000Y-56275000D02*
X169150000Y-56275000D01*
X168600000Y-56675000D02*
X168600000Y-56275000D01*
X169000000Y-55675000D02*
X168600000Y-56275000D01*
X187200000Y-77050000D02*
X188000000Y-77050000D01*
X187600000Y-77050000D02*
X187600000Y-76550000D01*
X187600000Y-77650000D02*
X187050000Y-77650000D01*
X187600000Y-77650000D02*
X187200000Y-77050000D01*
X187600000Y-77650000D02*
X188150000Y-77650000D01*
X187600000Y-78050000D02*
X187600000Y-77650000D01*
X188000000Y-77050000D02*
X187600000Y-77650000D01*
X111200000Y-79425000D02*
X112000000Y-79425000D01*
X111600000Y-79425000D02*
X111600000Y-78925000D01*
X111600000Y-80025000D02*
X111050000Y-80025000D01*
X111600000Y-80025000D02*
X111200000Y-79425000D01*
X111600000Y-80025000D02*
X112150000Y-80025000D01*
X111600000Y-80425000D02*
X111600000Y-80025000D01*
X112000000Y-79425000D02*
X111600000Y-80025000D01*
%LPC*%
G36*
G01*
X131200000Y-96075000D02*
X130000000Y-96075000D01*
G75*
G02*
X129950000Y-96025000I0J50000D01*
G01*
X129950000Y-95125000D01*
G75*
G02*
X130000000Y-95075000I50000J0D01*
G01*
X131200000Y-95075000D01*
G75*
G02*
X131250000Y-95125000I0J-50000D01*
G01*
X131250000Y-96025000D01*
G75*
G02*
X131200000Y-96075000I-50000J0D01*
G01*
G37*
G36*
G01*
X131200000Y-92775000D02*
X130000000Y-92775000D01*
G75*
G02*
X129950000Y-92725000I0J50000D01*
G01*
X129950000Y-91825000D01*
G75*
G02*
X130000000Y-91775000I50000J0D01*
G01*
X131200000Y-91775000D01*
G75*
G02*
X131250000Y-91825000I0J-50000D01*
G01*
X131250000Y-92725000D01*
G75*
G02*
X131200000Y-92775000I-50000J0D01*
G01*
G37*
D13*
X189920000Y-59625000D03*
D14*
X192460000Y-54545000D03*
D15*
X195000000Y-59625000D03*
D14*
X198810000Y-57085000D03*
D13*
X200080000Y-59625000D03*
G36*
G01*
X200760000Y-58335000D02*
X200760000Y-55835000D01*
G75*
G02*
X200810000Y-55785000I50000J0D01*
G01*
X203360000Y-55785000D01*
G75*
G02*
X203410000Y-55835000I0J-50000D01*
G01*
X203410000Y-58335000D01*
G75*
G02*
X203360000Y-58385000I-50000J0D01*
G01*
X200810000Y-58385000D01*
G75*
G02*
X200760000Y-58335000I0J50000D01*
G01*
G37*
G36*
G01*
X187833000Y-55795000D02*
X187833000Y-53295000D01*
G75*
G02*
X187883000Y-53245000I50000J0D01*
G01*
X190433000Y-53245000D01*
G75*
G02*
X190483000Y-53295000I0J-50000D01*
G01*
X190483000Y-55795000D01*
G75*
G02*
X190433000Y-55845000I-50000J0D01*
G01*
X187883000Y-55845000D01*
G75*
G02*
X187833000Y-55795000I0J50000D01*
G01*
G37*
D16*
X199241100Y-115323700D03*
G36*
G01*
X93200000Y-100825000D02*
X92000000Y-100825000D01*
G75*
G02*
X91950000Y-100775000I0J50000D01*
G01*
X91950000Y-99875000D01*
G75*
G02*
X92000000Y-99825000I50000J0D01*
G01*
X93200000Y-99825000D01*
G75*
G02*
X93250000Y-99875000I0J-50000D01*
G01*
X93250000Y-100775000D01*
G75*
G02*
X93200000Y-100825000I-50000J0D01*
G01*
G37*
G36*
G01*
X93200000Y-97525000D02*
X92000000Y-97525000D01*
G75*
G02*
X91950000Y-97475000I0J50000D01*
G01*
X91950000Y-96575000D01*
G75*
G02*
X92000000Y-96525000I50000J0D01*
G01*
X93200000Y-96525000D01*
G75*
G02*
X93250000Y-96575000I0J-50000D01*
G01*
X93250000Y-97475000D01*
G75*
G02*
X93200000Y-97525000I-50000J0D01*
G01*
G37*
D13*
X189920000Y-97625000D03*
D14*
X192460000Y-92545000D03*
D15*
X195000000Y-97625000D03*
D14*
X198810000Y-95085000D03*
D13*
X200080000Y-97625000D03*
G36*
G01*
X200760000Y-96335000D02*
X200760000Y-93835000D01*
G75*
G02*
X200810000Y-93785000I50000J0D01*
G01*
X203360000Y-93785000D01*
G75*
G02*
X203410000Y-93835000I0J-50000D01*
G01*
X203410000Y-96335000D01*
G75*
G02*
X203360000Y-96385000I-50000J0D01*
G01*
X200810000Y-96385000D01*
G75*
G02*
X200760000Y-96335000I0J50000D01*
G01*
G37*
G36*
G01*
X187833000Y-93795000D02*
X187833000Y-91295000D01*
G75*
G02*
X187883000Y-91245000I50000J0D01*
G01*
X190433000Y-91245000D01*
G75*
G02*
X190483000Y-91295000I0J-50000D01*
G01*
X190483000Y-93795000D01*
G75*
G02*
X190433000Y-93845000I-50000J0D01*
G01*
X187883000Y-93845000D01*
G75*
G02*
X187833000Y-93795000I0J50000D01*
G01*
G37*
X132920000Y-76250000D03*
D14*
X135460000Y-71170000D03*
D15*
X138000000Y-76250000D03*
D14*
X141810000Y-73710000D03*
D13*
X143080000Y-76250000D03*
G36*
G01*
X143760000Y-74960000D02*
X143760000Y-72460000D01*
G75*
G02*
X143810000Y-72410000I50000J0D01*
G01*
X146360000Y-72410000D01*
G75*
G02*
X146410000Y-72460000I0J-50000D01*
G01*
X146410000Y-74960000D01*
G75*
G02*
X146360000Y-75010000I-50000J0D01*
G01*
X143810000Y-75010000D01*
G75*
G02*
X143760000Y-74960000I0J50000D01*
G01*
G37*
G36*
G01*
X130833000Y-72420000D02*
X130833000Y-69920000D01*
G75*
G02*
X130883000Y-69870000I50000J0D01*
G01*
X133433000Y-69870000D01*
G75*
G02*
X133483000Y-69920000I0J-50000D01*
G01*
X133483000Y-72420000D01*
G75*
G02*
X133433000Y-72470000I-50000J0D01*
G01*
X130883000Y-72470000D01*
G75*
G02*
X130833000Y-72420000I0J50000D01*
G01*
G37*
D16*
X109500000Y-90500000D03*
D13*
X151920000Y-73875000D03*
D14*
X154460000Y-68795000D03*
D15*
X157000000Y-73875000D03*
D14*
X160810000Y-71335000D03*
D13*
X162080000Y-73875000D03*
G36*
G01*
X162760000Y-72585000D02*
X162760000Y-70085000D01*
G75*
G02*
X162810000Y-70035000I50000J0D01*
G01*
X165360000Y-70035000D01*
G75*
G02*
X165410000Y-70085000I0J-50000D01*
G01*
X165410000Y-72585000D01*
G75*
G02*
X165360000Y-72635000I-50000J0D01*
G01*
X162810000Y-72635000D01*
G75*
G02*
X162760000Y-72585000I0J50000D01*
G01*
G37*
G36*
G01*
X149833000Y-70045000D02*
X149833000Y-67545000D01*
G75*
G02*
X149883000Y-67495000I50000J0D01*
G01*
X152433000Y-67495000D01*
G75*
G02*
X152483000Y-67545000I0J-50000D01*
G01*
X152483000Y-70045000D01*
G75*
G02*
X152433000Y-70095000I-50000J0D01*
G01*
X149883000Y-70095000D01*
G75*
G02*
X149833000Y-70045000I0J50000D01*
G01*
G37*
G36*
G01*
X131200000Y-77075000D02*
X130000000Y-77075000D01*
G75*
G02*
X129950000Y-77025000I0J50000D01*
G01*
X129950000Y-76125000D01*
G75*
G02*
X130000000Y-76075000I50000J0D01*
G01*
X131200000Y-76075000D01*
G75*
G02*
X131250000Y-76125000I0J-50000D01*
G01*
X131250000Y-77025000D01*
G75*
G02*
X131200000Y-77075000I-50000J0D01*
G01*
G37*
G36*
G01*
X131200000Y-73775000D02*
X130000000Y-73775000D01*
G75*
G02*
X129950000Y-73725000I0J50000D01*
G01*
X129950000Y-72825000D01*
G75*
G02*
X130000000Y-72775000I50000J0D01*
G01*
X131200000Y-72775000D01*
G75*
G02*
X131250000Y-72825000I0J-50000D01*
G01*
X131250000Y-73725000D01*
G75*
G02*
X131200000Y-73775000I-50000J0D01*
G01*
G37*
D16*
X109500000Y-71500000D03*
D17*
X214704000Y-53790000D03*
X214704000Y-56540000D03*
G36*
G01*
X218154000Y-53815000D02*
X218154000Y-54815000D01*
G75*
G02*
X218104000Y-54865000I-50000J0D01*
G01*
X216554000Y-54865000D01*
G75*
G02*
X216504000Y-54815000I0J50000D01*
G01*
X216504000Y-53815000D01*
G75*
G02*
X216554000Y-53765000I50000J0D01*
G01*
X218104000Y-53765000D01*
G75*
G02*
X218154000Y-53815000I0J-50000D01*
G01*
G37*
G36*
G01*
X218154000Y-55515000D02*
X218154000Y-56515000D01*
G75*
G02*
X218104000Y-56565000I-50000J0D01*
G01*
X216554000Y-56565000D01*
G75*
G02*
X216504000Y-56515000I0J50000D01*
G01*
X216504000Y-55515000D01*
G75*
G02*
X216554000Y-55465000I50000J0D01*
G01*
X218104000Y-55465000D01*
G75*
G02*
X218154000Y-55515000I0J-50000D01*
G01*
G37*
G36*
G01*
X212904000Y-53815000D02*
X212904000Y-54815000D01*
G75*
G02*
X212854000Y-54865000I-50000J0D01*
G01*
X211304000Y-54865000D01*
G75*
G02*
X211254000Y-54815000I0J50000D01*
G01*
X211254000Y-53815000D01*
G75*
G02*
X211304000Y-53765000I50000J0D01*
G01*
X212854000Y-53765000D01*
G75*
G02*
X212904000Y-53815000I0J-50000D01*
G01*
G37*
G36*
G01*
X212904000Y-55515000D02*
X212904000Y-56515000D01*
G75*
G02*
X212854000Y-56565000I-50000J0D01*
G01*
X211304000Y-56565000D01*
G75*
G02*
X211254000Y-56515000I0J50000D01*
G01*
X211254000Y-55515000D01*
G75*
G02*
X211304000Y-55465000I50000J0D01*
G01*
X212854000Y-55465000D01*
G75*
G02*
X212904000Y-55515000I0J-50000D01*
G01*
G37*
D13*
X207206800Y-125788609D03*
D14*
X204077391Y-121048905D03*
D15*
X209746800Y-121389200D03*
D14*
X209452095Y-116819643D03*
D13*
X212286800Y-116989791D03*
G36*
G01*
X211509627Y-115755893D02*
X209344563Y-114505893D01*
G75*
G02*
X209326262Y-114437592I25000J43301D01*
G01*
X210601262Y-112229228D01*
G75*
G02*
X210669563Y-112210927I43301J-25000D01*
G01*
X212834627Y-113460927D01*
G75*
G02*
X212852928Y-113529228I-25000J-43301D01*
G01*
X211577928Y-115737592D01*
G75*
G02*
X211509627Y-115755893I-43301J25000D01*
G01*
G37*
G36*
G01*
X202846423Y-125681003D02*
X200681359Y-124431003D01*
G75*
G02*
X200663058Y-124362702I25000J43301D01*
G01*
X201938058Y-122154338D01*
G75*
G02*
X202006359Y-122136037I43301J-25000D01*
G01*
X204171423Y-123386037D01*
G75*
G02*
X204189724Y-123454338I-25000J-43301D01*
G01*
X202914724Y-125662702D01*
G75*
G02*
X202846423Y-125681003I-43301J25000D01*
G01*
G37*
X189920000Y-78625000D03*
D14*
X192460000Y-73545000D03*
D15*
X195000000Y-78625000D03*
D14*
X198810000Y-76085000D03*
D13*
X200080000Y-78625000D03*
G36*
G01*
X200760000Y-77335000D02*
X200760000Y-74835000D01*
G75*
G02*
X200810000Y-74785000I50000J0D01*
G01*
X203360000Y-74785000D01*
G75*
G02*
X203410000Y-74835000I0J-50000D01*
G01*
X203410000Y-77335000D01*
G75*
G02*
X203360000Y-77385000I-50000J0D01*
G01*
X200810000Y-77385000D01*
G75*
G02*
X200760000Y-77335000I0J50000D01*
G01*
G37*
G36*
G01*
X187833000Y-74795000D02*
X187833000Y-72295000D01*
G75*
G02*
X187883000Y-72245000I50000J0D01*
G01*
X190433000Y-72245000D01*
G75*
G02*
X190483000Y-72295000I0J-50000D01*
G01*
X190483000Y-74795000D01*
G75*
G02*
X190433000Y-74845000I-50000J0D01*
G01*
X187883000Y-74845000D01*
G75*
G02*
X187833000Y-74795000I0J50000D01*
G01*
G37*
X113920000Y-62000000D03*
D14*
X116460000Y-56920000D03*
D15*
X119000000Y-62000000D03*
D14*
X122810000Y-59460000D03*
D13*
X124080000Y-62000000D03*
G36*
G01*
X124760000Y-60710000D02*
X124760000Y-58210000D01*
G75*
G02*
X124810000Y-58160000I50000J0D01*
G01*
X127360000Y-58160000D01*
G75*
G02*
X127410000Y-58210000I0J-50000D01*
G01*
X127410000Y-60710000D01*
G75*
G02*
X127360000Y-60760000I-50000J0D01*
G01*
X124810000Y-60760000D01*
G75*
G02*
X124760000Y-60710000I0J50000D01*
G01*
G37*
G36*
G01*
X111833000Y-58170000D02*
X111833000Y-55670000D01*
G75*
G02*
X111883000Y-55620000I50000J0D01*
G01*
X114433000Y-55620000D01*
G75*
G02*
X114483000Y-55670000I0J-50000D01*
G01*
X114483000Y-58170000D01*
G75*
G02*
X114433000Y-58220000I-50000J0D01*
G01*
X111883000Y-58220000D01*
G75*
G02*
X111833000Y-58170000I0J50000D01*
G01*
G37*
G36*
G01*
X188200000Y-98450000D02*
X187000000Y-98450000D01*
G75*
G02*
X186950000Y-98400000I0J50000D01*
G01*
X186950000Y-97500000D01*
G75*
G02*
X187000000Y-97450000I50000J0D01*
G01*
X188200000Y-97450000D01*
G75*
G02*
X188250000Y-97500000I0J-50000D01*
G01*
X188250000Y-98400000D01*
G75*
G02*
X188200000Y-98450000I-50000J0D01*
G01*
G37*
G36*
G01*
X188200000Y-95150000D02*
X187000000Y-95150000D01*
G75*
G02*
X186950000Y-95100000I0J50000D01*
G01*
X186950000Y-94200000D01*
G75*
G02*
X187000000Y-94150000I50000J0D01*
G01*
X188200000Y-94150000D01*
G75*
G02*
X188250000Y-94200000I0J-50000D01*
G01*
X188250000Y-95100000D01*
G75*
G02*
X188200000Y-95150000I-50000J0D01*
G01*
G37*
X132920000Y-95250000D03*
D14*
X135460000Y-90170000D03*
D15*
X138000000Y-95250000D03*
D14*
X141810000Y-92710000D03*
D13*
X143080000Y-95250000D03*
G36*
G01*
X143760000Y-93960000D02*
X143760000Y-91460000D01*
G75*
G02*
X143810000Y-91410000I50000J0D01*
G01*
X146360000Y-91410000D01*
G75*
G02*
X146410000Y-91460000I0J-50000D01*
G01*
X146410000Y-93960000D01*
G75*
G02*
X146360000Y-94010000I-50000J0D01*
G01*
X143810000Y-94010000D01*
G75*
G02*
X143760000Y-93960000I0J50000D01*
G01*
G37*
G36*
G01*
X130833000Y-91420000D02*
X130833000Y-88920000D01*
G75*
G02*
X130883000Y-88870000I50000J0D01*
G01*
X133433000Y-88870000D01*
G75*
G02*
X133483000Y-88920000I0J-50000D01*
G01*
X133483000Y-91420000D01*
G75*
G02*
X133433000Y-91470000I-50000J0D01*
G01*
X130883000Y-91470000D01*
G75*
G02*
X130833000Y-91420000I0J50000D01*
G01*
G37*
G36*
G01*
X93200000Y-62825000D02*
X92000000Y-62825000D01*
G75*
G02*
X91950000Y-62775000I0J50000D01*
G01*
X91950000Y-61875000D01*
G75*
G02*
X92000000Y-61825000I50000J0D01*
G01*
X93200000Y-61825000D01*
G75*
G02*
X93250000Y-61875000I0J-50000D01*
G01*
X93250000Y-62775000D01*
G75*
G02*
X93200000Y-62825000I-50000J0D01*
G01*
G37*
G36*
G01*
X93200000Y-59525000D02*
X92000000Y-59525000D01*
G75*
G02*
X91950000Y-59475000I0J50000D01*
G01*
X91950000Y-58575000D01*
G75*
G02*
X92000000Y-58525000I50000J0D01*
G01*
X93200000Y-58525000D01*
G75*
G02*
X93250000Y-58575000I0J-50000D01*
G01*
X93250000Y-59475000D01*
G75*
G02*
X93200000Y-59525000I-50000J0D01*
G01*
G37*
X132920000Y-57250000D03*
D14*
X135460000Y-52170000D03*
D15*
X138000000Y-57250000D03*
D14*
X141810000Y-54710000D03*
D13*
X143080000Y-57250000D03*
G36*
G01*
X143760000Y-55960000D02*
X143760000Y-53460000D01*
G75*
G02*
X143810000Y-53410000I50000J0D01*
G01*
X146360000Y-53410000D01*
G75*
G02*
X146410000Y-53460000I0J-50000D01*
G01*
X146410000Y-55960000D01*
G75*
G02*
X146360000Y-56010000I-50000J0D01*
G01*
X143810000Y-56010000D01*
G75*
G02*
X143760000Y-55960000I0J50000D01*
G01*
G37*
G36*
G01*
X130833000Y-53420000D02*
X130833000Y-50920000D01*
G75*
G02*
X130883000Y-50870000I50000J0D01*
G01*
X133433000Y-50870000D01*
G75*
G02*
X133483000Y-50920000I0J-50000D01*
G01*
X133483000Y-53420000D01*
G75*
G02*
X133433000Y-53470000I-50000J0D01*
G01*
X130883000Y-53470000D01*
G75*
G02*
X130833000Y-53420000I0J50000D01*
G01*
G37*
X94920000Y-81000000D03*
D14*
X97460000Y-75920000D03*
D15*
X100000000Y-81000000D03*
D14*
X103810000Y-78460000D03*
D13*
X105080000Y-81000000D03*
G36*
G01*
X105760000Y-79710000D02*
X105760000Y-77210000D01*
G75*
G02*
X105810000Y-77160000I50000J0D01*
G01*
X108360000Y-77160000D01*
G75*
G02*
X108410000Y-77210000I0J-50000D01*
G01*
X108410000Y-79710000D01*
G75*
G02*
X108360000Y-79760000I-50000J0D01*
G01*
X105810000Y-79760000D01*
G75*
G02*
X105760000Y-79710000I0J50000D01*
G01*
G37*
G36*
G01*
X92833000Y-77170000D02*
X92833000Y-74670000D01*
G75*
G02*
X92883000Y-74620000I50000J0D01*
G01*
X95433000Y-74620000D01*
G75*
G02*
X95483000Y-74670000I0J-50000D01*
G01*
X95483000Y-77170000D01*
G75*
G02*
X95433000Y-77220000I-50000J0D01*
G01*
X92883000Y-77220000D01*
G75*
G02*
X92833000Y-77170000I0J50000D01*
G01*
G37*
G36*
G01*
X222315000Y-95900000D02*
X221515000Y-95900000D01*
G75*
G02*
X221465000Y-95850000I0J50000D01*
G01*
X221465000Y-94850000D01*
G75*
G02*
X221515000Y-94800000I50000J0D01*
G01*
X222315000Y-94800000D01*
G75*
G02*
X222365000Y-94850000I0J-50000D01*
G01*
X222365000Y-95850000D01*
G75*
G02*
X222315000Y-95900000I-50000J0D01*
G01*
G37*
G36*
G01*
X222315000Y-103200000D02*
X221515000Y-103200000D01*
G75*
G02*
X221465000Y-103150000I0J50000D01*
G01*
X221465000Y-102150000D01*
G75*
G02*
X221515000Y-102100000I50000J0D01*
G01*
X222315000Y-102100000D01*
G75*
G02*
X222365000Y-102150000I0J-50000D01*
G01*
X222365000Y-103150000D01*
G75*
G02*
X222315000Y-103200000I-50000J0D01*
G01*
G37*
D18*
X223025000Y-97500000D03*
X223025000Y-100500000D03*
G36*
G01*
X224525000Y-95900000D02*
X223725000Y-95900000D01*
G75*
G02*
X223675000Y-95850000I0J50000D01*
G01*
X223675000Y-94850000D01*
G75*
G02*
X223725000Y-94800000I50000J0D01*
G01*
X224525000Y-94800000D01*
G75*
G02*
X224575000Y-94850000I0J-50000D01*
G01*
X224575000Y-95850000D01*
G75*
G02*
X224525000Y-95900000I-50000J0D01*
G01*
G37*
G36*
G01*
X224525000Y-103200000D02*
X223725000Y-103200000D01*
G75*
G02*
X223675000Y-103150000I0J50000D01*
G01*
X223675000Y-102150000D01*
G75*
G02*
X223725000Y-102100000I50000J0D01*
G01*
X224525000Y-102100000D01*
G75*
G02*
X224575000Y-102150000I0J-50000D01*
G01*
X224575000Y-103150000D01*
G75*
G02*
X224525000Y-103200000I-50000J0D01*
G01*
G37*
G36*
G01*
X222015000Y-101650000D02*
X220515000Y-101650000D01*
G75*
G02*
X220465000Y-101600000I0J50000D01*
G01*
X220465000Y-100900000D01*
G75*
G02*
X220515000Y-100850000I50000J0D01*
G01*
X222015000Y-100850000D01*
G75*
G02*
X222065000Y-100900000I0J-50000D01*
G01*
X222065000Y-101600000D01*
G75*
G02*
X222015000Y-101650000I-50000J0D01*
G01*
G37*
G36*
G01*
X222015000Y-98650000D02*
X220515000Y-98650000D01*
G75*
G02*
X220465000Y-98600000I0J50000D01*
G01*
X220465000Y-97900000D01*
G75*
G02*
X220515000Y-97850000I50000J0D01*
G01*
X222015000Y-97850000D01*
G75*
G02*
X222065000Y-97900000I0J-50000D01*
G01*
X222065000Y-98600000D01*
G75*
G02*
X222015000Y-98650000I-50000J0D01*
G01*
G37*
G36*
G01*
X222015000Y-97150000D02*
X220515000Y-97150000D01*
G75*
G02*
X220465000Y-97100000I0J50000D01*
G01*
X220465000Y-96400000D01*
G75*
G02*
X220515000Y-96350000I50000J0D01*
G01*
X222015000Y-96350000D01*
G75*
G02*
X222065000Y-96400000I0J-50000D01*
G01*
X222065000Y-97100000D01*
G75*
G02*
X222015000Y-97150000I-50000J0D01*
G01*
G37*
D13*
X182593097Y-116310199D03*
D14*
X186361349Y-112060696D03*
D15*
X187500000Y-117625000D03*
D14*
X191837578Y-116157649D03*
D13*
X192406903Y-118939801D03*
G36*
G01*
X193397610Y-117869753D02*
X194044657Y-115454938D01*
G75*
G02*
X194105894Y-115419583I48296J-12941D01*
G01*
X196569005Y-116079572D01*
G75*
G02*
X196604360Y-116140809I-12941J-48296D01*
G01*
X195957313Y-118555624D01*
G75*
G02*
X195896076Y-118590979I-48296J12941D01*
G01*
X193432965Y-117930990D01*
G75*
G02*
X193397610Y-117869753I12941J48296D01*
G01*
G37*
G36*
G01*
X181568487Y-112070548D02*
X182215534Y-109655733D01*
G75*
G02*
X182276771Y-109620378I48296J-12941D01*
G01*
X184739882Y-110280367D01*
G75*
G02*
X184775237Y-110341604I-12941J-48296D01*
G01*
X184128190Y-112756419D01*
G75*
G02*
X184066953Y-112791774I-48296J12941D01*
G01*
X181603842Y-112131785D01*
G75*
G02*
X181568487Y-112070548I12941J48296D01*
G01*
G37*
G36*
G01*
X207061254Y-127690585D02*
X206461254Y-128729815D01*
G75*
G02*
X206392953Y-128748116I-43301J25000D01*
G01*
X205613531Y-128298116D01*
G75*
G02*
X205595230Y-128229815I25000J43301D01*
G01*
X206195230Y-127190585D01*
G75*
G02*
X206263531Y-127172284I43301J-25000D01*
G01*
X207042953Y-127622284D01*
G75*
G02*
X207061254Y-127690585I-25000J-43301D01*
G01*
G37*
G36*
G01*
X204203370Y-126040585D02*
X203603370Y-127079815D01*
G75*
G02*
X203535069Y-127098116I-43301J25000D01*
G01*
X202755647Y-126648116D01*
G75*
G02*
X202737346Y-126579815I25000J43301D01*
G01*
X203337346Y-125540585D01*
G75*
G02*
X203405647Y-125522284I43301J-25000D01*
G01*
X204185069Y-125972284D01*
G75*
G02*
X204203370Y-126040585I-25000J-43301D01*
G01*
G37*
X94920000Y-100000000D03*
D14*
X97460000Y-94920000D03*
D15*
X100000000Y-100000000D03*
D14*
X103810000Y-97460000D03*
D13*
X105080000Y-100000000D03*
G36*
G01*
X105760000Y-98710000D02*
X105760000Y-96210000D01*
G75*
G02*
X105810000Y-96160000I50000J0D01*
G01*
X108360000Y-96160000D01*
G75*
G02*
X108410000Y-96210000I0J-50000D01*
G01*
X108410000Y-98710000D01*
G75*
G02*
X108360000Y-98760000I-50000J0D01*
G01*
X105810000Y-98760000D01*
G75*
G02*
X105760000Y-98710000I0J50000D01*
G01*
G37*
G36*
G01*
X92833000Y-96170000D02*
X92833000Y-93670000D01*
G75*
G02*
X92883000Y-93620000I50000J0D01*
G01*
X95433000Y-93620000D01*
G75*
G02*
X95483000Y-93670000I0J-50000D01*
G01*
X95483000Y-96170000D01*
G75*
G02*
X95433000Y-96220000I-50000J0D01*
G01*
X92883000Y-96220000D01*
G75*
G02*
X92833000Y-96170000I0J50000D01*
G01*
G37*
X161420000Y-114875000D03*
D14*
X163960000Y-109795000D03*
D15*
X166500000Y-114875000D03*
D14*
X170310000Y-112335000D03*
D13*
X171580000Y-114875000D03*
G36*
G01*
X172260000Y-113585000D02*
X172260000Y-111085000D01*
G75*
G02*
X172310000Y-111035000I50000J0D01*
G01*
X174860000Y-111035000D01*
G75*
G02*
X174910000Y-111085000I0J-50000D01*
G01*
X174910000Y-113585000D01*
G75*
G02*
X174860000Y-113635000I-50000J0D01*
G01*
X172310000Y-113635000D01*
G75*
G02*
X172260000Y-113585000I0J50000D01*
G01*
G37*
G36*
G01*
X159333000Y-111045000D02*
X159333000Y-108545000D01*
G75*
G02*
X159383000Y-108495000I50000J0D01*
G01*
X161933000Y-108495000D01*
G75*
G02*
X161983000Y-108545000I0J-50000D01*
G01*
X161983000Y-111045000D01*
G75*
G02*
X161933000Y-111095000I-50000J0D01*
G01*
X159383000Y-111095000D01*
G75*
G02*
X159333000Y-111045000I0J50000D01*
G01*
G37*
G36*
G01*
X131200000Y-58075000D02*
X130000000Y-58075000D01*
G75*
G02*
X129950000Y-58025000I0J50000D01*
G01*
X129950000Y-57125000D01*
G75*
G02*
X130000000Y-57075000I50000J0D01*
G01*
X131200000Y-57075000D01*
G75*
G02*
X131250000Y-57125000I0J-50000D01*
G01*
X131250000Y-58025000D01*
G75*
G02*
X131200000Y-58075000I-50000J0D01*
G01*
G37*
G36*
G01*
X131200000Y-54775000D02*
X130000000Y-54775000D01*
G75*
G02*
X129950000Y-54725000I0J50000D01*
G01*
X129950000Y-53825000D01*
G75*
G02*
X130000000Y-53775000I50000J0D01*
G01*
X131200000Y-53775000D01*
G75*
G02*
X131250000Y-53825000I0J-50000D01*
G01*
X131250000Y-54725000D01*
G75*
G02*
X131200000Y-54775000I-50000J0D01*
G01*
G37*
G36*
G01*
X150200000Y-74700000D02*
X149000000Y-74700000D01*
G75*
G02*
X148950000Y-74650000I0J50000D01*
G01*
X148950000Y-73750000D01*
G75*
G02*
X149000000Y-73700000I50000J0D01*
G01*
X150200000Y-73700000D01*
G75*
G02*
X150250000Y-73750000I0J-50000D01*
G01*
X150250000Y-74650000D01*
G75*
G02*
X150200000Y-74700000I-50000J0D01*
G01*
G37*
G36*
G01*
X150200000Y-71400000D02*
X149000000Y-71400000D01*
G75*
G02*
X148950000Y-71350000I0J50000D01*
G01*
X148950000Y-70450000D01*
G75*
G02*
X149000000Y-70400000I50000J0D01*
G01*
X150200000Y-70400000D01*
G75*
G02*
X150250000Y-70450000I0J-50000D01*
G01*
X150250000Y-71350000D01*
G75*
G02*
X150200000Y-71400000I-50000J0D01*
G01*
G37*
G36*
X214851355Y-99385355D02*
G01*
X214816000Y-99400000D01*
X213566000Y-99400000D01*
X213530645Y-99385355D01*
X213516000Y-99350000D01*
X213530645Y-99314645D01*
X214095290Y-98750000D01*
X213530645Y-98185355D01*
X213516000Y-98150000D01*
X213530645Y-98114645D01*
X213566000Y-98100000D01*
X214816000Y-98100000D01*
X214851355Y-98114645D01*
X214866000Y-98150000D01*
X214866000Y-99350000D01*
X214851355Y-99385355D01*
G37*
G36*
X214851355Y-97385355D02*
G01*
X214816000Y-97400000D01*
X213566000Y-97400000D01*
X213530645Y-97385355D01*
X213516000Y-97350000D01*
X213530645Y-97314645D01*
X214095290Y-96750000D01*
X213530645Y-96185355D01*
X213516000Y-96150000D01*
X213530645Y-96114645D01*
X213566000Y-96100000D01*
X214816000Y-96100000D01*
X214851355Y-96114645D01*
X214866000Y-96150000D01*
X214866000Y-97350000D01*
X214851355Y-97385355D01*
G37*
D19*
X211750000Y-98750000D03*
X211750000Y-96750000D03*
G36*
X213985355Y-98785355D02*
G01*
X213385355Y-99385355D01*
X213350000Y-99400000D01*
X213150000Y-99400000D01*
X213114645Y-99385355D01*
X213100000Y-99350000D01*
X213100000Y-98150000D01*
X213114645Y-98114645D01*
X213150000Y-98100000D01*
X213350000Y-98100000D01*
X213385355Y-98114645D01*
X213985355Y-98714645D01*
X214000000Y-98750000D01*
X213985355Y-98785355D01*
G37*
G36*
X213985355Y-96785355D02*
G01*
X213385355Y-97385355D01*
X213350000Y-97400000D01*
X213150000Y-97400000D01*
X213114645Y-97385355D01*
X213100000Y-97350000D01*
X213100000Y-96150000D01*
X213114645Y-96114645D01*
X213150000Y-96100000D01*
X213350000Y-96100000D01*
X213385355Y-96114645D01*
X213985355Y-96714645D01*
X214000000Y-96750000D01*
X213985355Y-96785355D01*
G37*
G36*
G01*
X112200000Y-62825000D02*
X111000000Y-62825000D01*
G75*
G02*
X110950000Y-62775000I0J50000D01*
G01*
X110950000Y-61875000D01*
G75*
G02*
X111000000Y-61825000I50000J0D01*
G01*
X112200000Y-61825000D01*
G75*
G02*
X112250000Y-61875000I0J-50000D01*
G01*
X112250000Y-62775000D01*
G75*
G02*
X112200000Y-62825000I-50000J0D01*
G01*
G37*
G36*
G01*
X112200000Y-59525000D02*
X111000000Y-59525000D01*
G75*
G02*
X110950000Y-59475000I0J50000D01*
G01*
X110950000Y-58575000D01*
G75*
G02*
X111000000Y-58525000I50000J0D01*
G01*
X112200000Y-58525000D01*
G75*
G02*
X112250000Y-58575000I0J-50000D01*
G01*
X112250000Y-59475000D01*
G75*
G02*
X112200000Y-59525000I-50000J0D01*
G01*
G37*
D13*
X170920000Y-76250000D03*
D14*
X173460000Y-71170000D03*
D15*
X176000000Y-76250000D03*
D14*
X179810000Y-73710000D03*
D13*
X181080000Y-76250000D03*
G36*
G01*
X181760000Y-74960000D02*
X181760000Y-72460000D01*
G75*
G02*
X181810000Y-72410000I50000J0D01*
G01*
X184360000Y-72410000D01*
G75*
G02*
X184410000Y-72460000I0J-50000D01*
G01*
X184410000Y-74960000D01*
G75*
G02*
X184360000Y-75010000I-50000J0D01*
G01*
X181810000Y-75010000D01*
G75*
G02*
X181760000Y-74960000I0J50000D01*
G01*
G37*
G36*
G01*
X168833000Y-72420000D02*
X168833000Y-69920000D01*
G75*
G02*
X168883000Y-69870000I50000J0D01*
G01*
X171433000Y-69870000D01*
G75*
G02*
X171483000Y-69920000I0J-50000D01*
G01*
X171483000Y-72420000D01*
G75*
G02*
X171433000Y-72470000I-50000J0D01*
G01*
X168883000Y-72470000D01*
G75*
G02*
X168833000Y-72420000I0J50000D01*
G01*
G37*
X94920000Y-62000000D03*
D14*
X97460000Y-56920000D03*
D15*
X100000000Y-62000000D03*
D14*
X103810000Y-59460000D03*
D13*
X105080000Y-62000000D03*
G36*
G01*
X105760000Y-60710000D02*
X105760000Y-58210000D01*
G75*
G02*
X105810000Y-58160000I50000J0D01*
G01*
X108360000Y-58160000D01*
G75*
G02*
X108410000Y-58210000I0J-50000D01*
G01*
X108410000Y-60710000D01*
G75*
G02*
X108360000Y-60760000I-50000J0D01*
G01*
X105810000Y-60760000D01*
G75*
G02*
X105760000Y-60710000I0J50000D01*
G01*
G37*
G36*
G01*
X92833000Y-58170000D02*
X92833000Y-55670000D01*
G75*
G02*
X92883000Y-55620000I50000J0D01*
G01*
X95433000Y-55620000D01*
G75*
G02*
X95483000Y-55670000I0J-50000D01*
G01*
X95483000Y-58170000D01*
G75*
G02*
X95433000Y-58220000I-50000J0D01*
G01*
X92883000Y-58220000D01*
G75*
G02*
X92833000Y-58170000I0J50000D01*
G01*
G37*
X170920000Y-95250000D03*
D14*
X173460000Y-90170000D03*
D15*
X176000000Y-95250000D03*
D14*
X179810000Y-92710000D03*
D13*
X181080000Y-95250000D03*
G36*
G01*
X181760000Y-93960000D02*
X181760000Y-91460000D01*
G75*
G02*
X181810000Y-91410000I50000J0D01*
G01*
X184360000Y-91410000D01*
G75*
G02*
X184410000Y-91460000I0J-50000D01*
G01*
X184410000Y-93960000D01*
G75*
G02*
X184360000Y-94010000I-50000J0D01*
G01*
X181810000Y-94010000D01*
G75*
G02*
X181760000Y-93960000I0J50000D01*
G01*
G37*
G36*
G01*
X168833000Y-91420000D02*
X168833000Y-88920000D01*
G75*
G02*
X168883000Y-88870000I50000J0D01*
G01*
X171433000Y-88870000D01*
G75*
G02*
X171483000Y-88920000I0J-50000D01*
G01*
X171483000Y-91420000D01*
G75*
G02*
X171433000Y-91470000I-50000J0D01*
G01*
X168883000Y-91470000D01*
G75*
G02*
X168833000Y-91420000I0J50000D01*
G01*
G37*
D16*
X185468000Y-67986000D03*
D13*
X113920000Y-100000000D03*
D14*
X116460000Y-94920000D03*
D15*
X119000000Y-100000000D03*
D14*
X122810000Y-97460000D03*
D13*
X124080000Y-100000000D03*
G36*
G01*
X124760000Y-98710000D02*
X124760000Y-96210000D01*
G75*
G02*
X124810000Y-96160000I50000J0D01*
G01*
X127360000Y-96160000D01*
G75*
G02*
X127410000Y-96210000I0J-50000D01*
G01*
X127410000Y-98710000D01*
G75*
G02*
X127360000Y-98760000I-50000J0D01*
G01*
X124810000Y-98760000D01*
G75*
G02*
X124760000Y-98710000I0J50000D01*
G01*
G37*
G36*
G01*
X111833000Y-96170000D02*
X111833000Y-93670000D01*
G75*
G02*
X111883000Y-93620000I50000J0D01*
G01*
X114433000Y-93620000D01*
G75*
G02*
X114483000Y-93670000I0J-50000D01*
G01*
X114483000Y-96170000D01*
G75*
G02*
X114433000Y-96220000I-50000J0D01*
G01*
X111883000Y-96220000D01*
G75*
G02*
X111833000Y-96170000I0J50000D01*
G01*
G37*
X151920000Y-92875000D03*
D14*
X154460000Y-87795000D03*
D15*
X157000000Y-92875000D03*
D14*
X160810000Y-90335000D03*
D13*
X162080000Y-92875000D03*
G36*
G01*
X162760000Y-91585000D02*
X162760000Y-89085000D01*
G75*
G02*
X162810000Y-89035000I50000J0D01*
G01*
X165360000Y-89035000D01*
G75*
G02*
X165410000Y-89085000I0J-50000D01*
G01*
X165410000Y-91585000D01*
G75*
G02*
X165360000Y-91635000I-50000J0D01*
G01*
X162810000Y-91635000D01*
G75*
G02*
X162760000Y-91585000I0J50000D01*
G01*
G37*
G36*
G01*
X149833000Y-89045000D02*
X149833000Y-86545000D01*
G75*
G02*
X149883000Y-86495000I50000J0D01*
G01*
X152433000Y-86495000D01*
G75*
G02*
X152483000Y-86545000I0J-50000D01*
G01*
X152483000Y-89045000D01*
G75*
G02*
X152433000Y-89095000I-50000J0D01*
G01*
X149883000Y-89095000D01*
G75*
G02*
X149833000Y-89045000I0J50000D01*
G01*
G37*
G36*
G01*
X93200000Y-81825000D02*
X92000000Y-81825000D01*
G75*
G02*
X91950000Y-81775000I0J50000D01*
G01*
X91950000Y-80875000D01*
G75*
G02*
X92000000Y-80825000I50000J0D01*
G01*
X93200000Y-80825000D01*
G75*
G02*
X93250000Y-80875000I0J-50000D01*
G01*
X93250000Y-81775000D01*
G75*
G02*
X93200000Y-81825000I-50000J0D01*
G01*
G37*
G36*
G01*
X93200000Y-78525000D02*
X92000000Y-78525000D01*
G75*
G02*
X91950000Y-78475000I0J50000D01*
G01*
X91950000Y-77575000D01*
G75*
G02*
X92000000Y-77525000I50000J0D01*
G01*
X93200000Y-77525000D01*
G75*
G02*
X93250000Y-77575000I0J-50000D01*
G01*
X93250000Y-78475000D01*
G75*
G02*
X93200000Y-78525000I-50000J0D01*
G01*
G37*
G36*
G01*
X150200000Y-55700000D02*
X149000000Y-55700000D01*
G75*
G02*
X148950000Y-55650000I0J50000D01*
G01*
X148950000Y-54750000D01*
G75*
G02*
X149000000Y-54700000I50000J0D01*
G01*
X150200000Y-54700000D01*
G75*
G02*
X150250000Y-54750000I0J-50000D01*
G01*
X150250000Y-55650000D01*
G75*
G02*
X150200000Y-55700000I-50000J0D01*
G01*
G37*
G36*
G01*
X150200000Y-52400000D02*
X149000000Y-52400000D01*
G75*
G02*
X148950000Y-52350000I0J50000D01*
G01*
X148950000Y-51450000D01*
G75*
G02*
X149000000Y-51400000I50000J0D01*
G01*
X150200000Y-51400000D01*
G75*
G02*
X150250000Y-51450000I0J-50000D01*
G01*
X150250000Y-52350000D01*
G75*
G02*
X150200000Y-52400000I-50000J0D01*
G01*
G37*
G36*
G01*
X169200000Y-77075000D02*
X168000000Y-77075000D01*
G75*
G02*
X167950000Y-77025000I0J50000D01*
G01*
X167950000Y-76125000D01*
G75*
G02*
X168000000Y-76075000I50000J0D01*
G01*
X169200000Y-76075000D01*
G75*
G02*
X169250000Y-76125000I0J-50000D01*
G01*
X169250000Y-77025000D01*
G75*
G02*
X169200000Y-77075000I-50000J0D01*
G01*
G37*
G36*
G01*
X169200000Y-73775000D02*
X168000000Y-73775000D01*
G75*
G02*
X167950000Y-73725000I0J50000D01*
G01*
X167950000Y-72825000D01*
G75*
G02*
X168000000Y-72775000I50000J0D01*
G01*
X169200000Y-72775000D01*
G75*
G02*
X169250000Y-72825000I0J-50000D01*
G01*
X169250000Y-73725000D01*
G75*
G02*
X169200000Y-73775000I-50000J0D01*
G01*
G37*
D16*
X152657000Y-107740000D03*
G36*
G01*
X169200000Y-96075000D02*
X168000000Y-96075000D01*
G75*
G02*
X167950000Y-96025000I0J50000D01*
G01*
X167950000Y-95125000D01*
G75*
G02*
X168000000Y-95075000I50000J0D01*
G01*
X169200000Y-95075000D01*
G75*
G02*
X169250000Y-95125000I0J-50000D01*
G01*
X169250000Y-96025000D01*
G75*
G02*
X169200000Y-96075000I-50000J0D01*
G01*
G37*
G36*
G01*
X169200000Y-92775000D02*
X168000000Y-92775000D01*
G75*
G02*
X167950000Y-92725000I0J50000D01*
G01*
X167950000Y-91825000D01*
G75*
G02*
X168000000Y-91775000I50000J0D01*
G01*
X169200000Y-91775000D01*
G75*
G02*
X169250000Y-91825000I0J-50000D01*
G01*
X169250000Y-92725000D01*
G75*
G02*
X169200000Y-92775000I-50000J0D01*
G01*
G37*
G36*
G01*
X188200000Y-60450000D02*
X187000000Y-60450000D01*
G75*
G02*
X186950000Y-60400000I0J50000D01*
G01*
X186950000Y-59500000D01*
G75*
G02*
X187000000Y-59450000I50000J0D01*
G01*
X188200000Y-59450000D01*
G75*
G02*
X188250000Y-59500000I0J-50000D01*
G01*
X188250000Y-60400000D01*
G75*
G02*
X188200000Y-60450000I-50000J0D01*
G01*
G37*
G36*
G01*
X188200000Y-57150000D02*
X187000000Y-57150000D01*
G75*
G02*
X186950000Y-57100000I0J50000D01*
G01*
X186950000Y-56200000D01*
G75*
G02*
X187000000Y-56150000I50000J0D01*
G01*
X188200000Y-56150000D01*
G75*
G02*
X188250000Y-56200000I0J-50000D01*
G01*
X188250000Y-57100000D01*
G75*
G02*
X188200000Y-57150000I-50000J0D01*
G01*
G37*
G36*
G01*
X150200000Y-93700000D02*
X149000000Y-93700000D01*
G75*
G02*
X148950000Y-93650000I0J50000D01*
G01*
X148950000Y-92750000D01*
G75*
G02*
X149000000Y-92700000I50000J0D01*
G01*
X150200000Y-92700000D01*
G75*
G02*
X150250000Y-92750000I0J-50000D01*
G01*
X150250000Y-93650000D01*
G75*
G02*
X150200000Y-93700000I-50000J0D01*
G01*
G37*
G36*
G01*
X150200000Y-90400000D02*
X149000000Y-90400000D01*
G75*
G02*
X148950000Y-90350000I0J50000D01*
G01*
X148950000Y-89450000D01*
G75*
G02*
X149000000Y-89400000I50000J0D01*
G01*
X150200000Y-89400000D01*
G75*
G02*
X150250000Y-89450000I0J-50000D01*
G01*
X150250000Y-90350000D01*
G75*
G02*
X150200000Y-90400000I-50000J0D01*
G01*
G37*
G36*
G01*
X112200000Y-100825000D02*
X111000000Y-100825000D01*
G75*
G02*
X110950000Y-100775000I0J50000D01*
G01*
X110950000Y-99875000D01*
G75*
G02*
X111000000Y-99825000I50000J0D01*
G01*
X112200000Y-99825000D01*
G75*
G02*
X112250000Y-99875000I0J-50000D01*
G01*
X112250000Y-100775000D01*
G75*
G02*
X112200000Y-100825000I-50000J0D01*
G01*
G37*
G36*
G01*
X112200000Y-97525000D02*
X111000000Y-97525000D01*
G75*
G02*
X110950000Y-97475000I0J50000D01*
G01*
X110950000Y-96575000D01*
G75*
G02*
X111000000Y-96525000I50000J0D01*
G01*
X112200000Y-96525000D01*
G75*
G02*
X112250000Y-96575000I0J-50000D01*
G01*
X112250000Y-97475000D01*
G75*
G02*
X112200000Y-97525000I-50000J0D01*
G01*
G37*
D20*
X222194000Y-108995000D03*
G36*
G01*
X159700000Y-115700000D02*
X158500000Y-115700000D01*
G75*
G02*
X158450000Y-115650000I0J50000D01*
G01*
X158450000Y-114750000D01*
G75*
G02*
X158500000Y-114700000I50000J0D01*
G01*
X159700000Y-114700000D01*
G75*
G02*
X159750000Y-114750000I0J-50000D01*
G01*
X159750000Y-115650000D01*
G75*
G02*
X159700000Y-115700000I-50000J0D01*
G01*
G37*
G36*
G01*
X159700000Y-112400000D02*
X158500000Y-112400000D01*
G75*
G02*
X158450000Y-112350000I0J50000D01*
G01*
X158450000Y-111450000D01*
G75*
G02*
X158500000Y-111400000I50000J0D01*
G01*
X159700000Y-111400000D01*
G75*
G02*
X159750000Y-111450000I0J-50000D01*
G01*
X159750000Y-112350000D01*
G75*
G02*
X159700000Y-112400000I-50000J0D01*
G01*
G37*
D21*
X209567000Y-89950000D03*
X212107000Y-89950000D03*
X214647000Y-89950000D03*
X217187000Y-89950000D03*
D22*
X219727000Y-89950000D03*
G36*
G01*
X210167000Y-92950000D02*
X208967000Y-92950000D01*
G75*
G02*
X208917000Y-92900000I0J50000D01*
G01*
X208917000Y-92300000D01*
G75*
G02*
X208967000Y-92250000I50000J0D01*
G01*
X210167000Y-92250000D01*
G75*
G02*
X210217000Y-92300000I0J-50000D01*
G01*
X210217000Y-92900000D01*
G75*
G02*
X210167000Y-92950000I-50000J0D01*
G01*
G37*
G36*
G01*
X212707000Y-92950000D02*
X211507000Y-92950000D01*
G75*
G02*
X211457000Y-92900000I0J50000D01*
G01*
X211457000Y-92300000D01*
G75*
G02*
X211507000Y-92250000I50000J0D01*
G01*
X212707000Y-92250000D01*
G75*
G02*
X212757000Y-92300000I0J-50000D01*
G01*
X212757000Y-92900000D01*
G75*
G02*
X212707000Y-92950000I-50000J0D01*
G01*
G37*
G36*
G01*
X217787000Y-92950000D02*
X216587000Y-92950000D01*
G75*
G02*
X216537000Y-92900000I0J50000D01*
G01*
X216537000Y-92300000D01*
G75*
G02*
X216587000Y-92250000I50000J0D01*
G01*
X217787000Y-92250000D01*
G75*
G02*
X217837000Y-92300000I0J-50000D01*
G01*
X217837000Y-92900000D01*
G75*
G02*
X217787000Y-92950000I-50000J0D01*
G01*
G37*
G36*
G01*
X220327000Y-92950000D02*
X219127000Y-92950000D01*
G75*
G02*
X219077000Y-92900000I0J50000D01*
G01*
X219077000Y-92300000D01*
G75*
G02*
X219127000Y-92250000I50000J0D01*
G01*
X220327000Y-92250000D01*
G75*
G02*
X220377000Y-92300000I0J-50000D01*
G01*
X220377000Y-92900000D01*
G75*
G02*
X220327000Y-92950000I-50000J0D01*
G01*
G37*
G36*
G01*
X210167000Y-92050000D02*
X208967000Y-92050000D01*
G75*
G02*
X208917000Y-92000000I0J50000D01*
G01*
X208917000Y-91400000D01*
G75*
G02*
X208967000Y-91350000I50000J0D01*
G01*
X210167000Y-91350000D01*
G75*
G02*
X210217000Y-91400000I0J-50000D01*
G01*
X210217000Y-92000000D01*
G75*
G02*
X210167000Y-92050000I-50000J0D01*
G01*
G37*
G36*
G01*
X212707000Y-92050000D02*
X211507000Y-92050000D01*
G75*
G02*
X211457000Y-92000000I0J50000D01*
G01*
X211457000Y-91400000D01*
G75*
G02*
X211507000Y-91350000I50000J0D01*
G01*
X212707000Y-91350000D01*
G75*
G02*
X212757000Y-91400000I0J-50000D01*
G01*
X212757000Y-92000000D01*
G75*
G02*
X212707000Y-92050000I-50000J0D01*
G01*
G37*
G36*
G01*
X217787000Y-92050000D02*
X216587000Y-92050000D01*
G75*
G02*
X216537000Y-92000000I0J50000D01*
G01*
X216537000Y-91400000D01*
G75*
G02*
X216587000Y-91350000I50000J0D01*
G01*
X217787000Y-91350000D01*
G75*
G02*
X217837000Y-91400000I0J-50000D01*
G01*
X217837000Y-92000000D01*
G75*
G02*
X217787000Y-92050000I-50000J0D01*
G01*
G37*
G36*
G01*
X220327000Y-92050000D02*
X219127000Y-92050000D01*
G75*
G02*
X219077000Y-92000000I0J50000D01*
G01*
X219077000Y-91400000D01*
G75*
G02*
X219127000Y-91350000I50000J0D01*
G01*
X220327000Y-91350000D01*
G75*
G02*
X220377000Y-91400000I0J-50000D01*
G01*
X220377000Y-92000000D01*
G75*
G02*
X220327000Y-92050000I-50000J0D01*
G01*
G37*
G36*
G01*
X180718196Y-116661932D02*
X179559085Y-116351349D01*
G75*
G02*
X179523730Y-116290112I12941J48296D01*
G01*
X179756667Y-115420779D01*
G75*
G02*
X179817904Y-115385424I48296J-12941D01*
G01*
X180977015Y-115696007D01*
G75*
G02*
X181012370Y-115757244I-12941J-48296D01*
G01*
X180779433Y-116626577D01*
G75*
G02*
X180718196Y-116661932I-48296J12941D01*
G01*
G37*
G36*
G01*
X181572296Y-113474376D02*
X180413185Y-113163793D01*
G75*
G02*
X180377830Y-113102556I12941J48296D01*
G01*
X180610767Y-112233223D01*
G75*
G02*
X180672004Y-112197868I48296J-12941D01*
G01*
X181831115Y-112508451D01*
G75*
G02*
X181866470Y-112569688I-12941J-48296D01*
G01*
X181633533Y-113439021D01*
G75*
G02*
X181572296Y-113474376I-48296J12941D01*
G01*
G37*
G36*
G01*
X219834000Y-58770000D02*
X219834000Y-57570000D01*
G75*
G02*
X219884000Y-57520000I50000J0D01*
G01*
X220484000Y-57520000D01*
G75*
G02*
X220534000Y-57570000I0J-50000D01*
G01*
X220534000Y-58770000D01*
G75*
G02*
X220484000Y-58820000I-50000J0D01*
G01*
X219884000Y-58820000D01*
G75*
G02*
X219834000Y-58770000I0J50000D01*
G01*
G37*
X222324000Y-58170000D03*
G36*
G01*
X219834000Y-61310000D02*
X219834000Y-60110000D01*
G75*
G02*
X219884000Y-60060000I50000J0D01*
G01*
X220484000Y-60060000D01*
G75*
G02*
X220534000Y-60110000I0J-50000D01*
G01*
X220534000Y-61310000D01*
G75*
G02*
X220484000Y-61360000I-50000J0D01*
G01*
X219884000Y-61360000D01*
G75*
G02*
X219834000Y-61310000I0J50000D01*
G01*
G37*
X222324000Y-60710000D03*
G36*
G01*
X219834000Y-63850000D02*
X219834000Y-62650000D01*
G75*
G02*
X219884000Y-62600000I50000J0D01*
G01*
X220484000Y-62600000D01*
G75*
G02*
X220534000Y-62650000I0J-50000D01*
G01*
X220534000Y-63850000D01*
G75*
G02*
X220484000Y-63900000I-50000J0D01*
G01*
X219884000Y-63900000D01*
G75*
G02*
X219834000Y-63850000I0J50000D01*
G01*
G37*
X222324000Y-63250000D03*
G36*
G01*
X219834000Y-66390000D02*
X219834000Y-65190000D01*
G75*
G02*
X219884000Y-65140000I50000J0D01*
G01*
X220484000Y-65140000D01*
G75*
G02*
X220534000Y-65190000I0J-50000D01*
G01*
X220534000Y-66390000D01*
G75*
G02*
X220484000Y-66440000I-50000J0D01*
G01*
X219884000Y-66440000D01*
G75*
G02*
X219834000Y-66390000I0J50000D01*
G01*
G37*
X222324000Y-65790000D03*
G36*
G01*
X219834000Y-68930000D02*
X219834000Y-67730000D01*
G75*
G02*
X219884000Y-67680000I50000J0D01*
G01*
X220484000Y-67680000D01*
G75*
G02*
X220534000Y-67730000I0J-50000D01*
G01*
X220534000Y-68930000D01*
G75*
G02*
X220484000Y-68980000I-50000J0D01*
G01*
X219884000Y-68980000D01*
G75*
G02*
X219834000Y-68930000I0J50000D01*
G01*
G37*
X222324000Y-68330000D03*
G36*
G01*
X219834000Y-71470000D02*
X219834000Y-70270000D01*
G75*
G02*
X219884000Y-70220000I50000J0D01*
G01*
X220484000Y-70220000D01*
G75*
G02*
X220534000Y-70270000I0J-50000D01*
G01*
X220534000Y-71470000D01*
G75*
G02*
X220484000Y-71520000I-50000J0D01*
G01*
X219884000Y-71520000D01*
G75*
G02*
X219834000Y-71470000I0J50000D01*
G01*
G37*
X222324000Y-70870000D03*
G36*
G01*
X219834000Y-74010000D02*
X219834000Y-72810000D01*
G75*
G02*
X219884000Y-72760000I50000J0D01*
G01*
X220484000Y-72760000D01*
G75*
G02*
X220534000Y-72810000I0J-50000D01*
G01*
X220534000Y-74010000D01*
G75*
G02*
X220484000Y-74060000I-50000J0D01*
G01*
X219884000Y-74060000D01*
G75*
G02*
X219834000Y-74010000I0J50000D01*
G01*
G37*
X222324000Y-73410000D03*
G36*
G01*
X219834000Y-76550000D02*
X219834000Y-75350000D01*
G75*
G02*
X219884000Y-75300000I50000J0D01*
G01*
X220484000Y-75300000D01*
G75*
G02*
X220534000Y-75350000I0J-50000D01*
G01*
X220534000Y-76550000D01*
G75*
G02*
X220484000Y-76600000I-50000J0D01*
G01*
X219884000Y-76600000D01*
G75*
G02*
X219834000Y-76550000I0J50000D01*
G01*
G37*
X222324000Y-75950000D03*
G36*
G01*
X219834000Y-79090000D02*
X219834000Y-77890000D01*
G75*
G02*
X219884000Y-77840000I50000J0D01*
G01*
X220484000Y-77840000D01*
G75*
G02*
X220534000Y-77890000I0J-50000D01*
G01*
X220534000Y-79090000D01*
G75*
G02*
X220484000Y-79140000I-50000J0D01*
G01*
X219884000Y-79140000D01*
G75*
G02*
X219834000Y-79090000I0J50000D01*
G01*
G37*
X222324000Y-78490000D03*
G36*
G01*
X219834000Y-81630000D02*
X219834000Y-80430000D01*
G75*
G02*
X219884000Y-80380000I50000J0D01*
G01*
X220484000Y-80380000D01*
G75*
G02*
X220534000Y-80430000I0J-50000D01*
G01*
X220534000Y-81630000D01*
G75*
G02*
X220484000Y-81680000I-50000J0D01*
G01*
X219884000Y-81680000D01*
G75*
G02*
X219834000Y-81630000I0J50000D01*
G01*
G37*
X222324000Y-81030000D03*
G36*
G01*
X219834000Y-84170000D02*
X219834000Y-82970000D01*
G75*
G02*
X219884000Y-82920000I50000J0D01*
G01*
X220484000Y-82920000D01*
G75*
G02*
X220534000Y-82970000I0J-50000D01*
G01*
X220534000Y-84170000D01*
G75*
G02*
X220484000Y-84220000I-50000J0D01*
G01*
X219884000Y-84220000D01*
G75*
G02*
X219834000Y-84170000I0J50000D01*
G01*
G37*
X222324000Y-83570000D03*
G36*
G01*
X219834000Y-86710000D02*
X219834000Y-85510000D01*
G75*
G02*
X219884000Y-85460000I50000J0D01*
G01*
X220484000Y-85460000D01*
G75*
G02*
X220534000Y-85510000I0J-50000D01*
G01*
X220534000Y-86710000D01*
G75*
G02*
X220484000Y-86760000I-50000J0D01*
G01*
X219884000Y-86760000D01*
G75*
G02*
X219834000Y-86710000I0J50000D01*
G01*
G37*
X222324000Y-86110000D03*
X207084000Y-86110000D03*
G36*
G01*
X208874000Y-86710000D02*
X208874000Y-85510000D01*
G75*
G02*
X208924000Y-85460000I50000J0D01*
G01*
X209524000Y-85460000D01*
G75*
G02*
X209574000Y-85510000I0J-50000D01*
G01*
X209574000Y-86710000D01*
G75*
G02*
X209524000Y-86760000I-50000J0D01*
G01*
X208924000Y-86760000D01*
G75*
G02*
X208874000Y-86710000I0J50000D01*
G01*
G37*
X207084000Y-83570000D03*
G36*
G01*
X208874000Y-84170000D02*
X208874000Y-82970000D01*
G75*
G02*
X208924000Y-82920000I50000J0D01*
G01*
X209524000Y-82920000D01*
G75*
G02*
X209574000Y-82970000I0J-50000D01*
G01*
X209574000Y-84170000D01*
G75*
G02*
X209524000Y-84220000I-50000J0D01*
G01*
X208924000Y-84220000D01*
G75*
G02*
X208874000Y-84170000I0J50000D01*
G01*
G37*
X207084000Y-81030000D03*
G36*
G01*
X208874000Y-81630000D02*
X208874000Y-80430000D01*
G75*
G02*
X208924000Y-80380000I50000J0D01*
G01*
X209524000Y-80380000D01*
G75*
G02*
X209574000Y-80430000I0J-50000D01*
G01*
X209574000Y-81630000D01*
G75*
G02*
X209524000Y-81680000I-50000J0D01*
G01*
X208924000Y-81680000D01*
G75*
G02*
X208874000Y-81630000I0J50000D01*
G01*
G37*
X207084000Y-78490000D03*
G36*
G01*
X208874000Y-79090000D02*
X208874000Y-77890000D01*
G75*
G02*
X208924000Y-77840000I50000J0D01*
G01*
X209524000Y-77840000D01*
G75*
G02*
X209574000Y-77890000I0J-50000D01*
G01*
X209574000Y-79090000D01*
G75*
G02*
X209524000Y-79140000I-50000J0D01*
G01*
X208924000Y-79140000D01*
G75*
G02*
X208874000Y-79090000I0J50000D01*
G01*
G37*
X207084000Y-75950000D03*
G36*
G01*
X208874000Y-76550000D02*
X208874000Y-75350000D01*
G75*
G02*
X208924000Y-75300000I50000J0D01*
G01*
X209524000Y-75300000D01*
G75*
G02*
X209574000Y-75350000I0J-50000D01*
G01*
X209574000Y-76550000D01*
G75*
G02*
X209524000Y-76600000I-50000J0D01*
G01*
X208924000Y-76600000D01*
G75*
G02*
X208874000Y-76550000I0J50000D01*
G01*
G37*
X207084000Y-73410000D03*
G36*
G01*
X208874000Y-74010000D02*
X208874000Y-72810000D01*
G75*
G02*
X208924000Y-72760000I50000J0D01*
G01*
X209524000Y-72760000D01*
G75*
G02*
X209574000Y-72810000I0J-50000D01*
G01*
X209574000Y-74010000D01*
G75*
G02*
X209524000Y-74060000I-50000J0D01*
G01*
X208924000Y-74060000D01*
G75*
G02*
X208874000Y-74010000I0J50000D01*
G01*
G37*
X207084000Y-70870000D03*
G36*
G01*
X208874000Y-71470000D02*
X208874000Y-70270000D01*
G75*
G02*
X208924000Y-70220000I50000J0D01*
G01*
X209524000Y-70220000D01*
G75*
G02*
X209574000Y-70270000I0J-50000D01*
G01*
X209574000Y-71470000D01*
G75*
G02*
X209524000Y-71520000I-50000J0D01*
G01*
X208924000Y-71520000D01*
G75*
G02*
X208874000Y-71470000I0J50000D01*
G01*
G37*
X207084000Y-68330000D03*
G36*
G01*
X208874000Y-68930000D02*
X208874000Y-67730000D01*
G75*
G02*
X208924000Y-67680000I50000J0D01*
G01*
X209524000Y-67680000D01*
G75*
G02*
X209574000Y-67730000I0J-50000D01*
G01*
X209574000Y-68930000D01*
G75*
G02*
X209524000Y-68980000I-50000J0D01*
G01*
X208924000Y-68980000D01*
G75*
G02*
X208874000Y-68930000I0J50000D01*
G01*
G37*
X207084000Y-65790000D03*
G36*
G01*
X208874000Y-66390000D02*
X208874000Y-65190000D01*
G75*
G02*
X208924000Y-65140000I50000J0D01*
G01*
X209524000Y-65140000D01*
G75*
G02*
X209574000Y-65190000I0J-50000D01*
G01*
X209574000Y-66390000D01*
G75*
G02*
X209524000Y-66440000I-50000J0D01*
G01*
X208924000Y-66440000D01*
G75*
G02*
X208874000Y-66390000I0J50000D01*
G01*
G37*
X207084000Y-63250000D03*
G36*
G01*
X208874000Y-63850000D02*
X208874000Y-62650000D01*
G75*
G02*
X208924000Y-62600000I50000J0D01*
G01*
X209524000Y-62600000D01*
G75*
G02*
X209574000Y-62650000I0J-50000D01*
G01*
X209574000Y-63850000D01*
G75*
G02*
X209524000Y-63900000I-50000J0D01*
G01*
X208924000Y-63900000D01*
G75*
G02*
X208874000Y-63850000I0J50000D01*
G01*
G37*
X207084000Y-60710000D03*
G36*
G01*
X208874000Y-61310000D02*
X208874000Y-60110000D01*
G75*
G02*
X208924000Y-60060000I50000J0D01*
G01*
X209524000Y-60060000D01*
G75*
G02*
X209574000Y-60110000I0J-50000D01*
G01*
X209574000Y-61310000D01*
G75*
G02*
X209524000Y-61360000I-50000J0D01*
G01*
X208924000Y-61360000D01*
G75*
G02*
X208874000Y-61310000I0J50000D01*
G01*
G37*
X207084000Y-58170000D03*
G36*
G01*
X208874000Y-58770000D02*
X208874000Y-57570000D01*
G75*
G02*
X208924000Y-57520000I50000J0D01*
G01*
X209524000Y-57520000D01*
G75*
G02*
X209574000Y-57570000I0J-50000D01*
G01*
X209574000Y-58770000D01*
G75*
G02*
X209524000Y-58820000I-50000J0D01*
G01*
X208924000Y-58820000D01*
G75*
G02*
X208874000Y-58770000I0J50000D01*
G01*
G37*
D23*
X218104000Y-58170000D03*
G36*
G01*
X218934000Y-58770000D02*
X218934000Y-57570000D01*
G75*
G02*
X218984000Y-57520000I50000J0D01*
G01*
X219584000Y-57520000D01*
G75*
G02*
X219634000Y-57570000I0J-50000D01*
G01*
X219634000Y-58770000D01*
G75*
G02*
X219584000Y-58820000I-50000J0D01*
G01*
X218984000Y-58820000D01*
G75*
G02*
X218934000Y-58770000I0J50000D01*
G01*
G37*
X218104000Y-60710000D03*
G36*
G01*
X218934000Y-61310000D02*
X218934000Y-60110000D01*
G75*
G02*
X218984000Y-60060000I50000J0D01*
G01*
X219584000Y-60060000D01*
G75*
G02*
X219634000Y-60110000I0J-50000D01*
G01*
X219634000Y-61310000D01*
G75*
G02*
X219584000Y-61360000I-50000J0D01*
G01*
X218984000Y-61360000D01*
G75*
G02*
X218934000Y-61310000I0J50000D01*
G01*
G37*
X218104000Y-63250000D03*
G36*
G01*
X218934000Y-63850000D02*
X218934000Y-62650000D01*
G75*
G02*
X218984000Y-62600000I50000J0D01*
G01*
X219584000Y-62600000D01*
G75*
G02*
X219634000Y-62650000I0J-50000D01*
G01*
X219634000Y-63850000D01*
G75*
G02*
X219584000Y-63900000I-50000J0D01*
G01*
X218984000Y-63900000D01*
G75*
G02*
X218934000Y-63850000I0J50000D01*
G01*
G37*
X218104000Y-65790000D03*
G36*
G01*
X218934000Y-66390000D02*
X218934000Y-65190000D01*
G75*
G02*
X218984000Y-65140000I50000J0D01*
G01*
X219584000Y-65140000D01*
G75*
G02*
X219634000Y-65190000I0J-50000D01*
G01*
X219634000Y-66390000D01*
G75*
G02*
X219584000Y-66440000I-50000J0D01*
G01*
X218984000Y-66440000D01*
G75*
G02*
X218934000Y-66390000I0J50000D01*
G01*
G37*
X218104000Y-68330000D03*
G36*
G01*
X218934000Y-68930000D02*
X218934000Y-67730000D01*
G75*
G02*
X218984000Y-67680000I50000J0D01*
G01*
X219584000Y-67680000D01*
G75*
G02*
X219634000Y-67730000I0J-50000D01*
G01*
X219634000Y-68930000D01*
G75*
G02*
X219584000Y-68980000I-50000J0D01*
G01*
X218984000Y-68980000D01*
G75*
G02*
X218934000Y-68930000I0J50000D01*
G01*
G37*
X218104000Y-70870000D03*
G36*
G01*
X218934000Y-71470000D02*
X218934000Y-70270000D01*
G75*
G02*
X218984000Y-70220000I50000J0D01*
G01*
X219584000Y-70220000D01*
G75*
G02*
X219634000Y-70270000I0J-50000D01*
G01*
X219634000Y-71470000D01*
G75*
G02*
X219584000Y-71520000I-50000J0D01*
G01*
X218984000Y-71520000D01*
G75*
G02*
X218934000Y-71470000I0J50000D01*
G01*
G37*
X218104000Y-73410000D03*
G36*
G01*
X218934000Y-74010000D02*
X218934000Y-72810000D01*
G75*
G02*
X218984000Y-72760000I50000J0D01*
G01*
X219584000Y-72760000D01*
G75*
G02*
X219634000Y-72810000I0J-50000D01*
G01*
X219634000Y-74010000D01*
G75*
G02*
X219584000Y-74060000I-50000J0D01*
G01*
X218984000Y-74060000D01*
G75*
G02*
X218934000Y-74010000I0J50000D01*
G01*
G37*
X218104000Y-75950000D03*
G36*
G01*
X218934000Y-76550000D02*
X218934000Y-75350000D01*
G75*
G02*
X218984000Y-75300000I50000J0D01*
G01*
X219584000Y-75300000D01*
G75*
G02*
X219634000Y-75350000I0J-50000D01*
G01*
X219634000Y-76550000D01*
G75*
G02*
X219584000Y-76600000I-50000J0D01*
G01*
X218984000Y-76600000D01*
G75*
G02*
X218934000Y-76550000I0J50000D01*
G01*
G37*
X218104000Y-78490000D03*
G36*
G01*
X218934000Y-79090000D02*
X218934000Y-77890000D01*
G75*
G02*
X218984000Y-77840000I50000J0D01*
G01*
X219584000Y-77840000D01*
G75*
G02*
X219634000Y-77890000I0J-50000D01*
G01*
X219634000Y-79090000D01*
G75*
G02*
X219584000Y-79140000I-50000J0D01*
G01*
X218984000Y-79140000D01*
G75*
G02*
X218934000Y-79090000I0J50000D01*
G01*
G37*
X218104000Y-81030000D03*
G36*
G01*
X218934000Y-81630000D02*
X218934000Y-80430000D01*
G75*
G02*
X218984000Y-80380000I50000J0D01*
G01*
X219584000Y-80380000D01*
G75*
G02*
X219634000Y-80430000I0J-50000D01*
G01*
X219634000Y-81630000D01*
G75*
G02*
X219584000Y-81680000I-50000J0D01*
G01*
X218984000Y-81680000D01*
G75*
G02*
X218934000Y-81630000I0J50000D01*
G01*
G37*
X218104000Y-83570000D03*
G36*
G01*
X218934000Y-84170000D02*
X218934000Y-82970000D01*
G75*
G02*
X218984000Y-82920000I50000J0D01*
G01*
X219584000Y-82920000D01*
G75*
G02*
X219634000Y-82970000I0J-50000D01*
G01*
X219634000Y-84170000D01*
G75*
G02*
X219584000Y-84220000I-50000J0D01*
G01*
X218984000Y-84220000D01*
G75*
G02*
X218934000Y-84170000I0J50000D01*
G01*
G37*
X218104000Y-86110000D03*
G36*
G01*
X218934000Y-86710000D02*
X218934000Y-85510000D01*
G75*
G02*
X218984000Y-85460000I50000J0D01*
G01*
X219584000Y-85460000D01*
G75*
G02*
X219634000Y-85510000I0J-50000D01*
G01*
X219634000Y-86710000D01*
G75*
G02*
X219584000Y-86760000I-50000J0D01*
G01*
X218984000Y-86760000D01*
G75*
G02*
X218934000Y-86710000I0J50000D01*
G01*
G37*
G36*
G01*
X209774000Y-86710000D02*
X209774000Y-85510000D01*
G75*
G02*
X209824000Y-85460000I50000J0D01*
G01*
X210424000Y-85460000D01*
G75*
G02*
X210474000Y-85510000I0J-50000D01*
G01*
X210474000Y-86710000D01*
G75*
G02*
X210424000Y-86760000I-50000J0D01*
G01*
X209824000Y-86760000D01*
G75*
G02*
X209774000Y-86710000I0J50000D01*
G01*
G37*
X211304000Y-86110000D03*
G36*
G01*
X209774000Y-84170000D02*
X209774000Y-82970000D01*
G75*
G02*
X209824000Y-82920000I50000J0D01*
G01*
X210424000Y-82920000D01*
G75*
G02*
X210474000Y-82970000I0J-50000D01*
G01*
X210474000Y-84170000D01*
G75*
G02*
X210424000Y-84220000I-50000J0D01*
G01*
X209824000Y-84220000D01*
G75*
G02*
X209774000Y-84170000I0J50000D01*
G01*
G37*
X211304000Y-83570000D03*
G36*
G01*
X209774000Y-81630000D02*
X209774000Y-80430000D01*
G75*
G02*
X209824000Y-80380000I50000J0D01*
G01*
X210424000Y-80380000D01*
G75*
G02*
X210474000Y-80430000I0J-50000D01*
G01*
X210474000Y-81630000D01*
G75*
G02*
X210424000Y-81680000I-50000J0D01*
G01*
X209824000Y-81680000D01*
G75*
G02*
X209774000Y-81630000I0J50000D01*
G01*
G37*
X211304000Y-81030000D03*
G36*
G01*
X209774000Y-79090000D02*
X209774000Y-77890000D01*
G75*
G02*
X209824000Y-77840000I50000J0D01*
G01*
X210424000Y-77840000D01*
G75*
G02*
X210474000Y-77890000I0J-50000D01*
G01*
X210474000Y-79090000D01*
G75*
G02*
X210424000Y-79140000I-50000J0D01*
G01*
X209824000Y-79140000D01*
G75*
G02*
X209774000Y-79090000I0J50000D01*
G01*
G37*
X211304000Y-78490000D03*
G36*
G01*
X209774000Y-76550000D02*
X209774000Y-75350000D01*
G75*
G02*
X209824000Y-75300000I50000J0D01*
G01*
X210424000Y-75300000D01*
G75*
G02*
X210474000Y-75350000I0J-50000D01*
G01*
X210474000Y-76550000D01*
G75*
G02*
X210424000Y-76600000I-50000J0D01*
G01*
X209824000Y-76600000D01*
G75*
G02*
X209774000Y-76550000I0J50000D01*
G01*
G37*
X211304000Y-75950000D03*
G36*
G01*
X209774000Y-74010000D02*
X209774000Y-72810000D01*
G75*
G02*
X209824000Y-72760000I50000J0D01*
G01*
X210424000Y-72760000D01*
G75*
G02*
X210474000Y-72810000I0J-50000D01*
G01*
X210474000Y-74010000D01*
G75*
G02*
X210424000Y-74060000I-50000J0D01*
G01*
X209824000Y-74060000D01*
G75*
G02*
X209774000Y-74010000I0J50000D01*
G01*
G37*
X211304000Y-73410000D03*
G36*
G01*
X209774000Y-71470000D02*
X209774000Y-70270000D01*
G75*
G02*
X209824000Y-70220000I50000J0D01*
G01*
X210424000Y-70220000D01*
G75*
G02*
X210474000Y-70270000I0J-50000D01*
G01*
X210474000Y-71470000D01*
G75*
G02*
X210424000Y-71520000I-50000J0D01*
G01*
X209824000Y-71520000D01*
G75*
G02*
X209774000Y-71470000I0J50000D01*
G01*
G37*
X211304000Y-70870000D03*
G36*
G01*
X209774000Y-68930000D02*
X209774000Y-67730000D01*
G75*
G02*
X209824000Y-67680000I50000J0D01*
G01*
X210424000Y-67680000D01*
G75*
G02*
X210474000Y-67730000I0J-50000D01*
G01*
X210474000Y-68930000D01*
G75*
G02*
X210424000Y-68980000I-50000J0D01*
G01*
X209824000Y-68980000D01*
G75*
G02*
X209774000Y-68930000I0J50000D01*
G01*
G37*
X211304000Y-68330000D03*
G36*
G01*
X209774000Y-66390000D02*
X209774000Y-65190000D01*
G75*
G02*
X209824000Y-65140000I50000J0D01*
G01*
X210424000Y-65140000D01*
G75*
G02*
X210474000Y-65190000I0J-50000D01*
G01*
X210474000Y-66390000D01*
G75*
G02*
X210424000Y-66440000I-50000J0D01*
G01*
X209824000Y-66440000D01*
G75*
G02*
X209774000Y-66390000I0J50000D01*
G01*
G37*
X211304000Y-65790000D03*
G36*
G01*
X209774000Y-63850000D02*
X209774000Y-62650000D01*
G75*
G02*
X209824000Y-62600000I50000J0D01*
G01*
X210424000Y-62600000D01*
G75*
G02*
X210474000Y-62650000I0J-50000D01*
G01*
X210474000Y-63850000D01*
G75*
G02*
X210424000Y-63900000I-50000J0D01*
G01*
X209824000Y-63900000D01*
G75*
G02*
X209774000Y-63850000I0J50000D01*
G01*
G37*
X211304000Y-63250000D03*
G36*
G01*
X209774000Y-61310000D02*
X209774000Y-60110000D01*
G75*
G02*
X209824000Y-60060000I50000J0D01*
G01*
X210424000Y-60060000D01*
G75*
G02*
X210474000Y-60110000I0J-50000D01*
G01*
X210474000Y-61310000D01*
G75*
G02*
X210424000Y-61360000I-50000J0D01*
G01*
X209824000Y-61360000D01*
G75*
G02*
X209774000Y-61310000I0J50000D01*
G01*
G37*
X211304000Y-60710000D03*
G36*
G01*
X209774000Y-58770000D02*
X209774000Y-57570000D01*
G75*
G02*
X209824000Y-57520000I50000J0D01*
G01*
X210424000Y-57520000D01*
G75*
G02*
X210474000Y-57570000I0J-50000D01*
G01*
X210474000Y-58770000D01*
G75*
G02*
X210424000Y-58820000I-50000J0D01*
G01*
X209824000Y-58820000D01*
G75*
G02*
X209774000Y-58770000I0J50000D01*
G01*
G37*
X211304000Y-58170000D03*
D13*
X170920000Y-57250000D03*
D14*
X173460000Y-52170000D03*
D15*
X176000000Y-57250000D03*
D14*
X179810000Y-54710000D03*
D13*
X181080000Y-57250000D03*
G36*
G01*
X181760000Y-55960000D02*
X181760000Y-53460000D01*
G75*
G02*
X181810000Y-53410000I50000J0D01*
G01*
X184360000Y-53410000D01*
G75*
G02*
X184410000Y-53460000I0J-50000D01*
G01*
X184410000Y-55960000D01*
G75*
G02*
X184360000Y-56010000I-50000J0D01*
G01*
X181810000Y-56010000D01*
G75*
G02*
X181760000Y-55960000I0J50000D01*
G01*
G37*
G36*
G01*
X168833000Y-53420000D02*
X168833000Y-50920000D01*
G75*
G02*
X168883000Y-50870000I50000J0D01*
G01*
X171433000Y-50870000D01*
G75*
G02*
X171483000Y-50920000I0J-50000D01*
G01*
X171483000Y-53420000D01*
G75*
G02*
X171433000Y-53470000I-50000J0D01*
G01*
X168883000Y-53470000D01*
G75*
G02*
X168833000Y-53420000I0J50000D01*
G01*
G37*
X151920000Y-54875000D03*
D14*
X154460000Y-49795000D03*
D15*
X157000000Y-54875000D03*
D14*
X160810000Y-52335000D03*
D13*
X162080000Y-54875000D03*
G36*
G01*
X162760000Y-53585000D02*
X162760000Y-51085000D01*
G75*
G02*
X162810000Y-51035000I50000J0D01*
G01*
X165360000Y-51035000D01*
G75*
G02*
X165410000Y-51085000I0J-50000D01*
G01*
X165410000Y-53585000D01*
G75*
G02*
X165360000Y-53635000I-50000J0D01*
G01*
X162810000Y-53635000D01*
G75*
G02*
X162760000Y-53585000I0J50000D01*
G01*
G37*
G36*
G01*
X149833000Y-51045000D02*
X149833000Y-48545000D01*
G75*
G02*
X149883000Y-48495000I50000J0D01*
G01*
X152433000Y-48495000D01*
G75*
G02*
X152483000Y-48545000I0J-50000D01*
G01*
X152483000Y-51045000D01*
G75*
G02*
X152433000Y-51095000I-50000J0D01*
G01*
X149883000Y-51095000D01*
G75*
G02*
X149833000Y-51045000I0J50000D01*
G01*
G37*
X113920000Y-81000000D03*
D14*
X116460000Y-75920000D03*
D15*
X119000000Y-81000000D03*
D14*
X122810000Y-78460000D03*
D13*
X124080000Y-81000000D03*
G36*
G01*
X124760000Y-79710000D02*
X124760000Y-77210000D01*
G75*
G02*
X124810000Y-77160000I50000J0D01*
G01*
X127360000Y-77160000D01*
G75*
G02*
X127410000Y-77210000I0J-50000D01*
G01*
X127410000Y-79710000D01*
G75*
G02*
X127360000Y-79760000I-50000J0D01*
G01*
X124810000Y-79760000D01*
G75*
G02*
X124760000Y-79710000I0J50000D01*
G01*
G37*
G36*
G01*
X111833000Y-77170000D02*
X111833000Y-74670000D01*
G75*
G02*
X111883000Y-74620000I50000J0D01*
G01*
X114433000Y-74620000D01*
G75*
G02*
X114483000Y-74670000I0J-50000D01*
G01*
X114483000Y-77170000D01*
G75*
G02*
X114433000Y-77220000I-50000J0D01*
G01*
X111883000Y-77220000D01*
G75*
G02*
X111833000Y-77170000I0J50000D01*
G01*
G37*
G36*
G01*
X169200000Y-58075000D02*
X168000000Y-58075000D01*
G75*
G02*
X167950000Y-58025000I0J50000D01*
G01*
X167950000Y-57125000D01*
G75*
G02*
X168000000Y-57075000I50000J0D01*
G01*
X169200000Y-57075000D01*
G75*
G02*
X169250000Y-57125000I0J-50000D01*
G01*
X169250000Y-58025000D01*
G75*
G02*
X169200000Y-58075000I-50000J0D01*
G01*
G37*
G36*
G01*
X169200000Y-54775000D02*
X168000000Y-54775000D01*
G75*
G02*
X167950000Y-54725000I0J50000D01*
G01*
X167950000Y-53825000D01*
G75*
G02*
X168000000Y-53775000I50000J0D01*
G01*
X169200000Y-53775000D01*
G75*
G02*
X169250000Y-53825000I0J-50000D01*
G01*
X169250000Y-54725000D01*
G75*
G02*
X169200000Y-54775000I-50000J0D01*
G01*
G37*
G36*
G01*
X188200000Y-79450000D02*
X187000000Y-79450000D01*
G75*
G02*
X186950000Y-79400000I0J50000D01*
G01*
X186950000Y-78500000D01*
G75*
G02*
X187000000Y-78450000I50000J0D01*
G01*
X188200000Y-78450000D01*
G75*
G02*
X188250000Y-78500000I0J-50000D01*
G01*
X188250000Y-79400000D01*
G75*
G02*
X188200000Y-79450000I-50000J0D01*
G01*
G37*
G36*
G01*
X188200000Y-76150000D02*
X187000000Y-76150000D01*
G75*
G02*
X186950000Y-76100000I0J50000D01*
G01*
X186950000Y-75200000D01*
G75*
G02*
X187000000Y-75150000I50000J0D01*
G01*
X188200000Y-75150000D01*
G75*
G02*
X188250000Y-75200000I0J-50000D01*
G01*
X188250000Y-76100000D01*
G75*
G02*
X188200000Y-76150000I-50000J0D01*
G01*
G37*
G36*
G01*
X112200000Y-81825000D02*
X111000000Y-81825000D01*
G75*
G02*
X110950000Y-81775000I0J50000D01*
G01*
X110950000Y-80875000D01*
G75*
G02*
X111000000Y-80825000I50000J0D01*
G01*
X112200000Y-80825000D01*
G75*
G02*
X112250000Y-80875000I0J-50000D01*
G01*
X112250000Y-81775000D01*
G75*
G02*
X112200000Y-81825000I-50000J0D01*
G01*
G37*
G36*
G01*
X112200000Y-78525000D02*
X111000000Y-78525000D01*
G75*
G02*
X110950000Y-78475000I0J50000D01*
G01*
X110950000Y-77575000D01*
G75*
G02*
X111000000Y-77525000I50000J0D01*
G01*
X112200000Y-77525000D01*
G75*
G02*
X112250000Y-77575000I0J-50000D01*
G01*
X112250000Y-78475000D01*
G75*
G02*
X112200000Y-78525000I-50000J0D01*
G01*
G37*
D20*
X207762000Y-100476000D03*
D13*
X151920000Y-92875000D03*
D14*
X153190000Y-90335000D03*
D15*
X157000000Y-92875000D03*
D14*
X159540000Y-87795000D03*
D13*
X162080000Y-92875000D03*
X161420000Y-114875000D03*
D14*
X162690000Y-112335000D03*
D15*
X166500000Y-114875000D03*
D14*
X169040000Y-109795000D03*
D13*
X171580000Y-114875000D03*
X113920000Y-100000000D03*
D14*
X115190000Y-97460000D03*
D15*
X119000000Y-100000000D03*
D14*
X121540000Y-94920000D03*
D13*
X124080000Y-100000000D03*
X207206800Y-125788609D03*
D14*
X205642095Y-123418757D03*
D15*
X209746800Y-121389200D03*
D14*
X206617391Y-116649495D03*
D13*
X212286800Y-116989791D03*
X132920000Y-57250000D03*
D14*
X134190000Y-54710000D03*
D15*
X138000000Y-57250000D03*
D14*
X140540000Y-52170000D03*
D13*
X143080000Y-57250000D03*
X170920000Y-76250000D03*
D14*
X172190000Y-73710000D03*
D15*
X176000000Y-76250000D03*
D14*
X178540000Y-71170000D03*
D13*
X181080000Y-76250000D03*
X132920000Y-76250000D03*
D14*
X134190000Y-73710000D03*
D15*
X138000000Y-76250000D03*
D14*
X140540000Y-71170000D03*
D13*
X143080000Y-76250000D03*
X151920000Y-54875000D03*
D14*
X153190000Y-52335000D03*
D15*
X157000000Y-54875000D03*
D14*
X159540000Y-49795000D03*
D13*
X162080000Y-54875000D03*
X94920000Y-62000000D03*
D14*
X96190000Y-59460000D03*
D15*
X100000000Y-62000000D03*
D14*
X102540000Y-56920000D03*
D13*
X105080000Y-62000000D03*
X189920000Y-97625000D03*
D14*
X191190000Y-95085000D03*
D15*
X195000000Y-97625000D03*
D14*
X197540000Y-92545000D03*
D13*
X200080000Y-97625000D03*
X170920000Y-95250000D03*
D14*
X172190000Y-92710000D03*
D15*
X176000000Y-95250000D03*
D14*
X178540000Y-90170000D03*
D13*
X181080000Y-95250000D03*
X94920000Y-81000000D03*
D14*
X96190000Y-78460000D03*
D15*
X100000000Y-81000000D03*
D14*
X102540000Y-75920000D03*
D13*
X105080000Y-81000000D03*
X132920000Y-95250000D03*
D14*
X134190000Y-92710000D03*
D15*
X138000000Y-95250000D03*
D14*
X140540000Y-90170000D03*
D13*
X143080000Y-95250000D03*
X94920000Y-100000000D03*
D14*
X96190000Y-97460000D03*
D15*
X100000000Y-100000000D03*
D14*
X102540000Y-94920000D03*
D13*
X105080000Y-100000000D03*
X113920000Y-81000000D03*
D14*
X115190000Y-78460000D03*
D15*
X119000000Y-81000000D03*
D14*
X121540000Y-75920000D03*
D13*
X124080000Y-81000000D03*
X189920000Y-78625000D03*
D14*
X191190000Y-76085000D03*
D15*
X195000000Y-78625000D03*
D14*
X197540000Y-73545000D03*
D13*
X200080000Y-78625000D03*
X151920000Y-73875000D03*
D14*
X153190000Y-71335000D03*
D15*
X157000000Y-73875000D03*
D14*
X159540000Y-68795000D03*
D13*
X162080000Y-73875000D03*
X189920000Y-59625000D03*
D14*
X191190000Y-57085000D03*
D15*
X195000000Y-59625000D03*
D14*
X197540000Y-54545000D03*
D13*
X200080000Y-59625000D03*
X182593097Y-116310199D03*
D14*
X184477223Y-114185448D03*
D15*
X187500000Y-117625000D03*
D14*
X191268252Y-113375497D03*
D13*
X192406903Y-118939801D03*
X170920000Y-57250000D03*
D14*
X172190000Y-54710000D03*
D15*
X176000000Y-57250000D03*
D14*
X178540000Y-52170000D03*
D13*
X181080000Y-57250000D03*
X113920000Y-62000000D03*
D14*
X115190000Y-59460000D03*
D15*
X119000000Y-62000000D03*
D14*
X121540000Y-56920000D03*
D13*
X124080000Y-62000000D03*
%LPD*%
M02*
