G04 #@! TF.GenerationSoftware,KiCad,Pcbnew,8.0.8+1*
G04 #@! TF.CreationDate,2025-07-08T12:52:23+00:00*
G04 #@! TF.ProjectId,corney_island_wireless_autorouted,636f726e-6579-45f6-9973-6c616e645f77,0.2*
G04 #@! TF.SameCoordinates,Original*
G04 #@! TF.FileFunction,Profile,NP*
%FSLAX46Y46*%
G04 Gerber Fmt 4.6, Leading zero omitted, Abs format (unit mm)*
G04 Created by KiCad (PCBNEW 8.0.8+1) date 2025-07-08 12:52:23*
%MOMM*%
%LPD*%
G01*
G04 APERTURE LIST*
G04 #@! TA.AperFunction,Profile*
%ADD10C,0.150000*%
G04 #@! TD*
G04 APERTURE END LIST*
D10*
X91580005Y-52989987D02*
X128580013Y-52989013D01*
X129580000Y-48240000D02*
X147580000Y-48240000D01*
X204082222Y-51237778D02*
X204082778Y-52490222D01*
X166082000Y-46488000D02*
X166082000Y-47740000D01*
X146585693Y-109240000D02*
X91581982Y-109240000D01*
X148080000Y-47740000D02*
X148080000Y-46488000D01*
X194938267Y-128822008D02*
X157772968Y-123977759D01*
X224766013Y-113567025D02*
X224518000Y-113996596D01*
X157433510Y-123776431D02*
X146989776Y-109445522D01*
X129080000Y-48740000D02*
G75*
G02*
X129580000Y-48240000I500000J0D01*
G01*
X210290510Y-137641397D02*
X195123642Y-128884802D01*
X148080000Y-47740000D02*
G75*
G02*
X147580000Y-48240000I-500000J0D01*
G01*
X224833000Y-53490000D02*
X224833000Y-113317025D01*
X184582000Y-48240000D02*
G75*
G02*
X185082000Y-48740000I0J-500000D01*
G01*
X129080000Y-52489013D02*
X129080000Y-48740000D01*
X185582000Y-50738000D02*
G75*
G02*
X185082000Y-50238000I0J500000D01*
G01*
X148580000Y-45988000D02*
X165582000Y-45988000D01*
X185582000Y-50738000D02*
X203582222Y-50738000D01*
X204582778Y-52990000D02*
G75*
G02*
X204082800Y-52490222I22J500000D01*
G01*
X194938267Y-128822008D02*
G75*
G02*
X195123640Y-128884805I-64767J-496192D01*
G01*
X148080000Y-46488000D02*
G75*
G02*
X148580000Y-45988000I500000J0D01*
G01*
X204582778Y-52990000D02*
X224333000Y-52990000D01*
X91080018Y-53490005D02*
G75*
G02*
X91580005Y-52989918I500082J5D01*
G01*
X129080000Y-52489013D02*
G75*
G02*
X128580013Y-52989000I-500000J13D01*
G01*
X166582000Y-48240000D02*
G75*
G02*
X166082000Y-47740000I0J500000D01*
G01*
X224333000Y-52990000D02*
G75*
G02*
X224833000Y-53490000I0J-500000D01*
G01*
X224833000Y-113317025D02*
G75*
G02*
X224766025Y-113567032I-500200J25D01*
G01*
X166582000Y-48240000D02*
X184582000Y-48240000D01*
X210973532Y-137458367D02*
G75*
G02*
X210290501Y-137641413I-433032J249967D01*
G01*
X203582222Y-50738000D02*
G75*
G02*
X204082200Y-51237778I-22J-500000D01*
G01*
X185082000Y-48740000D02*
X185082000Y-50238000D01*
X91581982Y-109240000D02*
G75*
G02*
X91082000Y-108740018I18J500000D01*
G01*
X146585693Y-109240000D02*
G75*
G02*
X146989780Y-109445519I7J-500000D01*
G01*
X157772968Y-123977759D02*
G75*
G02*
X157433529Y-123776417I64632J495759D01*
G01*
X91081982Y-108740018D02*
X91080018Y-53490005D01*
X224518000Y-113996596D02*
X210973532Y-137458367D01*
X165582000Y-45988000D02*
G75*
G02*
X166082000Y-46488000I0J-500000D01*
G01*
M02*
