G04 #@! TF.GenerationSoftware,KiCad,Pcbnew,8.0.8+1*
G04 #@! TF.CreationDate,2025-07-09T04:58:13+00:00*
G04 #@! TF.ProjectId,corney_island_wireless,636f726e-6579-45f6-9973-6c616e645f77,0.2*
G04 #@! TF.SameCoordinates,Original*
G04 #@! TF.FileFunction,Profile,NP*
%FSLAX46Y46*%
G04 Gerber Fmt 4.6, Leading zero omitted, Abs format (unit mm)*
G04 Created by KiCad (PCBNEW 8.0.8+1) date 2025-07-09 04:58:13*
%MOMM*%
%LPD*%
G01*
G04 APERTURE LIST*
G04 #@! TA.AperFunction,Profile*
%ADD10C,0.150000*%
G04 #@! TD*
G04 APERTURE END LIST*
D10*
X91316981Y-108012450D02*
X91315019Y-57202506D01*
X91815006Y-56702486D02*
X127815014Y-56701514D01*
X128315000Y-56201514D02*
X128315000Y-52827500D01*
X128815000Y-52327500D02*
X146315000Y-52327500D01*
X146815000Y-51827500D02*
X146815000Y-50752500D01*
X147315000Y-50252500D02*
X163843000Y-50252500D01*
X164343000Y-50752500D02*
X164343000Y-51827500D01*
X164843000Y-52327500D02*
X182343000Y-52327500D01*
X182843000Y-52827500D02*
X182843000Y-54123122D01*
X183342878Y-54623122D02*
X200837063Y-54627377D01*
X201336905Y-55133401D02*
X201324097Y-56196476D01*
X221253000Y-112909096D02*
X207799933Y-135723804D01*
X207119235Y-135902849D02*
X193184927Y-127857872D01*
X193008466Y-127796322D02*
X156246981Y-122330034D01*
X155921790Y-122137157D02*
X145757574Y-108703349D01*
X145358774Y-108505034D02*
X91817050Y-108512431D01*
X201824060Y-56702500D02*
X221068000Y-56702500D01*
X221568000Y-57202500D02*
X221568000Y-112229525D01*
X221501013Y-112479525D02*
X221253000Y-112909096D01*
X91315019Y-57202506D02*
G75*
G02*
X91815006Y-56702519I499981J6D01*
G01*
X128315000Y-56201514D02*
G75*
G02*
X127815013Y-56701500I-500000J14D01*
G01*
X128315000Y-52827500D02*
G75*
G02*
X128815000Y-52327500I500000J0D01*
G01*
X146815000Y-51827500D02*
G75*
G02*
X146315000Y-52327500I-500000J0D01*
G01*
X146815000Y-50752500D02*
G75*
G02*
X147315000Y-50252500I500000J0D01*
G01*
X163843000Y-50252500D02*
G75*
G02*
X164343000Y-50752500I0J-500000D01*
G01*
X164843000Y-52327500D02*
G75*
G02*
X164343000Y-51827500I0J500000D01*
G01*
X182343000Y-52327500D02*
G75*
G02*
X182843000Y-52827500I0J-500000D01*
G01*
X183342878Y-54623122D02*
G75*
G02*
X182842978Y-54123122I122J500022D01*
G01*
X200837063Y-54627377D02*
G75*
G02*
X201336887Y-55133401I-163J-500023D01*
G01*
X201824060Y-56702500D02*
G75*
G02*
X201324136Y-56196476I40J500000D01*
G01*
X221068000Y-56702500D02*
G75*
G02*
X221568000Y-57202500I0J-500000D01*
G01*
X221568000Y-112229525D02*
G75*
G02*
X221501002Y-112479519I-500000J25D01*
G01*
X207799933Y-135723804D02*
G75*
G02*
X207119217Y-135902879I-430733J254004D01*
G01*
X193008466Y-127796322D02*
G75*
G02*
X193184923Y-127857878I-73566J-494578D01*
G01*
X156246981Y-122330034D02*
G75*
G02*
X155921788Y-122137158I73519J494534D01*
G01*
X145358774Y-108505034D02*
G75*
G02*
X145757536Y-108703378I26J-499966D01*
G01*
X91817050Y-108512431D02*
G75*
G02*
X91316969Y-108012450I-50J500031D01*
G01*
M02*
