M48
; DRILL file {KiCad 8.0.8+1} date 2025-07-09T04:58:13+0000
; FORMAT={-:-/ absolute / metric / decimal}
; #@! TF.CreationDate,2025-07-09T04:58:13+00:00
; #@! TF.GenerationSoftware,Kicad,Pcbnew,8.0.8+1
; #@! TF.FileFunction,Plated,1,2,PTH
FMAT,2
METRIC
; #@! TA.AperFunction,Plated,PTH,ComponentDrill
T1C0.400
; #@! TA.AperFunction,Plated,PTH,ComponentDrill
T2C0.750
; #@! TA.AperFunction,Plated,PTH,ComponentDrill
T3C1.000
; #@! TA.AperFunction,Plated,PTH,ComponentDrill
T4C1.600
%
G90
G05
T1
X208.804Y-61.92
X208.804Y-64.46
X208.804Y-67.0
X208.804Y-69.54
X208.804Y-72.08
X208.804Y-74.62
X208.804Y-77.16
X208.804Y-79.7
X208.804Y-82.24
X208.804Y-84.78
X208.804Y-87.32
X208.804Y-89.86
X215.604Y-61.92
X215.604Y-64.46
X215.604Y-67.0
X215.604Y-69.54
X215.604Y-72.08
X215.604Y-74.62
X215.604Y-77.16
X215.604Y-79.7
X215.604Y-82.24
X215.604Y-84.78
X215.604Y-87.32
X215.604Y-89.86
T2
X209.0Y-100.5
X209.0Y-102.5
T3
X204.584Y-61.92
X204.584Y-64.46
X204.584Y-67.0
X204.584Y-69.54
X204.584Y-72.08
X204.584Y-74.62
X204.584Y-77.16
X204.584Y-79.7
X204.584Y-82.24
X204.584Y-84.78
X204.584Y-87.32
X204.584Y-89.86
X206.817Y-93.7
X209.357Y-93.7
X211.897Y-93.7
X214.437Y-93.7
X216.977Y-93.7
X219.824Y-61.92
X219.824Y-64.46
X219.824Y-67.0
X219.824Y-69.54
X219.824Y-72.08
X219.824Y-74.62
X219.824Y-77.16
X219.824Y-79.7
X219.824Y-82.24
X219.824Y-84.78
X219.824Y-87.32
X219.824Y-89.86
T4
X95.0Y-59.85
X95.0Y-77.35
X95.0Y-94.85
X105.0Y-59.85
X105.0Y-77.35
X105.0Y-94.85
X113.5Y-59.85
X113.5Y-77.35
X113.5Y-94.85
X123.5Y-59.85
X123.5Y-77.35
X123.5Y-94.85
X132.0Y-55.475
X132.0Y-72.975
X132.0Y-90.475
X142.0Y-55.475
X142.0Y-72.975
X142.0Y-90.475
X150.5Y-53.287
X150.5Y-70.787
X150.5Y-88.287
X159.75Y-108.787
X160.5Y-53.287
X160.5Y-70.787
X160.5Y-88.287
X169.0Y-55.475
X169.0Y-72.975
X169.0Y-90.475
X169.75Y-108.787
X179.0Y-55.475
X179.0Y-72.975
X179.0Y-90.475
X181.753Y-110.419
X187.5Y-57.662
X187.5Y-75.162
X187.5Y-92.662
X191.413Y-113.007
X197.5Y-57.662
X197.5Y-75.162
X197.5Y-92.662
X200.054Y-122.077
X205.054Y-113.417
M30
