%TF.GenerationSoftware,KiCad,Pcbnew,8.0.8+1*%
%TF.CreationDate,2025-07-09T06:01:49+00:00*%
%TF.ProjectId,corney_island_wireless,636f726e-6579-45f6-9973-6c616e645f77,0.2*%
%TF.SameCoordinates,Original*%
%TF.FileFunction,Drillmap*%
%TF.FilePolarity,Positive*%
%FSLAX45Y45*%
G04 Gerber Fmt 4.5, Leading zero omitted, Abs format (unit mm)*
G04 Created by KiCad (PCBNEW 8.0.8+1) date 2025-07-09 06:01:49*
%MOMM*%
%LPD*%
G01*
G04 APERTURE LIST*
%ADD10C,0.150000*%
%ADD11C,0.200000*%
%ADD12C,0.100000*%
%ADD13C,0.160000*%
G04 APERTURE END LIST*
D10*
X9131698Y-10801245D02*
X9131502Y-5720251D01*
X9181501Y-5670249D02*
X12781501Y-5670151D01*
X12831500Y-5620151D02*
X12831500Y-5282750D01*
X12881500Y-5232750D02*
X14631500Y-5232750D01*
X14681500Y-5182750D02*
X14681500Y-5075250D01*
X14731500Y-5025250D02*
X16384300Y-5025250D01*
X16434300Y-5075250D02*
X16434300Y-5182750D01*
X16484300Y-5232750D02*
X18234300Y-5232750D01*
X18284300Y-5282750D02*
X18284300Y-5412312D01*
X18334288Y-5462312D02*
X20083706Y-5462738D01*
X20133691Y-5513340D02*
X20132410Y-5619648D01*
X22125300Y-11290910D02*
X20779993Y-13572380D01*
X20711924Y-13590285D02*
X19318493Y-12785787D01*
X19300847Y-12779632D02*
X15624698Y-12233003D01*
X15592179Y-12213716D02*
X14575757Y-10870335D01*
X14535877Y-10850503D02*
X9181705Y-10851243D01*
X20182406Y-5670250D02*
X22106800Y-5670250D01*
X22156800Y-5720250D02*
X22156800Y-11222952D01*
X22150101Y-11247952D02*
X22125300Y-11290910D01*
X9131502Y-5720251D02*
G75*
G02*
X9181501Y-5670252I49998J1D01*
G01*
X12831500Y-5620151D02*
G75*
G02*
X12781501Y-5670150I-50000J1D01*
G01*
X12831500Y-5282750D02*
G75*
G02*
X12881500Y-5232750I50000J0D01*
G01*
X14681500Y-5182750D02*
G75*
G02*
X14631500Y-5232750I-50000J0D01*
G01*
X14681500Y-5075250D02*
G75*
G02*
X14731500Y-5025250I50000J0D01*
G01*
X16384300Y-5025250D02*
G75*
G02*
X16434300Y-5075250I0J-50000D01*
G01*
X16484300Y-5232750D02*
G75*
G02*
X16434300Y-5182750I0J50000D01*
G01*
X18234300Y-5232750D02*
G75*
G02*
X18284300Y-5282750I0J-50000D01*
G01*
X18334288Y-5462312D02*
G75*
G02*
X18284298Y-5412312I12J50002D01*
G01*
X20083706Y-5462738D02*
G75*
G02*
X20133689Y-5513340I-16J-50002D01*
G01*
X20182406Y-5670250D02*
G75*
G02*
X20132414Y-5619648I4J50000D01*
G01*
X22106800Y-5670250D02*
G75*
G02*
X22156800Y-5720250I0J-50000D01*
G01*
X22156800Y-11222952D02*
G75*
G02*
X22150100Y-11247952I-50000J3D01*
G01*
X20779993Y-13572380D02*
G75*
G02*
X20711922Y-13590288I-43073J25400D01*
G01*
X19300847Y-12779632D02*
G75*
G02*
X19318492Y-12785788I-7357J-49458D01*
G01*
X15624698Y-12233003D02*
G75*
G02*
X15592179Y-12213716I7352J49453D01*
G01*
X14535877Y-10850503D02*
G75*
G02*
X14575754Y-10870338I3J-49997D01*
G01*
X9181705Y-10851243D02*
G75*
G02*
X9131697Y-10801245I-5J50003D01*
G01*
D11*
D12*
X20860400Y-6172000D02*
X20900400Y-6212000D01*
X20900400Y-6172000D02*
X20860400Y-6212000D01*
X20860400Y-6426000D02*
X20900400Y-6466000D01*
X20900400Y-6426000D02*
X20860400Y-6466000D01*
X20860400Y-6680000D02*
X20900400Y-6720000D01*
X20900400Y-6680000D02*
X20860400Y-6720000D01*
X20860400Y-6934000D02*
X20900400Y-6974000D01*
X20900400Y-6934000D02*
X20860400Y-6974000D01*
X20860400Y-7188000D02*
X20900400Y-7228000D01*
X20900400Y-7188000D02*
X20860400Y-7228000D01*
X20860400Y-7442000D02*
X20900400Y-7482000D01*
X20900400Y-7442000D02*
X20860400Y-7482000D01*
X20860400Y-7696000D02*
X20900400Y-7736000D01*
X20900400Y-7696000D02*
X20860400Y-7736000D01*
X20860400Y-7950000D02*
X20900400Y-7990000D01*
X20900400Y-7950000D02*
X20860400Y-7990000D01*
X20860400Y-8204000D02*
X20900400Y-8244000D01*
X20900400Y-8204000D02*
X20860400Y-8244000D01*
X20860400Y-8458000D02*
X20900400Y-8498000D01*
X20900400Y-8458000D02*
X20860400Y-8498000D01*
X20860400Y-8712000D02*
X20900400Y-8752000D01*
X20900400Y-8712000D02*
X20860400Y-8752000D01*
X20860400Y-8966000D02*
X20900400Y-9006000D01*
X20900400Y-8966000D02*
X20860400Y-9006000D01*
X21540400Y-6172000D02*
X21580400Y-6212000D01*
X21580400Y-6172000D02*
X21540400Y-6212000D01*
X21540400Y-6426000D02*
X21580400Y-6466000D01*
X21580400Y-6426000D02*
X21540400Y-6466000D01*
X21540400Y-6680000D02*
X21580400Y-6720000D01*
X21580400Y-6680000D02*
X21540400Y-6720000D01*
X21540400Y-6934000D02*
X21580400Y-6974000D01*
X21580400Y-6934000D02*
X21540400Y-6974000D01*
X21540400Y-7188000D02*
X21580400Y-7228000D01*
X21580400Y-7188000D02*
X21540400Y-7228000D01*
X21540400Y-7442000D02*
X21580400Y-7482000D01*
X21580400Y-7442000D02*
X21540400Y-7482000D01*
X21540400Y-7696000D02*
X21580400Y-7736000D01*
X21580400Y-7696000D02*
X21540400Y-7736000D01*
X21540400Y-7950000D02*
X21580400Y-7990000D01*
X21580400Y-7950000D02*
X21540400Y-7990000D01*
X21540400Y-8204000D02*
X21580400Y-8244000D01*
X21580400Y-8204000D02*
X21540400Y-8244000D01*
X21540400Y-8458000D02*
X21580400Y-8498000D01*
X21580400Y-8458000D02*
X21540400Y-8498000D01*
X21540400Y-8712000D02*
X21580400Y-8752000D01*
X21580400Y-8712000D02*
X21540400Y-8752000D01*
X21540400Y-8966000D02*
X21580400Y-9006000D01*
X21580400Y-8966000D02*
X21540400Y-9006000D01*
X20937500Y-10050000D02*
G75*
G02*
X20862500Y-10050000I-37500J0D01*
G01*
X20862500Y-10050000D02*
G75*
G02*
X20937500Y-10050000I37500J0D01*
G01*
X20937500Y-10250000D02*
G75*
G02*
X20862500Y-10250000I-37500J0D01*
G01*
X20862500Y-10250000D02*
G75*
G02*
X20937500Y-10250000I37500J0D01*
G01*
X20458400Y-6142000D02*
X20458400Y-6242000D01*
X20408400Y-6192000D02*
X20508400Y-6192000D01*
X20458400Y-6396000D02*
X20458400Y-6496000D01*
X20408400Y-6446000D02*
X20508400Y-6446000D01*
X20458400Y-6650000D02*
X20458400Y-6750000D01*
X20408400Y-6700000D02*
X20508400Y-6700000D01*
X20458400Y-6904000D02*
X20458400Y-7004000D01*
X20408400Y-6954000D02*
X20508400Y-6954000D01*
X20458400Y-7158000D02*
X20458400Y-7258000D01*
X20408400Y-7208000D02*
X20508400Y-7208000D01*
X20458400Y-7412000D02*
X20458400Y-7512000D01*
X20408400Y-7462000D02*
X20508400Y-7462000D01*
X20458400Y-7666000D02*
X20458400Y-7766000D01*
X20408400Y-7716000D02*
X20508400Y-7716000D01*
X20458400Y-7920000D02*
X20458400Y-8020000D01*
X20408400Y-7970000D02*
X20508400Y-7970000D01*
X20458400Y-8174000D02*
X20458400Y-8274000D01*
X20408400Y-8224000D02*
X20508400Y-8224000D01*
X20458400Y-8428000D02*
X20458400Y-8528000D01*
X20408400Y-8478000D02*
X20508400Y-8478000D01*
X20458400Y-8682000D02*
X20458400Y-8782000D01*
X20408400Y-8732000D02*
X20508400Y-8732000D01*
X20458400Y-8936000D02*
X20458400Y-9036000D01*
X20408400Y-8986000D02*
X20508400Y-8986000D01*
X20681700Y-9320000D02*
X20681700Y-9420000D01*
X20631700Y-9370000D02*
X20731700Y-9370000D01*
X20935700Y-9320000D02*
X20935700Y-9420000D01*
X20885700Y-9370000D02*
X20985700Y-9370000D01*
X21189700Y-9320000D02*
X21189700Y-9420000D01*
X21139700Y-9370000D02*
X21239700Y-9370000D01*
X21443700Y-9320000D02*
X21443700Y-9420000D01*
X21393700Y-9370000D02*
X21493700Y-9370000D01*
X21697700Y-9320000D02*
X21697700Y-9420000D01*
X21647700Y-9370000D02*
X21747700Y-9370000D01*
X21982400Y-6142000D02*
X21982400Y-6242000D01*
X21932400Y-6192000D02*
X22032400Y-6192000D01*
X21982400Y-6396000D02*
X21982400Y-6496000D01*
X21932400Y-6446000D02*
X22032400Y-6446000D01*
X21982400Y-6650000D02*
X21982400Y-6750000D01*
X21932400Y-6700000D02*
X22032400Y-6700000D01*
X21982400Y-6904000D02*
X21982400Y-7004000D01*
X21932400Y-6954000D02*
X22032400Y-6954000D01*
X21982400Y-7158000D02*
X21982400Y-7258000D01*
X21932400Y-7208000D02*
X22032400Y-7208000D01*
X21982400Y-7412000D02*
X21982400Y-7512000D01*
X21932400Y-7462000D02*
X22032400Y-7462000D01*
X21982400Y-7666000D02*
X21982400Y-7766000D01*
X21932400Y-7716000D02*
X22032400Y-7716000D01*
X21982400Y-7920000D02*
X21982400Y-8020000D01*
X21932400Y-7970000D02*
X22032400Y-7970000D01*
X21982400Y-8174000D02*
X21982400Y-8274000D01*
X21932400Y-8224000D02*
X22032400Y-8224000D01*
X21982400Y-8428000D02*
X21982400Y-8528000D01*
X21932400Y-8478000D02*
X22032400Y-8478000D01*
X21982400Y-8682000D02*
X21982400Y-8782000D01*
X21932400Y-8732000D02*
X22032400Y-8732000D01*
X21982400Y-8936000D02*
X21982400Y-9036000D01*
X21932400Y-8986000D02*
X22032400Y-8986000D01*
D13*
X9556569Y-6041569D02*
X9556569Y-5928431D01*
X9443431Y-5928431D01*
X9443431Y-6041569D01*
X9556569Y-6041569D01*
X9556569Y-7791569D02*
X9556569Y-7678431D01*
X9443431Y-7678431D01*
X9443431Y-7791569D01*
X9556569Y-7791569D01*
X9556569Y-9541569D02*
X9556569Y-9428431D01*
X9443431Y-9428431D01*
X9443431Y-9541569D01*
X9556569Y-9541569D01*
X10556569Y-6041569D02*
X10556569Y-5928431D01*
X10443431Y-5928431D01*
X10443431Y-6041569D01*
X10556569Y-6041569D01*
X10556569Y-7791569D02*
X10556569Y-7678431D01*
X10443431Y-7678431D01*
X10443431Y-7791569D01*
X10556569Y-7791569D01*
X10556569Y-9541569D02*
X10556569Y-9428431D01*
X10443431Y-9428431D01*
X10443431Y-9541569D01*
X10556569Y-9541569D01*
X11406569Y-6041569D02*
X11406569Y-5928431D01*
X11293431Y-5928431D01*
X11293431Y-6041569D01*
X11406569Y-6041569D01*
X11406569Y-7791569D02*
X11406569Y-7678431D01*
X11293431Y-7678431D01*
X11293431Y-7791569D01*
X11406569Y-7791569D01*
X11406569Y-9541569D02*
X11406569Y-9428431D01*
X11293431Y-9428431D01*
X11293431Y-9541569D01*
X11406569Y-9541569D01*
X12406569Y-6041569D02*
X12406569Y-5928431D01*
X12293431Y-5928431D01*
X12293431Y-6041569D01*
X12406569Y-6041569D01*
X12406569Y-7791569D02*
X12406569Y-7678431D01*
X12293431Y-7678431D01*
X12293431Y-7791569D01*
X12406569Y-7791569D01*
X12406569Y-9541569D02*
X12406569Y-9428431D01*
X12293431Y-9428431D01*
X12293431Y-9541569D01*
X12406569Y-9541569D01*
X13256569Y-5604069D02*
X13256569Y-5490931D01*
X13143431Y-5490931D01*
X13143431Y-5604069D01*
X13256569Y-5604069D01*
X13256569Y-7354069D02*
X13256569Y-7240931D01*
X13143431Y-7240931D01*
X13143431Y-7354069D01*
X13256569Y-7354069D01*
X13256569Y-9104069D02*
X13256569Y-8990931D01*
X13143431Y-8990931D01*
X13143431Y-9104069D01*
X13256569Y-9104069D01*
X14256569Y-5604069D02*
X14256569Y-5490931D01*
X14143431Y-5490931D01*
X14143431Y-5604069D01*
X14256569Y-5604069D01*
X14256569Y-7354069D02*
X14256569Y-7240931D01*
X14143431Y-7240931D01*
X14143431Y-7354069D01*
X14256569Y-7354069D01*
X14256569Y-9104069D02*
X14256569Y-8990931D01*
X14143431Y-8990931D01*
X14143431Y-9104069D01*
X14256569Y-9104069D01*
X15106569Y-5385319D02*
X15106569Y-5272181D01*
X14993431Y-5272181D01*
X14993431Y-5385319D01*
X15106569Y-5385319D01*
X15106569Y-7135319D02*
X15106569Y-7022181D01*
X14993431Y-7022181D01*
X14993431Y-7135319D01*
X15106569Y-7135319D01*
X15106569Y-8885319D02*
X15106569Y-8772181D01*
X14993431Y-8772181D01*
X14993431Y-8885319D01*
X15106569Y-8885319D01*
X16031569Y-10935319D02*
X16031569Y-10822181D01*
X15918431Y-10822181D01*
X15918431Y-10935319D01*
X16031569Y-10935319D01*
X16106569Y-5385319D02*
X16106569Y-5272181D01*
X15993431Y-5272181D01*
X15993431Y-5385319D01*
X16106569Y-5385319D01*
X16106569Y-7135319D02*
X16106569Y-7022181D01*
X15993431Y-7022181D01*
X15993431Y-7135319D01*
X16106569Y-7135319D01*
X16106569Y-8885319D02*
X16106569Y-8772181D01*
X15993431Y-8772181D01*
X15993431Y-8885319D01*
X16106569Y-8885319D01*
X16956569Y-5604069D02*
X16956569Y-5490931D01*
X16843431Y-5490931D01*
X16843431Y-5604069D01*
X16956569Y-5604069D01*
X16956569Y-7354069D02*
X16956569Y-7240931D01*
X16843431Y-7240931D01*
X16843431Y-7354069D01*
X16956569Y-7354069D01*
X16956569Y-9104069D02*
X16956569Y-8990931D01*
X16843431Y-8990931D01*
X16843431Y-9104069D01*
X16956569Y-9104069D01*
X17031569Y-10935319D02*
X17031569Y-10822181D01*
X16918431Y-10822181D01*
X16918431Y-10935319D01*
X17031569Y-10935319D01*
X17956569Y-5604069D02*
X17956569Y-5490931D01*
X17843431Y-5490931D01*
X17843431Y-5604069D01*
X17956569Y-5604069D01*
X17956569Y-7354069D02*
X17956569Y-7240931D01*
X17843431Y-7240931D01*
X17843431Y-7354069D01*
X17956569Y-7354069D01*
X17956569Y-9104069D02*
X17956569Y-8990931D01*
X17843431Y-8990931D01*
X17843431Y-9104069D01*
X17956569Y-9104069D01*
X18231898Y-11098458D02*
X18231898Y-10985320D01*
X18118760Y-10985320D01*
X18118760Y-11098458D01*
X18231898Y-11098458D01*
X18806569Y-5822819D02*
X18806569Y-5709681D01*
X18693431Y-5709681D01*
X18693431Y-5822819D01*
X18806569Y-5822819D01*
X18806569Y-7572819D02*
X18806569Y-7459681D01*
X18693431Y-7459681D01*
X18693431Y-7572819D01*
X18806569Y-7572819D01*
X18806569Y-9322819D02*
X18806569Y-9209681D01*
X18693431Y-9209681D01*
X18693431Y-9322819D01*
X18806569Y-9322819D01*
X19197824Y-11357277D02*
X19197824Y-11244139D01*
X19084686Y-11244139D01*
X19084686Y-11357277D01*
X19197824Y-11357277D01*
X19806569Y-5822819D02*
X19806569Y-5709681D01*
X19693431Y-5709681D01*
X19693431Y-5822819D01*
X19806569Y-5822819D01*
X19806569Y-7572819D02*
X19806569Y-7459681D01*
X19693431Y-7459681D01*
X19693431Y-7572819D01*
X19806569Y-7572819D01*
X19806569Y-9322819D02*
X19806569Y-9209681D01*
X19693431Y-9209681D01*
X19693431Y-9322819D01*
X19806569Y-9322819D01*
X20061950Y-12264307D02*
X20061950Y-12151168D01*
X19948812Y-12151168D01*
X19948812Y-12264307D01*
X20061950Y-12264307D01*
X20561950Y-11398281D02*
X20561950Y-11285143D01*
X20448812Y-11285143D01*
X20448812Y-11398281D01*
X20561950Y-11398281D01*
D11*
X9384779Y-13915969D02*
X9384779Y-13715969D01*
X9384779Y-13715969D02*
X9432398Y-13715969D01*
X9432398Y-13715969D02*
X9460969Y-13725492D01*
X9460969Y-13725492D02*
X9480017Y-13744540D01*
X9480017Y-13744540D02*
X9489541Y-13763588D01*
X9489541Y-13763588D02*
X9499064Y-13801683D01*
X9499064Y-13801683D02*
X9499064Y-13830254D01*
X9499064Y-13830254D02*
X9489541Y-13868350D01*
X9489541Y-13868350D02*
X9480017Y-13887397D01*
X9480017Y-13887397D02*
X9460969Y-13906445D01*
X9460969Y-13906445D02*
X9432398Y-13915969D01*
X9432398Y-13915969D02*
X9384779Y-13915969D01*
X9584779Y-13915969D02*
X9584779Y-13782635D01*
X9584779Y-13820731D02*
X9594303Y-13801683D01*
X9594303Y-13801683D02*
X9603826Y-13792159D01*
X9603826Y-13792159D02*
X9622874Y-13782635D01*
X9622874Y-13782635D02*
X9641922Y-13782635D01*
X9708588Y-13915969D02*
X9708588Y-13782635D01*
X9708588Y-13715969D02*
X9699064Y-13725492D01*
X9699064Y-13725492D02*
X9708588Y-13735016D01*
X9708588Y-13735016D02*
X9718112Y-13725492D01*
X9718112Y-13725492D02*
X9708588Y-13715969D01*
X9708588Y-13715969D02*
X9708588Y-13735016D01*
X9832398Y-13915969D02*
X9813350Y-13906445D01*
X9813350Y-13906445D02*
X9803826Y-13887397D01*
X9803826Y-13887397D02*
X9803826Y-13715969D01*
X9937160Y-13915969D02*
X9918112Y-13906445D01*
X9918112Y-13906445D02*
X9908588Y-13887397D01*
X9908588Y-13887397D02*
X9908588Y-13715969D01*
X10165731Y-13915969D02*
X10165731Y-13715969D01*
X10165731Y-13715969D02*
X10232398Y-13858826D01*
X10232398Y-13858826D02*
X10299064Y-13715969D01*
X10299064Y-13715969D02*
X10299064Y-13915969D01*
X10480017Y-13915969D02*
X10480017Y-13811207D01*
X10480017Y-13811207D02*
X10470493Y-13792159D01*
X10470493Y-13792159D02*
X10451445Y-13782635D01*
X10451445Y-13782635D02*
X10413350Y-13782635D01*
X10413350Y-13782635D02*
X10394303Y-13792159D01*
X10480017Y-13906445D02*
X10460969Y-13915969D01*
X10460969Y-13915969D02*
X10413350Y-13915969D01*
X10413350Y-13915969D02*
X10394303Y-13906445D01*
X10394303Y-13906445D02*
X10384779Y-13887397D01*
X10384779Y-13887397D02*
X10384779Y-13868350D01*
X10384779Y-13868350D02*
X10394303Y-13849302D01*
X10394303Y-13849302D02*
X10413350Y-13839778D01*
X10413350Y-13839778D02*
X10460969Y-13839778D01*
X10460969Y-13839778D02*
X10480017Y-13830254D01*
X10575255Y-13782635D02*
X10575255Y-13982635D01*
X10575255Y-13792159D02*
X10594303Y-13782635D01*
X10594303Y-13782635D02*
X10632398Y-13782635D01*
X10632398Y-13782635D02*
X10651445Y-13792159D01*
X10651445Y-13792159D02*
X10660969Y-13801683D01*
X10660969Y-13801683D02*
X10670493Y-13820731D01*
X10670493Y-13820731D02*
X10670493Y-13877873D01*
X10670493Y-13877873D02*
X10660969Y-13896921D01*
X10660969Y-13896921D02*
X10651445Y-13906445D01*
X10651445Y-13906445D02*
X10632398Y-13915969D01*
X10632398Y-13915969D02*
X10594303Y-13915969D01*
X10594303Y-13915969D02*
X10575255Y-13906445D01*
X10756207Y-13896921D02*
X10765731Y-13906445D01*
X10765731Y-13906445D02*
X10756207Y-13915969D01*
X10756207Y-13915969D02*
X10746684Y-13906445D01*
X10746684Y-13906445D02*
X10756207Y-13896921D01*
X10756207Y-13896921D02*
X10756207Y-13915969D01*
X10756207Y-13792159D02*
X10765731Y-13801683D01*
X10765731Y-13801683D02*
X10756207Y-13811207D01*
X10756207Y-13811207D02*
X10746684Y-13801683D01*
X10746684Y-13801683D02*
X10756207Y-13792159D01*
X10756207Y-13792159D02*
X10756207Y-13811207D01*
D12*
X9084002Y-14224485D02*
X9124002Y-14264485D01*
X9124002Y-14224485D02*
X9084002Y-14264485D01*
D11*
X9422874Y-14135969D02*
X9441922Y-14135969D01*
X9441922Y-14135969D02*
X9460969Y-14145492D01*
X9460969Y-14145492D02*
X9470493Y-14155016D01*
X9470493Y-14155016D02*
X9480017Y-14174064D01*
X9480017Y-14174064D02*
X9489541Y-14212159D01*
X9489541Y-14212159D02*
X9489541Y-14259778D01*
X9489541Y-14259778D02*
X9480017Y-14297873D01*
X9480017Y-14297873D02*
X9470493Y-14316921D01*
X9470493Y-14316921D02*
X9460969Y-14326445D01*
X9460969Y-14326445D02*
X9441922Y-14335969D01*
X9441922Y-14335969D02*
X9422874Y-14335969D01*
X9422874Y-14335969D02*
X9403826Y-14326445D01*
X9403826Y-14326445D02*
X9394303Y-14316921D01*
X9394303Y-14316921D02*
X9384779Y-14297873D01*
X9384779Y-14297873D02*
X9375255Y-14259778D01*
X9375255Y-14259778D02*
X9375255Y-14212159D01*
X9375255Y-14212159D02*
X9384779Y-14174064D01*
X9384779Y-14174064D02*
X9394303Y-14155016D01*
X9394303Y-14155016D02*
X9403826Y-14145492D01*
X9403826Y-14145492D02*
X9422874Y-14135969D01*
X9575255Y-14316921D02*
X9584779Y-14326445D01*
X9584779Y-14326445D02*
X9575255Y-14335969D01*
X9575255Y-14335969D02*
X9565731Y-14326445D01*
X9565731Y-14326445D02*
X9575255Y-14316921D01*
X9575255Y-14316921D02*
X9575255Y-14335969D01*
X9756207Y-14202635D02*
X9756207Y-14335969D01*
X9708588Y-14126445D02*
X9660969Y-14269302D01*
X9660969Y-14269302D02*
X9784779Y-14269302D01*
X9899064Y-14135969D02*
X9918112Y-14135969D01*
X9918112Y-14135969D02*
X9937160Y-14145492D01*
X9937160Y-14145492D02*
X9946684Y-14155016D01*
X9946684Y-14155016D02*
X9956207Y-14174064D01*
X9956207Y-14174064D02*
X9965731Y-14212159D01*
X9965731Y-14212159D02*
X9965731Y-14259778D01*
X9965731Y-14259778D02*
X9956207Y-14297873D01*
X9956207Y-14297873D02*
X9946684Y-14316921D01*
X9946684Y-14316921D02*
X9937160Y-14326445D01*
X9937160Y-14326445D02*
X9918112Y-14335969D01*
X9918112Y-14335969D02*
X9899064Y-14335969D01*
X9899064Y-14335969D02*
X9880017Y-14326445D01*
X9880017Y-14326445D02*
X9870493Y-14316921D01*
X9870493Y-14316921D02*
X9860969Y-14297873D01*
X9860969Y-14297873D02*
X9851445Y-14259778D01*
X9851445Y-14259778D02*
X9851445Y-14212159D01*
X9851445Y-14212159D02*
X9860969Y-14174064D01*
X9860969Y-14174064D02*
X9870493Y-14155016D01*
X9870493Y-14155016D02*
X9880017Y-14145492D01*
X9880017Y-14145492D02*
X9899064Y-14135969D01*
X10089541Y-14135969D02*
X10108588Y-14135969D01*
X10108588Y-14135969D02*
X10127636Y-14145492D01*
X10127636Y-14145492D02*
X10137160Y-14155016D01*
X10137160Y-14155016D02*
X10146684Y-14174064D01*
X10146684Y-14174064D02*
X10156207Y-14212159D01*
X10156207Y-14212159D02*
X10156207Y-14259778D01*
X10156207Y-14259778D02*
X10146684Y-14297873D01*
X10146684Y-14297873D02*
X10137160Y-14316921D01*
X10137160Y-14316921D02*
X10127636Y-14326445D01*
X10127636Y-14326445D02*
X10108588Y-14335969D01*
X10108588Y-14335969D02*
X10089541Y-14335969D01*
X10089541Y-14335969D02*
X10070493Y-14326445D01*
X10070493Y-14326445D02*
X10060969Y-14316921D01*
X10060969Y-14316921D02*
X10051445Y-14297873D01*
X10051445Y-14297873D02*
X10041922Y-14259778D01*
X10041922Y-14259778D02*
X10041922Y-14212159D01*
X10041922Y-14212159D02*
X10051445Y-14174064D01*
X10051445Y-14174064D02*
X10060969Y-14155016D01*
X10060969Y-14155016D02*
X10070493Y-14145492D01*
X10070493Y-14145492D02*
X10089541Y-14135969D01*
X10241922Y-14335969D02*
X10241922Y-14202635D01*
X10241922Y-14221683D02*
X10251445Y-14212159D01*
X10251445Y-14212159D02*
X10270493Y-14202635D01*
X10270493Y-14202635D02*
X10299065Y-14202635D01*
X10299065Y-14202635D02*
X10318112Y-14212159D01*
X10318112Y-14212159D02*
X10327636Y-14231207D01*
X10327636Y-14231207D02*
X10327636Y-14335969D01*
X10327636Y-14231207D02*
X10337160Y-14212159D01*
X10337160Y-14212159D02*
X10356207Y-14202635D01*
X10356207Y-14202635D02*
X10384779Y-14202635D01*
X10384779Y-14202635D02*
X10403826Y-14212159D01*
X10403826Y-14212159D02*
X10413350Y-14231207D01*
X10413350Y-14231207D02*
X10413350Y-14335969D01*
X10508588Y-14335969D02*
X10508588Y-14202635D01*
X10508588Y-14221683D02*
X10518112Y-14212159D01*
X10518112Y-14212159D02*
X10537160Y-14202635D01*
X10537160Y-14202635D02*
X10565731Y-14202635D01*
X10565731Y-14202635D02*
X10584779Y-14212159D01*
X10584779Y-14212159D02*
X10594303Y-14231207D01*
X10594303Y-14231207D02*
X10594303Y-14335969D01*
X10594303Y-14231207D02*
X10603826Y-14212159D01*
X10603826Y-14212159D02*
X10622874Y-14202635D01*
X10622874Y-14202635D02*
X10651445Y-14202635D01*
X10651445Y-14202635D02*
X10670493Y-14212159D01*
X10670493Y-14212159D02*
X10680017Y-14231207D01*
X10680017Y-14231207D02*
X10680017Y-14335969D01*
X11070493Y-14126445D02*
X10899065Y-14383588D01*
X11327636Y-14135969D02*
X11346684Y-14135969D01*
X11346684Y-14135969D02*
X11365731Y-14145492D01*
X11365731Y-14145492D02*
X11375255Y-14155016D01*
X11375255Y-14155016D02*
X11384779Y-14174064D01*
X11384779Y-14174064D02*
X11394303Y-14212159D01*
X11394303Y-14212159D02*
X11394303Y-14259778D01*
X11394303Y-14259778D02*
X11384779Y-14297873D01*
X11384779Y-14297873D02*
X11375255Y-14316921D01*
X11375255Y-14316921D02*
X11365731Y-14326445D01*
X11365731Y-14326445D02*
X11346684Y-14335969D01*
X11346684Y-14335969D02*
X11327636Y-14335969D01*
X11327636Y-14335969D02*
X11308588Y-14326445D01*
X11308588Y-14326445D02*
X11299065Y-14316921D01*
X11299065Y-14316921D02*
X11289541Y-14297873D01*
X11289541Y-14297873D02*
X11280017Y-14259778D01*
X11280017Y-14259778D02*
X11280017Y-14212159D01*
X11280017Y-14212159D02*
X11289541Y-14174064D01*
X11289541Y-14174064D02*
X11299065Y-14155016D01*
X11299065Y-14155016D02*
X11308588Y-14145492D01*
X11308588Y-14145492D02*
X11327636Y-14135969D01*
X11480017Y-14316921D02*
X11489541Y-14326445D01*
X11489541Y-14326445D02*
X11480017Y-14335969D01*
X11480017Y-14335969D02*
X11470493Y-14326445D01*
X11470493Y-14326445D02*
X11480017Y-14316921D01*
X11480017Y-14316921D02*
X11480017Y-14335969D01*
X11613350Y-14135969D02*
X11632398Y-14135969D01*
X11632398Y-14135969D02*
X11651446Y-14145492D01*
X11651446Y-14145492D02*
X11660969Y-14155016D01*
X11660969Y-14155016D02*
X11670493Y-14174064D01*
X11670493Y-14174064D02*
X11680017Y-14212159D01*
X11680017Y-14212159D02*
X11680017Y-14259778D01*
X11680017Y-14259778D02*
X11670493Y-14297873D01*
X11670493Y-14297873D02*
X11660969Y-14316921D01*
X11660969Y-14316921D02*
X11651446Y-14326445D01*
X11651446Y-14326445D02*
X11632398Y-14335969D01*
X11632398Y-14335969D02*
X11613350Y-14335969D01*
X11613350Y-14335969D02*
X11594303Y-14326445D01*
X11594303Y-14326445D02*
X11584779Y-14316921D01*
X11584779Y-14316921D02*
X11575255Y-14297873D01*
X11575255Y-14297873D02*
X11565731Y-14259778D01*
X11565731Y-14259778D02*
X11565731Y-14212159D01*
X11565731Y-14212159D02*
X11575255Y-14174064D01*
X11575255Y-14174064D02*
X11584779Y-14155016D01*
X11584779Y-14155016D02*
X11594303Y-14145492D01*
X11594303Y-14145492D02*
X11613350Y-14135969D01*
X11870493Y-14335969D02*
X11756207Y-14335969D01*
X11813350Y-14335969D02*
X11813350Y-14135969D01*
X11813350Y-14135969D02*
X11794303Y-14164540D01*
X11794303Y-14164540D02*
X11775255Y-14183588D01*
X11775255Y-14183588D02*
X11756207Y-14193111D01*
X12051446Y-14135969D02*
X11956207Y-14135969D01*
X11956207Y-14135969D02*
X11946684Y-14231207D01*
X11946684Y-14231207D02*
X11956207Y-14221683D01*
X11956207Y-14221683D02*
X11975255Y-14212159D01*
X11975255Y-14212159D02*
X12022874Y-14212159D01*
X12022874Y-14212159D02*
X12041922Y-14221683D01*
X12041922Y-14221683D02*
X12051446Y-14231207D01*
X12051446Y-14231207D02*
X12060969Y-14250254D01*
X12060969Y-14250254D02*
X12060969Y-14297873D01*
X12060969Y-14297873D02*
X12051446Y-14316921D01*
X12051446Y-14316921D02*
X12041922Y-14326445D01*
X12041922Y-14326445D02*
X12022874Y-14335969D01*
X12022874Y-14335969D02*
X11975255Y-14335969D01*
X11975255Y-14335969D02*
X11956207Y-14326445D01*
X11956207Y-14326445D02*
X11946684Y-14316921D01*
X12127636Y-14135969D02*
X12260969Y-14135969D01*
X12260969Y-14135969D02*
X12175255Y-14335969D01*
X12327636Y-14135969D02*
X12327636Y-14174064D01*
X12403827Y-14135969D02*
X12403827Y-14174064D01*
X12699065Y-14412159D02*
X12689541Y-14402635D01*
X12689541Y-14402635D02*
X12670493Y-14374064D01*
X12670493Y-14374064D02*
X12660969Y-14355016D01*
X12660969Y-14355016D02*
X12651446Y-14326445D01*
X12651446Y-14326445D02*
X12641922Y-14278826D01*
X12641922Y-14278826D02*
X12641922Y-14240731D01*
X12641922Y-14240731D02*
X12651446Y-14193111D01*
X12651446Y-14193111D02*
X12660969Y-14164540D01*
X12660969Y-14164540D02*
X12670493Y-14145492D01*
X12670493Y-14145492D02*
X12689541Y-14116921D01*
X12689541Y-14116921D02*
X12699065Y-14107397D01*
X12765731Y-14155016D02*
X12775255Y-14145492D01*
X12775255Y-14145492D02*
X12794303Y-14135969D01*
X12794303Y-14135969D02*
X12841922Y-14135969D01*
X12841922Y-14135969D02*
X12860969Y-14145492D01*
X12860969Y-14145492D02*
X12870493Y-14155016D01*
X12870493Y-14155016D02*
X12880017Y-14174064D01*
X12880017Y-14174064D02*
X12880017Y-14193111D01*
X12880017Y-14193111D02*
X12870493Y-14221683D01*
X12870493Y-14221683D02*
X12756208Y-14335969D01*
X12756208Y-14335969D02*
X12880017Y-14335969D01*
X13051446Y-14202635D02*
X13051446Y-14335969D01*
X13003827Y-14126445D02*
X12956208Y-14269302D01*
X12956208Y-14269302D02*
X13080017Y-14269302D01*
X13308589Y-14335969D02*
X13308589Y-14135969D01*
X13394303Y-14335969D02*
X13394303Y-14231207D01*
X13394303Y-14231207D02*
X13384779Y-14212159D01*
X13384779Y-14212159D02*
X13365731Y-14202635D01*
X13365731Y-14202635D02*
X13337160Y-14202635D01*
X13337160Y-14202635D02*
X13318112Y-14212159D01*
X13318112Y-14212159D02*
X13308589Y-14221683D01*
X13518112Y-14335969D02*
X13499065Y-14326445D01*
X13499065Y-14326445D02*
X13489541Y-14316921D01*
X13489541Y-14316921D02*
X13480017Y-14297873D01*
X13480017Y-14297873D02*
X13480017Y-14240731D01*
X13480017Y-14240731D02*
X13489541Y-14221683D01*
X13489541Y-14221683D02*
X13499065Y-14212159D01*
X13499065Y-14212159D02*
X13518112Y-14202635D01*
X13518112Y-14202635D02*
X13546684Y-14202635D01*
X13546684Y-14202635D02*
X13565731Y-14212159D01*
X13565731Y-14212159D02*
X13575255Y-14221683D01*
X13575255Y-14221683D02*
X13584779Y-14240731D01*
X13584779Y-14240731D02*
X13584779Y-14297873D01*
X13584779Y-14297873D02*
X13575255Y-14316921D01*
X13575255Y-14316921D02*
X13565731Y-14326445D01*
X13565731Y-14326445D02*
X13546684Y-14335969D01*
X13546684Y-14335969D02*
X13518112Y-14335969D01*
X13699065Y-14335969D02*
X13680017Y-14326445D01*
X13680017Y-14326445D02*
X13670493Y-14307397D01*
X13670493Y-14307397D02*
X13670493Y-14135969D01*
X13851446Y-14326445D02*
X13832398Y-14335969D01*
X13832398Y-14335969D02*
X13794303Y-14335969D01*
X13794303Y-14335969D02*
X13775255Y-14326445D01*
X13775255Y-14326445D02*
X13765731Y-14307397D01*
X13765731Y-14307397D02*
X13765731Y-14231207D01*
X13765731Y-14231207D02*
X13775255Y-14212159D01*
X13775255Y-14212159D02*
X13794303Y-14202635D01*
X13794303Y-14202635D02*
X13832398Y-14202635D01*
X13832398Y-14202635D02*
X13851446Y-14212159D01*
X13851446Y-14212159D02*
X13860970Y-14231207D01*
X13860970Y-14231207D02*
X13860970Y-14250254D01*
X13860970Y-14250254D02*
X13765731Y-14269302D01*
X13937160Y-14326445D02*
X13956208Y-14335969D01*
X13956208Y-14335969D02*
X13994303Y-14335969D01*
X13994303Y-14335969D02*
X14013351Y-14326445D01*
X14013351Y-14326445D02*
X14022874Y-14307397D01*
X14022874Y-14307397D02*
X14022874Y-14297873D01*
X14022874Y-14297873D02*
X14013351Y-14278826D01*
X14013351Y-14278826D02*
X13994303Y-14269302D01*
X13994303Y-14269302D02*
X13965731Y-14269302D01*
X13965731Y-14269302D02*
X13946684Y-14259778D01*
X13946684Y-14259778D02*
X13937160Y-14240731D01*
X13937160Y-14240731D02*
X13937160Y-14231207D01*
X13937160Y-14231207D02*
X13946684Y-14212159D01*
X13946684Y-14212159D02*
X13965731Y-14202635D01*
X13965731Y-14202635D02*
X13994303Y-14202635D01*
X13994303Y-14202635D02*
X14013351Y-14212159D01*
X14089541Y-14412159D02*
X14099065Y-14402635D01*
X14099065Y-14402635D02*
X14118112Y-14374064D01*
X14118112Y-14374064D02*
X14127636Y-14355016D01*
X14127636Y-14355016D02*
X14137160Y-14326445D01*
X14137160Y-14326445D02*
X14146684Y-14278826D01*
X14146684Y-14278826D02*
X14146684Y-14240731D01*
X14146684Y-14240731D02*
X14137160Y-14193111D01*
X14137160Y-14193111D02*
X14127636Y-14164540D01*
X14127636Y-14164540D02*
X14118112Y-14145492D01*
X14118112Y-14145492D02*
X14099065Y-14116921D01*
X14099065Y-14116921D02*
X14089541Y-14107397D01*
D12*
X9124002Y-14508485D02*
G75*
G02*
X9049002Y-14508485I-37500J0D01*
G01*
X9049002Y-14508485D02*
G75*
G02*
X9124002Y-14508485I37500J0D01*
G01*
D11*
X9422874Y-14399969D02*
X9441922Y-14399969D01*
X9441922Y-14399969D02*
X9460969Y-14409492D01*
X9460969Y-14409492D02*
X9470493Y-14419016D01*
X9470493Y-14419016D02*
X9480017Y-14438064D01*
X9480017Y-14438064D02*
X9489541Y-14476159D01*
X9489541Y-14476159D02*
X9489541Y-14523778D01*
X9489541Y-14523778D02*
X9480017Y-14561873D01*
X9480017Y-14561873D02*
X9470493Y-14580921D01*
X9470493Y-14580921D02*
X9460969Y-14590445D01*
X9460969Y-14590445D02*
X9441922Y-14599969D01*
X9441922Y-14599969D02*
X9422874Y-14599969D01*
X9422874Y-14599969D02*
X9403826Y-14590445D01*
X9403826Y-14590445D02*
X9394303Y-14580921D01*
X9394303Y-14580921D02*
X9384779Y-14561873D01*
X9384779Y-14561873D02*
X9375255Y-14523778D01*
X9375255Y-14523778D02*
X9375255Y-14476159D01*
X9375255Y-14476159D02*
X9384779Y-14438064D01*
X9384779Y-14438064D02*
X9394303Y-14419016D01*
X9394303Y-14419016D02*
X9403826Y-14409492D01*
X9403826Y-14409492D02*
X9422874Y-14399969D01*
X9575255Y-14580921D02*
X9584779Y-14590445D01*
X9584779Y-14590445D02*
X9575255Y-14599969D01*
X9575255Y-14599969D02*
X9565731Y-14590445D01*
X9565731Y-14590445D02*
X9575255Y-14580921D01*
X9575255Y-14580921D02*
X9575255Y-14599969D01*
X9651445Y-14399969D02*
X9784779Y-14399969D01*
X9784779Y-14399969D02*
X9699064Y-14599969D01*
X9956207Y-14399969D02*
X9860969Y-14399969D01*
X9860969Y-14399969D02*
X9851445Y-14495207D01*
X9851445Y-14495207D02*
X9860969Y-14485683D01*
X9860969Y-14485683D02*
X9880017Y-14476159D01*
X9880017Y-14476159D02*
X9927636Y-14476159D01*
X9927636Y-14476159D02*
X9946684Y-14485683D01*
X9946684Y-14485683D02*
X9956207Y-14495207D01*
X9956207Y-14495207D02*
X9965731Y-14514254D01*
X9965731Y-14514254D02*
X9965731Y-14561873D01*
X9965731Y-14561873D02*
X9956207Y-14580921D01*
X9956207Y-14580921D02*
X9946684Y-14590445D01*
X9946684Y-14590445D02*
X9927636Y-14599969D01*
X9927636Y-14599969D02*
X9880017Y-14599969D01*
X9880017Y-14599969D02*
X9860969Y-14590445D01*
X9860969Y-14590445D02*
X9851445Y-14580921D01*
X10089541Y-14399969D02*
X10108588Y-14399969D01*
X10108588Y-14399969D02*
X10127636Y-14409492D01*
X10127636Y-14409492D02*
X10137160Y-14419016D01*
X10137160Y-14419016D02*
X10146684Y-14438064D01*
X10146684Y-14438064D02*
X10156207Y-14476159D01*
X10156207Y-14476159D02*
X10156207Y-14523778D01*
X10156207Y-14523778D02*
X10146684Y-14561873D01*
X10146684Y-14561873D02*
X10137160Y-14580921D01*
X10137160Y-14580921D02*
X10127636Y-14590445D01*
X10127636Y-14590445D02*
X10108588Y-14599969D01*
X10108588Y-14599969D02*
X10089541Y-14599969D01*
X10089541Y-14599969D02*
X10070493Y-14590445D01*
X10070493Y-14590445D02*
X10060969Y-14580921D01*
X10060969Y-14580921D02*
X10051445Y-14561873D01*
X10051445Y-14561873D02*
X10041922Y-14523778D01*
X10041922Y-14523778D02*
X10041922Y-14476159D01*
X10041922Y-14476159D02*
X10051445Y-14438064D01*
X10051445Y-14438064D02*
X10060969Y-14419016D01*
X10060969Y-14419016D02*
X10070493Y-14409492D01*
X10070493Y-14409492D02*
X10089541Y-14399969D01*
X10241922Y-14599969D02*
X10241922Y-14466635D01*
X10241922Y-14485683D02*
X10251445Y-14476159D01*
X10251445Y-14476159D02*
X10270493Y-14466635D01*
X10270493Y-14466635D02*
X10299065Y-14466635D01*
X10299065Y-14466635D02*
X10318112Y-14476159D01*
X10318112Y-14476159D02*
X10327636Y-14495207D01*
X10327636Y-14495207D02*
X10327636Y-14599969D01*
X10327636Y-14495207D02*
X10337160Y-14476159D01*
X10337160Y-14476159D02*
X10356207Y-14466635D01*
X10356207Y-14466635D02*
X10384779Y-14466635D01*
X10384779Y-14466635D02*
X10403826Y-14476159D01*
X10403826Y-14476159D02*
X10413350Y-14495207D01*
X10413350Y-14495207D02*
X10413350Y-14599969D01*
X10508588Y-14599969D02*
X10508588Y-14466635D01*
X10508588Y-14485683D02*
X10518112Y-14476159D01*
X10518112Y-14476159D02*
X10537160Y-14466635D01*
X10537160Y-14466635D02*
X10565731Y-14466635D01*
X10565731Y-14466635D02*
X10584779Y-14476159D01*
X10584779Y-14476159D02*
X10594303Y-14495207D01*
X10594303Y-14495207D02*
X10594303Y-14599969D01*
X10594303Y-14495207D02*
X10603826Y-14476159D01*
X10603826Y-14476159D02*
X10622874Y-14466635D01*
X10622874Y-14466635D02*
X10651445Y-14466635D01*
X10651445Y-14466635D02*
X10670493Y-14476159D01*
X10670493Y-14476159D02*
X10680017Y-14495207D01*
X10680017Y-14495207D02*
X10680017Y-14599969D01*
X11070493Y-14390445D02*
X10899065Y-14647588D01*
X11327636Y-14399969D02*
X11346684Y-14399969D01*
X11346684Y-14399969D02*
X11365731Y-14409492D01*
X11365731Y-14409492D02*
X11375255Y-14419016D01*
X11375255Y-14419016D02*
X11384779Y-14438064D01*
X11384779Y-14438064D02*
X11394303Y-14476159D01*
X11394303Y-14476159D02*
X11394303Y-14523778D01*
X11394303Y-14523778D02*
X11384779Y-14561873D01*
X11384779Y-14561873D02*
X11375255Y-14580921D01*
X11375255Y-14580921D02*
X11365731Y-14590445D01*
X11365731Y-14590445D02*
X11346684Y-14599969D01*
X11346684Y-14599969D02*
X11327636Y-14599969D01*
X11327636Y-14599969D02*
X11308588Y-14590445D01*
X11308588Y-14590445D02*
X11299065Y-14580921D01*
X11299065Y-14580921D02*
X11289541Y-14561873D01*
X11289541Y-14561873D02*
X11280017Y-14523778D01*
X11280017Y-14523778D02*
X11280017Y-14476159D01*
X11280017Y-14476159D02*
X11289541Y-14438064D01*
X11289541Y-14438064D02*
X11299065Y-14419016D01*
X11299065Y-14419016D02*
X11308588Y-14409492D01*
X11308588Y-14409492D02*
X11327636Y-14399969D01*
X11480017Y-14580921D02*
X11489541Y-14590445D01*
X11489541Y-14590445D02*
X11480017Y-14599969D01*
X11480017Y-14599969D02*
X11470493Y-14590445D01*
X11470493Y-14590445D02*
X11480017Y-14580921D01*
X11480017Y-14580921D02*
X11480017Y-14599969D01*
X11613350Y-14399969D02*
X11632398Y-14399969D01*
X11632398Y-14399969D02*
X11651446Y-14409492D01*
X11651446Y-14409492D02*
X11660969Y-14419016D01*
X11660969Y-14419016D02*
X11670493Y-14438064D01*
X11670493Y-14438064D02*
X11680017Y-14476159D01*
X11680017Y-14476159D02*
X11680017Y-14523778D01*
X11680017Y-14523778D02*
X11670493Y-14561873D01*
X11670493Y-14561873D02*
X11660969Y-14580921D01*
X11660969Y-14580921D02*
X11651446Y-14590445D01*
X11651446Y-14590445D02*
X11632398Y-14599969D01*
X11632398Y-14599969D02*
X11613350Y-14599969D01*
X11613350Y-14599969D02*
X11594303Y-14590445D01*
X11594303Y-14590445D02*
X11584779Y-14580921D01*
X11584779Y-14580921D02*
X11575255Y-14561873D01*
X11575255Y-14561873D02*
X11565731Y-14523778D01*
X11565731Y-14523778D02*
X11565731Y-14476159D01*
X11565731Y-14476159D02*
X11575255Y-14438064D01*
X11575255Y-14438064D02*
X11584779Y-14419016D01*
X11584779Y-14419016D02*
X11594303Y-14409492D01*
X11594303Y-14409492D02*
X11613350Y-14399969D01*
X11756207Y-14419016D02*
X11765731Y-14409492D01*
X11765731Y-14409492D02*
X11784779Y-14399969D01*
X11784779Y-14399969D02*
X11832398Y-14399969D01*
X11832398Y-14399969D02*
X11851446Y-14409492D01*
X11851446Y-14409492D02*
X11860969Y-14419016D01*
X11860969Y-14419016D02*
X11870493Y-14438064D01*
X11870493Y-14438064D02*
X11870493Y-14457111D01*
X11870493Y-14457111D02*
X11860969Y-14485683D01*
X11860969Y-14485683D02*
X11746684Y-14599969D01*
X11746684Y-14599969D02*
X11870493Y-14599969D01*
X11965731Y-14599969D02*
X12003826Y-14599969D01*
X12003826Y-14599969D02*
X12022874Y-14590445D01*
X12022874Y-14590445D02*
X12032398Y-14580921D01*
X12032398Y-14580921D02*
X12051446Y-14552350D01*
X12051446Y-14552350D02*
X12060969Y-14514254D01*
X12060969Y-14514254D02*
X12060969Y-14438064D01*
X12060969Y-14438064D02*
X12051446Y-14419016D01*
X12051446Y-14419016D02*
X12041922Y-14409492D01*
X12041922Y-14409492D02*
X12022874Y-14399969D01*
X12022874Y-14399969D02*
X11984779Y-14399969D01*
X11984779Y-14399969D02*
X11965731Y-14409492D01*
X11965731Y-14409492D02*
X11956207Y-14419016D01*
X11956207Y-14419016D02*
X11946684Y-14438064D01*
X11946684Y-14438064D02*
X11946684Y-14485683D01*
X11946684Y-14485683D02*
X11956207Y-14504731D01*
X11956207Y-14504731D02*
X11965731Y-14514254D01*
X11965731Y-14514254D02*
X11984779Y-14523778D01*
X11984779Y-14523778D02*
X12022874Y-14523778D01*
X12022874Y-14523778D02*
X12041922Y-14514254D01*
X12041922Y-14514254D02*
X12051446Y-14504731D01*
X12051446Y-14504731D02*
X12060969Y-14485683D01*
X12241922Y-14399969D02*
X12146684Y-14399969D01*
X12146684Y-14399969D02*
X12137160Y-14495207D01*
X12137160Y-14495207D02*
X12146684Y-14485683D01*
X12146684Y-14485683D02*
X12165731Y-14476159D01*
X12165731Y-14476159D02*
X12213350Y-14476159D01*
X12213350Y-14476159D02*
X12232398Y-14485683D01*
X12232398Y-14485683D02*
X12241922Y-14495207D01*
X12241922Y-14495207D02*
X12251446Y-14514254D01*
X12251446Y-14514254D02*
X12251446Y-14561873D01*
X12251446Y-14561873D02*
X12241922Y-14580921D01*
X12241922Y-14580921D02*
X12232398Y-14590445D01*
X12232398Y-14590445D02*
X12213350Y-14599969D01*
X12213350Y-14599969D02*
X12165731Y-14599969D01*
X12165731Y-14599969D02*
X12146684Y-14590445D01*
X12146684Y-14590445D02*
X12137160Y-14580921D01*
X12327636Y-14399969D02*
X12327636Y-14438064D01*
X12403827Y-14399969D02*
X12403827Y-14438064D01*
X12699065Y-14676159D02*
X12689541Y-14666635D01*
X12689541Y-14666635D02*
X12670493Y-14638064D01*
X12670493Y-14638064D02*
X12660969Y-14619016D01*
X12660969Y-14619016D02*
X12651446Y-14590445D01*
X12651446Y-14590445D02*
X12641922Y-14542826D01*
X12641922Y-14542826D02*
X12641922Y-14504731D01*
X12641922Y-14504731D02*
X12651446Y-14457111D01*
X12651446Y-14457111D02*
X12660969Y-14428540D01*
X12660969Y-14428540D02*
X12670493Y-14409492D01*
X12670493Y-14409492D02*
X12689541Y-14380921D01*
X12689541Y-14380921D02*
X12699065Y-14371397D01*
X12765731Y-14419016D02*
X12775255Y-14409492D01*
X12775255Y-14409492D02*
X12794303Y-14399969D01*
X12794303Y-14399969D02*
X12841922Y-14399969D01*
X12841922Y-14399969D02*
X12860969Y-14409492D01*
X12860969Y-14409492D02*
X12870493Y-14419016D01*
X12870493Y-14419016D02*
X12880017Y-14438064D01*
X12880017Y-14438064D02*
X12880017Y-14457111D01*
X12880017Y-14457111D02*
X12870493Y-14485683D01*
X12870493Y-14485683D02*
X12756208Y-14599969D01*
X12756208Y-14599969D02*
X12880017Y-14599969D01*
X13118112Y-14599969D02*
X13118112Y-14399969D01*
X13203827Y-14599969D02*
X13203827Y-14495207D01*
X13203827Y-14495207D02*
X13194303Y-14476159D01*
X13194303Y-14476159D02*
X13175255Y-14466635D01*
X13175255Y-14466635D02*
X13146684Y-14466635D01*
X13146684Y-14466635D02*
X13127636Y-14476159D01*
X13127636Y-14476159D02*
X13118112Y-14485683D01*
X13327636Y-14599969D02*
X13308589Y-14590445D01*
X13308589Y-14590445D02*
X13299065Y-14580921D01*
X13299065Y-14580921D02*
X13289541Y-14561873D01*
X13289541Y-14561873D02*
X13289541Y-14504731D01*
X13289541Y-14504731D02*
X13299065Y-14485683D01*
X13299065Y-14485683D02*
X13308589Y-14476159D01*
X13308589Y-14476159D02*
X13327636Y-14466635D01*
X13327636Y-14466635D02*
X13356208Y-14466635D01*
X13356208Y-14466635D02*
X13375255Y-14476159D01*
X13375255Y-14476159D02*
X13384779Y-14485683D01*
X13384779Y-14485683D02*
X13394303Y-14504731D01*
X13394303Y-14504731D02*
X13394303Y-14561873D01*
X13394303Y-14561873D02*
X13384779Y-14580921D01*
X13384779Y-14580921D02*
X13375255Y-14590445D01*
X13375255Y-14590445D02*
X13356208Y-14599969D01*
X13356208Y-14599969D02*
X13327636Y-14599969D01*
X13508589Y-14599969D02*
X13489541Y-14590445D01*
X13489541Y-14590445D02*
X13480017Y-14571397D01*
X13480017Y-14571397D02*
X13480017Y-14399969D01*
X13660970Y-14590445D02*
X13641922Y-14599969D01*
X13641922Y-14599969D02*
X13603827Y-14599969D01*
X13603827Y-14599969D02*
X13584779Y-14590445D01*
X13584779Y-14590445D02*
X13575255Y-14571397D01*
X13575255Y-14571397D02*
X13575255Y-14495207D01*
X13575255Y-14495207D02*
X13584779Y-14476159D01*
X13584779Y-14476159D02*
X13603827Y-14466635D01*
X13603827Y-14466635D02*
X13641922Y-14466635D01*
X13641922Y-14466635D02*
X13660970Y-14476159D01*
X13660970Y-14476159D02*
X13670493Y-14495207D01*
X13670493Y-14495207D02*
X13670493Y-14514254D01*
X13670493Y-14514254D02*
X13575255Y-14533302D01*
X13746684Y-14590445D02*
X13765731Y-14599969D01*
X13765731Y-14599969D02*
X13803827Y-14599969D01*
X13803827Y-14599969D02*
X13822874Y-14590445D01*
X13822874Y-14590445D02*
X13832398Y-14571397D01*
X13832398Y-14571397D02*
X13832398Y-14561873D01*
X13832398Y-14561873D02*
X13822874Y-14542826D01*
X13822874Y-14542826D02*
X13803827Y-14533302D01*
X13803827Y-14533302D02*
X13775255Y-14533302D01*
X13775255Y-14533302D02*
X13756208Y-14523778D01*
X13756208Y-14523778D02*
X13746684Y-14504731D01*
X13746684Y-14504731D02*
X13746684Y-14495207D01*
X13746684Y-14495207D02*
X13756208Y-14476159D01*
X13756208Y-14476159D02*
X13775255Y-14466635D01*
X13775255Y-14466635D02*
X13803827Y-14466635D01*
X13803827Y-14466635D02*
X13822874Y-14476159D01*
X13899065Y-14676159D02*
X13908589Y-14666635D01*
X13908589Y-14666635D02*
X13927636Y-14638064D01*
X13927636Y-14638064D02*
X13937160Y-14619016D01*
X13937160Y-14619016D02*
X13946684Y-14590445D01*
X13946684Y-14590445D02*
X13956208Y-14542826D01*
X13956208Y-14542826D02*
X13956208Y-14504731D01*
X13956208Y-14504731D02*
X13946684Y-14457111D01*
X13946684Y-14457111D02*
X13937160Y-14428540D01*
X13937160Y-14428540D02*
X13927636Y-14409492D01*
X13927636Y-14409492D02*
X13908589Y-14380921D01*
X13908589Y-14380921D02*
X13899065Y-14371397D01*
D12*
X9074002Y-14722485D02*
X9074002Y-14822485D01*
X9024002Y-14772485D02*
X9124002Y-14772485D01*
D11*
X9489541Y-14863969D02*
X9375255Y-14863969D01*
X9432398Y-14863969D02*
X9432398Y-14663969D01*
X9432398Y-14663969D02*
X9413350Y-14692540D01*
X9413350Y-14692540D02*
X9394303Y-14711588D01*
X9394303Y-14711588D02*
X9375255Y-14721111D01*
X9575255Y-14844921D02*
X9584779Y-14854445D01*
X9584779Y-14854445D02*
X9575255Y-14863969D01*
X9575255Y-14863969D02*
X9565731Y-14854445D01*
X9565731Y-14854445D02*
X9575255Y-14844921D01*
X9575255Y-14844921D02*
X9575255Y-14863969D01*
X9708588Y-14663969D02*
X9727636Y-14663969D01*
X9727636Y-14663969D02*
X9746684Y-14673492D01*
X9746684Y-14673492D02*
X9756207Y-14683016D01*
X9756207Y-14683016D02*
X9765731Y-14702064D01*
X9765731Y-14702064D02*
X9775255Y-14740159D01*
X9775255Y-14740159D02*
X9775255Y-14787778D01*
X9775255Y-14787778D02*
X9765731Y-14825873D01*
X9765731Y-14825873D02*
X9756207Y-14844921D01*
X9756207Y-14844921D02*
X9746684Y-14854445D01*
X9746684Y-14854445D02*
X9727636Y-14863969D01*
X9727636Y-14863969D02*
X9708588Y-14863969D01*
X9708588Y-14863969D02*
X9689541Y-14854445D01*
X9689541Y-14854445D02*
X9680017Y-14844921D01*
X9680017Y-14844921D02*
X9670493Y-14825873D01*
X9670493Y-14825873D02*
X9660969Y-14787778D01*
X9660969Y-14787778D02*
X9660969Y-14740159D01*
X9660969Y-14740159D02*
X9670493Y-14702064D01*
X9670493Y-14702064D02*
X9680017Y-14683016D01*
X9680017Y-14683016D02*
X9689541Y-14673492D01*
X9689541Y-14673492D02*
X9708588Y-14663969D01*
X9899064Y-14663969D02*
X9918112Y-14663969D01*
X9918112Y-14663969D02*
X9937160Y-14673492D01*
X9937160Y-14673492D02*
X9946684Y-14683016D01*
X9946684Y-14683016D02*
X9956207Y-14702064D01*
X9956207Y-14702064D02*
X9965731Y-14740159D01*
X9965731Y-14740159D02*
X9965731Y-14787778D01*
X9965731Y-14787778D02*
X9956207Y-14825873D01*
X9956207Y-14825873D02*
X9946684Y-14844921D01*
X9946684Y-14844921D02*
X9937160Y-14854445D01*
X9937160Y-14854445D02*
X9918112Y-14863969D01*
X9918112Y-14863969D02*
X9899064Y-14863969D01*
X9899064Y-14863969D02*
X9880017Y-14854445D01*
X9880017Y-14854445D02*
X9870493Y-14844921D01*
X9870493Y-14844921D02*
X9860969Y-14825873D01*
X9860969Y-14825873D02*
X9851445Y-14787778D01*
X9851445Y-14787778D02*
X9851445Y-14740159D01*
X9851445Y-14740159D02*
X9860969Y-14702064D01*
X9860969Y-14702064D02*
X9870493Y-14683016D01*
X9870493Y-14683016D02*
X9880017Y-14673492D01*
X9880017Y-14673492D02*
X9899064Y-14663969D01*
X10089541Y-14663969D02*
X10108588Y-14663969D01*
X10108588Y-14663969D02*
X10127636Y-14673492D01*
X10127636Y-14673492D02*
X10137160Y-14683016D01*
X10137160Y-14683016D02*
X10146684Y-14702064D01*
X10146684Y-14702064D02*
X10156207Y-14740159D01*
X10156207Y-14740159D02*
X10156207Y-14787778D01*
X10156207Y-14787778D02*
X10146684Y-14825873D01*
X10146684Y-14825873D02*
X10137160Y-14844921D01*
X10137160Y-14844921D02*
X10127636Y-14854445D01*
X10127636Y-14854445D02*
X10108588Y-14863969D01*
X10108588Y-14863969D02*
X10089541Y-14863969D01*
X10089541Y-14863969D02*
X10070493Y-14854445D01*
X10070493Y-14854445D02*
X10060969Y-14844921D01*
X10060969Y-14844921D02*
X10051445Y-14825873D01*
X10051445Y-14825873D02*
X10041922Y-14787778D01*
X10041922Y-14787778D02*
X10041922Y-14740159D01*
X10041922Y-14740159D02*
X10051445Y-14702064D01*
X10051445Y-14702064D02*
X10060969Y-14683016D01*
X10060969Y-14683016D02*
X10070493Y-14673492D01*
X10070493Y-14673492D02*
X10089541Y-14663969D01*
X10241922Y-14863969D02*
X10241922Y-14730635D01*
X10241922Y-14749683D02*
X10251445Y-14740159D01*
X10251445Y-14740159D02*
X10270493Y-14730635D01*
X10270493Y-14730635D02*
X10299065Y-14730635D01*
X10299065Y-14730635D02*
X10318112Y-14740159D01*
X10318112Y-14740159D02*
X10327636Y-14759207D01*
X10327636Y-14759207D02*
X10327636Y-14863969D01*
X10327636Y-14759207D02*
X10337160Y-14740159D01*
X10337160Y-14740159D02*
X10356207Y-14730635D01*
X10356207Y-14730635D02*
X10384779Y-14730635D01*
X10384779Y-14730635D02*
X10403826Y-14740159D01*
X10403826Y-14740159D02*
X10413350Y-14759207D01*
X10413350Y-14759207D02*
X10413350Y-14863969D01*
X10508588Y-14863969D02*
X10508588Y-14730635D01*
X10508588Y-14749683D02*
X10518112Y-14740159D01*
X10518112Y-14740159D02*
X10537160Y-14730635D01*
X10537160Y-14730635D02*
X10565731Y-14730635D01*
X10565731Y-14730635D02*
X10584779Y-14740159D01*
X10584779Y-14740159D02*
X10594303Y-14759207D01*
X10594303Y-14759207D02*
X10594303Y-14863969D01*
X10594303Y-14759207D02*
X10603826Y-14740159D01*
X10603826Y-14740159D02*
X10622874Y-14730635D01*
X10622874Y-14730635D02*
X10651445Y-14730635D01*
X10651445Y-14730635D02*
X10670493Y-14740159D01*
X10670493Y-14740159D02*
X10680017Y-14759207D01*
X10680017Y-14759207D02*
X10680017Y-14863969D01*
X11070493Y-14654445D02*
X10899065Y-14911588D01*
X11327636Y-14663969D02*
X11346684Y-14663969D01*
X11346684Y-14663969D02*
X11365731Y-14673492D01*
X11365731Y-14673492D02*
X11375255Y-14683016D01*
X11375255Y-14683016D02*
X11384779Y-14702064D01*
X11384779Y-14702064D02*
X11394303Y-14740159D01*
X11394303Y-14740159D02*
X11394303Y-14787778D01*
X11394303Y-14787778D02*
X11384779Y-14825873D01*
X11384779Y-14825873D02*
X11375255Y-14844921D01*
X11375255Y-14844921D02*
X11365731Y-14854445D01*
X11365731Y-14854445D02*
X11346684Y-14863969D01*
X11346684Y-14863969D02*
X11327636Y-14863969D01*
X11327636Y-14863969D02*
X11308588Y-14854445D01*
X11308588Y-14854445D02*
X11299065Y-14844921D01*
X11299065Y-14844921D02*
X11289541Y-14825873D01*
X11289541Y-14825873D02*
X11280017Y-14787778D01*
X11280017Y-14787778D02*
X11280017Y-14740159D01*
X11280017Y-14740159D02*
X11289541Y-14702064D01*
X11289541Y-14702064D02*
X11299065Y-14683016D01*
X11299065Y-14683016D02*
X11308588Y-14673492D01*
X11308588Y-14673492D02*
X11327636Y-14663969D01*
X11480017Y-14844921D02*
X11489541Y-14854445D01*
X11489541Y-14854445D02*
X11480017Y-14863969D01*
X11480017Y-14863969D02*
X11470493Y-14854445D01*
X11470493Y-14854445D02*
X11480017Y-14844921D01*
X11480017Y-14844921D02*
X11480017Y-14863969D01*
X11613350Y-14663969D02*
X11632398Y-14663969D01*
X11632398Y-14663969D02*
X11651446Y-14673492D01*
X11651446Y-14673492D02*
X11660969Y-14683016D01*
X11660969Y-14683016D02*
X11670493Y-14702064D01*
X11670493Y-14702064D02*
X11680017Y-14740159D01*
X11680017Y-14740159D02*
X11680017Y-14787778D01*
X11680017Y-14787778D02*
X11670493Y-14825873D01*
X11670493Y-14825873D02*
X11660969Y-14844921D01*
X11660969Y-14844921D02*
X11651446Y-14854445D01*
X11651446Y-14854445D02*
X11632398Y-14863969D01*
X11632398Y-14863969D02*
X11613350Y-14863969D01*
X11613350Y-14863969D02*
X11594303Y-14854445D01*
X11594303Y-14854445D02*
X11584779Y-14844921D01*
X11584779Y-14844921D02*
X11575255Y-14825873D01*
X11575255Y-14825873D02*
X11565731Y-14787778D01*
X11565731Y-14787778D02*
X11565731Y-14740159D01*
X11565731Y-14740159D02*
X11575255Y-14702064D01*
X11575255Y-14702064D02*
X11584779Y-14683016D01*
X11584779Y-14683016D02*
X11594303Y-14673492D01*
X11594303Y-14673492D02*
X11613350Y-14663969D01*
X11746684Y-14663969D02*
X11870493Y-14663969D01*
X11870493Y-14663969D02*
X11803826Y-14740159D01*
X11803826Y-14740159D02*
X11832398Y-14740159D01*
X11832398Y-14740159D02*
X11851446Y-14749683D01*
X11851446Y-14749683D02*
X11860969Y-14759207D01*
X11860969Y-14759207D02*
X11870493Y-14778254D01*
X11870493Y-14778254D02*
X11870493Y-14825873D01*
X11870493Y-14825873D02*
X11860969Y-14844921D01*
X11860969Y-14844921D02*
X11851446Y-14854445D01*
X11851446Y-14854445D02*
X11832398Y-14863969D01*
X11832398Y-14863969D02*
X11775255Y-14863969D01*
X11775255Y-14863969D02*
X11756207Y-14854445D01*
X11756207Y-14854445D02*
X11746684Y-14844921D01*
X11965731Y-14863969D02*
X12003826Y-14863969D01*
X12003826Y-14863969D02*
X12022874Y-14854445D01*
X12022874Y-14854445D02*
X12032398Y-14844921D01*
X12032398Y-14844921D02*
X12051446Y-14816350D01*
X12051446Y-14816350D02*
X12060969Y-14778254D01*
X12060969Y-14778254D02*
X12060969Y-14702064D01*
X12060969Y-14702064D02*
X12051446Y-14683016D01*
X12051446Y-14683016D02*
X12041922Y-14673492D01*
X12041922Y-14673492D02*
X12022874Y-14663969D01*
X12022874Y-14663969D02*
X11984779Y-14663969D01*
X11984779Y-14663969D02*
X11965731Y-14673492D01*
X11965731Y-14673492D02*
X11956207Y-14683016D01*
X11956207Y-14683016D02*
X11946684Y-14702064D01*
X11946684Y-14702064D02*
X11946684Y-14749683D01*
X11946684Y-14749683D02*
X11956207Y-14768731D01*
X11956207Y-14768731D02*
X11965731Y-14778254D01*
X11965731Y-14778254D02*
X11984779Y-14787778D01*
X11984779Y-14787778D02*
X12022874Y-14787778D01*
X12022874Y-14787778D02*
X12041922Y-14778254D01*
X12041922Y-14778254D02*
X12051446Y-14768731D01*
X12051446Y-14768731D02*
X12060969Y-14749683D01*
X12232398Y-14730635D02*
X12232398Y-14863969D01*
X12184779Y-14654445D02*
X12137160Y-14797302D01*
X12137160Y-14797302D02*
X12260969Y-14797302D01*
X12327636Y-14663969D02*
X12327636Y-14702064D01*
X12403827Y-14663969D02*
X12403827Y-14702064D01*
X12699065Y-14940159D02*
X12689541Y-14930635D01*
X12689541Y-14930635D02*
X12670493Y-14902064D01*
X12670493Y-14902064D02*
X12660969Y-14883016D01*
X12660969Y-14883016D02*
X12651446Y-14854445D01*
X12651446Y-14854445D02*
X12641922Y-14806826D01*
X12641922Y-14806826D02*
X12641922Y-14768731D01*
X12641922Y-14768731D02*
X12651446Y-14721111D01*
X12651446Y-14721111D02*
X12660969Y-14692540D01*
X12660969Y-14692540D02*
X12670493Y-14673492D01*
X12670493Y-14673492D02*
X12689541Y-14644921D01*
X12689541Y-14644921D02*
X12699065Y-14635397D01*
X12765731Y-14683016D02*
X12775255Y-14673492D01*
X12775255Y-14673492D02*
X12794303Y-14663969D01*
X12794303Y-14663969D02*
X12841922Y-14663969D01*
X12841922Y-14663969D02*
X12860969Y-14673492D01*
X12860969Y-14673492D02*
X12870493Y-14683016D01*
X12870493Y-14683016D02*
X12880017Y-14702064D01*
X12880017Y-14702064D02*
X12880017Y-14721111D01*
X12880017Y-14721111D02*
X12870493Y-14749683D01*
X12870493Y-14749683D02*
X12756208Y-14863969D01*
X12756208Y-14863969D02*
X12880017Y-14863969D01*
X12975255Y-14863969D02*
X13013350Y-14863969D01*
X13013350Y-14863969D02*
X13032398Y-14854445D01*
X13032398Y-14854445D02*
X13041922Y-14844921D01*
X13041922Y-14844921D02*
X13060969Y-14816350D01*
X13060969Y-14816350D02*
X13070493Y-14778254D01*
X13070493Y-14778254D02*
X13070493Y-14702064D01*
X13070493Y-14702064D02*
X13060969Y-14683016D01*
X13060969Y-14683016D02*
X13051446Y-14673492D01*
X13051446Y-14673492D02*
X13032398Y-14663969D01*
X13032398Y-14663969D02*
X12994303Y-14663969D01*
X12994303Y-14663969D02*
X12975255Y-14673492D01*
X12975255Y-14673492D02*
X12965731Y-14683016D01*
X12965731Y-14683016D02*
X12956208Y-14702064D01*
X12956208Y-14702064D02*
X12956208Y-14749683D01*
X12956208Y-14749683D02*
X12965731Y-14768731D01*
X12965731Y-14768731D02*
X12975255Y-14778254D01*
X12975255Y-14778254D02*
X12994303Y-14787778D01*
X12994303Y-14787778D02*
X13032398Y-14787778D01*
X13032398Y-14787778D02*
X13051446Y-14778254D01*
X13051446Y-14778254D02*
X13060969Y-14768731D01*
X13060969Y-14768731D02*
X13070493Y-14749683D01*
X13308589Y-14863969D02*
X13308589Y-14663969D01*
X13394303Y-14863969D02*
X13394303Y-14759207D01*
X13394303Y-14759207D02*
X13384779Y-14740159D01*
X13384779Y-14740159D02*
X13365731Y-14730635D01*
X13365731Y-14730635D02*
X13337160Y-14730635D01*
X13337160Y-14730635D02*
X13318112Y-14740159D01*
X13318112Y-14740159D02*
X13308589Y-14749683D01*
X13518112Y-14863969D02*
X13499065Y-14854445D01*
X13499065Y-14854445D02*
X13489541Y-14844921D01*
X13489541Y-14844921D02*
X13480017Y-14825873D01*
X13480017Y-14825873D02*
X13480017Y-14768731D01*
X13480017Y-14768731D02*
X13489541Y-14749683D01*
X13489541Y-14749683D02*
X13499065Y-14740159D01*
X13499065Y-14740159D02*
X13518112Y-14730635D01*
X13518112Y-14730635D02*
X13546684Y-14730635D01*
X13546684Y-14730635D02*
X13565731Y-14740159D01*
X13565731Y-14740159D02*
X13575255Y-14749683D01*
X13575255Y-14749683D02*
X13584779Y-14768731D01*
X13584779Y-14768731D02*
X13584779Y-14825873D01*
X13584779Y-14825873D02*
X13575255Y-14844921D01*
X13575255Y-14844921D02*
X13565731Y-14854445D01*
X13565731Y-14854445D02*
X13546684Y-14863969D01*
X13546684Y-14863969D02*
X13518112Y-14863969D01*
X13699065Y-14863969D02*
X13680017Y-14854445D01*
X13680017Y-14854445D02*
X13670493Y-14835397D01*
X13670493Y-14835397D02*
X13670493Y-14663969D01*
X13851446Y-14854445D02*
X13832398Y-14863969D01*
X13832398Y-14863969D02*
X13794303Y-14863969D01*
X13794303Y-14863969D02*
X13775255Y-14854445D01*
X13775255Y-14854445D02*
X13765731Y-14835397D01*
X13765731Y-14835397D02*
X13765731Y-14759207D01*
X13765731Y-14759207D02*
X13775255Y-14740159D01*
X13775255Y-14740159D02*
X13794303Y-14730635D01*
X13794303Y-14730635D02*
X13832398Y-14730635D01*
X13832398Y-14730635D02*
X13851446Y-14740159D01*
X13851446Y-14740159D02*
X13860970Y-14759207D01*
X13860970Y-14759207D02*
X13860970Y-14778254D01*
X13860970Y-14778254D02*
X13765731Y-14797302D01*
X13937160Y-14854445D02*
X13956208Y-14863969D01*
X13956208Y-14863969D02*
X13994303Y-14863969D01*
X13994303Y-14863969D02*
X14013351Y-14854445D01*
X14013351Y-14854445D02*
X14022874Y-14835397D01*
X14022874Y-14835397D02*
X14022874Y-14825873D01*
X14022874Y-14825873D02*
X14013351Y-14806826D01*
X14013351Y-14806826D02*
X13994303Y-14797302D01*
X13994303Y-14797302D02*
X13965731Y-14797302D01*
X13965731Y-14797302D02*
X13946684Y-14787778D01*
X13946684Y-14787778D02*
X13937160Y-14768731D01*
X13937160Y-14768731D02*
X13937160Y-14759207D01*
X13937160Y-14759207D02*
X13946684Y-14740159D01*
X13946684Y-14740159D02*
X13965731Y-14730635D01*
X13965731Y-14730635D02*
X13994303Y-14730635D01*
X13994303Y-14730635D02*
X14013351Y-14740159D01*
X14089541Y-14940159D02*
X14099065Y-14930635D01*
X14099065Y-14930635D02*
X14118112Y-14902064D01*
X14118112Y-14902064D02*
X14127636Y-14883016D01*
X14127636Y-14883016D02*
X14137160Y-14854445D01*
X14137160Y-14854445D02*
X14146684Y-14806826D01*
X14146684Y-14806826D02*
X14146684Y-14768731D01*
X14146684Y-14768731D02*
X14137160Y-14721111D01*
X14137160Y-14721111D02*
X14127636Y-14692540D01*
X14127636Y-14692540D02*
X14118112Y-14673492D01*
X14118112Y-14673492D02*
X14099065Y-14644921D01*
X14099065Y-14644921D02*
X14089541Y-14635397D01*
D13*
X9100571Y-15093054D02*
X9100571Y-14979916D01*
X8987433Y-14979916D01*
X8987433Y-15093054D01*
X9100571Y-15093054D01*
D11*
X9489541Y-15127969D02*
X9375255Y-15127969D01*
X9432398Y-15127969D02*
X9432398Y-14927969D01*
X9432398Y-14927969D02*
X9413350Y-14956540D01*
X9413350Y-14956540D02*
X9394303Y-14975588D01*
X9394303Y-14975588D02*
X9375255Y-14985111D01*
X9575255Y-15108921D02*
X9584779Y-15118445D01*
X9584779Y-15118445D02*
X9575255Y-15127969D01*
X9575255Y-15127969D02*
X9565731Y-15118445D01*
X9565731Y-15118445D02*
X9575255Y-15108921D01*
X9575255Y-15108921D02*
X9575255Y-15127969D01*
X9756207Y-14927969D02*
X9718112Y-14927969D01*
X9718112Y-14927969D02*
X9699064Y-14937492D01*
X9699064Y-14937492D02*
X9689541Y-14947016D01*
X9689541Y-14947016D02*
X9670493Y-14975588D01*
X9670493Y-14975588D02*
X9660969Y-15013683D01*
X9660969Y-15013683D02*
X9660969Y-15089873D01*
X9660969Y-15089873D02*
X9670493Y-15108921D01*
X9670493Y-15108921D02*
X9680017Y-15118445D01*
X9680017Y-15118445D02*
X9699064Y-15127969D01*
X9699064Y-15127969D02*
X9737160Y-15127969D01*
X9737160Y-15127969D02*
X9756207Y-15118445D01*
X9756207Y-15118445D02*
X9765731Y-15108921D01*
X9765731Y-15108921D02*
X9775255Y-15089873D01*
X9775255Y-15089873D02*
X9775255Y-15042254D01*
X9775255Y-15042254D02*
X9765731Y-15023207D01*
X9765731Y-15023207D02*
X9756207Y-15013683D01*
X9756207Y-15013683D02*
X9737160Y-15004159D01*
X9737160Y-15004159D02*
X9699064Y-15004159D01*
X9699064Y-15004159D02*
X9680017Y-15013683D01*
X9680017Y-15013683D02*
X9670493Y-15023207D01*
X9670493Y-15023207D02*
X9660969Y-15042254D01*
X9899064Y-14927969D02*
X9918112Y-14927969D01*
X9918112Y-14927969D02*
X9937160Y-14937492D01*
X9937160Y-14937492D02*
X9946684Y-14947016D01*
X9946684Y-14947016D02*
X9956207Y-14966064D01*
X9956207Y-14966064D02*
X9965731Y-15004159D01*
X9965731Y-15004159D02*
X9965731Y-15051778D01*
X9965731Y-15051778D02*
X9956207Y-15089873D01*
X9956207Y-15089873D02*
X9946684Y-15108921D01*
X9946684Y-15108921D02*
X9937160Y-15118445D01*
X9937160Y-15118445D02*
X9918112Y-15127969D01*
X9918112Y-15127969D02*
X9899064Y-15127969D01*
X9899064Y-15127969D02*
X9880017Y-15118445D01*
X9880017Y-15118445D02*
X9870493Y-15108921D01*
X9870493Y-15108921D02*
X9860969Y-15089873D01*
X9860969Y-15089873D02*
X9851445Y-15051778D01*
X9851445Y-15051778D02*
X9851445Y-15004159D01*
X9851445Y-15004159D02*
X9860969Y-14966064D01*
X9860969Y-14966064D02*
X9870493Y-14947016D01*
X9870493Y-14947016D02*
X9880017Y-14937492D01*
X9880017Y-14937492D02*
X9899064Y-14927969D01*
X10089541Y-14927969D02*
X10108588Y-14927969D01*
X10108588Y-14927969D02*
X10127636Y-14937492D01*
X10127636Y-14937492D02*
X10137160Y-14947016D01*
X10137160Y-14947016D02*
X10146684Y-14966064D01*
X10146684Y-14966064D02*
X10156207Y-15004159D01*
X10156207Y-15004159D02*
X10156207Y-15051778D01*
X10156207Y-15051778D02*
X10146684Y-15089873D01*
X10146684Y-15089873D02*
X10137160Y-15108921D01*
X10137160Y-15108921D02*
X10127636Y-15118445D01*
X10127636Y-15118445D02*
X10108588Y-15127969D01*
X10108588Y-15127969D02*
X10089541Y-15127969D01*
X10089541Y-15127969D02*
X10070493Y-15118445D01*
X10070493Y-15118445D02*
X10060969Y-15108921D01*
X10060969Y-15108921D02*
X10051445Y-15089873D01*
X10051445Y-15089873D02*
X10041922Y-15051778D01*
X10041922Y-15051778D02*
X10041922Y-15004159D01*
X10041922Y-15004159D02*
X10051445Y-14966064D01*
X10051445Y-14966064D02*
X10060969Y-14947016D01*
X10060969Y-14947016D02*
X10070493Y-14937492D01*
X10070493Y-14937492D02*
X10089541Y-14927969D01*
X10241922Y-15127969D02*
X10241922Y-14994635D01*
X10241922Y-15013683D02*
X10251445Y-15004159D01*
X10251445Y-15004159D02*
X10270493Y-14994635D01*
X10270493Y-14994635D02*
X10299065Y-14994635D01*
X10299065Y-14994635D02*
X10318112Y-15004159D01*
X10318112Y-15004159D02*
X10327636Y-15023207D01*
X10327636Y-15023207D02*
X10327636Y-15127969D01*
X10327636Y-15023207D02*
X10337160Y-15004159D01*
X10337160Y-15004159D02*
X10356207Y-14994635D01*
X10356207Y-14994635D02*
X10384779Y-14994635D01*
X10384779Y-14994635D02*
X10403826Y-15004159D01*
X10403826Y-15004159D02*
X10413350Y-15023207D01*
X10413350Y-15023207D02*
X10413350Y-15127969D01*
X10508588Y-15127969D02*
X10508588Y-14994635D01*
X10508588Y-15013683D02*
X10518112Y-15004159D01*
X10518112Y-15004159D02*
X10537160Y-14994635D01*
X10537160Y-14994635D02*
X10565731Y-14994635D01*
X10565731Y-14994635D02*
X10584779Y-15004159D01*
X10584779Y-15004159D02*
X10594303Y-15023207D01*
X10594303Y-15023207D02*
X10594303Y-15127969D01*
X10594303Y-15023207D02*
X10603826Y-15004159D01*
X10603826Y-15004159D02*
X10622874Y-14994635D01*
X10622874Y-14994635D02*
X10651445Y-14994635D01*
X10651445Y-14994635D02*
X10670493Y-15004159D01*
X10670493Y-15004159D02*
X10680017Y-15023207D01*
X10680017Y-15023207D02*
X10680017Y-15127969D01*
X11070493Y-14918445D02*
X10899065Y-15175588D01*
X11327636Y-14927969D02*
X11346684Y-14927969D01*
X11346684Y-14927969D02*
X11365731Y-14937492D01*
X11365731Y-14937492D02*
X11375255Y-14947016D01*
X11375255Y-14947016D02*
X11384779Y-14966064D01*
X11384779Y-14966064D02*
X11394303Y-15004159D01*
X11394303Y-15004159D02*
X11394303Y-15051778D01*
X11394303Y-15051778D02*
X11384779Y-15089873D01*
X11384779Y-15089873D02*
X11375255Y-15108921D01*
X11375255Y-15108921D02*
X11365731Y-15118445D01*
X11365731Y-15118445D02*
X11346684Y-15127969D01*
X11346684Y-15127969D02*
X11327636Y-15127969D01*
X11327636Y-15127969D02*
X11308588Y-15118445D01*
X11308588Y-15118445D02*
X11299065Y-15108921D01*
X11299065Y-15108921D02*
X11289541Y-15089873D01*
X11289541Y-15089873D02*
X11280017Y-15051778D01*
X11280017Y-15051778D02*
X11280017Y-15004159D01*
X11280017Y-15004159D02*
X11289541Y-14966064D01*
X11289541Y-14966064D02*
X11299065Y-14947016D01*
X11299065Y-14947016D02*
X11308588Y-14937492D01*
X11308588Y-14937492D02*
X11327636Y-14927969D01*
X11480017Y-15108921D02*
X11489541Y-15118445D01*
X11489541Y-15118445D02*
X11480017Y-15127969D01*
X11480017Y-15127969D02*
X11470493Y-15118445D01*
X11470493Y-15118445D02*
X11480017Y-15108921D01*
X11480017Y-15108921D02*
X11480017Y-15127969D01*
X11613350Y-14927969D02*
X11632398Y-14927969D01*
X11632398Y-14927969D02*
X11651446Y-14937492D01*
X11651446Y-14937492D02*
X11660969Y-14947016D01*
X11660969Y-14947016D02*
X11670493Y-14966064D01*
X11670493Y-14966064D02*
X11680017Y-15004159D01*
X11680017Y-15004159D02*
X11680017Y-15051778D01*
X11680017Y-15051778D02*
X11670493Y-15089873D01*
X11670493Y-15089873D02*
X11660969Y-15108921D01*
X11660969Y-15108921D02*
X11651446Y-15118445D01*
X11651446Y-15118445D02*
X11632398Y-15127969D01*
X11632398Y-15127969D02*
X11613350Y-15127969D01*
X11613350Y-15127969D02*
X11594303Y-15118445D01*
X11594303Y-15118445D02*
X11584779Y-15108921D01*
X11584779Y-15108921D02*
X11575255Y-15089873D01*
X11575255Y-15089873D02*
X11565731Y-15051778D01*
X11565731Y-15051778D02*
X11565731Y-15004159D01*
X11565731Y-15004159D02*
X11575255Y-14966064D01*
X11575255Y-14966064D02*
X11584779Y-14947016D01*
X11584779Y-14947016D02*
X11594303Y-14937492D01*
X11594303Y-14937492D02*
X11613350Y-14927969D01*
X11851446Y-14927969D02*
X11813350Y-14927969D01*
X11813350Y-14927969D02*
X11794303Y-14937492D01*
X11794303Y-14937492D02*
X11784779Y-14947016D01*
X11784779Y-14947016D02*
X11765731Y-14975588D01*
X11765731Y-14975588D02*
X11756207Y-15013683D01*
X11756207Y-15013683D02*
X11756207Y-15089873D01*
X11756207Y-15089873D02*
X11765731Y-15108921D01*
X11765731Y-15108921D02*
X11775255Y-15118445D01*
X11775255Y-15118445D02*
X11794303Y-15127969D01*
X11794303Y-15127969D02*
X11832398Y-15127969D01*
X11832398Y-15127969D02*
X11851446Y-15118445D01*
X11851446Y-15118445D02*
X11860969Y-15108921D01*
X11860969Y-15108921D02*
X11870493Y-15089873D01*
X11870493Y-15089873D02*
X11870493Y-15042254D01*
X11870493Y-15042254D02*
X11860969Y-15023207D01*
X11860969Y-15023207D02*
X11851446Y-15013683D01*
X11851446Y-15013683D02*
X11832398Y-15004159D01*
X11832398Y-15004159D02*
X11794303Y-15004159D01*
X11794303Y-15004159D02*
X11775255Y-15013683D01*
X11775255Y-15013683D02*
X11765731Y-15023207D01*
X11765731Y-15023207D02*
X11756207Y-15042254D01*
X11937160Y-14927969D02*
X12060969Y-14927969D01*
X12060969Y-14927969D02*
X11994303Y-15004159D01*
X11994303Y-15004159D02*
X12022874Y-15004159D01*
X12022874Y-15004159D02*
X12041922Y-15013683D01*
X12041922Y-15013683D02*
X12051446Y-15023207D01*
X12051446Y-15023207D02*
X12060969Y-15042254D01*
X12060969Y-15042254D02*
X12060969Y-15089873D01*
X12060969Y-15089873D02*
X12051446Y-15108921D01*
X12051446Y-15108921D02*
X12041922Y-15118445D01*
X12041922Y-15118445D02*
X12022874Y-15127969D01*
X12022874Y-15127969D02*
X11965731Y-15127969D01*
X11965731Y-15127969D02*
X11946684Y-15118445D01*
X11946684Y-15118445D02*
X11937160Y-15108921D01*
X12184779Y-14927969D02*
X12203827Y-14927969D01*
X12203827Y-14927969D02*
X12222874Y-14937492D01*
X12222874Y-14937492D02*
X12232398Y-14947016D01*
X12232398Y-14947016D02*
X12241922Y-14966064D01*
X12241922Y-14966064D02*
X12251446Y-15004159D01*
X12251446Y-15004159D02*
X12251446Y-15051778D01*
X12251446Y-15051778D02*
X12241922Y-15089873D01*
X12241922Y-15089873D02*
X12232398Y-15108921D01*
X12232398Y-15108921D02*
X12222874Y-15118445D01*
X12222874Y-15118445D02*
X12203827Y-15127969D01*
X12203827Y-15127969D02*
X12184779Y-15127969D01*
X12184779Y-15127969D02*
X12165731Y-15118445D01*
X12165731Y-15118445D02*
X12156207Y-15108921D01*
X12156207Y-15108921D02*
X12146684Y-15089873D01*
X12146684Y-15089873D02*
X12137160Y-15051778D01*
X12137160Y-15051778D02*
X12137160Y-15004159D01*
X12137160Y-15004159D02*
X12146684Y-14966064D01*
X12146684Y-14966064D02*
X12156207Y-14947016D01*
X12156207Y-14947016D02*
X12165731Y-14937492D01*
X12165731Y-14937492D02*
X12184779Y-14927969D01*
X12327636Y-14927969D02*
X12327636Y-14966064D01*
X12403827Y-14927969D02*
X12403827Y-14966064D01*
X12699065Y-15204159D02*
X12689541Y-15194635D01*
X12689541Y-15194635D02*
X12670493Y-15166064D01*
X12670493Y-15166064D02*
X12660969Y-15147016D01*
X12660969Y-15147016D02*
X12651446Y-15118445D01*
X12651446Y-15118445D02*
X12641922Y-15070826D01*
X12641922Y-15070826D02*
X12641922Y-15032731D01*
X12641922Y-15032731D02*
X12651446Y-14985111D01*
X12651446Y-14985111D02*
X12660969Y-14956540D01*
X12660969Y-14956540D02*
X12670493Y-14937492D01*
X12670493Y-14937492D02*
X12689541Y-14908921D01*
X12689541Y-14908921D02*
X12699065Y-14899397D01*
X12860969Y-14994635D02*
X12860969Y-15127969D01*
X12813350Y-14918445D02*
X12765731Y-15061302D01*
X12765731Y-15061302D02*
X12889541Y-15061302D01*
X12956208Y-14947016D02*
X12965731Y-14937492D01*
X12965731Y-14937492D02*
X12984779Y-14927969D01*
X12984779Y-14927969D02*
X13032398Y-14927969D01*
X13032398Y-14927969D02*
X13051446Y-14937492D01*
X13051446Y-14937492D02*
X13060969Y-14947016D01*
X13060969Y-14947016D02*
X13070493Y-14966064D01*
X13070493Y-14966064D02*
X13070493Y-14985111D01*
X13070493Y-14985111D02*
X13060969Y-15013683D01*
X13060969Y-15013683D02*
X12946684Y-15127969D01*
X12946684Y-15127969D02*
X13070493Y-15127969D01*
X13308589Y-15127969D02*
X13308589Y-14927969D01*
X13394303Y-15127969D02*
X13394303Y-15023207D01*
X13394303Y-15023207D02*
X13384779Y-15004159D01*
X13384779Y-15004159D02*
X13365731Y-14994635D01*
X13365731Y-14994635D02*
X13337160Y-14994635D01*
X13337160Y-14994635D02*
X13318112Y-15004159D01*
X13318112Y-15004159D02*
X13308589Y-15013683D01*
X13518112Y-15127969D02*
X13499065Y-15118445D01*
X13499065Y-15118445D02*
X13489541Y-15108921D01*
X13489541Y-15108921D02*
X13480017Y-15089873D01*
X13480017Y-15089873D02*
X13480017Y-15032731D01*
X13480017Y-15032731D02*
X13489541Y-15013683D01*
X13489541Y-15013683D02*
X13499065Y-15004159D01*
X13499065Y-15004159D02*
X13518112Y-14994635D01*
X13518112Y-14994635D02*
X13546684Y-14994635D01*
X13546684Y-14994635D02*
X13565731Y-15004159D01*
X13565731Y-15004159D02*
X13575255Y-15013683D01*
X13575255Y-15013683D02*
X13584779Y-15032731D01*
X13584779Y-15032731D02*
X13584779Y-15089873D01*
X13584779Y-15089873D02*
X13575255Y-15108921D01*
X13575255Y-15108921D02*
X13565731Y-15118445D01*
X13565731Y-15118445D02*
X13546684Y-15127969D01*
X13546684Y-15127969D02*
X13518112Y-15127969D01*
X13699065Y-15127969D02*
X13680017Y-15118445D01*
X13680017Y-15118445D02*
X13670493Y-15099397D01*
X13670493Y-15099397D02*
X13670493Y-14927969D01*
X13851446Y-15118445D02*
X13832398Y-15127969D01*
X13832398Y-15127969D02*
X13794303Y-15127969D01*
X13794303Y-15127969D02*
X13775255Y-15118445D01*
X13775255Y-15118445D02*
X13765731Y-15099397D01*
X13765731Y-15099397D02*
X13765731Y-15023207D01*
X13765731Y-15023207D02*
X13775255Y-15004159D01*
X13775255Y-15004159D02*
X13794303Y-14994635D01*
X13794303Y-14994635D02*
X13832398Y-14994635D01*
X13832398Y-14994635D02*
X13851446Y-15004159D01*
X13851446Y-15004159D02*
X13860970Y-15023207D01*
X13860970Y-15023207D02*
X13860970Y-15042254D01*
X13860970Y-15042254D02*
X13765731Y-15061302D01*
X13937160Y-15118445D02*
X13956208Y-15127969D01*
X13956208Y-15127969D02*
X13994303Y-15127969D01*
X13994303Y-15127969D02*
X14013351Y-15118445D01*
X14013351Y-15118445D02*
X14022874Y-15099397D01*
X14022874Y-15099397D02*
X14022874Y-15089873D01*
X14022874Y-15089873D02*
X14013351Y-15070826D01*
X14013351Y-15070826D02*
X13994303Y-15061302D01*
X13994303Y-15061302D02*
X13965731Y-15061302D01*
X13965731Y-15061302D02*
X13946684Y-15051778D01*
X13946684Y-15051778D02*
X13937160Y-15032731D01*
X13937160Y-15032731D02*
X13937160Y-15023207D01*
X13937160Y-15023207D02*
X13946684Y-15004159D01*
X13946684Y-15004159D02*
X13965731Y-14994635D01*
X13965731Y-14994635D02*
X13994303Y-14994635D01*
X13994303Y-14994635D02*
X14013351Y-15004159D01*
X14089541Y-15204159D02*
X14099065Y-15194635D01*
X14099065Y-15194635D02*
X14118112Y-15166064D01*
X14118112Y-15166064D02*
X14127636Y-15147016D01*
X14127636Y-15147016D02*
X14137160Y-15118445D01*
X14137160Y-15118445D02*
X14146684Y-15070826D01*
X14146684Y-15070826D02*
X14146684Y-15032731D01*
X14146684Y-15032731D02*
X14137160Y-14985111D01*
X14137160Y-14985111D02*
X14127636Y-14956540D01*
X14127636Y-14956540D02*
X14118112Y-14937492D01*
X14118112Y-14937492D02*
X14099065Y-14908921D01*
X14099065Y-14908921D02*
X14089541Y-14899397D01*
M02*
