M48
; DRILL file {KiCad 8.0.8+1} date 2025-07-09T06:01:49+0000
; FORMAT={-:-/ absolute / metric / decimal}
; #@! TF.CreationDate,2025-07-09T06:01:49+00:00
; #@! TF.GenerationSoftware,Kicad,Pcbnew,8.0.8+1
; #@! TF.FileFunction,NonPlated,1,2,NPTH
FMAT,2
METRIC
; #@! TA.AperFunction,NonPlated,NPTH,ComponentDrill
T1C0.750
; #@! TA.AperFunction,NonPlated,NPTH,ComponentDrill
T2C0.900
; #@! TA.AperFunction,NonPlated,NPTH,ComponentDrill
T3C1.900
; #@! TA.AperFunction,NonPlated,NPTH,ComponentDrill
T4C2.200
; #@! TA.AperFunction,NonPlated,NPTH,ComponentDrill
T5C3.000
; #@! TA.AperFunction,NonPlated,NPTH,ComponentDrill
T6C4.300
; #@! TA.AperFunction,NonPlated,NPTH,ComponentDrill
T7C5.000
%
G90
G05
T1
X212.204Y-57.337
X212.204Y-60.087
T2
X219.775Y-101.25
X219.775Y-104.25
T3
X94.5Y-65.0
X94.5Y-65.0
X94.5Y-82.5
X94.5Y-82.5
X94.5Y-100.0
X94.5Y-100.0
X105.5Y-65.0
X105.5Y-65.0
X105.5Y-82.5
X105.5Y-82.5
X105.5Y-100.0
X105.5Y-100.0
X113.0Y-65.0
X113.0Y-65.0
X113.0Y-82.5
X113.0Y-82.5
X113.0Y-100.0
X113.0Y-100.0
X124.0Y-65.0
X124.0Y-65.0
X124.0Y-82.5
X124.0Y-82.5
X124.0Y-100.0
X124.0Y-100.0
X131.5Y-60.625
X131.5Y-60.625
X131.5Y-78.125
X131.5Y-78.125
X131.5Y-95.625
X131.5Y-95.625
X142.5Y-60.625
X142.5Y-60.625
X142.5Y-78.125
X142.5Y-78.125
X142.5Y-95.625
X142.5Y-95.625
X150.0Y-58.438
X150.0Y-58.438
X150.0Y-75.938
X150.0Y-75.938
X150.0Y-93.438
X150.0Y-93.438
X159.25Y-113.938
X159.25Y-113.938
X161.0Y-58.438
X161.0Y-58.438
X161.0Y-75.938
X161.0Y-75.938
X161.0Y-93.438
X161.0Y-93.438
X168.5Y-60.625
X168.5Y-60.625
X168.5Y-78.125
X168.5Y-78.125
X168.5Y-95.625
X168.5Y-95.625
X170.25Y-113.938
X170.25Y-113.938
X179.5Y-60.625
X179.5Y-60.625
X179.5Y-78.125
X179.5Y-78.125
X179.5Y-95.625
X179.5Y-95.625
X179.937Y-115.264
X179.937Y-115.264
X187.0Y-62.812
X187.0Y-62.812
X187.0Y-80.312
X187.0Y-80.312
X187.0Y-97.812
X187.0Y-97.812
X190.563Y-118.111
X190.563Y-118.111
X198.0Y-62.812
X198.0Y-62.812
X198.0Y-80.312
X198.0Y-80.312
X198.0Y-97.812
X198.0Y-97.812
X204.264Y-125.085
X204.264Y-125.085
X209.764Y-115.559
X209.764Y-115.559
T4
X204.927Y-100.438
X218.969Y-108.882
T5
X95.0Y-68.75
X95.0Y-86.25
X95.0Y-103.75
X100.0Y-70.95
X100.0Y-70.95
X100.0Y-88.45
X100.0Y-88.45
X100.0Y-105.95
X100.0Y-105.95
X105.0Y-68.75
X105.0Y-86.25
X105.0Y-103.75
X113.5Y-68.75
X113.5Y-86.25
X113.5Y-103.75
X118.5Y-70.95
X118.5Y-70.95
X118.5Y-88.45
X118.5Y-88.45
X118.5Y-105.95
X118.5Y-105.95
X123.5Y-68.75
X123.5Y-86.25
X123.5Y-103.75
X132.0Y-64.375
X132.0Y-81.875
X132.0Y-99.375
X137.0Y-66.575
X137.0Y-66.575
X137.0Y-84.075
X137.0Y-84.075
X137.0Y-101.575
X137.0Y-101.575
X142.0Y-64.375
X142.0Y-81.875
X142.0Y-99.375
X150.5Y-62.188
X150.5Y-79.688
X150.5Y-97.188
X155.5Y-64.388
X155.5Y-64.388
X155.5Y-81.888
X155.5Y-81.888
X155.5Y-99.387
X155.5Y-99.387
X159.75Y-117.688
X160.5Y-62.188
X160.5Y-79.688
X160.5Y-97.188
X164.75Y-119.887
X164.75Y-119.887
X169.0Y-64.375
X169.0Y-81.875
X169.0Y-99.375
X169.75Y-117.688
X174.0Y-66.575
X174.0Y-66.575
X174.0Y-84.075
X174.0Y-84.075
X174.0Y-101.575
X174.0Y-101.575
X179.0Y-64.375
X179.0Y-81.875
X179.0Y-99.375
X179.45Y-119.016
X183.71Y-122.435
X183.71Y-122.435
X187.5Y-66.562
X187.5Y-84.062
X187.5Y-101.562
X189.109Y-121.604
X192.5Y-68.763
X192.5Y-68.763
X192.5Y-86.263
X192.5Y-86.263
X192.5Y-103.762
X192.5Y-103.762
X197.5Y-66.562
X197.5Y-84.062
X197.5Y-101.562
X207.761Y-126.527
X212.167Y-123.297
X212.167Y-123.297
X212.761Y-117.867
T6
X109.25Y-73.75
X109.25Y-91.25
X151.157Y-107.365
X183.218Y-70.423
X197.158Y-114.632
T7
X100.0Y-65.0
X100.0Y-65.0
X100.0Y-82.5
X100.0Y-82.5
X100.0Y-100.0
X100.0Y-100.0
X118.5Y-65.0
X118.5Y-65.0
X118.5Y-82.5
X118.5Y-82.5
X118.5Y-100.0
X118.5Y-100.0
X137.0Y-60.625
X137.0Y-60.625
X137.0Y-78.125
X137.0Y-78.125
X137.0Y-95.625
X137.0Y-95.625
X155.5Y-58.438
X155.5Y-58.438
X155.5Y-75.938
X155.5Y-75.938
X155.5Y-93.438
X155.5Y-93.438
X164.75Y-113.938
X164.75Y-113.938
X174.0Y-60.625
X174.0Y-60.625
X174.0Y-78.125
X174.0Y-78.125
X174.0Y-95.625
X174.0Y-95.625
X185.25Y-116.688
X185.25Y-116.688
X192.5Y-62.812
X192.5Y-62.812
X192.5Y-80.312
X192.5Y-80.312
X192.5Y-97.812
X192.5Y-97.812
X207.014Y-120.322
X207.014Y-120.322
M30
