G04 #@! TF.GenerationSoftware,KiCad,Pcbnew,8.0.8+1*
G04 #@! TF.CreationDate,2025-07-09T05:02:12+00:00*
G04 #@! TF.ProjectId,corney_island,636f726e-6579-45f6-9973-6c616e642e6b,0.2*
G04 #@! TF.SameCoordinates,Original*
G04 #@! TF.FileFunction,Soldermask,Top*
G04 #@! TF.FilePolarity,Negative*
%FSLAX46Y46*%
G04 Gerber Fmt 4.6, Leading zero omitted, Abs format (unit mm)*
G04 Created by KiCad (PCBNEW 8.0.8+1) date 2025-07-09 05:02:12*
%MOMM*%
%LPD*%
G01*
G04 APERTURE LIST*
%ADD10C,2.300000*%
%ADD11C,4.400000*%
%ADD12C,5.100000*%
%ADD13C,2.000000*%
%ADD14C,3.100000*%
%ADD15C,1.800000*%
%ADD16C,0.900000*%
%ADD17O,1.800000X1.800000*%
%ADD18C,1.600000*%
%ADD19O,2.300000X1.700000*%
%ADD20O,3.400000X1.700000*%
G04 APERTURE END LIST*
D10*
X204927000Y-100438500D03*
X218969000Y-108882500D03*
D11*
X109250000Y-73750000D03*
X109250000Y-91250000D03*
X183218000Y-70423500D03*
X151157000Y-107365000D03*
X197157608Y-114631748D03*
D12*
X100000000Y-100000000D03*
D13*
X94500000Y-100000000D03*
X105500000Y-100000000D03*
X105000000Y-94850000D03*
D14*
X100000000Y-105950000D03*
X95000000Y-103750000D03*
D12*
X100000000Y-82500000D03*
D13*
X94500000Y-82500000D03*
X105500000Y-82500000D03*
X105000000Y-77350000D03*
D14*
X100000000Y-88450000D03*
X95000000Y-86250000D03*
D12*
X100000000Y-65000000D03*
D13*
X94500000Y-65000000D03*
X105500000Y-65000000D03*
X105000000Y-59850000D03*
D14*
X100000000Y-70950000D03*
X95000000Y-68750000D03*
D12*
X118500000Y-100000000D03*
D13*
X113000000Y-100000000D03*
X124000000Y-100000000D03*
X123500000Y-94850000D03*
D14*
X118500000Y-105950000D03*
X113500000Y-103750000D03*
D12*
X118500000Y-82500000D03*
D13*
X113000000Y-82500000D03*
X124000000Y-82500000D03*
X123500000Y-77350000D03*
D14*
X118500000Y-88450000D03*
X113500000Y-86250000D03*
D12*
X118500000Y-65000000D03*
D13*
X113000000Y-65000000D03*
X124000000Y-65000000D03*
X123500000Y-59850000D03*
D14*
X118500000Y-70950000D03*
X113500000Y-68750000D03*
D12*
X137000000Y-95625000D03*
D13*
X131500000Y-95625000D03*
X142500000Y-95625000D03*
X142000000Y-90475000D03*
D14*
X137000000Y-101575000D03*
X132000000Y-99375000D03*
D12*
X137000000Y-78125000D03*
D13*
X131500000Y-78125000D03*
X142500000Y-78125000D03*
X142000000Y-72975000D03*
D14*
X137000000Y-84075000D03*
X132000000Y-81875000D03*
D12*
X137000000Y-60625000D03*
D13*
X131500000Y-60625000D03*
X142500000Y-60625000D03*
X142000000Y-55475000D03*
D14*
X137000000Y-66575000D03*
X132000000Y-64375000D03*
D12*
X155500000Y-93437500D03*
D13*
X150000000Y-93437500D03*
X161000000Y-93437500D03*
X160500000Y-88287500D03*
D14*
X155500000Y-99387500D03*
X150500000Y-97187500D03*
D12*
X155500000Y-75937500D03*
D13*
X150000000Y-75937500D03*
X161000000Y-75937500D03*
X160500000Y-70787500D03*
D14*
X155500000Y-81887500D03*
X150500000Y-79687500D03*
D12*
X155500000Y-58437500D03*
D13*
X150000000Y-58437500D03*
X161000000Y-58437500D03*
X160500000Y-53287500D03*
D14*
X155500000Y-64387500D03*
X150500000Y-62187500D03*
D12*
X174000000Y-95625000D03*
D13*
X168500000Y-95625000D03*
X179500000Y-95625000D03*
X179000000Y-90475000D03*
D14*
X174000000Y-101575000D03*
X169000000Y-99375000D03*
D12*
X174000000Y-78125000D03*
D13*
X168500000Y-78125000D03*
X179500000Y-78125000D03*
X179000000Y-72975000D03*
D14*
X174000000Y-84075000D03*
X169000000Y-81875000D03*
D12*
X174000000Y-60625000D03*
D13*
X168500000Y-60625000D03*
X179500000Y-60625000D03*
X179000000Y-55475000D03*
D14*
X174000000Y-66575000D03*
X169000000Y-64375000D03*
D12*
X192500000Y-97812500D03*
D13*
X187000000Y-97812500D03*
X198000000Y-97812500D03*
X197500000Y-92662500D03*
D14*
X192500000Y-103762500D03*
X187500000Y-101562500D03*
D12*
X192500000Y-80312500D03*
D13*
X187000000Y-80312500D03*
X198000000Y-80312500D03*
X197500000Y-75162500D03*
D14*
X192500000Y-86262500D03*
X187500000Y-84062500D03*
D12*
X192500000Y-62812500D03*
D13*
X187000000Y-62812500D03*
X198000000Y-62812500D03*
X197500000Y-57662500D03*
D14*
X192500000Y-68762500D03*
X187500000Y-66562500D03*
D12*
X164750000Y-113937500D03*
D13*
X159250000Y-113937500D03*
X170250000Y-113937500D03*
X169750000Y-108787500D03*
D14*
X164750000Y-119887500D03*
X159750000Y-117687500D03*
D12*
X185250000Y-116687500D03*
D13*
X179937408Y-115263995D03*
X190562592Y-118111005D03*
X191412547Y-113007077D03*
D14*
X183710027Y-122434759D03*
X179449799Y-119015627D03*
D12*
X207013843Y-120322248D03*
D13*
X204263843Y-125085388D03*
X209763843Y-115559108D03*
X205053812Y-113417121D03*
D14*
X212166694Y-123297248D03*
X207761438Y-126527375D03*
D12*
X100000000Y-100000000D03*
D13*
X94500000Y-100000000D03*
X105500000Y-100000000D03*
X95000000Y-94850000D03*
D14*
X100000000Y-105950000D03*
X105000000Y-103750000D03*
G36*
G01*
X98075000Y-104650000D02*
X98075000Y-107250000D01*
G75*
G02*
X98025000Y-107300000I-50000J0D01*
G01*
X95425000Y-107300000D01*
G75*
G02*
X95375000Y-107250000I0J50000D01*
G01*
X95375000Y-104650000D01*
G75*
G02*
X95425000Y-104600000I50000J0D01*
G01*
X98025000Y-104600000D01*
G75*
G02*
X98075000Y-104650000I0J-50000D01*
G01*
G37*
G36*
G01*
X109625000Y-102450000D02*
X109625000Y-105050000D01*
G75*
G02*
X109575000Y-105100000I-50000J0D01*
G01*
X106975000Y-105100000D01*
G75*
G02*
X106925000Y-105050000I0J50000D01*
G01*
X106925000Y-102450000D01*
G75*
G02*
X106975000Y-102400000I50000J0D01*
G01*
X109575000Y-102400000D01*
G75*
G02*
X109625000Y-102450000I0J-50000D01*
G01*
G37*
D12*
X100000000Y-82500000D03*
D13*
X94500000Y-82500000D03*
X105500000Y-82500000D03*
X95000000Y-77350000D03*
D14*
X100000000Y-88450000D03*
X105000000Y-86250000D03*
G36*
G01*
X98075000Y-87150000D02*
X98075000Y-89750000D01*
G75*
G02*
X98025000Y-89800000I-50000J0D01*
G01*
X95425000Y-89800000D01*
G75*
G02*
X95375000Y-89750000I0J50000D01*
G01*
X95375000Y-87150000D01*
G75*
G02*
X95425000Y-87100000I50000J0D01*
G01*
X98025000Y-87100000D01*
G75*
G02*
X98075000Y-87150000I0J-50000D01*
G01*
G37*
G36*
G01*
X109625000Y-84950000D02*
X109625000Y-87550000D01*
G75*
G02*
X109575000Y-87600000I-50000J0D01*
G01*
X106975000Y-87600000D01*
G75*
G02*
X106925000Y-87550000I0J50000D01*
G01*
X106925000Y-84950000D01*
G75*
G02*
X106975000Y-84900000I50000J0D01*
G01*
X109575000Y-84900000D01*
G75*
G02*
X109625000Y-84950000I0J-50000D01*
G01*
G37*
D12*
X100000000Y-65000000D03*
D13*
X94500000Y-65000000D03*
X105500000Y-65000000D03*
X95000000Y-59850000D03*
D14*
X100000000Y-70950000D03*
X105000000Y-68750000D03*
G36*
G01*
X98075000Y-69650000D02*
X98075000Y-72250000D01*
G75*
G02*
X98025000Y-72300000I-50000J0D01*
G01*
X95425000Y-72300000D01*
G75*
G02*
X95375000Y-72250000I0J50000D01*
G01*
X95375000Y-69650000D01*
G75*
G02*
X95425000Y-69600000I50000J0D01*
G01*
X98025000Y-69600000D01*
G75*
G02*
X98075000Y-69650000I0J-50000D01*
G01*
G37*
G36*
G01*
X109625000Y-67450000D02*
X109625000Y-70050000D01*
G75*
G02*
X109575000Y-70100000I-50000J0D01*
G01*
X106975000Y-70100000D01*
G75*
G02*
X106925000Y-70050000I0J50000D01*
G01*
X106925000Y-67450000D01*
G75*
G02*
X106975000Y-67400000I50000J0D01*
G01*
X109575000Y-67400000D01*
G75*
G02*
X109625000Y-67450000I0J-50000D01*
G01*
G37*
D12*
X118500000Y-100000000D03*
D13*
X113000000Y-100000000D03*
X124000000Y-100000000D03*
X113500000Y-94850000D03*
D14*
X118500000Y-105950000D03*
X123500000Y-103750000D03*
G36*
G01*
X116575000Y-104650000D02*
X116575000Y-107250000D01*
G75*
G02*
X116525000Y-107300000I-50000J0D01*
G01*
X113925000Y-107300000D01*
G75*
G02*
X113875000Y-107250000I0J50000D01*
G01*
X113875000Y-104650000D01*
G75*
G02*
X113925000Y-104600000I50000J0D01*
G01*
X116525000Y-104600000D01*
G75*
G02*
X116575000Y-104650000I0J-50000D01*
G01*
G37*
G36*
G01*
X128125000Y-102450000D02*
X128125000Y-105050000D01*
G75*
G02*
X128075000Y-105100000I-50000J0D01*
G01*
X125475000Y-105100000D01*
G75*
G02*
X125425000Y-105050000I0J50000D01*
G01*
X125425000Y-102450000D01*
G75*
G02*
X125475000Y-102400000I50000J0D01*
G01*
X128075000Y-102400000D01*
G75*
G02*
X128125000Y-102450000I0J-50000D01*
G01*
G37*
D12*
X118500000Y-82500000D03*
D13*
X113000000Y-82500000D03*
X124000000Y-82500000D03*
X113500000Y-77350000D03*
D14*
X118500000Y-88450000D03*
X123500000Y-86250000D03*
G36*
G01*
X116575000Y-87150000D02*
X116575000Y-89750000D01*
G75*
G02*
X116525000Y-89800000I-50000J0D01*
G01*
X113925000Y-89800000D01*
G75*
G02*
X113875000Y-89750000I0J50000D01*
G01*
X113875000Y-87150000D01*
G75*
G02*
X113925000Y-87100000I50000J0D01*
G01*
X116525000Y-87100000D01*
G75*
G02*
X116575000Y-87150000I0J-50000D01*
G01*
G37*
G36*
G01*
X128125000Y-84950000D02*
X128125000Y-87550000D01*
G75*
G02*
X128075000Y-87600000I-50000J0D01*
G01*
X125475000Y-87600000D01*
G75*
G02*
X125425000Y-87550000I0J50000D01*
G01*
X125425000Y-84950000D01*
G75*
G02*
X125475000Y-84900000I50000J0D01*
G01*
X128075000Y-84900000D01*
G75*
G02*
X128125000Y-84950000I0J-50000D01*
G01*
G37*
D12*
X118500000Y-65000000D03*
D13*
X113000000Y-65000000D03*
X124000000Y-65000000D03*
X113500000Y-59850000D03*
D14*
X118500000Y-70950000D03*
X123500000Y-68750000D03*
G36*
G01*
X116575000Y-69650000D02*
X116575000Y-72250000D01*
G75*
G02*
X116525000Y-72300000I-50000J0D01*
G01*
X113925000Y-72300000D01*
G75*
G02*
X113875000Y-72250000I0J50000D01*
G01*
X113875000Y-69650000D01*
G75*
G02*
X113925000Y-69600000I50000J0D01*
G01*
X116525000Y-69600000D01*
G75*
G02*
X116575000Y-69650000I0J-50000D01*
G01*
G37*
G36*
G01*
X128125000Y-67450000D02*
X128125000Y-70050000D01*
G75*
G02*
X128075000Y-70100000I-50000J0D01*
G01*
X125475000Y-70100000D01*
G75*
G02*
X125425000Y-70050000I0J50000D01*
G01*
X125425000Y-67450000D01*
G75*
G02*
X125475000Y-67400000I50000J0D01*
G01*
X128075000Y-67400000D01*
G75*
G02*
X128125000Y-67450000I0J-50000D01*
G01*
G37*
D12*
X137000000Y-95625000D03*
D13*
X131500000Y-95625000D03*
X142500000Y-95625000D03*
X132000000Y-90475000D03*
D14*
X137000000Y-101575000D03*
X142000000Y-99375000D03*
G36*
G01*
X135075000Y-100275000D02*
X135075000Y-102875000D01*
G75*
G02*
X135025000Y-102925000I-50000J0D01*
G01*
X132425000Y-102925000D01*
G75*
G02*
X132375000Y-102875000I0J50000D01*
G01*
X132375000Y-100275000D01*
G75*
G02*
X132425000Y-100225000I50000J0D01*
G01*
X135025000Y-100225000D01*
G75*
G02*
X135075000Y-100275000I0J-50000D01*
G01*
G37*
G36*
G01*
X146625000Y-98075000D02*
X146625000Y-100675000D01*
G75*
G02*
X146575000Y-100725000I-50000J0D01*
G01*
X143975000Y-100725000D01*
G75*
G02*
X143925000Y-100675000I0J50000D01*
G01*
X143925000Y-98075000D01*
G75*
G02*
X143975000Y-98025000I50000J0D01*
G01*
X146575000Y-98025000D01*
G75*
G02*
X146625000Y-98075000I0J-50000D01*
G01*
G37*
D12*
X137000000Y-78125000D03*
D13*
X131500000Y-78125000D03*
X142500000Y-78125000D03*
X132000000Y-72975000D03*
D14*
X137000000Y-84075000D03*
X142000000Y-81875000D03*
G36*
G01*
X135075000Y-82775000D02*
X135075000Y-85375000D01*
G75*
G02*
X135025000Y-85425000I-50000J0D01*
G01*
X132425000Y-85425000D01*
G75*
G02*
X132375000Y-85375000I0J50000D01*
G01*
X132375000Y-82775000D01*
G75*
G02*
X132425000Y-82725000I50000J0D01*
G01*
X135025000Y-82725000D01*
G75*
G02*
X135075000Y-82775000I0J-50000D01*
G01*
G37*
G36*
G01*
X146625000Y-80575000D02*
X146625000Y-83175000D01*
G75*
G02*
X146575000Y-83225000I-50000J0D01*
G01*
X143975000Y-83225000D01*
G75*
G02*
X143925000Y-83175000I0J50000D01*
G01*
X143925000Y-80575000D01*
G75*
G02*
X143975000Y-80525000I50000J0D01*
G01*
X146575000Y-80525000D01*
G75*
G02*
X146625000Y-80575000I0J-50000D01*
G01*
G37*
D12*
X137000000Y-60625000D03*
D13*
X131500000Y-60625000D03*
X142500000Y-60625000D03*
X132000000Y-55475000D03*
D14*
X137000000Y-66575000D03*
X142000000Y-64375000D03*
G36*
G01*
X135075000Y-65275000D02*
X135075000Y-67875000D01*
G75*
G02*
X135025000Y-67925000I-50000J0D01*
G01*
X132425000Y-67925000D01*
G75*
G02*
X132375000Y-67875000I0J50000D01*
G01*
X132375000Y-65275000D01*
G75*
G02*
X132425000Y-65225000I50000J0D01*
G01*
X135025000Y-65225000D01*
G75*
G02*
X135075000Y-65275000I0J-50000D01*
G01*
G37*
G36*
G01*
X146625000Y-63075000D02*
X146625000Y-65675000D01*
G75*
G02*
X146575000Y-65725000I-50000J0D01*
G01*
X143975000Y-65725000D01*
G75*
G02*
X143925000Y-65675000I0J50000D01*
G01*
X143925000Y-63075000D01*
G75*
G02*
X143975000Y-63025000I50000J0D01*
G01*
X146575000Y-63025000D01*
G75*
G02*
X146625000Y-63075000I0J-50000D01*
G01*
G37*
D12*
X155500000Y-93437500D03*
D13*
X150000000Y-93437500D03*
X161000000Y-93437500D03*
X150500000Y-88287500D03*
D14*
X155500000Y-99387500D03*
X160500000Y-97187500D03*
G36*
G01*
X153575000Y-98087500D02*
X153575000Y-100687500D01*
G75*
G02*
X153525000Y-100737500I-50000J0D01*
G01*
X150925000Y-100737500D01*
G75*
G02*
X150875000Y-100687500I0J50000D01*
G01*
X150875000Y-98087500D01*
G75*
G02*
X150925000Y-98037500I50000J0D01*
G01*
X153525000Y-98037500D01*
G75*
G02*
X153575000Y-98087500I0J-50000D01*
G01*
G37*
G36*
G01*
X165125000Y-95887500D02*
X165125000Y-98487500D01*
G75*
G02*
X165075000Y-98537500I-50000J0D01*
G01*
X162475000Y-98537500D01*
G75*
G02*
X162425000Y-98487500I0J50000D01*
G01*
X162425000Y-95887500D01*
G75*
G02*
X162475000Y-95837500I50000J0D01*
G01*
X165075000Y-95837500D01*
G75*
G02*
X165125000Y-95887500I0J-50000D01*
G01*
G37*
D12*
X155500000Y-75937500D03*
D13*
X150000000Y-75937500D03*
X161000000Y-75937500D03*
X150500000Y-70787500D03*
D14*
X155500000Y-81887500D03*
X160500000Y-79687500D03*
G36*
G01*
X153575000Y-80587500D02*
X153575000Y-83187500D01*
G75*
G02*
X153525000Y-83237500I-50000J0D01*
G01*
X150925000Y-83237500D01*
G75*
G02*
X150875000Y-83187500I0J50000D01*
G01*
X150875000Y-80587500D01*
G75*
G02*
X150925000Y-80537500I50000J0D01*
G01*
X153525000Y-80537500D01*
G75*
G02*
X153575000Y-80587500I0J-50000D01*
G01*
G37*
G36*
G01*
X165125000Y-78387500D02*
X165125000Y-80987500D01*
G75*
G02*
X165075000Y-81037500I-50000J0D01*
G01*
X162475000Y-81037500D01*
G75*
G02*
X162425000Y-80987500I0J50000D01*
G01*
X162425000Y-78387500D01*
G75*
G02*
X162475000Y-78337500I50000J0D01*
G01*
X165075000Y-78337500D01*
G75*
G02*
X165125000Y-78387500I0J-50000D01*
G01*
G37*
D12*
X155500000Y-58437500D03*
D13*
X150000000Y-58437500D03*
X161000000Y-58437500D03*
X150500000Y-53287500D03*
D14*
X155500000Y-64387500D03*
X160500000Y-62187500D03*
G36*
G01*
X153575000Y-63087500D02*
X153575000Y-65687500D01*
G75*
G02*
X153525000Y-65737500I-50000J0D01*
G01*
X150925000Y-65737500D01*
G75*
G02*
X150875000Y-65687500I0J50000D01*
G01*
X150875000Y-63087500D01*
G75*
G02*
X150925000Y-63037500I50000J0D01*
G01*
X153525000Y-63037500D01*
G75*
G02*
X153575000Y-63087500I0J-50000D01*
G01*
G37*
G36*
G01*
X165125000Y-60887500D02*
X165125000Y-63487500D01*
G75*
G02*
X165075000Y-63537500I-50000J0D01*
G01*
X162475000Y-63537500D01*
G75*
G02*
X162425000Y-63487500I0J50000D01*
G01*
X162425000Y-60887500D01*
G75*
G02*
X162475000Y-60837500I50000J0D01*
G01*
X165075000Y-60837500D01*
G75*
G02*
X165125000Y-60887500I0J-50000D01*
G01*
G37*
D12*
X174000000Y-95625000D03*
D13*
X168500000Y-95625000D03*
X179500000Y-95625000D03*
X169000000Y-90475000D03*
D14*
X174000000Y-101575000D03*
X179000000Y-99375000D03*
G36*
G01*
X172075000Y-100275000D02*
X172075000Y-102875000D01*
G75*
G02*
X172025000Y-102925000I-50000J0D01*
G01*
X169425000Y-102925000D01*
G75*
G02*
X169375000Y-102875000I0J50000D01*
G01*
X169375000Y-100275000D01*
G75*
G02*
X169425000Y-100225000I50000J0D01*
G01*
X172025000Y-100225000D01*
G75*
G02*
X172075000Y-100275000I0J-50000D01*
G01*
G37*
G36*
G01*
X183625000Y-98075000D02*
X183625000Y-100675000D01*
G75*
G02*
X183575000Y-100725000I-50000J0D01*
G01*
X180975000Y-100725000D01*
G75*
G02*
X180925000Y-100675000I0J50000D01*
G01*
X180925000Y-98075000D01*
G75*
G02*
X180975000Y-98025000I50000J0D01*
G01*
X183575000Y-98025000D01*
G75*
G02*
X183625000Y-98075000I0J-50000D01*
G01*
G37*
D12*
X174000000Y-78125000D03*
D13*
X168500000Y-78125000D03*
X179500000Y-78125000D03*
X169000000Y-72975000D03*
D14*
X174000000Y-84075000D03*
X179000000Y-81875000D03*
G36*
G01*
X172075000Y-82775000D02*
X172075000Y-85375000D01*
G75*
G02*
X172025000Y-85425000I-50000J0D01*
G01*
X169425000Y-85425000D01*
G75*
G02*
X169375000Y-85375000I0J50000D01*
G01*
X169375000Y-82775000D01*
G75*
G02*
X169425000Y-82725000I50000J0D01*
G01*
X172025000Y-82725000D01*
G75*
G02*
X172075000Y-82775000I0J-50000D01*
G01*
G37*
G36*
G01*
X183625000Y-80575000D02*
X183625000Y-83175000D01*
G75*
G02*
X183575000Y-83225000I-50000J0D01*
G01*
X180975000Y-83225000D01*
G75*
G02*
X180925000Y-83175000I0J50000D01*
G01*
X180925000Y-80575000D01*
G75*
G02*
X180975000Y-80525000I50000J0D01*
G01*
X183575000Y-80525000D01*
G75*
G02*
X183625000Y-80575000I0J-50000D01*
G01*
G37*
D12*
X174000000Y-60625000D03*
D13*
X168500000Y-60625000D03*
X179500000Y-60625000D03*
X169000000Y-55475000D03*
D14*
X174000000Y-66575000D03*
X179000000Y-64375000D03*
G36*
G01*
X172075000Y-65275000D02*
X172075000Y-67875000D01*
G75*
G02*
X172025000Y-67925000I-50000J0D01*
G01*
X169425000Y-67925000D01*
G75*
G02*
X169375000Y-67875000I0J50000D01*
G01*
X169375000Y-65275000D01*
G75*
G02*
X169425000Y-65225000I50000J0D01*
G01*
X172025000Y-65225000D01*
G75*
G02*
X172075000Y-65275000I0J-50000D01*
G01*
G37*
G36*
G01*
X183625000Y-63075000D02*
X183625000Y-65675000D01*
G75*
G02*
X183575000Y-65725000I-50000J0D01*
G01*
X180975000Y-65725000D01*
G75*
G02*
X180925000Y-65675000I0J50000D01*
G01*
X180925000Y-63075000D01*
G75*
G02*
X180975000Y-63025000I50000J0D01*
G01*
X183575000Y-63025000D01*
G75*
G02*
X183625000Y-63075000I0J-50000D01*
G01*
G37*
D12*
X192500000Y-97812500D03*
D13*
X187000000Y-97812500D03*
X198000000Y-97812500D03*
X187500000Y-92662500D03*
D14*
X192500000Y-103762500D03*
X197500000Y-101562500D03*
G36*
G01*
X190575000Y-102462500D02*
X190575000Y-105062500D01*
G75*
G02*
X190525000Y-105112500I-50000J0D01*
G01*
X187925000Y-105112500D01*
G75*
G02*
X187875000Y-105062500I0J50000D01*
G01*
X187875000Y-102462500D01*
G75*
G02*
X187925000Y-102412500I50000J0D01*
G01*
X190525000Y-102412500D01*
G75*
G02*
X190575000Y-102462500I0J-50000D01*
G01*
G37*
G36*
G01*
X202125000Y-100262500D02*
X202125000Y-102862500D01*
G75*
G02*
X202075000Y-102912500I-50000J0D01*
G01*
X199475000Y-102912500D01*
G75*
G02*
X199425000Y-102862500I0J50000D01*
G01*
X199425000Y-100262500D01*
G75*
G02*
X199475000Y-100212500I50000J0D01*
G01*
X202075000Y-100212500D01*
G75*
G02*
X202125000Y-100262500I0J-50000D01*
G01*
G37*
D12*
X192500000Y-80312500D03*
D13*
X187000000Y-80312500D03*
X198000000Y-80312500D03*
X187500000Y-75162500D03*
D14*
X192500000Y-86262500D03*
X197500000Y-84062500D03*
G36*
G01*
X190575000Y-84962500D02*
X190575000Y-87562500D01*
G75*
G02*
X190525000Y-87612500I-50000J0D01*
G01*
X187925000Y-87612500D01*
G75*
G02*
X187875000Y-87562500I0J50000D01*
G01*
X187875000Y-84962500D01*
G75*
G02*
X187925000Y-84912500I50000J0D01*
G01*
X190525000Y-84912500D01*
G75*
G02*
X190575000Y-84962500I0J-50000D01*
G01*
G37*
G36*
G01*
X202125000Y-82762500D02*
X202125000Y-85362500D01*
G75*
G02*
X202075000Y-85412500I-50000J0D01*
G01*
X199475000Y-85412500D01*
G75*
G02*
X199425000Y-85362500I0J50000D01*
G01*
X199425000Y-82762500D01*
G75*
G02*
X199475000Y-82712500I50000J0D01*
G01*
X202075000Y-82712500D01*
G75*
G02*
X202125000Y-82762500I0J-50000D01*
G01*
G37*
D12*
X192500000Y-62812500D03*
D13*
X187000000Y-62812500D03*
X198000000Y-62812500D03*
X187500000Y-57662500D03*
D14*
X192500000Y-68762500D03*
X197500000Y-66562500D03*
G36*
G01*
X190575000Y-67462500D02*
X190575000Y-70062500D01*
G75*
G02*
X190525000Y-70112500I-50000J0D01*
G01*
X187925000Y-70112500D01*
G75*
G02*
X187875000Y-70062500I0J50000D01*
G01*
X187875000Y-67462500D01*
G75*
G02*
X187925000Y-67412500I50000J0D01*
G01*
X190525000Y-67412500D01*
G75*
G02*
X190575000Y-67462500I0J-50000D01*
G01*
G37*
G36*
G01*
X202125000Y-65262500D02*
X202125000Y-67862500D01*
G75*
G02*
X202075000Y-67912500I-50000J0D01*
G01*
X199475000Y-67912500D01*
G75*
G02*
X199425000Y-67862500I0J50000D01*
G01*
X199425000Y-65262500D01*
G75*
G02*
X199475000Y-65212500I50000J0D01*
G01*
X202075000Y-65212500D01*
G75*
G02*
X202125000Y-65262500I0J-50000D01*
G01*
G37*
D12*
X164750000Y-113937500D03*
D13*
X159250000Y-113937500D03*
X170250000Y-113937500D03*
X159750000Y-108787500D03*
D14*
X164750000Y-119887500D03*
X169750000Y-117687500D03*
G36*
G01*
X162825000Y-118587500D02*
X162825000Y-121187500D01*
G75*
G02*
X162775000Y-121237500I-50000J0D01*
G01*
X160175000Y-121237500D01*
G75*
G02*
X160125000Y-121187500I0J50000D01*
G01*
X160125000Y-118587500D01*
G75*
G02*
X160175000Y-118537500I50000J0D01*
G01*
X162775000Y-118537500D01*
G75*
G02*
X162825000Y-118587500I0J-50000D01*
G01*
G37*
G36*
G01*
X174375000Y-116387500D02*
X174375000Y-118987500D01*
G75*
G02*
X174325000Y-119037500I-50000J0D01*
G01*
X171725000Y-119037500D01*
G75*
G02*
X171675000Y-118987500I0J50000D01*
G01*
X171675000Y-116387500D01*
G75*
G02*
X171725000Y-116337500I50000J0D01*
G01*
X174325000Y-116337500D01*
G75*
G02*
X174375000Y-116387500I0J-50000D01*
G01*
G37*
D12*
X185250000Y-116687500D03*
D13*
X179937408Y-115263995D03*
X190562592Y-118111005D03*
X181753289Y-110418887D03*
D14*
X183710027Y-122434759D03*
X189109058Y-121603817D03*
G36*
G01*
X182187084Y-120680828D02*
X181514155Y-123192235D01*
G75*
G02*
X181452918Y-123227590I-48296J12941D01*
G01*
X178941511Y-122554661D01*
G75*
G02*
X178906156Y-122493424I12941J48296D01*
G01*
X179579085Y-119982017D01*
G75*
G02*
X179640322Y-119946662I48296J-12941D01*
G01*
X182151729Y-120619591D01*
G75*
G02*
X182187084Y-120680828I-12941J-48296D01*
G01*
G37*
G36*
G01*
X193912929Y-121545151D02*
X193240000Y-124056558D01*
G75*
G02*
X193178763Y-124091913I-48296J12941D01*
G01*
X190667356Y-123418984D01*
G75*
G02*
X190632001Y-123357747I12941J48296D01*
G01*
X191304930Y-120846340D01*
G75*
G02*
X191366167Y-120810985I48296J-12941D01*
G01*
X193877574Y-121483914D01*
G75*
G02*
X193912929Y-121545151I-12941J-48296D01*
G01*
G37*
D12*
X207013843Y-120322248D03*
D13*
X204263843Y-125085388D03*
X209763843Y-115559108D03*
X200053812Y-122077375D03*
D14*
X212166694Y-123297248D03*
X212761438Y-117867121D03*
G36*
G01*
X210078361Y-124314347D02*
X212330027Y-125614347D01*
G75*
G02*
X212348328Y-125682648I-25000J-43301D01*
G01*
X211048328Y-127934314D01*
G75*
G02*
X210980027Y-127952615I-43301J25000D01*
G01*
X208728361Y-126652615D01*
G75*
G02*
X208710060Y-126584314I25000J43301D01*
G01*
X210010060Y-124332648D01*
G75*
G02*
X210078361Y-124314347I43301J-25000D01*
G01*
G37*
G36*
G01*
X213948105Y-113211754D02*
X216199771Y-114511754D01*
G75*
G02*
X216218072Y-114580055I-25000J-43301D01*
G01*
X214918072Y-116831721D01*
G75*
G02*
X214849771Y-116850022I-43301J25000D01*
G01*
X212598105Y-115550022D01*
G75*
G02*
X212579804Y-115481721I25000J43301D01*
G01*
X213879804Y-113230055D01*
G75*
G02*
X213948105Y-113211754I43301J-25000D01*
G01*
G37*
G36*
G01*
X107150000Y-96350000D02*
X108350000Y-96350000D01*
G75*
G02*
X108400000Y-96400000I0J-50000D01*
G01*
X108400000Y-97300000D01*
G75*
G02*
X108350000Y-97350000I-50000J0D01*
G01*
X107150000Y-97350000D01*
G75*
G02*
X107100000Y-97300000I0J50000D01*
G01*
X107100000Y-96400000D01*
G75*
G02*
X107150000Y-96350000I50000J0D01*
G01*
G37*
G36*
G01*
X107150000Y-99650000D02*
X108350000Y-99650000D01*
G75*
G02*
X108400000Y-99700000I0J-50000D01*
G01*
X108400000Y-100600000D01*
G75*
G02*
X108350000Y-100650000I-50000J0D01*
G01*
X107150000Y-100650000D01*
G75*
G02*
X107100000Y-100600000I0J50000D01*
G01*
X107100000Y-99700000D01*
G75*
G02*
X107150000Y-99650000I50000J0D01*
G01*
G37*
G36*
G01*
X107150000Y-78850000D02*
X108350000Y-78850000D01*
G75*
G02*
X108400000Y-78900000I0J-50000D01*
G01*
X108400000Y-79800000D01*
G75*
G02*
X108350000Y-79850000I-50000J0D01*
G01*
X107150000Y-79850000D01*
G75*
G02*
X107100000Y-79800000I0J50000D01*
G01*
X107100000Y-78900000D01*
G75*
G02*
X107150000Y-78850000I50000J0D01*
G01*
G37*
G36*
G01*
X107150000Y-82150000D02*
X108350000Y-82150000D01*
G75*
G02*
X108400000Y-82200000I0J-50000D01*
G01*
X108400000Y-83100000D01*
G75*
G02*
X108350000Y-83150000I-50000J0D01*
G01*
X107150000Y-83150000D01*
G75*
G02*
X107100000Y-83100000I0J50000D01*
G01*
X107100000Y-82200000D01*
G75*
G02*
X107150000Y-82150000I50000J0D01*
G01*
G37*
G36*
G01*
X107150000Y-61350000D02*
X108350000Y-61350000D01*
G75*
G02*
X108400000Y-61400000I0J-50000D01*
G01*
X108400000Y-62300000D01*
G75*
G02*
X108350000Y-62350000I-50000J0D01*
G01*
X107150000Y-62350000D01*
G75*
G02*
X107100000Y-62300000I0J50000D01*
G01*
X107100000Y-61400000D01*
G75*
G02*
X107150000Y-61350000I50000J0D01*
G01*
G37*
G36*
G01*
X107150000Y-64650000D02*
X108350000Y-64650000D01*
G75*
G02*
X108400000Y-64700000I0J-50000D01*
G01*
X108400000Y-65600000D01*
G75*
G02*
X108350000Y-65650000I-50000J0D01*
G01*
X107150000Y-65650000D01*
G75*
G02*
X107100000Y-65600000I0J50000D01*
G01*
X107100000Y-64700000D01*
G75*
G02*
X107150000Y-64650000I50000J0D01*
G01*
G37*
G36*
G01*
X125650000Y-96350000D02*
X126850000Y-96350000D01*
G75*
G02*
X126900000Y-96400000I0J-50000D01*
G01*
X126900000Y-97300000D01*
G75*
G02*
X126850000Y-97350000I-50000J0D01*
G01*
X125650000Y-97350000D01*
G75*
G02*
X125600000Y-97300000I0J50000D01*
G01*
X125600000Y-96400000D01*
G75*
G02*
X125650000Y-96350000I50000J0D01*
G01*
G37*
G36*
G01*
X125650000Y-99650000D02*
X126850000Y-99650000D01*
G75*
G02*
X126900000Y-99700000I0J-50000D01*
G01*
X126900000Y-100600000D01*
G75*
G02*
X126850000Y-100650000I-50000J0D01*
G01*
X125650000Y-100650000D01*
G75*
G02*
X125600000Y-100600000I0J50000D01*
G01*
X125600000Y-99700000D01*
G75*
G02*
X125650000Y-99650000I50000J0D01*
G01*
G37*
G36*
G01*
X125650000Y-78850000D02*
X126850000Y-78850000D01*
G75*
G02*
X126900000Y-78900000I0J-50000D01*
G01*
X126900000Y-79800000D01*
G75*
G02*
X126850000Y-79850000I-50000J0D01*
G01*
X125650000Y-79850000D01*
G75*
G02*
X125600000Y-79800000I0J50000D01*
G01*
X125600000Y-78900000D01*
G75*
G02*
X125650000Y-78850000I50000J0D01*
G01*
G37*
G36*
G01*
X125650000Y-82150000D02*
X126850000Y-82150000D01*
G75*
G02*
X126900000Y-82200000I0J-50000D01*
G01*
X126900000Y-83100000D01*
G75*
G02*
X126850000Y-83150000I-50000J0D01*
G01*
X125650000Y-83150000D01*
G75*
G02*
X125600000Y-83100000I0J50000D01*
G01*
X125600000Y-82200000D01*
G75*
G02*
X125650000Y-82150000I50000J0D01*
G01*
G37*
G36*
G01*
X125650000Y-61350000D02*
X126850000Y-61350000D01*
G75*
G02*
X126900000Y-61400000I0J-50000D01*
G01*
X126900000Y-62300000D01*
G75*
G02*
X126850000Y-62350000I-50000J0D01*
G01*
X125650000Y-62350000D01*
G75*
G02*
X125600000Y-62300000I0J50000D01*
G01*
X125600000Y-61400000D01*
G75*
G02*
X125650000Y-61350000I50000J0D01*
G01*
G37*
G36*
G01*
X125650000Y-64650000D02*
X126850000Y-64650000D01*
G75*
G02*
X126900000Y-64700000I0J-50000D01*
G01*
X126900000Y-65600000D01*
G75*
G02*
X126850000Y-65650000I-50000J0D01*
G01*
X125650000Y-65650000D01*
G75*
G02*
X125600000Y-65600000I0J50000D01*
G01*
X125600000Y-64700000D01*
G75*
G02*
X125650000Y-64650000I50000J0D01*
G01*
G37*
G36*
G01*
X144150000Y-91975000D02*
X145350000Y-91975000D01*
G75*
G02*
X145400000Y-92025000I0J-50000D01*
G01*
X145400000Y-92925000D01*
G75*
G02*
X145350000Y-92975000I-50000J0D01*
G01*
X144150000Y-92975000D01*
G75*
G02*
X144100000Y-92925000I0J50000D01*
G01*
X144100000Y-92025000D01*
G75*
G02*
X144150000Y-91975000I50000J0D01*
G01*
G37*
G36*
G01*
X144150000Y-95275000D02*
X145350000Y-95275000D01*
G75*
G02*
X145400000Y-95325000I0J-50000D01*
G01*
X145400000Y-96225000D01*
G75*
G02*
X145350000Y-96275000I-50000J0D01*
G01*
X144150000Y-96275000D01*
G75*
G02*
X144100000Y-96225000I0J50000D01*
G01*
X144100000Y-95325000D01*
G75*
G02*
X144150000Y-95275000I50000J0D01*
G01*
G37*
G36*
G01*
X144150000Y-74475000D02*
X145350000Y-74475000D01*
G75*
G02*
X145400000Y-74525000I0J-50000D01*
G01*
X145400000Y-75425000D01*
G75*
G02*
X145350000Y-75475000I-50000J0D01*
G01*
X144150000Y-75475000D01*
G75*
G02*
X144100000Y-75425000I0J50000D01*
G01*
X144100000Y-74525000D01*
G75*
G02*
X144150000Y-74475000I50000J0D01*
G01*
G37*
G36*
G01*
X144150000Y-77775000D02*
X145350000Y-77775000D01*
G75*
G02*
X145400000Y-77825000I0J-50000D01*
G01*
X145400000Y-78725000D01*
G75*
G02*
X145350000Y-78775000I-50000J0D01*
G01*
X144150000Y-78775000D01*
G75*
G02*
X144100000Y-78725000I0J50000D01*
G01*
X144100000Y-77825000D01*
G75*
G02*
X144150000Y-77775000I50000J0D01*
G01*
G37*
G36*
G01*
X144150000Y-56975000D02*
X145350000Y-56975000D01*
G75*
G02*
X145400000Y-57025000I0J-50000D01*
G01*
X145400000Y-57925000D01*
G75*
G02*
X145350000Y-57975000I-50000J0D01*
G01*
X144150000Y-57975000D01*
G75*
G02*
X144100000Y-57925000I0J50000D01*
G01*
X144100000Y-57025000D01*
G75*
G02*
X144150000Y-56975000I50000J0D01*
G01*
G37*
G36*
G01*
X144150000Y-60275000D02*
X145350000Y-60275000D01*
G75*
G02*
X145400000Y-60325000I0J-50000D01*
G01*
X145400000Y-61225000D01*
G75*
G02*
X145350000Y-61275000I-50000J0D01*
G01*
X144150000Y-61275000D01*
G75*
G02*
X144100000Y-61225000I0J50000D01*
G01*
X144100000Y-60325000D01*
G75*
G02*
X144150000Y-60275000I50000J0D01*
G01*
G37*
G36*
G01*
X162650000Y-89787500D02*
X163850000Y-89787500D01*
G75*
G02*
X163900000Y-89837500I0J-50000D01*
G01*
X163900000Y-90737500D01*
G75*
G02*
X163850000Y-90787500I-50000J0D01*
G01*
X162650000Y-90787500D01*
G75*
G02*
X162600000Y-90737500I0J50000D01*
G01*
X162600000Y-89837500D01*
G75*
G02*
X162650000Y-89787500I50000J0D01*
G01*
G37*
G36*
G01*
X162650000Y-93087500D02*
X163850000Y-93087500D01*
G75*
G02*
X163900000Y-93137500I0J-50000D01*
G01*
X163900000Y-94037500D01*
G75*
G02*
X163850000Y-94087500I-50000J0D01*
G01*
X162650000Y-94087500D01*
G75*
G02*
X162600000Y-94037500I0J50000D01*
G01*
X162600000Y-93137500D01*
G75*
G02*
X162650000Y-93087500I50000J0D01*
G01*
G37*
G36*
G01*
X162650000Y-72287500D02*
X163850000Y-72287500D01*
G75*
G02*
X163900000Y-72337500I0J-50000D01*
G01*
X163900000Y-73237500D01*
G75*
G02*
X163850000Y-73287500I-50000J0D01*
G01*
X162650000Y-73287500D01*
G75*
G02*
X162600000Y-73237500I0J50000D01*
G01*
X162600000Y-72337500D01*
G75*
G02*
X162650000Y-72287500I50000J0D01*
G01*
G37*
G36*
G01*
X162650000Y-75587500D02*
X163850000Y-75587500D01*
G75*
G02*
X163900000Y-75637500I0J-50000D01*
G01*
X163900000Y-76537500D01*
G75*
G02*
X163850000Y-76587500I-50000J0D01*
G01*
X162650000Y-76587500D01*
G75*
G02*
X162600000Y-76537500I0J50000D01*
G01*
X162600000Y-75637500D01*
G75*
G02*
X162650000Y-75587500I50000J0D01*
G01*
G37*
G36*
G01*
X162650000Y-54787500D02*
X163850000Y-54787500D01*
G75*
G02*
X163900000Y-54837500I0J-50000D01*
G01*
X163900000Y-55737500D01*
G75*
G02*
X163850000Y-55787500I-50000J0D01*
G01*
X162650000Y-55787500D01*
G75*
G02*
X162600000Y-55737500I0J50000D01*
G01*
X162600000Y-54837500D01*
G75*
G02*
X162650000Y-54787500I50000J0D01*
G01*
G37*
G36*
G01*
X162650000Y-58087500D02*
X163850000Y-58087500D01*
G75*
G02*
X163900000Y-58137500I0J-50000D01*
G01*
X163900000Y-59037500D01*
G75*
G02*
X163850000Y-59087500I-50000J0D01*
G01*
X162650000Y-59087500D01*
G75*
G02*
X162600000Y-59037500I0J50000D01*
G01*
X162600000Y-58137500D01*
G75*
G02*
X162650000Y-58087500I50000J0D01*
G01*
G37*
G36*
G01*
X181150000Y-91975000D02*
X182350000Y-91975000D01*
G75*
G02*
X182400000Y-92025000I0J-50000D01*
G01*
X182400000Y-92925000D01*
G75*
G02*
X182350000Y-92975000I-50000J0D01*
G01*
X181150000Y-92975000D01*
G75*
G02*
X181100000Y-92925000I0J50000D01*
G01*
X181100000Y-92025000D01*
G75*
G02*
X181150000Y-91975000I50000J0D01*
G01*
G37*
G36*
G01*
X181150000Y-95275000D02*
X182350000Y-95275000D01*
G75*
G02*
X182400000Y-95325000I0J-50000D01*
G01*
X182400000Y-96225000D01*
G75*
G02*
X182350000Y-96275000I-50000J0D01*
G01*
X181150000Y-96275000D01*
G75*
G02*
X181100000Y-96225000I0J50000D01*
G01*
X181100000Y-95325000D01*
G75*
G02*
X181150000Y-95275000I50000J0D01*
G01*
G37*
G36*
G01*
X181150000Y-74475000D02*
X182350000Y-74475000D01*
G75*
G02*
X182400000Y-74525000I0J-50000D01*
G01*
X182400000Y-75425000D01*
G75*
G02*
X182350000Y-75475000I-50000J0D01*
G01*
X181150000Y-75475000D01*
G75*
G02*
X181100000Y-75425000I0J50000D01*
G01*
X181100000Y-74525000D01*
G75*
G02*
X181150000Y-74475000I50000J0D01*
G01*
G37*
G36*
G01*
X181150000Y-77775000D02*
X182350000Y-77775000D01*
G75*
G02*
X182400000Y-77825000I0J-50000D01*
G01*
X182400000Y-78725000D01*
G75*
G02*
X182350000Y-78775000I-50000J0D01*
G01*
X181150000Y-78775000D01*
G75*
G02*
X181100000Y-78725000I0J50000D01*
G01*
X181100000Y-77825000D01*
G75*
G02*
X181150000Y-77775000I50000J0D01*
G01*
G37*
G36*
G01*
X181150000Y-56975000D02*
X182350000Y-56975000D01*
G75*
G02*
X182400000Y-57025000I0J-50000D01*
G01*
X182400000Y-57925000D01*
G75*
G02*
X182350000Y-57975000I-50000J0D01*
G01*
X181150000Y-57975000D01*
G75*
G02*
X181100000Y-57925000I0J50000D01*
G01*
X181100000Y-57025000D01*
G75*
G02*
X181150000Y-56975000I50000J0D01*
G01*
G37*
G36*
G01*
X181150000Y-60275000D02*
X182350000Y-60275000D01*
G75*
G02*
X182400000Y-60325000I0J-50000D01*
G01*
X182400000Y-61225000D01*
G75*
G02*
X182350000Y-61275000I-50000J0D01*
G01*
X181150000Y-61275000D01*
G75*
G02*
X181100000Y-61225000I0J50000D01*
G01*
X181100000Y-60325000D01*
G75*
G02*
X181150000Y-60275000I50000J0D01*
G01*
G37*
G36*
G01*
X199650000Y-94162500D02*
X200850000Y-94162500D01*
G75*
G02*
X200900000Y-94212500I0J-50000D01*
G01*
X200900000Y-95112500D01*
G75*
G02*
X200850000Y-95162500I-50000J0D01*
G01*
X199650000Y-95162500D01*
G75*
G02*
X199600000Y-95112500I0J50000D01*
G01*
X199600000Y-94212500D01*
G75*
G02*
X199650000Y-94162500I50000J0D01*
G01*
G37*
G36*
G01*
X199650000Y-97462500D02*
X200850000Y-97462500D01*
G75*
G02*
X200900000Y-97512500I0J-50000D01*
G01*
X200900000Y-98412500D01*
G75*
G02*
X200850000Y-98462500I-50000J0D01*
G01*
X199650000Y-98462500D01*
G75*
G02*
X199600000Y-98412500I0J50000D01*
G01*
X199600000Y-97512500D01*
G75*
G02*
X199650000Y-97462500I50000J0D01*
G01*
G37*
G36*
G01*
X199650000Y-76662500D02*
X200850000Y-76662500D01*
G75*
G02*
X200900000Y-76712500I0J-50000D01*
G01*
X200900000Y-77612500D01*
G75*
G02*
X200850000Y-77662500I-50000J0D01*
G01*
X199650000Y-77662500D01*
G75*
G02*
X199600000Y-77612500I0J50000D01*
G01*
X199600000Y-76712500D01*
G75*
G02*
X199650000Y-76662500I50000J0D01*
G01*
G37*
G36*
G01*
X199650000Y-79962500D02*
X200850000Y-79962500D01*
G75*
G02*
X200900000Y-80012500I0J-50000D01*
G01*
X200900000Y-80912500D01*
G75*
G02*
X200850000Y-80962500I-50000J0D01*
G01*
X199650000Y-80962500D01*
G75*
G02*
X199600000Y-80912500I0J50000D01*
G01*
X199600000Y-80012500D01*
G75*
G02*
X199650000Y-79962500I50000J0D01*
G01*
G37*
G36*
G01*
X199650000Y-59162500D02*
X200850000Y-59162500D01*
G75*
G02*
X200900000Y-59212500I0J-50000D01*
G01*
X200900000Y-60112500D01*
G75*
G02*
X200850000Y-60162500I-50000J0D01*
G01*
X199650000Y-60162500D01*
G75*
G02*
X199600000Y-60112500I0J50000D01*
G01*
X199600000Y-59212500D01*
G75*
G02*
X199650000Y-59162500I50000J0D01*
G01*
G37*
G36*
G01*
X199650000Y-62462500D02*
X200850000Y-62462500D01*
G75*
G02*
X200900000Y-62512500I0J-50000D01*
G01*
X200900000Y-63412500D01*
G75*
G02*
X200850000Y-63462500I-50000J0D01*
G01*
X199650000Y-63462500D01*
G75*
G02*
X199600000Y-63412500I0J50000D01*
G01*
X199600000Y-62512500D01*
G75*
G02*
X199650000Y-62462500I50000J0D01*
G01*
G37*
G36*
G01*
X171900000Y-110287500D02*
X173100000Y-110287500D01*
G75*
G02*
X173150000Y-110337500I0J-50000D01*
G01*
X173150000Y-111237500D01*
G75*
G02*
X173100000Y-111287500I-50000J0D01*
G01*
X171900000Y-111287500D01*
G75*
G02*
X171850000Y-111237500I0J50000D01*
G01*
X171850000Y-110337500D01*
G75*
G02*
X171900000Y-110287500I50000J0D01*
G01*
G37*
G36*
G01*
X171900000Y-113587500D02*
X173100000Y-113587500D01*
G75*
G02*
X173150000Y-113637500I0J-50000D01*
G01*
X173150000Y-114537500D01*
G75*
G02*
X173100000Y-114587500I-50000J0D01*
G01*
X171900000Y-114587500D01*
G75*
G02*
X171850000Y-114537500I0J50000D01*
G01*
X171850000Y-113637500D01*
G75*
G02*
X171900000Y-113587500I50000J0D01*
G01*
G37*
G36*
G01*
X193101059Y-115012427D02*
X194260170Y-115323010D01*
G75*
G02*
X194295525Y-115384247I-12941J-48296D01*
G01*
X194062588Y-116253580D01*
G75*
G02*
X194001351Y-116288935I-48296J12941D01*
G01*
X192842240Y-115978352D01*
G75*
G02*
X192806885Y-115917115I12941J48296D01*
G01*
X193039822Y-115047782D01*
G75*
G02*
X193101059Y-115012427I48296J-12941D01*
G01*
G37*
G36*
G01*
X192246957Y-118199983D02*
X193406068Y-118510566D01*
G75*
G02*
X193441423Y-118571803I-12941J-48296D01*
G01*
X193208486Y-119441136D01*
G75*
G02*
X193147249Y-119476491I-48296J12941D01*
G01*
X191988138Y-119165908D01*
G75*
G02*
X191952783Y-119104671I12941J48296D01*
G01*
X192185720Y-118235338D01*
G75*
G02*
X192246957Y-118199983I48296J-12941D01*
G01*
G37*
G36*
G01*
X207427851Y-112305166D02*
X208027851Y-111265936D01*
G75*
G02*
X208096152Y-111247635I43301J-25000D01*
G01*
X208875574Y-111697635D01*
G75*
G02*
X208893875Y-111765936I-25000J-43301D01*
G01*
X208293875Y-112805166D01*
G75*
G02*
X208225574Y-112823467I-43301J25000D01*
G01*
X207446152Y-112373467D01*
G75*
G02*
X207427851Y-112305166I25000J43301D01*
G01*
G37*
G36*
G01*
X210285735Y-113955166D02*
X210885735Y-112915936D01*
G75*
G02*
X210954036Y-112897635I43301J-25000D01*
G01*
X211733458Y-113347635D01*
G75*
G02*
X211751759Y-113415936I-25000J-43301D01*
G01*
X211151759Y-114455166D01*
G75*
G02*
X211083458Y-114473467I-43301J25000D01*
G01*
X210304036Y-114023467D01*
G75*
G02*
X210285735Y-113955166I25000J43301D01*
G01*
G37*
D15*
X204584000Y-61920000D03*
X219824000Y-61920000D03*
D16*
X208804000Y-61920000D03*
X215604000Y-61920000D03*
G36*
G01*
X206374000Y-62520000D02*
X206374000Y-61320000D01*
G75*
G02*
X206424000Y-61270000I50000J0D01*
G01*
X207024000Y-61270000D01*
G75*
G02*
X207074000Y-61320000I0J-50000D01*
G01*
X207074000Y-62520000D01*
G75*
G02*
X207024000Y-62570000I-50000J0D01*
G01*
X206424000Y-62570000D01*
G75*
G02*
X206374000Y-62520000I0J50000D01*
G01*
G37*
G36*
G01*
X207274000Y-62520000D02*
X207274000Y-61320000D01*
G75*
G02*
X207324000Y-61270000I50000J0D01*
G01*
X207924000Y-61270000D01*
G75*
G02*
X207974000Y-61320000I0J-50000D01*
G01*
X207974000Y-62520000D01*
G75*
G02*
X207924000Y-62570000I-50000J0D01*
G01*
X207324000Y-62570000D01*
G75*
G02*
X207274000Y-62520000I0J50000D01*
G01*
G37*
G36*
G01*
X216434000Y-62520000D02*
X216434000Y-61320000D01*
G75*
G02*
X216484000Y-61270000I50000J0D01*
G01*
X217084000Y-61270000D01*
G75*
G02*
X217134000Y-61320000I0J-50000D01*
G01*
X217134000Y-62520000D01*
G75*
G02*
X217084000Y-62570000I-50000J0D01*
G01*
X216484000Y-62570000D01*
G75*
G02*
X216434000Y-62520000I0J50000D01*
G01*
G37*
G36*
G01*
X217334000Y-62520000D02*
X217334000Y-61320000D01*
G75*
G02*
X217384000Y-61270000I50000J0D01*
G01*
X217984000Y-61270000D01*
G75*
G02*
X218034000Y-61320000I0J-50000D01*
G01*
X218034000Y-62520000D01*
G75*
G02*
X217984000Y-62570000I-50000J0D01*
G01*
X217384000Y-62570000D01*
G75*
G02*
X217334000Y-62520000I0J50000D01*
G01*
G37*
D15*
X204584000Y-64460000D03*
X219824000Y-64460000D03*
D16*
X208804000Y-64460000D03*
X215604000Y-64460000D03*
G36*
G01*
X206374000Y-65060000D02*
X206374000Y-63860000D01*
G75*
G02*
X206424000Y-63810000I50000J0D01*
G01*
X207024000Y-63810000D01*
G75*
G02*
X207074000Y-63860000I0J-50000D01*
G01*
X207074000Y-65060000D01*
G75*
G02*
X207024000Y-65110000I-50000J0D01*
G01*
X206424000Y-65110000D01*
G75*
G02*
X206374000Y-65060000I0J50000D01*
G01*
G37*
G36*
G01*
X207274000Y-65060000D02*
X207274000Y-63860000D01*
G75*
G02*
X207324000Y-63810000I50000J0D01*
G01*
X207924000Y-63810000D01*
G75*
G02*
X207974000Y-63860000I0J-50000D01*
G01*
X207974000Y-65060000D01*
G75*
G02*
X207924000Y-65110000I-50000J0D01*
G01*
X207324000Y-65110000D01*
G75*
G02*
X207274000Y-65060000I0J50000D01*
G01*
G37*
G36*
G01*
X216434000Y-65060000D02*
X216434000Y-63860000D01*
G75*
G02*
X216484000Y-63810000I50000J0D01*
G01*
X217084000Y-63810000D01*
G75*
G02*
X217134000Y-63860000I0J-50000D01*
G01*
X217134000Y-65060000D01*
G75*
G02*
X217084000Y-65110000I-50000J0D01*
G01*
X216484000Y-65110000D01*
G75*
G02*
X216434000Y-65060000I0J50000D01*
G01*
G37*
G36*
G01*
X217334000Y-65060000D02*
X217334000Y-63860000D01*
G75*
G02*
X217384000Y-63810000I50000J0D01*
G01*
X217984000Y-63810000D01*
G75*
G02*
X218034000Y-63860000I0J-50000D01*
G01*
X218034000Y-65060000D01*
G75*
G02*
X217984000Y-65110000I-50000J0D01*
G01*
X217384000Y-65110000D01*
G75*
G02*
X217334000Y-65060000I0J50000D01*
G01*
G37*
D15*
X204584000Y-67000000D03*
X219824000Y-67000000D03*
D16*
X208804000Y-67000000D03*
X215604000Y-67000000D03*
G36*
G01*
X206374000Y-67600000D02*
X206374000Y-66400000D01*
G75*
G02*
X206424000Y-66350000I50000J0D01*
G01*
X207024000Y-66350000D01*
G75*
G02*
X207074000Y-66400000I0J-50000D01*
G01*
X207074000Y-67600000D01*
G75*
G02*
X207024000Y-67650000I-50000J0D01*
G01*
X206424000Y-67650000D01*
G75*
G02*
X206374000Y-67600000I0J50000D01*
G01*
G37*
G36*
G01*
X207274000Y-67600000D02*
X207274000Y-66400000D01*
G75*
G02*
X207324000Y-66350000I50000J0D01*
G01*
X207924000Y-66350000D01*
G75*
G02*
X207974000Y-66400000I0J-50000D01*
G01*
X207974000Y-67600000D01*
G75*
G02*
X207924000Y-67650000I-50000J0D01*
G01*
X207324000Y-67650000D01*
G75*
G02*
X207274000Y-67600000I0J50000D01*
G01*
G37*
G36*
G01*
X216434000Y-67600000D02*
X216434000Y-66400000D01*
G75*
G02*
X216484000Y-66350000I50000J0D01*
G01*
X217084000Y-66350000D01*
G75*
G02*
X217134000Y-66400000I0J-50000D01*
G01*
X217134000Y-67600000D01*
G75*
G02*
X217084000Y-67650000I-50000J0D01*
G01*
X216484000Y-67650000D01*
G75*
G02*
X216434000Y-67600000I0J50000D01*
G01*
G37*
G36*
G01*
X217334000Y-67600000D02*
X217334000Y-66400000D01*
G75*
G02*
X217384000Y-66350000I50000J0D01*
G01*
X217984000Y-66350000D01*
G75*
G02*
X218034000Y-66400000I0J-50000D01*
G01*
X218034000Y-67600000D01*
G75*
G02*
X217984000Y-67650000I-50000J0D01*
G01*
X217384000Y-67650000D01*
G75*
G02*
X217334000Y-67600000I0J50000D01*
G01*
G37*
D15*
X204584000Y-69540000D03*
X219824000Y-69540000D03*
D16*
X208804000Y-69540000D03*
X215604000Y-69540000D03*
G36*
G01*
X206374000Y-70140000D02*
X206374000Y-68940000D01*
G75*
G02*
X206424000Y-68890000I50000J0D01*
G01*
X207024000Y-68890000D01*
G75*
G02*
X207074000Y-68940000I0J-50000D01*
G01*
X207074000Y-70140000D01*
G75*
G02*
X207024000Y-70190000I-50000J0D01*
G01*
X206424000Y-70190000D01*
G75*
G02*
X206374000Y-70140000I0J50000D01*
G01*
G37*
G36*
G01*
X207274000Y-70140000D02*
X207274000Y-68940000D01*
G75*
G02*
X207324000Y-68890000I50000J0D01*
G01*
X207924000Y-68890000D01*
G75*
G02*
X207974000Y-68940000I0J-50000D01*
G01*
X207974000Y-70140000D01*
G75*
G02*
X207924000Y-70190000I-50000J0D01*
G01*
X207324000Y-70190000D01*
G75*
G02*
X207274000Y-70140000I0J50000D01*
G01*
G37*
G36*
G01*
X216434000Y-70140000D02*
X216434000Y-68940000D01*
G75*
G02*
X216484000Y-68890000I50000J0D01*
G01*
X217084000Y-68890000D01*
G75*
G02*
X217134000Y-68940000I0J-50000D01*
G01*
X217134000Y-70140000D01*
G75*
G02*
X217084000Y-70190000I-50000J0D01*
G01*
X216484000Y-70190000D01*
G75*
G02*
X216434000Y-70140000I0J50000D01*
G01*
G37*
G36*
G01*
X217334000Y-70140000D02*
X217334000Y-68940000D01*
G75*
G02*
X217384000Y-68890000I50000J0D01*
G01*
X217984000Y-68890000D01*
G75*
G02*
X218034000Y-68940000I0J-50000D01*
G01*
X218034000Y-70140000D01*
G75*
G02*
X217984000Y-70190000I-50000J0D01*
G01*
X217384000Y-70190000D01*
G75*
G02*
X217334000Y-70140000I0J50000D01*
G01*
G37*
D15*
X204584000Y-72080000D03*
X219824000Y-72080000D03*
D16*
X208804000Y-72080000D03*
X215604000Y-72080000D03*
G36*
G01*
X206374000Y-72680000D02*
X206374000Y-71480000D01*
G75*
G02*
X206424000Y-71430000I50000J0D01*
G01*
X207024000Y-71430000D01*
G75*
G02*
X207074000Y-71480000I0J-50000D01*
G01*
X207074000Y-72680000D01*
G75*
G02*
X207024000Y-72730000I-50000J0D01*
G01*
X206424000Y-72730000D01*
G75*
G02*
X206374000Y-72680000I0J50000D01*
G01*
G37*
G36*
G01*
X207274000Y-72680000D02*
X207274000Y-71480000D01*
G75*
G02*
X207324000Y-71430000I50000J0D01*
G01*
X207924000Y-71430000D01*
G75*
G02*
X207974000Y-71480000I0J-50000D01*
G01*
X207974000Y-72680000D01*
G75*
G02*
X207924000Y-72730000I-50000J0D01*
G01*
X207324000Y-72730000D01*
G75*
G02*
X207274000Y-72680000I0J50000D01*
G01*
G37*
G36*
G01*
X216434000Y-72680000D02*
X216434000Y-71480000D01*
G75*
G02*
X216484000Y-71430000I50000J0D01*
G01*
X217084000Y-71430000D01*
G75*
G02*
X217134000Y-71480000I0J-50000D01*
G01*
X217134000Y-72680000D01*
G75*
G02*
X217084000Y-72730000I-50000J0D01*
G01*
X216484000Y-72730000D01*
G75*
G02*
X216434000Y-72680000I0J50000D01*
G01*
G37*
G36*
G01*
X217334000Y-72680000D02*
X217334000Y-71480000D01*
G75*
G02*
X217384000Y-71430000I50000J0D01*
G01*
X217984000Y-71430000D01*
G75*
G02*
X218034000Y-71480000I0J-50000D01*
G01*
X218034000Y-72680000D01*
G75*
G02*
X217984000Y-72730000I-50000J0D01*
G01*
X217384000Y-72730000D01*
G75*
G02*
X217334000Y-72680000I0J50000D01*
G01*
G37*
D15*
X204584000Y-74620000D03*
X219824000Y-74620000D03*
D16*
X208804000Y-74620000D03*
X215604000Y-74620000D03*
G36*
G01*
X206374000Y-75220000D02*
X206374000Y-74020000D01*
G75*
G02*
X206424000Y-73970000I50000J0D01*
G01*
X207024000Y-73970000D01*
G75*
G02*
X207074000Y-74020000I0J-50000D01*
G01*
X207074000Y-75220000D01*
G75*
G02*
X207024000Y-75270000I-50000J0D01*
G01*
X206424000Y-75270000D01*
G75*
G02*
X206374000Y-75220000I0J50000D01*
G01*
G37*
G36*
G01*
X207274000Y-75220000D02*
X207274000Y-74020000D01*
G75*
G02*
X207324000Y-73970000I50000J0D01*
G01*
X207924000Y-73970000D01*
G75*
G02*
X207974000Y-74020000I0J-50000D01*
G01*
X207974000Y-75220000D01*
G75*
G02*
X207924000Y-75270000I-50000J0D01*
G01*
X207324000Y-75270000D01*
G75*
G02*
X207274000Y-75220000I0J50000D01*
G01*
G37*
G36*
G01*
X216434000Y-75220000D02*
X216434000Y-74020000D01*
G75*
G02*
X216484000Y-73970000I50000J0D01*
G01*
X217084000Y-73970000D01*
G75*
G02*
X217134000Y-74020000I0J-50000D01*
G01*
X217134000Y-75220000D01*
G75*
G02*
X217084000Y-75270000I-50000J0D01*
G01*
X216484000Y-75270000D01*
G75*
G02*
X216434000Y-75220000I0J50000D01*
G01*
G37*
G36*
G01*
X217334000Y-75220000D02*
X217334000Y-74020000D01*
G75*
G02*
X217384000Y-73970000I50000J0D01*
G01*
X217984000Y-73970000D01*
G75*
G02*
X218034000Y-74020000I0J-50000D01*
G01*
X218034000Y-75220000D01*
G75*
G02*
X217984000Y-75270000I-50000J0D01*
G01*
X217384000Y-75270000D01*
G75*
G02*
X217334000Y-75220000I0J50000D01*
G01*
G37*
D15*
X204584000Y-77160000D03*
X219824000Y-77160000D03*
D16*
X208804000Y-77160000D03*
X215604000Y-77160000D03*
G36*
G01*
X206374000Y-77760000D02*
X206374000Y-76560000D01*
G75*
G02*
X206424000Y-76510000I50000J0D01*
G01*
X207024000Y-76510000D01*
G75*
G02*
X207074000Y-76560000I0J-50000D01*
G01*
X207074000Y-77760000D01*
G75*
G02*
X207024000Y-77810000I-50000J0D01*
G01*
X206424000Y-77810000D01*
G75*
G02*
X206374000Y-77760000I0J50000D01*
G01*
G37*
G36*
G01*
X207274000Y-77760000D02*
X207274000Y-76560000D01*
G75*
G02*
X207324000Y-76510000I50000J0D01*
G01*
X207924000Y-76510000D01*
G75*
G02*
X207974000Y-76560000I0J-50000D01*
G01*
X207974000Y-77760000D01*
G75*
G02*
X207924000Y-77810000I-50000J0D01*
G01*
X207324000Y-77810000D01*
G75*
G02*
X207274000Y-77760000I0J50000D01*
G01*
G37*
G36*
G01*
X216434000Y-77760000D02*
X216434000Y-76560000D01*
G75*
G02*
X216484000Y-76510000I50000J0D01*
G01*
X217084000Y-76510000D01*
G75*
G02*
X217134000Y-76560000I0J-50000D01*
G01*
X217134000Y-77760000D01*
G75*
G02*
X217084000Y-77810000I-50000J0D01*
G01*
X216484000Y-77810000D01*
G75*
G02*
X216434000Y-77760000I0J50000D01*
G01*
G37*
G36*
G01*
X217334000Y-77760000D02*
X217334000Y-76560000D01*
G75*
G02*
X217384000Y-76510000I50000J0D01*
G01*
X217984000Y-76510000D01*
G75*
G02*
X218034000Y-76560000I0J-50000D01*
G01*
X218034000Y-77760000D01*
G75*
G02*
X217984000Y-77810000I-50000J0D01*
G01*
X217384000Y-77810000D01*
G75*
G02*
X217334000Y-77760000I0J50000D01*
G01*
G37*
D15*
X204584000Y-79700000D03*
X219824000Y-79700000D03*
D16*
X208804000Y-79700000D03*
X215604000Y-79700000D03*
G36*
G01*
X206374000Y-80300000D02*
X206374000Y-79100000D01*
G75*
G02*
X206424000Y-79050000I50000J0D01*
G01*
X207024000Y-79050000D01*
G75*
G02*
X207074000Y-79100000I0J-50000D01*
G01*
X207074000Y-80300000D01*
G75*
G02*
X207024000Y-80350000I-50000J0D01*
G01*
X206424000Y-80350000D01*
G75*
G02*
X206374000Y-80300000I0J50000D01*
G01*
G37*
G36*
G01*
X207274000Y-80300000D02*
X207274000Y-79100000D01*
G75*
G02*
X207324000Y-79050000I50000J0D01*
G01*
X207924000Y-79050000D01*
G75*
G02*
X207974000Y-79100000I0J-50000D01*
G01*
X207974000Y-80300000D01*
G75*
G02*
X207924000Y-80350000I-50000J0D01*
G01*
X207324000Y-80350000D01*
G75*
G02*
X207274000Y-80300000I0J50000D01*
G01*
G37*
G36*
G01*
X216434000Y-80300000D02*
X216434000Y-79100000D01*
G75*
G02*
X216484000Y-79050000I50000J0D01*
G01*
X217084000Y-79050000D01*
G75*
G02*
X217134000Y-79100000I0J-50000D01*
G01*
X217134000Y-80300000D01*
G75*
G02*
X217084000Y-80350000I-50000J0D01*
G01*
X216484000Y-80350000D01*
G75*
G02*
X216434000Y-80300000I0J50000D01*
G01*
G37*
G36*
G01*
X217334000Y-80300000D02*
X217334000Y-79100000D01*
G75*
G02*
X217384000Y-79050000I50000J0D01*
G01*
X217984000Y-79050000D01*
G75*
G02*
X218034000Y-79100000I0J-50000D01*
G01*
X218034000Y-80300000D01*
G75*
G02*
X217984000Y-80350000I-50000J0D01*
G01*
X217384000Y-80350000D01*
G75*
G02*
X217334000Y-80300000I0J50000D01*
G01*
G37*
D15*
X204584000Y-82240000D03*
X219824000Y-82240000D03*
D16*
X208804000Y-82240000D03*
X215604000Y-82240000D03*
G36*
G01*
X206374000Y-82840000D02*
X206374000Y-81640000D01*
G75*
G02*
X206424000Y-81590000I50000J0D01*
G01*
X207024000Y-81590000D01*
G75*
G02*
X207074000Y-81640000I0J-50000D01*
G01*
X207074000Y-82840000D01*
G75*
G02*
X207024000Y-82890000I-50000J0D01*
G01*
X206424000Y-82890000D01*
G75*
G02*
X206374000Y-82840000I0J50000D01*
G01*
G37*
G36*
G01*
X207274000Y-82840000D02*
X207274000Y-81640000D01*
G75*
G02*
X207324000Y-81590000I50000J0D01*
G01*
X207924000Y-81590000D01*
G75*
G02*
X207974000Y-81640000I0J-50000D01*
G01*
X207974000Y-82840000D01*
G75*
G02*
X207924000Y-82890000I-50000J0D01*
G01*
X207324000Y-82890000D01*
G75*
G02*
X207274000Y-82840000I0J50000D01*
G01*
G37*
G36*
G01*
X216434000Y-82840000D02*
X216434000Y-81640000D01*
G75*
G02*
X216484000Y-81590000I50000J0D01*
G01*
X217084000Y-81590000D01*
G75*
G02*
X217134000Y-81640000I0J-50000D01*
G01*
X217134000Y-82840000D01*
G75*
G02*
X217084000Y-82890000I-50000J0D01*
G01*
X216484000Y-82890000D01*
G75*
G02*
X216434000Y-82840000I0J50000D01*
G01*
G37*
G36*
G01*
X217334000Y-82840000D02*
X217334000Y-81640000D01*
G75*
G02*
X217384000Y-81590000I50000J0D01*
G01*
X217984000Y-81590000D01*
G75*
G02*
X218034000Y-81640000I0J-50000D01*
G01*
X218034000Y-82840000D01*
G75*
G02*
X217984000Y-82890000I-50000J0D01*
G01*
X217384000Y-82890000D01*
G75*
G02*
X217334000Y-82840000I0J50000D01*
G01*
G37*
D15*
X204584000Y-84780000D03*
X219824000Y-84780000D03*
D16*
X208804000Y-84780000D03*
X215604000Y-84780000D03*
G36*
G01*
X206374000Y-85380000D02*
X206374000Y-84180000D01*
G75*
G02*
X206424000Y-84130000I50000J0D01*
G01*
X207024000Y-84130000D01*
G75*
G02*
X207074000Y-84180000I0J-50000D01*
G01*
X207074000Y-85380000D01*
G75*
G02*
X207024000Y-85430000I-50000J0D01*
G01*
X206424000Y-85430000D01*
G75*
G02*
X206374000Y-85380000I0J50000D01*
G01*
G37*
G36*
G01*
X207274000Y-85380000D02*
X207274000Y-84180000D01*
G75*
G02*
X207324000Y-84130000I50000J0D01*
G01*
X207924000Y-84130000D01*
G75*
G02*
X207974000Y-84180000I0J-50000D01*
G01*
X207974000Y-85380000D01*
G75*
G02*
X207924000Y-85430000I-50000J0D01*
G01*
X207324000Y-85430000D01*
G75*
G02*
X207274000Y-85380000I0J50000D01*
G01*
G37*
G36*
G01*
X216434000Y-85380000D02*
X216434000Y-84180000D01*
G75*
G02*
X216484000Y-84130000I50000J0D01*
G01*
X217084000Y-84130000D01*
G75*
G02*
X217134000Y-84180000I0J-50000D01*
G01*
X217134000Y-85380000D01*
G75*
G02*
X217084000Y-85430000I-50000J0D01*
G01*
X216484000Y-85430000D01*
G75*
G02*
X216434000Y-85380000I0J50000D01*
G01*
G37*
G36*
G01*
X217334000Y-85380000D02*
X217334000Y-84180000D01*
G75*
G02*
X217384000Y-84130000I50000J0D01*
G01*
X217984000Y-84130000D01*
G75*
G02*
X218034000Y-84180000I0J-50000D01*
G01*
X218034000Y-85380000D01*
G75*
G02*
X217984000Y-85430000I-50000J0D01*
G01*
X217384000Y-85430000D01*
G75*
G02*
X217334000Y-85380000I0J50000D01*
G01*
G37*
D15*
X204584000Y-87320000D03*
X219824000Y-87320000D03*
D16*
X208804000Y-87320000D03*
X215604000Y-87320000D03*
G36*
G01*
X206374000Y-87920000D02*
X206374000Y-86720000D01*
G75*
G02*
X206424000Y-86670000I50000J0D01*
G01*
X207024000Y-86670000D01*
G75*
G02*
X207074000Y-86720000I0J-50000D01*
G01*
X207074000Y-87920000D01*
G75*
G02*
X207024000Y-87970000I-50000J0D01*
G01*
X206424000Y-87970000D01*
G75*
G02*
X206374000Y-87920000I0J50000D01*
G01*
G37*
G36*
G01*
X207274000Y-87920000D02*
X207274000Y-86720000D01*
G75*
G02*
X207324000Y-86670000I50000J0D01*
G01*
X207924000Y-86670000D01*
G75*
G02*
X207974000Y-86720000I0J-50000D01*
G01*
X207974000Y-87920000D01*
G75*
G02*
X207924000Y-87970000I-50000J0D01*
G01*
X207324000Y-87970000D01*
G75*
G02*
X207274000Y-87920000I0J50000D01*
G01*
G37*
G36*
G01*
X216434000Y-87920000D02*
X216434000Y-86720000D01*
G75*
G02*
X216484000Y-86670000I50000J0D01*
G01*
X217084000Y-86670000D01*
G75*
G02*
X217134000Y-86720000I0J-50000D01*
G01*
X217134000Y-87920000D01*
G75*
G02*
X217084000Y-87970000I-50000J0D01*
G01*
X216484000Y-87970000D01*
G75*
G02*
X216434000Y-87920000I0J50000D01*
G01*
G37*
G36*
G01*
X217334000Y-87920000D02*
X217334000Y-86720000D01*
G75*
G02*
X217384000Y-86670000I50000J0D01*
G01*
X217984000Y-86670000D01*
G75*
G02*
X218034000Y-86720000I0J-50000D01*
G01*
X218034000Y-87920000D01*
G75*
G02*
X217984000Y-87970000I-50000J0D01*
G01*
X217384000Y-87970000D01*
G75*
G02*
X217334000Y-87920000I0J50000D01*
G01*
G37*
D15*
X204584000Y-89860000D03*
X219824000Y-89860000D03*
D16*
X208804000Y-89860000D03*
X215604000Y-89860000D03*
G36*
G01*
X206374000Y-90460000D02*
X206374000Y-89260000D01*
G75*
G02*
X206424000Y-89210000I50000J0D01*
G01*
X207024000Y-89210000D01*
G75*
G02*
X207074000Y-89260000I0J-50000D01*
G01*
X207074000Y-90460000D01*
G75*
G02*
X207024000Y-90510000I-50000J0D01*
G01*
X206424000Y-90510000D01*
G75*
G02*
X206374000Y-90460000I0J50000D01*
G01*
G37*
G36*
G01*
X207274000Y-90460000D02*
X207274000Y-89260000D01*
G75*
G02*
X207324000Y-89210000I50000J0D01*
G01*
X207924000Y-89210000D01*
G75*
G02*
X207974000Y-89260000I0J-50000D01*
G01*
X207974000Y-90460000D01*
G75*
G02*
X207924000Y-90510000I-50000J0D01*
G01*
X207324000Y-90510000D01*
G75*
G02*
X207274000Y-90460000I0J50000D01*
G01*
G37*
G36*
G01*
X216434000Y-90460000D02*
X216434000Y-89260000D01*
G75*
G02*
X216484000Y-89210000I50000J0D01*
G01*
X217084000Y-89210000D01*
G75*
G02*
X217134000Y-89260000I0J-50000D01*
G01*
X217134000Y-90460000D01*
G75*
G02*
X217084000Y-90510000I-50000J0D01*
G01*
X216484000Y-90510000D01*
G75*
G02*
X216434000Y-90460000I0J50000D01*
G01*
G37*
G36*
G01*
X217334000Y-90460000D02*
X217334000Y-89260000D01*
G75*
G02*
X217384000Y-89210000I50000J0D01*
G01*
X217984000Y-89210000D01*
G75*
G02*
X218034000Y-89260000I0J-50000D01*
G01*
X218034000Y-90460000D01*
G75*
G02*
X217984000Y-90510000I-50000J0D01*
G01*
X217384000Y-90510000D01*
G75*
G02*
X217334000Y-90460000I0J50000D01*
G01*
G37*
G36*
G01*
X208687000Y-94708000D02*
X207487000Y-94708000D01*
G75*
G02*
X207437000Y-94658000I0J50000D01*
G01*
X207437000Y-94058000D01*
G75*
G02*
X207487000Y-94008000I50000J0D01*
G01*
X208687000Y-94008000D01*
G75*
G02*
X208737000Y-94058000I0J-50000D01*
G01*
X208737000Y-94658000D01*
G75*
G02*
X208687000Y-94708000I-50000J0D01*
G01*
G37*
G36*
G01*
X211227000Y-94708000D02*
X210027000Y-94708000D01*
G75*
G02*
X209977000Y-94658000I0J50000D01*
G01*
X209977000Y-94058000D01*
G75*
G02*
X210027000Y-94008000I50000J0D01*
G01*
X211227000Y-94008000D01*
G75*
G02*
X211277000Y-94058000I0J-50000D01*
G01*
X211277000Y-94658000D01*
G75*
G02*
X211227000Y-94708000I-50000J0D01*
G01*
G37*
G36*
G01*
X213767000Y-94708000D02*
X212567000Y-94708000D01*
G75*
G02*
X212517000Y-94658000I0J50000D01*
G01*
X212517000Y-94058000D01*
G75*
G02*
X212567000Y-94008000I50000J0D01*
G01*
X213767000Y-94008000D01*
G75*
G02*
X213817000Y-94058000I0J-50000D01*
G01*
X213817000Y-94658000D01*
G75*
G02*
X213767000Y-94708000I-50000J0D01*
G01*
G37*
G36*
G01*
X216307000Y-94708000D02*
X215107000Y-94708000D01*
G75*
G02*
X215057000Y-94658000I0J50000D01*
G01*
X215057000Y-94058000D01*
G75*
G02*
X215107000Y-94008000I50000J0D01*
G01*
X216307000Y-94008000D01*
G75*
G02*
X216357000Y-94058000I0J-50000D01*
G01*
X216357000Y-94658000D01*
G75*
G02*
X216307000Y-94708000I-50000J0D01*
G01*
G37*
G36*
G01*
X208687000Y-95608000D02*
X207487000Y-95608000D01*
G75*
G02*
X207437000Y-95558000I0J50000D01*
G01*
X207437000Y-94958000D01*
G75*
G02*
X207487000Y-94908000I50000J0D01*
G01*
X208687000Y-94908000D01*
G75*
G02*
X208737000Y-94958000I0J-50000D01*
G01*
X208737000Y-95558000D01*
G75*
G02*
X208687000Y-95608000I-50000J0D01*
G01*
G37*
G36*
G01*
X211227000Y-95608000D02*
X210027000Y-95608000D01*
G75*
G02*
X209977000Y-95558000I0J50000D01*
G01*
X209977000Y-94958000D01*
G75*
G02*
X210027000Y-94908000I50000J0D01*
G01*
X211227000Y-94908000D01*
G75*
G02*
X211277000Y-94958000I0J-50000D01*
G01*
X211277000Y-95558000D01*
G75*
G02*
X211227000Y-95608000I-50000J0D01*
G01*
G37*
G36*
G01*
X213767000Y-95608000D02*
X212567000Y-95608000D01*
G75*
G02*
X212517000Y-95558000I0J50000D01*
G01*
X212517000Y-94958000D01*
G75*
G02*
X212567000Y-94908000I50000J0D01*
G01*
X213767000Y-94908000D01*
G75*
G02*
X213817000Y-94958000I0J-50000D01*
G01*
X213817000Y-95558000D01*
G75*
G02*
X213767000Y-95608000I-50000J0D01*
G01*
G37*
G36*
G01*
X216307000Y-95608000D02*
X215107000Y-95608000D01*
G75*
G02*
X215057000Y-95558000I0J50000D01*
G01*
X215057000Y-94958000D01*
G75*
G02*
X215107000Y-94908000I50000J0D01*
G01*
X216307000Y-94908000D01*
G75*
G02*
X216357000Y-94958000I0J-50000D01*
G01*
X216357000Y-95558000D01*
G75*
G02*
X216307000Y-95608000I-50000J0D01*
G01*
G37*
D17*
X208087000Y-97008000D03*
X210627000Y-97008000D03*
X213167000Y-97008000D03*
X215707000Y-97008000D03*
D15*
X219600000Y-99751000D03*
X219600000Y-93251000D03*
D18*
X212760000Y-106560000D03*
X219760000Y-106560000D03*
D19*
X218160000Y-104260000D03*
X215160000Y-104260000D03*
D20*
X210610000Y-104260000D03*
D19*
X218160000Y-108860000D03*
X215160000Y-108860000D03*
D20*
X210610000Y-108860000D03*
G36*
G01*
X96550000Y-95100000D02*
X96550000Y-94100000D01*
G75*
G02*
X96600000Y-94050000I50000J0D01*
G01*
X98000000Y-94050000D01*
G75*
G02*
X98050000Y-94100000I0J-50000D01*
G01*
X98050000Y-95100000D01*
G75*
G02*
X98000000Y-95150000I-50000J0D01*
G01*
X96600000Y-95150000D01*
G75*
G02*
X96550000Y-95100000I0J50000D01*
G01*
G37*
G36*
G01*
X96550000Y-96500000D02*
X96550000Y-95500000D01*
G75*
G02*
X96600000Y-95450000I50000J0D01*
G01*
X98000000Y-95450000D01*
G75*
G02*
X98050000Y-95500000I0J-50000D01*
G01*
X98050000Y-96500000D01*
G75*
G02*
X98000000Y-96550000I-50000J0D01*
G01*
X96600000Y-96550000D01*
G75*
G02*
X96550000Y-96500000I0J50000D01*
G01*
G37*
G36*
G01*
X101950000Y-95100000D02*
X101950000Y-94100000D01*
G75*
G02*
X102000000Y-94050000I50000J0D01*
G01*
X103400000Y-94050000D01*
G75*
G02*
X103450000Y-94100000I0J-50000D01*
G01*
X103450000Y-95100000D01*
G75*
G02*
X103400000Y-95150000I-50000J0D01*
G01*
X102000000Y-95150000D01*
G75*
G02*
X101950000Y-95100000I0J50000D01*
G01*
G37*
G36*
G01*
X101950000Y-96500000D02*
X101950000Y-95500000D01*
G75*
G02*
X102000000Y-95450000I50000J0D01*
G01*
X103400000Y-95450000D01*
G75*
G02*
X103450000Y-95500000I0J-50000D01*
G01*
X103450000Y-96500000D01*
G75*
G02*
X103400000Y-96550000I-50000J0D01*
G01*
X102000000Y-96550000D01*
G75*
G02*
X101950000Y-96500000I0J50000D01*
G01*
G37*
G36*
G01*
X96550000Y-77600000D02*
X96550000Y-76600000D01*
G75*
G02*
X96600000Y-76550000I50000J0D01*
G01*
X98000000Y-76550000D01*
G75*
G02*
X98050000Y-76600000I0J-50000D01*
G01*
X98050000Y-77600000D01*
G75*
G02*
X98000000Y-77650000I-50000J0D01*
G01*
X96600000Y-77650000D01*
G75*
G02*
X96550000Y-77600000I0J50000D01*
G01*
G37*
G36*
G01*
X96550000Y-79000000D02*
X96550000Y-78000000D01*
G75*
G02*
X96600000Y-77950000I50000J0D01*
G01*
X98000000Y-77950000D01*
G75*
G02*
X98050000Y-78000000I0J-50000D01*
G01*
X98050000Y-79000000D01*
G75*
G02*
X98000000Y-79050000I-50000J0D01*
G01*
X96600000Y-79050000D01*
G75*
G02*
X96550000Y-79000000I0J50000D01*
G01*
G37*
G36*
G01*
X101950000Y-77600000D02*
X101950000Y-76600000D01*
G75*
G02*
X102000000Y-76550000I50000J0D01*
G01*
X103400000Y-76550000D01*
G75*
G02*
X103450000Y-76600000I0J-50000D01*
G01*
X103450000Y-77600000D01*
G75*
G02*
X103400000Y-77650000I-50000J0D01*
G01*
X102000000Y-77650000D01*
G75*
G02*
X101950000Y-77600000I0J50000D01*
G01*
G37*
G36*
G01*
X101950000Y-79000000D02*
X101950000Y-78000000D01*
G75*
G02*
X102000000Y-77950000I50000J0D01*
G01*
X103400000Y-77950000D01*
G75*
G02*
X103450000Y-78000000I0J-50000D01*
G01*
X103450000Y-79000000D01*
G75*
G02*
X103400000Y-79050000I-50000J0D01*
G01*
X102000000Y-79050000D01*
G75*
G02*
X101950000Y-79000000I0J50000D01*
G01*
G37*
G36*
G01*
X96550000Y-60100000D02*
X96550000Y-59100000D01*
G75*
G02*
X96600000Y-59050000I50000J0D01*
G01*
X98000000Y-59050000D01*
G75*
G02*
X98050000Y-59100000I0J-50000D01*
G01*
X98050000Y-60100000D01*
G75*
G02*
X98000000Y-60150000I-50000J0D01*
G01*
X96600000Y-60150000D01*
G75*
G02*
X96550000Y-60100000I0J50000D01*
G01*
G37*
G36*
G01*
X96550000Y-61500000D02*
X96550000Y-60500000D01*
G75*
G02*
X96600000Y-60450000I50000J0D01*
G01*
X98000000Y-60450000D01*
G75*
G02*
X98050000Y-60500000I0J-50000D01*
G01*
X98050000Y-61500000D01*
G75*
G02*
X98000000Y-61550000I-50000J0D01*
G01*
X96600000Y-61550000D01*
G75*
G02*
X96550000Y-61500000I0J50000D01*
G01*
G37*
G36*
G01*
X101950000Y-60100000D02*
X101950000Y-59100000D01*
G75*
G02*
X102000000Y-59050000I50000J0D01*
G01*
X103400000Y-59050000D01*
G75*
G02*
X103450000Y-59100000I0J-50000D01*
G01*
X103450000Y-60100000D01*
G75*
G02*
X103400000Y-60150000I-50000J0D01*
G01*
X102000000Y-60150000D01*
G75*
G02*
X101950000Y-60100000I0J50000D01*
G01*
G37*
G36*
G01*
X101950000Y-61500000D02*
X101950000Y-60500000D01*
G75*
G02*
X102000000Y-60450000I50000J0D01*
G01*
X103400000Y-60450000D01*
G75*
G02*
X103450000Y-60500000I0J-50000D01*
G01*
X103450000Y-61500000D01*
G75*
G02*
X103400000Y-61550000I-50000J0D01*
G01*
X102000000Y-61550000D01*
G75*
G02*
X101950000Y-61500000I0J50000D01*
G01*
G37*
G36*
G01*
X115050000Y-95100000D02*
X115050000Y-94100000D01*
G75*
G02*
X115100000Y-94050000I50000J0D01*
G01*
X116500000Y-94050000D01*
G75*
G02*
X116550000Y-94100000I0J-50000D01*
G01*
X116550000Y-95100000D01*
G75*
G02*
X116500000Y-95150000I-50000J0D01*
G01*
X115100000Y-95150000D01*
G75*
G02*
X115050000Y-95100000I0J50000D01*
G01*
G37*
G36*
G01*
X115050000Y-96500000D02*
X115050000Y-95500000D01*
G75*
G02*
X115100000Y-95450000I50000J0D01*
G01*
X116500000Y-95450000D01*
G75*
G02*
X116550000Y-95500000I0J-50000D01*
G01*
X116550000Y-96500000D01*
G75*
G02*
X116500000Y-96550000I-50000J0D01*
G01*
X115100000Y-96550000D01*
G75*
G02*
X115050000Y-96500000I0J50000D01*
G01*
G37*
G36*
G01*
X120450000Y-95100000D02*
X120450000Y-94100000D01*
G75*
G02*
X120500000Y-94050000I50000J0D01*
G01*
X121900000Y-94050000D01*
G75*
G02*
X121950000Y-94100000I0J-50000D01*
G01*
X121950000Y-95100000D01*
G75*
G02*
X121900000Y-95150000I-50000J0D01*
G01*
X120500000Y-95150000D01*
G75*
G02*
X120450000Y-95100000I0J50000D01*
G01*
G37*
G36*
G01*
X120450000Y-96500000D02*
X120450000Y-95500000D01*
G75*
G02*
X120500000Y-95450000I50000J0D01*
G01*
X121900000Y-95450000D01*
G75*
G02*
X121950000Y-95500000I0J-50000D01*
G01*
X121950000Y-96500000D01*
G75*
G02*
X121900000Y-96550000I-50000J0D01*
G01*
X120500000Y-96550000D01*
G75*
G02*
X120450000Y-96500000I0J50000D01*
G01*
G37*
G36*
G01*
X115050000Y-77600000D02*
X115050000Y-76600000D01*
G75*
G02*
X115100000Y-76550000I50000J0D01*
G01*
X116500000Y-76550000D01*
G75*
G02*
X116550000Y-76600000I0J-50000D01*
G01*
X116550000Y-77600000D01*
G75*
G02*
X116500000Y-77650000I-50000J0D01*
G01*
X115100000Y-77650000D01*
G75*
G02*
X115050000Y-77600000I0J50000D01*
G01*
G37*
G36*
G01*
X115050000Y-79000000D02*
X115050000Y-78000000D01*
G75*
G02*
X115100000Y-77950000I50000J0D01*
G01*
X116500000Y-77950000D01*
G75*
G02*
X116550000Y-78000000I0J-50000D01*
G01*
X116550000Y-79000000D01*
G75*
G02*
X116500000Y-79050000I-50000J0D01*
G01*
X115100000Y-79050000D01*
G75*
G02*
X115050000Y-79000000I0J50000D01*
G01*
G37*
G36*
G01*
X120450000Y-77600000D02*
X120450000Y-76600000D01*
G75*
G02*
X120500000Y-76550000I50000J0D01*
G01*
X121900000Y-76550000D01*
G75*
G02*
X121950000Y-76600000I0J-50000D01*
G01*
X121950000Y-77600000D01*
G75*
G02*
X121900000Y-77650000I-50000J0D01*
G01*
X120500000Y-77650000D01*
G75*
G02*
X120450000Y-77600000I0J50000D01*
G01*
G37*
G36*
G01*
X120450000Y-79000000D02*
X120450000Y-78000000D01*
G75*
G02*
X120500000Y-77950000I50000J0D01*
G01*
X121900000Y-77950000D01*
G75*
G02*
X121950000Y-78000000I0J-50000D01*
G01*
X121950000Y-79000000D01*
G75*
G02*
X121900000Y-79050000I-50000J0D01*
G01*
X120500000Y-79050000D01*
G75*
G02*
X120450000Y-79000000I0J50000D01*
G01*
G37*
G36*
G01*
X115050000Y-60100000D02*
X115050000Y-59100000D01*
G75*
G02*
X115100000Y-59050000I50000J0D01*
G01*
X116500000Y-59050000D01*
G75*
G02*
X116550000Y-59100000I0J-50000D01*
G01*
X116550000Y-60100000D01*
G75*
G02*
X116500000Y-60150000I-50000J0D01*
G01*
X115100000Y-60150000D01*
G75*
G02*
X115050000Y-60100000I0J50000D01*
G01*
G37*
G36*
G01*
X115050000Y-61500000D02*
X115050000Y-60500000D01*
G75*
G02*
X115100000Y-60450000I50000J0D01*
G01*
X116500000Y-60450000D01*
G75*
G02*
X116550000Y-60500000I0J-50000D01*
G01*
X116550000Y-61500000D01*
G75*
G02*
X116500000Y-61550000I-50000J0D01*
G01*
X115100000Y-61550000D01*
G75*
G02*
X115050000Y-61500000I0J50000D01*
G01*
G37*
G36*
G01*
X120450000Y-60100000D02*
X120450000Y-59100000D01*
G75*
G02*
X120500000Y-59050000I50000J0D01*
G01*
X121900000Y-59050000D01*
G75*
G02*
X121950000Y-59100000I0J-50000D01*
G01*
X121950000Y-60100000D01*
G75*
G02*
X121900000Y-60150000I-50000J0D01*
G01*
X120500000Y-60150000D01*
G75*
G02*
X120450000Y-60100000I0J50000D01*
G01*
G37*
G36*
G01*
X120450000Y-61500000D02*
X120450000Y-60500000D01*
G75*
G02*
X120500000Y-60450000I50000J0D01*
G01*
X121900000Y-60450000D01*
G75*
G02*
X121950000Y-60500000I0J-50000D01*
G01*
X121950000Y-61500000D01*
G75*
G02*
X121900000Y-61550000I-50000J0D01*
G01*
X120500000Y-61550000D01*
G75*
G02*
X120450000Y-61500000I0J50000D01*
G01*
G37*
G36*
G01*
X133550000Y-90725000D02*
X133550000Y-89725000D01*
G75*
G02*
X133600000Y-89675000I50000J0D01*
G01*
X135000000Y-89675000D01*
G75*
G02*
X135050000Y-89725000I0J-50000D01*
G01*
X135050000Y-90725000D01*
G75*
G02*
X135000000Y-90775000I-50000J0D01*
G01*
X133600000Y-90775000D01*
G75*
G02*
X133550000Y-90725000I0J50000D01*
G01*
G37*
G36*
G01*
X133550000Y-92125000D02*
X133550000Y-91125000D01*
G75*
G02*
X133600000Y-91075000I50000J0D01*
G01*
X135000000Y-91075000D01*
G75*
G02*
X135050000Y-91125000I0J-50000D01*
G01*
X135050000Y-92125000D01*
G75*
G02*
X135000000Y-92175000I-50000J0D01*
G01*
X133600000Y-92175000D01*
G75*
G02*
X133550000Y-92125000I0J50000D01*
G01*
G37*
G36*
G01*
X138950000Y-90725000D02*
X138950000Y-89725000D01*
G75*
G02*
X139000000Y-89675000I50000J0D01*
G01*
X140400000Y-89675000D01*
G75*
G02*
X140450000Y-89725000I0J-50000D01*
G01*
X140450000Y-90725000D01*
G75*
G02*
X140400000Y-90775000I-50000J0D01*
G01*
X139000000Y-90775000D01*
G75*
G02*
X138950000Y-90725000I0J50000D01*
G01*
G37*
G36*
G01*
X138950000Y-92125000D02*
X138950000Y-91125000D01*
G75*
G02*
X139000000Y-91075000I50000J0D01*
G01*
X140400000Y-91075000D01*
G75*
G02*
X140450000Y-91125000I0J-50000D01*
G01*
X140450000Y-92125000D01*
G75*
G02*
X140400000Y-92175000I-50000J0D01*
G01*
X139000000Y-92175000D01*
G75*
G02*
X138950000Y-92125000I0J50000D01*
G01*
G37*
G36*
G01*
X133550000Y-73225000D02*
X133550000Y-72225000D01*
G75*
G02*
X133600000Y-72175000I50000J0D01*
G01*
X135000000Y-72175000D01*
G75*
G02*
X135050000Y-72225000I0J-50000D01*
G01*
X135050000Y-73225000D01*
G75*
G02*
X135000000Y-73275000I-50000J0D01*
G01*
X133600000Y-73275000D01*
G75*
G02*
X133550000Y-73225000I0J50000D01*
G01*
G37*
G36*
G01*
X133550000Y-74625000D02*
X133550000Y-73625000D01*
G75*
G02*
X133600000Y-73575000I50000J0D01*
G01*
X135000000Y-73575000D01*
G75*
G02*
X135050000Y-73625000I0J-50000D01*
G01*
X135050000Y-74625000D01*
G75*
G02*
X135000000Y-74675000I-50000J0D01*
G01*
X133600000Y-74675000D01*
G75*
G02*
X133550000Y-74625000I0J50000D01*
G01*
G37*
G36*
G01*
X138950000Y-73225000D02*
X138950000Y-72225000D01*
G75*
G02*
X139000000Y-72175000I50000J0D01*
G01*
X140400000Y-72175000D01*
G75*
G02*
X140450000Y-72225000I0J-50000D01*
G01*
X140450000Y-73225000D01*
G75*
G02*
X140400000Y-73275000I-50000J0D01*
G01*
X139000000Y-73275000D01*
G75*
G02*
X138950000Y-73225000I0J50000D01*
G01*
G37*
G36*
G01*
X138950000Y-74625000D02*
X138950000Y-73625000D01*
G75*
G02*
X139000000Y-73575000I50000J0D01*
G01*
X140400000Y-73575000D01*
G75*
G02*
X140450000Y-73625000I0J-50000D01*
G01*
X140450000Y-74625000D01*
G75*
G02*
X140400000Y-74675000I-50000J0D01*
G01*
X139000000Y-74675000D01*
G75*
G02*
X138950000Y-74625000I0J50000D01*
G01*
G37*
G36*
G01*
X133550000Y-55725000D02*
X133550000Y-54725000D01*
G75*
G02*
X133600000Y-54675000I50000J0D01*
G01*
X135000000Y-54675000D01*
G75*
G02*
X135050000Y-54725000I0J-50000D01*
G01*
X135050000Y-55725000D01*
G75*
G02*
X135000000Y-55775000I-50000J0D01*
G01*
X133600000Y-55775000D01*
G75*
G02*
X133550000Y-55725000I0J50000D01*
G01*
G37*
G36*
G01*
X133550000Y-57125000D02*
X133550000Y-56125000D01*
G75*
G02*
X133600000Y-56075000I50000J0D01*
G01*
X135000000Y-56075000D01*
G75*
G02*
X135050000Y-56125000I0J-50000D01*
G01*
X135050000Y-57125000D01*
G75*
G02*
X135000000Y-57175000I-50000J0D01*
G01*
X133600000Y-57175000D01*
G75*
G02*
X133550000Y-57125000I0J50000D01*
G01*
G37*
G36*
G01*
X138950000Y-55725000D02*
X138950000Y-54725000D01*
G75*
G02*
X139000000Y-54675000I50000J0D01*
G01*
X140400000Y-54675000D01*
G75*
G02*
X140450000Y-54725000I0J-50000D01*
G01*
X140450000Y-55725000D01*
G75*
G02*
X140400000Y-55775000I-50000J0D01*
G01*
X139000000Y-55775000D01*
G75*
G02*
X138950000Y-55725000I0J50000D01*
G01*
G37*
G36*
G01*
X138950000Y-57125000D02*
X138950000Y-56125000D01*
G75*
G02*
X139000000Y-56075000I50000J0D01*
G01*
X140400000Y-56075000D01*
G75*
G02*
X140450000Y-56125000I0J-50000D01*
G01*
X140450000Y-57125000D01*
G75*
G02*
X140400000Y-57175000I-50000J0D01*
G01*
X139000000Y-57175000D01*
G75*
G02*
X138950000Y-57125000I0J50000D01*
G01*
G37*
G36*
G01*
X152050000Y-88537500D02*
X152050000Y-87537500D01*
G75*
G02*
X152100000Y-87487500I50000J0D01*
G01*
X153500000Y-87487500D01*
G75*
G02*
X153550000Y-87537500I0J-50000D01*
G01*
X153550000Y-88537500D01*
G75*
G02*
X153500000Y-88587500I-50000J0D01*
G01*
X152100000Y-88587500D01*
G75*
G02*
X152050000Y-88537500I0J50000D01*
G01*
G37*
G36*
G01*
X152050000Y-89937500D02*
X152050000Y-88937500D01*
G75*
G02*
X152100000Y-88887500I50000J0D01*
G01*
X153500000Y-88887500D01*
G75*
G02*
X153550000Y-88937500I0J-50000D01*
G01*
X153550000Y-89937500D01*
G75*
G02*
X153500000Y-89987500I-50000J0D01*
G01*
X152100000Y-89987500D01*
G75*
G02*
X152050000Y-89937500I0J50000D01*
G01*
G37*
G36*
G01*
X157450000Y-88537500D02*
X157450000Y-87537500D01*
G75*
G02*
X157500000Y-87487500I50000J0D01*
G01*
X158900000Y-87487500D01*
G75*
G02*
X158950000Y-87537500I0J-50000D01*
G01*
X158950000Y-88537500D01*
G75*
G02*
X158900000Y-88587500I-50000J0D01*
G01*
X157500000Y-88587500D01*
G75*
G02*
X157450000Y-88537500I0J50000D01*
G01*
G37*
G36*
G01*
X157450000Y-89937500D02*
X157450000Y-88937500D01*
G75*
G02*
X157500000Y-88887500I50000J0D01*
G01*
X158900000Y-88887500D01*
G75*
G02*
X158950000Y-88937500I0J-50000D01*
G01*
X158950000Y-89937500D01*
G75*
G02*
X158900000Y-89987500I-50000J0D01*
G01*
X157500000Y-89987500D01*
G75*
G02*
X157450000Y-89937500I0J50000D01*
G01*
G37*
G36*
G01*
X152050000Y-71037500D02*
X152050000Y-70037500D01*
G75*
G02*
X152100000Y-69987500I50000J0D01*
G01*
X153500000Y-69987500D01*
G75*
G02*
X153550000Y-70037500I0J-50000D01*
G01*
X153550000Y-71037500D01*
G75*
G02*
X153500000Y-71087500I-50000J0D01*
G01*
X152100000Y-71087500D01*
G75*
G02*
X152050000Y-71037500I0J50000D01*
G01*
G37*
G36*
G01*
X152050000Y-72437500D02*
X152050000Y-71437500D01*
G75*
G02*
X152100000Y-71387500I50000J0D01*
G01*
X153500000Y-71387500D01*
G75*
G02*
X153550000Y-71437500I0J-50000D01*
G01*
X153550000Y-72437500D01*
G75*
G02*
X153500000Y-72487500I-50000J0D01*
G01*
X152100000Y-72487500D01*
G75*
G02*
X152050000Y-72437500I0J50000D01*
G01*
G37*
G36*
G01*
X157450000Y-71037500D02*
X157450000Y-70037500D01*
G75*
G02*
X157500000Y-69987500I50000J0D01*
G01*
X158900000Y-69987500D01*
G75*
G02*
X158950000Y-70037500I0J-50000D01*
G01*
X158950000Y-71037500D01*
G75*
G02*
X158900000Y-71087500I-50000J0D01*
G01*
X157500000Y-71087500D01*
G75*
G02*
X157450000Y-71037500I0J50000D01*
G01*
G37*
G36*
G01*
X157450000Y-72437500D02*
X157450000Y-71437500D01*
G75*
G02*
X157500000Y-71387500I50000J0D01*
G01*
X158900000Y-71387500D01*
G75*
G02*
X158950000Y-71437500I0J-50000D01*
G01*
X158950000Y-72437500D01*
G75*
G02*
X158900000Y-72487500I-50000J0D01*
G01*
X157500000Y-72487500D01*
G75*
G02*
X157450000Y-72437500I0J50000D01*
G01*
G37*
G36*
G01*
X152050000Y-53537500D02*
X152050000Y-52537500D01*
G75*
G02*
X152100000Y-52487500I50000J0D01*
G01*
X153500000Y-52487500D01*
G75*
G02*
X153550000Y-52537500I0J-50000D01*
G01*
X153550000Y-53537500D01*
G75*
G02*
X153500000Y-53587500I-50000J0D01*
G01*
X152100000Y-53587500D01*
G75*
G02*
X152050000Y-53537500I0J50000D01*
G01*
G37*
G36*
G01*
X152050000Y-54937500D02*
X152050000Y-53937500D01*
G75*
G02*
X152100000Y-53887500I50000J0D01*
G01*
X153500000Y-53887500D01*
G75*
G02*
X153550000Y-53937500I0J-50000D01*
G01*
X153550000Y-54937500D01*
G75*
G02*
X153500000Y-54987500I-50000J0D01*
G01*
X152100000Y-54987500D01*
G75*
G02*
X152050000Y-54937500I0J50000D01*
G01*
G37*
G36*
G01*
X157450000Y-53537500D02*
X157450000Y-52537500D01*
G75*
G02*
X157500000Y-52487500I50000J0D01*
G01*
X158900000Y-52487500D01*
G75*
G02*
X158950000Y-52537500I0J-50000D01*
G01*
X158950000Y-53537500D01*
G75*
G02*
X158900000Y-53587500I-50000J0D01*
G01*
X157500000Y-53587500D01*
G75*
G02*
X157450000Y-53537500I0J50000D01*
G01*
G37*
G36*
G01*
X157450000Y-54937500D02*
X157450000Y-53937500D01*
G75*
G02*
X157500000Y-53887500I50000J0D01*
G01*
X158900000Y-53887500D01*
G75*
G02*
X158950000Y-53937500I0J-50000D01*
G01*
X158950000Y-54937500D01*
G75*
G02*
X158900000Y-54987500I-50000J0D01*
G01*
X157500000Y-54987500D01*
G75*
G02*
X157450000Y-54937500I0J50000D01*
G01*
G37*
G36*
G01*
X170550000Y-90725000D02*
X170550000Y-89725000D01*
G75*
G02*
X170600000Y-89675000I50000J0D01*
G01*
X172000000Y-89675000D01*
G75*
G02*
X172050000Y-89725000I0J-50000D01*
G01*
X172050000Y-90725000D01*
G75*
G02*
X172000000Y-90775000I-50000J0D01*
G01*
X170600000Y-90775000D01*
G75*
G02*
X170550000Y-90725000I0J50000D01*
G01*
G37*
G36*
G01*
X170550000Y-92125000D02*
X170550000Y-91125000D01*
G75*
G02*
X170600000Y-91075000I50000J0D01*
G01*
X172000000Y-91075000D01*
G75*
G02*
X172050000Y-91125000I0J-50000D01*
G01*
X172050000Y-92125000D01*
G75*
G02*
X172000000Y-92175000I-50000J0D01*
G01*
X170600000Y-92175000D01*
G75*
G02*
X170550000Y-92125000I0J50000D01*
G01*
G37*
G36*
G01*
X175950000Y-90725000D02*
X175950000Y-89725000D01*
G75*
G02*
X176000000Y-89675000I50000J0D01*
G01*
X177400000Y-89675000D01*
G75*
G02*
X177450000Y-89725000I0J-50000D01*
G01*
X177450000Y-90725000D01*
G75*
G02*
X177400000Y-90775000I-50000J0D01*
G01*
X176000000Y-90775000D01*
G75*
G02*
X175950000Y-90725000I0J50000D01*
G01*
G37*
G36*
G01*
X175950000Y-92125000D02*
X175950000Y-91125000D01*
G75*
G02*
X176000000Y-91075000I50000J0D01*
G01*
X177400000Y-91075000D01*
G75*
G02*
X177450000Y-91125000I0J-50000D01*
G01*
X177450000Y-92125000D01*
G75*
G02*
X177400000Y-92175000I-50000J0D01*
G01*
X176000000Y-92175000D01*
G75*
G02*
X175950000Y-92125000I0J50000D01*
G01*
G37*
G36*
G01*
X170550000Y-73225000D02*
X170550000Y-72225000D01*
G75*
G02*
X170600000Y-72175000I50000J0D01*
G01*
X172000000Y-72175000D01*
G75*
G02*
X172050000Y-72225000I0J-50000D01*
G01*
X172050000Y-73225000D01*
G75*
G02*
X172000000Y-73275000I-50000J0D01*
G01*
X170600000Y-73275000D01*
G75*
G02*
X170550000Y-73225000I0J50000D01*
G01*
G37*
G36*
G01*
X170550000Y-74625000D02*
X170550000Y-73625000D01*
G75*
G02*
X170600000Y-73575000I50000J0D01*
G01*
X172000000Y-73575000D01*
G75*
G02*
X172050000Y-73625000I0J-50000D01*
G01*
X172050000Y-74625000D01*
G75*
G02*
X172000000Y-74675000I-50000J0D01*
G01*
X170600000Y-74675000D01*
G75*
G02*
X170550000Y-74625000I0J50000D01*
G01*
G37*
G36*
G01*
X175950000Y-73225000D02*
X175950000Y-72225000D01*
G75*
G02*
X176000000Y-72175000I50000J0D01*
G01*
X177400000Y-72175000D01*
G75*
G02*
X177450000Y-72225000I0J-50000D01*
G01*
X177450000Y-73225000D01*
G75*
G02*
X177400000Y-73275000I-50000J0D01*
G01*
X176000000Y-73275000D01*
G75*
G02*
X175950000Y-73225000I0J50000D01*
G01*
G37*
G36*
G01*
X175950000Y-74625000D02*
X175950000Y-73625000D01*
G75*
G02*
X176000000Y-73575000I50000J0D01*
G01*
X177400000Y-73575000D01*
G75*
G02*
X177450000Y-73625000I0J-50000D01*
G01*
X177450000Y-74625000D01*
G75*
G02*
X177400000Y-74675000I-50000J0D01*
G01*
X176000000Y-74675000D01*
G75*
G02*
X175950000Y-74625000I0J50000D01*
G01*
G37*
G36*
G01*
X170550000Y-55725000D02*
X170550000Y-54725000D01*
G75*
G02*
X170600000Y-54675000I50000J0D01*
G01*
X172000000Y-54675000D01*
G75*
G02*
X172050000Y-54725000I0J-50000D01*
G01*
X172050000Y-55725000D01*
G75*
G02*
X172000000Y-55775000I-50000J0D01*
G01*
X170600000Y-55775000D01*
G75*
G02*
X170550000Y-55725000I0J50000D01*
G01*
G37*
G36*
G01*
X170550000Y-57125000D02*
X170550000Y-56125000D01*
G75*
G02*
X170600000Y-56075000I50000J0D01*
G01*
X172000000Y-56075000D01*
G75*
G02*
X172050000Y-56125000I0J-50000D01*
G01*
X172050000Y-57125000D01*
G75*
G02*
X172000000Y-57175000I-50000J0D01*
G01*
X170600000Y-57175000D01*
G75*
G02*
X170550000Y-57125000I0J50000D01*
G01*
G37*
G36*
G01*
X175950000Y-55725000D02*
X175950000Y-54725000D01*
G75*
G02*
X176000000Y-54675000I50000J0D01*
G01*
X177400000Y-54675000D01*
G75*
G02*
X177450000Y-54725000I0J-50000D01*
G01*
X177450000Y-55725000D01*
G75*
G02*
X177400000Y-55775000I-50000J0D01*
G01*
X176000000Y-55775000D01*
G75*
G02*
X175950000Y-55725000I0J50000D01*
G01*
G37*
G36*
G01*
X175950000Y-57125000D02*
X175950000Y-56125000D01*
G75*
G02*
X176000000Y-56075000I50000J0D01*
G01*
X177400000Y-56075000D01*
G75*
G02*
X177450000Y-56125000I0J-50000D01*
G01*
X177450000Y-57125000D01*
G75*
G02*
X177400000Y-57175000I-50000J0D01*
G01*
X176000000Y-57175000D01*
G75*
G02*
X175950000Y-57125000I0J50000D01*
G01*
G37*
G36*
G01*
X189050000Y-92912500D02*
X189050000Y-91912500D01*
G75*
G02*
X189100000Y-91862500I50000J0D01*
G01*
X190500000Y-91862500D01*
G75*
G02*
X190550000Y-91912500I0J-50000D01*
G01*
X190550000Y-92912500D01*
G75*
G02*
X190500000Y-92962500I-50000J0D01*
G01*
X189100000Y-92962500D01*
G75*
G02*
X189050000Y-92912500I0J50000D01*
G01*
G37*
G36*
G01*
X189050000Y-94312500D02*
X189050000Y-93312500D01*
G75*
G02*
X189100000Y-93262500I50000J0D01*
G01*
X190500000Y-93262500D01*
G75*
G02*
X190550000Y-93312500I0J-50000D01*
G01*
X190550000Y-94312500D01*
G75*
G02*
X190500000Y-94362500I-50000J0D01*
G01*
X189100000Y-94362500D01*
G75*
G02*
X189050000Y-94312500I0J50000D01*
G01*
G37*
G36*
G01*
X194450000Y-92912500D02*
X194450000Y-91912500D01*
G75*
G02*
X194500000Y-91862500I50000J0D01*
G01*
X195900000Y-91862500D01*
G75*
G02*
X195950000Y-91912500I0J-50000D01*
G01*
X195950000Y-92912500D01*
G75*
G02*
X195900000Y-92962500I-50000J0D01*
G01*
X194500000Y-92962500D01*
G75*
G02*
X194450000Y-92912500I0J50000D01*
G01*
G37*
G36*
G01*
X194450000Y-94312500D02*
X194450000Y-93312500D01*
G75*
G02*
X194500000Y-93262500I50000J0D01*
G01*
X195900000Y-93262500D01*
G75*
G02*
X195950000Y-93312500I0J-50000D01*
G01*
X195950000Y-94312500D01*
G75*
G02*
X195900000Y-94362500I-50000J0D01*
G01*
X194500000Y-94362500D01*
G75*
G02*
X194450000Y-94312500I0J50000D01*
G01*
G37*
G36*
G01*
X189050000Y-75412500D02*
X189050000Y-74412500D01*
G75*
G02*
X189100000Y-74362500I50000J0D01*
G01*
X190500000Y-74362500D01*
G75*
G02*
X190550000Y-74412500I0J-50000D01*
G01*
X190550000Y-75412500D01*
G75*
G02*
X190500000Y-75462500I-50000J0D01*
G01*
X189100000Y-75462500D01*
G75*
G02*
X189050000Y-75412500I0J50000D01*
G01*
G37*
G36*
G01*
X189050000Y-76812500D02*
X189050000Y-75812500D01*
G75*
G02*
X189100000Y-75762500I50000J0D01*
G01*
X190500000Y-75762500D01*
G75*
G02*
X190550000Y-75812500I0J-50000D01*
G01*
X190550000Y-76812500D01*
G75*
G02*
X190500000Y-76862500I-50000J0D01*
G01*
X189100000Y-76862500D01*
G75*
G02*
X189050000Y-76812500I0J50000D01*
G01*
G37*
G36*
G01*
X194450000Y-75412500D02*
X194450000Y-74412500D01*
G75*
G02*
X194500000Y-74362500I50000J0D01*
G01*
X195900000Y-74362500D01*
G75*
G02*
X195950000Y-74412500I0J-50000D01*
G01*
X195950000Y-75412500D01*
G75*
G02*
X195900000Y-75462500I-50000J0D01*
G01*
X194500000Y-75462500D01*
G75*
G02*
X194450000Y-75412500I0J50000D01*
G01*
G37*
G36*
G01*
X194450000Y-76812500D02*
X194450000Y-75812500D01*
G75*
G02*
X194500000Y-75762500I50000J0D01*
G01*
X195900000Y-75762500D01*
G75*
G02*
X195950000Y-75812500I0J-50000D01*
G01*
X195950000Y-76812500D01*
G75*
G02*
X195900000Y-76862500I-50000J0D01*
G01*
X194500000Y-76862500D01*
G75*
G02*
X194450000Y-76812500I0J50000D01*
G01*
G37*
G36*
G01*
X189050000Y-57912500D02*
X189050000Y-56912500D01*
G75*
G02*
X189100000Y-56862500I50000J0D01*
G01*
X190500000Y-56862500D01*
G75*
G02*
X190550000Y-56912500I0J-50000D01*
G01*
X190550000Y-57912500D01*
G75*
G02*
X190500000Y-57962500I-50000J0D01*
G01*
X189100000Y-57962500D01*
G75*
G02*
X189050000Y-57912500I0J50000D01*
G01*
G37*
G36*
G01*
X189050000Y-59312500D02*
X189050000Y-58312500D01*
G75*
G02*
X189100000Y-58262500I50000J0D01*
G01*
X190500000Y-58262500D01*
G75*
G02*
X190550000Y-58312500I0J-50000D01*
G01*
X190550000Y-59312500D01*
G75*
G02*
X190500000Y-59362500I-50000J0D01*
G01*
X189100000Y-59362500D01*
G75*
G02*
X189050000Y-59312500I0J50000D01*
G01*
G37*
G36*
G01*
X194450000Y-57912500D02*
X194450000Y-56912500D01*
G75*
G02*
X194500000Y-56862500I50000J0D01*
G01*
X195900000Y-56862500D01*
G75*
G02*
X195950000Y-56912500I0J-50000D01*
G01*
X195950000Y-57912500D01*
G75*
G02*
X195900000Y-57962500I-50000J0D01*
G01*
X194500000Y-57962500D01*
G75*
G02*
X194450000Y-57912500I0J50000D01*
G01*
G37*
G36*
G01*
X194450000Y-59312500D02*
X194450000Y-58312500D01*
G75*
G02*
X194500000Y-58262500I50000J0D01*
G01*
X195900000Y-58262500D01*
G75*
G02*
X195950000Y-58312500I0J-50000D01*
G01*
X195950000Y-59312500D01*
G75*
G02*
X195900000Y-59362500I-50000J0D01*
G01*
X194500000Y-59362500D01*
G75*
G02*
X194450000Y-59312500I0J50000D01*
G01*
G37*
G36*
G01*
X161300000Y-109037500D02*
X161300000Y-108037500D01*
G75*
G02*
X161350000Y-107987500I50000J0D01*
G01*
X162750000Y-107987500D01*
G75*
G02*
X162800000Y-108037500I0J-50000D01*
G01*
X162800000Y-109037500D01*
G75*
G02*
X162750000Y-109087500I-50000J0D01*
G01*
X161350000Y-109087500D01*
G75*
G02*
X161300000Y-109037500I0J50000D01*
G01*
G37*
G36*
G01*
X161300000Y-110437500D02*
X161300000Y-109437500D01*
G75*
G02*
X161350000Y-109387500I50000J0D01*
G01*
X162750000Y-109387500D01*
G75*
G02*
X162800000Y-109437500I0J-50000D01*
G01*
X162800000Y-110437500D01*
G75*
G02*
X162750000Y-110487500I-50000J0D01*
G01*
X161350000Y-110487500D01*
G75*
G02*
X161300000Y-110437500I0J50000D01*
G01*
G37*
G36*
G01*
X166700000Y-109037500D02*
X166700000Y-108037500D01*
G75*
G02*
X166750000Y-107987500I50000J0D01*
G01*
X168150000Y-107987500D01*
G75*
G02*
X168200000Y-108037500I0J-50000D01*
G01*
X168200000Y-109037500D01*
G75*
G02*
X168150000Y-109087500I-50000J0D01*
G01*
X166750000Y-109087500D01*
G75*
G02*
X166700000Y-109037500I0J50000D01*
G01*
G37*
G36*
G01*
X166700000Y-110437500D02*
X166700000Y-109437500D01*
G75*
G02*
X166750000Y-109387500I50000J0D01*
G01*
X168150000Y-109387500D01*
G75*
G02*
X168200000Y-109437500I0J-50000D01*
G01*
X168200000Y-110437500D01*
G75*
G02*
X168150000Y-110487500I-50000J0D01*
G01*
X166750000Y-110487500D01*
G75*
G02*
X166700000Y-110437500I0J50000D01*
G01*
G37*
G36*
G01*
X183185770Y-111061538D02*
X183444589Y-110095612D01*
G75*
G02*
X183505826Y-110060257I48296J-12941D01*
G01*
X184858123Y-110422603D01*
G75*
G02*
X184893478Y-110483840I-12941J-48296D01*
G01*
X184634659Y-111449766D01*
G75*
G02*
X184573422Y-111485121I-48296J12941D01*
G01*
X183221125Y-111122775D01*
G75*
G02*
X183185770Y-111061538I12941J48296D01*
G01*
G37*
G36*
G01*
X182823423Y-112413835D02*
X183082242Y-111447909D01*
G75*
G02*
X183143479Y-111412554I48296J-12941D01*
G01*
X184495776Y-111774900D01*
G75*
G02*
X184531131Y-111836137I-12941J-48296D01*
G01*
X184272312Y-112802063D01*
G75*
G02*
X184211075Y-112837418I-48296J12941D01*
G01*
X182858778Y-112475072D01*
G75*
G02*
X182823423Y-112413835I12941J48296D01*
G01*
G37*
G36*
G01*
X188401769Y-112459161D02*
X188660588Y-111493235D01*
G75*
G02*
X188721825Y-111457880I48296J-12941D01*
G01*
X190074122Y-111820226D01*
G75*
G02*
X190109477Y-111881463I-12941J-48296D01*
G01*
X189850658Y-112847389D01*
G75*
G02*
X189789421Y-112882744I-48296J12941D01*
G01*
X188437124Y-112520398D01*
G75*
G02*
X188401769Y-112459161I12941J48296D01*
G01*
G37*
G36*
G01*
X188039422Y-113811458D02*
X188298241Y-112845532D01*
G75*
G02*
X188359478Y-112810177I48296J-12941D01*
G01*
X189711775Y-113172523D01*
G75*
G02*
X189747130Y-113233760I-12941J-48296D01*
G01*
X189488311Y-114199686D01*
G75*
G02*
X189427074Y-114235041I-48296J12941D01*
G01*
X188074777Y-113872695D01*
G75*
G02*
X188039422Y-113811458I12941J48296D01*
G01*
G37*
G36*
G01*
X201045319Y-120860036D02*
X200179293Y-120360036D01*
G75*
G02*
X200160992Y-120291735I25000J43301D01*
G01*
X200860992Y-119079299D01*
G75*
G02*
X200929293Y-119060998I43301J-25000D01*
G01*
X201795319Y-119560998D01*
G75*
G02*
X201813620Y-119629299I-25000J-43301D01*
G01*
X201113620Y-120841735D01*
G75*
G02*
X201045319Y-120860036I-43301J25000D01*
G01*
G37*
G36*
G01*
X202257755Y-121560036D02*
X201391729Y-121060036D01*
G75*
G02*
X201373428Y-120991735I25000J43301D01*
G01*
X202073428Y-119779299D01*
G75*
G02*
X202141729Y-119760998I43301J-25000D01*
G01*
X203007755Y-120260998D01*
G75*
G02*
X203026056Y-120329299I-25000J-43301D01*
G01*
X202326056Y-121541735D01*
G75*
G02*
X202257755Y-121560036I-43301J25000D01*
G01*
G37*
G36*
G01*
X203745319Y-116183498D02*
X202879293Y-115683498D01*
G75*
G02*
X202860992Y-115615197I25000J43301D01*
G01*
X203560992Y-114402761D01*
G75*
G02*
X203629293Y-114384460I43301J-25000D01*
G01*
X204495319Y-114884460D01*
G75*
G02*
X204513620Y-114952761I-25000J-43301D01*
G01*
X203813620Y-116165197D01*
G75*
G02*
X203745319Y-116183498I-43301J25000D01*
G01*
G37*
G36*
G01*
X204957755Y-116883498D02*
X204091729Y-116383498D01*
G75*
G02*
X204073428Y-116315197I25000J43301D01*
G01*
X204773428Y-115102761D01*
G75*
G02*
X204841729Y-115084460I43301J-25000D01*
G01*
X205707755Y-115584460D01*
G75*
G02*
X205726056Y-115652761I-25000J-43301D01*
G01*
X205026056Y-116865197D01*
G75*
G02*
X204957755Y-116883498I-43301J25000D01*
G01*
G37*
G36*
G01*
X195950000Y-71312500D02*
X195950000Y-72312500D01*
G75*
G02*
X195900000Y-72362500I-50000J0D01*
G01*
X194500000Y-72362500D01*
G75*
G02*
X194450000Y-72312500I0J50000D01*
G01*
X194450000Y-71312500D01*
G75*
G02*
X194500000Y-71262500I50000J0D01*
G01*
X195900000Y-71262500D01*
G75*
G02*
X195950000Y-71312500I0J-50000D01*
G01*
G37*
G36*
G01*
X195950000Y-72712500D02*
X195950000Y-73712500D01*
G75*
G02*
X195900000Y-73762500I-50000J0D01*
G01*
X194500000Y-73762500D01*
G75*
G02*
X194450000Y-73712500I0J50000D01*
G01*
X194450000Y-72712500D01*
G75*
G02*
X194500000Y-72662500I50000J0D01*
G01*
X195900000Y-72662500D01*
G75*
G02*
X195950000Y-72712500I0J-50000D01*
G01*
G37*
G36*
G01*
X190550000Y-71312500D02*
X190550000Y-72312500D01*
G75*
G02*
X190500000Y-72362500I-50000J0D01*
G01*
X189100000Y-72362500D01*
G75*
G02*
X189050000Y-72312500I0J50000D01*
G01*
X189050000Y-71312500D01*
G75*
G02*
X189100000Y-71262500I50000J0D01*
G01*
X190500000Y-71262500D01*
G75*
G02*
X190550000Y-71312500I0J-50000D01*
G01*
G37*
G36*
G01*
X190550000Y-72712500D02*
X190550000Y-73712500D01*
G75*
G02*
X190500000Y-73762500I-50000J0D01*
G01*
X189100000Y-73762500D01*
G75*
G02*
X189050000Y-73712500I0J50000D01*
G01*
X189050000Y-72712500D01*
G75*
G02*
X189100000Y-72662500I50000J0D01*
G01*
X190500000Y-72662500D01*
G75*
G02*
X190550000Y-72712500I0J-50000D01*
G01*
G37*
G36*
G01*
X158950000Y-66937500D02*
X158950000Y-67937500D01*
G75*
G02*
X158900000Y-67987500I-50000J0D01*
G01*
X157500000Y-67987500D01*
G75*
G02*
X157450000Y-67937500I0J50000D01*
G01*
X157450000Y-66937500D01*
G75*
G02*
X157500000Y-66887500I50000J0D01*
G01*
X158900000Y-66887500D01*
G75*
G02*
X158950000Y-66937500I0J-50000D01*
G01*
G37*
G36*
G01*
X158950000Y-68337500D02*
X158950000Y-69337500D01*
G75*
G02*
X158900000Y-69387500I-50000J0D01*
G01*
X157500000Y-69387500D01*
G75*
G02*
X157450000Y-69337500I0J50000D01*
G01*
X157450000Y-68337500D01*
G75*
G02*
X157500000Y-68287500I50000J0D01*
G01*
X158900000Y-68287500D01*
G75*
G02*
X158950000Y-68337500I0J-50000D01*
G01*
G37*
G36*
G01*
X153550000Y-66937500D02*
X153550000Y-67937500D01*
G75*
G02*
X153500000Y-67987500I-50000J0D01*
G01*
X152100000Y-67987500D01*
G75*
G02*
X152050000Y-67937500I0J50000D01*
G01*
X152050000Y-66937500D01*
G75*
G02*
X152100000Y-66887500I50000J0D01*
G01*
X153500000Y-66887500D01*
G75*
G02*
X153550000Y-66937500I0J-50000D01*
G01*
G37*
G36*
G01*
X153550000Y-68337500D02*
X153550000Y-69337500D01*
G75*
G02*
X153500000Y-69387500I-50000J0D01*
G01*
X152100000Y-69387500D01*
G75*
G02*
X152050000Y-69337500I0J50000D01*
G01*
X152050000Y-68337500D01*
G75*
G02*
X152100000Y-68287500I50000J0D01*
G01*
X153500000Y-68287500D01*
G75*
G02*
X153550000Y-68337500I0J-50000D01*
G01*
G37*
G36*
G01*
X121950000Y-73500000D02*
X121950000Y-74500000D01*
G75*
G02*
X121900000Y-74550000I-50000J0D01*
G01*
X120500000Y-74550000D01*
G75*
G02*
X120450000Y-74500000I0J50000D01*
G01*
X120450000Y-73500000D01*
G75*
G02*
X120500000Y-73450000I50000J0D01*
G01*
X121900000Y-73450000D01*
G75*
G02*
X121950000Y-73500000I0J-50000D01*
G01*
G37*
G36*
G01*
X121950000Y-74900000D02*
X121950000Y-75900000D01*
G75*
G02*
X121900000Y-75950000I-50000J0D01*
G01*
X120500000Y-75950000D01*
G75*
G02*
X120450000Y-75900000I0J50000D01*
G01*
X120450000Y-74900000D01*
G75*
G02*
X120500000Y-74850000I50000J0D01*
G01*
X121900000Y-74850000D01*
G75*
G02*
X121950000Y-74900000I0J-50000D01*
G01*
G37*
G36*
G01*
X116550000Y-73500000D02*
X116550000Y-74500000D01*
G75*
G02*
X116500000Y-74550000I-50000J0D01*
G01*
X115100000Y-74550000D01*
G75*
G02*
X115050000Y-74500000I0J50000D01*
G01*
X115050000Y-73500000D01*
G75*
G02*
X115100000Y-73450000I50000J0D01*
G01*
X116500000Y-73450000D01*
G75*
G02*
X116550000Y-73500000I0J-50000D01*
G01*
G37*
G36*
G01*
X116550000Y-74900000D02*
X116550000Y-75900000D01*
G75*
G02*
X116500000Y-75950000I-50000J0D01*
G01*
X115100000Y-75950000D01*
G75*
G02*
X115050000Y-75900000I0J50000D01*
G01*
X115050000Y-74900000D01*
G75*
G02*
X115100000Y-74850000I50000J0D01*
G01*
X116500000Y-74850000D01*
G75*
G02*
X116550000Y-74900000I0J-50000D01*
G01*
G37*
G36*
G01*
X121950000Y-91000000D02*
X121950000Y-92000000D01*
G75*
G02*
X121900000Y-92050000I-50000J0D01*
G01*
X120500000Y-92050000D01*
G75*
G02*
X120450000Y-92000000I0J50000D01*
G01*
X120450000Y-91000000D01*
G75*
G02*
X120500000Y-90950000I50000J0D01*
G01*
X121900000Y-90950000D01*
G75*
G02*
X121950000Y-91000000I0J-50000D01*
G01*
G37*
G36*
G01*
X121950000Y-92400000D02*
X121950000Y-93400000D01*
G75*
G02*
X121900000Y-93450000I-50000J0D01*
G01*
X120500000Y-93450000D01*
G75*
G02*
X120450000Y-93400000I0J50000D01*
G01*
X120450000Y-92400000D01*
G75*
G02*
X120500000Y-92350000I50000J0D01*
G01*
X121900000Y-92350000D01*
G75*
G02*
X121950000Y-92400000I0J-50000D01*
G01*
G37*
G36*
G01*
X116550000Y-91000000D02*
X116550000Y-92000000D01*
G75*
G02*
X116500000Y-92050000I-50000J0D01*
G01*
X115100000Y-92050000D01*
G75*
G02*
X115050000Y-92000000I0J50000D01*
G01*
X115050000Y-91000000D01*
G75*
G02*
X115100000Y-90950000I50000J0D01*
G01*
X116500000Y-90950000D01*
G75*
G02*
X116550000Y-91000000I0J-50000D01*
G01*
G37*
G36*
G01*
X116550000Y-92400000D02*
X116550000Y-93400000D01*
G75*
G02*
X116500000Y-93450000I-50000J0D01*
G01*
X115100000Y-93450000D01*
G75*
G02*
X115050000Y-93400000I0J50000D01*
G01*
X115050000Y-92400000D01*
G75*
G02*
X115100000Y-92350000I50000J0D01*
G01*
X116500000Y-92350000D01*
G75*
G02*
X116550000Y-92400000I0J-50000D01*
G01*
G37*
G36*
G01*
X158950000Y-101937500D02*
X158950000Y-102937500D01*
G75*
G02*
X158900000Y-102987500I-50000J0D01*
G01*
X157500000Y-102987500D01*
G75*
G02*
X157450000Y-102937500I0J50000D01*
G01*
X157450000Y-101937500D01*
G75*
G02*
X157500000Y-101887500I50000J0D01*
G01*
X158900000Y-101887500D01*
G75*
G02*
X158950000Y-101937500I0J-50000D01*
G01*
G37*
G36*
G01*
X158950000Y-103337500D02*
X158950000Y-104337500D01*
G75*
G02*
X158900000Y-104387500I-50000J0D01*
G01*
X157500000Y-104387500D01*
G75*
G02*
X157450000Y-104337500I0J50000D01*
G01*
X157450000Y-103337500D01*
G75*
G02*
X157500000Y-103287500I50000J0D01*
G01*
X158900000Y-103287500D01*
G75*
G02*
X158950000Y-103337500I0J-50000D01*
G01*
G37*
G36*
G01*
X153550000Y-101937500D02*
X153550000Y-102937500D01*
G75*
G02*
X153500000Y-102987500I-50000J0D01*
G01*
X152100000Y-102987500D01*
G75*
G02*
X152050000Y-102937500I0J50000D01*
G01*
X152050000Y-101937500D01*
G75*
G02*
X152100000Y-101887500I50000J0D01*
G01*
X153500000Y-101887500D01*
G75*
G02*
X153550000Y-101937500I0J-50000D01*
G01*
G37*
G36*
G01*
X153550000Y-103337500D02*
X153550000Y-104337500D01*
G75*
G02*
X153500000Y-104387500I-50000J0D01*
G01*
X152100000Y-104387500D01*
G75*
G02*
X152050000Y-104337500I0J50000D01*
G01*
X152050000Y-103337500D01*
G75*
G02*
X152100000Y-103287500I50000J0D01*
G01*
X153500000Y-103287500D01*
G75*
G02*
X153550000Y-103337500I0J-50000D01*
G01*
G37*
G36*
G01*
X195950000Y-106312500D02*
X195950000Y-107312500D01*
G75*
G02*
X195900000Y-107362500I-50000J0D01*
G01*
X194500000Y-107362500D01*
G75*
G02*
X194450000Y-107312500I0J50000D01*
G01*
X194450000Y-106312500D01*
G75*
G02*
X194500000Y-106262500I50000J0D01*
G01*
X195900000Y-106262500D01*
G75*
G02*
X195950000Y-106312500I0J-50000D01*
G01*
G37*
G36*
G01*
X195950000Y-107712500D02*
X195950000Y-108712500D01*
G75*
G02*
X195900000Y-108762500I-50000J0D01*
G01*
X194500000Y-108762500D01*
G75*
G02*
X194450000Y-108712500I0J50000D01*
G01*
X194450000Y-107712500D01*
G75*
G02*
X194500000Y-107662500I50000J0D01*
G01*
X195900000Y-107662500D01*
G75*
G02*
X195950000Y-107712500I0J-50000D01*
G01*
G37*
G36*
G01*
X190550000Y-106312500D02*
X190550000Y-107312500D01*
G75*
G02*
X190500000Y-107362500I-50000J0D01*
G01*
X189100000Y-107362500D01*
G75*
G02*
X189050000Y-107312500I0J50000D01*
G01*
X189050000Y-106312500D01*
G75*
G02*
X189100000Y-106262500I50000J0D01*
G01*
X190500000Y-106262500D01*
G75*
G02*
X190550000Y-106312500I0J-50000D01*
G01*
G37*
G36*
G01*
X190550000Y-107712500D02*
X190550000Y-108712500D01*
G75*
G02*
X190500000Y-108762500I-50000J0D01*
G01*
X189100000Y-108762500D01*
G75*
G02*
X189050000Y-108712500I0J50000D01*
G01*
X189050000Y-107712500D01*
G75*
G02*
X189100000Y-107662500I50000J0D01*
G01*
X190500000Y-107662500D01*
G75*
G02*
X190550000Y-107712500I0J-50000D01*
G01*
G37*
M02*
