G04 #@! TF.GenerationSoftware,KiCad,Pcbnew,8.0.8+1*
G04 #@! TF.CreationDate,2025-07-09T05:02:12+00:00*
G04 #@! TF.ProjectId,corney_island,636f726e-6579-45f6-9973-6c616e642e6b,0.2*
G04 #@! TF.SameCoordinates,Original*
G04 #@! TF.FileFunction,Copper,L1,Top*
G04 #@! TF.FilePolarity,Positive*
%FSLAX46Y46*%
G04 Gerber Fmt 4.6, Leading zero omitted, Abs format (unit mm)*
G04 Created by KiCad (PCBNEW 8.0.8+1) date 2025-07-09 05:02:12*
%MOMM*%
%LPD*%
G01*
G04 APERTURE LIST*
G04 #@! TA.AperFunction,ComponentPad*
%ADD10C,1.900000*%
G04 #@! TD*
G04 #@! TA.AperFunction,SMDPad,CuDef*
%ADD11R,2.600000X2.600000*%
G04 #@! TD*
G04 #@! TA.AperFunction,SMDPad,CuDef*
%ADD12R,1.200000X0.900000*%
G04 #@! TD*
G04 #@! TA.AperFunction,ComponentPad*
%ADD13C,1.700000*%
G04 #@! TD*
G04 #@! TA.AperFunction,ComponentPad*
%ADD14C,0.800000*%
G04 #@! TD*
G04 #@! TA.AperFunction,SMDPad,CuDef*
%ADD15R,0.600000X1.200000*%
G04 #@! TD*
G04 #@! TA.AperFunction,SMDPad,CuDef*
%ADD16R,1.200000X0.600000*%
G04 #@! TD*
G04 #@! TA.AperFunction,ComponentPad*
%ADD17O,1.700000X1.700000*%
G04 #@! TD*
G04 #@! TA.AperFunction,ComponentPad*
%ADD18O,2.200000X1.600000*%
G04 #@! TD*
G04 #@! TA.AperFunction,ComponentPad*
%ADD19O,3.300000X1.600000*%
G04 #@! TD*
G04 #@! TA.AperFunction,SMDPad,CuDef*
%ADD20R,1.400000X1.000000*%
G04 #@! TD*
G04 #@! TA.AperFunction,ViaPad*
%ADD21C,0.560000*%
G04 #@! TD*
G04 #@! TA.AperFunction,Conductor*
%ADD22C,0.250000*%
G04 #@! TD*
G04 #@! TA.AperFunction,Conductor*
%ADD23C,0.150000*%
G04 #@! TD*
G04 APERTURE END LIST*
D10*
X105000000Y-94850000D03*
X105000000Y-77350000D03*
X105000000Y-59850000D03*
X123500000Y-94850000D03*
X123500000Y-77350000D03*
X123500000Y-59850000D03*
X142000000Y-90475000D03*
X142000000Y-72975000D03*
X142000000Y-55475000D03*
X160500000Y-88287500D03*
X160500000Y-70787500D03*
X160500000Y-53287500D03*
X179000000Y-90475000D03*
X179000000Y-72975000D03*
X179000000Y-55475000D03*
X197500000Y-92662500D03*
X197500000Y-75162500D03*
X197500000Y-57662500D03*
X169750000Y-108787500D03*
X191412547Y-113007077D03*
X205053812Y-113417121D03*
X95000000Y-94850000D03*
D11*
X96725000Y-105950000D03*
X108275000Y-103750000D03*
D10*
X95000000Y-77350000D03*
D11*
X96725000Y-88450000D03*
X108275000Y-86250000D03*
D10*
X95000000Y-59850000D03*
D11*
X96725000Y-70950000D03*
X108275000Y-68750000D03*
D10*
X113500000Y-94850000D03*
D11*
X115225000Y-105950000D03*
X126775000Y-103750000D03*
D10*
X113500000Y-77350000D03*
D11*
X115225000Y-88450000D03*
X126775000Y-86250000D03*
D10*
X113500000Y-59850000D03*
D11*
X115225000Y-70950000D03*
X126775000Y-68750000D03*
D10*
X132000000Y-90475000D03*
D11*
X133725000Y-101575000D03*
X145275000Y-99375000D03*
D10*
X132000000Y-72975000D03*
D11*
X133725000Y-84075000D03*
X145275000Y-81875000D03*
D10*
X132000000Y-55475000D03*
D11*
X133725000Y-66575000D03*
X145275000Y-64375000D03*
D10*
X150500000Y-88287500D03*
D11*
X152225000Y-99387500D03*
X163775000Y-97187500D03*
D10*
X150500000Y-70787500D03*
D11*
X152225000Y-81887500D03*
X163775000Y-79687500D03*
D10*
X150500000Y-53287500D03*
D11*
X152225000Y-64387500D03*
X163775000Y-62187500D03*
D10*
X169000000Y-90475000D03*
D11*
X170725000Y-101575000D03*
X182275000Y-99375000D03*
D10*
X169000000Y-72975000D03*
D11*
X170725000Y-84075000D03*
X182275000Y-81875000D03*
D10*
X169000000Y-55475000D03*
D11*
X170725000Y-66575000D03*
X182275000Y-64375000D03*
D10*
X187500000Y-92662500D03*
D11*
X189225000Y-103762500D03*
X200775000Y-101562500D03*
D10*
X187500000Y-75162500D03*
D11*
X189225000Y-86262500D03*
X200775000Y-84062500D03*
D10*
X187500000Y-57662500D03*
D11*
X189225000Y-68762500D03*
X200775000Y-66562500D03*
D10*
X159750000Y-108787500D03*
D11*
X161475000Y-119887500D03*
X173025000Y-117687500D03*
D10*
X181753289Y-110418887D03*
G04 #@! TA.AperFunction,SMDPad,CuDef*
G36*
X182138788Y-120667887D02*
G01*
X181465859Y-123179294D01*
X178954452Y-122506365D01*
X179627381Y-119994958D01*
X182138788Y-120667887D01*
G37*
G04 #@! TD.AperFunction*
G04 #@! TA.AperFunction,SMDPad,CuDef*
G36*
X193864633Y-121532210D02*
G01*
X193191704Y-124043617D01*
X190680297Y-123370688D01*
X191353226Y-120859281D01*
X193864633Y-121532210D01*
G37*
G04 #@! TD.AperFunction*
X200053812Y-122077375D03*
G04 #@! TA.AperFunction,SMDPad,CuDef*
G36*
X210053361Y-124357648D02*
G01*
X212305027Y-125657648D01*
X211005027Y-127909314D01*
X208753361Y-126609314D01*
X210053361Y-124357648D01*
G37*
G04 #@! TD.AperFunction*
G04 #@! TA.AperFunction,SMDPad,CuDef*
G36*
X213923105Y-113255055D02*
G01*
X216174771Y-114555055D01*
X214874771Y-116806721D01*
X212623105Y-115506721D01*
X213923105Y-113255055D01*
G37*
G04 #@! TD.AperFunction*
D12*
X107750000Y-96850000D03*
X107750000Y-100150000D03*
X107750000Y-79350000D03*
X107750000Y-82650000D03*
X107750000Y-61850000D03*
X107750000Y-65150000D03*
X126250000Y-96850000D03*
X126250000Y-100150000D03*
X126250000Y-79350000D03*
X126250000Y-82650000D03*
X126250000Y-61850000D03*
X126250000Y-65150000D03*
X144750000Y-92475000D03*
X144750000Y-95775000D03*
X144750000Y-74975000D03*
X144750000Y-78275000D03*
X144750000Y-57475000D03*
X144750000Y-60775000D03*
X163250000Y-90287500D03*
X163250000Y-93587500D03*
X163250000Y-72787500D03*
X163250000Y-76087500D03*
X163250000Y-55287500D03*
X163250000Y-58587500D03*
X181750000Y-92475000D03*
X181750000Y-95775000D03*
X181750000Y-74975000D03*
X181750000Y-78275000D03*
X181750000Y-57475000D03*
X181750000Y-60775000D03*
X200250000Y-94662500D03*
X200250000Y-97962500D03*
X200250000Y-77162500D03*
X200250000Y-80462500D03*
X200250000Y-59662500D03*
X200250000Y-62962500D03*
X172500000Y-110787500D03*
X172500000Y-114087500D03*
G04 #@! TA.AperFunction,SMDPad,CuDef*
G36*
X193088118Y-115060723D02*
G01*
X194247229Y-115371306D01*
X194014292Y-116240639D01*
X192855181Y-115930056D01*
X193088118Y-115060723D01*
G37*
G04 #@! TD.AperFunction*
G04 #@! TA.AperFunction,SMDPad,CuDef*
G36*
X192234016Y-118248279D02*
G01*
X193393127Y-118558862D01*
X193160190Y-119428195D01*
X192001079Y-119117612D01*
X192234016Y-118248279D01*
G37*
G04 #@! TD.AperFunction*
G04 #@! TA.AperFunction,SMDPad,CuDef*
G36*
X207471152Y-112330166D02*
G01*
X208071152Y-111290936D01*
X208850574Y-111740936D01*
X208250574Y-112780166D01*
X207471152Y-112330166D01*
G37*
G04 #@! TD.AperFunction*
G04 #@! TA.AperFunction,SMDPad,CuDef*
G36*
X210329036Y-113980166D02*
G01*
X210929036Y-112940936D01*
X211708458Y-113390936D01*
X211108458Y-114430166D01*
X210329036Y-113980166D01*
G37*
G04 #@! TD.AperFunction*
D13*
X204584000Y-61920000D03*
X219824000Y-61920000D03*
D14*
X208804000Y-61920000D03*
X215604000Y-61920000D03*
D15*
X206724000Y-61920000D03*
X207624000Y-61920000D03*
X216784000Y-61920000D03*
X217684000Y-61920000D03*
D13*
X204584000Y-64460000D03*
X219824000Y-64460000D03*
D14*
X208804000Y-64460000D03*
X215604000Y-64460000D03*
D15*
X206724000Y-64460000D03*
X207624000Y-64460000D03*
X216784000Y-64460000D03*
X217684000Y-64460000D03*
D13*
X204584000Y-67000000D03*
X219824000Y-67000000D03*
D14*
X208804000Y-67000000D03*
X215604000Y-67000000D03*
D15*
X206724000Y-67000000D03*
X207624000Y-67000000D03*
X216784000Y-67000000D03*
X217684000Y-67000000D03*
D13*
X204584000Y-69540000D03*
X219824000Y-69540000D03*
D14*
X208804000Y-69540000D03*
X215604000Y-69540000D03*
D15*
X206724000Y-69540000D03*
X207624000Y-69540000D03*
X216784000Y-69540000D03*
X217684000Y-69540000D03*
D13*
X204584000Y-72080000D03*
X219824000Y-72080000D03*
D14*
X208804000Y-72080000D03*
X215604000Y-72080000D03*
D15*
X206724000Y-72080000D03*
X207624000Y-72080000D03*
X216784000Y-72080000D03*
X217684000Y-72080000D03*
D13*
X204584000Y-74620000D03*
X219824000Y-74620000D03*
D14*
X208804000Y-74620000D03*
X215604000Y-74620000D03*
D15*
X206724000Y-74620000D03*
X207624000Y-74620000D03*
X216784000Y-74620000D03*
X217684000Y-74620000D03*
D13*
X204584000Y-77160000D03*
X219824000Y-77160000D03*
D14*
X208804000Y-77160000D03*
X215604000Y-77160000D03*
D15*
X206724000Y-77160000D03*
X207624000Y-77160000D03*
X216784000Y-77160000D03*
X217684000Y-77160000D03*
D13*
X204584000Y-79700000D03*
X219824000Y-79700000D03*
D14*
X208804000Y-79700000D03*
X215604000Y-79700000D03*
D15*
X206724000Y-79700000D03*
X207624000Y-79700000D03*
X216784000Y-79700000D03*
X217684000Y-79700000D03*
D13*
X204584000Y-82240000D03*
X219824000Y-82240000D03*
D14*
X208804000Y-82240000D03*
X215604000Y-82240000D03*
D15*
X206724000Y-82240000D03*
X207624000Y-82240000D03*
X216784000Y-82240000D03*
X217684000Y-82240000D03*
D13*
X204584000Y-84780000D03*
X219824000Y-84780000D03*
D14*
X208804000Y-84780000D03*
X215604000Y-84780000D03*
D15*
X206724000Y-84780000D03*
X207624000Y-84780000D03*
X216784000Y-84780000D03*
X217684000Y-84780000D03*
D13*
X204584000Y-87320000D03*
X219824000Y-87320000D03*
D14*
X208804000Y-87320000D03*
X215604000Y-87320000D03*
D15*
X206724000Y-87320000D03*
X207624000Y-87320000D03*
X216784000Y-87320000D03*
X217684000Y-87320000D03*
D13*
X204584000Y-89860000D03*
X219824000Y-89860000D03*
D14*
X208804000Y-89860000D03*
X215604000Y-89860000D03*
D15*
X206724000Y-89860000D03*
X207624000Y-89860000D03*
X216784000Y-89860000D03*
X217684000Y-89860000D03*
D16*
X208087000Y-94358000D03*
X210627000Y-94358000D03*
X213167000Y-94358000D03*
X215707000Y-94358000D03*
X208087000Y-95258000D03*
X210627000Y-95258000D03*
X213167000Y-95258000D03*
X215707000Y-95258000D03*
D17*
X208087000Y-97008000D03*
X210627000Y-97008000D03*
X213167000Y-97008000D03*
X215707000Y-97008000D03*
D13*
X219600000Y-99751000D03*
X219600000Y-93251000D03*
D18*
X218160000Y-104260000D03*
X215160000Y-104260000D03*
D19*
X210610000Y-104260000D03*
D18*
X218160000Y-108860000D03*
X215160000Y-108860000D03*
D19*
X210610000Y-108860000D03*
D20*
X97300000Y-94600000D03*
X97300000Y-96000000D03*
X102700000Y-94600000D03*
X102700000Y-96000000D03*
X97300000Y-77100000D03*
X97300000Y-78500000D03*
X102700000Y-77100000D03*
X102700000Y-78500000D03*
X97300000Y-59600000D03*
X97300000Y-61000000D03*
X102700000Y-59600000D03*
X102700000Y-61000000D03*
X115800000Y-94600000D03*
X115800000Y-96000000D03*
X121200000Y-94600000D03*
X121200000Y-96000000D03*
X115800000Y-77100000D03*
X115800000Y-78500000D03*
X121200000Y-77100000D03*
X121200000Y-78500000D03*
X115800000Y-59600000D03*
X115800000Y-61000000D03*
X121200000Y-59600000D03*
X121200000Y-61000000D03*
X134300000Y-90225000D03*
X134300000Y-91625000D03*
X139700000Y-90225000D03*
X139700000Y-91625000D03*
X134300000Y-72725000D03*
X134300000Y-74125000D03*
X139700000Y-72725000D03*
X139700000Y-74125000D03*
X134300000Y-55225000D03*
X134300000Y-56625000D03*
X139700000Y-55225000D03*
X139700000Y-56625000D03*
X152800000Y-88037500D03*
X152800000Y-89437500D03*
X158200000Y-88037500D03*
X158200000Y-89437500D03*
X152800000Y-70537500D03*
X152800000Y-71937500D03*
X158200000Y-70537500D03*
X158200000Y-71937500D03*
X152800000Y-53037500D03*
X152800000Y-54437500D03*
X158200000Y-53037500D03*
X158200000Y-54437500D03*
X171300000Y-90225000D03*
X171300000Y-91625000D03*
X176700000Y-90225000D03*
X176700000Y-91625000D03*
X171300000Y-72725000D03*
X171300000Y-74125000D03*
X176700000Y-72725000D03*
X176700000Y-74125000D03*
X171300000Y-55225000D03*
X171300000Y-56625000D03*
X176700000Y-55225000D03*
X176700000Y-56625000D03*
X189800000Y-92412500D03*
X189800000Y-93812500D03*
X195200000Y-92412500D03*
X195200000Y-93812500D03*
X189800000Y-74912500D03*
X189800000Y-76312500D03*
X195200000Y-74912500D03*
X195200000Y-76312500D03*
X189800000Y-57412500D03*
X189800000Y-58812500D03*
X195200000Y-57412500D03*
X195200000Y-58812500D03*
X162050000Y-108537500D03*
X162050000Y-109937500D03*
X167450000Y-108537500D03*
X167450000Y-109937500D03*
G04 #@! TA.AperFunction,SMDPad,CuDef*
G36*
X183234066Y-111074479D02*
G01*
X183492885Y-110108553D01*
X184845182Y-110470899D01*
X184586363Y-111436825D01*
X183234066Y-111074479D01*
G37*
G04 #@! TD.AperFunction*
G04 #@! TA.AperFunction,SMDPad,CuDef*
G36*
X182871719Y-112426776D02*
G01*
X183130538Y-111460850D01*
X184482835Y-111823196D01*
X184224016Y-112789122D01*
X182871719Y-112426776D01*
G37*
G04 #@! TD.AperFunction*
G04 #@! TA.AperFunction,SMDPad,CuDef*
G36*
X188450065Y-112472102D02*
G01*
X188708884Y-111506176D01*
X190061181Y-111868522D01*
X189802362Y-112834448D01*
X188450065Y-112472102D01*
G37*
G04 #@! TD.AperFunction*
G04 #@! TA.AperFunction,SMDPad,CuDef*
G36*
X188087718Y-113824399D02*
G01*
X188346537Y-112858473D01*
X189698834Y-113220819D01*
X189440015Y-114186745D01*
X188087718Y-113824399D01*
G37*
G04 #@! TD.AperFunction*
G04 #@! TA.AperFunction,SMDPad,CuDef*
G36*
X201070319Y-120816735D02*
G01*
X200204293Y-120316735D01*
X200904293Y-119104299D01*
X201770319Y-119604299D01*
X201070319Y-120816735D01*
G37*
G04 #@! TD.AperFunction*
G04 #@! TA.AperFunction,SMDPad,CuDef*
G36*
X202282755Y-121516735D02*
G01*
X201416729Y-121016735D01*
X202116729Y-119804299D01*
X202982755Y-120304299D01*
X202282755Y-121516735D01*
G37*
G04 #@! TD.AperFunction*
G04 #@! TA.AperFunction,SMDPad,CuDef*
G36*
X203770319Y-116140197D02*
G01*
X202904293Y-115640197D01*
X203604293Y-114427761D01*
X204470319Y-114927761D01*
X203770319Y-116140197D01*
G37*
G04 #@! TD.AperFunction*
G04 #@! TA.AperFunction,SMDPad,CuDef*
G36*
X204982755Y-116840197D02*
G01*
X204116729Y-116340197D01*
X204816729Y-115127761D01*
X205682755Y-115627761D01*
X204982755Y-116840197D01*
G37*
G04 #@! TD.AperFunction*
X195200000Y-71812500D03*
X195200000Y-73212500D03*
X189800000Y-71812500D03*
X189800000Y-73212500D03*
X158200000Y-67437500D03*
X158200000Y-68837500D03*
X152800000Y-67437500D03*
X152800000Y-68837500D03*
X121200000Y-74000000D03*
X121200000Y-75400000D03*
X115800000Y-74000000D03*
X115800000Y-75400000D03*
X121200000Y-91500000D03*
X121200000Y-92900000D03*
X115800000Y-91500000D03*
X115800000Y-92900000D03*
X158200000Y-102437500D03*
X158200000Y-103837500D03*
X152800000Y-102437500D03*
X152800000Y-103837500D03*
X195200000Y-106812500D03*
X195200000Y-108212500D03*
X189800000Y-106812500D03*
X189800000Y-108212500D03*
D21*
X104060000Y-96000000D03*
X104950000Y-94600000D03*
X95940000Y-96000000D03*
X95050000Y-94600000D03*
X104060000Y-78500000D03*
X104950000Y-77100000D03*
X95940000Y-78500000D03*
X95050000Y-77100000D03*
X104060000Y-61000000D03*
X104950000Y-59600000D03*
X95940000Y-61000000D03*
X95050000Y-59600000D03*
X122560000Y-96000000D03*
X123450000Y-94600000D03*
X114440000Y-96000000D03*
X113550000Y-94600000D03*
X122560000Y-78500000D03*
X123450000Y-77100000D03*
X114440000Y-78500000D03*
X113550000Y-77100000D03*
X122560000Y-61000000D03*
X123450000Y-59600000D03*
X114440000Y-61000000D03*
X113550000Y-59600000D03*
X141060000Y-91625000D03*
X141950000Y-90225000D03*
X132940000Y-91625000D03*
X132050000Y-90225000D03*
X141060000Y-74125000D03*
X141950000Y-72725000D03*
X132940000Y-74125000D03*
X132050000Y-72725000D03*
X141060000Y-56625000D03*
X141950000Y-55225000D03*
X132940000Y-56625000D03*
X132050000Y-55225000D03*
X159560000Y-89437500D03*
X160450000Y-88037500D03*
X151440000Y-89437500D03*
X150550000Y-88037500D03*
X159560000Y-71937500D03*
X160450000Y-70537500D03*
X151440000Y-71937500D03*
X150550000Y-70537500D03*
X159560000Y-54437500D03*
X160450000Y-53037500D03*
X151440000Y-54437500D03*
X150550000Y-53037500D03*
X178060000Y-91625000D03*
X178950000Y-90225000D03*
X169940000Y-91625000D03*
X169050000Y-90225000D03*
X178060000Y-74125000D03*
X178950000Y-72725000D03*
X169940000Y-74125000D03*
X169050000Y-72725000D03*
X178060000Y-56625000D03*
X178950000Y-55225000D03*
X169940000Y-56625000D03*
X169050000Y-55225000D03*
X196560000Y-93812500D03*
X197450000Y-92412500D03*
X188440000Y-93812500D03*
X187550000Y-92412500D03*
X196560000Y-76312500D03*
X197450000Y-74912500D03*
X188440000Y-76312500D03*
X187550000Y-74912500D03*
X196560000Y-58812500D03*
X197450000Y-57412500D03*
X188440000Y-58812500D03*
X187550000Y-57412500D03*
X168810000Y-109937500D03*
X169700000Y-108537500D03*
X160690000Y-109937500D03*
X159800000Y-108537500D03*
X190206935Y-113874602D03*
X191428956Y-112752655D03*
X182363617Y-111772991D03*
X181866290Y-110190346D03*
X205579741Y-114806185D03*
X204812306Y-113335422D03*
X201519741Y-121838311D03*
X199862306Y-121909074D03*
X188440000Y-71812500D03*
X187550000Y-73212500D03*
X196560000Y-71812500D03*
X197450000Y-73212500D03*
X151440000Y-67437500D03*
X150550000Y-68837500D03*
X159560000Y-67437500D03*
X160450000Y-68837500D03*
X114440000Y-74000000D03*
X113550000Y-75400000D03*
X122560000Y-74000000D03*
X123450000Y-75400000D03*
X114440000Y-91500000D03*
X113550000Y-92900000D03*
X122560000Y-91500000D03*
X123450000Y-92900000D03*
X151440000Y-102437500D03*
X150550000Y-103837500D03*
X159560000Y-102437500D03*
X160450000Y-103837500D03*
X188440000Y-106812500D03*
X187550000Y-108212500D03*
X196560000Y-106812500D03*
X197450000Y-108212500D03*
D22*
X216784000Y-61920000D02*
X215604000Y-61920000D01*
X207624000Y-61920000D02*
X208804000Y-61920000D01*
X204584000Y-61920000D02*
X206704000Y-61920000D01*
X217704000Y-61920000D02*
X219824000Y-61920000D01*
X216784000Y-64460000D02*
X215604000Y-64460000D01*
X207624000Y-64460000D02*
X208804000Y-64460000D01*
X204584000Y-64460000D02*
X206704000Y-64460000D01*
X217704000Y-64460000D02*
X219824000Y-64460000D01*
X216784000Y-67000000D02*
X215604000Y-67000000D01*
X207624000Y-67000000D02*
X208804000Y-67000000D01*
X204584000Y-67000000D02*
X206704000Y-67000000D01*
X217704000Y-67000000D02*
X219824000Y-67000000D01*
X216784000Y-69540000D02*
X215604000Y-69540000D01*
X207624000Y-69540000D02*
X208804000Y-69540000D01*
X204584000Y-69540000D02*
X206704000Y-69540000D01*
X217704000Y-69540000D02*
X219824000Y-69540000D01*
X216784000Y-72080000D02*
X215604000Y-72080000D01*
X207624000Y-72080000D02*
X208804000Y-72080000D01*
X204584000Y-72080000D02*
X206704000Y-72080000D01*
X217704000Y-72080000D02*
X219824000Y-72080000D01*
X216784000Y-74620000D02*
X215604000Y-74620000D01*
X207624000Y-74620000D02*
X208804000Y-74620000D01*
X204584000Y-74620000D02*
X206704000Y-74620000D01*
X217704000Y-74620000D02*
X219824000Y-74620000D01*
X216784000Y-77160000D02*
X215604000Y-77160000D01*
X207624000Y-77160000D02*
X208804000Y-77160000D01*
X204584000Y-77160000D02*
X206704000Y-77160000D01*
X217704000Y-77160000D02*
X219824000Y-77160000D01*
X216784000Y-79700000D02*
X215604000Y-79700000D01*
X207624000Y-79700000D02*
X208804000Y-79700000D01*
X204584000Y-79700000D02*
X206704000Y-79700000D01*
X217704000Y-79700000D02*
X219824000Y-79700000D01*
X216784000Y-82240000D02*
X215604000Y-82240000D01*
X207624000Y-82240000D02*
X208804000Y-82240000D01*
X204584000Y-82240000D02*
X206704000Y-82240000D01*
X217704000Y-82240000D02*
X219824000Y-82240000D01*
X216784000Y-84780000D02*
X215604000Y-84780000D01*
X207624000Y-84780000D02*
X208804000Y-84780000D01*
X204584000Y-84780000D02*
X206704000Y-84780000D01*
X217704000Y-84780000D02*
X219824000Y-84780000D01*
X216784000Y-87320000D02*
X215604000Y-87320000D01*
X207624000Y-87320000D02*
X208804000Y-87320000D01*
X204584000Y-87320000D02*
X206704000Y-87320000D01*
X217704000Y-87320000D02*
X219824000Y-87320000D01*
X216784000Y-89860000D02*
X215604000Y-89860000D01*
X207624000Y-89860000D02*
X208804000Y-89860000D01*
X204584000Y-89860000D02*
X206704000Y-89860000D01*
X217704000Y-89860000D02*
X219824000Y-89860000D01*
X208087000Y-97008000D02*
X208087000Y-95258000D01*
X210627000Y-97008000D02*
X210627000Y-95258000D01*
X213167000Y-97008000D02*
X213167000Y-95258000D01*
X215707000Y-97008000D02*
X215707000Y-95258000D01*
X103400000Y-94600000D02*
X104060000Y-95194084D01*
X104060000Y-95194084D02*
X104060000Y-96000000D01*
X102700000Y-94600000D02*
X103400000Y-94600000D01*
D23*
X102700000Y-96000000D02*
X103481000Y-96785000D01*
X103481000Y-96785000D02*
X104529000Y-96785000D01*
X104950000Y-96360000D02*
X104950000Y-94600000D01*
X104529000Y-96785000D02*
X104950000Y-96360000D01*
D22*
X97300000Y-96000000D02*
X95940000Y-96000000D01*
D23*
X95050000Y-94600000D02*
X97300000Y-94600000D01*
D22*
X103400000Y-77100000D02*
X104060000Y-77694084D01*
X104060000Y-77694084D02*
X104060000Y-78500000D01*
X102700000Y-77100000D02*
X103400000Y-77100000D01*
D23*
X102700000Y-78500000D02*
X103481000Y-79285000D01*
X103481000Y-79285000D02*
X104529000Y-79285000D01*
X104950000Y-78860000D02*
X104950000Y-77100000D01*
X104529000Y-79285000D02*
X104950000Y-78860000D01*
D22*
X97300000Y-78500000D02*
X95940000Y-78500000D01*
D23*
X95050000Y-77100000D02*
X97300000Y-77100000D01*
D22*
X103400000Y-59600000D02*
X104060000Y-60194084D01*
X104060000Y-60194084D02*
X104060000Y-61000000D01*
X102700000Y-59600000D02*
X103400000Y-59600000D01*
D23*
X102700000Y-61000000D02*
X103481000Y-61785000D01*
X103481000Y-61785000D02*
X104529000Y-61785000D01*
X104950000Y-61360000D02*
X104950000Y-59600000D01*
X104529000Y-61785000D02*
X104950000Y-61360000D01*
D22*
X97300000Y-61000000D02*
X95940000Y-61000000D01*
D23*
X95050000Y-59600000D02*
X97300000Y-59600000D01*
D22*
X121900000Y-94600000D02*
X122560000Y-95194084D01*
X122560000Y-95194084D02*
X122560000Y-96000000D01*
X121200000Y-94600000D02*
X121900000Y-94600000D01*
D23*
X121200000Y-96000000D02*
X121981000Y-96785000D01*
X121981000Y-96785000D02*
X123029000Y-96785000D01*
X123450000Y-96360000D02*
X123450000Y-94600000D01*
X123029000Y-96785000D02*
X123450000Y-96360000D01*
D22*
X115800000Y-96000000D02*
X114440000Y-96000000D01*
D23*
X113550000Y-94600000D02*
X115800000Y-94600000D01*
D22*
X121900000Y-77100000D02*
X122560000Y-77694084D01*
X122560000Y-77694084D02*
X122560000Y-78500000D01*
X121200000Y-77100000D02*
X121900000Y-77100000D01*
D23*
X121200000Y-78500000D02*
X121981000Y-79285000D01*
X121981000Y-79285000D02*
X123029000Y-79285000D01*
X123450000Y-78860000D02*
X123450000Y-77100000D01*
X123029000Y-79285000D02*
X123450000Y-78860000D01*
D22*
X115800000Y-78500000D02*
X114440000Y-78500000D01*
D23*
X113550000Y-77100000D02*
X115800000Y-77100000D01*
D22*
X121900000Y-59600000D02*
X122560000Y-60194084D01*
X122560000Y-60194084D02*
X122560000Y-61000000D01*
X121200000Y-59600000D02*
X121900000Y-59600000D01*
D23*
X121200000Y-61000000D02*
X121981000Y-61785000D01*
X121981000Y-61785000D02*
X123029000Y-61785000D01*
X123450000Y-61360000D02*
X123450000Y-59600000D01*
X123029000Y-61785000D02*
X123450000Y-61360000D01*
D22*
X115800000Y-61000000D02*
X114440000Y-61000000D01*
D23*
X113550000Y-59600000D02*
X115800000Y-59600000D01*
D22*
X140400000Y-90225000D02*
X141060000Y-90819084D01*
X141060000Y-90819084D02*
X141060000Y-91625000D01*
X139700000Y-90225000D02*
X140400000Y-90225000D01*
D23*
X139700000Y-91625000D02*
X140481000Y-92410000D01*
X140481000Y-92410000D02*
X141529000Y-92410000D01*
X141950000Y-91985000D02*
X141950000Y-90225000D01*
X141529000Y-92410000D02*
X141950000Y-91985000D01*
D22*
X134300000Y-91625000D02*
X132940000Y-91625000D01*
D23*
X132050000Y-90225000D02*
X134300000Y-90225000D01*
D22*
X140400000Y-72725000D02*
X141060000Y-73319084D01*
X141060000Y-73319084D02*
X141060000Y-74125000D01*
X139700000Y-72725000D02*
X140400000Y-72725000D01*
D23*
X139700000Y-74125000D02*
X140481000Y-74910000D01*
X140481000Y-74910000D02*
X141529000Y-74910000D01*
X141950000Y-74485000D02*
X141950000Y-72725000D01*
X141529000Y-74910000D02*
X141950000Y-74485000D01*
D22*
X134300000Y-74125000D02*
X132940000Y-74125000D01*
D23*
X132050000Y-72725000D02*
X134300000Y-72725000D01*
D22*
X140400000Y-55225000D02*
X141060000Y-55819084D01*
X141060000Y-55819084D02*
X141060000Y-56625000D01*
X139700000Y-55225000D02*
X140400000Y-55225000D01*
D23*
X139700000Y-56625000D02*
X140481000Y-57410000D01*
X140481000Y-57410000D02*
X141529000Y-57410000D01*
X141950000Y-56985000D02*
X141950000Y-55225000D01*
X141529000Y-57410000D02*
X141950000Y-56985000D01*
D22*
X134300000Y-56625000D02*
X132940000Y-56625000D01*
D23*
X132050000Y-55225000D02*
X134300000Y-55225000D01*
D22*
X158900000Y-88037500D02*
X159560000Y-88631584D01*
X159560000Y-88631584D02*
X159560000Y-89437500D01*
X158200000Y-88037500D02*
X158900000Y-88037500D01*
D23*
X158200000Y-89437500D02*
X158981000Y-90222500D01*
X158981000Y-90222500D02*
X160029000Y-90222500D01*
X160450000Y-89797500D02*
X160450000Y-88037500D01*
X160029000Y-90222500D02*
X160450000Y-89797500D01*
D22*
X152800000Y-89437500D02*
X151440000Y-89437500D01*
D23*
X150550000Y-88037500D02*
X152800000Y-88037500D01*
D22*
X158900000Y-70537500D02*
X159560000Y-71131584D01*
X159560000Y-71131584D02*
X159560000Y-71937500D01*
X158200000Y-70537500D02*
X158900000Y-70537500D01*
D23*
X158200000Y-71937500D02*
X158981000Y-72722500D01*
X158981000Y-72722500D02*
X160029000Y-72722500D01*
X160450000Y-72297500D02*
X160450000Y-70537500D01*
X160029000Y-72722500D02*
X160450000Y-72297500D01*
D22*
X152800000Y-71937500D02*
X151440000Y-71937500D01*
D23*
X150550000Y-70537500D02*
X152800000Y-70537500D01*
D22*
X158900000Y-53037500D02*
X159560000Y-53631584D01*
X159560000Y-53631584D02*
X159560000Y-54437500D01*
X158200000Y-53037500D02*
X158900000Y-53037500D01*
D23*
X158200000Y-54437500D02*
X158981000Y-55222500D01*
X158981000Y-55222500D02*
X160029000Y-55222500D01*
X160450000Y-54797500D02*
X160450000Y-53037500D01*
X160029000Y-55222500D02*
X160450000Y-54797500D01*
D22*
X152800000Y-54437500D02*
X151440000Y-54437500D01*
D23*
X150550000Y-53037500D02*
X152800000Y-53037500D01*
D22*
X177400000Y-90225000D02*
X178060000Y-90819084D01*
X178060000Y-90819084D02*
X178060000Y-91625000D01*
X176700000Y-90225000D02*
X177400000Y-90225000D01*
D23*
X176700000Y-91625000D02*
X177481000Y-92410000D01*
X177481000Y-92410000D02*
X178529000Y-92410000D01*
X178950000Y-91985000D02*
X178950000Y-90225000D01*
X178529000Y-92410000D02*
X178950000Y-91985000D01*
D22*
X171300000Y-91625000D02*
X169940000Y-91625000D01*
D23*
X169050000Y-90225000D02*
X171300000Y-90225000D01*
D22*
X177400000Y-72725000D02*
X178060000Y-73319084D01*
X178060000Y-73319084D02*
X178060000Y-74125000D01*
X176700000Y-72725000D02*
X177400000Y-72725000D01*
D23*
X176700000Y-74125000D02*
X177481000Y-74910000D01*
X177481000Y-74910000D02*
X178529000Y-74910000D01*
X178950000Y-74485000D02*
X178950000Y-72725000D01*
X178529000Y-74910000D02*
X178950000Y-74485000D01*
D22*
X171300000Y-74125000D02*
X169940000Y-74125000D01*
D23*
X169050000Y-72725000D02*
X171300000Y-72725000D01*
D22*
X177400000Y-55225000D02*
X178060000Y-55819084D01*
X178060000Y-55819084D02*
X178060000Y-56625000D01*
X176700000Y-55225000D02*
X177400000Y-55225000D01*
D23*
X176700000Y-56625000D02*
X177481000Y-57410000D01*
X177481000Y-57410000D02*
X178529000Y-57410000D01*
X178950000Y-56985000D02*
X178950000Y-55225000D01*
X178529000Y-57410000D02*
X178950000Y-56985000D01*
D22*
X171300000Y-56625000D02*
X169940000Y-56625000D01*
D23*
X169050000Y-55225000D02*
X171300000Y-55225000D01*
D22*
X195900000Y-92412500D02*
X196560000Y-93006584D01*
X196560000Y-93006584D02*
X196560000Y-93812500D01*
X195200000Y-92412500D02*
X195900000Y-92412500D01*
D23*
X195200000Y-93812500D02*
X195981000Y-94597500D01*
X195981000Y-94597500D02*
X197029000Y-94597500D01*
X197450000Y-94172500D02*
X197450000Y-92412500D01*
X197029000Y-94597500D02*
X197450000Y-94172500D01*
D22*
X189800000Y-93812500D02*
X188440000Y-93812500D01*
D23*
X187550000Y-92412500D02*
X189800000Y-92412500D01*
D22*
X195900000Y-74912500D02*
X196560000Y-75506584D01*
X196560000Y-75506584D02*
X196560000Y-76312500D01*
X195200000Y-74912500D02*
X195900000Y-74912500D01*
D23*
X195200000Y-76312500D02*
X195981000Y-77097500D01*
X195981000Y-77097500D02*
X197029000Y-77097500D01*
X197450000Y-76672500D02*
X197450000Y-74912500D01*
X197029000Y-77097500D02*
X197450000Y-76672500D01*
D22*
X189800000Y-76312500D02*
X188440000Y-76312500D01*
D23*
X187550000Y-74912500D02*
X189800000Y-74912500D01*
D22*
X195900000Y-57412500D02*
X196560000Y-58006584D01*
X196560000Y-58006584D02*
X196560000Y-58812500D01*
X195200000Y-57412500D02*
X195900000Y-57412500D01*
D23*
X195200000Y-58812500D02*
X195981000Y-59597500D01*
X195981000Y-59597500D02*
X197029000Y-59597500D01*
X197450000Y-59172500D02*
X197450000Y-57412500D01*
X197029000Y-59597500D02*
X197450000Y-59172500D01*
D22*
X189800000Y-58812500D02*
X188440000Y-58812500D01*
D23*
X187550000Y-57412500D02*
X189800000Y-57412500D01*
D22*
X168150000Y-108537500D02*
X168810000Y-109131584D01*
X168810000Y-109131584D02*
X168810000Y-109937500D01*
X167450000Y-108537500D02*
X168150000Y-108537500D01*
D23*
X167450000Y-109937500D02*
X168231000Y-110722500D01*
X168231000Y-110722500D02*
X169279000Y-110722500D01*
X169700000Y-110297500D02*
X169700000Y-108537500D01*
X169279000Y-110722500D02*
X169700000Y-110297500D01*
D22*
X162050000Y-109937500D02*
X160690000Y-109937500D01*
D23*
X159800000Y-108537500D02*
X162050000Y-108537500D01*
D22*
X189931771Y-112351485D02*
X190415521Y-113096147D01*
X190415521Y-113096147D02*
X190206935Y-113874602D01*
X189255623Y-112170312D02*
X189931771Y-112351485D01*
D23*
X188893276Y-113522608D02*
X189444491Y-114482998D01*
X189444491Y-114482998D02*
X190456781Y-114754240D01*
X190973434Y-114452684D02*
X191428956Y-112752655D01*
X190456781Y-114754240D02*
X190973434Y-114452684D01*
D22*
X183677276Y-112124985D02*
X182363617Y-111772991D01*
D23*
X181866290Y-110190346D02*
X184039623Y-110772689D01*
D22*
X204037306Y-114677762D02*
X204881798Y-114403227D01*
X204881798Y-114403227D02*
X205579741Y-114806185D01*
X203687306Y-115283980D02*
X204037306Y-114677762D01*
D23*
X204899741Y-115983980D02*
X205970071Y-115700114D01*
X205970071Y-115700114D02*
X206494071Y-114792519D01*
X206336510Y-114215422D02*
X204812306Y-113335422D01*
X206494071Y-114792519D02*
X206336510Y-114215422D01*
D22*
X202199741Y-120660517D02*
X201519741Y-121838311D01*
D23*
X199862306Y-121909074D02*
X200987306Y-119960517D01*
D22*
X189800000Y-71812500D02*
X188440000Y-71812500D01*
D23*
X187550000Y-73212500D02*
X189800000Y-73212500D01*
D22*
X195900000Y-73212500D02*
X196560000Y-72618416D01*
X196560000Y-72618416D02*
X196560000Y-71812500D01*
X195200000Y-73212500D02*
X195900000Y-73212500D01*
D23*
X195200000Y-71812500D02*
X195981000Y-71027500D01*
X195981000Y-71027500D02*
X197029000Y-71027500D01*
X197450000Y-71452500D02*
X197450000Y-73212500D01*
X197029000Y-71027500D02*
X197450000Y-71452500D01*
D22*
X152800000Y-67437500D02*
X151440000Y-67437500D01*
D23*
X150550000Y-68837500D02*
X152800000Y-68837500D01*
D22*
X158900000Y-68837500D02*
X159560000Y-68243416D01*
X159560000Y-68243416D02*
X159560000Y-67437500D01*
X158200000Y-68837500D02*
X158900000Y-68837500D01*
D23*
X158200000Y-67437500D02*
X158981000Y-66652500D01*
X158981000Y-66652500D02*
X160029000Y-66652500D01*
X160450000Y-67077500D02*
X160450000Y-68837500D01*
X160029000Y-66652500D02*
X160450000Y-67077500D01*
D22*
X115800000Y-74000000D02*
X114440000Y-74000000D01*
D23*
X113550000Y-75400000D02*
X115800000Y-75400000D01*
D22*
X121900000Y-75400000D02*
X122560000Y-74805916D01*
X122560000Y-74805916D02*
X122560000Y-74000000D01*
X121200000Y-75400000D02*
X121900000Y-75400000D01*
D23*
X121200000Y-74000000D02*
X121981000Y-73215000D01*
X121981000Y-73215000D02*
X123029000Y-73215000D01*
X123450000Y-73640000D02*
X123450000Y-75400000D01*
X123029000Y-73215000D02*
X123450000Y-73640000D01*
D22*
X115800000Y-91500000D02*
X114440000Y-91500000D01*
D23*
X113550000Y-92900000D02*
X115800000Y-92900000D01*
D22*
X121900000Y-92900000D02*
X122560000Y-92305916D01*
X122560000Y-92305916D02*
X122560000Y-91500000D01*
X121200000Y-92900000D02*
X121900000Y-92900000D01*
D23*
X121200000Y-91500000D02*
X121981000Y-90715000D01*
X121981000Y-90715000D02*
X123029000Y-90715000D01*
X123450000Y-91140000D02*
X123450000Y-92900000D01*
X123029000Y-90715000D02*
X123450000Y-91140000D01*
D22*
X152800000Y-102437500D02*
X151440000Y-102437500D01*
D23*
X150550000Y-103837500D02*
X152800000Y-103837500D01*
D22*
X158900000Y-103837500D02*
X159560000Y-103243416D01*
X159560000Y-103243416D02*
X159560000Y-102437500D01*
X158200000Y-103837500D02*
X158900000Y-103837500D01*
D23*
X158200000Y-102437500D02*
X158981000Y-101652500D01*
X158981000Y-101652500D02*
X160029000Y-101652500D01*
X160450000Y-102077500D02*
X160450000Y-103837500D01*
X160029000Y-101652500D02*
X160450000Y-102077500D01*
D22*
X189800000Y-106812500D02*
X188440000Y-106812500D01*
D23*
X187550000Y-108212500D02*
X189800000Y-108212500D01*
D22*
X195900000Y-108212500D02*
X196560000Y-107618416D01*
X196560000Y-107618416D02*
X196560000Y-106812500D01*
X195200000Y-108212500D02*
X195900000Y-108212500D01*
D23*
X195200000Y-106812500D02*
X195981000Y-106027500D01*
X195981000Y-106027500D02*
X197029000Y-106027500D01*
X197450000Y-106452500D02*
X197450000Y-108212500D01*
X197029000Y-106027500D02*
X197450000Y-106452500D01*
M02*
