%TF.GenerationSoftware,KiCad,Pcbnew,8.0.8+1*%
%TF.CreationDate,2025-07-09T05:02:12+00:00*%
%TF.ProjectId,corney_island,636f726e-6579-45f6-9973-6c616e642e6b,0.2*%
%TF.SameCoordinates,Original*%
%TF.FileFunction,Drillmap*%
%TF.FilePolarity,Positive*%
%FSLAX45Y45*%
G04 Gerber Fmt 4.5, Leading zero omitted, Abs format (unit mm)*
G04 Created by KiCad (PCBNEW 8.0.8+1) date 2025-07-09 05:02:12*
%MOMM*%
%LPD*%
G01*
G04 APERTURE LIST*
%ADD10C,0.150000*%
%ADD11C,0.120000*%
%ADD12C,0.200000*%
%ADD13C,0.190000*%
%ADD14C,0.220000*%
%ADD15C,0.300000*%
%ADD16C,0.430000*%
%ADD17C,0.500000*%
G04 APERTURE END LIST*
D10*
X9131698Y-10801245D02*
X9131502Y-5720251D01*
X9181501Y-5670249D02*
X12781501Y-5670151D01*
X12831500Y-5620151D02*
X12831500Y-5282750D01*
X12881500Y-5232750D02*
X14631500Y-5232750D01*
X14681500Y-5182750D02*
X14681500Y-5075250D01*
X14731500Y-5025250D02*
X16384300Y-5025250D01*
X16434300Y-5075250D02*
X16434300Y-5182750D01*
X16484300Y-5232750D02*
X18234300Y-5232750D01*
X18284300Y-5282750D02*
X18284300Y-5412312D01*
X18334288Y-5462312D02*
X20083706Y-5462738D01*
X20133691Y-5513340D02*
X20132410Y-5619648D01*
X22125300Y-11290910D02*
X20779993Y-13572380D01*
X20711924Y-13590285D02*
X19318493Y-12785787D01*
X19300847Y-12779632D02*
X15624698Y-12233003D01*
X15592179Y-12213716D02*
X14575757Y-10870335D01*
X14535877Y-10850503D02*
X9181705Y-10851243D01*
X20182406Y-5670250D02*
X22106800Y-5670250D01*
X22156800Y-5720250D02*
X22156800Y-11222952D01*
X22150101Y-11247952D02*
X22125300Y-11290910D01*
X9131502Y-5720251D02*
G75*
G02*
X9181501Y-5670252I49998J1D01*
G01*
X12831500Y-5620151D02*
G75*
G02*
X12781501Y-5670150I-50000J1D01*
G01*
X12831500Y-5282750D02*
G75*
G02*
X12881500Y-5232750I50000J0D01*
G01*
X14681500Y-5182750D02*
G75*
G02*
X14631500Y-5232750I-50000J0D01*
G01*
X14681500Y-5075250D02*
G75*
G02*
X14731500Y-5025250I50000J0D01*
G01*
X16384300Y-5025250D02*
G75*
G02*
X16434300Y-5075250I0J-50000D01*
G01*
X16484300Y-5232750D02*
G75*
G02*
X16434300Y-5182750I0J50000D01*
G01*
X18234300Y-5232750D02*
G75*
G02*
X18284300Y-5282750I0J-50000D01*
G01*
X18334288Y-5462312D02*
G75*
G02*
X18284298Y-5412312I12J50002D01*
G01*
X20083706Y-5462738D02*
G75*
G02*
X20133689Y-5513340I-16J-50002D01*
G01*
X20182406Y-5670250D02*
G75*
G02*
X20132414Y-5619648I4J50000D01*
G01*
X22106800Y-5670250D02*
G75*
G02*
X22156800Y-5720250I0J-50000D01*
G01*
X22156800Y-11222952D02*
G75*
G02*
X22150100Y-11247952I-50000J3D01*
G01*
X20779993Y-13572380D02*
G75*
G02*
X20711922Y-13590288I-43073J25400D01*
G01*
X19300847Y-12779632D02*
G75*
G02*
X19318492Y-12785788I-7357J-49458D01*
G01*
X15624698Y-12233003D02*
G75*
G02*
X15592179Y-12213716I7352J49453D01*
G01*
X14535877Y-10850503D02*
G75*
G02*
X14575754Y-10870338I3J-49997D01*
G01*
X9181705Y-10851243D02*
G75*
G02*
X9131697Y-10801245I-5J50003D01*
G01*
D11*
X9820000Y-9375000D02*
X10180000Y-9375000D01*
X10180000Y-9685000D01*
X9820000Y-9685000D01*
X9820000Y-9375000D01*
X9820000Y-7625000D02*
X10180000Y-7625000D01*
X10180000Y-7935000D01*
X9820000Y-7935000D01*
X9820000Y-7625000D01*
X9820000Y-5875000D02*
X10180000Y-5875000D01*
X10180000Y-6185000D01*
X9820000Y-6185000D01*
X9820000Y-5875000D01*
X11670000Y-9375000D02*
X12030000Y-9375000D01*
X12030000Y-9685000D01*
X11670000Y-9685000D01*
X11670000Y-9375000D01*
X11670000Y-7625000D02*
X12030000Y-7625000D01*
X12030000Y-7935000D01*
X11670000Y-7935000D01*
X11670000Y-7625000D01*
X11670000Y-5875000D02*
X12030000Y-5875000D01*
X12030000Y-6185000D01*
X11670000Y-6185000D01*
X11670000Y-5875000D01*
X13520000Y-8937500D02*
X13880000Y-8937500D01*
X13880000Y-9247500D01*
X13520000Y-9247500D01*
X13520000Y-8937500D01*
X13520000Y-7187500D02*
X13880000Y-7187500D01*
X13880000Y-7497500D01*
X13520000Y-7497500D01*
X13520000Y-7187500D01*
X13520000Y-5437500D02*
X13880000Y-5437500D01*
X13880000Y-5747500D01*
X13520000Y-5747500D01*
X13520000Y-5437500D01*
X15370000Y-8718750D02*
X15730000Y-8718750D01*
X15730000Y-9028750D01*
X15370000Y-9028750D01*
X15370000Y-8718750D01*
X15370000Y-6968750D02*
X15730000Y-6968750D01*
X15730000Y-7278750D01*
X15370000Y-7278750D01*
X15370000Y-6968750D01*
X15370000Y-5218750D02*
X15730000Y-5218750D01*
X15730000Y-5528750D01*
X15370000Y-5528750D01*
X15370000Y-5218750D01*
X17220000Y-8937500D02*
X17580000Y-8937500D01*
X17580000Y-9247500D01*
X17220000Y-9247500D01*
X17220000Y-8937500D01*
X17220000Y-7187500D02*
X17580000Y-7187500D01*
X17580000Y-7497500D01*
X17220000Y-7497500D01*
X17220000Y-7187500D01*
X17220000Y-5437500D02*
X17580000Y-5437500D01*
X17580000Y-5747500D01*
X17220000Y-5747500D01*
X17220000Y-5437500D01*
X19070000Y-9156250D02*
X19430000Y-9156250D01*
X19430000Y-9466250D01*
X19070000Y-9466250D01*
X19070000Y-9156250D01*
X19070000Y-7406250D02*
X19430000Y-7406250D01*
X19430000Y-7716250D01*
X19070000Y-7716250D01*
X19070000Y-7406250D01*
X19070000Y-5656250D02*
X19430000Y-5656250D01*
X19430000Y-5966250D01*
X19070000Y-5966250D01*
X19070000Y-5656250D01*
X16295000Y-10768750D02*
X16655000Y-10768750D01*
X16655000Y-11078750D01*
X16295000Y-11078750D01*
X16295000Y-10768750D01*
X18860629Y-11111634D02*
X18780395Y-11411071D01*
X18432661Y-11317896D01*
X18512895Y-11018459D01*
X18860629Y-11111634D01*
X20518586Y-11718840D02*
X20338586Y-12030609D01*
X20070119Y-11875609D01*
X20250119Y-11563840D01*
X20518586Y-11718840D01*
X19430000Y-7406250D02*
X19070000Y-7406250D01*
X19070000Y-7096250D01*
X19430000Y-7096250D01*
X19430000Y-7406250D01*
X15730000Y-6968750D02*
X15370000Y-6968750D01*
X15370000Y-6658750D01*
X15730000Y-6658750D01*
X15730000Y-6968750D01*
X12030000Y-7625000D02*
X11670000Y-7625000D01*
X11670000Y-7315000D01*
X12030000Y-7315000D01*
X12030000Y-7625000D01*
X12030000Y-9375000D02*
X11670000Y-9375000D01*
X11670000Y-9065000D01*
X12030000Y-9065000D01*
X12030000Y-9375000D01*
X15730000Y-10468750D02*
X15370000Y-10468750D01*
X15370000Y-10158750D01*
X15730000Y-10158750D01*
X15730000Y-10468750D01*
X19430000Y-10906250D02*
X19070000Y-10906250D01*
X19070000Y-10596250D01*
X19430000Y-10596250D01*
X19430000Y-10906250D01*
D12*
D10*
X21201000Y-10581000D02*
X21351000Y-10731000D01*
X21351000Y-10581000D02*
X21201000Y-10731000D01*
X21901000Y-10581000D02*
X22051000Y-10731000D01*
X22051000Y-10581000D02*
X21901000Y-10731000D01*
D13*
X9545000Y-6500000D02*
G75*
G02*
X9355000Y-6500000I-95000J0D01*
G01*
X9355000Y-6500000D02*
G75*
G02*
X9545000Y-6500000I95000J0D01*
G01*
X9545000Y-6500000D02*
G75*
G02*
X9355000Y-6500000I-95000J0D01*
G01*
X9355000Y-6500000D02*
G75*
G02*
X9545000Y-6500000I95000J0D01*
G01*
X9545000Y-8250000D02*
G75*
G02*
X9355000Y-8250000I-95000J0D01*
G01*
X9355000Y-8250000D02*
G75*
G02*
X9545000Y-8250000I95000J0D01*
G01*
X9545000Y-8250000D02*
G75*
G02*
X9355000Y-8250000I-95000J0D01*
G01*
X9355000Y-8250000D02*
G75*
G02*
X9545000Y-8250000I95000J0D01*
G01*
X9545000Y-10000000D02*
G75*
G02*
X9355000Y-10000000I-95000J0D01*
G01*
X9355000Y-10000000D02*
G75*
G02*
X9545000Y-10000000I95000J0D01*
G01*
X9545000Y-10000000D02*
G75*
G02*
X9355000Y-10000000I-95000J0D01*
G01*
X9355000Y-10000000D02*
G75*
G02*
X9545000Y-10000000I95000J0D01*
G01*
X10645000Y-6500000D02*
G75*
G02*
X10455000Y-6500000I-95000J0D01*
G01*
X10455000Y-6500000D02*
G75*
G02*
X10645000Y-6500000I95000J0D01*
G01*
X10645000Y-6500000D02*
G75*
G02*
X10455000Y-6500000I-95000J0D01*
G01*
X10455000Y-6500000D02*
G75*
G02*
X10645000Y-6500000I95000J0D01*
G01*
X10645000Y-8250000D02*
G75*
G02*
X10455000Y-8250000I-95000J0D01*
G01*
X10455000Y-8250000D02*
G75*
G02*
X10645000Y-8250000I95000J0D01*
G01*
X10645000Y-8250000D02*
G75*
G02*
X10455000Y-8250000I-95000J0D01*
G01*
X10455000Y-8250000D02*
G75*
G02*
X10645000Y-8250000I95000J0D01*
G01*
X10645000Y-10000000D02*
G75*
G02*
X10455000Y-10000000I-95000J0D01*
G01*
X10455000Y-10000000D02*
G75*
G02*
X10645000Y-10000000I95000J0D01*
G01*
X10645000Y-10000000D02*
G75*
G02*
X10455000Y-10000000I-95000J0D01*
G01*
X10455000Y-10000000D02*
G75*
G02*
X10645000Y-10000000I95000J0D01*
G01*
X11395000Y-6500000D02*
G75*
G02*
X11205000Y-6500000I-95000J0D01*
G01*
X11205000Y-6500000D02*
G75*
G02*
X11395000Y-6500000I95000J0D01*
G01*
X11395000Y-6500000D02*
G75*
G02*
X11205000Y-6500000I-95000J0D01*
G01*
X11205000Y-6500000D02*
G75*
G02*
X11395000Y-6500000I95000J0D01*
G01*
X11395000Y-8250000D02*
G75*
G02*
X11205000Y-8250000I-95000J0D01*
G01*
X11205000Y-8250000D02*
G75*
G02*
X11395000Y-8250000I95000J0D01*
G01*
X11395000Y-8250000D02*
G75*
G02*
X11205000Y-8250000I-95000J0D01*
G01*
X11205000Y-8250000D02*
G75*
G02*
X11395000Y-8250000I95000J0D01*
G01*
X11395000Y-10000000D02*
G75*
G02*
X11205000Y-10000000I-95000J0D01*
G01*
X11205000Y-10000000D02*
G75*
G02*
X11395000Y-10000000I95000J0D01*
G01*
X11395000Y-10000000D02*
G75*
G02*
X11205000Y-10000000I-95000J0D01*
G01*
X11205000Y-10000000D02*
G75*
G02*
X11395000Y-10000000I95000J0D01*
G01*
X12495000Y-6500000D02*
G75*
G02*
X12305000Y-6500000I-95000J0D01*
G01*
X12305000Y-6500000D02*
G75*
G02*
X12495000Y-6500000I95000J0D01*
G01*
X12495000Y-6500000D02*
G75*
G02*
X12305000Y-6500000I-95000J0D01*
G01*
X12305000Y-6500000D02*
G75*
G02*
X12495000Y-6500000I95000J0D01*
G01*
X12495000Y-8250000D02*
G75*
G02*
X12305000Y-8250000I-95000J0D01*
G01*
X12305000Y-8250000D02*
G75*
G02*
X12495000Y-8250000I95000J0D01*
G01*
X12495000Y-8250000D02*
G75*
G02*
X12305000Y-8250000I-95000J0D01*
G01*
X12305000Y-8250000D02*
G75*
G02*
X12495000Y-8250000I95000J0D01*
G01*
X12495000Y-10000000D02*
G75*
G02*
X12305000Y-10000000I-95000J0D01*
G01*
X12305000Y-10000000D02*
G75*
G02*
X12495000Y-10000000I95000J0D01*
G01*
X12495000Y-10000000D02*
G75*
G02*
X12305000Y-10000000I-95000J0D01*
G01*
X12305000Y-10000000D02*
G75*
G02*
X12495000Y-10000000I95000J0D01*
G01*
X13245000Y-6062500D02*
G75*
G02*
X13055000Y-6062500I-95000J0D01*
G01*
X13055000Y-6062500D02*
G75*
G02*
X13245000Y-6062500I95000J0D01*
G01*
X13245000Y-6062500D02*
G75*
G02*
X13055000Y-6062500I-95000J0D01*
G01*
X13055000Y-6062500D02*
G75*
G02*
X13245000Y-6062500I95000J0D01*
G01*
X13245000Y-7812500D02*
G75*
G02*
X13055000Y-7812500I-95000J0D01*
G01*
X13055000Y-7812500D02*
G75*
G02*
X13245000Y-7812500I95000J0D01*
G01*
X13245000Y-7812500D02*
G75*
G02*
X13055000Y-7812500I-95000J0D01*
G01*
X13055000Y-7812500D02*
G75*
G02*
X13245000Y-7812500I95000J0D01*
G01*
X13245000Y-9562500D02*
G75*
G02*
X13055000Y-9562500I-95000J0D01*
G01*
X13055000Y-9562500D02*
G75*
G02*
X13245000Y-9562500I95000J0D01*
G01*
X13245000Y-9562500D02*
G75*
G02*
X13055000Y-9562500I-95000J0D01*
G01*
X13055000Y-9562500D02*
G75*
G02*
X13245000Y-9562500I95000J0D01*
G01*
X14345000Y-6062500D02*
G75*
G02*
X14155000Y-6062500I-95000J0D01*
G01*
X14155000Y-6062500D02*
G75*
G02*
X14345000Y-6062500I95000J0D01*
G01*
X14345000Y-6062500D02*
G75*
G02*
X14155000Y-6062500I-95000J0D01*
G01*
X14155000Y-6062500D02*
G75*
G02*
X14345000Y-6062500I95000J0D01*
G01*
X14345000Y-7812500D02*
G75*
G02*
X14155000Y-7812500I-95000J0D01*
G01*
X14155000Y-7812500D02*
G75*
G02*
X14345000Y-7812500I95000J0D01*
G01*
X14345000Y-7812500D02*
G75*
G02*
X14155000Y-7812500I-95000J0D01*
G01*
X14155000Y-7812500D02*
G75*
G02*
X14345000Y-7812500I95000J0D01*
G01*
X14345000Y-9562500D02*
G75*
G02*
X14155000Y-9562500I-95000J0D01*
G01*
X14155000Y-9562500D02*
G75*
G02*
X14345000Y-9562500I95000J0D01*
G01*
X14345000Y-9562500D02*
G75*
G02*
X14155000Y-9562500I-95000J0D01*
G01*
X14155000Y-9562500D02*
G75*
G02*
X14345000Y-9562500I95000J0D01*
G01*
X15095000Y-5843750D02*
G75*
G02*
X14905000Y-5843750I-95000J0D01*
G01*
X14905000Y-5843750D02*
G75*
G02*
X15095000Y-5843750I95000J0D01*
G01*
X15095000Y-5843750D02*
G75*
G02*
X14905000Y-5843750I-95000J0D01*
G01*
X14905000Y-5843750D02*
G75*
G02*
X15095000Y-5843750I95000J0D01*
G01*
X15095000Y-7593750D02*
G75*
G02*
X14905000Y-7593750I-95000J0D01*
G01*
X14905000Y-7593750D02*
G75*
G02*
X15095000Y-7593750I95000J0D01*
G01*
X15095000Y-7593750D02*
G75*
G02*
X14905000Y-7593750I-95000J0D01*
G01*
X14905000Y-7593750D02*
G75*
G02*
X15095000Y-7593750I95000J0D01*
G01*
X15095000Y-9343750D02*
G75*
G02*
X14905000Y-9343750I-95000J0D01*
G01*
X14905000Y-9343750D02*
G75*
G02*
X15095000Y-9343750I95000J0D01*
G01*
X15095000Y-9343750D02*
G75*
G02*
X14905000Y-9343750I-95000J0D01*
G01*
X14905000Y-9343750D02*
G75*
G02*
X15095000Y-9343750I95000J0D01*
G01*
X16020000Y-11393750D02*
G75*
G02*
X15830000Y-11393750I-95000J0D01*
G01*
X15830000Y-11393750D02*
G75*
G02*
X16020000Y-11393750I95000J0D01*
G01*
X16020000Y-11393750D02*
G75*
G02*
X15830000Y-11393750I-95000J0D01*
G01*
X15830000Y-11393750D02*
G75*
G02*
X16020000Y-11393750I95000J0D01*
G01*
X16195000Y-5843750D02*
G75*
G02*
X16005000Y-5843750I-95000J0D01*
G01*
X16005000Y-5843750D02*
G75*
G02*
X16195000Y-5843750I95000J0D01*
G01*
X16195000Y-5843750D02*
G75*
G02*
X16005000Y-5843750I-95000J0D01*
G01*
X16005000Y-5843750D02*
G75*
G02*
X16195000Y-5843750I95000J0D01*
G01*
X16195000Y-7593750D02*
G75*
G02*
X16005000Y-7593750I-95000J0D01*
G01*
X16005000Y-7593750D02*
G75*
G02*
X16195000Y-7593750I95000J0D01*
G01*
X16195000Y-7593750D02*
G75*
G02*
X16005000Y-7593750I-95000J0D01*
G01*
X16005000Y-7593750D02*
G75*
G02*
X16195000Y-7593750I95000J0D01*
G01*
X16195000Y-9343750D02*
G75*
G02*
X16005000Y-9343750I-95000J0D01*
G01*
X16005000Y-9343750D02*
G75*
G02*
X16195000Y-9343750I95000J0D01*
G01*
X16195000Y-9343750D02*
G75*
G02*
X16005000Y-9343750I-95000J0D01*
G01*
X16005000Y-9343750D02*
G75*
G02*
X16195000Y-9343750I95000J0D01*
G01*
X16945000Y-6062500D02*
G75*
G02*
X16755000Y-6062500I-95000J0D01*
G01*
X16755000Y-6062500D02*
G75*
G02*
X16945000Y-6062500I95000J0D01*
G01*
X16945000Y-6062500D02*
G75*
G02*
X16755000Y-6062500I-95000J0D01*
G01*
X16755000Y-6062500D02*
G75*
G02*
X16945000Y-6062500I95000J0D01*
G01*
X16945000Y-7812500D02*
G75*
G02*
X16755000Y-7812500I-95000J0D01*
G01*
X16755000Y-7812500D02*
G75*
G02*
X16945000Y-7812500I95000J0D01*
G01*
X16945000Y-7812500D02*
G75*
G02*
X16755000Y-7812500I-95000J0D01*
G01*
X16755000Y-7812500D02*
G75*
G02*
X16945000Y-7812500I95000J0D01*
G01*
X16945000Y-9562500D02*
G75*
G02*
X16755000Y-9562500I-95000J0D01*
G01*
X16755000Y-9562500D02*
G75*
G02*
X16945000Y-9562500I95000J0D01*
G01*
X16945000Y-9562500D02*
G75*
G02*
X16755000Y-9562500I-95000J0D01*
G01*
X16755000Y-9562500D02*
G75*
G02*
X16945000Y-9562500I95000J0D01*
G01*
X17120000Y-11393750D02*
G75*
G02*
X16930000Y-11393750I-95000J0D01*
G01*
X16930000Y-11393750D02*
G75*
G02*
X17120000Y-11393750I95000J0D01*
G01*
X17120000Y-11393750D02*
G75*
G02*
X16930000Y-11393750I-95000J0D01*
G01*
X16930000Y-11393750D02*
G75*
G02*
X17120000Y-11393750I95000J0D01*
G01*
X18045000Y-6062500D02*
G75*
G02*
X17855000Y-6062500I-95000J0D01*
G01*
X17855000Y-6062500D02*
G75*
G02*
X18045000Y-6062500I95000J0D01*
G01*
X18045000Y-6062500D02*
G75*
G02*
X17855000Y-6062500I-95000J0D01*
G01*
X17855000Y-6062500D02*
G75*
G02*
X18045000Y-6062500I95000J0D01*
G01*
X18045000Y-7812500D02*
G75*
G02*
X17855000Y-7812500I-95000J0D01*
G01*
X17855000Y-7812500D02*
G75*
G02*
X18045000Y-7812500I95000J0D01*
G01*
X18045000Y-7812500D02*
G75*
G02*
X17855000Y-7812500I-95000J0D01*
G01*
X17855000Y-7812500D02*
G75*
G02*
X18045000Y-7812500I95000J0D01*
G01*
X18045000Y-9562500D02*
G75*
G02*
X17855000Y-9562500I-95000J0D01*
G01*
X17855000Y-9562500D02*
G75*
G02*
X18045000Y-9562500I95000J0D01*
G01*
X18045000Y-9562500D02*
G75*
G02*
X17855000Y-9562500I-95000J0D01*
G01*
X17855000Y-9562500D02*
G75*
G02*
X18045000Y-9562500I95000J0D01*
G01*
X18088741Y-11526399D02*
G75*
G02*
X17898741Y-11526399I-95000J0D01*
G01*
X17898741Y-11526399D02*
G75*
G02*
X18088741Y-11526399I95000J0D01*
G01*
X18088741Y-11526399D02*
G75*
G02*
X17898741Y-11526399I-95000J0D01*
G01*
X17898741Y-11526399D02*
G75*
G02*
X18088741Y-11526399I95000J0D01*
G01*
X18795000Y-6281250D02*
G75*
G02*
X18605000Y-6281250I-95000J0D01*
G01*
X18605000Y-6281250D02*
G75*
G02*
X18795000Y-6281250I95000J0D01*
G01*
X18795000Y-6281250D02*
G75*
G02*
X18605000Y-6281250I-95000J0D01*
G01*
X18605000Y-6281250D02*
G75*
G02*
X18795000Y-6281250I95000J0D01*
G01*
X18795000Y-8031250D02*
G75*
G02*
X18605000Y-8031250I-95000J0D01*
G01*
X18605000Y-8031250D02*
G75*
G02*
X18795000Y-8031250I95000J0D01*
G01*
X18795000Y-8031250D02*
G75*
G02*
X18605000Y-8031250I-95000J0D01*
G01*
X18605000Y-8031250D02*
G75*
G02*
X18795000Y-8031250I95000J0D01*
G01*
X18795000Y-9781250D02*
G75*
G02*
X18605000Y-9781250I-95000J0D01*
G01*
X18605000Y-9781250D02*
G75*
G02*
X18795000Y-9781250I95000J0D01*
G01*
X18795000Y-9781250D02*
G75*
G02*
X18605000Y-9781250I-95000J0D01*
G01*
X18605000Y-9781250D02*
G75*
G02*
X18795000Y-9781250I95000J0D01*
G01*
X19151259Y-11811100D02*
G75*
G02*
X18961259Y-11811100I-95000J0D01*
G01*
X18961259Y-11811100D02*
G75*
G02*
X19151259Y-11811100I95000J0D01*
G01*
X19151259Y-11811100D02*
G75*
G02*
X18961259Y-11811100I-95000J0D01*
G01*
X18961259Y-11811100D02*
G75*
G02*
X19151259Y-11811100I95000J0D01*
G01*
X19895000Y-6281250D02*
G75*
G02*
X19705000Y-6281250I-95000J0D01*
G01*
X19705000Y-6281250D02*
G75*
G02*
X19895000Y-6281250I95000J0D01*
G01*
X19895000Y-6281250D02*
G75*
G02*
X19705000Y-6281250I-95000J0D01*
G01*
X19705000Y-6281250D02*
G75*
G02*
X19895000Y-6281250I95000J0D01*
G01*
X19895000Y-8031250D02*
G75*
G02*
X19705000Y-8031250I-95000J0D01*
G01*
X19705000Y-8031250D02*
G75*
G02*
X19895000Y-8031250I95000J0D01*
G01*
X19895000Y-8031250D02*
G75*
G02*
X19705000Y-8031250I-95000J0D01*
G01*
X19705000Y-8031250D02*
G75*
G02*
X19895000Y-8031250I95000J0D01*
G01*
X19895000Y-9781250D02*
G75*
G02*
X19705000Y-9781250I-95000J0D01*
G01*
X19705000Y-9781250D02*
G75*
G02*
X19895000Y-9781250I95000J0D01*
G01*
X19895000Y-9781250D02*
G75*
G02*
X19705000Y-9781250I-95000J0D01*
G01*
X19705000Y-9781250D02*
G75*
G02*
X19895000Y-9781250I95000J0D01*
G01*
X20521384Y-12508539D02*
G75*
G02*
X20331384Y-12508539I-95000J0D01*
G01*
X20331384Y-12508539D02*
G75*
G02*
X20521384Y-12508539I95000J0D01*
G01*
X20521384Y-12508539D02*
G75*
G02*
X20331384Y-12508539I-95000J0D01*
G01*
X20331384Y-12508539D02*
G75*
G02*
X20521384Y-12508539I95000J0D01*
G01*
X21071384Y-11555911D02*
G75*
G02*
X20881384Y-11555911I-95000J0D01*
G01*
X20881384Y-11555911D02*
G75*
G02*
X21071384Y-11555911I95000J0D01*
G01*
X21071384Y-11555911D02*
G75*
G02*
X20881384Y-11555911I-95000J0D01*
G01*
X20881384Y-11555911D02*
G75*
G02*
X21071384Y-11555911I95000J0D01*
G01*
D14*
X20492700Y-9933850D02*
X20492700Y-10153850D01*
X20382700Y-10043850D02*
X20602700Y-10043850D01*
X21896900Y-10778250D02*
X21896900Y-10998250D01*
X21786900Y-10888250D02*
X22006900Y-10888250D01*
D15*
X9606067Y-6981067D02*
X9606067Y-6768933D01*
X9393933Y-6768933D01*
X9393933Y-6981067D01*
X9606067Y-6981067D01*
X9606067Y-8731067D02*
X9606067Y-8518933D01*
X9393933Y-8518933D01*
X9393933Y-8731067D01*
X9606067Y-8731067D01*
X9606067Y-10481067D02*
X9606067Y-10268933D01*
X9393933Y-10268933D01*
X9393933Y-10481067D01*
X9606067Y-10481067D01*
X10106067Y-7201067D02*
X10106067Y-6988933D01*
X9893933Y-6988933D01*
X9893933Y-7201067D01*
X10106067Y-7201067D01*
X10106067Y-7201067D02*
X10106067Y-6988933D01*
X9893933Y-6988933D01*
X9893933Y-7201067D01*
X10106067Y-7201067D01*
X10106067Y-8951067D02*
X10106067Y-8738933D01*
X9893933Y-8738933D01*
X9893933Y-8951067D01*
X10106067Y-8951067D01*
X10106067Y-8951067D02*
X10106067Y-8738933D01*
X9893933Y-8738933D01*
X9893933Y-8951067D01*
X10106067Y-8951067D01*
X10106067Y-10701067D02*
X10106067Y-10488933D01*
X9893933Y-10488933D01*
X9893933Y-10701067D01*
X10106067Y-10701067D01*
X10106067Y-10701067D02*
X10106067Y-10488933D01*
X9893933Y-10488933D01*
X9893933Y-10701067D01*
X10106067Y-10701067D01*
X10606067Y-6981067D02*
X10606067Y-6768933D01*
X10393933Y-6768933D01*
X10393933Y-6981067D01*
X10606067Y-6981067D01*
X10606067Y-8731067D02*
X10606067Y-8518933D01*
X10393933Y-8518933D01*
X10393933Y-8731067D01*
X10606067Y-8731067D01*
X10606067Y-10481067D02*
X10606067Y-10268933D01*
X10393933Y-10268933D01*
X10393933Y-10481067D01*
X10606067Y-10481067D01*
X11456067Y-6981067D02*
X11456067Y-6768933D01*
X11243933Y-6768933D01*
X11243933Y-6981067D01*
X11456067Y-6981067D01*
X11456067Y-8731067D02*
X11456067Y-8518933D01*
X11243933Y-8518933D01*
X11243933Y-8731067D01*
X11456067Y-8731067D01*
X11456067Y-10481067D02*
X11456067Y-10268933D01*
X11243933Y-10268933D01*
X11243933Y-10481067D01*
X11456067Y-10481067D01*
X11956067Y-7201067D02*
X11956067Y-6988933D01*
X11743933Y-6988933D01*
X11743933Y-7201067D01*
X11956067Y-7201067D01*
X11956067Y-7201067D02*
X11956067Y-6988933D01*
X11743933Y-6988933D01*
X11743933Y-7201067D01*
X11956067Y-7201067D01*
X11956067Y-8951067D02*
X11956067Y-8738933D01*
X11743933Y-8738933D01*
X11743933Y-8951067D01*
X11956067Y-8951067D01*
X11956067Y-8951067D02*
X11956067Y-8738933D01*
X11743933Y-8738933D01*
X11743933Y-8951067D01*
X11956067Y-8951067D01*
X11956067Y-10701067D02*
X11956067Y-10488933D01*
X11743933Y-10488933D01*
X11743933Y-10701067D01*
X11956067Y-10701067D01*
X11956067Y-10701067D02*
X11956067Y-10488933D01*
X11743933Y-10488933D01*
X11743933Y-10701067D01*
X11956067Y-10701067D01*
X12456067Y-6981067D02*
X12456067Y-6768933D01*
X12243933Y-6768933D01*
X12243933Y-6981067D01*
X12456067Y-6981067D01*
X12456067Y-8731067D02*
X12456067Y-8518933D01*
X12243933Y-8518933D01*
X12243933Y-8731067D01*
X12456067Y-8731067D01*
X12456067Y-10481067D02*
X12456067Y-10268933D01*
X12243933Y-10268933D01*
X12243933Y-10481067D01*
X12456067Y-10481067D01*
X13306067Y-6543567D02*
X13306067Y-6331433D01*
X13093933Y-6331433D01*
X13093933Y-6543567D01*
X13306067Y-6543567D01*
X13306067Y-8293567D02*
X13306067Y-8081433D01*
X13093933Y-8081433D01*
X13093933Y-8293567D01*
X13306067Y-8293567D01*
X13306067Y-10043567D02*
X13306067Y-9831433D01*
X13093933Y-9831433D01*
X13093933Y-10043567D01*
X13306067Y-10043567D01*
X13806067Y-6763567D02*
X13806067Y-6551433D01*
X13593933Y-6551433D01*
X13593933Y-6763567D01*
X13806067Y-6763567D01*
X13806067Y-6763567D02*
X13806067Y-6551433D01*
X13593933Y-6551433D01*
X13593933Y-6763567D01*
X13806067Y-6763567D01*
X13806067Y-8513567D02*
X13806067Y-8301433D01*
X13593933Y-8301433D01*
X13593933Y-8513567D01*
X13806067Y-8513567D01*
X13806067Y-8513567D02*
X13806067Y-8301433D01*
X13593933Y-8301433D01*
X13593933Y-8513567D01*
X13806067Y-8513567D01*
X13806067Y-10263567D02*
X13806067Y-10051433D01*
X13593933Y-10051433D01*
X13593933Y-10263567D01*
X13806067Y-10263567D01*
X13806067Y-10263567D02*
X13806067Y-10051433D01*
X13593933Y-10051433D01*
X13593933Y-10263567D01*
X13806067Y-10263567D01*
X14306067Y-6543567D02*
X14306067Y-6331433D01*
X14093933Y-6331433D01*
X14093933Y-6543567D01*
X14306067Y-6543567D01*
X14306067Y-8293567D02*
X14306067Y-8081433D01*
X14093933Y-8081433D01*
X14093933Y-8293567D01*
X14306067Y-8293567D01*
X14306067Y-10043567D02*
X14306067Y-9831433D01*
X14093933Y-9831433D01*
X14093933Y-10043567D01*
X14306067Y-10043567D01*
X15156067Y-6324817D02*
X15156067Y-6112683D01*
X14943933Y-6112683D01*
X14943933Y-6324817D01*
X15156067Y-6324817D01*
X15156067Y-8074817D02*
X15156067Y-7862683D01*
X14943933Y-7862683D01*
X14943933Y-8074817D01*
X15156067Y-8074817D01*
X15156067Y-9824817D02*
X15156067Y-9612683D01*
X14943933Y-9612683D01*
X14943933Y-9824817D01*
X15156067Y-9824817D01*
X15656067Y-6544817D02*
X15656067Y-6332683D01*
X15443933Y-6332683D01*
X15443933Y-6544817D01*
X15656067Y-6544817D01*
X15656067Y-6544817D02*
X15656067Y-6332683D01*
X15443933Y-6332683D01*
X15443933Y-6544817D01*
X15656067Y-6544817D01*
X15656067Y-8294817D02*
X15656067Y-8082683D01*
X15443933Y-8082683D01*
X15443933Y-8294817D01*
X15656067Y-8294817D01*
X15656067Y-8294817D02*
X15656067Y-8082683D01*
X15443933Y-8082683D01*
X15443933Y-8294817D01*
X15656067Y-8294817D01*
X15656067Y-10044817D02*
X15656067Y-9832683D01*
X15443933Y-9832683D01*
X15443933Y-10044817D01*
X15656067Y-10044817D01*
X15656067Y-10044817D02*
X15656067Y-9832683D01*
X15443933Y-9832683D01*
X15443933Y-10044817D01*
X15656067Y-10044817D01*
X16081067Y-11874817D02*
X16081067Y-11662683D01*
X15868933Y-11662683D01*
X15868933Y-11874817D01*
X16081067Y-11874817D01*
X16156067Y-6324817D02*
X16156067Y-6112683D01*
X15943933Y-6112683D01*
X15943933Y-6324817D01*
X16156067Y-6324817D01*
X16156067Y-8074817D02*
X16156067Y-7862683D01*
X15943933Y-7862683D01*
X15943933Y-8074817D01*
X16156067Y-8074817D01*
X16156067Y-9824817D02*
X16156067Y-9612683D01*
X15943933Y-9612683D01*
X15943933Y-9824817D01*
X16156067Y-9824817D01*
X16581067Y-12094817D02*
X16581067Y-11882683D01*
X16368933Y-11882683D01*
X16368933Y-12094817D01*
X16581067Y-12094817D01*
X16581067Y-12094817D02*
X16581067Y-11882683D01*
X16368933Y-11882683D01*
X16368933Y-12094817D01*
X16581067Y-12094817D01*
X17006067Y-6543567D02*
X17006067Y-6331433D01*
X16793933Y-6331433D01*
X16793933Y-6543567D01*
X17006067Y-6543567D01*
X17006067Y-8293567D02*
X17006067Y-8081433D01*
X16793933Y-8081433D01*
X16793933Y-8293567D01*
X17006067Y-8293567D01*
X17006067Y-10043567D02*
X17006067Y-9831433D01*
X16793933Y-9831433D01*
X16793933Y-10043567D01*
X17006067Y-10043567D01*
X17081067Y-11874817D02*
X17081067Y-11662683D01*
X16868933Y-11662683D01*
X16868933Y-11874817D01*
X17081067Y-11874817D01*
X17506067Y-6763567D02*
X17506067Y-6551433D01*
X17293933Y-6551433D01*
X17293933Y-6763567D01*
X17506067Y-6763567D01*
X17506067Y-6763567D02*
X17506067Y-6551433D01*
X17293933Y-6551433D01*
X17293933Y-6763567D01*
X17506067Y-6763567D01*
X17506067Y-8513567D02*
X17506067Y-8301433D01*
X17293933Y-8301433D01*
X17293933Y-8513567D01*
X17506067Y-8513567D01*
X17506067Y-8513567D02*
X17506067Y-8301433D01*
X17293933Y-8301433D01*
X17293933Y-8513567D01*
X17506067Y-8513567D01*
X17506067Y-10263567D02*
X17506067Y-10051433D01*
X17293933Y-10051433D01*
X17293933Y-10263567D01*
X17506067Y-10263567D01*
X17506067Y-10263567D02*
X17506067Y-10051433D01*
X17293933Y-10051433D01*
X17293933Y-10263567D01*
X17506067Y-10263567D01*
X18006067Y-6543567D02*
X18006067Y-6331433D01*
X17793933Y-6331433D01*
X17793933Y-6543567D01*
X18006067Y-6543567D01*
X18006067Y-8293567D02*
X18006067Y-8081433D01*
X17793933Y-8081433D01*
X17793933Y-8293567D01*
X18006067Y-8293567D01*
X18006067Y-10043567D02*
X18006067Y-9831433D01*
X17793933Y-9831433D01*
X17793933Y-10043567D01*
X18006067Y-10043567D01*
X18051047Y-12007630D02*
X18051047Y-11795496D01*
X17838913Y-11795496D01*
X17838913Y-12007630D01*
X18051047Y-12007630D01*
X18477070Y-12349543D02*
X18477070Y-12137409D01*
X18264936Y-12137409D01*
X18264936Y-12349543D01*
X18477070Y-12349543D01*
X18477070Y-12349543D02*
X18477070Y-12137409D01*
X18264936Y-12137409D01*
X18264936Y-12349543D01*
X18477070Y-12349543D01*
X18856067Y-6762317D02*
X18856067Y-6550183D01*
X18643933Y-6550183D01*
X18643933Y-6762317D01*
X18856067Y-6762317D01*
X18856067Y-8512317D02*
X18856067Y-8300183D01*
X18643933Y-8300183D01*
X18643933Y-8512317D01*
X18856067Y-8512317D01*
X18856067Y-10262317D02*
X18856067Y-10050183D01*
X18643933Y-10050183D01*
X18643933Y-10262317D01*
X18856067Y-10262317D01*
X19016973Y-12266449D02*
X19016973Y-12054315D01*
X18804839Y-12054315D01*
X18804839Y-12266449D01*
X19016973Y-12266449D01*
X19356067Y-6982317D02*
X19356067Y-6770183D01*
X19143933Y-6770183D01*
X19143933Y-6982317D01*
X19356067Y-6982317D01*
X19356067Y-6982317D02*
X19356067Y-6770183D01*
X19143933Y-6770183D01*
X19143933Y-6982317D01*
X19356067Y-6982317D01*
X19356067Y-8732317D02*
X19356067Y-8520183D01*
X19143933Y-8520183D01*
X19143933Y-8732317D01*
X19356067Y-8732317D01*
X19356067Y-8732317D02*
X19356067Y-8520183D01*
X19143933Y-8520183D01*
X19143933Y-8732317D01*
X19356067Y-8732317D01*
X19356067Y-10482317D02*
X19356067Y-10270183D01*
X19143933Y-10270183D01*
X19143933Y-10482317D01*
X19356067Y-10482317D01*
X19356067Y-10482317D02*
X19356067Y-10270183D01*
X19143933Y-10270183D01*
X19143933Y-10482317D01*
X19356067Y-10482317D01*
X19856067Y-6762317D02*
X19856067Y-6550183D01*
X19643933Y-6550183D01*
X19643933Y-6762317D01*
X19856067Y-6762317D01*
X19856067Y-8512317D02*
X19856067Y-8300183D01*
X19643933Y-8300183D01*
X19643933Y-8512317D01*
X19856067Y-8512317D01*
X19856067Y-10262317D02*
X19856067Y-10050183D01*
X19643933Y-10050183D01*
X19643933Y-10262317D01*
X19856067Y-10262317D01*
X20882211Y-12758804D02*
X20882211Y-12546670D01*
X20670077Y-12546670D01*
X20670077Y-12758804D01*
X20882211Y-12758804D01*
X21322736Y-12435792D02*
X21322736Y-12223658D01*
X21110602Y-12223658D01*
X21110602Y-12435792D01*
X21322736Y-12435792D01*
X21322736Y-12435792D02*
X21322736Y-12223658D01*
X21110602Y-12223658D01*
X21110602Y-12435792D01*
X21322736Y-12435792D01*
X21382211Y-11892779D02*
X21382211Y-11680645D01*
X21170077Y-11680645D01*
X21170077Y-11892779D01*
X21382211Y-11892779D01*
D16*
X10925000Y-7590000D02*
X11140000Y-7375000D01*
X10925000Y-7160000D01*
X10710000Y-7375000D01*
X10925000Y-7590000D01*
X10925000Y-9340000D02*
X11140000Y-9125000D01*
X10925000Y-8910000D01*
X10710000Y-9125000D01*
X10925000Y-9340000D01*
X15115700Y-10951500D02*
X15330700Y-10736500D01*
X15115700Y-10521500D01*
X14900700Y-10736500D01*
X15115700Y-10951500D01*
X18321800Y-7257350D02*
X18536800Y-7042350D01*
X18321800Y-6827350D01*
X18106800Y-7042350D01*
X18321800Y-7257350D01*
X19715761Y-11678175D02*
X19930761Y-11463175D01*
X19715761Y-11248175D01*
X19500761Y-11463175D01*
X19715761Y-11678175D01*
D17*
X9750000Y-6250000D02*
X10250000Y-6750000D01*
X10250000Y-6250000D02*
X9750000Y-6750000D01*
X10250000Y-6500000D02*
G75*
G02*
X9750000Y-6500000I-250000J0D01*
G01*
X9750000Y-6500000D02*
G75*
G02*
X10250000Y-6500000I250000J0D01*
G01*
X9750000Y-6250000D02*
X10250000Y-6750000D01*
X10250000Y-6250000D02*
X9750000Y-6750000D01*
X10250000Y-6500000D02*
G75*
G02*
X9750000Y-6500000I-250000J0D01*
G01*
X9750000Y-6500000D02*
G75*
G02*
X10250000Y-6500000I250000J0D01*
G01*
X9750000Y-8000000D02*
X10250000Y-8500000D01*
X10250000Y-8000000D02*
X9750000Y-8500000D01*
X10250000Y-8250000D02*
G75*
G02*
X9750000Y-8250000I-250000J0D01*
G01*
X9750000Y-8250000D02*
G75*
G02*
X10250000Y-8250000I250000J0D01*
G01*
X9750000Y-8000000D02*
X10250000Y-8500000D01*
X10250000Y-8000000D02*
X9750000Y-8500000D01*
X10250000Y-8250000D02*
G75*
G02*
X9750000Y-8250000I-250000J0D01*
G01*
X9750000Y-8250000D02*
G75*
G02*
X10250000Y-8250000I250000J0D01*
G01*
X9750000Y-9750000D02*
X10250000Y-10250000D01*
X10250000Y-9750000D02*
X9750000Y-10250000D01*
X10250000Y-10000000D02*
G75*
G02*
X9750000Y-10000000I-250000J0D01*
G01*
X9750000Y-10000000D02*
G75*
G02*
X10250000Y-10000000I250000J0D01*
G01*
X9750000Y-9750000D02*
X10250000Y-10250000D01*
X10250000Y-9750000D02*
X9750000Y-10250000D01*
X10250000Y-10000000D02*
G75*
G02*
X9750000Y-10000000I-250000J0D01*
G01*
X9750000Y-10000000D02*
G75*
G02*
X10250000Y-10000000I250000J0D01*
G01*
X11600000Y-6250000D02*
X12100000Y-6750000D01*
X12100000Y-6250000D02*
X11600000Y-6750000D01*
X12100000Y-6500000D02*
G75*
G02*
X11600000Y-6500000I-250000J0D01*
G01*
X11600000Y-6500000D02*
G75*
G02*
X12100000Y-6500000I250000J0D01*
G01*
X11600000Y-6250000D02*
X12100000Y-6750000D01*
X12100000Y-6250000D02*
X11600000Y-6750000D01*
X12100000Y-6500000D02*
G75*
G02*
X11600000Y-6500000I-250000J0D01*
G01*
X11600000Y-6500000D02*
G75*
G02*
X12100000Y-6500000I250000J0D01*
G01*
X11600000Y-8000000D02*
X12100000Y-8500000D01*
X12100000Y-8000000D02*
X11600000Y-8500000D01*
X12100000Y-8250000D02*
G75*
G02*
X11600000Y-8250000I-250000J0D01*
G01*
X11600000Y-8250000D02*
G75*
G02*
X12100000Y-8250000I250000J0D01*
G01*
X11600000Y-8000000D02*
X12100000Y-8500000D01*
X12100000Y-8000000D02*
X11600000Y-8500000D01*
X12100000Y-8250000D02*
G75*
G02*
X11600000Y-8250000I-250000J0D01*
G01*
X11600000Y-8250000D02*
G75*
G02*
X12100000Y-8250000I250000J0D01*
G01*
X11600000Y-9750000D02*
X12100000Y-10250000D01*
X12100000Y-9750000D02*
X11600000Y-10250000D01*
X12100000Y-10000000D02*
G75*
G02*
X11600000Y-10000000I-250000J0D01*
G01*
X11600000Y-10000000D02*
G75*
G02*
X12100000Y-10000000I250000J0D01*
G01*
X11600000Y-9750000D02*
X12100000Y-10250000D01*
X12100000Y-9750000D02*
X11600000Y-10250000D01*
X12100000Y-10000000D02*
G75*
G02*
X11600000Y-10000000I-250000J0D01*
G01*
X11600000Y-10000000D02*
G75*
G02*
X12100000Y-10000000I250000J0D01*
G01*
X13450000Y-5812500D02*
X13950000Y-6312500D01*
X13950000Y-5812500D02*
X13450000Y-6312500D01*
X13950000Y-6062500D02*
G75*
G02*
X13450000Y-6062500I-250000J0D01*
G01*
X13450000Y-6062500D02*
G75*
G02*
X13950000Y-6062500I250000J0D01*
G01*
X13450000Y-5812500D02*
X13950000Y-6312500D01*
X13950000Y-5812500D02*
X13450000Y-6312500D01*
X13950000Y-6062500D02*
G75*
G02*
X13450000Y-6062500I-250000J0D01*
G01*
X13450000Y-6062500D02*
G75*
G02*
X13950000Y-6062500I250000J0D01*
G01*
X13450000Y-7562500D02*
X13950000Y-8062500D01*
X13950000Y-7562500D02*
X13450000Y-8062500D01*
X13950000Y-7812500D02*
G75*
G02*
X13450000Y-7812500I-250000J0D01*
G01*
X13450000Y-7812500D02*
G75*
G02*
X13950000Y-7812500I250000J0D01*
G01*
X13450000Y-7562500D02*
X13950000Y-8062500D01*
X13950000Y-7562500D02*
X13450000Y-8062500D01*
X13950000Y-7812500D02*
G75*
G02*
X13450000Y-7812500I-250000J0D01*
G01*
X13450000Y-7812500D02*
G75*
G02*
X13950000Y-7812500I250000J0D01*
G01*
X13450000Y-9312500D02*
X13950000Y-9812500D01*
X13950000Y-9312500D02*
X13450000Y-9812500D01*
X13950000Y-9562500D02*
G75*
G02*
X13450000Y-9562500I-250000J0D01*
G01*
X13450000Y-9562500D02*
G75*
G02*
X13950000Y-9562500I250000J0D01*
G01*
X13450000Y-9312500D02*
X13950000Y-9812500D01*
X13950000Y-9312500D02*
X13450000Y-9812500D01*
X13950000Y-9562500D02*
G75*
G02*
X13450000Y-9562500I-250000J0D01*
G01*
X13450000Y-9562500D02*
G75*
G02*
X13950000Y-9562500I250000J0D01*
G01*
X15300000Y-5593750D02*
X15800000Y-6093750D01*
X15800000Y-5593750D02*
X15300000Y-6093750D01*
X15800000Y-5843750D02*
G75*
G02*
X15300000Y-5843750I-250000J0D01*
G01*
X15300000Y-5843750D02*
G75*
G02*
X15800000Y-5843750I250000J0D01*
G01*
X15300000Y-5593750D02*
X15800000Y-6093750D01*
X15800000Y-5593750D02*
X15300000Y-6093750D01*
X15800000Y-5843750D02*
G75*
G02*
X15300000Y-5843750I-250000J0D01*
G01*
X15300000Y-5843750D02*
G75*
G02*
X15800000Y-5843750I250000J0D01*
G01*
X15300000Y-7343750D02*
X15800000Y-7843750D01*
X15800000Y-7343750D02*
X15300000Y-7843750D01*
X15800000Y-7593750D02*
G75*
G02*
X15300000Y-7593750I-250000J0D01*
G01*
X15300000Y-7593750D02*
G75*
G02*
X15800000Y-7593750I250000J0D01*
G01*
X15300000Y-7343750D02*
X15800000Y-7843750D01*
X15800000Y-7343750D02*
X15300000Y-7843750D01*
X15800000Y-7593750D02*
G75*
G02*
X15300000Y-7593750I-250000J0D01*
G01*
X15300000Y-7593750D02*
G75*
G02*
X15800000Y-7593750I250000J0D01*
G01*
X15300000Y-9093750D02*
X15800000Y-9593750D01*
X15800000Y-9093750D02*
X15300000Y-9593750D01*
X15800000Y-9343750D02*
G75*
G02*
X15300000Y-9343750I-250000J0D01*
G01*
X15300000Y-9343750D02*
G75*
G02*
X15800000Y-9343750I250000J0D01*
G01*
X15300000Y-9093750D02*
X15800000Y-9593750D01*
X15800000Y-9093750D02*
X15300000Y-9593750D01*
X15800000Y-9343750D02*
G75*
G02*
X15300000Y-9343750I-250000J0D01*
G01*
X15300000Y-9343750D02*
G75*
G02*
X15800000Y-9343750I250000J0D01*
G01*
X16225000Y-11143750D02*
X16725000Y-11643750D01*
X16725000Y-11143750D02*
X16225000Y-11643750D01*
X16725000Y-11393750D02*
G75*
G02*
X16225000Y-11393750I-250000J0D01*
G01*
X16225000Y-11393750D02*
G75*
G02*
X16725000Y-11393750I250000J0D01*
G01*
X16225000Y-11143750D02*
X16725000Y-11643750D01*
X16725000Y-11143750D02*
X16225000Y-11643750D01*
X16725000Y-11393750D02*
G75*
G02*
X16225000Y-11393750I-250000J0D01*
G01*
X16225000Y-11393750D02*
G75*
G02*
X16725000Y-11393750I250000J0D01*
G01*
X17150000Y-5812500D02*
X17650000Y-6312500D01*
X17650000Y-5812500D02*
X17150000Y-6312500D01*
X17650000Y-6062500D02*
G75*
G02*
X17150000Y-6062500I-250000J0D01*
G01*
X17150000Y-6062500D02*
G75*
G02*
X17650000Y-6062500I250000J0D01*
G01*
X17150000Y-5812500D02*
X17650000Y-6312500D01*
X17650000Y-5812500D02*
X17150000Y-6312500D01*
X17650000Y-6062500D02*
G75*
G02*
X17150000Y-6062500I-250000J0D01*
G01*
X17150000Y-6062500D02*
G75*
G02*
X17650000Y-6062500I250000J0D01*
G01*
X17150000Y-7562500D02*
X17650000Y-8062500D01*
X17650000Y-7562500D02*
X17150000Y-8062500D01*
X17650000Y-7812500D02*
G75*
G02*
X17150000Y-7812500I-250000J0D01*
G01*
X17150000Y-7812500D02*
G75*
G02*
X17650000Y-7812500I250000J0D01*
G01*
X17150000Y-7562500D02*
X17650000Y-8062500D01*
X17650000Y-7562500D02*
X17150000Y-8062500D01*
X17650000Y-7812500D02*
G75*
G02*
X17150000Y-7812500I-250000J0D01*
G01*
X17150000Y-7812500D02*
G75*
G02*
X17650000Y-7812500I250000J0D01*
G01*
X17150000Y-9312500D02*
X17650000Y-9812500D01*
X17650000Y-9312500D02*
X17150000Y-9812500D01*
X17650000Y-9562500D02*
G75*
G02*
X17150000Y-9562500I-250000J0D01*
G01*
X17150000Y-9562500D02*
G75*
G02*
X17650000Y-9562500I250000J0D01*
G01*
X17150000Y-9312500D02*
X17650000Y-9812500D01*
X17650000Y-9312500D02*
X17150000Y-9812500D01*
X17650000Y-9562500D02*
G75*
G02*
X17150000Y-9562500I-250000J0D01*
G01*
X17150000Y-9562500D02*
G75*
G02*
X17650000Y-9562500I250000J0D01*
G01*
X18275000Y-11418750D02*
X18775000Y-11918750D01*
X18775000Y-11418750D02*
X18275000Y-11918750D01*
X18775000Y-11668750D02*
G75*
G02*
X18275000Y-11668750I-250000J0D01*
G01*
X18275000Y-11668750D02*
G75*
G02*
X18775000Y-11668750I250000J0D01*
G01*
X18275000Y-11418750D02*
X18775000Y-11918750D01*
X18775000Y-11418750D02*
X18275000Y-11918750D01*
X18775000Y-11668750D02*
G75*
G02*
X18275000Y-11668750I-250000J0D01*
G01*
X18275000Y-11668750D02*
G75*
G02*
X18775000Y-11668750I250000J0D01*
G01*
X19000000Y-6031250D02*
X19500000Y-6531250D01*
X19500000Y-6031250D02*
X19000000Y-6531250D01*
X19500000Y-6281250D02*
G75*
G02*
X19000000Y-6281250I-250000J0D01*
G01*
X19000000Y-6281250D02*
G75*
G02*
X19500000Y-6281250I250000J0D01*
G01*
X19000000Y-6031250D02*
X19500000Y-6531250D01*
X19500000Y-6031250D02*
X19000000Y-6531250D01*
X19500000Y-6281250D02*
G75*
G02*
X19000000Y-6281250I-250000J0D01*
G01*
X19000000Y-6281250D02*
G75*
G02*
X19500000Y-6281250I250000J0D01*
G01*
X19000000Y-7781250D02*
X19500000Y-8281250D01*
X19500000Y-7781250D02*
X19000000Y-8281250D01*
X19500000Y-8031250D02*
G75*
G02*
X19000000Y-8031250I-250000J0D01*
G01*
X19000000Y-8031250D02*
G75*
G02*
X19500000Y-8031250I250000J0D01*
G01*
X19000000Y-7781250D02*
X19500000Y-8281250D01*
X19500000Y-7781250D02*
X19000000Y-8281250D01*
X19500000Y-8031250D02*
G75*
G02*
X19000000Y-8031250I-250000J0D01*
G01*
X19000000Y-8031250D02*
G75*
G02*
X19500000Y-8031250I250000J0D01*
G01*
X19000000Y-9531250D02*
X19500000Y-10031250D01*
X19500000Y-9531250D02*
X19000000Y-10031250D01*
X19500000Y-9781250D02*
G75*
G02*
X19000000Y-9781250I-250000J0D01*
G01*
X19000000Y-9781250D02*
G75*
G02*
X19500000Y-9781250I250000J0D01*
G01*
X19000000Y-9531250D02*
X19500000Y-10031250D01*
X19500000Y-9531250D02*
X19000000Y-10031250D01*
X19500000Y-9781250D02*
G75*
G02*
X19000000Y-9781250I-250000J0D01*
G01*
X19000000Y-9781250D02*
G75*
G02*
X19500000Y-9781250I250000J0D01*
G01*
X20451384Y-11782225D02*
X20951384Y-12282225D01*
X20951384Y-11782225D02*
X20451384Y-12282225D01*
X20951384Y-12032225D02*
G75*
G02*
X20451384Y-12032225I-250000J0D01*
G01*
X20451384Y-12032225D02*
G75*
G02*
X20951384Y-12032225I250000J0D01*
G01*
X20451384Y-11782225D02*
X20951384Y-12282225D01*
X20951384Y-11782225D02*
X20451384Y-12282225D01*
X20951384Y-12032225D02*
G75*
G02*
X20451384Y-12032225I-250000J0D01*
G01*
X20451384Y-12032225D02*
G75*
G02*
X20951384Y-12032225I250000J0D01*
G01*
D12*
X9384779Y-13915969D02*
X9384779Y-13715969D01*
X9384779Y-13715969D02*
X9432398Y-13715969D01*
X9432398Y-13715969D02*
X9460969Y-13725492D01*
X9460969Y-13725492D02*
X9480017Y-13744540D01*
X9480017Y-13744540D02*
X9489541Y-13763588D01*
X9489541Y-13763588D02*
X9499064Y-13801683D01*
X9499064Y-13801683D02*
X9499064Y-13830254D01*
X9499064Y-13830254D02*
X9489541Y-13868350D01*
X9489541Y-13868350D02*
X9480017Y-13887397D01*
X9480017Y-13887397D02*
X9460969Y-13906445D01*
X9460969Y-13906445D02*
X9432398Y-13915969D01*
X9432398Y-13915969D02*
X9384779Y-13915969D01*
X9584779Y-13915969D02*
X9584779Y-13782635D01*
X9584779Y-13820731D02*
X9594303Y-13801683D01*
X9594303Y-13801683D02*
X9603826Y-13792159D01*
X9603826Y-13792159D02*
X9622874Y-13782635D01*
X9622874Y-13782635D02*
X9641922Y-13782635D01*
X9708588Y-13915969D02*
X9708588Y-13782635D01*
X9708588Y-13715969D02*
X9699064Y-13725492D01*
X9699064Y-13725492D02*
X9708588Y-13735016D01*
X9708588Y-13735016D02*
X9718112Y-13725492D01*
X9718112Y-13725492D02*
X9708588Y-13715969D01*
X9708588Y-13715969D02*
X9708588Y-13735016D01*
X9832398Y-13915969D02*
X9813350Y-13906445D01*
X9813350Y-13906445D02*
X9803826Y-13887397D01*
X9803826Y-13887397D02*
X9803826Y-13715969D01*
X9937160Y-13915969D02*
X9918112Y-13906445D01*
X9918112Y-13906445D02*
X9908588Y-13887397D01*
X9908588Y-13887397D02*
X9908588Y-13715969D01*
X10165731Y-13915969D02*
X10165731Y-13715969D01*
X10165731Y-13715969D02*
X10232398Y-13858826D01*
X10232398Y-13858826D02*
X10299064Y-13715969D01*
X10299064Y-13715969D02*
X10299064Y-13915969D01*
X10480017Y-13915969D02*
X10480017Y-13811207D01*
X10480017Y-13811207D02*
X10470493Y-13792159D01*
X10470493Y-13792159D02*
X10451445Y-13782635D01*
X10451445Y-13782635D02*
X10413350Y-13782635D01*
X10413350Y-13782635D02*
X10394303Y-13792159D01*
X10480017Y-13906445D02*
X10460969Y-13915969D01*
X10460969Y-13915969D02*
X10413350Y-13915969D01*
X10413350Y-13915969D02*
X10394303Y-13906445D01*
X10394303Y-13906445D02*
X10384779Y-13887397D01*
X10384779Y-13887397D02*
X10384779Y-13868350D01*
X10384779Y-13868350D02*
X10394303Y-13849302D01*
X10394303Y-13849302D02*
X10413350Y-13839778D01*
X10413350Y-13839778D02*
X10460969Y-13839778D01*
X10460969Y-13839778D02*
X10480017Y-13830254D01*
X10575255Y-13782635D02*
X10575255Y-13982635D01*
X10575255Y-13792159D02*
X10594303Y-13782635D01*
X10594303Y-13782635D02*
X10632398Y-13782635D01*
X10632398Y-13782635D02*
X10651445Y-13792159D01*
X10651445Y-13792159D02*
X10660969Y-13801683D01*
X10660969Y-13801683D02*
X10670493Y-13820731D01*
X10670493Y-13820731D02*
X10670493Y-13877873D01*
X10670493Y-13877873D02*
X10660969Y-13896921D01*
X10660969Y-13896921D02*
X10651445Y-13906445D01*
X10651445Y-13906445D02*
X10632398Y-13915969D01*
X10632398Y-13915969D02*
X10594303Y-13915969D01*
X10594303Y-13915969D02*
X10575255Y-13906445D01*
X10756207Y-13896921D02*
X10765731Y-13906445D01*
X10765731Y-13906445D02*
X10756207Y-13915969D01*
X10756207Y-13915969D02*
X10746684Y-13906445D01*
X10746684Y-13906445D02*
X10756207Y-13896921D01*
X10756207Y-13896921D02*
X10756207Y-13915969D01*
X10756207Y-13792159D02*
X10765731Y-13801683D01*
X10765731Y-13801683D02*
X10756207Y-13811207D01*
X10756207Y-13811207D02*
X10746684Y-13801683D01*
X10746684Y-13801683D02*
X10756207Y-13792159D01*
X10756207Y-13792159D02*
X10756207Y-13811207D01*
D10*
X8974002Y-14169485D02*
X9124002Y-14319485D01*
X9124002Y-14169485D02*
X8974002Y-14319485D01*
D12*
X9489541Y-14335969D02*
X9375255Y-14335969D01*
X9432398Y-14335969D02*
X9432398Y-14135969D01*
X9432398Y-14135969D02*
X9413350Y-14164540D01*
X9413350Y-14164540D02*
X9394303Y-14183588D01*
X9394303Y-14183588D02*
X9375255Y-14193111D01*
X9575255Y-14316921D02*
X9584779Y-14326445D01*
X9584779Y-14326445D02*
X9575255Y-14335969D01*
X9575255Y-14335969D02*
X9565731Y-14326445D01*
X9565731Y-14326445D02*
X9575255Y-14316921D01*
X9575255Y-14316921D02*
X9575255Y-14335969D01*
X9765731Y-14135969D02*
X9670493Y-14135969D01*
X9670493Y-14135969D02*
X9660969Y-14231207D01*
X9660969Y-14231207D02*
X9670493Y-14221683D01*
X9670493Y-14221683D02*
X9689541Y-14212159D01*
X9689541Y-14212159D02*
X9737160Y-14212159D01*
X9737160Y-14212159D02*
X9756207Y-14221683D01*
X9756207Y-14221683D02*
X9765731Y-14231207D01*
X9765731Y-14231207D02*
X9775255Y-14250254D01*
X9775255Y-14250254D02*
X9775255Y-14297873D01*
X9775255Y-14297873D02*
X9765731Y-14316921D01*
X9765731Y-14316921D02*
X9756207Y-14326445D01*
X9756207Y-14326445D02*
X9737160Y-14335969D01*
X9737160Y-14335969D02*
X9689541Y-14335969D01*
X9689541Y-14335969D02*
X9670493Y-14326445D01*
X9670493Y-14326445D02*
X9660969Y-14316921D01*
X9899064Y-14135969D02*
X9918112Y-14135969D01*
X9918112Y-14135969D02*
X9937160Y-14145492D01*
X9937160Y-14145492D02*
X9946684Y-14155016D01*
X9946684Y-14155016D02*
X9956207Y-14174064D01*
X9956207Y-14174064D02*
X9965731Y-14212159D01*
X9965731Y-14212159D02*
X9965731Y-14259778D01*
X9965731Y-14259778D02*
X9956207Y-14297873D01*
X9956207Y-14297873D02*
X9946684Y-14316921D01*
X9946684Y-14316921D02*
X9937160Y-14326445D01*
X9937160Y-14326445D02*
X9918112Y-14335969D01*
X9918112Y-14335969D02*
X9899064Y-14335969D01*
X9899064Y-14335969D02*
X9880017Y-14326445D01*
X9880017Y-14326445D02*
X9870493Y-14316921D01*
X9870493Y-14316921D02*
X9860969Y-14297873D01*
X9860969Y-14297873D02*
X9851445Y-14259778D01*
X9851445Y-14259778D02*
X9851445Y-14212159D01*
X9851445Y-14212159D02*
X9860969Y-14174064D01*
X9860969Y-14174064D02*
X9870493Y-14155016D01*
X9870493Y-14155016D02*
X9880017Y-14145492D01*
X9880017Y-14145492D02*
X9899064Y-14135969D01*
X10089541Y-14135969D02*
X10108588Y-14135969D01*
X10108588Y-14135969D02*
X10127636Y-14145492D01*
X10127636Y-14145492D02*
X10137160Y-14155016D01*
X10137160Y-14155016D02*
X10146684Y-14174064D01*
X10146684Y-14174064D02*
X10156207Y-14212159D01*
X10156207Y-14212159D02*
X10156207Y-14259778D01*
X10156207Y-14259778D02*
X10146684Y-14297873D01*
X10146684Y-14297873D02*
X10137160Y-14316921D01*
X10137160Y-14316921D02*
X10127636Y-14326445D01*
X10127636Y-14326445D02*
X10108588Y-14335969D01*
X10108588Y-14335969D02*
X10089541Y-14335969D01*
X10089541Y-14335969D02*
X10070493Y-14326445D01*
X10070493Y-14326445D02*
X10060969Y-14316921D01*
X10060969Y-14316921D02*
X10051445Y-14297873D01*
X10051445Y-14297873D02*
X10041922Y-14259778D01*
X10041922Y-14259778D02*
X10041922Y-14212159D01*
X10041922Y-14212159D02*
X10051445Y-14174064D01*
X10051445Y-14174064D02*
X10060969Y-14155016D01*
X10060969Y-14155016D02*
X10070493Y-14145492D01*
X10070493Y-14145492D02*
X10089541Y-14135969D01*
X10241922Y-14335969D02*
X10241922Y-14202635D01*
X10241922Y-14221683D02*
X10251445Y-14212159D01*
X10251445Y-14212159D02*
X10270493Y-14202635D01*
X10270493Y-14202635D02*
X10299065Y-14202635D01*
X10299065Y-14202635D02*
X10318112Y-14212159D01*
X10318112Y-14212159D02*
X10327636Y-14231207D01*
X10327636Y-14231207D02*
X10327636Y-14335969D01*
X10327636Y-14231207D02*
X10337160Y-14212159D01*
X10337160Y-14212159D02*
X10356207Y-14202635D01*
X10356207Y-14202635D02*
X10384779Y-14202635D01*
X10384779Y-14202635D02*
X10403826Y-14212159D01*
X10403826Y-14212159D02*
X10413350Y-14231207D01*
X10413350Y-14231207D02*
X10413350Y-14335969D01*
X10508588Y-14335969D02*
X10508588Y-14202635D01*
X10508588Y-14221683D02*
X10518112Y-14212159D01*
X10518112Y-14212159D02*
X10537160Y-14202635D01*
X10537160Y-14202635D02*
X10565731Y-14202635D01*
X10565731Y-14202635D02*
X10584779Y-14212159D01*
X10584779Y-14212159D02*
X10594303Y-14231207D01*
X10594303Y-14231207D02*
X10594303Y-14335969D01*
X10594303Y-14231207D02*
X10603826Y-14212159D01*
X10603826Y-14212159D02*
X10622874Y-14202635D01*
X10622874Y-14202635D02*
X10651445Y-14202635D01*
X10651445Y-14202635D02*
X10670493Y-14212159D01*
X10670493Y-14212159D02*
X10680017Y-14231207D01*
X10680017Y-14231207D02*
X10680017Y-14335969D01*
X11070493Y-14126445D02*
X10899065Y-14383588D01*
X11327636Y-14135969D02*
X11346684Y-14135969D01*
X11346684Y-14135969D02*
X11365731Y-14145492D01*
X11365731Y-14145492D02*
X11375255Y-14155016D01*
X11375255Y-14155016D02*
X11384779Y-14174064D01*
X11384779Y-14174064D02*
X11394303Y-14212159D01*
X11394303Y-14212159D02*
X11394303Y-14259778D01*
X11394303Y-14259778D02*
X11384779Y-14297873D01*
X11384779Y-14297873D02*
X11375255Y-14316921D01*
X11375255Y-14316921D02*
X11365731Y-14326445D01*
X11365731Y-14326445D02*
X11346684Y-14335969D01*
X11346684Y-14335969D02*
X11327636Y-14335969D01*
X11327636Y-14335969D02*
X11308588Y-14326445D01*
X11308588Y-14326445D02*
X11299065Y-14316921D01*
X11299065Y-14316921D02*
X11289541Y-14297873D01*
X11289541Y-14297873D02*
X11280017Y-14259778D01*
X11280017Y-14259778D02*
X11280017Y-14212159D01*
X11280017Y-14212159D02*
X11289541Y-14174064D01*
X11289541Y-14174064D02*
X11299065Y-14155016D01*
X11299065Y-14155016D02*
X11308588Y-14145492D01*
X11308588Y-14145492D02*
X11327636Y-14135969D01*
X11480017Y-14316921D02*
X11489541Y-14326445D01*
X11489541Y-14326445D02*
X11480017Y-14335969D01*
X11480017Y-14335969D02*
X11470493Y-14326445D01*
X11470493Y-14326445D02*
X11480017Y-14316921D01*
X11480017Y-14316921D02*
X11480017Y-14335969D01*
X11613350Y-14135969D02*
X11632398Y-14135969D01*
X11632398Y-14135969D02*
X11651446Y-14145492D01*
X11651446Y-14145492D02*
X11660969Y-14155016D01*
X11660969Y-14155016D02*
X11670493Y-14174064D01*
X11670493Y-14174064D02*
X11680017Y-14212159D01*
X11680017Y-14212159D02*
X11680017Y-14259778D01*
X11680017Y-14259778D02*
X11670493Y-14297873D01*
X11670493Y-14297873D02*
X11660969Y-14316921D01*
X11660969Y-14316921D02*
X11651446Y-14326445D01*
X11651446Y-14326445D02*
X11632398Y-14335969D01*
X11632398Y-14335969D02*
X11613350Y-14335969D01*
X11613350Y-14335969D02*
X11594303Y-14326445D01*
X11594303Y-14326445D02*
X11584779Y-14316921D01*
X11584779Y-14316921D02*
X11575255Y-14297873D01*
X11575255Y-14297873D02*
X11565731Y-14259778D01*
X11565731Y-14259778D02*
X11565731Y-14212159D01*
X11565731Y-14212159D02*
X11575255Y-14174064D01*
X11575255Y-14174064D02*
X11584779Y-14155016D01*
X11584779Y-14155016D02*
X11594303Y-14145492D01*
X11594303Y-14145492D02*
X11613350Y-14135969D01*
X11860969Y-14135969D02*
X11765731Y-14135969D01*
X11765731Y-14135969D02*
X11756207Y-14231207D01*
X11756207Y-14231207D02*
X11765731Y-14221683D01*
X11765731Y-14221683D02*
X11784779Y-14212159D01*
X11784779Y-14212159D02*
X11832398Y-14212159D01*
X11832398Y-14212159D02*
X11851446Y-14221683D01*
X11851446Y-14221683D02*
X11860969Y-14231207D01*
X11860969Y-14231207D02*
X11870493Y-14250254D01*
X11870493Y-14250254D02*
X11870493Y-14297873D01*
X11870493Y-14297873D02*
X11860969Y-14316921D01*
X11860969Y-14316921D02*
X11851446Y-14326445D01*
X11851446Y-14326445D02*
X11832398Y-14335969D01*
X11832398Y-14335969D02*
X11784779Y-14335969D01*
X11784779Y-14335969D02*
X11765731Y-14326445D01*
X11765731Y-14326445D02*
X11756207Y-14316921D01*
X11965731Y-14335969D02*
X12003826Y-14335969D01*
X12003826Y-14335969D02*
X12022874Y-14326445D01*
X12022874Y-14326445D02*
X12032398Y-14316921D01*
X12032398Y-14316921D02*
X12051446Y-14288350D01*
X12051446Y-14288350D02*
X12060969Y-14250254D01*
X12060969Y-14250254D02*
X12060969Y-14174064D01*
X12060969Y-14174064D02*
X12051446Y-14155016D01*
X12051446Y-14155016D02*
X12041922Y-14145492D01*
X12041922Y-14145492D02*
X12022874Y-14135969D01*
X12022874Y-14135969D02*
X11984779Y-14135969D01*
X11984779Y-14135969D02*
X11965731Y-14145492D01*
X11965731Y-14145492D02*
X11956207Y-14155016D01*
X11956207Y-14155016D02*
X11946684Y-14174064D01*
X11946684Y-14174064D02*
X11946684Y-14221683D01*
X11946684Y-14221683D02*
X11956207Y-14240731D01*
X11956207Y-14240731D02*
X11965731Y-14250254D01*
X11965731Y-14250254D02*
X11984779Y-14259778D01*
X11984779Y-14259778D02*
X12022874Y-14259778D01*
X12022874Y-14259778D02*
X12041922Y-14250254D01*
X12041922Y-14250254D02*
X12051446Y-14240731D01*
X12051446Y-14240731D02*
X12060969Y-14221683D01*
X12251446Y-14335969D02*
X12137160Y-14335969D01*
X12194303Y-14335969D02*
X12194303Y-14135969D01*
X12194303Y-14135969D02*
X12175255Y-14164540D01*
X12175255Y-14164540D02*
X12156207Y-14183588D01*
X12156207Y-14183588D02*
X12137160Y-14193111D01*
X12327636Y-14135969D02*
X12327636Y-14174064D01*
X12403827Y-14135969D02*
X12403827Y-14174064D01*
X12699065Y-14412159D02*
X12689541Y-14402635D01*
X12689541Y-14402635D02*
X12670493Y-14374064D01*
X12670493Y-14374064D02*
X12660969Y-14355016D01*
X12660969Y-14355016D02*
X12651446Y-14326445D01*
X12651446Y-14326445D02*
X12641922Y-14278826D01*
X12641922Y-14278826D02*
X12641922Y-14240731D01*
X12641922Y-14240731D02*
X12651446Y-14193111D01*
X12651446Y-14193111D02*
X12660969Y-14164540D01*
X12660969Y-14164540D02*
X12670493Y-14145492D01*
X12670493Y-14145492D02*
X12689541Y-14116921D01*
X12689541Y-14116921D02*
X12699065Y-14107397D01*
X12765731Y-14155016D02*
X12775255Y-14145492D01*
X12775255Y-14145492D02*
X12794303Y-14135969D01*
X12794303Y-14135969D02*
X12841922Y-14135969D01*
X12841922Y-14135969D02*
X12860969Y-14145492D01*
X12860969Y-14145492D02*
X12870493Y-14155016D01*
X12870493Y-14155016D02*
X12880017Y-14174064D01*
X12880017Y-14174064D02*
X12880017Y-14193111D01*
X12880017Y-14193111D02*
X12870493Y-14221683D01*
X12870493Y-14221683D02*
X12756208Y-14335969D01*
X12756208Y-14335969D02*
X12880017Y-14335969D01*
X13118112Y-14335969D02*
X13118112Y-14135969D01*
X13203827Y-14335969D02*
X13203827Y-14231207D01*
X13203827Y-14231207D02*
X13194303Y-14212159D01*
X13194303Y-14212159D02*
X13175255Y-14202635D01*
X13175255Y-14202635D02*
X13146684Y-14202635D01*
X13146684Y-14202635D02*
X13127636Y-14212159D01*
X13127636Y-14212159D02*
X13118112Y-14221683D01*
X13327636Y-14335969D02*
X13308589Y-14326445D01*
X13308589Y-14326445D02*
X13299065Y-14316921D01*
X13299065Y-14316921D02*
X13289541Y-14297873D01*
X13289541Y-14297873D02*
X13289541Y-14240731D01*
X13289541Y-14240731D02*
X13299065Y-14221683D01*
X13299065Y-14221683D02*
X13308589Y-14212159D01*
X13308589Y-14212159D02*
X13327636Y-14202635D01*
X13327636Y-14202635D02*
X13356208Y-14202635D01*
X13356208Y-14202635D02*
X13375255Y-14212159D01*
X13375255Y-14212159D02*
X13384779Y-14221683D01*
X13384779Y-14221683D02*
X13394303Y-14240731D01*
X13394303Y-14240731D02*
X13394303Y-14297873D01*
X13394303Y-14297873D02*
X13384779Y-14316921D01*
X13384779Y-14316921D02*
X13375255Y-14326445D01*
X13375255Y-14326445D02*
X13356208Y-14335969D01*
X13356208Y-14335969D02*
X13327636Y-14335969D01*
X13508589Y-14335969D02*
X13489541Y-14326445D01*
X13489541Y-14326445D02*
X13480017Y-14307397D01*
X13480017Y-14307397D02*
X13480017Y-14135969D01*
X13660970Y-14326445D02*
X13641922Y-14335969D01*
X13641922Y-14335969D02*
X13603827Y-14335969D01*
X13603827Y-14335969D02*
X13584779Y-14326445D01*
X13584779Y-14326445D02*
X13575255Y-14307397D01*
X13575255Y-14307397D02*
X13575255Y-14231207D01*
X13575255Y-14231207D02*
X13584779Y-14212159D01*
X13584779Y-14212159D02*
X13603827Y-14202635D01*
X13603827Y-14202635D02*
X13641922Y-14202635D01*
X13641922Y-14202635D02*
X13660970Y-14212159D01*
X13660970Y-14212159D02*
X13670493Y-14231207D01*
X13670493Y-14231207D02*
X13670493Y-14250254D01*
X13670493Y-14250254D02*
X13575255Y-14269302D01*
X13746684Y-14326445D02*
X13765731Y-14335969D01*
X13765731Y-14335969D02*
X13803827Y-14335969D01*
X13803827Y-14335969D02*
X13822874Y-14326445D01*
X13822874Y-14326445D02*
X13832398Y-14307397D01*
X13832398Y-14307397D02*
X13832398Y-14297873D01*
X13832398Y-14297873D02*
X13822874Y-14278826D01*
X13822874Y-14278826D02*
X13803827Y-14269302D01*
X13803827Y-14269302D02*
X13775255Y-14269302D01*
X13775255Y-14269302D02*
X13756208Y-14259778D01*
X13756208Y-14259778D02*
X13746684Y-14240731D01*
X13746684Y-14240731D02*
X13746684Y-14231207D01*
X13746684Y-14231207D02*
X13756208Y-14212159D01*
X13756208Y-14212159D02*
X13775255Y-14202635D01*
X13775255Y-14202635D02*
X13803827Y-14202635D01*
X13803827Y-14202635D02*
X13822874Y-14212159D01*
X13899065Y-14412159D02*
X13908589Y-14402635D01*
X13908589Y-14402635D02*
X13927636Y-14374064D01*
X13927636Y-14374064D02*
X13937160Y-14355016D01*
X13937160Y-14355016D02*
X13946684Y-14326445D01*
X13946684Y-14326445D02*
X13956208Y-14278826D01*
X13956208Y-14278826D02*
X13956208Y-14240731D01*
X13956208Y-14240731D02*
X13946684Y-14193111D01*
X13946684Y-14193111D02*
X13937160Y-14164540D01*
X13937160Y-14164540D02*
X13927636Y-14145492D01*
X13927636Y-14145492D02*
X13908589Y-14116921D01*
X13908589Y-14116921D02*
X13899065Y-14107397D01*
X14260970Y-14412159D02*
X14251446Y-14402635D01*
X14251446Y-14402635D02*
X14232398Y-14374064D01*
X14232398Y-14374064D02*
X14222874Y-14355016D01*
X14222874Y-14355016D02*
X14213351Y-14326445D01*
X14213351Y-14326445D02*
X14203827Y-14278826D01*
X14203827Y-14278826D02*
X14203827Y-14240731D01*
X14203827Y-14240731D02*
X14213351Y-14193111D01*
X14213351Y-14193111D02*
X14222874Y-14164540D01*
X14222874Y-14164540D02*
X14232398Y-14145492D01*
X14232398Y-14145492D02*
X14251446Y-14116921D01*
X14251446Y-14116921D02*
X14260970Y-14107397D01*
X14337160Y-14202635D02*
X14337160Y-14335969D01*
X14337160Y-14221683D02*
X14346684Y-14212159D01*
X14346684Y-14212159D02*
X14365731Y-14202635D01*
X14365731Y-14202635D02*
X14394303Y-14202635D01*
X14394303Y-14202635D02*
X14413351Y-14212159D01*
X14413351Y-14212159D02*
X14422874Y-14231207D01*
X14422874Y-14231207D02*
X14422874Y-14335969D01*
X14546684Y-14335969D02*
X14527636Y-14326445D01*
X14527636Y-14326445D02*
X14518112Y-14316921D01*
X14518112Y-14316921D02*
X14508589Y-14297873D01*
X14508589Y-14297873D02*
X14508589Y-14240731D01*
X14508589Y-14240731D02*
X14518112Y-14221683D01*
X14518112Y-14221683D02*
X14527636Y-14212159D01*
X14527636Y-14212159D02*
X14546684Y-14202635D01*
X14546684Y-14202635D02*
X14575255Y-14202635D01*
X14575255Y-14202635D02*
X14594303Y-14212159D01*
X14594303Y-14212159D02*
X14603827Y-14221683D01*
X14603827Y-14221683D02*
X14613351Y-14240731D01*
X14613351Y-14240731D02*
X14613351Y-14297873D01*
X14613351Y-14297873D02*
X14603827Y-14316921D01*
X14603827Y-14316921D02*
X14594303Y-14326445D01*
X14594303Y-14326445D02*
X14575255Y-14335969D01*
X14575255Y-14335969D02*
X14546684Y-14335969D01*
X14670493Y-14202635D02*
X14746684Y-14202635D01*
X14699065Y-14135969D02*
X14699065Y-14307397D01*
X14699065Y-14307397D02*
X14708589Y-14326445D01*
X14708589Y-14326445D02*
X14727636Y-14335969D01*
X14727636Y-14335969D02*
X14746684Y-14335969D01*
X14965732Y-14202635D02*
X14965732Y-14402635D01*
X14965732Y-14212159D02*
X14984779Y-14202635D01*
X14984779Y-14202635D02*
X15022874Y-14202635D01*
X15022874Y-14202635D02*
X15041922Y-14212159D01*
X15041922Y-14212159D02*
X15051446Y-14221683D01*
X15051446Y-14221683D02*
X15060970Y-14240731D01*
X15060970Y-14240731D02*
X15060970Y-14297873D01*
X15060970Y-14297873D02*
X15051446Y-14316921D01*
X15051446Y-14316921D02*
X15041922Y-14326445D01*
X15041922Y-14326445D02*
X15022874Y-14335969D01*
X15022874Y-14335969D02*
X14984779Y-14335969D01*
X14984779Y-14335969D02*
X14965732Y-14326445D01*
X15175255Y-14335969D02*
X15156208Y-14326445D01*
X15156208Y-14326445D02*
X15146684Y-14307397D01*
X15146684Y-14307397D02*
X15146684Y-14135969D01*
X15337160Y-14335969D02*
X15337160Y-14231207D01*
X15337160Y-14231207D02*
X15327636Y-14212159D01*
X15327636Y-14212159D02*
X15308589Y-14202635D01*
X15308589Y-14202635D02*
X15270493Y-14202635D01*
X15270493Y-14202635D02*
X15251446Y-14212159D01*
X15337160Y-14326445D02*
X15318113Y-14335969D01*
X15318113Y-14335969D02*
X15270493Y-14335969D01*
X15270493Y-14335969D02*
X15251446Y-14326445D01*
X15251446Y-14326445D02*
X15241922Y-14307397D01*
X15241922Y-14307397D02*
X15241922Y-14288350D01*
X15241922Y-14288350D02*
X15251446Y-14269302D01*
X15251446Y-14269302D02*
X15270493Y-14259778D01*
X15270493Y-14259778D02*
X15318113Y-14259778D01*
X15318113Y-14259778D02*
X15337160Y-14250254D01*
X15403827Y-14202635D02*
X15480017Y-14202635D01*
X15432398Y-14135969D02*
X15432398Y-14307397D01*
X15432398Y-14307397D02*
X15441922Y-14326445D01*
X15441922Y-14326445D02*
X15460970Y-14335969D01*
X15460970Y-14335969D02*
X15480017Y-14335969D01*
X15622874Y-14326445D02*
X15603827Y-14335969D01*
X15603827Y-14335969D02*
X15565732Y-14335969D01*
X15565732Y-14335969D02*
X15546684Y-14326445D01*
X15546684Y-14326445D02*
X15537160Y-14307397D01*
X15537160Y-14307397D02*
X15537160Y-14231207D01*
X15537160Y-14231207D02*
X15546684Y-14212159D01*
X15546684Y-14212159D02*
X15565732Y-14202635D01*
X15565732Y-14202635D02*
X15603827Y-14202635D01*
X15603827Y-14202635D02*
X15622874Y-14212159D01*
X15622874Y-14212159D02*
X15632398Y-14231207D01*
X15632398Y-14231207D02*
X15632398Y-14250254D01*
X15632398Y-14250254D02*
X15537160Y-14269302D01*
X15803827Y-14335969D02*
X15803827Y-14135969D01*
X15803827Y-14326445D02*
X15784779Y-14335969D01*
X15784779Y-14335969D02*
X15746684Y-14335969D01*
X15746684Y-14335969D02*
X15727636Y-14326445D01*
X15727636Y-14326445D02*
X15718113Y-14316921D01*
X15718113Y-14316921D02*
X15708589Y-14297873D01*
X15708589Y-14297873D02*
X15708589Y-14240731D01*
X15708589Y-14240731D02*
X15718113Y-14221683D01*
X15718113Y-14221683D02*
X15727636Y-14212159D01*
X15727636Y-14212159D02*
X15746684Y-14202635D01*
X15746684Y-14202635D02*
X15784779Y-14202635D01*
X15784779Y-14202635D02*
X15803827Y-14212159D01*
X15880017Y-14412159D02*
X15889541Y-14402635D01*
X15889541Y-14402635D02*
X15908589Y-14374064D01*
X15908589Y-14374064D02*
X15918113Y-14355016D01*
X15918113Y-14355016D02*
X15927636Y-14326445D01*
X15927636Y-14326445D02*
X15937160Y-14278826D01*
X15937160Y-14278826D02*
X15937160Y-14240731D01*
X15937160Y-14240731D02*
X15927636Y-14193111D01*
X15927636Y-14193111D02*
X15918113Y-14164540D01*
X15918113Y-14164540D02*
X15908589Y-14145492D01*
X15908589Y-14145492D02*
X15889541Y-14116921D01*
X15889541Y-14116921D02*
X15880017Y-14107397D01*
D13*
X9124002Y-14514485D02*
G75*
G02*
X8934002Y-14514485I-95000J0D01*
G01*
X8934002Y-14514485D02*
G75*
G02*
X9124002Y-14514485I95000J0D01*
G01*
D12*
X9489541Y-14605969D02*
X9375255Y-14605969D01*
X9432398Y-14605969D02*
X9432398Y-14405969D01*
X9432398Y-14405969D02*
X9413350Y-14434540D01*
X9413350Y-14434540D02*
X9394303Y-14453588D01*
X9394303Y-14453588D02*
X9375255Y-14463111D01*
X9575255Y-14586921D02*
X9584779Y-14596445D01*
X9584779Y-14596445D02*
X9575255Y-14605969D01*
X9575255Y-14605969D02*
X9565731Y-14596445D01*
X9565731Y-14596445D02*
X9575255Y-14586921D01*
X9575255Y-14586921D02*
X9575255Y-14605969D01*
X9680017Y-14605969D02*
X9718112Y-14605969D01*
X9718112Y-14605969D02*
X9737160Y-14596445D01*
X9737160Y-14596445D02*
X9746684Y-14586921D01*
X9746684Y-14586921D02*
X9765731Y-14558350D01*
X9765731Y-14558350D02*
X9775255Y-14520254D01*
X9775255Y-14520254D02*
X9775255Y-14444064D01*
X9775255Y-14444064D02*
X9765731Y-14425016D01*
X9765731Y-14425016D02*
X9756207Y-14415492D01*
X9756207Y-14415492D02*
X9737160Y-14405969D01*
X9737160Y-14405969D02*
X9699064Y-14405969D01*
X9699064Y-14405969D02*
X9680017Y-14415492D01*
X9680017Y-14415492D02*
X9670493Y-14425016D01*
X9670493Y-14425016D02*
X9660969Y-14444064D01*
X9660969Y-14444064D02*
X9660969Y-14491683D01*
X9660969Y-14491683D02*
X9670493Y-14510731D01*
X9670493Y-14510731D02*
X9680017Y-14520254D01*
X9680017Y-14520254D02*
X9699064Y-14529778D01*
X9699064Y-14529778D02*
X9737160Y-14529778D01*
X9737160Y-14529778D02*
X9756207Y-14520254D01*
X9756207Y-14520254D02*
X9765731Y-14510731D01*
X9765731Y-14510731D02*
X9775255Y-14491683D01*
X9899064Y-14405969D02*
X9918112Y-14405969D01*
X9918112Y-14405969D02*
X9937160Y-14415492D01*
X9937160Y-14415492D02*
X9946684Y-14425016D01*
X9946684Y-14425016D02*
X9956207Y-14444064D01*
X9956207Y-14444064D02*
X9965731Y-14482159D01*
X9965731Y-14482159D02*
X9965731Y-14529778D01*
X9965731Y-14529778D02*
X9956207Y-14567873D01*
X9956207Y-14567873D02*
X9946684Y-14586921D01*
X9946684Y-14586921D02*
X9937160Y-14596445D01*
X9937160Y-14596445D02*
X9918112Y-14605969D01*
X9918112Y-14605969D02*
X9899064Y-14605969D01*
X9899064Y-14605969D02*
X9880017Y-14596445D01*
X9880017Y-14596445D02*
X9870493Y-14586921D01*
X9870493Y-14586921D02*
X9860969Y-14567873D01*
X9860969Y-14567873D02*
X9851445Y-14529778D01*
X9851445Y-14529778D02*
X9851445Y-14482159D01*
X9851445Y-14482159D02*
X9860969Y-14444064D01*
X9860969Y-14444064D02*
X9870493Y-14425016D01*
X9870493Y-14425016D02*
X9880017Y-14415492D01*
X9880017Y-14415492D02*
X9899064Y-14405969D01*
X10089541Y-14405969D02*
X10108588Y-14405969D01*
X10108588Y-14405969D02*
X10127636Y-14415492D01*
X10127636Y-14415492D02*
X10137160Y-14425016D01*
X10137160Y-14425016D02*
X10146684Y-14444064D01*
X10146684Y-14444064D02*
X10156207Y-14482159D01*
X10156207Y-14482159D02*
X10156207Y-14529778D01*
X10156207Y-14529778D02*
X10146684Y-14567873D01*
X10146684Y-14567873D02*
X10137160Y-14586921D01*
X10137160Y-14586921D02*
X10127636Y-14596445D01*
X10127636Y-14596445D02*
X10108588Y-14605969D01*
X10108588Y-14605969D02*
X10089541Y-14605969D01*
X10089541Y-14605969D02*
X10070493Y-14596445D01*
X10070493Y-14596445D02*
X10060969Y-14586921D01*
X10060969Y-14586921D02*
X10051445Y-14567873D01*
X10051445Y-14567873D02*
X10041922Y-14529778D01*
X10041922Y-14529778D02*
X10041922Y-14482159D01*
X10041922Y-14482159D02*
X10051445Y-14444064D01*
X10051445Y-14444064D02*
X10060969Y-14425016D01*
X10060969Y-14425016D02*
X10070493Y-14415492D01*
X10070493Y-14415492D02*
X10089541Y-14405969D01*
X10241922Y-14605969D02*
X10241922Y-14472635D01*
X10241922Y-14491683D02*
X10251445Y-14482159D01*
X10251445Y-14482159D02*
X10270493Y-14472635D01*
X10270493Y-14472635D02*
X10299065Y-14472635D01*
X10299065Y-14472635D02*
X10318112Y-14482159D01*
X10318112Y-14482159D02*
X10327636Y-14501207D01*
X10327636Y-14501207D02*
X10327636Y-14605969D01*
X10327636Y-14501207D02*
X10337160Y-14482159D01*
X10337160Y-14482159D02*
X10356207Y-14472635D01*
X10356207Y-14472635D02*
X10384779Y-14472635D01*
X10384779Y-14472635D02*
X10403826Y-14482159D01*
X10403826Y-14482159D02*
X10413350Y-14501207D01*
X10413350Y-14501207D02*
X10413350Y-14605969D01*
X10508588Y-14605969D02*
X10508588Y-14472635D01*
X10508588Y-14491683D02*
X10518112Y-14482159D01*
X10518112Y-14482159D02*
X10537160Y-14472635D01*
X10537160Y-14472635D02*
X10565731Y-14472635D01*
X10565731Y-14472635D02*
X10584779Y-14482159D01*
X10584779Y-14482159D02*
X10594303Y-14501207D01*
X10594303Y-14501207D02*
X10594303Y-14605969D01*
X10594303Y-14501207D02*
X10603826Y-14482159D01*
X10603826Y-14482159D02*
X10622874Y-14472635D01*
X10622874Y-14472635D02*
X10651445Y-14472635D01*
X10651445Y-14472635D02*
X10670493Y-14482159D01*
X10670493Y-14482159D02*
X10680017Y-14501207D01*
X10680017Y-14501207D02*
X10680017Y-14605969D01*
X11070493Y-14396445D02*
X10899065Y-14653588D01*
X11327636Y-14405969D02*
X11346684Y-14405969D01*
X11346684Y-14405969D02*
X11365731Y-14415492D01*
X11365731Y-14415492D02*
X11375255Y-14425016D01*
X11375255Y-14425016D02*
X11384779Y-14444064D01*
X11384779Y-14444064D02*
X11394303Y-14482159D01*
X11394303Y-14482159D02*
X11394303Y-14529778D01*
X11394303Y-14529778D02*
X11384779Y-14567873D01*
X11384779Y-14567873D02*
X11375255Y-14586921D01*
X11375255Y-14586921D02*
X11365731Y-14596445D01*
X11365731Y-14596445D02*
X11346684Y-14605969D01*
X11346684Y-14605969D02*
X11327636Y-14605969D01*
X11327636Y-14605969D02*
X11308588Y-14596445D01*
X11308588Y-14596445D02*
X11299065Y-14586921D01*
X11299065Y-14586921D02*
X11289541Y-14567873D01*
X11289541Y-14567873D02*
X11280017Y-14529778D01*
X11280017Y-14529778D02*
X11280017Y-14482159D01*
X11280017Y-14482159D02*
X11289541Y-14444064D01*
X11289541Y-14444064D02*
X11299065Y-14425016D01*
X11299065Y-14425016D02*
X11308588Y-14415492D01*
X11308588Y-14415492D02*
X11327636Y-14405969D01*
X11480017Y-14586921D02*
X11489541Y-14596445D01*
X11489541Y-14596445D02*
X11480017Y-14605969D01*
X11480017Y-14605969D02*
X11470493Y-14596445D01*
X11470493Y-14596445D02*
X11480017Y-14586921D01*
X11480017Y-14586921D02*
X11480017Y-14605969D01*
X11613350Y-14405969D02*
X11632398Y-14405969D01*
X11632398Y-14405969D02*
X11651446Y-14415492D01*
X11651446Y-14415492D02*
X11660969Y-14425016D01*
X11660969Y-14425016D02*
X11670493Y-14444064D01*
X11670493Y-14444064D02*
X11680017Y-14482159D01*
X11680017Y-14482159D02*
X11680017Y-14529778D01*
X11680017Y-14529778D02*
X11670493Y-14567873D01*
X11670493Y-14567873D02*
X11660969Y-14586921D01*
X11660969Y-14586921D02*
X11651446Y-14596445D01*
X11651446Y-14596445D02*
X11632398Y-14605969D01*
X11632398Y-14605969D02*
X11613350Y-14605969D01*
X11613350Y-14605969D02*
X11594303Y-14596445D01*
X11594303Y-14596445D02*
X11584779Y-14586921D01*
X11584779Y-14586921D02*
X11575255Y-14567873D01*
X11575255Y-14567873D02*
X11565731Y-14529778D01*
X11565731Y-14529778D02*
X11565731Y-14482159D01*
X11565731Y-14482159D02*
X11575255Y-14444064D01*
X11575255Y-14444064D02*
X11584779Y-14425016D01*
X11584779Y-14425016D02*
X11594303Y-14415492D01*
X11594303Y-14415492D02*
X11613350Y-14405969D01*
X11746684Y-14405969D02*
X11880017Y-14405969D01*
X11880017Y-14405969D02*
X11794303Y-14605969D01*
X12041922Y-14472635D02*
X12041922Y-14605969D01*
X11994303Y-14396445D02*
X11946684Y-14539302D01*
X11946684Y-14539302D02*
X12070493Y-14539302D01*
X12175255Y-14491683D02*
X12156207Y-14482159D01*
X12156207Y-14482159D02*
X12146684Y-14472635D01*
X12146684Y-14472635D02*
X12137160Y-14453588D01*
X12137160Y-14453588D02*
X12137160Y-14444064D01*
X12137160Y-14444064D02*
X12146684Y-14425016D01*
X12146684Y-14425016D02*
X12156207Y-14415492D01*
X12156207Y-14415492D02*
X12175255Y-14405969D01*
X12175255Y-14405969D02*
X12213350Y-14405969D01*
X12213350Y-14405969D02*
X12232398Y-14415492D01*
X12232398Y-14415492D02*
X12241922Y-14425016D01*
X12241922Y-14425016D02*
X12251446Y-14444064D01*
X12251446Y-14444064D02*
X12251446Y-14453588D01*
X12251446Y-14453588D02*
X12241922Y-14472635D01*
X12241922Y-14472635D02*
X12232398Y-14482159D01*
X12232398Y-14482159D02*
X12213350Y-14491683D01*
X12213350Y-14491683D02*
X12175255Y-14491683D01*
X12175255Y-14491683D02*
X12156207Y-14501207D01*
X12156207Y-14501207D02*
X12146684Y-14510731D01*
X12146684Y-14510731D02*
X12137160Y-14529778D01*
X12137160Y-14529778D02*
X12137160Y-14567873D01*
X12137160Y-14567873D02*
X12146684Y-14586921D01*
X12146684Y-14586921D02*
X12156207Y-14596445D01*
X12156207Y-14596445D02*
X12175255Y-14605969D01*
X12175255Y-14605969D02*
X12213350Y-14605969D01*
X12213350Y-14605969D02*
X12232398Y-14596445D01*
X12232398Y-14596445D02*
X12241922Y-14586921D01*
X12241922Y-14586921D02*
X12251446Y-14567873D01*
X12251446Y-14567873D02*
X12251446Y-14529778D01*
X12251446Y-14529778D02*
X12241922Y-14510731D01*
X12241922Y-14510731D02*
X12232398Y-14501207D01*
X12232398Y-14501207D02*
X12213350Y-14491683D01*
X12327636Y-14405969D02*
X12327636Y-14444064D01*
X12403827Y-14405969D02*
X12403827Y-14444064D01*
X12699065Y-14682159D02*
X12689541Y-14672635D01*
X12689541Y-14672635D02*
X12670493Y-14644064D01*
X12670493Y-14644064D02*
X12660969Y-14625016D01*
X12660969Y-14625016D02*
X12651446Y-14596445D01*
X12651446Y-14596445D02*
X12641922Y-14548826D01*
X12641922Y-14548826D02*
X12641922Y-14510731D01*
X12641922Y-14510731D02*
X12651446Y-14463111D01*
X12651446Y-14463111D02*
X12660969Y-14434540D01*
X12660969Y-14434540D02*
X12670493Y-14415492D01*
X12670493Y-14415492D02*
X12689541Y-14386921D01*
X12689541Y-14386921D02*
X12699065Y-14377397D01*
X12803827Y-14491683D02*
X12784779Y-14482159D01*
X12784779Y-14482159D02*
X12775255Y-14472635D01*
X12775255Y-14472635D02*
X12765731Y-14453588D01*
X12765731Y-14453588D02*
X12765731Y-14444064D01*
X12765731Y-14444064D02*
X12775255Y-14425016D01*
X12775255Y-14425016D02*
X12784779Y-14415492D01*
X12784779Y-14415492D02*
X12803827Y-14405969D01*
X12803827Y-14405969D02*
X12841922Y-14405969D01*
X12841922Y-14405969D02*
X12860969Y-14415492D01*
X12860969Y-14415492D02*
X12870493Y-14425016D01*
X12870493Y-14425016D02*
X12880017Y-14444064D01*
X12880017Y-14444064D02*
X12880017Y-14453588D01*
X12880017Y-14453588D02*
X12870493Y-14472635D01*
X12870493Y-14472635D02*
X12860969Y-14482159D01*
X12860969Y-14482159D02*
X12841922Y-14491683D01*
X12841922Y-14491683D02*
X12803827Y-14491683D01*
X12803827Y-14491683D02*
X12784779Y-14501207D01*
X12784779Y-14501207D02*
X12775255Y-14510731D01*
X12775255Y-14510731D02*
X12765731Y-14529778D01*
X12765731Y-14529778D02*
X12765731Y-14567873D01*
X12765731Y-14567873D02*
X12775255Y-14586921D01*
X12775255Y-14586921D02*
X12784779Y-14596445D01*
X12784779Y-14596445D02*
X12803827Y-14605969D01*
X12803827Y-14605969D02*
X12841922Y-14605969D01*
X12841922Y-14605969D02*
X12860969Y-14596445D01*
X12860969Y-14596445D02*
X12870493Y-14586921D01*
X12870493Y-14586921D02*
X12880017Y-14567873D01*
X12880017Y-14567873D02*
X12880017Y-14529778D01*
X12880017Y-14529778D02*
X12870493Y-14510731D01*
X12870493Y-14510731D02*
X12860969Y-14501207D01*
X12860969Y-14501207D02*
X12841922Y-14491683D01*
X13051446Y-14472635D02*
X13051446Y-14605969D01*
X13003827Y-14396445D02*
X12956208Y-14539302D01*
X12956208Y-14539302D02*
X13080017Y-14539302D01*
X13308589Y-14605969D02*
X13308589Y-14405969D01*
X13394303Y-14605969D02*
X13394303Y-14501207D01*
X13394303Y-14501207D02*
X13384779Y-14482159D01*
X13384779Y-14482159D02*
X13365731Y-14472635D01*
X13365731Y-14472635D02*
X13337160Y-14472635D01*
X13337160Y-14472635D02*
X13318112Y-14482159D01*
X13318112Y-14482159D02*
X13308589Y-14491683D01*
X13518112Y-14605969D02*
X13499065Y-14596445D01*
X13499065Y-14596445D02*
X13489541Y-14586921D01*
X13489541Y-14586921D02*
X13480017Y-14567873D01*
X13480017Y-14567873D02*
X13480017Y-14510731D01*
X13480017Y-14510731D02*
X13489541Y-14491683D01*
X13489541Y-14491683D02*
X13499065Y-14482159D01*
X13499065Y-14482159D02*
X13518112Y-14472635D01*
X13518112Y-14472635D02*
X13546684Y-14472635D01*
X13546684Y-14472635D02*
X13565731Y-14482159D01*
X13565731Y-14482159D02*
X13575255Y-14491683D01*
X13575255Y-14491683D02*
X13584779Y-14510731D01*
X13584779Y-14510731D02*
X13584779Y-14567873D01*
X13584779Y-14567873D02*
X13575255Y-14586921D01*
X13575255Y-14586921D02*
X13565731Y-14596445D01*
X13565731Y-14596445D02*
X13546684Y-14605969D01*
X13546684Y-14605969D02*
X13518112Y-14605969D01*
X13699065Y-14605969D02*
X13680017Y-14596445D01*
X13680017Y-14596445D02*
X13670493Y-14577397D01*
X13670493Y-14577397D02*
X13670493Y-14405969D01*
X13851446Y-14596445D02*
X13832398Y-14605969D01*
X13832398Y-14605969D02*
X13794303Y-14605969D01*
X13794303Y-14605969D02*
X13775255Y-14596445D01*
X13775255Y-14596445D02*
X13765731Y-14577397D01*
X13765731Y-14577397D02*
X13765731Y-14501207D01*
X13765731Y-14501207D02*
X13775255Y-14482159D01*
X13775255Y-14482159D02*
X13794303Y-14472635D01*
X13794303Y-14472635D02*
X13832398Y-14472635D01*
X13832398Y-14472635D02*
X13851446Y-14482159D01*
X13851446Y-14482159D02*
X13860970Y-14501207D01*
X13860970Y-14501207D02*
X13860970Y-14520254D01*
X13860970Y-14520254D02*
X13765731Y-14539302D01*
X13937160Y-14596445D02*
X13956208Y-14605969D01*
X13956208Y-14605969D02*
X13994303Y-14605969D01*
X13994303Y-14605969D02*
X14013351Y-14596445D01*
X14013351Y-14596445D02*
X14022874Y-14577397D01*
X14022874Y-14577397D02*
X14022874Y-14567873D01*
X14022874Y-14567873D02*
X14013351Y-14548826D01*
X14013351Y-14548826D02*
X13994303Y-14539302D01*
X13994303Y-14539302D02*
X13965731Y-14539302D01*
X13965731Y-14539302D02*
X13946684Y-14529778D01*
X13946684Y-14529778D02*
X13937160Y-14510731D01*
X13937160Y-14510731D02*
X13937160Y-14501207D01*
X13937160Y-14501207D02*
X13946684Y-14482159D01*
X13946684Y-14482159D02*
X13965731Y-14472635D01*
X13965731Y-14472635D02*
X13994303Y-14472635D01*
X13994303Y-14472635D02*
X14013351Y-14482159D01*
X14089541Y-14682159D02*
X14099065Y-14672635D01*
X14099065Y-14672635D02*
X14118112Y-14644064D01*
X14118112Y-14644064D02*
X14127636Y-14625016D01*
X14127636Y-14625016D02*
X14137160Y-14596445D01*
X14137160Y-14596445D02*
X14146684Y-14548826D01*
X14146684Y-14548826D02*
X14146684Y-14510731D01*
X14146684Y-14510731D02*
X14137160Y-14463111D01*
X14137160Y-14463111D02*
X14127636Y-14434540D01*
X14127636Y-14434540D02*
X14118112Y-14415492D01*
X14118112Y-14415492D02*
X14099065Y-14386921D01*
X14099065Y-14386921D02*
X14089541Y-14377397D01*
X14451446Y-14682159D02*
X14441922Y-14672635D01*
X14441922Y-14672635D02*
X14422874Y-14644064D01*
X14422874Y-14644064D02*
X14413351Y-14625016D01*
X14413351Y-14625016D02*
X14403827Y-14596445D01*
X14403827Y-14596445D02*
X14394303Y-14548826D01*
X14394303Y-14548826D02*
X14394303Y-14510731D01*
X14394303Y-14510731D02*
X14403827Y-14463111D01*
X14403827Y-14463111D02*
X14413351Y-14434540D01*
X14413351Y-14434540D02*
X14422874Y-14415492D01*
X14422874Y-14415492D02*
X14441922Y-14386921D01*
X14441922Y-14386921D02*
X14451446Y-14377397D01*
X14527636Y-14472635D02*
X14527636Y-14605969D01*
X14527636Y-14491683D02*
X14537160Y-14482159D01*
X14537160Y-14482159D02*
X14556208Y-14472635D01*
X14556208Y-14472635D02*
X14584779Y-14472635D01*
X14584779Y-14472635D02*
X14603827Y-14482159D01*
X14603827Y-14482159D02*
X14613351Y-14501207D01*
X14613351Y-14501207D02*
X14613351Y-14605969D01*
X14737160Y-14605969D02*
X14718112Y-14596445D01*
X14718112Y-14596445D02*
X14708589Y-14586921D01*
X14708589Y-14586921D02*
X14699065Y-14567873D01*
X14699065Y-14567873D02*
X14699065Y-14510731D01*
X14699065Y-14510731D02*
X14708589Y-14491683D01*
X14708589Y-14491683D02*
X14718112Y-14482159D01*
X14718112Y-14482159D02*
X14737160Y-14472635D01*
X14737160Y-14472635D02*
X14765732Y-14472635D01*
X14765732Y-14472635D02*
X14784779Y-14482159D01*
X14784779Y-14482159D02*
X14794303Y-14491683D01*
X14794303Y-14491683D02*
X14803827Y-14510731D01*
X14803827Y-14510731D02*
X14803827Y-14567873D01*
X14803827Y-14567873D02*
X14794303Y-14586921D01*
X14794303Y-14586921D02*
X14784779Y-14596445D01*
X14784779Y-14596445D02*
X14765732Y-14605969D01*
X14765732Y-14605969D02*
X14737160Y-14605969D01*
X14860970Y-14472635D02*
X14937160Y-14472635D01*
X14889541Y-14405969D02*
X14889541Y-14577397D01*
X14889541Y-14577397D02*
X14899065Y-14596445D01*
X14899065Y-14596445D02*
X14918112Y-14605969D01*
X14918112Y-14605969D02*
X14937160Y-14605969D01*
X15156208Y-14472635D02*
X15156208Y-14672635D01*
X15156208Y-14482159D02*
X15175255Y-14472635D01*
X15175255Y-14472635D02*
X15213351Y-14472635D01*
X15213351Y-14472635D02*
X15232398Y-14482159D01*
X15232398Y-14482159D02*
X15241922Y-14491683D01*
X15241922Y-14491683D02*
X15251446Y-14510731D01*
X15251446Y-14510731D02*
X15251446Y-14567873D01*
X15251446Y-14567873D02*
X15241922Y-14586921D01*
X15241922Y-14586921D02*
X15232398Y-14596445D01*
X15232398Y-14596445D02*
X15213351Y-14605969D01*
X15213351Y-14605969D02*
X15175255Y-14605969D01*
X15175255Y-14605969D02*
X15156208Y-14596445D01*
X15365732Y-14605969D02*
X15346684Y-14596445D01*
X15346684Y-14596445D02*
X15337160Y-14577397D01*
X15337160Y-14577397D02*
X15337160Y-14405969D01*
X15527636Y-14605969D02*
X15527636Y-14501207D01*
X15527636Y-14501207D02*
X15518113Y-14482159D01*
X15518113Y-14482159D02*
X15499065Y-14472635D01*
X15499065Y-14472635D02*
X15460970Y-14472635D01*
X15460970Y-14472635D02*
X15441922Y-14482159D01*
X15527636Y-14596445D02*
X15508589Y-14605969D01*
X15508589Y-14605969D02*
X15460970Y-14605969D01*
X15460970Y-14605969D02*
X15441922Y-14596445D01*
X15441922Y-14596445D02*
X15432398Y-14577397D01*
X15432398Y-14577397D02*
X15432398Y-14558350D01*
X15432398Y-14558350D02*
X15441922Y-14539302D01*
X15441922Y-14539302D02*
X15460970Y-14529778D01*
X15460970Y-14529778D02*
X15508589Y-14529778D01*
X15508589Y-14529778D02*
X15527636Y-14520254D01*
X15594303Y-14472635D02*
X15670493Y-14472635D01*
X15622874Y-14405969D02*
X15622874Y-14577397D01*
X15622874Y-14577397D02*
X15632398Y-14596445D01*
X15632398Y-14596445D02*
X15651446Y-14605969D01*
X15651446Y-14605969D02*
X15670493Y-14605969D01*
X15813351Y-14596445D02*
X15794303Y-14605969D01*
X15794303Y-14605969D02*
X15756208Y-14605969D01*
X15756208Y-14605969D02*
X15737160Y-14596445D01*
X15737160Y-14596445D02*
X15727636Y-14577397D01*
X15727636Y-14577397D02*
X15727636Y-14501207D01*
X15727636Y-14501207D02*
X15737160Y-14482159D01*
X15737160Y-14482159D02*
X15756208Y-14472635D01*
X15756208Y-14472635D02*
X15794303Y-14472635D01*
X15794303Y-14472635D02*
X15813351Y-14482159D01*
X15813351Y-14482159D02*
X15822874Y-14501207D01*
X15822874Y-14501207D02*
X15822874Y-14520254D01*
X15822874Y-14520254D02*
X15727636Y-14539302D01*
X15994303Y-14605969D02*
X15994303Y-14405969D01*
X15994303Y-14596445D02*
X15975255Y-14605969D01*
X15975255Y-14605969D02*
X15937160Y-14605969D01*
X15937160Y-14605969D02*
X15918113Y-14596445D01*
X15918113Y-14596445D02*
X15908589Y-14586921D01*
X15908589Y-14586921D02*
X15899065Y-14567873D01*
X15899065Y-14567873D02*
X15899065Y-14510731D01*
X15899065Y-14510731D02*
X15908589Y-14491683D01*
X15908589Y-14491683D02*
X15918113Y-14482159D01*
X15918113Y-14482159D02*
X15937160Y-14472635D01*
X15937160Y-14472635D02*
X15975255Y-14472635D01*
X15975255Y-14472635D02*
X15994303Y-14482159D01*
X16070494Y-14682159D02*
X16080017Y-14672635D01*
X16080017Y-14672635D02*
X16099065Y-14644064D01*
X16099065Y-14644064D02*
X16108589Y-14625016D01*
X16108589Y-14625016D02*
X16118113Y-14596445D01*
X16118113Y-14596445D02*
X16127636Y-14548826D01*
X16127636Y-14548826D02*
X16127636Y-14510731D01*
X16127636Y-14510731D02*
X16118113Y-14463111D01*
X16118113Y-14463111D02*
X16108589Y-14434540D01*
X16108589Y-14434540D02*
X16099065Y-14415492D01*
X16099065Y-14415492D02*
X16080017Y-14386921D01*
X16080017Y-14386921D02*
X16070494Y-14377397D01*
X9024002Y-14724485D02*
X9024002Y-14924485D01*
X8924002Y-14824485D02*
X9124002Y-14824485D01*
X9375255Y-14735016D02*
X9384779Y-14725492D01*
X9384779Y-14725492D02*
X9403826Y-14715969D01*
X9403826Y-14715969D02*
X9451445Y-14715969D01*
X9451445Y-14715969D02*
X9470493Y-14725492D01*
X9470493Y-14725492D02*
X9480017Y-14735016D01*
X9480017Y-14735016D02*
X9489541Y-14754064D01*
X9489541Y-14754064D02*
X9489541Y-14773111D01*
X9489541Y-14773111D02*
X9480017Y-14801683D01*
X9480017Y-14801683D02*
X9365731Y-14915969D01*
X9365731Y-14915969D02*
X9489541Y-14915969D01*
X9575255Y-14896921D02*
X9584779Y-14906445D01*
X9584779Y-14906445D02*
X9575255Y-14915969D01*
X9575255Y-14915969D02*
X9565731Y-14906445D01*
X9565731Y-14906445D02*
X9575255Y-14896921D01*
X9575255Y-14896921D02*
X9575255Y-14915969D01*
X9660969Y-14735016D02*
X9670493Y-14725492D01*
X9670493Y-14725492D02*
X9689541Y-14715969D01*
X9689541Y-14715969D02*
X9737160Y-14715969D01*
X9737160Y-14715969D02*
X9756207Y-14725492D01*
X9756207Y-14725492D02*
X9765731Y-14735016D01*
X9765731Y-14735016D02*
X9775255Y-14754064D01*
X9775255Y-14754064D02*
X9775255Y-14773111D01*
X9775255Y-14773111D02*
X9765731Y-14801683D01*
X9765731Y-14801683D02*
X9651445Y-14915969D01*
X9651445Y-14915969D02*
X9775255Y-14915969D01*
X9899064Y-14715969D02*
X9918112Y-14715969D01*
X9918112Y-14715969D02*
X9937160Y-14725492D01*
X9937160Y-14725492D02*
X9946684Y-14735016D01*
X9946684Y-14735016D02*
X9956207Y-14754064D01*
X9956207Y-14754064D02*
X9965731Y-14792159D01*
X9965731Y-14792159D02*
X9965731Y-14839778D01*
X9965731Y-14839778D02*
X9956207Y-14877873D01*
X9956207Y-14877873D02*
X9946684Y-14896921D01*
X9946684Y-14896921D02*
X9937160Y-14906445D01*
X9937160Y-14906445D02*
X9918112Y-14915969D01*
X9918112Y-14915969D02*
X9899064Y-14915969D01*
X9899064Y-14915969D02*
X9880017Y-14906445D01*
X9880017Y-14906445D02*
X9870493Y-14896921D01*
X9870493Y-14896921D02*
X9860969Y-14877873D01*
X9860969Y-14877873D02*
X9851445Y-14839778D01*
X9851445Y-14839778D02*
X9851445Y-14792159D01*
X9851445Y-14792159D02*
X9860969Y-14754064D01*
X9860969Y-14754064D02*
X9870493Y-14735016D01*
X9870493Y-14735016D02*
X9880017Y-14725492D01*
X9880017Y-14725492D02*
X9899064Y-14715969D01*
X10089541Y-14715969D02*
X10108588Y-14715969D01*
X10108588Y-14715969D02*
X10127636Y-14725492D01*
X10127636Y-14725492D02*
X10137160Y-14735016D01*
X10137160Y-14735016D02*
X10146684Y-14754064D01*
X10146684Y-14754064D02*
X10156207Y-14792159D01*
X10156207Y-14792159D02*
X10156207Y-14839778D01*
X10156207Y-14839778D02*
X10146684Y-14877873D01*
X10146684Y-14877873D02*
X10137160Y-14896921D01*
X10137160Y-14896921D02*
X10127636Y-14906445D01*
X10127636Y-14906445D02*
X10108588Y-14915969D01*
X10108588Y-14915969D02*
X10089541Y-14915969D01*
X10089541Y-14915969D02*
X10070493Y-14906445D01*
X10070493Y-14906445D02*
X10060969Y-14896921D01*
X10060969Y-14896921D02*
X10051445Y-14877873D01*
X10051445Y-14877873D02*
X10041922Y-14839778D01*
X10041922Y-14839778D02*
X10041922Y-14792159D01*
X10041922Y-14792159D02*
X10051445Y-14754064D01*
X10051445Y-14754064D02*
X10060969Y-14735016D01*
X10060969Y-14735016D02*
X10070493Y-14725492D01*
X10070493Y-14725492D02*
X10089541Y-14715969D01*
X10241922Y-14915969D02*
X10241922Y-14782635D01*
X10241922Y-14801683D02*
X10251445Y-14792159D01*
X10251445Y-14792159D02*
X10270493Y-14782635D01*
X10270493Y-14782635D02*
X10299065Y-14782635D01*
X10299065Y-14782635D02*
X10318112Y-14792159D01*
X10318112Y-14792159D02*
X10327636Y-14811207D01*
X10327636Y-14811207D02*
X10327636Y-14915969D01*
X10327636Y-14811207D02*
X10337160Y-14792159D01*
X10337160Y-14792159D02*
X10356207Y-14782635D01*
X10356207Y-14782635D02*
X10384779Y-14782635D01*
X10384779Y-14782635D02*
X10403826Y-14792159D01*
X10403826Y-14792159D02*
X10413350Y-14811207D01*
X10413350Y-14811207D02*
X10413350Y-14915969D01*
X10508588Y-14915969D02*
X10508588Y-14782635D01*
X10508588Y-14801683D02*
X10518112Y-14792159D01*
X10518112Y-14792159D02*
X10537160Y-14782635D01*
X10537160Y-14782635D02*
X10565731Y-14782635D01*
X10565731Y-14782635D02*
X10584779Y-14792159D01*
X10584779Y-14792159D02*
X10594303Y-14811207D01*
X10594303Y-14811207D02*
X10594303Y-14915969D01*
X10594303Y-14811207D02*
X10603826Y-14792159D01*
X10603826Y-14792159D02*
X10622874Y-14782635D01*
X10622874Y-14782635D02*
X10651445Y-14782635D01*
X10651445Y-14782635D02*
X10670493Y-14792159D01*
X10670493Y-14792159D02*
X10680017Y-14811207D01*
X10680017Y-14811207D02*
X10680017Y-14915969D01*
X11070493Y-14706445D02*
X10899065Y-14963588D01*
X11327636Y-14715969D02*
X11346684Y-14715969D01*
X11346684Y-14715969D02*
X11365731Y-14725492D01*
X11365731Y-14725492D02*
X11375255Y-14735016D01*
X11375255Y-14735016D02*
X11384779Y-14754064D01*
X11384779Y-14754064D02*
X11394303Y-14792159D01*
X11394303Y-14792159D02*
X11394303Y-14839778D01*
X11394303Y-14839778D02*
X11384779Y-14877873D01*
X11384779Y-14877873D02*
X11375255Y-14896921D01*
X11375255Y-14896921D02*
X11365731Y-14906445D01*
X11365731Y-14906445D02*
X11346684Y-14915969D01*
X11346684Y-14915969D02*
X11327636Y-14915969D01*
X11327636Y-14915969D02*
X11308588Y-14906445D01*
X11308588Y-14906445D02*
X11299065Y-14896921D01*
X11299065Y-14896921D02*
X11289541Y-14877873D01*
X11289541Y-14877873D02*
X11280017Y-14839778D01*
X11280017Y-14839778D02*
X11280017Y-14792159D01*
X11280017Y-14792159D02*
X11289541Y-14754064D01*
X11289541Y-14754064D02*
X11299065Y-14735016D01*
X11299065Y-14735016D02*
X11308588Y-14725492D01*
X11308588Y-14725492D02*
X11327636Y-14715969D01*
X11480017Y-14896921D02*
X11489541Y-14906445D01*
X11489541Y-14906445D02*
X11480017Y-14915969D01*
X11480017Y-14915969D02*
X11470493Y-14906445D01*
X11470493Y-14906445D02*
X11480017Y-14896921D01*
X11480017Y-14896921D02*
X11480017Y-14915969D01*
X11613350Y-14715969D02*
X11632398Y-14715969D01*
X11632398Y-14715969D02*
X11651446Y-14725492D01*
X11651446Y-14725492D02*
X11660969Y-14735016D01*
X11660969Y-14735016D02*
X11670493Y-14754064D01*
X11670493Y-14754064D02*
X11680017Y-14792159D01*
X11680017Y-14792159D02*
X11680017Y-14839778D01*
X11680017Y-14839778D02*
X11670493Y-14877873D01*
X11670493Y-14877873D02*
X11660969Y-14896921D01*
X11660969Y-14896921D02*
X11651446Y-14906445D01*
X11651446Y-14906445D02*
X11632398Y-14915969D01*
X11632398Y-14915969D02*
X11613350Y-14915969D01*
X11613350Y-14915969D02*
X11594303Y-14906445D01*
X11594303Y-14906445D02*
X11584779Y-14896921D01*
X11584779Y-14896921D02*
X11575255Y-14877873D01*
X11575255Y-14877873D02*
X11565731Y-14839778D01*
X11565731Y-14839778D02*
X11565731Y-14792159D01*
X11565731Y-14792159D02*
X11575255Y-14754064D01*
X11575255Y-14754064D02*
X11584779Y-14735016D01*
X11584779Y-14735016D02*
X11594303Y-14725492D01*
X11594303Y-14725492D02*
X11613350Y-14715969D01*
X11794303Y-14801683D02*
X11775255Y-14792159D01*
X11775255Y-14792159D02*
X11765731Y-14782635D01*
X11765731Y-14782635D02*
X11756207Y-14763588D01*
X11756207Y-14763588D02*
X11756207Y-14754064D01*
X11756207Y-14754064D02*
X11765731Y-14735016D01*
X11765731Y-14735016D02*
X11775255Y-14725492D01*
X11775255Y-14725492D02*
X11794303Y-14715969D01*
X11794303Y-14715969D02*
X11832398Y-14715969D01*
X11832398Y-14715969D02*
X11851446Y-14725492D01*
X11851446Y-14725492D02*
X11860969Y-14735016D01*
X11860969Y-14735016D02*
X11870493Y-14754064D01*
X11870493Y-14754064D02*
X11870493Y-14763588D01*
X11870493Y-14763588D02*
X11860969Y-14782635D01*
X11860969Y-14782635D02*
X11851446Y-14792159D01*
X11851446Y-14792159D02*
X11832398Y-14801683D01*
X11832398Y-14801683D02*
X11794303Y-14801683D01*
X11794303Y-14801683D02*
X11775255Y-14811207D01*
X11775255Y-14811207D02*
X11765731Y-14820731D01*
X11765731Y-14820731D02*
X11756207Y-14839778D01*
X11756207Y-14839778D02*
X11756207Y-14877873D01*
X11756207Y-14877873D02*
X11765731Y-14896921D01*
X11765731Y-14896921D02*
X11775255Y-14906445D01*
X11775255Y-14906445D02*
X11794303Y-14915969D01*
X11794303Y-14915969D02*
X11832398Y-14915969D01*
X11832398Y-14915969D02*
X11851446Y-14906445D01*
X11851446Y-14906445D02*
X11860969Y-14896921D01*
X11860969Y-14896921D02*
X11870493Y-14877873D01*
X11870493Y-14877873D02*
X11870493Y-14839778D01*
X11870493Y-14839778D02*
X11860969Y-14820731D01*
X11860969Y-14820731D02*
X11851446Y-14811207D01*
X11851446Y-14811207D02*
X11832398Y-14801683D01*
X12041922Y-14715969D02*
X12003826Y-14715969D01*
X12003826Y-14715969D02*
X11984779Y-14725492D01*
X11984779Y-14725492D02*
X11975255Y-14735016D01*
X11975255Y-14735016D02*
X11956207Y-14763588D01*
X11956207Y-14763588D02*
X11946684Y-14801683D01*
X11946684Y-14801683D02*
X11946684Y-14877873D01*
X11946684Y-14877873D02*
X11956207Y-14896921D01*
X11956207Y-14896921D02*
X11965731Y-14906445D01*
X11965731Y-14906445D02*
X11984779Y-14915969D01*
X11984779Y-14915969D02*
X12022874Y-14915969D01*
X12022874Y-14915969D02*
X12041922Y-14906445D01*
X12041922Y-14906445D02*
X12051446Y-14896921D01*
X12051446Y-14896921D02*
X12060969Y-14877873D01*
X12060969Y-14877873D02*
X12060969Y-14830254D01*
X12060969Y-14830254D02*
X12051446Y-14811207D01*
X12051446Y-14811207D02*
X12041922Y-14801683D01*
X12041922Y-14801683D02*
X12022874Y-14792159D01*
X12022874Y-14792159D02*
X11984779Y-14792159D01*
X11984779Y-14792159D02*
X11965731Y-14801683D01*
X11965731Y-14801683D02*
X11956207Y-14811207D01*
X11956207Y-14811207D02*
X11946684Y-14830254D01*
X12232398Y-14715969D02*
X12194303Y-14715969D01*
X12194303Y-14715969D02*
X12175255Y-14725492D01*
X12175255Y-14725492D02*
X12165731Y-14735016D01*
X12165731Y-14735016D02*
X12146684Y-14763588D01*
X12146684Y-14763588D02*
X12137160Y-14801683D01*
X12137160Y-14801683D02*
X12137160Y-14877873D01*
X12137160Y-14877873D02*
X12146684Y-14896921D01*
X12146684Y-14896921D02*
X12156207Y-14906445D01*
X12156207Y-14906445D02*
X12175255Y-14915969D01*
X12175255Y-14915969D02*
X12213350Y-14915969D01*
X12213350Y-14915969D02*
X12232398Y-14906445D01*
X12232398Y-14906445D02*
X12241922Y-14896921D01*
X12241922Y-14896921D02*
X12251446Y-14877873D01*
X12251446Y-14877873D02*
X12251446Y-14830254D01*
X12251446Y-14830254D02*
X12241922Y-14811207D01*
X12241922Y-14811207D02*
X12232398Y-14801683D01*
X12232398Y-14801683D02*
X12213350Y-14792159D01*
X12213350Y-14792159D02*
X12175255Y-14792159D01*
X12175255Y-14792159D02*
X12156207Y-14801683D01*
X12156207Y-14801683D02*
X12146684Y-14811207D01*
X12146684Y-14811207D02*
X12137160Y-14830254D01*
X12327636Y-14715969D02*
X12327636Y-14754064D01*
X12403827Y-14715969D02*
X12403827Y-14754064D01*
X12699065Y-14992159D02*
X12689541Y-14982635D01*
X12689541Y-14982635D02*
X12670493Y-14954064D01*
X12670493Y-14954064D02*
X12660969Y-14935016D01*
X12660969Y-14935016D02*
X12651446Y-14906445D01*
X12651446Y-14906445D02*
X12641922Y-14858826D01*
X12641922Y-14858826D02*
X12641922Y-14820731D01*
X12641922Y-14820731D02*
X12651446Y-14773111D01*
X12651446Y-14773111D02*
X12660969Y-14744540D01*
X12660969Y-14744540D02*
X12670493Y-14725492D01*
X12670493Y-14725492D02*
X12689541Y-14696921D01*
X12689541Y-14696921D02*
X12699065Y-14687397D01*
X12765731Y-14735016D02*
X12775255Y-14725492D01*
X12775255Y-14725492D02*
X12794303Y-14715969D01*
X12794303Y-14715969D02*
X12841922Y-14715969D01*
X12841922Y-14715969D02*
X12860969Y-14725492D01*
X12860969Y-14725492D02*
X12870493Y-14735016D01*
X12870493Y-14735016D02*
X12880017Y-14754064D01*
X12880017Y-14754064D02*
X12880017Y-14773111D01*
X12880017Y-14773111D02*
X12870493Y-14801683D01*
X12870493Y-14801683D02*
X12756208Y-14915969D01*
X12756208Y-14915969D02*
X12880017Y-14915969D01*
X13118112Y-14915969D02*
X13118112Y-14715969D01*
X13203827Y-14915969D02*
X13203827Y-14811207D01*
X13203827Y-14811207D02*
X13194303Y-14792159D01*
X13194303Y-14792159D02*
X13175255Y-14782635D01*
X13175255Y-14782635D02*
X13146684Y-14782635D01*
X13146684Y-14782635D02*
X13127636Y-14792159D01*
X13127636Y-14792159D02*
X13118112Y-14801683D01*
X13327636Y-14915969D02*
X13308589Y-14906445D01*
X13308589Y-14906445D02*
X13299065Y-14896921D01*
X13299065Y-14896921D02*
X13289541Y-14877873D01*
X13289541Y-14877873D02*
X13289541Y-14820731D01*
X13289541Y-14820731D02*
X13299065Y-14801683D01*
X13299065Y-14801683D02*
X13308589Y-14792159D01*
X13308589Y-14792159D02*
X13327636Y-14782635D01*
X13327636Y-14782635D02*
X13356208Y-14782635D01*
X13356208Y-14782635D02*
X13375255Y-14792159D01*
X13375255Y-14792159D02*
X13384779Y-14801683D01*
X13384779Y-14801683D02*
X13394303Y-14820731D01*
X13394303Y-14820731D02*
X13394303Y-14877873D01*
X13394303Y-14877873D02*
X13384779Y-14896921D01*
X13384779Y-14896921D02*
X13375255Y-14906445D01*
X13375255Y-14906445D02*
X13356208Y-14915969D01*
X13356208Y-14915969D02*
X13327636Y-14915969D01*
X13508589Y-14915969D02*
X13489541Y-14906445D01*
X13489541Y-14906445D02*
X13480017Y-14887397D01*
X13480017Y-14887397D02*
X13480017Y-14715969D01*
X13660970Y-14906445D02*
X13641922Y-14915969D01*
X13641922Y-14915969D02*
X13603827Y-14915969D01*
X13603827Y-14915969D02*
X13584779Y-14906445D01*
X13584779Y-14906445D02*
X13575255Y-14887397D01*
X13575255Y-14887397D02*
X13575255Y-14811207D01*
X13575255Y-14811207D02*
X13584779Y-14792159D01*
X13584779Y-14792159D02*
X13603827Y-14782635D01*
X13603827Y-14782635D02*
X13641922Y-14782635D01*
X13641922Y-14782635D02*
X13660970Y-14792159D01*
X13660970Y-14792159D02*
X13670493Y-14811207D01*
X13670493Y-14811207D02*
X13670493Y-14830254D01*
X13670493Y-14830254D02*
X13575255Y-14849302D01*
X13746684Y-14906445D02*
X13765731Y-14915969D01*
X13765731Y-14915969D02*
X13803827Y-14915969D01*
X13803827Y-14915969D02*
X13822874Y-14906445D01*
X13822874Y-14906445D02*
X13832398Y-14887397D01*
X13832398Y-14887397D02*
X13832398Y-14877873D01*
X13832398Y-14877873D02*
X13822874Y-14858826D01*
X13822874Y-14858826D02*
X13803827Y-14849302D01*
X13803827Y-14849302D02*
X13775255Y-14849302D01*
X13775255Y-14849302D02*
X13756208Y-14839778D01*
X13756208Y-14839778D02*
X13746684Y-14820731D01*
X13746684Y-14820731D02*
X13746684Y-14811207D01*
X13746684Y-14811207D02*
X13756208Y-14792159D01*
X13756208Y-14792159D02*
X13775255Y-14782635D01*
X13775255Y-14782635D02*
X13803827Y-14782635D01*
X13803827Y-14782635D02*
X13822874Y-14792159D01*
X13899065Y-14992159D02*
X13908589Y-14982635D01*
X13908589Y-14982635D02*
X13927636Y-14954064D01*
X13927636Y-14954064D02*
X13937160Y-14935016D01*
X13937160Y-14935016D02*
X13946684Y-14906445D01*
X13946684Y-14906445D02*
X13956208Y-14858826D01*
X13956208Y-14858826D02*
X13956208Y-14820731D01*
X13956208Y-14820731D02*
X13946684Y-14773111D01*
X13946684Y-14773111D02*
X13937160Y-14744540D01*
X13937160Y-14744540D02*
X13927636Y-14725492D01*
X13927636Y-14725492D02*
X13908589Y-14696921D01*
X13908589Y-14696921D02*
X13899065Y-14687397D01*
X14260970Y-14992159D02*
X14251446Y-14982635D01*
X14251446Y-14982635D02*
X14232398Y-14954064D01*
X14232398Y-14954064D02*
X14222874Y-14935016D01*
X14222874Y-14935016D02*
X14213351Y-14906445D01*
X14213351Y-14906445D02*
X14203827Y-14858826D01*
X14203827Y-14858826D02*
X14203827Y-14820731D01*
X14203827Y-14820731D02*
X14213351Y-14773111D01*
X14213351Y-14773111D02*
X14222874Y-14744540D01*
X14222874Y-14744540D02*
X14232398Y-14725492D01*
X14232398Y-14725492D02*
X14251446Y-14696921D01*
X14251446Y-14696921D02*
X14260970Y-14687397D01*
X14337160Y-14782635D02*
X14337160Y-14915969D01*
X14337160Y-14801683D02*
X14346684Y-14792159D01*
X14346684Y-14792159D02*
X14365731Y-14782635D01*
X14365731Y-14782635D02*
X14394303Y-14782635D01*
X14394303Y-14782635D02*
X14413351Y-14792159D01*
X14413351Y-14792159D02*
X14422874Y-14811207D01*
X14422874Y-14811207D02*
X14422874Y-14915969D01*
X14546684Y-14915969D02*
X14527636Y-14906445D01*
X14527636Y-14906445D02*
X14518112Y-14896921D01*
X14518112Y-14896921D02*
X14508589Y-14877873D01*
X14508589Y-14877873D02*
X14508589Y-14820731D01*
X14508589Y-14820731D02*
X14518112Y-14801683D01*
X14518112Y-14801683D02*
X14527636Y-14792159D01*
X14527636Y-14792159D02*
X14546684Y-14782635D01*
X14546684Y-14782635D02*
X14575255Y-14782635D01*
X14575255Y-14782635D02*
X14594303Y-14792159D01*
X14594303Y-14792159D02*
X14603827Y-14801683D01*
X14603827Y-14801683D02*
X14613351Y-14820731D01*
X14613351Y-14820731D02*
X14613351Y-14877873D01*
X14613351Y-14877873D02*
X14603827Y-14896921D01*
X14603827Y-14896921D02*
X14594303Y-14906445D01*
X14594303Y-14906445D02*
X14575255Y-14915969D01*
X14575255Y-14915969D02*
X14546684Y-14915969D01*
X14670493Y-14782635D02*
X14746684Y-14782635D01*
X14699065Y-14715969D02*
X14699065Y-14887397D01*
X14699065Y-14887397D02*
X14708589Y-14906445D01*
X14708589Y-14906445D02*
X14727636Y-14915969D01*
X14727636Y-14915969D02*
X14746684Y-14915969D01*
X14965732Y-14782635D02*
X14965732Y-14982635D01*
X14965732Y-14792159D02*
X14984779Y-14782635D01*
X14984779Y-14782635D02*
X15022874Y-14782635D01*
X15022874Y-14782635D02*
X15041922Y-14792159D01*
X15041922Y-14792159D02*
X15051446Y-14801683D01*
X15051446Y-14801683D02*
X15060970Y-14820731D01*
X15060970Y-14820731D02*
X15060970Y-14877873D01*
X15060970Y-14877873D02*
X15051446Y-14896921D01*
X15051446Y-14896921D02*
X15041922Y-14906445D01*
X15041922Y-14906445D02*
X15022874Y-14915969D01*
X15022874Y-14915969D02*
X14984779Y-14915969D01*
X14984779Y-14915969D02*
X14965732Y-14906445D01*
X15175255Y-14915969D02*
X15156208Y-14906445D01*
X15156208Y-14906445D02*
X15146684Y-14887397D01*
X15146684Y-14887397D02*
X15146684Y-14715969D01*
X15337160Y-14915969D02*
X15337160Y-14811207D01*
X15337160Y-14811207D02*
X15327636Y-14792159D01*
X15327636Y-14792159D02*
X15308589Y-14782635D01*
X15308589Y-14782635D02*
X15270493Y-14782635D01*
X15270493Y-14782635D02*
X15251446Y-14792159D01*
X15337160Y-14906445D02*
X15318113Y-14915969D01*
X15318113Y-14915969D02*
X15270493Y-14915969D01*
X15270493Y-14915969D02*
X15251446Y-14906445D01*
X15251446Y-14906445D02*
X15241922Y-14887397D01*
X15241922Y-14887397D02*
X15241922Y-14868350D01*
X15241922Y-14868350D02*
X15251446Y-14849302D01*
X15251446Y-14849302D02*
X15270493Y-14839778D01*
X15270493Y-14839778D02*
X15318113Y-14839778D01*
X15318113Y-14839778D02*
X15337160Y-14830254D01*
X15403827Y-14782635D02*
X15480017Y-14782635D01*
X15432398Y-14715969D02*
X15432398Y-14887397D01*
X15432398Y-14887397D02*
X15441922Y-14906445D01*
X15441922Y-14906445D02*
X15460970Y-14915969D01*
X15460970Y-14915969D02*
X15480017Y-14915969D01*
X15622874Y-14906445D02*
X15603827Y-14915969D01*
X15603827Y-14915969D02*
X15565732Y-14915969D01*
X15565732Y-14915969D02*
X15546684Y-14906445D01*
X15546684Y-14906445D02*
X15537160Y-14887397D01*
X15537160Y-14887397D02*
X15537160Y-14811207D01*
X15537160Y-14811207D02*
X15546684Y-14792159D01*
X15546684Y-14792159D02*
X15565732Y-14782635D01*
X15565732Y-14782635D02*
X15603827Y-14782635D01*
X15603827Y-14782635D02*
X15622874Y-14792159D01*
X15622874Y-14792159D02*
X15632398Y-14811207D01*
X15632398Y-14811207D02*
X15632398Y-14830254D01*
X15632398Y-14830254D02*
X15537160Y-14849302D01*
X15803827Y-14915969D02*
X15803827Y-14715969D01*
X15803827Y-14906445D02*
X15784779Y-14915969D01*
X15784779Y-14915969D02*
X15746684Y-14915969D01*
X15746684Y-14915969D02*
X15727636Y-14906445D01*
X15727636Y-14906445D02*
X15718113Y-14896921D01*
X15718113Y-14896921D02*
X15708589Y-14877873D01*
X15708589Y-14877873D02*
X15708589Y-14820731D01*
X15708589Y-14820731D02*
X15718113Y-14801683D01*
X15718113Y-14801683D02*
X15727636Y-14792159D01*
X15727636Y-14792159D02*
X15746684Y-14782635D01*
X15746684Y-14782635D02*
X15784779Y-14782635D01*
X15784779Y-14782635D02*
X15803827Y-14792159D01*
X15880017Y-14992159D02*
X15889541Y-14982635D01*
X15889541Y-14982635D02*
X15908589Y-14954064D01*
X15908589Y-14954064D02*
X15918113Y-14935016D01*
X15918113Y-14935016D02*
X15927636Y-14906445D01*
X15927636Y-14906445D02*
X15937160Y-14858826D01*
X15937160Y-14858826D02*
X15937160Y-14820731D01*
X15937160Y-14820731D02*
X15927636Y-14773111D01*
X15927636Y-14773111D02*
X15918113Y-14744540D01*
X15918113Y-14744540D02*
X15908589Y-14725492D01*
X15908589Y-14725492D02*
X15889541Y-14696921D01*
X15889541Y-14696921D02*
X15880017Y-14687397D01*
X9094713Y-15215196D02*
X9094713Y-15073773D01*
X8953291Y-15073773D01*
X8953291Y-15215196D01*
X9094713Y-15215196D01*
X9365731Y-15035969D02*
X9489541Y-15035969D01*
X9489541Y-15035969D02*
X9422874Y-15112159D01*
X9422874Y-15112159D02*
X9451445Y-15112159D01*
X9451445Y-15112159D02*
X9470493Y-15121683D01*
X9470493Y-15121683D02*
X9480017Y-15131207D01*
X9480017Y-15131207D02*
X9489541Y-15150254D01*
X9489541Y-15150254D02*
X9489541Y-15197873D01*
X9489541Y-15197873D02*
X9480017Y-15216921D01*
X9480017Y-15216921D02*
X9470493Y-15226445D01*
X9470493Y-15226445D02*
X9451445Y-15235969D01*
X9451445Y-15235969D02*
X9394303Y-15235969D01*
X9394303Y-15235969D02*
X9375255Y-15226445D01*
X9375255Y-15226445D02*
X9365731Y-15216921D01*
X9575255Y-15216921D02*
X9584779Y-15226445D01*
X9584779Y-15226445D02*
X9575255Y-15235969D01*
X9575255Y-15235969D02*
X9565731Y-15226445D01*
X9565731Y-15226445D02*
X9575255Y-15216921D01*
X9575255Y-15216921D02*
X9575255Y-15235969D01*
X9708588Y-15035969D02*
X9727636Y-15035969D01*
X9727636Y-15035969D02*
X9746684Y-15045492D01*
X9746684Y-15045492D02*
X9756207Y-15055016D01*
X9756207Y-15055016D02*
X9765731Y-15074064D01*
X9765731Y-15074064D02*
X9775255Y-15112159D01*
X9775255Y-15112159D02*
X9775255Y-15159778D01*
X9775255Y-15159778D02*
X9765731Y-15197873D01*
X9765731Y-15197873D02*
X9756207Y-15216921D01*
X9756207Y-15216921D02*
X9746684Y-15226445D01*
X9746684Y-15226445D02*
X9727636Y-15235969D01*
X9727636Y-15235969D02*
X9708588Y-15235969D01*
X9708588Y-15235969D02*
X9689541Y-15226445D01*
X9689541Y-15226445D02*
X9680017Y-15216921D01*
X9680017Y-15216921D02*
X9670493Y-15197873D01*
X9670493Y-15197873D02*
X9660969Y-15159778D01*
X9660969Y-15159778D02*
X9660969Y-15112159D01*
X9660969Y-15112159D02*
X9670493Y-15074064D01*
X9670493Y-15074064D02*
X9680017Y-15055016D01*
X9680017Y-15055016D02*
X9689541Y-15045492D01*
X9689541Y-15045492D02*
X9708588Y-15035969D01*
X9899064Y-15035969D02*
X9918112Y-15035969D01*
X9918112Y-15035969D02*
X9937160Y-15045492D01*
X9937160Y-15045492D02*
X9946684Y-15055016D01*
X9946684Y-15055016D02*
X9956207Y-15074064D01*
X9956207Y-15074064D02*
X9965731Y-15112159D01*
X9965731Y-15112159D02*
X9965731Y-15159778D01*
X9965731Y-15159778D02*
X9956207Y-15197873D01*
X9956207Y-15197873D02*
X9946684Y-15216921D01*
X9946684Y-15216921D02*
X9937160Y-15226445D01*
X9937160Y-15226445D02*
X9918112Y-15235969D01*
X9918112Y-15235969D02*
X9899064Y-15235969D01*
X9899064Y-15235969D02*
X9880017Y-15226445D01*
X9880017Y-15226445D02*
X9870493Y-15216921D01*
X9870493Y-15216921D02*
X9860969Y-15197873D01*
X9860969Y-15197873D02*
X9851445Y-15159778D01*
X9851445Y-15159778D02*
X9851445Y-15112159D01*
X9851445Y-15112159D02*
X9860969Y-15074064D01*
X9860969Y-15074064D02*
X9870493Y-15055016D01*
X9870493Y-15055016D02*
X9880017Y-15045492D01*
X9880017Y-15045492D02*
X9899064Y-15035969D01*
X10089541Y-15035969D02*
X10108588Y-15035969D01*
X10108588Y-15035969D02*
X10127636Y-15045492D01*
X10127636Y-15045492D02*
X10137160Y-15055016D01*
X10137160Y-15055016D02*
X10146684Y-15074064D01*
X10146684Y-15074064D02*
X10156207Y-15112159D01*
X10156207Y-15112159D02*
X10156207Y-15159778D01*
X10156207Y-15159778D02*
X10146684Y-15197873D01*
X10146684Y-15197873D02*
X10137160Y-15216921D01*
X10137160Y-15216921D02*
X10127636Y-15226445D01*
X10127636Y-15226445D02*
X10108588Y-15235969D01*
X10108588Y-15235969D02*
X10089541Y-15235969D01*
X10089541Y-15235969D02*
X10070493Y-15226445D01*
X10070493Y-15226445D02*
X10060969Y-15216921D01*
X10060969Y-15216921D02*
X10051445Y-15197873D01*
X10051445Y-15197873D02*
X10041922Y-15159778D01*
X10041922Y-15159778D02*
X10041922Y-15112159D01*
X10041922Y-15112159D02*
X10051445Y-15074064D01*
X10051445Y-15074064D02*
X10060969Y-15055016D01*
X10060969Y-15055016D02*
X10070493Y-15045492D01*
X10070493Y-15045492D02*
X10089541Y-15035969D01*
X10241922Y-15235969D02*
X10241922Y-15102635D01*
X10241922Y-15121683D02*
X10251445Y-15112159D01*
X10251445Y-15112159D02*
X10270493Y-15102635D01*
X10270493Y-15102635D02*
X10299065Y-15102635D01*
X10299065Y-15102635D02*
X10318112Y-15112159D01*
X10318112Y-15112159D02*
X10327636Y-15131207D01*
X10327636Y-15131207D02*
X10327636Y-15235969D01*
X10327636Y-15131207D02*
X10337160Y-15112159D01*
X10337160Y-15112159D02*
X10356207Y-15102635D01*
X10356207Y-15102635D02*
X10384779Y-15102635D01*
X10384779Y-15102635D02*
X10403826Y-15112159D01*
X10403826Y-15112159D02*
X10413350Y-15131207D01*
X10413350Y-15131207D02*
X10413350Y-15235969D01*
X10508588Y-15235969D02*
X10508588Y-15102635D01*
X10508588Y-15121683D02*
X10518112Y-15112159D01*
X10518112Y-15112159D02*
X10537160Y-15102635D01*
X10537160Y-15102635D02*
X10565731Y-15102635D01*
X10565731Y-15102635D02*
X10584779Y-15112159D01*
X10584779Y-15112159D02*
X10594303Y-15131207D01*
X10594303Y-15131207D02*
X10594303Y-15235969D01*
X10594303Y-15131207D02*
X10603826Y-15112159D01*
X10603826Y-15112159D02*
X10622874Y-15102635D01*
X10622874Y-15102635D02*
X10651445Y-15102635D01*
X10651445Y-15102635D02*
X10670493Y-15112159D01*
X10670493Y-15112159D02*
X10680017Y-15131207D01*
X10680017Y-15131207D02*
X10680017Y-15235969D01*
X11070493Y-15026445D02*
X10899065Y-15283588D01*
X11327636Y-15035969D02*
X11346684Y-15035969D01*
X11346684Y-15035969D02*
X11365731Y-15045492D01*
X11365731Y-15045492D02*
X11375255Y-15055016D01*
X11375255Y-15055016D02*
X11384779Y-15074064D01*
X11384779Y-15074064D02*
X11394303Y-15112159D01*
X11394303Y-15112159D02*
X11394303Y-15159778D01*
X11394303Y-15159778D02*
X11384779Y-15197873D01*
X11384779Y-15197873D02*
X11375255Y-15216921D01*
X11375255Y-15216921D02*
X11365731Y-15226445D01*
X11365731Y-15226445D02*
X11346684Y-15235969D01*
X11346684Y-15235969D02*
X11327636Y-15235969D01*
X11327636Y-15235969D02*
X11308588Y-15226445D01*
X11308588Y-15226445D02*
X11299065Y-15216921D01*
X11299065Y-15216921D02*
X11289541Y-15197873D01*
X11289541Y-15197873D02*
X11280017Y-15159778D01*
X11280017Y-15159778D02*
X11280017Y-15112159D01*
X11280017Y-15112159D02*
X11289541Y-15074064D01*
X11289541Y-15074064D02*
X11299065Y-15055016D01*
X11299065Y-15055016D02*
X11308588Y-15045492D01*
X11308588Y-15045492D02*
X11327636Y-15035969D01*
X11480017Y-15216921D02*
X11489541Y-15226445D01*
X11489541Y-15226445D02*
X11480017Y-15235969D01*
X11480017Y-15235969D02*
X11470493Y-15226445D01*
X11470493Y-15226445D02*
X11480017Y-15216921D01*
X11480017Y-15216921D02*
X11480017Y-15235969D01*
X11680017Y-15235969D02*
X11565731Y-15235969D01*
X11622874Y-15235969D02*
X11622874Y-15035969D01*
X11622874Y-15035969D02*
X11603826Y-15064540D01*
X11603826Y-15064540D02*
X11584779Y-15083588D01*
X11584779Y-15083588D02*
X11565731Y-15093111D01*
X11870493Y-15235969D02*
X11756207Y-15235969D01*
X11813350Y-15235969D02*
X11813350Y-15035969D01*
X11813350Y-15035969D02*
X11794303Y-15064540D01*
X11794303Y-15064540D02*
X11775255Y-15083588D01*
X11775255Y-15083588D02*
X11756207Y-15093111D01*
X11984779Y-15121683D02*
X11965731Y-15112159D01*
X11965731Y-15112159D02*
X11956207Y-15102635D01*
X11956207Y-15102635D02*
X11946684Y-15083588D01*
X11946684Y-15083588D02*
X11946684Y-15074064D01*
X11946684Y-15074064D02*
X11956207Y-15055016D01*
X11956207Y-15055016D02*
X11965731Y-15045492D01*
X11965731Y-15045492D02*
X11984779Y-15035969D01*
X11984779Y-15035969D02*
X12022874Y-15035969D01*
X12022874Y-15035969D02*
X12041922Y-15045492D01*
X12041922Y-15045492D02*
X12051446Y-15055016D01*
X12051446Y-15055016D02*
X12060969Y-15074064D01*
X12060969Y-15074064D02*
X12060969Y-15083588D01*
X12060969Y-15083588D02*
X12051446Y-15102635D01*
X12051446Y-15102635D02*
X12041922Y-15112159D01*
X12041922Y-15112159D02*
X12022874Y-15121683D01*
X12022874Y-15121683D02*
X11984779Y-15121683D01*
X11984779Y-15121683D02*
X11965731Y-15131207D01*
X11965731Y-15131207D02*
X11956207Y-15140731D01*
X11956207Y-15140731D02*
X11946684Y-15159778D01*
X11946684Y-15159778D02*
X11946684Y-15197873D01*
X11946684Y-15197873D02*
X11956207Y-15216921D01*
X11956207Y-15216921D02*
X11965731Y-15226445D01*
X11965731Y-15226445D02*
X11984779Y-15235969D01*
X11984779Y-15235969D02*
X12022874Y-15235969D01*
X12022874Y-15235969D02*
X12041922Y-15226445D01*
X12041922Y-15226445D02*
X12051446Y-15216921D01*
X12051446Y-15216921D02*
X12060969Y-15197873D01*
X12060969Y-15197873D02*
X12060969Y-15159778D01*
X12060969Y-15159778D02*
X12051446Y-15140731D01*
X12051446Y-15140731D02*
X12041922Y-15131207D01*
X12041922Y-15131207D02*
X12022874Y-15121683D01*
X12251446Y-15235969D02*
X12137160Y-15235969D01*
X12194303Y-15235969D02*
X12194303Y-15035969D01*
X12194303Y-15035969D02*
X12175255Y-15064540D01*
X12175255Y-15064540D02*
X12156207Y-15083588D01*
X12156207Y-15083588D02*
X12137160Y-15093111D01*
X12327636Y-15035969D02*
X12327636Y-15074064D01*
X12403827Y-15035969D02*
X12403827Y-15074064D01*
X12699065Y-15312159D02*
X12689541Y-15302635D01*
X12689541Y-15302635D02*
X12670493Y-15274064D01*
X12670493Y-15274064D02*
X12660969Y-15255016D01*
X12660969Y-15255016D02*
X12651446Y-15226445D01*
X12651446Y-15226445D02*
X12641922Y-15178826D01*
X12641922Y-15178826D02*
X12641922Y-15140731D01*
X12641922Y-15140731D02*
X12651446Y-15093111D01*
X12651446Y-15093111D02*
X12660969Y-15064540D01*
X12660969Y-15064540D02*
X12670493Y-15045492D01*
X12670493Y-15045492D02*
X12689541Y-15016921D01*
X12689541Y-15016921D02*
X12699065Y-15007397D01*
X12803827Y-15121683D02*
X12784779Y-15112159D01*
X12784779Y-15112159D02*
X12775255Y-15102635D01*
X12775255Y-15102635D02*
X12765731Y-15083588D01*
X12765731Y-15083588D02*
X12765731Y-15074064D01*
X12765731Y-15074064D02*
X12775255Y-15055016D01*
X12775255Y-15055016D02*
X12784779Y-15045492D01*
X12784779Y-15045492D02*
X12803827Y-15035969D01*
X12803827Y-15035969D02*
X12841922Y-15035969D01*
X12841922Y-15035969D02*
X12860969Y-15045492D01*
X12860969Y-15045492D02*
X12870493Y-15055016D01*
X12870493Y-15055016D02*
X12880017Y-15074064D01*
X12880017Y-15074064D02*
X12880017Y-15083588D01*
X12880017Y-15083588D02*
X12870493Y-15102635D01*
X12870493Y-15102635D02*
X12860969Y-15112159D01*
X12860969Y-15112159D02*
X12841922Y-15121683D01*
X12841922Y-15121683D02*
X12803827Y-15121683D01*
X12803827Y-15121683D02*
X12784779Y-15131207D01*
X12784779Y-15131207D02*
X12775255Y-15140731D01*
X12775255Y-15140731D02*
X12765731Y-15159778D01*
X12765731Y-15159778D02*
X12765731Y-15197873D01*
X12765731Y-15197873D02*
X12775255Y-15216921D01*
X12775255Y-15216921D02*
X12784779Y-15226445D01*
X12784779Y-15226445D02*
X12803827Y-15235969D01*
X12803827Y-15235969D02*
X12841922Y-15235969D01*
X12841922Y-15235969D02*
X12860969Y-15226445D01*
X12860969Y-15226445D02*
X12870493Y-15216921D01*
X12870493Y-15216921D02*
X12880017Y-15197873D01*
X12880017Y-15197873D02*
X12880017Y-15159778D01*
X12880017Y-15159778D02*
X12870493Y-15140731D01*
X12870493Y-15140731D02*
X12860969Y-15131207D01*
X12860969Y-15131207D02*
X12841922Y-15121683D01*
X13051446Y-15102635D02*
X13051446Y-15235969D01*
X13003827Y-15026445D02*
X12956208Y-15169302D01*
X12956208Y-15169302D02*
X13080017Y-15169302D01*
X13308589Y-15235969D02*
X13308589Y-15035969D01*
X13394303Y-15235969D02*
X13394303Y-15131207D01*
X13394303Y-15131207D02*
X13384779Y-15112159D01*
X13384779Y-15112159D02*
X13365731Y-15102635D01*
X13365731Y-15102635D02*
X13337160Y-15102635D01*
X13337160Y-15102635D02*
X13318112Y-15112159D01*
X13318112Y-15112159D02*
X13308589Y-15121683D01*
X13518112Y-15235969D02*
X13499065Y-15226445D01*
X13499065Y-15226445D02*
X13489541Y-15216921D01*
X13489541Y-15216921D02*
X13480017Y-15197873D01*
X13480017Y-15197873D02*
X13480017Y-15140731D01*
X13480017Y-15140731D02*
X13489541Y-15121683D01*
X13489541Y-15121683D02*
X13499065Y-15112159D01*
X13499065Y-15112159D02*
X13518112Y-15102635D01*
X13518112Y-15102635D02*
X13546684Y-15102635D01*
X13546684Y-15102635D02*
X13565731Y-15112159D01*
X13565731Y-15112159D02*
X13575255Y-15121683D01*
X13575255Y-15121683D02*
X13584779Y-15140731D01*
X13584779Y-15140731D02*
X13584779Y-15197873D01*
X13584779Y-15197873D02*
X13575255Y-15216921D01*
X13575255Y-15216921D02*
X13565731Y-15226445D01*
X13565731Y-15226445D02*
X13546684Y-15235969D01*
X13546684Y-15235969D02*
X13518112Y-15235969D01*
X13699065Y-15235969D02*
X13680017Y-15226445D01*
X13680017Y-15226445D02*
X13670493Y-15207397D01*
X13670493Y-15207397D02*
X13670493Y-15035969D01*
X13851446Y-15226445D02*
X13832398Y-15235969D01*
X13832398Y-15235969D02*
X13794303Y-15235969D01*
X13794303Y-15235969D02*
X13775255Y-15226445D01*
X13775255Y-15226445D02*
X13765731Y-15207397D01*
X13765731Y-15207397D02*
X13765731Y-15131207D01*
X13765731Y-15131207D02*
X13775255Y-15112159D01*
X13775255Y-15112159D02*
X13794303Y-15102635D01*
X13794303Y-15102635D02*
X13832398Y-15102635D01*
X13832398Y-15102635D02*
X13851446Y-15112159D01*
X13851446Y-15112159D02*
X13860970Y-15131207D01*
X13860970Y-15131207D02*
X13860970Y-15150254D01*
X13860970Y-15150254D02*
X13765731Y-15169302D01*
X13937160Y-15226445D02*
X13956208Y-15235969D01*
X13956208Y-15235969D02*
X13994303Y-15235969D01*
X13994303Y-15235969D02*
X14013351Y-15226445D01*
X14013351Y-15226445D02*
X14022874Y-15207397D01*
X14022874Y-15207397D02*
X14022874Y-15197873D01*
X14022874Y-15197873D02*
X14013351Y-15178826D01*
X14013351Y-15178826D02*
X13994303Y-15169302D01*
X13994303Y-15169302D02*
X13965731Y-15169302D01*
X13965731Y-15169302D02*
X13946684Y-15159778D01*
X13946684Y-15159778D02*
X13937160Y-15140731D01*
X13937160Y-15140731D02*
X13937160Y-15131207D01*
X13937160Y-15131207D02*
X13946684Y-15112159D01*
X13946684Y-15112159D02*
X13965731Y-15102635D01*
X13965731Y-15102635D02*
X13994303Y-15102635D01*
X13994303Y-15102635D02*
X14013351Y-15112159D01*
X14089541Y-15312159D02*
X14099065Y-15302635D01*
X14099065Y-15302635D02*
X14118112Y-15274064D01*
X14118112Y-15274064D02*
X14127636Y-15255016D01*
X14127636Y-15255016D02*
X14137160Y-15226445D01*
X14137160Y-15226445D02*
X14146684Y-15178826D01*
X14146684Y-15178826D02*
X14146684Y-15140731D01*
X14146684Y-15140731D02*
X14137160Y-15093111D01*
X14137160Y-15093111D02*
X14127636Y-15064540D01*
X14127636Y-15064540D02*
X14118112Y-15045492D01*
X14118112Y-15045492D02*
X14099065Y-15016921D01*
X14099065Y-15016921D02*
X14089541Y-15007397D01*
X14451446Y-15312159D02*
X14441922Y-15302635D01*
X14441922Y-15302635D02*
X14422874Y-15274064D01*
X14422874Y-15274064D02*
X14413351Y-15255016D01*
X14413351Y-15255016D02*
X14403827Y-15226445D01*
X14403827Y-15226445D02*
X14394303Y-15178826D01*
X14394303Y-15178826D02*
X14394303Y-15140731D01*
X14394303Y-15140731D02*
X14403827Y-15093111D01*
X14403827Y-15093111D02*
X14413351Y-15064540D01*
X14413351Y-15064540D02*
X14422874Y-15045492D01*
X14422874Y-15045492D02*
X14441922Y-15016921D01*
X14441922Y-15016921D02*
X14451446Y-15007397D01*
X14527636Y-15102635D02*
X14527636Y-15235969D01*
X14527636Y-15121683D02*
X14537160Y-15112159D01*
X14537160Y-15112159D02*
X14556208Y-15102635D01*
X14556208Y-15102635D02*
X14584779Y-15102635D01*
X14584779Y-15102635D02*
X14603827Y-15112159D01*
X14603827Y-15112159D02*
X14613351Y-15131207D01*
X14613351Y-15131207D02*
X14613351Y-15235969D01*
X14737160Y-15235969D02*
X14718112Y-15226445D01*
X14718112Y-15226445D02*
X14708589Y-15216921D01*
X14708589Y-15216921D02*
X14699065Y-15197873D01*
X14699065Y-15197873D02*
X14699065Y-15140731D01*
X14699065Y-15140731D02*
X14708589Y-15121683D01*
X14708589Y-15121683D02*
X14718112Y-15112159D01*
X14718112Y-15112159D02*
X14737160Y-15102635D01*
X14737160Y-15102635D02*
X14765732Y-15102635D01*
X14765732Y-15102635D02*
X14784779Y-15112159D01*
X14784779Y-15112159D02*
X14794303Y-15121683D01*
X14794303Y-15121683D02*
X14803827Y-15140731D01*
X14803827Y-15140731D02*
X14803827Y-15197873D01*
X14803827Y-15197873D02*
X14794303Y-15216921D01*
X14794303Y-15216921D02*
X14784779Y-15226445D01*
X14784779Y-15226445D02*
X14765732Y-15235969D01*
X14765732Y-15235969D02*
X14737160Y-15235969D01*
X14860970Y-15102635D02*
X14937160Y-15102635D01*
X14889541Y-15035969D02*
X14889541Y-15207397D01*
X14889541Y-15207397D02*
X14899065Y-15226445D01*
X14899065Y-15226445D02*
X14918112Y-15235969D01*
X14918112Y-15235969D02*
X14937160Y-15235969D01*
X15156208Y-15102635D02*
X15156208Y-15302635D01*
X15156208Y-15112159D02*
X15175255Y-15102635D01*
X15175255Y-15102635D02*
X15213351Y-15102635D01*
X15213351Y-15102635D02*
X15232398Y-15112159D01*
X15232398Y-15112159D02*
X15241922Y-15121683D01*
X15241922Y-15121683D02*
X15251446Y-15140731D01*
X15251446Y-15140731D02*
X15251446Y-15197873D01*
X15251446Y-15197873D02*
X15241922Y-15216921D01*
X15241922Y-15216921D02*
X15232398Y-15226445D01*
X15232398Y-15226445D02*
X15213351Y-15235969D01*
X15213351Y-15235969D02*
X15175255Y-15235969D01*
X15175255Y-15235969D02*
X15156208Y-15226445D01*
X15365732Y-15235969D02*
X15346684Y-15226445D01*
X15346684Y-15226445D02*
X15337160Y-15207397D01*
X15337160Y-15207397D02*
X15337160Y-15035969D01*
X15527636Y-15235969D02*
X15527636Y-15131207D01*
X15527636Y-15131207D02*
X15518113Y-15112159D01*
X15518113Y-15112159D02*
X15499065Y-15102635D01*
X15499065Y-15102635D02*
X15460970Y-15102635D01*
X15460970Y-15102635D02*
X15441922Y-15112159D01*
X15527636Y-15226445D02*
X15508589Y-15235969D01*
X15508589Y-15235969D02*
X15460970Y-15235969D01*
X15460970Y-15235969D02*
X15441922Y-15226445D01*
X15441922Y-15226445D02*
X15432398Y-15207397D01*
X15432398Y-15207397D02*
X15432398Y-15188350D01*
X15432398Y-15188350D02*
X15441922Y-15169302D01*
X15441922Y-15169302D02*
X15460970Y-15159778D01*
X15460970Y-15159778D02*
X15508589Y-15159778D01*
X15508589Y-15159778D02*
X15527636Y-15150254D01*
X15594303Y-15102635D02*
X15670493Y-15102635D01*
X15622874Y-15035969D02*
X15622874Y-15207397D01*
X15622874Y-15207397D02*
X15632398Y-15226445D01*
X15632398Y-15226445D02*
X15651446Y-15235969D01*
X15651446Y-15235969D02*
X15670493Y-15235969D01*
X15813351Y-15226445D02*
X15794303Y-15235969D01*
X15794303Y-15235969D02*
X15756208Y-15235969D01*
X15756208Y-15235969D02*
X15737160Y-15226445D01*
X15737160Y-15226445D02*
X15727636Y-15207397D01*
X15727636Y-15207397D02*
X15727636Y-15131207D01*
X15727636Y-15131207D02*
X15737160Y-15112159D01*
X15737160Y-15112159D02*
X15756208Y-15102635D01*
X15756208Y-15102635D02*
X15794303Y-15102635D01*
X15794303Y-15102635D02*
X15813351Y-15112159D01*
X15813351Y-15112159D02*
X15822874Y-15131207D01*
X15822874Y-15131207D02*
X15822874Y-15150254D01*
X15822874Y-15150254D02*
X15727636Y-15169302D01*
X15994303Y-15235969D02*
X15994303Y-15035969D01*
X15994303Y-15226445D02*
X15975255Y-15235969D01*
X15975255Y-15235969D02*
X15937160Y-15235969D01*
X15937160Y-15235969D02*
X15918113Y-15226445D01*
X15918113Y-15226445D02*
X15908589Y-15216921D01*
X15908589Y-15216921D02*
X15899065Y-15197873D01*
X15899065Y-15197873D02*
X15899065Y-15140731D01*
X15899065Y-15140731D02*
X15908589Y-15121683D01*
X15908589Y-15121683D02*
X15918113Y-15112159D01*
X15918113Y-15112159D02*
X15937160Y-15102635D01*
X15937160Y-15102635D02*
X15975255Y-15102635D01*
X15975255Y-15102635D02*
X15994303Y-15112159D01*
X16070494Y-15312159D02*
X16080017Y-15302635D01*
X16080017Y-15302635D02*
X16099065Y-15274064D01*
X16099065Y-15274064D02*
X16108589Y-15255016D01*
X16108589Y-15255016D02*
X16118113Y-15226445D01*
X16118113Y-15226445D02*
X16127636Y-15178826D01*
X16127636Y-15178826D02*
X16127636Y-15140731D01*
X16127636Y-15140731D02*
X16118113Y-15093111D01*
X16118113Y-15093111D02*
X16108589Y-15064540D01*
X16108589Y-15064540D02*
X16099065Y-15045492D01*
X16099065Y-15045492D02*
X16080017Y-15016921D01*
X16080017Y-15016921D02*
X16070494Y-15007397D01*
X9024002Y-15564485D02*
X9124002Y-15464485D01*
X9024002Y-15364485D01*
X8924002Y-15464485D01*
X9024002Y-15564485D01*
X9470493Y-15422635D02*
X9470493Y-15555969D01*
X9422874Y-15346445D02*
X9375255Y-15489302D01*
X9375255Y-15489302D02*
X9499064Y-15489302D01*
X9575255Y-15536921D02*
X9584779Y-15546445D01*
X9584779Y-15546445D02*
X9575255Y-15555969D01*
X9575255Y-15555969D02*
X9565731Y-15546445D01*
X9565731Y-15546445D02*
X9575255Y-15536921D01*
X9575255Y-15536921D02*
X9575255Y-15555969D01*
X9651445Y-15355969D02*
X9775255Y-15355969D01*
X9775255Y-15355969D02*
X9708588Y-15432159D01*
X9708588Y-15432159D02*
X9737160Y-15432159D01*
X9737160Y-15432159D02*
X9756207Y-15441683D01*
X9756207Y-15441683D02*
X9765731Y-15451207D01*
X9765731Y-15451207D02*
X9775255Y-15470254D01*
X9775255Y-15470254D02*
X9775255Y-15517873D01*
X9775255Y-15517873D02*
X9765731Y-15536921D01*
X9765731Y-15536921D02*
X9756207Y-15546445D01*
X9756207Y-15546445D02*
X9737160Y-15555969D01*
X9737160Y-15555969D02*
X9680017Y-15555969D01*
X9680017Y-15555969D02*
X9660969Y-15546445D01*
X9660969Y-15546445D02*
X9651445Y-15536921D01*
X9899064Y-15355969D02*
X9918112Y-15355969D01*
X9918112Y-15355969D02*
X9937160Y-15365492D01*
X9937160Y-15365492D02*
X9946684Y-15375016D01*
X9946684Y-15375016D02*
X9956207Y-15394064D01*
X9956207Y-15394064D02*
X9965731Y-15432159D01*
X9965731Y-15432159D02*
X9965731Y-15479778D01*
X9965731Y-15479778D02*
X9956207Y-15517873D01*
X9956207Y-15517873D02*
X9946684Y-15536921D01*
X9946684Y-15536921D02*
X9937160Y-15546445D01*
X9937160Y-15546445D02*
X9918112Y-15555969D01*
X9918112Y-15555969D02*
X9899064Y-15555969D01*
X9899064Y-15555969D02*
X9880017Y-15546445D01*
X9880017Y-15546445D02*
X9870493Y-15536921D01*
X9870493Y-15536921D02*
X9860969Y-15517873D01*
X9860969Y-15517873D02*
X9851445Y-15479778D01*
X9851445Y-15479778D02*
X9851445Y-15432159D01*
X9851445Y-15432159D02*
X9860969Y-15394064D01*
X9860969Y-15394064D02*
X9870493Y-15375016D01*
X9870493Y-15375016D02*
X9880017Y-15365492D01*
X9880017Y-15365492D02*
X9899064Y-15355969D01*
X10089541Y-15355969D02*
X10108588Y-15355969D01*
X10108588Y-15355969D02*
X10127636Y-15365492D01*
X10127636Y-15365492D02*
X10137160Y-15375016D01*
X10137160Y-15375016D02*
X10146684Y-15394064D01*
X10146684Y-15394064D02*
X10156207Y-15432159D01*
X10156207Y-15432159D02*
X10156207Y-15479778D01*
X10156207Y-15479778D02*
X10146684Y-15517873D01*
X10146684Y-15517873D02*
X10137160Y-15536921D01*
X10137160Y-15536921D02*
X10127636Y-15546445D01*
X10127636Y-15546445D02*
X10108588Y-15555969D01*
X10108588Y-15555969D02*
X10089541Y-15555969D01*
X10089541Y-15555969D02*
X10070493Y-15546445D01*
X10070493Y-15546445D02*
X10060969Y-15536921D01*
X10060969Y-15536921D02*
X10051445Y-15517873D01*
X10051445Y-15517873D02*
X10041922Y-15479778D01*
X10041922Y-15479778D02*
X10041922Y-15432159D01*
X10041922Y-15432159D02*
X10051445Y-15394064D01*
X10051445Y-15394064D02*
X10060969Y-15375016D01*
X10060969Y-15375016D02*
X10070493Y-15365492D01*
X10070493Y-15365492D02*
X10089541Y-15355969D01*
X10241922Y-15555969D02*
X10241922Y-15422635D01*
X10241922Y-15441683D02*
X10251445Y-15432159D01*
X10251445Y-15432159D02*
X10270493Y-15422635D01*
X10270493Y-15422635D02*
X10299065Y-15422635D01*
X10299065Y-15422635D02*
X10318112Y-15432159D01*
X10318112Y-15432159D02*
X10327636Y-15451207D01*
X10327636Y-15451207D02*
X10327636Y-15555969D01*
X10327636Y-15451207D02*
X10337160Y-15432159D01*
X10337160Y-15432159D02*
X10356207Y-15422635D01*
X10356207Y-15422635D02*
X10384779Y-15422635D01*
X10384779Y-15422635D02*
X10403826Y-15432159D01*
X10403826Y-15432159D02*
X10413350Y-15451207D01*
X10413350Y-15451207D02*
X10413350Y-15555969D01*
X10508588Y-15555969D02*
X10508588Y-15422635D01*
X10508588Y-15441683D02*
X10518112Y-15432159D01*
X10518112Y-15432159D02*
X10537160Y-15422635D01*
X10537160Y-15422635D02*
X10565731Y-15422635D01*
X10565731Y-15422635D02*
X10584779Y-15432159D01*
X10584779Y-15432159D02*
X10594303Y-15451207D01*
X10594303Y-15451207D02*
X10594303Y-15555969D01*
X10594303Y-15451207D02*
X10603826Y-15432159D01*
X10603826Y-15432159D02*
X10622874Y-15422635D01*
X10622874Y-15422635D02*
X10651445Y-15422635D01*
X10651445Y-15422635D02*
X10670493Y-15432159D01*
X10670493Y-15432159D02*
X10680017Y-15451207D01*
X10680017Y-15451207D02*
X10680017Y-15555969D01*
X11070493Y-15346445D02*
X10899065Y-15603588D01*
X11327636Y-15355969D02*
X11346684Y-15355969D01*
X11346684Y-15355969D02*
X11365731Y-15365492D01*
X11365731Y-15365492D02*
X11375255Y-15375016D01*
X11375255Y-15375016D02*
X11384779Y-15394064D01*
X11384779Y-15394064D02*
X11394303Y-15432159D01*
X11394303Y-15432159D02*
X11394303Y-15479778D01*
X11394303Y-15479778D02*
X11384779Y-15517873D01*
X11384779Y-15517873D02*
X11375255Y-15536921D01*
X11375255Y-15536921D02*
X11365731Y-15546445D01*
X11365731Y-15546445D02*
X11346684Y-15555969D01*
X11346684Y-15555969D02*
X11327636Y-15555969D01*
X11327636Y-15555969D02*
X11308588Y-15546445D01*
X11308588Y-15546445D02*
X11299065Y-15536921D01*
X11299065Y-15536921D02*
X11289541Y-15517873D01*
X11289541Y-15517873D02*
X11280017Y-15479778D01*
X11280017Y-15479778D02*
X11280017Y-15432159D01*
X11280017Y-15432159D02*
X11289541Y-15394064D01*
X11289541Y-15394064D02*
X11299065Y-15375016D01*
X11299065Y-15375016D02*
X11308588Y-15365492D01*
X11308588Y-15365492D02*
X11327636Y-15355969D01*
X11480017Y-15536921D02*
X11489541Y-15546445D01*
X11489541Y-15546445D02*
X11480017Y-15555969D01*
X11480017Y-15555969D02*
X11470493Y-15546445D01*
X11470493Y-15546445D02*
X11480017Y-15536921D01*
X11480017Y-15536921D02*
X11480017Y-15555969D01*
X11680017Y-15555969D02*
X11565731Y-15555969D01*
X11622874Y-15555969D02*
X11622874Y-15355969D01*
X11622874Y-15355969D02*
X11603826Y-15384540D01*
X11603826Y-15384540D02*
X11584779Y-15403588D01*
X11584779Y-15403588D02*
X11565731Y-15413111D01*
X11851446Y-15355969D02*
X11813350Y-15355969D01*
X11813350Y-15355969D02*
X11794303Y-15365492D01*
X11794303Y-15365492D02*
X11784779Y-15375016D01*
X11784779Y-15375016D02*
X11765731Y-15403588D01*
X11765731Y-15403588D02*
X11756207Y-15441683D01*
X11756207Y-15441683D02*
X11756207Y-15517873D01*
X11756207Y-15517873D02*
X11765731Y-15536921D01*
X11765731Y-15536921D02*
X11775255Y-15546445D01*
X11775255Y-15546445D02*
X11794303Y-15555969D01*
X11794303Y-15555969D02*
X11832398Y-15555969D01*
X11832398Y-15555969D02*
X11851446Y-15546445D01*
X11851446Y-15546445D02*
X11860969Y-15536921D01*
X11860969Y-15536921D02*
X11870493Y-15517873D01*
X11870493Y-15517873D02*
X11870493Y-15470254D01*
X11870493Y-15470254D02*
X11860969Y-15451207D01*
X11860969Y-15451207D02*
X11851446Y-15441683D01*
X11851446Y-15441683D02*
X11832398Y-15432159D01*
X11832398Y-15432159D02*
X11794303Y-15432159D01*
X11794303Y-15432159D02*
X11775255Y-15441683D01*
X11775255Y-15441683D02*
X11765731Y-15451207D01*
X11765731Y-15451207D02*
X11756207Y-15470254D01*
X11965731Y-15555969D02*
X12003826Y-15555969D01*
X12003826Y-15555969D02*
X12022874Y-15546445D01*
X12022874Y-15546445D02*
X12032398Y-15536921D01*
X12032398Y-15536921D02*
X12051446Y-15508350D01*
X12051446Y-15508350D02*
X12060969Y-15470254D01*
X12060969Y-15470254D02*
X12060969Y-15394064D01*
X12060969Y-15394064D02*
X12051446Y-15375016D01*
X12051446Y-15375016D02*
X12041922Y-15365492D01*
X12041922Y-15365492D02*
X12022874Y-15355969D01*
X12022874Y-15355969D02*
X11984779Y-15355969D01*
X11984779Y-15355969D02*
X11965731Y-15365492D01*
X11965731Y-15365492D02*
X11956207Y-15375016D01*
X11956207Y-15375016D02*
X11946684Y-15394064D01*
X11946684Y-15394064D02*
X11946684Y-15441683D01*
X11946684Y-15441683D02*
X11956207Y-15460731D01*
X11956207Y-15460731D02*
X11965731Y-15470254D01*
X11965731Y-15470254D02*
X11984779Y-15479778D01*
X11984779Y-15479778D02*
X12022874Y-15479778D01*
X12022874Y-15479778D02*
X12041922Y-15470254D01*
X12041922Y-15470254D02*
X12051446Y-15460731D01*
X12051446Y-15460731D02*
X12060969Y-15441683D01*
X12127636Y-15355969D02*
X12251446Y-15355969D01*
X12251446Y-15355969D02*
X12184779Y-15432159D01*
X12184779Y-15432159D02*
X12213350Y-15432159D01*
X12213350Y-15432159D02*
X12232398Y-15441683D01*
X12232398Y-15441683D02*
X12241922Y-15451207D01*
X12241922Y-15451207D02*
X12251446Y-15470254D01*
X12251446Y-15470254D02*
X12251446Y-15517873D01*
X12251446Y-15517873D02*
X12241922Y-15536921D01*
X12241922Y-15536921D02*
X12232398Y-15546445D01*
X12232398Y-15546445D02*
X12213350Y-15555969D01*
X12213350Y-15555969D02*
X12156207Y-15555969D01*
X12156207Y-15555969D02*
X12137160Y-15546445D01*
X12137160Y-15546445D02*
X12127636Y-15536921D01*
X12327636Y-15355969D02*
X12327636Y-15394064D01*
X12403827Y-15355969D02*
X12403827Y-15394064D01*
X12699065Y-15632159D02*
X12689541Y-15622635D01*
X12689541Y-15622635D02*
X12670493Y-15594064D01*
X12670493Y-15594064D02*
X12660969Y-15575016D01*
X12660969Y-15575016D02*
X12651446Y-15546445D01*
X12651446Y-15546445D02*
X12641922Y-15498826D01*
X12641922Y-15498826D02*
X12641922Y-15460731D01*
X12641922Y-15460731D02*
X12651446Y-15413111D01*
X12651446Y-15413111D02*
X12660969Y-15384540D01*
X12660969Y-15384540D02*
X12670493Y-15365492D01*
X12670493Y-15365492D02*
X12689541Y-15336921D01*
X12689541Y-15336921D02*
X12699065Y-15327397D01*
X12870493Y-15355969D02*
X12775255Y-15355969D01*
X12775255Y-15355969D02*
X12765731Y-15451207D01*
X12765731Y-15451207D02*
X12775255Y-15441683D01*
X12775255Y-15441683D02*
X12794303Y-15432159D01*
X12794303Y-15432159D02*
X12841922Y-15432159D01*
X12841922Y-15432159D02*
X12860969Y-15441683D01*
X12860969Y-15441683D02*
X12870493Y-15451207D01*
X12870493Y-15451207D02*
X12880017Y-15470254D01*
X12880017Y-15470254D02*
X12880017Y-15517873D01*
X12880017Y-15517873D02*
X12870493Y-15536921D01*
X12870493Y-15536921D02*
X12860969Y-15546445D01*
X12860969Y-15546445D02*
X12841922Y-15555969D01*
X12841922Y-15555969D02*
X12794303Y-15555969D01*
X12794303Y-15555969D02*
X12775255Y-15546445D01*
X12775255Y-15546445D02*
X12765731Y-15536921D01*
X13118112Y-15555969D02*
X13118112Y-15355969D01*
X13203827Y-15555969D02*
X13203827Y-15451207D01*
X13203827Y-15451207D02*
X13194303Y-15432159D01*
X13194303Y-15432159D02*
X13175255Y-15422635D01*
X13175255Y-15422635D02*
X13146684Y-15422635D01*
X13146684Y-15422635D02*
X13127636Y-15432159D01*
X13127636Y-15432159D02*
X13118112Y-15441683D01*
X13327636Y-15555969D02*
X13308589Y-15546445D01*
X13308589Y-15546445D02*
X13299065Y-15536921D01*
X13299065Y-15536921D02*
X13289541Y-15517873D01*
X13289541Y-15517873D02*
X13289541Y-15460731D01*
X13289541Y-15460731D02*
X13299065Y-15441683D01*
X13299065Y-15441683D02*
X13308589Y-15432159D01*
X13308589Y-15432159D02*
X13327636Y-15422635D01*
X13327636Y-15422635D02*
X13356208Y-15422635D01*
X13356208Y-15422635D02*
X13375255Y-15432159D01*
X13375255Y-15432159D02*
X13384779Y-15441683D01*
X13384779Y-15441683D02*
X13394303Y-15460731D01*
X13394303Y-15460731D02*
X13394303Y-15517873D01*
X13394303Y-15517873D02*
X13384779Y-15536921D01*
X13384779Y-15536921D02*
X13375255Y-15546445D01*
X13375255Y-15546445D02*
X13356208Y-15555969D01*
X13356208Y-15555969D02*
X13327636Y-15555969D01*
X13508589Y-15555969D02*
X13489541Y-15546445D01*
X13489541Y-15546445D02*
X13480017Y-15527397D01*
X13480017Y-15527397D02*
X13480017Y-15355969D01*
X13660970Y-15546445D02*
X13641922Y-15555969D01*
X13641922Y-15555969D02*
X13603827Y-15555969D01*
X13603827Y-15555969D02*
X13584779Y-15546445D01*
X13584779Y-15546445D02*
X13575255Y-15527397D01*
X13575255Y-15527397D02*
X13575255Y-15451207D01*
X13575255Y-15451207D02*
X13584779Y-15432159D01*
X13584779Y-15432159D02*
X13603827Y-15422635D01*
X13603827Y-15422635D02*
X13641922Y-15422635D01*
X13641922Y-15422635D02*
X13660970Y-15432159D01*
X13660970Y-15432159D02*
X13670493Y-15451207D01*
X13670493Y-15451207D02*
X13670493Y-15470254D01*
X13670493Y-15470254D02*
X13575255Y-15489302D01*
X13746684Y-15546445D02*
X13765731Y-15555969D01*
X13765731Y-15555969D02*
X13803827Y-15555969D01*
X13803827Y-15555969D02*
X13822874Y-15546445D01*
X13822874Y-15546445D02*
X13832398Y-15527397D01*
X13832398Y-15527397D02*
X13832398Y-15517873D01*
X13832398Y-15517873D02*
X13822874Y-15498826D01*
X13822874Y-15498826D02*
X13803827Y-15489302D01*
X13803827Y-15489302D02*
X13775255Y-15489302D01*
X13775255Y-15489302D02*
X13756208Y-15479778D01*
X13756208Y-15479778D02*
X13746684Y-15460731D01*
X13746684Y-15460731D02*
X13746684Y-15451207D01*
X13746684Y-15451207D02*
X13756208Y-15432159D01*
X13756208Y-15432159D02*
X13775255Y-15422635D01*
X13775255Y-15422635D02*
X13803827Y-15422635D01*
X13803827Y-15422635D02*
X13822874Y-15432159D01*
X13899065Y-15632159D02*
X13908589Y-15622635D01*
X13908589Y-15622635D02*
X13927636Y-15594064D01*
X13927636Y-15594064D02*
X13937160Y-15575016D01*
X13937160Y-15575016D02*
X13946684Y-15546445D01*
X13946684Y-15546445D02*
X13956208Y-15498826D01*
X13956208Y-15498826D02*
X13956208Y-15460731D01*
X13956208Y-15460731D02*
X13946684Y-15413111D01*
X13946684Y-15413111D02*
X13937160Y-15384540D01*
X13937160Y-15384540D02*
X13927636Y-15365492D01*
X13927636Y-15365492D02*
X13908589Y-15336921D01*
X13908589Y-15336921D02*
X13899065Y-15327397D01*
X14260970Y-15632159D02*
X14251446Y-15622635D01*
X14251446Y-15622635D02*
X14232398Y-15594064D01*
X14232398Y-15594064D02*
X14222874Y-15575016D01*
X14222874Y-15575016D02*
X14213351Y-15546445D01*
X14213351Y-15546445D02*
X14203827Y-15498826D01*
X14203827Y-15498826D02*
X14203827Y-15460731D01*
X14203827Y-15460731D02*
X14213351Y-15413111D01*
X14213351Y-15413111D02*
X14222874Y-15384540D01*
X14222874Y-15384540D02*
X14232398Y-15365492D01*
X14232398Y-15365492D02*
X14251446Y-15336921D01*
X14251446Y-15336921D02*
X14260970Y-15327397D01*
X14337160Y-15422635D02*
X14337160Y-15555969D01*
X14337160Y-15441683D02*
X14346684Y-15432159D01*
X14346684Y-15432159D02*
X14365731Y-15422635D01*
X14365731Y-15422635D02*
X14394303Y-15422635D01*
X14394303Y-15422635D02*
X14413351Y-15432159D01*
X14413351Y-15432159D02*
X14422874Y-15451207D01*
X14422874Y-15451207D02*
X14422874Y-15555969D01*
X14546684Y-15555969D02*
X14527636Y-15546445D01*
X14527636Y-15546445D02*
X14518112Y-15536921D01*
X14518112Y-15536921D02*
X14508589Y-15517873D01*
X14508589Y-15517873D02*
X14508589Y-15460731D01*
X14508589Y-15460731D02*
X14518112Y-15441683D01*
X14518112Y-15441683D02*
X14527636Y-15432159D01*
X14527636Y-15432159D02*
X14546684Y-15422635D01*
X14546684Y-15422635D02*
X14575255Y-15422635D01*
X14575255Y-15422635D02*
X14594303Y-15432159D01*
X14594303Y-15432159D02*
X14603827Y-15441683D01*
X14603827Y-15441683D02*
X14613351Y-15460731D01*
X14613351Y-15460731D02*
X14613351Y-15517873D01*
X14613351Y-15517873D02*
X14603827Y-15536921D01*
X14603827Y-15536921D02*
X14594303Y-15546445D01*
X14594303Y-15546445D02*
X14575255Y-15555969D01*
X14575255Y-15555969D02*
X14546684Y-15555969D01*
X14670493Y-15422635D02*
X14746684Y-15422635D01*
X14699065Y-15355969D02*
X14699065Y-15527397D01*
X14699065Y-15527397D02*
X14708589Y-15546445D01*
X14708589Y-15546445D02*
X14727636Y-15555969D01*
X14727636Y-15555969D02*
X14746684Y-15555969D01*
X14965732Y-15422635D02*
X14965732Y-15622635D01*
X14965732Y-15432159D02*
X14984779Y-15422635D01*
X14984779Y-15422635D02*
X15022874Y-15422635D01*
X15022874Y-15422635D02*
X15041922Y-15432159D01*
X15041922Y-15432159D02*
X15051446Y-15441683D01*
X15051446Y-15441683D02*
X15060970Y-15460731D01*
X15060970Y-15460731D02*
X15060970Y-15517873D01*
X15060970Y-15517873D02*
X15051446Y-15536921D01*
X15051446Y-15536921D02*
X15041922Y-15546445D01*
X15041922Y-15546445D02*
X15022874Y-15555969D01*
X15022874Y-15555969D02*
X14984779Y-15555969D01*
X14984779Y-15555969D02*
X14965732Y-15546445D01*
X15175255Y-15555969D02*
X15156208Y-15546445D01*
X15156208Y-15546445D02*
X15146684Y-15527397D01*
X15146684Y-15527397D02*
X15146684Y-15355969D01*
X15337160Y-15555969D02*
X15337160Y-15451207D01*
X15337160Y-15451207D02*
X15327636Y-15432159D01*
X15327636Y-15432159D02*
X15308589Y-15422635D01*
X15308589Y-15422635D02*
X15270493Y-15422635D01*
X15270493Y-15422635D02*
X15251446Y-15432159D01*
X15337160Y-15546445D02*
X15318113Y-15555969D01*
X15318113Y-15555969D02*
X15270493Y-15555969D01*
X15270493Y-15555969D02*
X15251446Y-15546445D01*
X15251446Y-15546445D02*
X15241922Y-15527397D01*
X15241922Y-15527397D02*
X15241922Y-15508350D01*
X15241922Y-15508350D02*
X15251446Y-15489302D01*
X15251446Y-15489302D02*
X15270493Y-15479778D01*
X15270493Y-15479778D02*
X15318113Y-15479778D01*
X15318113Y-15479778D02*
X15337160Y-15470254D01*
X15403827Y-15422635D02*
X15480017Y-15422635D01*
X15432398Y-15355969D02*
X15432398Y-15527397D01*
X15432398Y-15527397D02*
X15441922Y-15546445D01*
X15441922Y-15546445D02*
X15460970Y-15555969D01*
X15460970Y-15555969D02*
X15480017Y-15555969D01*
X15622874Y-15546445D02*
X15603827Y-15555969D01*
X15603827Y-15555969D02*
X15565732Y-15555969D01*
X15565732Y-15555969D02*
X15546684Y-15546445D01*
X15546684Y-15546445D02*
X15537160Y-15527397D01*
X15537160Y-15527397D02*
X15537160Y-15451207D01*
X15537160Y-15451207D02*
X15546684Y-15432159D01*
X15546684Y-15432159D02*
X15565732Y-15422635D01*
X15565732Y-15422635D02*
X15603827Y-15422635D01*
X15603827Y-15422635D02*
X15622874Y-15432159D01*
X15622874Y-15432159D02*
X15632398Y-15451207D01*
X15632398Y-15451207D02*
X15632398Y-15470254D01*
X15632398Y-15470254D02*
X15537160Y-15489302D01*
X15803827Y-15555969D02*
X15803827Y-15355969D01*
X15803827Y-15546445D02*
X15784779Y-15555969D01*
X15784779Y-15555969D02*
X15746684Y-15555969D01*
X15746684Y-15555969D02*
X15727636Y-15546445D01*
X15727636Y-15546445D02*
X15718113Y-15536921D01*
X15718113Y-15536921D02*
X15708589Y-15517873D01*
X15708589Y-15517873D02*
X15708589Y-15460731D01*
X15708589Y-15460731D02*
X15718113Y-15441683D01*
X15718113Y-15441683D02*
X15727636Y-15432159D01*
X15727636Y-15432159D02*
X15746684Y-15422635D01*
X15746684Y-15422635D02*
X15784779Y-15422635D01*
X15784779Y-15422635D02*
X15803827Y-15432159D01*
X15880017Y-15632159D02*
X15889541Y-15622635D01*
X15889541Y-15622635D02*
X15908589Y-15594064D01*
X15908589Y-15594064D02*
X15918113Y-15575016D01*
X15918113Y-15575016D02*
X15927636Y-15546445D01*
X15927636Y-15546445D02*
X15937160Y-15498826D01*
X15937160Y-15498826D02*
X15937160Y-15460731D01*
X15937160Y-15460731D02*
X15927636Y-15413111D01*
X15927636Y-15413111D02*
X15918113Y-15384540D01*
X15918113Y-15384540D02*
X15908589Y-15365492D01*
X15908589Y-15365492D02*
X15889541Y-15336921D01*
X15889541Y-15336921D02*
X15880017Y-15327397D01*
X8924002Y-15684485D02*
X9124002Y-15884485D01*
X9124002Y-15684485D02*
X8924002Y-15884485D01*
X9124002Y-15784485D02*
G75*
G02*
X8924002Y-15784485I-100000J0D01*
G01*
X8924002Y-15784485D02*
G75*
G02*
X9124002Y-15784485I100000J0D01*
G01*
X9480017Y-15675969D02*
X9384779Y-15675969D01*
X9384779Y-15675969D02*
X9375255Y-15771207D01*
X9375255Y-15771207D02*
X9384779Y-15761683D01*
X9384779Y-15761683D02*
X9403826Y-15752159D01*
X9403826Y-15752159D02*
X9451445Y-15752159D01*
X9451445Y-15752159D02*
X9470493Y-15761683D01*
X9470493Y-15761683D02*
X9480017Y-15771207D01*
X9480017Y-15771207D02*
X9489541Y-15790254D01*
X9489541Y-15790254D02*
X9489541Y-15837873D01*
X9489541Y-15837873D02*
X9480017Y-15856921D01*
X9480017Y-15856921D02*
X9470493Y-15866445D01*
X9470493Y-15866445D02*
X9451445Y-15875969D01*
X9451445Y-15875969D02*
X9403826Y-15875969D01*
X9403826Y-15875969D02*
X9384779Y-15866445D01*
X9384779Y-15866445D02*
X9375255Y-15856921D01*
X9575255Y-15856921D02*
X9584779Y-15866445D01*
X9584779Y-15866445D02*
X9575255Y-15875969D01*
X9575255Y-15875969D02*
X9565731Y-15866445D01*
X9565731Y-15866445D02*
X9575255Y-15856921D01*
X9575255Y-15856921D02*
X9575255Y-15875969D01*
X9708588Y-15675969D02*
X9727636Y-15675969D01*
X9727636Y-15675969D02*
X9746684Y-15685492D01*
X9746684Y-15685492D02*
X9756207Y-15695016D01*
X9756207Y-15695016D02*
X9765731Y-15714064D01*
X9765731Y-15714064D02*
X9775255Y-15752159D01*
X9775255Y-15752159D02*
X9775255Y-15799778D01*
X9775255Y-15799778D02*
X9765731Y-15837873D01*
X9765731Y-15837873D02*
X9756207Y-15856921D01*
X9756207Y-15856921D02*
X9746684Y-15866445D01*
X9746684Y-15866445D02*
X9727636Y-15875969D01*
X9727636Y-15875969D02*
X9708588Y-15875969D01*
X9708588Y-15875969D02*
X9689541Y-15866445D01*
X9689541Y-15866445D02*
X9680017Y-15856921D01*
X9680017Y-15856921D02*
X9670493Y-15837873D01*
X9670493Y-15837873D02*
X9660969Y-15799778D01*
X9660969Y-15799778D02*
X9660969Y-15752159D01*
X9660969Y-15752159D02*
X9670493Y-15714064D01*
X9670493Y-15714064D02*
X9680017Y-15695016D01*
X9680017Y-15695016D02*
X9689541Y-15685492D01*
X9689541Y-15685492D02*
X9708588Y-15675969D01*
X9899064Y-15675969D02*
X9918112Y-15675969D01*
X9918112Y-15675969D02*
X9937160Y-15685492D01*
X9937160Y-15685492D02*
X9946684Y-15695016D01*
X9946684Y-15695016D02*
X9956207Y-15714064D01*
X9956207Y-15714064D02*
X9965731Y-15752159D01*
X9965731Y-15752159D02*
X9965731Y-15799778D01*
X9965731Y-15799778D02*
X9956207Y-15837873D01*
X9956207Y-15837873D02*
X9946684Y-15856921D01*
X9946684Y-15856921D02*
X9937160Y-15866445D01*
X9937160Y-15866445D02*
X9918112Y-15875969D01*
X9918112Y-15875969D02*
X9899064Y-15875969D01*
X9899064Y-15875969D02*
X9880017Y-15866445D01*
X9880017Y-15866445D02*
X9870493Y-15856921D01*
X9870493Y-15856921D02*
X9860969Y-15837873D01*
X9860969Y-15837873D02*
X9851445Y-15799778D01*
X9851445Y-15799778D02*
X9851445Y-15752159D01*
X9851445Y-15752159D02*
X9860969Y-15714064D01*
X9860969Y-15714064D02*
X9870493Y-15695016D01*
X9870493Y-15695016D02*
X9880017Y-15685492D01*
X9880017Y-15685492D02*
X9899064Y-15675969D01*
X10089541Y-15675969D02*
X10108588Y-15675969D01*
X10108588Y-15675969D02*
X10127636Y-15685492D01*
X10127636Y-15685492D02*
X10137160Y-15695016D01*
X10137160Y-15695016D02*
X10146684Y-15714064D01*
X10146684Y-15714064D02*
X10156207Y-15752159D01*
X10156207Y-15752159D02*
X10156207Y-15799778D01*
X10156207Y-15799778D02*
X10146684Y-15837873D01*
X10146684Y-15837873D02*
X10137160Y-15856921D01*
X10137160Y-15856921D02*
X10127636Y-15866445D01*
X10127636Y-15866445D02*
X10108588Y-15875969D01*
X10108588Y-15875969D02*
X10089541Y-15875969D01*
X10089541Y-15875969D02*
X10070493Y-15866445D01*
X10070493Y-15866445D02*
X10060969Y-15856921D01*
X10060969Y-15856921D02*
X10051445Y-15837873D01*
X10051445Y-15837873D02*
X10041922Y-15799778D01*
X10041922Y-15799778D02*
X10041922Y-15752159D01*
X10041922Y-15752159D02*
X10051445Y-15714064D01*
X10051445Y-15714064D02*
X10060969Y-15695016D01*
X10060969Y-15695016D02*
X10070493Y-15685492D01*
X10070493Y-15685492D02*
X10089541Y-15675969D01*
X10241922Y-15875969D02*
X10241922Y-15742635D01*
X10241922Y-15761683D02*
X10251445Y-15752159D01*
X10251445Y-15752159D02*
X10270493Y-15742635D01*
X10270493Y-15742635D02*
X10299065Y-15742635D01*
X10299065Y-15742635D02*
X10318112Y-15752159D01*
X10318112Y-15752159D02*
X10327636Y-15771207D01*
X10327636Y-15771207D02*
X10327636Y-15875969D01*
X10327636Y-15771207D02*
X10337160Y-15752159D01*
X10337160Y-15752159D02*
X10356207Y-15742635D01*
X10356207Y-15742635D02*
X10384779Y-15742635D01*
X10384779Y-15742635D02*
X10403826Y-15752159D01*
X10403826Y-15752159D02*
X10413350Y-15771207D01*
X10413350Y-15771207D02*
X10413350Y-15875969D01*
X10508588Y-15875969D02*
X10508588Y-15742635D01*
X10508588Y-15761683D02*
X10518112Y-15752159D01*
X10518112Y-15752159D02*
X10537160Y-15742635D01*
X10537160Y-15742635D02*
X10565731Y-15742635D01*
X10565731Y-15742635D02*
X10584779Y-15752159D01*
X10584779Y-15752159D02*
X10594303Y-15771207D01*
X10594303Y-15771207D02*
X10594303Y-15875969D01*
X10594303Y-15771207D02*
X10603826Y-15752159D01*
X10603826Y-15752159D02*
X10622874Y-15742635D01*
X10622874Y-15742635D02*
X10651445Y-15742635D01*
X10651445Y-15742635D02*
X10670493Y-15752159D01*
X10670493Y-15752159D02*
X10680017Y-15771207D01*
X10680017Y-15771207D02*
X10680017Y-15875969D01*
X11070493Y-15666445D02*
X10899065Y-15923588D01*
X11327636Y-15675969D02*
X11346684Y-15675969D01*
X11346684Y-15675969D02*
X11365731Y-15685492D01*
X11365731Y-15685492D02*
X11375255Y-15695016D01*
X11375255Y-15695016D02*
X11384779Y-15714064D01*
X11384779Y-15714064D02*
X11394303Y-15752159D01*
X11394303Y-15752159D02*
X11394303Y-15799778D01*
X11394303Y-15799778D02*
X11384779Y-15837873D01*
X11384779Y-15837873D02*
X11375255Y-15856921D01*
X11375255Y-15856921D02*
X11365731Y-15866445D01*
X11365731Y-15866445D02*
X11346684Y-15875969D01*
X11346684Y-15875969D02*
X11327636Y-15875969D01*
X11327636Y-15875969D02*
X11308588Y-15866445D01*
X11308588Y-15866445D02*
X11299065Y-15856921D01*
X11299065Y-15856921D02*
X11289541Y-15837873D01*
X11289541Y-15837873D02*
X11280017Y-15799778D01*
X11280017Y-15799778D02*
X11280017Y-15752159D01*
X11280017Y-15752159D02*
X11289541Y-15714064D01*
X11289541Y-15714064D02*
X11299065Y-15695016D01*
X11299065Y-15695016D02*
X11308588Y-15685492D01*
X11308588Y-15685492D02*
X11327636Y-15675969D01*
X11480017Y-15856921D02*
X11489541Y-15866445D01*
X11489541Y-15866445D02*
X11480017Y-15875969D01*
X11480017Y-15875969D02*
X11470493Y-15866445D01*
X11470493Y-15866445D02*
X11480017Y-15856921D01*
X11480017Y-15856921D02*
X11480017Y-15875969D01*
X11680017Y-15875969D02*
X11565731Y-15875969D01*
X11622874Y-15875969D02*
X11622874Y-15675969D01*
X11622874Y-15675969D02*
X11603826Y-15704540D01*
X11603826Y-15704540D02*
X11584779Y-15723588D01*
X11584779Y-15723588D02*
X11565731Y-15733111D01*
X11775255Y-15875969D02*
X11813350Y-15875969D01*
X11813350Y-15875969D02*
X11832398Y-15866445D01*
X11832398Y-15866445D02*
X11841922Y-15856921D01*
X11841922Y-15856921D02*
X11860969Y-15828350D01*
X11860969Y-15828350D02*
X11870493Y-15790254D01*
X11870493Y-15790254D02*
X11870493Y-15714064D01*
X11870493Y-15714064D02*
X11860969Y-15695016D01*
X11860969Y-15695016D02*
X11851446Y-15685492D01*
X11851446Y-15685492D02*
X11832398Y-15675969D01*
X11832398Y-15675969D02*
X11794303Y-15675969D01*
X11794303Y-15675969D02*
X11775255Y-15685492D01*
X11775255Y-15685492D02*
X11765731Y-15695016D01*
X11765731Y-15695016D02*
X11756207Y-15714064D01*
X11756207Y-15714064D02*
X11756207Y-15761683D01*
X11756207Y-15761683D02*
X11765731Y-15780731D01*
X11765731Y-15780731D02*
X11775255Y-15790254D01*
X11775255Y-15790254D02*
X11794303Y-15799778D01*
X11794303Y-15799778D02*
X11832398Y-15799778D01*
X11832398Y-15799778D02*
X11851446Y-15790254D01*
X11851446Y-15790254D02*
X11860969Y-15780731D01*
X11860969Y-15780731D02*
X11870493Y-15761683D01*
X12041922Y-15675969D02*
X12003826Y-15675969D01*
X12003826Y-15675969D02*
X11984779Y-15685492D01*
X11984779Y-15685492D02*
X11975255Y-15695016D01*
X11975255Y-15695016D02*
X11956207Y-15723588D01*
X11956207Y-15723588D02*
X11946684Y-15761683D01*
X11946684Y-15761683D02*
X11946684Y-15837873D01*
X11946684Y-15837873D02*
X11956207Y-15856921D01*
X11956207Y-15856921D02*
X11965731Y-15866445D01*
X11965731Y-15866445D02*
X11984779Y-15875969D01*
X11984779Y-15875969D02*
X12022874Y-15875969D01*
X12022874Y-15875969D02*
X12041922Y-15866445D01*
X12041922Y-15866445D02*
X12051446Y-15856921D01*
X12051446Y-15856921D02*
X12060969Y-15837873D01*
X12060969Y-15837873D02*
X12060969Y-15790254D01*
X12060969Y-15790254D02*
X12051446Y-15771207D01*
X12051446Y-15771207D02*
X12041922Y-15761683D01*
X12041922Y-15761683D02*
X12022874Y-15752159D01*
X12022874Y-15752159D02*
X11984779Y-15752159D01*
X11984779Y-15752159D02*
X11965731Y-15761683D01*
X11965731Y-15761683D02*
X11956207Y-15771207D01*
X11956207Y-15771207D02*
X11946684Y-15790254D01*
X12156207Y-15875969D02*
X12194303Y-15875969D01*
X12194303Y-15875969D02*
X12213350Y-15866445D01*
X12213350Y-15866445D02*
X12222874Y-15856921D01*
X12222874Y-15856921D02*
X12241922Y-15828350D01*
X12241922Y-15828350D02*
X12251446Y-15790254D01*
X12251446Y-15790254D02*
X12251446Y-15714064D01*
X12251446Y-15714064D02*
X12241922Y-15695016D01*
X12241922Y-15695016D02*
X12232398Y-15685492D01*
X12232398Y-15685492D02*
X12213350Y-15675969D01*
X12213350Y-15675969D02*
X12175255Y-15675969D01*
X12175255Y-15675969D02*
X12156207Y-15685492D01*
X12156207Y-15685492D02*
X12146684Y-15695016D01*
X12146684Y-15695016D02*
X12137160Y-15714064D01*
X12137160Y-15714064D02*
X12137160Y-15761683D01*
X12137160Y-15761683D02*
X12146684Y-15780731D01*
X12146684Y-15780731D02*
X12156207Y-15790254D01*
X12156207Y-15790254D02*
X12175255Y-15799778D01*
X12175255Y-15799778D02*
X12213350Y-15799778D01*
X12213350Y-15799778D02*
X12232398Y-15790254D01*
X12232398Y-15790254D02*
X12241922Y-15780731D01*
X12241922Y-15780731D02*
X12251446Y-15761683D01*
X12327636Y-15675969D02*
X12327636Y-15714064D01*
X12403827Y-15675969D02*
X12403827Y-15714064D01*
X12699065Y-15952159D02*
X12689541Y-15942635D01*
X12689541Y-15942635D02*
X12670493Y-15914064D01*
X12670493Y-15914064D02*
X12660969Y-15895016D01*
X12660969Y-15895016D02*
X12651446Y-15866445D01*
X12651446Y-15866445D02*
X12641922Y-15818826D01*
X12641922Y-15818826D02*
X12641922Y-15780731D01*
X12641922Y-15780731D02*
X12651446Y-15733111D01*
X12651446Y-15733111D02*
X12660969Y-15704540D01*
X12660969Y-15704540D02*
X12670493Y-15685492D01*
X12670493Y-15685492D02*
X12689541Y-15656921D01*
X12689541Y-15656921D02*
X12699065Y-15647397D01*
X12860969Y-15742635D02*
X12860969Y-15875969D01*
X12813350Y-15666445D02*
X12765731Y-15809302D01*
X12765731Y-15809302D02*
X12889541Y-15809302D01*
X12956208Y-15695016D02*
X12965731Y-15685492D01*
X12965731Y-15685492D02*
X12984779Y-15675969D01*
X12984779Y-15675969D02*
X13032398Y-15675969D01*
X13032398Y-15675969D02*
X13051446Y-15685492D01*
X13051446Y-15685492D02*
X13060969Y-15695016D01*
X13060969Y-15695016D02*
X13070493Y-15714064D01*
X13070493Y-15714064D02*
X13070493Y-15733111D01*
X13070493Y-15733111D02*
X13060969Y-15761683D01*
X13060969Y-15761683D02*
X12946684Y-15875969D01*
X12946684Y-15875969D02*
X13070493Y-15875969D01*
X13308589Y-15875969D02*
X13308589Y-15675969D01*
X13394303Y-15875969D02*
X13394303Y-15771207D01*
X13394303Y-15771207D02*
X13384779Y-15752159D01*
X13384779Y-15752159D02*
X13365731Y-15742635D01*
X13365731Y-15742635D02*
X13337160Y-15742635D01*
X13337160Y-15742635D02*
X13318112Y-15752159D01*
X13318112Y-15752159D02*
X13308589Y-15761683D01*
X13518112Y-15875969D02*
X13499065Y-15866445D01*
X13499065Y-15866445D02*
X13489541Y-15856921D01*
X13489541Y-15856921D02*
X13480017Y-15837873D01*
X13480017Y-15837873D02*
X13480017Y-15780731D01*
X13480017Y-15780731D02*
X13489541Y-15761683D01*
X13489541Y-15761683D02*
X13499065Y-15752159D01*
X13499065Y-15752159D02*
X13518112Y-15742635D01*
X13518112Y-15742635D02*
X13546684Y-15742635D01*
X13546684Y-15742635D02*
X13565731Y-15752159D01*
X13565731Y-15752159D02*
X13575255Y-15761683D01*
X13575255Y-15761683D02*
X13584779Y-15780731D01*
X13584779Y-15780731D02*
X13584779Y-15837873D01*
X13584779Y-15837873D02*
X13575255Y-15856921D01*
X13575255Y-15856921D02*
X13565731Y-15866445D01*
X13565731Y-15866445D02*
X13546684Y-15875969D01*
X13546684Y-15875969D02*
X13518112Y-15875969D01*
X13699065Y-15875969D02*
X13680017Y-15866445D01*
X13680017Y-15866445D02*
X13670493Y-15847397D01*
X13670493Y-15847397D02*
X13670493Y-15675969D01*
X13851446Y-15866445D02*
X13832398Y-15875969D01*
X13832398Y-15875969D02*
X13794303Y-15875969D01*
X13794303Y-15875969D02*
X13775255Y-15866445D01*
X13775255Y-15866445D02*
X13765731Y-15847397D01*
X13765731Y-15847397D02*
X13765731Y-15771207D01*
X13765731Y-15771207D02*
X13775255Y-15752159D01*
X13775255Y-15752159D02*
X13794303Y-15742635D01*
X13794303Y-15742635D02*
X13832398Y-15742635D01*
X13832398Y-15742635D02*
X13851446Y-15752159D01*
X13851446Y-15752159D02*
X13860970Y-15771207D01*
X13860970Y-15771207D02*
X13860970Y-15790254D01*
X13860970Y-15790254D02*
X13765731Y-15809302D01*
X13937160Y-15866445D02*
X13956208Y-15875969D01*
X13956208Y-15875969D02*
X13994303Y-15875969D01*
X13994303Y-15875969D02*
X14013351Y-15866445D01*
X14013351Y-15866445D02*
X14022874Y-15847397D01*
X14022874Y-15847397D02*
X14022874Y-15837873D01*
X14022874Y-15837873D02*
X14013351Y-15818826D01*
X14013351Y-15818826D02*
X13994303Y-15809302D01*
X13994303Y-15809302D02*
X13965731Y-15809302D01*
X13965731Y-15809302D02*
X13946684Y-15799778D01*
X13946684Y-15799778D02*
X13937160Y-15780731D01*
X13937160Y-15780731D02*
X13937160Y-15771207D01*
X13937160Y-15771207D02*
X13946684Y-15752159D01*
X13946684Y-15752159D02*
X13965731Y-15742635D01*
X13965731Y-15742635D02*
X13994303Y-15742635D01*
X13994303Y-15742635D02*
X14013351Y-15752159D01*
X14089541Y-15952159D02*
X14099065Y-15942635D01*
X14099065Y-15942635D02*
X14118112Y-15914064D01*
X14118112Y-15914064D02*
X14127636Y-15895016D01*
X14127636Y-15895016D02*
X14137160Y-15866445D01*
X14137160Y-15866445D02*
X14146684Y-15818826D01*
X14146684Y-15818826D02*
X14146684Y-15780731D01*
X14146684Y-15780731D02*
X14137160Y-15733111D01*
X14137160Y-15733111D02*
X14127636Y-15704540D01*
X14127636Y-15704540D02*
X14118112Y-15685492D01*
X14118112Y-15685492D02*
X14099065Y-15656921D01*
X14099065Y-15656921D02*
X14089541Y-15647397D01*
X14451446Y-15952159D02*
X14441922Y-15942635D01*
X14441922Y-15942635D02*
X14422874Y-15914064D01*
X14422874Y-15914064D02*
X14413351Y-15895016D01*
X14413351Y-15895016D02*
X14403827Y-15866445D01*
X14403827Y-15866445D02*
X14394303Y-15818826D01*
X14394303Y-15818826D02*
X14394303Y-15780731D01*
X14394303Y-15780731D02*
X14403827Y-15733111D01*
X14403827Y-15733111D02*
X14413351Y-15704540D01*
X14413351Y-15704540D02*
X14422874Y-15685492D01*
X14422874Y-15685492D02*
X14441922Y-15656921D01*
X14441922Y-15656921D02*
X14451446Y-15647397D01*
X14527636Y-15742635D02*
X14527636Y-15875969D01*
X14527636Y-15761683D02*
X14537160Y-15752159D01*
X14537160Y-15752159D02*
X14556208Y-15742635D01*
X14556208Y-15742635D02*
X14584779Y-15742635D01*
X14584779Y-15742635D02*
X14603827Y-15752159D01*
X14603827Y-15752159D02*
X14613351Y-15771207D01*
X14613351Y-15771207D02*
X14613351Y-15875969D01*
X14737160Y-15875969D02*
X14718112Y-15866445D01*
X14718112Y-15866445D02*
X14708589Y-15856921D01*
X14708589Y-15856921D02*
X14699065Y-15837873D01*
X14699065Y-15837873D02*
X14699065Y-15780731D01*
X14699065Y-15780731D02*
X14708589Y-15761683D01*
X14708589Y-15761683D02*
X14718112Y-15752159D01*
X14718112Y-15752159D02*
X14737160Y-15742635D01*
X14737160Y-15742635D02*
X14765732Y-15742635D01*
X14765732Y-15742635D02*
X14784779Y-15752159D01*
X14784779Y-15752159D02*
X14794303Y-15761683D01*
X14794303Y-15761683D02*
X14803827Y-15780731D01*
X14803827Y-15780731D02*
X14803827Y-15837873D01*
X14803827Y-15837873D02*
X14794303Y-15856921D01*
X14794303Y-15856921D02*
X14784779Y-15866445D01*
X14784779Y-15866445D02*
X14765732Y-15875969D01*
X14765732Y-15875969D02*
X14737160Y-15875969D01*
X14860970Y-15742635D02*
X14937160Y-15742635D01*
X14889541Y-15675969D02*
X14889541Y-15847397D01*
X14889541Y-15847397D02*
X14899065Y-15866445D01*
X14899065Y-15866445D02*
X14918112Y-15875969D01*
X14918112Y-15875969D02*
X14937160Y-15875969D01*
X15156208Y-15742635D02*
X15156208Y-15942635D01*
X15156208Y-15752159D02*
X15175255Y-15742635D01*
X15175255Y-15742635D02*
X15213351Y-15742635D01*
X15213351Y-15742635D02*
X15232398Y-15752159D01*
X15232398Y-15752159D02*
X15241922Y-15761683D01*
X15241922Y-15761683D02*
X15251446Y-15780731D01*
X15251446Y-15780731D02*
X15251446Y-15837873D01*
X15251446Y-15837873D02*
X15241922Y-15856921D01*
X15241922Y-15856921D02*
X15232398Y-15866445D01*
X15232398Y-15866445D02*
X15213351Y-15875969D01*
X15213351Y-15875969D02*
X15175255Y-15875969D01*
X15175255Y-15875969D02*
X15156208Y-15866445D01*
X15365732Y-15875969D02*
X15346684Y-15866445D01*
X15346684Y-15866445D02*
X15337160Y-15847397D01*
X15337160Y-15847397D02*
X15337160Y-15675969D01*
X15527636Y-15875969D02*
X15527636Y-15771207D01*
X15527636Y-15771207D02*
X15518113Y-15752159D01*
X15518113Y-15752159D02*
X15499065Y-15742635D01*
X15499065Y-15742635D02*
X15460970Y-15742635D01*
X15460970Y-15742635D02*
X15441922Y-15752159D01*
X15527636Y-15866445D02*
X15508589Y-15875969D01*
X15508589Y-15875969D02*
X15460970Y-15875969D01*
X15460970Y-15875969D02*
X15441922Y-15866445D01*
X15441922Y-15866445D02*
X15432398Y-15847397D01*
X15432398Y-15847397D02*
X15432398Y-15828350D01*
X15432398Y-15828350D02*
X15441922Y-15809302D01*
X15441922Y-15809302D02*
X15460970Y-15799778D01*
X15460970Y-15799778D02*
X15508589Y-15799778D01*
X15508589Y-15799778D02*
X15527636Y-15790254D01*
X15594303Y-15742635D02*
X15670493Y-15742635D01*
X15622874Y-15675969D02*
X15622874Y-15847397D01*
X15622874Y-15847397D02*
X15632398Y-15866445D01*
X15632398Y-15866445D02*
X15651446Y-15875969D01*
X15651446Y-15875969D02*
X15670493Y-15875969D01*
X15813351Y-15866445D02*
X15794303Y-15875969D01*
X15794303Y-15875969D02*
X15756208Y-15875969D01*
X15756208Y-15875969D02*
X15737160Y-15866445D01*
X15737160Y-15866445D02*
X15727636Y-15847397D01*
X15727636Y-15847397D02*
X15727636Y-15771207D01*
X15727636Y-15771207D02*
X15737160Y-15752159D01*
X15737160Y-15752159D02*
X15756208Y-15742635D01*
X15756208Y-15742635D02*
X15794303Y-15742635D01*
X15794303Y-15742635D02*
X15813351Y-15752159D01*
X15813351Y-15752159D02*
X15822874Y-15771207D01*
X15822874Y-15771207D02*
X15822874Y-15790254D01*
X15822874Y-15790254D02*
X15727636Y-15809302D01*
X15994303Y-15875969D02*
X15994303Y-15675969D01*
X15994303Y-15866445D02*
X15975255Y-15875969D01*
X15975255Y-15875969D02*
X15937160Y-15875969D01*
X15937160Y-15875969D02*
X15918113Y-15866445D01*
X15918113Y-15866445D02*
X15908589Y-15856921D01*
X15908589Y-15856921D02*
X15899065Y-15837873D01*
X15899065Y-15837873D02*
X15899065Y-15780731D01*
X15899065Y-15780731D02*
X15908589Y-15761683D01*
X15908589Y-15761683D02*
X15918113Y-15752159D01*
X15918113Y-15752159D02*
X15937160Y-15742635D01*
X15937160Y-15742635D02*
X15975255Y-15742635D01*
X15975255Y-15742635D02*
X15994303Y-15752159D01*
X16070494Y-15952159D02*
X16080017Y-15942635D01*
X16080017Y-15942635D02*
X16099065Y-15914064D01*
X16099065Y-15914064D02*
X16108589Y-15895016D01*
X16108589Y-15895016D02*
X16118113Y-15866445D01*
X16118113Y-15866445D02*
X16127636Y-15818826D01*
X16127636Y-15818826D02*
X16127636Y-15780731D01*
X16127636Y-15780731D02*
X16118113Y-15733111D01*
X16118113Y-15733111D02*
X16108589Y-15704540D01*
X16108589Y-15704540D02*
X16099065Y-15685492D01*
X16099065Y-15685492D02*
X16080017Y-15656921D01*
X16080017Y-15656921D02*
X16070494Y-15647397D01*
M02*
