%TF.GenerationSoftware,KiCad,Pcbnew,8.0.8+1*%
%TF.CreationDate,2025-07-09T05:02:12+00:00*%
%TF.ProjectId,corney_island,636f726e-6579-45f6-9973-6c616e642e6b,0.2*%
%TF.SameCoordinates,Original*%
%TF.FileFunction,Drillmap*%
%TF.FilePolarity,Positive*%
%FSLAX45Y45*%
G04 Gerber Fmt 4.5, Leading zero omitted, Abs format (unit mm)*
G04 Created by KiCad (PCBNEW 8.0.8+1) date 2025-07-09 05:02:12*
%MOMM*%
%LPD*%
G01*
G04 APERTURE LIST*
%ADD10C,0.150000*%
%ADD11C,0.120000*%
%ADD12C,0.200000*%
%ADD13C,0.100000*%
%ADD14C,0.160000*%
G04 APERTURE END LIST*
D10*
X9131698Y-10801245D02*
X9131502Y-5720251D01*
X9181501Y-5670249D02*
X12781501Y-5670151D01*
X12831500Y-5620151D02*
X12831500Y-5282750D01*
X12881500Y-5232750D02*
X14631500Y-5232750D01*
X14681500Y-5182750D02*
X14681500Y-5075250D01*
X14731500Y-5025250D02*
X16384300Y-5025250D01*
X16434300Y-5075250D02*
X16434300Y-5182750D01*
X16484300Y-5232750D02*
X18234300Y-5232750D01*
X18284300Y-5282750D02*
X18284300Y-5412312D01*
X18334288Y-5462312D02*
X20083706Y-5462738D01*
X20133691Y-5513340D02*
X20132410Y-5619648D01*
X22125300Y-11290910D02*
X20779993Y-13572380D01*
X20711924Y-13590285D02*
X19318493Y-12785787D01*
X19300847Y-12779632D02*
X15624698Y-12233003D01*
X15592179Y-12213716D02*
X14575757Y-10870335D01*
X14535877Y-10850503D02*
X9181705Y-10851243D01*
X20182406Y-5670250D02*
X22106800Y-5670250D01*
X22156800Y-5720250D02*
X22156800Y-11222952D01*
X22150101Y-11247952D02*
X22125300Y-11290910D01*
X9131502Y-5720251D02*
G75*
G02*
X9181501Y-5670252I49998J1D01*
G01*
X12831500Y-5620151D02*
G75*
G02*
X12781501Y-5670150I-50000J1D01*
G01*
X12831500Y-5282750D02*
G75*
G02*
X12881500Y-5232750I50000J0D01*
G01*
X14681500Y-5182750D02*
G75*
G02*
X14631500Y-5232750I-50000J0D01*
G01*
X14681500Y-5075250D02*
G75*
G02*
X14731500Y-5025250I50000J0D01*
G01*
X16384300Y-5025250D02*
G75*
G02*
X16434300Y-5075250I0J-50000D01*
G01*
X16484300Y-5232750D02*
G75*
G02*
X16434300Y-5182750I0J50000D01*
G01*
X18234300Y-5232750D02*
G75*
G02*
X18284300Y-5282750I0J-50000D01*
G01*
X18334288Y-5462312D02*
G75*
G02*
X18284298Y-5412312I12J50002D01*
G01*
X20083706Y-5462738D02*
G75*
G02*
X20133689Y-5513340I-16J-50002D01*
G01*
X20182406Y-5670250D02*
G75*
G02*
X20132414Y-5619648I4J50000D01*
G01*
X22106800Y-5670250D02*
G75*
G02*
X22156800Y-5720250I0J-50000D01*
G01*
X22156800Y-11222952D02*
G75*
G02*
X22150100Y-11247952I-50000J3D01*
G01*
X20779993Y-13572380D02*
G75*
G02*
X20711922Y-13590288I-43073J25400D01*
G01*
X19300847Y-12779632D02*
G75*
G02*
X19318492Y-12785788I-7357J-49458D01*
G01*
X15624698Y-12233003D02*
G75*
G02*
X15592179Y-12213716I7352J49453D01*
G01*
X14535877Y-10850503D02*
G75*
G02*
X14575754Y-10870338I3J-49997D01*
G01*
X9181705Y-10851243D02*
G75*
G02*
X9131697Y-10801245I-5J50003D01*
G01*
D11*
X9820000Y-9375000D02*
X10180000Y-9375000D01*
X10180000Y-9685000D01*
X9820000Y-9685000D01*
X9820000Y-9375000D01*
X9820000Y-7625000D02*
X10180000Y-7625000D01*
X10180000Y-7935000D01*
X9820000Y-7935000D01*
X9820000Y-7625000D01*
X9820000Y-5875000D02*
X10180000Y-5875000D01*
X10180000Y-6185000D01*
X9820000Y-6185000D01*
X9820000Y-5875000D01*
X11670000Y-9375000D02*
X12030000Y-9375000D01*
X12030000Y-9685000D01*
X11670000Y-9685000D01*
X11670000Y-9375000D01*
X11670000Y-7625000D02*
X12030000Y-7625000D01*
X12030000Y-7935000D01*
X11670000Y-7935000D01*
X11670000Y-7625000D01*
X11670000Y-5875000D02*
X12030000Y-5875000D01*
X12030000Y-6185000D01*
X11670000Y-6185000D01*
X11670000Y-5875000D01*
X13520000Y-8937500D02*
X13880000Y-8937500D01*
X13880000Y-9247500D01*
X13520000Y-9247500D01*
X13520000Y-8937500D01*
X13520000Y-7187500D02*
X13880000Y-7187500D01*
X13880000Y-7497500D01*
X13520000Y-7497500D01*
X13520000Y-7187500D01*
X13520000Y-5437500D02*
X13880000Y-5437500D01*
X13880000Y-5747500D01*
X13520000Y-5747500D01*
X13520000Y-5437500D01*
X15370000Y-8718750D02*
X15730000Y-8718750D01*
X15730000Y-9028750D01*
X15370000Y-9028750D01*
X15370000Y-8718750D01*
X15370000Y-6968750D02*
X15730000Y-6968750D01*
X15730000Y-7278750D01*
X15370000Y-7278750D01*
X15370000Y-6968750D01*
X15370000Y-5218750D02*
X15730000Y-5218750D01*
X15730000Y-5528750D01*
X15370000Y-5528750D01*
X15370000Y-5218750D01*
X17220000Y-8937500D02*
X17580000Y-8937500D01*
X17580000Y-9247500D01*
X17220000Y-9247500D01*
X17220000Y-8937500D01*
X17220000Y-7187500D02*
X17580000Y-7187500D01*
X17580000Y-7497500D01*
X17220000Y-7497500D01*
X17220000Y-7187500D01*
X17220000Y-5437500D02*
X17580000Y-5437500D01*
X17580000Y-5747500D01*
X17220000Y-5747500D01*
X17220000Y-5437500D01*
X19070000Y-9156250D02*
X19430000Y-9156250D01*
X19430000Y-9466250D01*
X19070000Y-9466250D01*
X19070000Y-9156250D01*
X19070000Y-7406250D02*
X19430000Y-7406250D01*
X19430000Y-7716250D01*
X19070000Y-7716250D01*
X19070000Y-7406250D01*
X19070000Y-5656250D02*
X19430000Y-5656250D01*
X19430000Y-5966250D01*
X19070000Y-5966250D01*
X19070000Y-5656250D01*
X16295000Y-10768750D02*
X16655000Y-10768750D01*
X16655000Y-11078750D01*
X16295000Y-11078750D01*
X16295000Y-10768750D01*
X18860629Y-11111634D02*
X18780395Y-11411071D01*
X18432661Y-11317896D01*
X18512895Y-11018459D01*
X18860629Y-11111634D01*
X20518586Y-11718840D02*
X20338586Y-12030609D01*
X20070119Y-11875609D01*
X20250119Y-11563840D01*
X20518586Y-11718840D01*
X19430000Y-7406250D02*
X19070000Y-7406250D01*
X19070000Y-7096250D01*
X19430000Y-7096250D01*
X19430000Y-7406250D01*
X15730000Y-6968750D02*
X15370000Y-6968750D01*
X15370000Y-6658750D01*
X15730000Y-6658750D01*
X15730000Y-6968750D01*
X12030000Y-7625000D02*
X11670000Y-7625000D01*
X11670000Y-7315000D01*
X12030000Y-7315000D01*
X12030000Y-7625000D01*
X12030000Y-9375000D02*
X11670000Y-9375000D01*
X11670000Y-9065000D01*
X12030000Y-9065000D01*
X12030000Y-9375000D01*
X15730000Y-10468750D02*
X15370000Y-10468750D01*
X15370000Y-10158750D01*
X15730000Y-10158750D01*
X15730000Y-10468750D01*
X19430000Y-10906250D02*
X19070000Y-10906250D01*
X19070000Y-10596250D01*
X19430000Y-10596250D01*
X19430000Y-10906250D01*
D12*
D13*
X9490000Y-5945000D02*
X9520000Y-5975000D01*
X9520000Y-5945000D02*
X9490000Y-5975000D01*
X9490000Y-7695000D02*
X9520000Y-7725000D01*
X9520000Y-7695000D02*
X9490000Y-7725000D01*
X9490000Y-9445000D02*
X9520000Y-9475000D01*
X9520000Y-9445000D02*
X9490000Y-9475000D01*
X9579000Y-6085000D02*
X9609000Y-6115000D01*
X9609000Y-6085000D02*
X9579000Y-6115000D01*
X9579000Y-7835000D02*
X9609000Y-7865000D01*
X9609000Y-7835000D02*
X9579000Y-7865000D01*
X9579000Y-9585000D02*
X9609000Y-9615000D01*
X9609000Y-9585000D02*
X9579000Y-9615000D01*
X10391000Y-6085000D02*
X10421000Y-6115000D01*
X10421000Y-6085000D02*
X10391000Y-6115000D01*
X10391000Y-7835000D02*
X10421000Y-7865000D01*
X10421000Y-7835000D02*
X10391000Y-7865000D01*
X10391000Y-9585000D02*
X10421000Y-9615000D01*
X10421000Y-9585000D02*
X10391000Y-9615000D01*
X10480000Y-5945000D02*
X10510000Y-5975000D01*
X10510000Y-5945000D02*
X10480000Y-5975000D01*
X10480000Y-7695000D02*
X10510000Y-7725000D01*
X10510000Y-7695000D02*
X10480000Y-7725000D01*
X10480000Y-9445000D02*
X10510000Y-9475000D01*
X10510000Y-9445000D02*
X10480000Y-9475000D01*
X11340000Y-5945000D02*
X11370000Y-5975000D01*
X11370000Y-5945000D02*
X11340000Y-5975000D01*
X11340000Y-7525000D02*
X11370000Y-7555000D01*
X11370000Y-7525000D02*
X11340000Y-7555000D01*
X11340000Y-7695000D02*
X11370000Y-7725000D01*
X11370000Y-7695000D02*
X11340000Y-7725000D01*
X11340000Y-9275000D02*
X11370000Y-9305000D01*
X11370000Y-9275000D02*
X11340000Y-9305000D01*
X11340000Y-9445000D02*
X11370000Y-9475000D01*
X11370000Y-9445000D02*
X11340000Y-9475000D01*
X11429000Y-6085000D02*
X11459000Y-6115000D01*
X11459000Y-6085000D02*
X11429000Y-6115000D01*
X11429000Y-7385000D02*
X11459000Y-7415000D01*
X11459000Y-7385000D02*
X11429000Y-7415000D01*
X11429000Y-7835000D02*
X11459000Y-7865000D01*
X11459000Y-7835000D02*
X11429000Y-7865000D01*
X11429000Y-9135000D02*
X11459000Y-9165000D01*
X11459000Y-9135000D02*
X11429000Y-9165000D01*
X11429000Y-9585000D02*
X11459000Y-9615000D01*
X11459000Y-9585000D02*
X11429000Y-9615000D01*
X12241000Y-6085000D02*
X12271000Y-6115000D01*
X12271000Y-6085000D02*
X12241000Y-6115000D01*
X12241000Y-7385000D02*
X12271000Y-7415000D01*
X12271000Y-7385000D02*
X12241000Y-7415000D01*
X12241000Y-7835000D02*
X12271000Y-7865000D01*
X12271000Y-7835000D02*
X12241000Y-7865000D01*
X12241000Y-9135000D02*
X12271000Y-9165000D01*
X12271000Y-9135000D02*
X12241000Y-9165000D01*
X12241000Y-9585000D02*
X12271000Y-9615000D01*
X12271000Y-9585000D02*
X12241000Y-9615000D01*
X12330000Y-5945000D02*
X12360000Y-5975000D01*
X12360000Y-5945000D02*
X12330000Y-5975000D01*
X12330000Y-7525000D02*
X12360000Y-7555000D01*
X12360000Y-7525000D02*
X12330000Y-7555000D01*
X12330000Y-7695000D02*
X12360000Y-7725000D01*
X12360000Y-7695000D02*
X12330000Y-7725000D01*
X12330000Y-9275000D02*
X12360000Y-9305000D01*
X12360000Y-9275000D02*
X12330000Y-9305000D01*
X12330000Y-9445000D02*
X12360000Y-9475000D01*
X12360000Y-9445000D02*
X12330000Y-9475000D01*
X13190000Y-5507500D02*
X13220000Y-5537500D01*
X13220000Y-5507500D02*
X13190000Y-5537500D01*
X13190000Y-7257500D02*
X13220000Y-7287500D01*
X13220000Y-7257500D02*
X13190000Y-7287500D01*
X13190000Y-9007500D02*
X13220000Y-9037500D01*
X13220000Y-9007500D02*
X13190000Y-9037500D01*
X13279000Y-5647500D02*
X13309000Y-5677500D01*
X13309000Y-5647500D02*
X13279000Y-5677500D01*
X13279000Y-7397500D02*
X13309000Y-7427500D01*
X13309000Y-7397500D02*
X13279000Y-7427500D01*
X13279000Y-9147500D02*
X13309000Y-9177500D01*
X13309000Y-9147500D02*
X13279000Y-9177500D01*
X14091000Y-5647500D02*
X14121000Y-5677500D01*
X14121000Y-5647500D02*
X14091000Y-5677500D01*
X14091000Y-7397500D02*
X14121000Y-7427500D01*
X14121000Y-7397500D02*
X14091000Y-7427500D01*
X14091000Y-9147500D02*
X14121000Y-9177500D01*
X14121000Y-9147500D02*
X14091000Y-9177500D01*
X14180000Y-5507500D02*
X14210000Y-5537500D01*
X14210000Y-5507500D02*
X14180000Y-5537500D01*
X14180000Y-7257500D02*
X14210000Y-7287500D01*
X14210000Y-7257500D02*
X14180000Y-7287500D01*
X14180000Y-9007500D02*
X14210000Y-9037500D01*
X14210000Y-9007500D02*
X14180000Y-9037500D01*
X15040000Y-5288750D02*
X15070000Y-5318750D01*
X15070000Y-5288750D02*
X15040000Y-5318750D01*
X15040000Y-6868750D02*
X15070000Y-6898750D01*
X15070000Y-6868750D02*
X15040000Y-6898750D01*
X15040000Y-7038750D02*
X15070000Y-7068750D01*
X15070000Y-7038750D02*
X15040000Y-7068750D01*
X15040000Y-8788750D02*
X15070000Y-8818750D01*
X15070000Y-8788750D02*
X15040000Y-8818750D01*
X15040000Y-10368750D02*
X15070000Y-10398750D01*
X15070000Y-10368750D02*
X15040000Y-10398750D01*
X15129000Y-5428750D02*
X15159000Y-5458750D01*
X15159000Y-5428750D02*
X15129000Y-5458750D01*
X15129000Y-6728750D02*
X15159000Y-6758750D01*
X15159000Y-6728750D02*
X15129000Y-6758750D01*
X15129000Y-7178750D02*
X15159000Y-7208750D01*
X15159000Y-7178750D02*
X15129000Y-7208750D01*
X15129000Y-8928750D02*
X15159000Y-8958750D01*
X15159000Y-8928750D02*
X15129000Y-8958750D01*
X15129000Y-10228750D02*
X15159000Y-10258750D01*
X15159000Y-10228750D02*
X15129000Y-10258750D01*
X15941000Y-5428750D02*
X15971000Y-5458750D01*
X15971000Y-5428750D02*
X15941000Y-5458750D01*
X15941000Y-6728750D02*
X15971000Y-6758750D01*
X15971000Y-6728750D02*
X15941000Y-6758750D01*
X15941000Y-7178750D02*
X15971000Y-7208750D01*
X15971000Y-7178750D02*
X15941000Y-7208750D01*
X15941000Y-8928750D02*
X15971000Y-8958750D01*
X15971000Y-8928750D02*
X15941000Y-8958750D01*
X15941000Y-10228750D02*
X15971000Y-10258750D01*
X15971000Y-10228750D02*
X15941000Y-10258750D01*
X15965000Y-10838750D02*
X15995000Y-10868750D01*
X15995000Y-10838750D02*
X15965000Y-10868750D01*
X16030000Y-5288750D02*
X16060000Y-5318750D01*
X16060000Y-5288750D02*
X16030000Y-5318750D01*
X16030000Y-6868750D02*
X16060000Y-6898750D01*
X16060000Y-6868750D02*
X16030000Y-6898750D01*
X16030000Y-7038750D02*
X16060000Y-7068750D01*
X16060000Y-7038750D02*
X16030000Y-7068750D01*
X16030000Y-8788750D02*
X16060000Y-8818750D01*
X16060000Y-8788750D02*
X16030000Y-8818750D01*
X16030000Y-10368750D02*
X16060000Y-10398750D01*
X16060000Y-10368750D02*
X16030000Y-10398750D01*
X16054000Y-10978750D02*
X16084000Y-11008750D01*
X16084000Y-10978750D02*
X16054000Y-11008750D01*
X16866000Y-10978750D02*
X16896000Y-11008750D01*
X16896000Y-10978750D02*
X16866000Y-11008750D01*
X16890000Y-5507500D02*
X16920000Y-5537500D01*
X16920000Y-5507500D02*
X16890000Y-5537500D01*
X16890000Y-7257500D02*
X16920000Y-7287500D01*
X16920000Y-7257500D02*
X16890000Y-7287500D01*
X16890000Y-9007500D02*
X16920000Y-9037500D01*
X16920000Y-9007500D02*
X16890000Y-9037500D01*
X16955000Y-10838750D02*
X16985000Y-10868750D01*
X16985000Y-10838750D02*
X16955000Y-10868750D01*
X16979000Y-5647500D02*
X17009000Y-5677500D01*
X17009000Y-5647500D02*
X16979000Y-5677500D01*
X16979000Y-7397500D02*
X17009000Y-7427500D01*
X17009000Y-7397500D02*
X16979000Y-7427500D01*
X16979000Y-9147500D02*
X17009000Y-9177500D01*
X17009000Y-9147500D02*
X16979000Y-9177500D01*
X17791000Y-5647500D02*
X17821000Y-5677500D01*
X17821000Y-5647500D02*
X17791000Y-5677500D01*
X17791000Y-7397500D02*
X17821000Y-7427500D01*
X17821000Y-7397500D02*
X17791000Y-7427500D01*
X17791000Y-9147500D02*
X17821000Y-9177500D01*
X17821000Y-9147500D02*
X17791000Y-9177500D01*
X17880000Y-5507500D02*
X17910000Y-5537500D01*
X17910000Y-5507500D02*
X17880000Y-5537500D01*
X17880000Y-7257500D02*
X17910000Y-7287500D01*
X17910000Y-7257500D02*
X17880000Y-7287500D01*
X17880000Y-9007500D02*
X17910000Y-9037500D01*
X17910000Y-9007500D02*
X17880000Y-9037500D01*
X18171629Y-11004035D02*
X18201629Y-11034035D01*
X18201629Y-11004035D02*
X18171629Y-11034035D01*
X18221362Y-11162299D02*
X18251362Y-11192299D01*
X18251362Y-11162299D02*
X18221362Y-11192299D01*
X18740000Y-5726250D02*
X18770000Y-5756250D01*
X18770000Y-5726250D02*
X18740000Y-5756250D01*
X18740000Y-7306250D02*
X18770000Y-7336250D01*
X18770000Y-7306250D02*
X18740000Y-7336250D01*
X18740000Y-7476250D02*
X18770000Y-7506250D01*
X18770000Y-7476250D02*
X18740000Y-7506250D01*
X18740000Y-9226250D02*
X18770000Y-9256250D01*
X18770000Y-9226250D02*
X18740000Y-9256250D01*
X18740000Y-10806250D02*
X18770000Y-10836250D01*
X18770000Y-10806250D02*
X18740000Y-10836250D01*
X18829000Y-5866250D02*
X18859000Y-5896250D01*
X18859000Y-5866250D02*
X18829000Y-5896250D01*
X18829000Y-7166250D02*
X18859000Y-7196250D01*
X18859000Y-7166250D02*
X18829000Y-7196250D01*
X18829000Y-7616250D02*
X18859000Y-7646250D01*
X18859000Y-7616250D02*
X18829000Y-7646250D01*
X18829000Y-9366250D02*
X18859000Y-9396250D01*
X18859000Y-9366250D02*
X18829000Y-9396250D01*
X18829000Y-10666250D02*
X18859000Y-10696250D01*
X18859000Y-10666250D02*
X18829000Y-10696250D01*
X19005694Y-11372460D02*
X19035694Y-11402460D01*
X19035694Y-11372460D02*
X19005694Y-11402460D01*
X19127896Y-11260265D02*
X19157896Y-11290265D01*
X19157896Y-11260265D02*
X19127896Y-11290265D01*
X19641000Y-5866250D02*
X19671000Y-5896250D01*
X19671000Y-5866250D02*
X19641000Y-5896250D01*
X19641000Y-7166250D02*
X19671000Y-7196250D01*
X19671000Y-7166250D02*
X19641000Y-7196250D01*
X19641000Y-7616250D02*
X19671000Y-7646250D01*
X19671000Y-7616250D02*
X19641000Y-7646250D01*
X19641000Y-9366250D02*
X19671000Y-9396250D01*
X19671000Y-9366250D02*
X19641000Y-9396250D01*
X19641000Y-10666250D02*
X19671000Y-10696250D01*
X19671000Y-10666250D02*
X19641000Y-10696250D01*
X19730000Y-5726250D02*
X19760000Y-5756250D01*
X19760000Y-5726250D02*
X19730000Y-5756250D01*
X19730000Y-7306250D02*
X19760000Y-7336250D01*
X19760000Y-7306250D02*
X19730000Y-7336250D01*
X19730000Y-7476250D02*
X19760000Y-7506250D01*
X19760000Y-7476250D02*
X19730000Y-7506250D01*
X19730000Y-9226250D02*
X19760000Y-9256250D01*
X19760000Y-9226250D02*
X19730000Y-9256250D01*
X19730000Y-10806250D02*
X19760000Y-10836250D01*
X19760000Y-10806250D02*
X19730000Y-10836250D01*
X19971231Y-12175907D02*
X20001231Y-12205907D01*
X20001231Y-12175907D02*
X19971231Y-12205907D01*
X20136974Y-12168831D02*
X20166974Y-12198831D01*
X20166974Y-12168831D02*
X20136974Y-12198831D01*
X20466231Y-11318542D02*
X20496231Y-11348542D01*
X20496231Y-11318542D02*
X20466231Y-11348542D01*
X20542974Y-11465618D02*
X20572974Y-11495618D01*
X20572974Y-11465618D02*
X20542974Y-11495618D01*
X20900400Y-6192000D02*
G75*
G02*
X20860400Y-6192000I-20000J0D01*
G01*
X20860400Y-6192000D02*
G75*
G02*
X20900400Y-6192000I20000J0D01*
G01*
X20900400Y-6446000D02*
G75*
G02*
X20860400Y-6446000I-20000J0D01*
G01*
X20860400Y-6446000D02*
G75*
G02*
X20900400Y-6446000I20000J0D01*
G01*
X20900400Y-6700000D02*
G75*
G02*
X20860400Y-6700000I-20000J0D01*
G01*
X20860400Y-6700000D02*
G75*
G02*
X20900400Y-6700000I20000J0D01*
G01*
X20900400Y-6954000D02*
G75*
G02*
X20860400Y-6954000I-20000J0D01*
G01*
X20860400Y-6954000D02*
G75*
G02*
X20900400Y-6954000I20000J0D01*
G01*
X20900400Y-7208000D02*
G75*
G02*
X20860400Y-7208000I-20000J0D01*
G01*
X20860400Y-7208000D02*
G75*
G02*
X20900400Y-7208000I20000J0D01*
G01*
X20900400Y-7462000D02*
G75*
G02*
X20860400Y-7462000I-20000J0D01*
G01*
X20860400Y-7462000D02*
G75*
G02*
X20900400Y-7462000I20000J0D01*
G01*
X20900400Y-7716000D02*
G75*
G02*
X20860400Y-7716000I-20000J0D01*
G01*
X20860400Y-7716000D02*
G75*
G02*
X20900400Y-7716000I20000J0D01*
G01*
X20900400Y-7970000D02*
G75*
G02*
X20860400Y-7970000I-20000J0D01*
G01*
X20860400Y-7970000D02*
G75*
G02*
X20900400Y-7970000I20000J0D01*
G01*
X20900400Y-8224000D02*
G75*
G02*
X20860400Y-8224000I-20000J0D01*
G01*
X20860400Y-8224000D02*
G75*
G02*
X20900400Y-8224000I20000J0D01*
G01*
X20900400Y-8478000D02*
G75*
G02*
X20860400Y-8478000I-20000J0D01*
G01*
X20860400Y-8478000D02*
G75*
G02*
X20900400Y-8478000I20000J0D01*
G01*
X20900400Y-8732000D02*
G75*
G02*
X20860400Y-8732000I-20000J0D01*
G01*
X20860400Y-8732000D02*
G75*
G02*
X20900400Y-8732000I20000J0D01*
G01*
X20900400Y-8986000D02*
G75*
G02*
X20860400Y-8986000I-20000J0D01*
G01*
X20860400Y-8986000D02*
G75*
G02*
X20900400Y-8986000I20000J0D01*
G01*
X21580400Y-6192000D02*
G75*
G02*
X21540400Y-6192000I-20000J0D01*
G01*
X21540400Y-6192000D02*
G75*
G02*
X21580400Y-6192000I20000J0D01*
G01*
X21580400Y-6446000D02*
G75*
G02*
X21540400Y-6446000I-20000J0D01*
G01*
X21540400Y-6446000D02*
G75*
G02*
X21580400Y-6446000I20000J0D01*
G01*
X21580400Y-6700000D02*
G75*
G02*
X21540400Y-6700000I-20000J0D01*
G01*
X21540400Y-6700000D02*
G75*
G02*
X21580400Y-6700000I20000J0D01*
G01*
X21580400Y-6954000D02*
G75*
G02*
X21540400Y-6954000I-20000J0D01*
G01*
X21540400Y-6954000D02*
G75*
G02*
X21580400Y-6954000I20000J0D01*
G01*
X21580400Y-7208000D02*
G75*
G02*
X21540400Y-7208000I-20000J0D01*
G01*
X21540400Y-7208000D02*
G75*
G02*
X21580400Y-7208000I20000J0D01*
G01*
X21580400Y-7462000D02*
G75*
G02*
X21540400Y-7462000I-20000J0D01*
G01*
X21540400Y-7462000D02*
G75*
G02*
X21580400Y-7462000I20000J0D01*
G01*
X21580400Y-7716000D02*
G75*
G02*
X21540400Y-7716000I-20000J0D01*
G01*
X21540400Y-7716000D02*
G75*
G02*
X21580400Y-7716000I20000J0D01*
G01*
X21580400Y-7970000D02*
G75*
G02*
X21540400Y-7970000I-20000J0D01*
G01*
X21540400Y-7970000D02*
G75*
G02*
X21580400Y-7970000I20000J0D01*
G01*
X21580400Y-8224000D02*
G75*
G02*
X21540400Y-8224000I-20000J0D01*
G01*
X21540400Y-8224000D02*
G75*
G02*
X21580400Y-8224000I20000J0D01*
G01*
X21580400Y-8478000D02*
G75*
G02*
X21540400Y-8478000I-20000J0D01*
G01*
X21540400Y-8478000D02*
G75*
G02*
X21580400Y-8478000I20000J0D01*
G01*
X21580400Y-8732000D02*
G75*
G02*
X21540400Y-8732000I-20000J0D01*
G01*
X21540400Y-8732000D02*
G75*
G02*
X21580400Y-8732000I20000J0D01*
G01*
X21580400Y-8986000D02*
G75*
G02*
X21540400Y-8986000I-20000J0D01*
G01*
X21540400Y-8986000D02*
G75*
G02*
X21580400Y-8986000I20000J0D01*
G01*
X21061000Y-10381000D02*
X21061000Y-10471000D01*
X21016000Y-10426000D02*
X21106000Y-10426000D01*
X21146000Y-10381000D02*
X20976000Y-10381000D01*
X20976000Y-10471000D02*
G75*
G02*
X20976000Y-10381000I0J45000D01*
G01*
X20976000Y-10471000D02*
X21146000Y-10471000D01*
X21146000Y-10471000D02*
G75*
G03*
X21146000Y-10381000I0J45000D01*
G01*
X21061000Y-10841000D02*
X21061000Y-10931000D01*
X21016000Y-10886000D02*
X21106000Y-10886000D01*
X21146000Y-10841000D02*
X20976000Y-10841000D01*
X20976000Y-10931000D02*
G75*
G02*
X20976000Y-10841000I0J45000D01*
G01*
X20976000Y-10931000D02*
X21146000Y-10931000D01*
X21146000Y-10931000D02*
G75*
G03*
X21146000Y-10841000I0J45000D01*
G01*
X21516000Y-10381000D02*
X21516000Y-10471000D01*
X21471000Y-10426000D02*
X21561000Y-10426000D01*
X21546000Y-10381000D02*
X21486000Y-10381000D01*
X21486000Y-10471000D02*
G75*
G02*
X21486000Y-10381000I0J45000D01*
G01*
X21486000Y-10471000D02*
X21546000Y-10471000D01*
X21546000Y-10471000D02*
G75*
G03*
X21546000Y-10381000I0J45000D01*
G01*
X21516000Y-10841000D02*
X21516000Y-10931000D01*
X21471000Y-10886000D02*
X21561000Y-10886000D01*
X21546000Y-10841000D02*
X21486000Y-10841000D01*
X21486000Y-10931000D02*
G75*
G02*
X21486000Y-10841000I0J45000D01*
G01*
X21486000Y-10931000D02*
X21546000Y-10931000D01*
X21546000Y-10931000D02*
G75*
G03*
X21546000Y-10841000I0J45000D01*
G01*
X21816000Y-10381000D02*
X21816000Y-10471000D01*
X21771000Y-10426000D02*
X21861000Y-10426000D01*
X21846000Y-10381000D02*
X21786000Y-10381000D01*
X21786000Y-10471000D02*
G75*
G02*
X21786000Y-10381000I0J45000D01*
G01*
X21786000Y-10471000D02*
X21846000Y-10471000D01*
X21846000Y-10471000D02*
G75*
G03*
X21846000Y-10381000I0J45000D01*
G01*
X21816000Y-10841000D02*
X21816000Y-10931000D01*
X21771000Y-10886000D02*
X21861000Y-10886000D01*
X21846000Y-10841000D02*
X21786000Y-10841000D01*
X21786000Y-10931000D02*
G75*
G02*
X21786000Y-10841000I0J45000D01*
G01*
X21786000Y-10931000D02*
X21846000Y-10931000D01*
X21846000Y-10931000D02*
G75*
G03*
X21846000Y-10841000I0J45000D01*
G01*
X20493756Y-6227356D02*
X20493756Y-6156644D01*
X20423044Y-6156644D01*
X20423044Y-6227356D01*
X20493756Y-6227356D01*
X20493756Y-6481356D02*
X20493756Y-6410644D01*
X20423044Y-6410644D01*
X20423044Y-6481356D01*
X20493756Y-6481356D01*
X20493756Y-6735356D02*
X20493756Y-6664644D01*
X20423044Y-6664644D01*
X20423044Y-6735356D01*
X20493756Y-6735356D01*
X20493756Y-6989356D02*
X20493756Y-6918644D01*
X20423044Y-6918644D01*
X20423044Y-6989356D01*
X20493756Y-6989356D01*
X20493756Y-7243356D02*
X20493756Y-7172644D01*
X20423044Y-7172644D01*
X20423044Y-7243356D01*
X20493756Y-7243356D01*
X20493756Y-7497356D02*
X20493756Y-7426644D01*
X20423044Y-7426644D01*
X20423044Y-7497356D01*
X20493756Y-7497356D01*
X20493756Y-7751356D02*
X20493756Y-7680644D01*
X20423044Y-7680644D01*
X20423044Y-7751356D01*
X20493756Y-7751356D01*
X20493756Y-8005356D02*
X20493756Y-7934644D01*
X20423044Y-7934644D01*
X20423044Y-8005356D01*
X20493756Y-8005356D01*
X20493756Y-8259356D02*
X20493756Y-8188644D01*
X20423044Y-8188644D01*
X20423044Y-8259356D01*
X20493756Y-8259356D01*
X20493756Y-8513356D02*
X20493756Y-8442644D01*
X20423044Y-8442644D01*
X20423044Y-8513356D01*
X20493756Y-8513356D01*
X20493756Y-8767356D02*
X20493756Y-8696644D01*
X20423044Y-8696644D01*
X20423044Y-8767356D01*
X20493756Y-8767356D01*
X20493756Y-9021356D02*
X20493756Y-8950644D01*
X20423044Y-8950644D01*
X20423044Y-9021356D01*
X20493756Y-9021356D01*
X20844056Y-9736156D02*
X20844056Y-9665444D01*
X20773344Y-9665444D01*
X20773344Y-9736156D01*
X20844056Y-9736156D01*
X21098056Y-9736156D02*
X21098056Y-9665444D01*
X21027344Y-9665444D01*
X21027344Y-9736156D01*
X21098056Y-9736156D01*
X21352056Y-9736156D02*
X21352056Y-9665444D01*
X21281344Y-9665444D01*
X21281344Y-9736156D01*
X21352056Y-9736156D01*
X21606056Y-9736156D02*
X21606056Y-9665444D01*
X21535344Y-9665444D01*
X21535344Y-9736156D01*
X21606056Y-9736156D01*
X21995356Y-9360456D02*
X21995356Y-9289744D01*
X21924644Y-9289744D01*
X21924644Y-9360456D01*
X21995356Y-9360456D01*
X21995356Y-10010456D02*
X21995356Y-9939744D01*
X21924644Y-9939744D01*
X21924644Y-10010456D01*
X21995356Y-10010456D01*
X22017756Y-6227356D02*
X22017756Y-6156644D01*
X21947044Y-6156644D01*
X21947044Y-6227356D01*
X22017756Y-6227356D01*
X22017756Y-6481356D02*
X22017756Y-6410644D01*
X21947044Y-6410644D01*
X21947044Y-6481356D01*
X22017756Y-6481356D01*
X22017756Y-6735356D02*
X22017756Y-6664644D01*
X21947044Y-6664644D01*
X21947044Y-6735356D01*
X22017756Y-6735356D01*
X22017756Y-6989356D02*
X22017756Y-6918644D01*
X21947044Y-6918644D01*
X21947044Y-6989356D01*
X22017756Y-6989356D01*
X22017756Y-7243356D02*
X22017756Y-7172644D01*
X21947044Y-7172644D01*
X21947044Y-7243356D01*
X22017756Y-7243356D01*
X22017756Y-7497356D02*
X22017756Y-7426644D01*
X21947044Y-7426644D01*
X21947044Y-7497356D01*
X22017756Y-7497356D01*
X22017756Y-7751356D02*
X22017756Y-7680644D01*
X21947044Y-7680644D01*
X21947044Y-7751356D01*
X22017756Y-7751356D01*
X22017756Y-8005356D02*
X22017756Y-7934644D01*
X21947044Y-7934644D01*
X21947044Y-8005356D01*
X22017756Y-8005356D01*
X22017756Y-8259356D02*
X22017756Y-8188644D01*
X21947044Y-8188644D01*
X21947044Y-8259356D01*
X22017756Y-8259356D01*
X22017756Y-8513356D02*
X22017756Y-8442644D01*
X21947044Y-8442644D01*
X21947044Y-8513356D01*
X22017756Y-8513356D01*
X22017756Y-8767356D02*
X22017756Y-8696644D01*
X21947044Y-8696644D01*
X21947044Y-8767356D01*
X22017756Y-8767356D01*
X22017756Y-9021356D02*
X22017756Y-8950644D01*
X21947044Y-8950644D01*
X21947044Y-9021356D01*
X22017756Y-9021356D01*
D14*
X9500000Y-6065000D02*
X9580000Y-5985000D01*
X9500000Y-5905000D01*
X9420000Y-5985000D01*
X9500000Y-6065000D01*
X9500000Y-7815000D02*
X9580000Y-7735000D01*
X9500000Y-7655000D01*
X9420000Y-7735000D01*
X9500000Y-7815000D01*
X9500000Y-9565000D02*
X9580000Y-9485000D01*
X9500000Y-9405000D01*
X9420000Y-9485000D01*
X9500000Y-9565000D01*
X10500000Y-6065000D02*
X10580000Y-5985000D01*
X10500000Y-5905000D01*
X10420000Y-5985000D01*
X10500000Y-6065000D01*
X10500000Y-7815000D02*
X10580000Y-7735000D01*
X10500000Y-7655000D01*
X10420000Y-7735000D01*
X10500000Y-7815000D01*
X10500000Y-9565000D02*
X10580000Y-9485000D01*
X10500000Y-9405000D01*
X10420000Y-9485000D01*
X10500000Y-9565000D01*
X11350000Y-6065000D02*
X11430000Y-5985000D01*
X11350000Y-5905000D01*
X11270000Y-5985000D01*
X11350000Y-6065000D01*
X11350000Y-7815000D02*
X11430000Y-7735000D01*
X11350000Y-7655000D01*
X11270000Y-7735000D01*
X11350000Y-7815000D01*
X11350000Y-9565000D02*
X11430000Y-9485000D01*
X11350000Y-9405000D01*
X11270000Y-9485000D01*
X11350000Y-9565000D01*
X12350000Y-6065000D02*
X12430000Y-5985000D01*
X12350000Y-5905000D01*
X12270000Y-5985000D01*
X12350000Y-6065000D01*
X12350000Y-7815000D02*
X12430000Y-7735000D01*
X12350000Y-7655000D01*
X12270000Y-7735000D01*
X12350000Y-7815000D01*
X12350000Y-9565000D02*
X12430000Y-9485000D01*
X12350000Y-9405000D01*
X12270000Y-9485000D01*
X12350000Y-9565000D01*
X13200000Y-5627500D02*
X13280000Y-5547500D01*
X13200000Y-5467500D01*
X13120000Y-5547500D01*
X13200000Y-5627500D01*
X13200000Y-7377500D02*
X13280000Y-7297500D01*
X13200000Y-7217500D01*
X13120000Y-7297500D01*
X13200000Y-7377500D01*
X13200000Y-9127500D02*
X13280000Y-9047500D01*
X13200000Y-8967500D01*
X13120000Y-9047500D01*
X13200000Y-9127500D01*
X14200000Y-5627500D02*
X14280000Y-5547500D01*
X14200000Y-5467500D01*
X14120000Y-5547500D01*
X14200000Y-5627500D01*
X14200000Y-7377500D02*
X14280000Y-7297500D01*
X14200000Y-7217500D01*
X14120000Y-7297500D01*
X14200000Y-7377500D01*
X14200000Y-9127500D02*
X14280000Y-9047500D01*
X14200000Y-8967500D01*
X14120000Y-9047500D01*
X14200000Y-9127500D01*
X15050000Y-5408750D02*
X15130000Y-5328750D01*
X15050000Y-5248750D01*
X14970000Y-5328750D01*
X15050000Y-5408750D01*
X15050000Y-7158750D02*
X15130000Y-7078750D01*
X15050000Y-6998750D01*
X14970000Y-7078750D01*
X15050000Y-7158750D01*
X15050000Y-8908750D02*
X15130000Y-8828750D01*
X15050000Y-8748750D01*
X14970000Y-8828750D01*
X15050000Y-8908750D01*
X15975000Y-10958750D02*
X16055000Y-10878750D01*
X15975000Y-10798750D01*
X15895000Y-10878750D01*
X15975000Y-10958750D01*
X16050000Y-5408750D02*
X16130000Y-5328750D01*
X16050000Y-5248750D01*
X15970000Y-5328750D01*
X16050000Y-5408750D01*
X16050000Y-7158750D02*
X16130000Y-7078750D01*
X16050000Y-6998750D01*
X15970000Y-7078750D01*
X16050000Y-7158750D01*
X16050000Y-8908750D02*
X16130000Y-8828750D01*
X16050000Y-8748750D01*
X15970000Y-8828750D01*
X16050000Y-8908750D01*
X16900000Y-5627500D02*
X16980000Y-5547500D01*
X16900000Y-5467500D01*
X16820000Y-5547500D01*
X16900000Y-5627500D01*
X16900000Y-7377500D02*
X16980000Y-7297500D01*
X16900000Y-7217500D01*
X16820000Y-7297500D01*
X16900000Y-7377500D01*
X16900000Y-9127500D02*
X16980000Y-9047500D01*
X16900000Y-8967500D01*
X16820000Y-9047500D01*
X16900000Y-9127500D01*
X16975000Y-10958750D02*
X17055000Y-10878750D01*
X16975000Y-10798750D01*
X16895000Y-10878750D01*
X16975000Y-10958750D01*
X17900000Y-5627500D02*
X17980000Y-5547500D01*
X17900000Y-5467500D01*
X17820000Y-5547500D01*
X17900000Y-5627500D01*
X17900000Y-7377500D02*
X17980000Y-7297500D01*
X17900000Y-7217500D01*
X17820000Y-7297500D01*
X17900000Y-7377500D01*
X17900000Y-9127500D02*
X17980000Y-9047500D01*
X17900000Y-8967500D01*
X17820000Y-9047500D01*
X17900000Y-9127500D01*
X18175329Y-11121889D02*
X18255329Y-11041889D01*
X18175329Y-10961889D01*
X18095329Y-11041889D01*
X18175329Y-11121889D01*
X18750000Y-5846250D02*
X18830000Y-5766250D01*
X18750000Y-5686250D01*
X18670000Y-5766250D01*
X18750000Y-5846250D01*
X18750000Y-7596250D02*
X18830000Y-7516250D01*
X18750000Y-7436250D01*
X18670000Y-7516250D01*
X18750000Y-7596250D01*
X18750000Y-9346250D02*
X18830000Y-9266250D01*
X18750000Y-9186250D01*
X18670000Y-9266250D01*
X18750000Y-9346250D01*
X19141255Y-11380708D02*
X19221255Y-11300708D01*
X19141255Y-11220708D01*
X19061255Y-11300708D01*
X19141255Y-11380708D01*
X19750000Y-5846250D02*
X19830000Y-5766250D01*
X19750000Y-5686250D01*
X19670000Y-5766250D01*
X19750000Y-5846250D01*
X19750000Y-7596250D02*
X19830000Y-7516250D01*
X19750000Y-7436250D01*
X19670000Y-7516250D01*
X19750000Y-7596250D01*
X19750000Y-9346250D02*
X19830000Y-9266250D01*
X19750000Y-9186250D01*
X19670000Y-9266250D01*
X19750000Y-9346250D01*
X20005381Y-12287737D02*
X20085381Y-12207737D01*
X20005381Y-12127737D01*
X19925381Y-12207737D01*
X20005381Y-12287737D01*
X20505381Y-11421712D02*
X20585381Y-11341712D01*
X20505381Y-11261712D01*
X20425381Y-11341712D01*
X20505381Y-11421712D01*
D12*
X9384779Y-13915969D02*
X9384779Y-13715969D01*
X9384779Y-13715969D02*
X9432398Y-13715969D01*
X9432398Y-13715969D02*
X9460969Y-13725492D01*
X9460969Y-13725492D02*
X9480017Y-13744540D01*
X9480017Y-13744540D02*
X9489541Y-13763588D01*
X9489541Y-13763588D02*
X9499064Y-13801683D01*
X9499064Y-13801683D02*
X9499064Y-13830254D01*
X9499064Y-13830254D02*
X9489541Y-13868350D01*
X9489541Y-13868350D02*
X9480017Y-13887397D01*
X9480017Y-13887397D02*
X9460969Y-13906445D01*
X9460969Y-13906445D02*
X9432398Y-13915969D01*
X9432398Y-13915969D02*
X9384779Y-13915969D01*
X9584779Y-13915969D02*
X9584779Y-13782635D01*
X9584779Y-13820731D02*
X9594303Y-13801683D01*
X9594303Y-13801683D02*
X9603826Y-13792159D01*
X9603826Y-13792159D02*
X9622874Y-13782635D01*
X9622874Y-13782635D02*
X9641922Y-13782635D01*
X9708588Y-13915969D02*
X9708588Y-13782635D01*
X9708588Y-13715969D02*
X9699064Y-13725492D01*
X9699064Y-13725492D02*
X9708588Y-13735016D01*
X9708588Y-13735016D02*
X9718112Y-13725492D01*
X9718112Y-13725492D02*
X9708588Y-13715969D01*
X9708588Y-13715969D02*
X9708588Y-13735016D01*
X9832398Y-13915969D02*
X9813350Y-13906445D01*
X9813350Y-13906445D02*
X9803826Y-13887397D01*
X9803826Y-13887397D02*
X9803826Y-13715969D01*
X9937160Y-13915969D02*
X9918112Y-13906445D01*
X9918112Y-13906445D02*
X9908588Y-13887397D01*
X9908588Y-13887397D02*
X9908588Y-13715969D01*
X10165731Y-13915969D02*
X10165731Y-13715969D01*
X10165731Y-13715969D02*
X10232398Y-13858826D01*
X10232398Y-13858826D02*
X10299064Y-13715969D01*
X10299064Y-13715969D02*
X10299064Y-13915969D01*
X10480017Y-13915969D02*
X10480017Y-13811207D01*
X10480017Y-13811207D02*
X10470493Y-13792159D01*
X10470493Y-13792159D02*
X10451445Y-13782635D01*
X10451445Y-13782635D02*
X10413350Y-13782635D01*
X10413350Y-13782635D02*
X10394303Y-13792159D01*
X10480017Y-13906445D02*
X10460969Y-13915969D01*
X10460969Y-13915969D02*
X10413350Y-13915969D01*
X10413350Y-13915969D02*
X10394303Y-13906445D01*
X10394303Y-13906445D02*
X10384779Y-13887397D01*
X10384779Y-13887397D02*
X10384779Y-13868350D01*
X10384779Y-13868350D02*
X10394303Y-13849302D01*
X10394303Y-13849302D02*
X10413350Y-13839778D01*
X10413350Y-13839778D02*
X10460969Y-13839778D01*
X10460969Y-13839778D02*
X10480017Y-13830254D01*
X10575255Y-13782635D02*
X10575255Y-13982635D01*
X10575255Y-13792159D02*
X10594303Y-13782635D01*
X10594303Y-13782635D02*
X10632398Y-13782635D01*
X10632398Y-13782635D02*
X10651445Y-13792159D01*
X10651445Y-13792159D02*
X10660969Y-13801683D01*
X10660969Y-13801683D02*
X10670493Y-13820731D01*
X10670493Y-13820731D02*
X10670493Y-13877873D01*
X10670493Y-13877873D02*
X10660969Y-13896921D01*
X10660969Y-13896921D02*
X10651445Y-13906445D01*
X10651445Y-13906445D02*
X10632398Y-13915969D01*
X10632398Y-13915969D02*
X10594303Y-13915969D01*
X10594303Y-13915969D02*
X10575255Y-13906445D01*
X10756207Y-13896921D02*
X10765731Y-13906445D01*
X10765731Y-13906445D02*
X10756207Y-13915969D01*
X10756207Y-13915969D02*
X10746684Y-13906445D01*
X10746684Y-13906445D02*
X10756207Y-13896921D01*
X10756207Y-13896921D02*
X10756207Y-13915969D01*
X10756207Y-13792159D02*
X10765731Y-13801683D01*
X10765731Y-13801683D02*
X10756207Y-13811207D01*
X10756207Y-13811207D02*
X10746684Y-13801683D01*
X10746684Y-13801683D02*
X10756207Y-13792159D01*
X10756207Y-13792159D02*
X10756207Y-13811207D01*
D13*
X9094002Y-14229485D02*
X9124002Y-14259485D01*
X9124002Y-14229485D02*
X9094002Y-14259485D01*
D12*
X9422874Y-14135969D02*
X9441922Y-14135969D01*
X9441922Y-14135969D02*
X9460969Y-14145492D01*
X9460969Y-14145492D02*
X9470493Y-14155016D01*
X9470493Y-14155016D02*
X9480017Y-14174064D01*
X9480017Y-14174064D02*
X9489541Y-14212159D01*
X9489541Y-14212159D02*
X9489541Y-14259778D01*
X9489541Y-14259778D02*
X9480017Y-14297873D01*
X9480017Y-14297873D02*
X9470493Y-14316921D01*
X9470493Y-14316921D02*
X9460969Y-14326445D01*
X9460969Y-14326445D02*
X9441922Y-14335969D01*
X9441922Y-14335969D02*
X9422874Y-14335969D01*
X9422874Y-14335969D02*
X9403826Y-14326445D01*
X9403826Y-14326445D02*
X9394303Y-14316921D01*
X9394303Y-14316921D02*
X9384779Y-14297873D01*
X9384779Y-14297873D02*
X9375255Y-14259778D01*
X9375255Y-14259778D02*
X9375255Y-14212159D01*
X9375255Y-14212159D02*
X9384779Y-14174064D01*
X9384779Y-14174064D02*
X9394303Y-14155016D01*
X9394303Y-14155016D02*
X9403826Y-14145492D01*
X9403826Y-14145492D02*
X9422874Y-14135969D01*
X9575255Y-14316921D02*
X9584779Y-14326445D01*
X9584779Y-14326445D02*
X9575255Y-14335969D01*
X9575255Y-14335969D02*
X9565731Y-14326445D01*
X9565731Y-14326445D02*
X9575255Y-14316921D01*
X9575255Y-14316921D02*
X9575255Y-14335969D01*
X9651445Y-14135969D02*
X9775255Y-14135969D01*
X9775255Y-14135969D02*
X9708588Y-14212159D01*
X9708588Y-14212159D02*
X9737160Y-14212159D01*
X9737160Y-14212159D02*
X9756207Y-14221683D01*
X9756207Y-14221683D02*
X9765731Y-14231207D01*
X9765731Y-14231207D02*
X9775255Y-14250254D01*
X9775255Y-14250254D02*
X9775255Y-14297873D01*
X9775255Y-14297873D02*
X9765731Y-14316921D01*
X9765731Y-14316921D02*
X9756207Y-14326445D01*
X9756207Y-14326445D02*
X9737160Y-14335969D01*
X9737160Y-14335969D02*
X9680017Y-14335969D01*
X9680017Y-14335969D02*
X9660969Y-14326445D01*
X9660969Y-14326445D02*
X9651445Y-14316921D01*
X9899064Y-14135969D02*
X9918112Y-14135969D01*
X9918112Y-14135969D02*
X9937160Y-14145492D01*
X9937160Y-14145492D02*
X9946684Y-14155016D01*
X9946684Y-14155016D02*
X9956207Y-14174064D01*
X9956207Y-14174064D02*
X9965731Y-14212159D01*
X9965731Y-14212159D02*
X9965731Y-14259778D01*
X9965731Y-14259778D02*
X9956207Y-14297873D01*
X9956207Y-14297873D02*
X9946684Y-14316921D01*
X9946684Y-14316921D02*
X9937160Y-14326445D01*
X9937160Y-14326445D02*
X9918112Y-14335969D01*
X9918112Y-14335969D02*
X9899064Y-14335969D01*
X9899064Y-14335969D02*
X9880017Y-14326445D01*
X9880017Y-14326445D02*
X9870493Y-14316921D01*
X9870493Y-14316921D02*
X9860969Y-14297873D01*
X9860969Y-14297873D02*
X9851445Y-14259778D01*
X9851445Y-14259778D02*
X9851445Y-14212159D01*
X9851445Y-14212159D02*
X9860969Y-14174064D01*
X9860969Y-14174064D02*
X9870493Y-14155016D01*
X9870493Y-14155016D02*
X9880017Y-14145492D01*
X9880017Y-14145492D02*
X9899064Y-14135969D01*
X10089541Y-14135969D02*
X10108588Y-14135969D01*
X10108588Y-14135969D02*
X10127636Y-14145492D01*
X10127636Y-14145492D02*
X10137160Y-14155016D01*
X10137160Y-14155016D02*
X10146684Y-14174064D01*
X10146684Y-14174064D02*
X10156207Y-14212159D01*
X10156207Y-14212159D02*
X10156207Y-14259778D01*
X10156207Y-14259778D02*
X10146684Y-14297873D01*
X10146684Y-14297873D02*
X10137160Y-14316921D01*
X10137160Y-14316921D02*
X10127636Y-14326445D01*
X10127636Y-14326445D02*
X10108588Y-14335969D01*
X10108588Y-14335969D02*
X10089541Y-14335969D01*
X10089541Y-14335969D02*
X10070493Y-14326445D01*
X10070493Y-14326445D02*
X10060969Y-14316921D01*
X10060969Y-14316921D02*
X10051445Y-14297873D01*
X10051445Y-14297873D02*
X10041922Y-14259778D01*
X10041922Y-14259778D02*
X10041922Y-14212159D01*
X10041922Y-14212159D02*
X10051445Y-14174064D01*
X10051445Y-14174064D02*
X10060969Y-14155016D01*
X10060969Y-14155016D02*
X10070493Y-14145492D01*
X10070493Y-14145492D02*
X10089541Y-14135969D01*
X10241922Y-14335969D02*
X10241922Y-14202635D01*
X10241922Y-14221683D02*
X10251445Y-14212159D01*
X10251445Y-14212159D02*
X10270493Y-14202635D01*
X10270493Y-14202635D02*
X10299065Y-14202635D01*
X10299065Y-14202635D02*
X10318112Y-14212159D01*
X10318112Y-14212159D02*
X10327636Y-14231207D01*
X10327636Y-14231207D02*
X10327636Y-14335969D01*
X10327636Y-14231207D02*
X10337160Y-14212159D01*
X10337160Y-14212159D02*
X10356207Y-14202635D01*
X10356207Y-14202635D02*
X10384779Y-14202635D01*
X10384779Y-14202635D02*
X10403826Y-14212159D01*
X10403826Y-14212159D02*
X10413350Y-14231207D01*
X10413350Y-14231207D02*
X10413350Y-14335969D01*
X10508588Y-14335969D02*
X10508588Y-14202635D01*
X10508588Y-14221683D02*
X10518112Y-14212159D01*
X10518112Y-14212159D02*
X10537160Y-14202635D01*
X10537160Y-14202635D02*
X10565731Y-14202635D01*
X10565731Y-14202635D02*
X10584779Y-14212159D01*
X10584779Y-14212159D02*
X10594303Y-14231207D01*
X10594303Y-14231207D02*
X10594303Y-14335969D01*
X10594303Y-14231207D02*
X10603826Y-14212159D01*
X10603826Y-14212159D02*
X10622874Y-14202635D01*
X10622874Y-14202635D02*
X10651445Y-14202635D01*
X10651445Y-14202635D02*
X10670493Y-14212159D01*
X10670493Y-14212159D02*
X10680017Y-14231207D01*
X10680017Y-14231207D02*
X10680017Y-14335969D01*
X11070493Y-14126445D02*
X10899065Y-14383588D01*
X11327636Y-14135969D02*
X11346684Y-14135969D01*
X11346684Y-14135969D02*
X11365731Y-14145492D01*
X11365731Y-14145492D02*
X11375255Y-14155016D01*
X11375255Y-14155016D02*
X11384779Y-14174064D01*
X11384779Y-14174064D02*
X11394303Y-14212159D01*
X11394303Y-14212159D02*
X11394303Y-14259778D01*
X11394303Y-14259778D02*
X11384779Y-14297873D01*
X11384779Y-14297873D02*
X11375255Y-14316921D01*
X11375255Y-14316921D02*
X11365731Y-14326445D01*
X11365731Y-14326445D02*
X11346684Y-14335969D01*
X11346684Y-14335969D02*
X11327636Y-14335969D01*
X11327636Y-14335969D02*
X11308588Y-14326445D01*
X11308588Y-14326445D02*
X11299065Y-14316921D01*
X11299065Y-14316921D02*
X11289541Y-14297873D01*
X11289541Y-14297873D02*
X11280017Y-14259778D01*
X11280017Y-14259778D02*
X11280017Y-14212159D01*
X11280017Y-14212159D02*
X11289541Y-14174064D01*
X11289541Y-14174064D02*
X11299065Y-14155016D01*
X11299065Y-14155016D02*
X11308588Y-14145492D01*
X11308588Y-14145492D02*
X11327636Y-14135969D01*
X11480017Y-14316921D02*
X11489541Y-14326445D01*
X11489541Y-14326445D02*
X11480017Y-14335969D01*
X11480017Y-14335969D02*
X11470493Y-14326445D01*
X11470493Y-14326445D02*
X11480017Y-14316921D01*
X11480017Y-14316921D02*
X11480017Y-14335969D01*
X11613350Y-14135969D02*
X11632398Y-14135969D01*
X11632398Y-14135969D02*
X11651446Y-14145492D01*
X11651446Y-14145492D02*
X11660969Y-14155016D01*
X11660969Y-14155016D02*
X11670493Y-14174064D01*
X11670493Y-14174064D02*
X11680017Y-14212159D01*
X11680017Y-14212159D02*
X11680017Y-14259778D01*
X11680017Y-14259778D02*
X11670493Y-14297873D01*
X11670493Y-14297873D02*
X11660969Y-14316921D01*
X11660969Y-14316921D02*
X11651446Y-14326445D01*
X11651446Y-14326445D02*
X11632398Y-14335969D01*
X11632398Y-14335969D02*
X11613350Y-14335969D01*
X11613350Y-14335969D02*
X11594303Y-14326445D01*
X11594303Y-14326445D02*
X11584779Y-14316921D01*
X11584779Y-14316921D02*
X11575255Y-14297873D01*
X11575255Y-14297873D02*
X11565731Y-14259778D01*
X11565731Y-14259778D02*
X11565731Y-14212159D01*
X11565731Y-14212159D02*
X11575255Y-14174064D01*
X11575255Y-14174064D02*
X11584779Y-14155016D01*
X11584779Y-14155016D02*
X11594303Y-14145492D01*
X11594303Y-14145492D02*
X11613350Y-14135969D01*
X11870493Y-14335969D02*
X11756207Y-14335969D01*
X11813350Y-14335969D02*
X11813350Y-14135969D01*
X11813350Y-14135969D02*
X11794303Y-14164540D01*
X11794303Y-14164540D02*
X11775255Y-14183588D01*
X11775255Y-14183588D02*
X11756207Y-14193111D01*
X12060969Y-14335969D02*
X11946684Y-14335969D01*
X12003826Y-14335969D02*
X12003826Y-14135969D01*
X12003826Y-14135969D02*
X11984779Y-14164540D01*
X11984779Y-14164540D02*
X11965731Y-14183588D01*
X11965731Y-14183588D02*
X11946684Y-14193111D01*
X12175255Y-14221683D02*
X12156207Y-14212159D01*
X12156207Y-14212159D02*
X12146684Y-14202635D01*
X12146684Y-14202635D02*
X12137160Y-14183588D01*
X12137160Y-14183588D02*
X12137160Y-14174064D01*
X12137160Y-14174064D02*
X12146684Y-14155016D01*
X12146684Y-14155016D02*
X12156207Y-14145492D01*
X12156207Y-14145492D02*
X12175255Y-14135969D01*
X12175255Y-14135969D02*
X12213350Y-14135969D01*
X12213350Y-14135969D02*
X12232398Y-14145492D01*
X12232398Y-14145492D02*
X12241922Y-14155016D01*
X12241922Y-14155016D02*
X12251446Y-14174064D01*
X12251446Y-14174064D02*
X12251446Y-14183588D01*
X12251446Y-14183588D02*
X12241922Y-14202635D01*
X12241922Y-14202635D02*
X12232398Y-14212159D01*
X12232398Y-14212159D02*
X12213350Y-14221683D01*
X12213350Y-14221683D02*
X12175255Y-14221683D01*
X12175255Y-14221683D02*
X12156207Y-14231207D01*
X12156207Y-14231207D02*
X12146684Y-14240731D01*
X12146684Y-14240731D02*
X12137160Y-14259778D01*
X12137160Y-14259778D02*
X12137160Y-14297873D01*
X12137160Y-14297873D02*
X12146684Y-14316921D01*
X12146684Y-14316921D02*
X12156207Y-14326445D01*
X12156207Y-14326445D02*
X12175255Y-14335969D01*
X12175255Y-14335969D02*
X12213350Y-14335969D01*
X12213350Y-14335969D02*
X12232398Y-14326445D01*
X12232398Y-14326445D02*
X12241922Y-14316921D01*
X12241922Y-14316921D02*
X12251446Y-14297873D01*
X12251446Y-14297873D02*
X12251446Y-14259778D01*
X12251446Y-14259778D02*
X12241922Y-14240731D01*
X12241922Y-14240731D02*
X12232398Y-14231207D01*
X12232398Y-14231207D02*
X12213350Y-14221683D01*
X12327636Y-14135969D02*
X12327636Y-14174064D01*
X12403827Y-14135969D02*
X12403827Y-14174064D01*
X12699065Y-14412159D02*
X12689541Y-14402635D01*
X12689541Y-14402635D02*
X12670493Y-14374064D01*
X12670493Y-14374064D02*
X12660969Y-14355016D01*
X12660969Y-14355016D02*
X12651446Y-14326445D01*
X12651446Y-14326445D02*
X12641922Y-14278826D01*
X12641922Y-14278826D02*
X12641922Y-14240731D01*
X12641922Y-14240731D02*
X12651446Y-14193111D01*
X12651446Y-14193111D02*
X12660969Y-14164540D01*
X12660969Y-14164540D02*
X12670493Y-14145492D01*
X12670493Y-14145492D02*
X12689541Y-14116921D01*
X12689541Y-14116921D02*
X12699065Y-14107397D01*
X12880017Y-14335969D02*
X12765731Y-14335969D01*
X12822874Y-14335969D02*
X12822874Y-14135969D01*
X12822874Y-14135969D02*
X12803827Y-14164540D01*
X12803827Y-14164540D02*
X12784779Y-14183588D01*
X12784779Y-14183588D02*
X12765731Y-14193111D01*
X13003827Y-14135969D02*
X13022874Y-14135969D01*
X13022874Y-14135969D02*
X13041922Y-14145492D01*
X13041922Y-14145492D02*
X13051446Y-14155016D01*
X13051446Y-14155016D02*
X13060969Y-14174064D01*
X13060969Y-14174064D02*
X13070493Y-14212159D01*
X13070493Y-14212159D02*
X13070493Y-14259778D01*
X13070493Y-14259778D02*
X13060969Y-14297873D01*
X13060969Y-14297873D02*
X13051446Y-14316921D01*
X13051446Y-14316921D02*
X13041922Y-14326445D01*
X13041922Y-14326445D02*
X13022874Y-14335969D01*
X13022874Y-14335969D02*
X13003827Y-14335969D01*
X13003827Y-14335969D02*
X12984779Y-14326445D01*
X12984779Y-14326445D02*
X12975255Y-14316921D01*
X12975255Y-14316921D02*
X12965731Y-14297873D01*
X12965731Y-14297873D02*
X12956208Y-14259778D01*
X12956208Y-14259778D02*
X12956208Y-14212159D01*
X12956208Y-14212159D02*
X12965731Y-14174064D01*
X12965731Y-14174064D02*
X12975255Y-14155016D01*
X12975255Y-14155016D02*
X12984779Y-14145492D01*
X12984779Y-14145492D02*
X13003827Y-14135969D01*
X13184779Y-14221683D02*
X13165731Y-14212159D01*
X13165731Y-14212159D02*
X13156208Y-14202635D01*
X13156208Y-14202635D02*
X13146684Y-14183588D01*
X13146684Y-14183588D02*
X13146684Y-14174064D01*
X13146684Y-14174064D02*
X13156208Y-14155016D01*
X13156208Y-14155016D02*
X13165731Y-14145492D01*
X13165731Y-14145492D02*
X13184779Y-14135969D01*
X13184779Y-14135969D02*
X13222874Y-14135969D01*
X13222874Y-14135969D02*
X13241922Y-14145492D01*
X13241922Y-14145492D02*
X13251446Y-14155016D01*
X13251446Y-14155016D02*
X13260969Y-14174064D01*
X13260969Y-14174064D02*
X13260969Y-14183588D01*
X13260969Y-14183588D02*
X13251446Y-14202635D01*
X13251446Y-14202635D02*
X13241922Y-14212159D01*
X13241922Y-14212159D02*
X13222874Y-14221683D01*
X13222874Y-14221683D02*
X13184779Y-14221683D01*
X13184779Y-14221683D02*
X13165731Y-14231207D01*
X13165731Y-14231207D02*
X13156208Y-14240731D01*
X13156208Y-14240731D02*
X13146684Y-14259778D01*
X13146684Y-14259778D02*
X13146684Y-14297873D01*
X13146684Y-14297873D02*
X13156208Y-14316921D01*
X13156208Y-14316921D02*
X13165731Y-14326445D01*
X13165731Y-14326445D02*
X13184779Y-14335969D01*
X13184779Y-14335969D02*
X13222874Y-14335969D01*
X13222874Y-14335969D02*
X13241922Y-14326445D01*
X13241922Y-14326445D02*
X13251446Y-14316921D01*
X13251446Y-14316921D02*
X13260969Y-14297873D01*
X13260969Y-14297873D02*
X13260969Y-14259778D01*
X13260969Y-14259778D02*
X13251446Y-14240731D01*
X13251446Y-14240731D02*
X13241922Y-14231207D01*
X13241922Y-14231207D02*
X13222874Y-14221683D01*
X13499065Y-14335969D02*
X13499065Y-14135969D01*
X13584779Y-14335969D02*
X13584779Y-14231207D01*
X13584779Y-14231207D02*
X13575255Y-14212159D01*
X13575255Y-14212159D02*
X13556208Y-14202635D01*
X13556208Y-14202635D02*
X13527636Y-14202635D01*
X13527636Y-14202635D02*
X13508589Y-14212159D01*
X13508589Y-14212159D02*
X13499065Y-14221683D01*
X13708589Y-14335969D02*
X13689541Y-14326445D01*
X13689541Y-14326445D02*
X13680017Y-14316921D01*
X13680017Y-14316921D02*
X13670493Y-14297873D01*
X13670493Y-14297873D02*
X13670493Y-14240731D01*
X13670493Y-14240731D02*
X13680017Y-14221683D01*
X13680017Y-14221683D02*
X13689541Y-14212159D01*
X13689541Y-14212159D02*
X13708589Y-14202635D01*
X13708589Y-14202635D02*
X13737160Y-14202635D01*
X13737160Y-14202635D02*
X13756208Y-14212159D01*
X13756208Y-14212159D02*
X13765731Y-14221683D01*
X13765731Y-14221683D02*
X13775255Y-14240731D01*
X13775255Y-14240731D02*
X13775255Y-14297873D01*
X13775255Y-14297873D02*
X13765731Y-14316921D01*
X13765731Y-14316921D02*
X13756208Y-14326445D01*
X13756208Y-14326445D02*
X13737160Y-14335969D01*
X13737160Y-14335969D02*
X13708589Y-14335969D01*
X13889541Y-14335969D02*
X13870493Y-14326445D01*
X13870493Y-14326445D02*
X13860970Y-14307397D01*
X13860970Y-14307397D02*
X13860970Y-14135969D01*
X14041922Y-14326445D02*
X14022874Y-14335969D01*
X14022874Y-14335969D02*
X13984779Y-14335969D01*
X13984779Y-14335969D02*
X13965731Y-14326445D01*
X13965731Y-14326445D02*
X13956208Y-14307397D01*
X13956208Y-14307397D02*
X13956208Y-14231207D01*
X13956208Y-14231207D02*
X13965731Y-14212159D01*
X13965731Y-14212159D02*
X13984779Y-14202635D01*
X13984779Y-14202635D02*
X14022874Y-14202635D01*
X14022874Y-14202635D02*
X14041922Y-14212159D01*
X14041922Y-14212159D02*
X14051446Y-14231207D01*
X14051446Y-14231207D02*
X14051446Y-14250254D01*
X14051446Y-14250254D02*
X13956208Y-14269302D01*
X14127636Y-14326445D02*
X14146684Y-14335969D01*
X14146684Y-14335969D02*
X14184779Y-14335969D01*
X14184779Y-14335969D02*
X14203827Y-14326445D01*
X14203827Y-14326445D02*
X14213351Y-14307397D01*
X14213351Y-14307397D02*
X14213351Y-14297873D01*
X14213351Y-14297873D02*
X14203827Y-14278826D01*
X14203827Y-14278826D02*
X14184779Y-14269302D01*
X14184779Y-14269302D02*
X14156208Y-14269302D01*
X14156208Y-14269302D02*
X14137160Y-14259778D01*
X14137160Y-14259778D02*
X14127636Y-14240731D01*
X14127636Y-14240731D02*
X14127636Y-14231207D01*
X14127636Y-14231207D02*
X14137160Y-14212159D01*
X14137160Y-14212159D02*
X14156208Y-14202635D01*
X14156208Y-14202635D02*
X14184779Y-14202635D01*
X14184779Y-14202635D02*
X14203827Y-14212159D01*
X14280017Y-14412159D02*
X14289541Y-14402635D01*
X14289541Y-14402635D02*
X14308589Y-14374064D01*
X14308589Y-14374064D02*
X14318112Y-14355016D01*
X14318112Y-14355016D02*
X14327636Y-14326445D01*
X14327636Y-14326445D02*
X14337160Y-14278826D01*
X14337160Y-14278826D02*
X14337160Y-14240731D01*
X14337160Y-14240731D02*
X14327636Y-14193111D01*
X14327636Y-14193111D02*
X14318112Y-14164540D01*
X14318112Y-14164540D02*
X14308589Y-14145492D01*
X14308589Y-14145492D02*
X14289541Y-14116921D01*
X14289541Y-14116921D02*
X14280017Y-14107397D01*
D13*
X9124002Y-14508485D02*
G75*
G02*
X9084002Y-14508485I-20000J0D01*
G01*
X9084002Y-14508485D02*
G75*
G02*
X9124002Y-14508485I20000J0D01*
G01*
D12*
X9422874Y-14399969D02*
X9441922Y-14399969D01*
X9441922Y-14399969D02*
X9460969Y-14409492D01*
X9460969Y-14409492D02*
X9470493Y-14419016D01*
X9470493Y-14419016D02*
X9480017Y-14438064D01*
X9480017Y-14438064D02*
X9489541Y-14476159D01*
X9489541Y-14476159D02*
X9489541Y-14523778D01*
X9489541Y-14523778D02*
X9480017Y-14561873D01*
X9480017Y-14561873D02*
X9470493Y-14580921D01*
X9470493Y-14580921D02*
X9460969Y-14590445D01*
X9460969Y-14590445D02*
X9441922Y-14599969D01*
X9441922Y-14599969D02*
X9422874Y-14599969D01*
X9422874Y-14599969D02*
X9403826Y-14590445D01*
X9403826Y-14590445D02*
X9394303Y-14580921D01*
X9394303Y-14580921D02*
X9384779Y-14561873D01*
X9384779Y-14561873D02*
X9375255Y-14523778D01*
X9375255Y-14523778D02*
X9375255Y-14476159D01*
X9375255Y-14476159D02*
X9384779Y-14438064D01*
X9384779Y-14438064D02*
X9394303Y-14419016D01*
X9394303Y-14419016D02*
X9403826Y-14409492D01*
X9403826Y-14409492D02*
X9422874Y-14399969D01*
X9575255Y-14580921D02*
X9584779Y-14590445D01*
X9584779Y-14590445D02*
X9575255Y-14599969D01*
X9575255Y-14599969D02*
X9565731Y-14590445D01*
X9565731Y-14590445D02*
X9575255Y-14580921D01*
X9575255Y-14580921D02*
X9575255Y-14599969D01*
X9756207Y-14466635D02*
X9756207Y-14599969D01*
X9708588Y-14390445D02*
X9660969Y-14533302D01*
X9660969Y-14533302D02*
X9784779Y-14533302D01*
X9899064Y-14399969D02*
X9918112Y-14399969D01*
X9918112Y-14399969D02*
X9937160Y-14409492D01*
X9937160Y-14409492D02*
X9946684Y-14419016D01*
X9946684Y-14419016D02*
X9956207Y-14438064D01*
X9956207Y-14438064D02*
X9965731Y-14476159D01*
X9965731Y-14476159D02*
X9965731Y-14523778D01*
X9965731Y-14523778D02*
X9956207Y-14561873D01*
X9956207Y-14561873D02*
X9946684Y-14580921D01*
X9946684Y-14580921D02*
X9937160Y-14590445D01*
X9937160Y-14590445D02*
X9918112Y-14599969D01*
X9918112Y-14599969D02*
X9899064Y-14599969D01*
X9899064Y-14599969D02*
X9880017Y-14590445D01*
X9880017Y-14590445D02*
X9870493Y-14580921D01*
X9870493Y-14580921D02*
X9860969Y-14561873D01*
X9860969Y-14561873D02*
X9851445Y-14523778D01*
X9851445Y-14523778D02*
X9851445Y-14476159D01*
X9851445Y-14476159D02*
X9860969Y-14438064D01*
X9860969Y-14438064D02*
X9870493Y-14419016D01*
X9870493Y-14419016D02*
X9880017Y-14409492D01*
X9880017Y-14409492D02*
X9899064Y-14399969D01*
X10089541Y-14399969D02*
X10108588Y-14399969D01*
X10108588Y-14399969D02*
X10127636Y-14409492D01*
X10127636Y-14409492D02*
X10137160Y-14419016D01*
X10137160Y-14419016D02*
X10146684Y-14438064D01*
X10146684Y-14438064D02*
X10156207Y-14476159D01*
X10156207Y-14476159D02*
X10156207Y-14523778D01*
X10156207Y-14523778D02*
X10146684Y-14561873D01*
X10146684Y-14561873D02*
X10137160Y-14580921D01*
X10137160Y-14580921D02*
X10127636Y-14590445D01*
X10127636Y-14590445D02*
X10108588Y-14599969D01*
X10108588Y-14599969D02*
X10089541Y-14599969D01*
X10089541Y-14599969D02*
X10070493Y-14590445D01*
X10070493Y-14590445D02*
X10060969Y-14580921D01*
X10060969Y-14580921D02*
X10051445Y-14561873D01*
X10051445Y-14561873D02*
X10041922Y-14523778D01*
X10041922Y-14523778D02*
X10041922Y-14476159D01*
X10041922Y-14476159D02*
X10051445Y-14438064D01*
X10051445Y-14438064D02*
X10060969Y-14419016D01*
X10060969Y-14419016D02*
X10070493Y-14409492D01*
X10070493Y-14409492D02*
X10089541Y-14399969D01*
X10241922Y-14599969D02*
X10241922Y-14466635D01*
X10241922Y-14485683D02*
X10251445Y-14476159D01*
X10251445Y-14476159D02*
X10270493Y-14466635D01*
X10270493Y-14466635D02*
X10299065Y-14466635D01*
X10299065Y-14466635D02*
X10318112Y-14476159D01*
X10318112Y-14476159D02*
X10327636Y-14495207D01*
X10327636Y-14495207D02*
X10327636Y-14599969D01*
X10327636Y-14495207D02*
X10337160Y-14476159D01*
X10337160Y-14476159D02*
X10356207Y-14466635D01*
X10356207Y-14466635D02*
X10384779Y-14466635D01*
X10384779Y-14466635D02*
X10403826Y-14476159D01*
X10403826Y-14476159D02*
X10413350Y-14495207D01*
X10413350Y-14495207D02*
X10413350Y-14599969D01*
X10508588Y-14599969D02*
X10508588Y-14466635D01*
X10508588Y-14485683D02*
X10518112Y-14476159D01*
X10518112Y-14476159D02*
X10537160Y-14466635D01*
X10537160Y-14466635D02*
X10565731Y-14466635D01*
X10565731Y-14466635D02*
X10584779Y-14476159D01*
X10584779Y-14476159D02*
X10594303Y-14495207D01*
X10594303Y-14495207D02*
X10594303Y-14599969D01*
X10594303Y-14495207D02*
X10603826Y-14476159D01*
X10603826Y-14476159D02*
X10622874Y-14466635D01*
X10622874Y-14466635D02*
X10651445Y-14466635D01*
X10651445Y-14466635D02*
X10670493Y-14476159D01*
X10670493Y-14476159D02*
X10680017Y-14495207D01*
X10680017Y-14495207D02*
X10680017Y-14599969D01*
X11070493Y-14390445D02*
X10899065Y-14647588D01*
X11327636Y-14399969D02*
X11346684Y-14399969D01*
X11346684Y-14399969D02*
X11365731Y-14409492D01*
X11365731Y-14409492D02*
X11375255Y-14419016D01*
X11375255Y-14419016D02*
X11384779Y-14438064D01*
X11384779Y-14438064D02*
X11394303Y-14476159D01*
X11394303Y-14476159D02*
X11394303Y-14523778D01*
X11394303Y-14523778D02*
X11384779Y-14561873D01*
X11384779Y-14561873D02*
X11375255Y-14580921D01*
X11375255Y-14580921D02*
X11365731Y-14590445D01*
X11365731Y-14590445D02*
X11346684Y-14599969D01*
X11346684Y-14599969D02*
X11327636Y-14599969D01*
X11327636Y-14599969D02*
X11308588Y-14590445D01*
X11308588Y-14590445D02*
X11299065Y-14580921D01*
X11299065Y-14580921D02*
X11289541Y-14561873D01*
X11289541Y-14561873D02*
X11280017Y-14523778D01*
X11280017Y-14523778D02*
X11280017Y-14476159D01*
X11280017Y-14476159D02*
X11289541Y-14438064D01*
X11289541Y-14438064D02*
X11299065Y-14419016D01*
X11299065Y-14419016D02*
X11308588Y-14409492D01*
X11308588Y-14409492D02*
X11327636Y-14399969D01*
X11480017Y-14580921D02*
X11489541Y-14590445D01*
X11489541Y-14590445D02*
X11480017Y-14599969D01*
X11480017Y-14599969D02*
X11470493Y-14590445D01*
X11470493Y-14590445D02*
X11480017Y-14580921D01*
X11480017Y-14580921D02*
X11480017Y-14599969D01*
X11613350Y-14399969D02*
X11632398Y-14399969D01*
X11632398Y-14399969D02*
X11651446Y-14409492D01*
X11651446Y-14409492D02*
X11660969Y-14419016D01*
X11660969Y-14419016D02*
X11670493Y-14438064D01*
X11670493Y-14438064D02*
X11680017Y-14476159D01*
X11680017Y-14476159D02*
X11680017Y-14523778D01*
X11680017Y-14523778D02*
X11670493Y-14561873D01*
X11670493Y-14561873D02*
X11660969Y-14580921D01*
X11660969Y-14580921D02*
X11651446Y-14590445D01*
X11651446Y-14590445D02*
X11632398Y-14599969D01*
X11632398Y-14599969D02*
X11613350Y-14599969D01*
X11613350Y-14599969D02*
X11594303Y-14590445D01*
X11594303Y-14590445D02*
X11584779Y-14580921D01*
X11584779Y-14580921D02*
X11575255Y-14561873D01*
X11575255Y-14561873D02*
X11565731Y-14523778D01*
X11565731Y-14523778D02*
X11565731Y-14476159D01*
X11565731Y-14476159D02*
X11575255Y-14438064D01*
X11575255Y-14438064D02*
X11584779Y-14419016D01*
X11584779Y-14419016D02*
X11594303Y-14409492D01*
X11594303Y-14409492D02*
X11613350Y-14399969D01*
X11870493Y-14599969D02*
X11756207Y-14599969D01*
X11813350Y-14599969D02*
X11813350Y-14399969D01*
X11813350Y-14399969D02*
X11794303Y-14428540D01*
X11794303Y-14428540D02*
X11775255Y-14447588D01*
X11775255Y-14447588D02*
X11756207Y-14457111D01*
X12051446Y-14399969D02*
X11956207Y-14399969D01*
X11956207Y-14399969D02*
X11946684Y-14495207D01*
X11946684Y-14495207D02*
X11956207Y-14485683D01*
X11956207Y-14485683D02*
X11975255Y-14476159D01*
X11975255Y-14476159D02*
X12022874Y-14476159D01*
X12022874Y-14476159D02*
X12041922Y-14485683D01*
X12041922Y-14485683D02*
X12051446Y-14495207D01*
X12051446Y-14495207D02*
X12060969Y-14514254D01*
X12060969Y-14514254D02*
X12060969Y-14561873D01*
X12060969Y-14561873D02*
X12051446Y-14580921D01*
X12051446Y-14580921D02*
X12041922Y-14590445D01*
X12041922Y-14590445D02*
X12022874Y-14599969D01*
X12022874Y-14599969D02*
X11975255Y-14599969D01*
X11975255Y-14599969D02*
X11956207Y-14590445D01*
X11956207Y-14590445D02*
X11946684Y-14580921D01*
X12127636Y-14399969D02*
X12260969Y-14399969D01*
X12260969Y-14399969D02*
X12175255Y-14599969D01*
X12327636Y-14399969D02*
X12327636Y-14438064D01*
X12403827Y-14399969D02*
X12403827Y-14438064D01*
X12699065Y-14676159D02*
X12689541Y-14666635D01*
X12689541Y-14666635D02*
X12670493Y-14638064D01*
X12670493Y-14638064D02*
X12660969Y-14619016D01*
X12660969Y-14619016D02*
X12651446Y-14590445D01*
X12651446Y-14590445D02*
X12641922Y-14542826D01*
X12641922Y-14542826D02*
X12641922Y-14504731D01*
X12641922Y-14504731D02*
X12651446Y-14457111D01*
X12651446Y-14457111D02*
X12660969Y-14428540D01*
X12660969Y-14428540D02*
X12670493Y-14409492D01*
X12670493Y-14409492D02*
X12689541Y-14380921D01*
X12689541Y-14380921D02*
X12699065Y-14371397D01*
X12765731Y-14419016D02*
X12775255Y-14409492D01*
X12775255Y-14409492D02*
X12794303Y-14399969D01*
X12794303Y-14399969D02*
X12841922Y-14399969D01*
X12841922Y-14399969D02*
X12860969Y-14409492D01*
X12860969Y-14409492D02*
X12870493Y-14419016D01*
X12870493Y-14419016D02*
X12880017Y-14438064D01*
X12880017Y-14438064D02*
X12880017Y-14457111D01*
X12880017Y-14457111D02*
X12870493Y-14485683D01*
X12870493Y-14485683D02*
X12756208Y-14599969D01*
X12756208Y-14599969D02*
X12880017Y-14599969D01*
X13051446Y-14466635D02*
X13051446Y-14599969D01*
X13003827Y-14390445D02*
X12956208Y-14533302D01*
X12956208Y-14533302D02*
X13080017Y-14533302D01*
X13308589Y-14599969D02*
X13308589Y-14399969D01*
X13394303Y-14599969D02*
X13394303Y-14495207D01*
X13394303Y-14495207D02*
X13384779Y-14476159D01*
X13384779Y-14476159D02*
X13365731Y-14466635D01*
X13365731Y-14466635D02*
X13337160Y-14466635D01*
X13337160Y-14466635D02*
X13318112Y-14476159D01*
X13318112Y-14476159D02*
X13308589Y-14485683D01*
X13518112Y-14599969D02*
X13499065Y-14590445D01*
X13499065Y-14590445D02*
X13489541Y-14580921D01*
X13489541Y-14580921D02*
X13480017Y-14561873D01*
X13480017Y-14561873D02*
X13480017Y-14504731D01*
X13480017Y-14504731D02*
X13489541Y-14485683D01*
X13489541Y-14485683D02*
X13499065Y-14476159D01*
X13499065Y-14476159D02*
X13518112Y-14466635D01*
X13518112Y-14466635D02*
X13546684Y-14466635D01*
X13546684Y-14466635D02*
X13565731Y-14476159D01*
X13565731Y-14476159D02*
X13575255Y-14485683D01*
X13575255Y-14485683D02*
X13584779Y-14504731D01*
X13584779Y-14504731D02*
X13584779Y-14561873D01*
X13584779Y-14561873D02*
X13575255Y-14580921D01*
X13575255Y-14580921D02*
X13565731Y-14590445D01*
X13565731Y-14590445D02*
X13546684Y-14599969D01*
X13546684Y-14599969D02*
X13518112Y-14599969D01*
X13699065Y-14599969D02*
X13680017Y-14590445D01*
X13680017Y-14590445D02*
X13670493Y-14571397D01*
X13670493Y-14571397D02*
X13670493Y-14399969D01*
X13851446Y-14590445D02*
X13832398Y-14599969D01*
X13832398Y-14599969D02*
X13794303Y-14599969D01*
X13794303Y-14599969D02*
X13775255Y-14590445D01*
X13775255Y-14590445D02*
X13765731Y-14571397D01*
X13765731Y-14571397D02*
X13765731Y-14495207D01*
X13765731Y-14495207D02*
X13775255Y-14476159D01*
X13775255Y-14476159D02*
X13794303Y-14466635D01*
X13794303Y-14466635D02*
X13832398Y-14466635D01*
X13832398Y-14466635D02*
X13851446Y-14476159D01*
X13851446Y-14476159D02*
X13860970Y-14495207D01*
X13860970Y-14495207D02*
X13860970Y-14514254D01*
X13860970Y-14514254D02*
X13765731Y-14533302D01*
X13937160Y-14590445D02*
X13956208Y-14599969D01*
X13956208Y-14599969D02*
X13994303Y-14599969D01*
X13994303Y-14599969D02*
X14013351Y-14590445D01*
X14013351Y-14590445D02*
X14022874Y-14571397D01*
X14022874Y-14571397D02*
X14022874Y-14561873D01*
X14022874Y-14561873D02*
X14013351Y-14542826D01*
X14013351Y-14542826D02*
X13994303Y-14533302D01*
X13994303Y-14533302D02*
X13965731Y-14533302D01*
X13965731Y-14533302D02*
X13946684Y-14523778D01*
X13946684Y-14523778D02*
X13937160Y-14504731D01*
X13937160Y-14504731D02*
X13937160Y-14495207D01*
X13937160Y-14495207D02*
X13946684Y-14476159D01*
X13946684Y-14476159D02*
X13965731Y-14466635D01*
X13965731Y-14466635D02*
X13994303Y-14466635D01*
X13994303Y-14466635D02*
X14013351Y-14476159D01*
X14089541Y-14676159D02*
X14099065Y-14666635D01*
X14099065Y-14666635D02*
X14118112Y-14638064D01*
X14118112Y-14638064D02*
X14127636Y-14619016D01*
X14127636Y-14619016D02*
X14137160Y-14590445D01*
X14137160Y-14590445D02*
X14146684Y-14542826D01*
X14146684Y-14542826D02*
X14146684Y-14504731D01*
X14146684Y-14504731D02*
X14137160Y-14457111D01*
X14137160Y-14457111D02*
X14127636Y-14428540D01*
X14127636Y-14428540D02*
X14118112Y-14409492D01*
X14118112Y-14409492D02*
X14099065Y-14380921D01*
X14099065Y-14380921D02*
X14089541Y-14371397D01*
D13*
X9079002Y-14727485D02*
X9079002Y-14817485D01*
X9034002Y-14772485D02*
X9124002Y-14772485D01*
D12*
X9422874Y-14663969D02*
X9441922Y-14663969D01*
X9441922Y-14663969D02*
X9460969Y-14673492D01*
X9460969Y-14673492D02*
X9470493Y-14683016D01*
X9470493Y-14683016D02*
X9480017Y-14702064D01*
X9480017Y-14702064D02*
X9489541Y-14740159D01*
X9489541Y-14740159D02*
X9489541Y-14787778D01*
X9489541Y-14787778D02*
X9480017Y-14825873D01*
X9480017Y-14825873D02*
X9470493Y-14844921D01*
X9470493Y-14844921D02*
X9460969Y-14854445D01*
X9460969Y-14854445D02*
X9441922Y-14863969D01*
X9441922Y-14863969D02*
X9422874Y-14863969D01*
X9422874Y-14863969D02*
X9403826Y-14854445D01*
X9403826Y-14854445D02*
X9394303Y-14844921D01*
X9394303Y-14844921D02*
X9384779Y-14825873D01*
X9384779Y-14825873D02*
X9375255Y-14787778D01*
X9375255Y-14787778D02*
X9375255Y-14740159D01*
X9375255Y-14740159D02*
X9384779Y-14702064D01*
X9384779Y-14702064D02*
X9394303Y-14683016D01*
X9394303Y-14683016D02*
X9403826Y-14673492D01*
X9403826Y-14673492D02*
X9422874Y-14663969D01*
X9575255Y-14844921D02*
X9584779Y-14854445D01*
X9584779Y-14854445D02*
X9575255Y-14863969D01*
X9575255Y-14863969D02*
X9565731Y-14854445D01*
X9565731Y-14854445D02*
X9575255Y-14844921D01*
X9575255Y-14844921D02*
X9575255Y-14863969D01*
X9680017Y-14863969D02*
X9718112Y-14863969D01*
X9718112Y-14863969D02*
X9737160Y-14854445D01*
X9737160Y-14854445D02*
X9746684Y-14844921D01*
X9746684Y-14844921D02*
X9765731Y-14816350D01*
X9765731Y-14816350D02*
X9775255Y-14778254D01*
X9775255Y-14778254D02*
X9775255Y-14702064D01*
X9775255Y-14702064D02*
X9765731Y-14683016D01*
X9765731Y-14683016D02*
X9756207Y-14673492D01*
X9756207Y-14673492D02*
X9737160Y-14663969D01*
X9737160Y-14663969D02*
X9699064Y-14663969D01*
X9699064Y-14663969D02*
X9680017Y-14673492D01*
X9680017Y-14673492D02*
X9670493Y-14683016D01*
X9670493Y-14683016D02*
X9660969Y-14702064D01*
X9660969Y-14702064D02*
X9660969Y-14749683D01*
X9660969Y-14749683D02*
X9670493Y-14768731D01*
X9670493Y-14768731D02*
X9680017Y-14778254D01*
X9680017Y-14778254D02*
X9699064Y-14787778D01*
X9699064Y-14787778D02*
X9737160Y-14787778D01*
X9737160Y-14787778D02*
X9756207Y-14778254D01*
X9756207Y-14778254D02*
X9765731Y-14768731D01*
X9765731Y-14768731D02*
X9775255Y-14749683D01*
X9899064Y-14663969D02*
X9918112Y-14663969D01*
X9918112Y-14663969D02*
X9937160Y-14673492D01*
X9937160Y-14673492D02*
X9946684Y-14683016D01*
X9946684Y-14683016D02*
X9956207Y-14702064D01*
X9956207Y-14702064D02*
X9965731Y-14740159D01*
X9965731Y-14740159D02*
X9965731Y-14787778D01*
X9965731Y-14787778D02*
X9956207Y-14825873D01*
X9956207Y-14825873D02*
X9946684Y-14844921D01*
X9946684Y-14844921D02*
X9937160Y-14854445D01*
X9937160Y-14854445D02*
X9918112Y-14863969D01*
X9918112Y-14863969D02*
X9899064Y-14863969D01*
X9899064Y-14863969D02*
X9880017Y-14854445D01*
X9880017Y-14854445D02*
X9870493Y-14844921D01*
X9870493Y-14844921D02*
X9860969Y-14825873D01*
X9860969Y-14825873D02*
X9851445Y-14787778D01*
X9851445Y-14787778D02*
X9851445Y-14740159D01*
X9851445Y-14740159D02*
X9860969Y-14702064D01*
X9860969Y-14702064D02*
X9870493Y-14683016D01*
X9870493Y-14683016D02*
X9880017Y-14673492D01*
X9880017Y-14673492D02*
X9899064Y-14663969D01*
X10089541Y-14663969D02*
X10108588Y-14663969D01*
X10108588Y-14663969D02*
X10127636Y-14673492D01*
X10127636Y-14673492D02*
X10137160Y-14683016D01*
X10137160Y-14683016D02*
X10146684Y-14702064D01*
X10146684Y-14702064D02*
X10156207Y-14740159D01*
X10156207Y-14740159D02*
X10156207Y-14787778D01*
X10156207Y-14787778D02*
X10146684Y-14825873D01*
X10146684Y-14825873D02*
X10137160Y-14844921D01*
X10137160Y-14844921D02*
X10127636Y-14854445D01*
X10127636Y-14854445D02*
X10108588Y-14863969D01*
X10108588Y-14863969D02*
X10089541Y-14863969D01*
X10089541Y-14863969D02*
X10070493Y-14854445D01*
X10070493Y-14854445D02*
X10060969Y-14844921D01*
X10060969Y-14844921D02*
X10051445Y-14825873D01*
X10051445Y-14825873D02*
X10041922Y-14787778D01*
X10041922Y-14787778D02*
X10041922Y-14740159D01*
X10041922Y-14740159D02*
X10051445Y-14702064D01*
X10051445Y-14702064D02*
X10060969Y-14683016D01*
X10060969Y-14683016D02*
X10070493Y-14673492D01*
X10070493Y-14673492D02*
X10089541Y-14663969D01*
X10241922Y-14863969D02*
X10241922Y-14730635D01*
X10241922Y-14749683D02*
X10251445Y-14740159D01*
X10251445Y-14740159D02*
X10270493Y-14730635D01*
X10270493Y-14730635D02*
X10299065Y-14730635D01*
X10299065Y-14730635D02*
X10318112Y-14740159D01*
X10318112Y-14740159D02*
X10327636Y-14759207D01*
X10327636Y-14759207D02*
X10327636Y-14863969D01*
X10327636Y-14759207D02*
X10337160Y-14740159D01*
X10337160Y-14740159D02*
X10356207Y-14730635D01*
X10356207Y-14730635D02*
X10384779Y-14730635D01*
X10384779Y-14730635D02*
X10403826Y-14740159D01*
X10403826Y-14740159D02*
X10413350Y-14759207D01*
X10413350Y-14759207D02*
X10413350Y-14863969D01*
X10508588Y-14863969D02*
X10508588Y-14730635D01*
X10508588Y-14749683D02*
X10518112Y-14740159D01*
X10518112Y-14740159D02*
X10537160Y-14730635D01*
X10537160Y-14730635D02*
X10565731Y-14730635D01*
X10565731Y-14730635D02*
X10584779Y-14740159D01*
X10584779Y-14740159D02*
X10594303Y-14759207D01*
X10594303Y-14759207D02*
X10594303Y-14863969D01*
X10594303Y-14759207D02*
X10603826Y-14740159D01*
X10603826Y-14740159D02*
X10622874Y-14730635D01*
X10622874Y-14730635D02*
X10651445Y-14730635D01*
X10651445Y-14730635D02*
X10670493Y-14740159D01*
X10670493Y-14740159D02*
X10680017Y-14759207D01*
X10680017Y-14759207D02*
X10680017Y-14863969D01*
X11070493Y-14654445D02*
X10899065Y-14911588D01*
X11327636Y-14663969D02*
X11346684Y-14663969D01*
X11346684Y-14663969D02*
X11365731Y-14673492D01*
X11365731Y-14673492D02*
X11375255Y-14683016D01*
X11375255Y-14683016D02*
X11384779Y-14702064D01*
X11384779Y-14702064D02*
X11394303Y-14740159D01*
X11394303Y-14740159D02*
X11394303Y-14787778D01*
X11394303Y-14787778D02*
X11384779Y-14825873D01*
X11384779Y-14825873D02*
X11375255Y-14844921D01*
X11375255Y-14844921D02*
X11365731Y-14854445D01*
X11365731Y-14854445D02*
X11346684Y-14863969D01*
X11346684Y-14863969D02*
X11327636Y-14863969D01*
X11327636Y-14863969D02*
X11308588Y-14854445D01*
X11308588Y-14854445D02*
X11299065Y-14844921D01*
X11299065Y-14844921D02*
X11289541Y-14825873D01*
X11289541Y-14825873D02*
X11280017Y-14787778D01*
X11280017Y-14787778D02*
X11280017Y-14740159D01*
X11280017Y-14740159D02*
X11289541Y-14702064D01*
X11289541Y-14702064D02*
X11299065Y-14683016D01*
X11299065Y-14683016D02*
X11308588Y-14673492D01*
X11308588Y-14673492D02*
X11327636Y-14663969D01*
X11480017Y-14844921D02*
X11489541Y-14854445D01*
X11489541Y-14854445D02*
X11480017Y-14863969D01*
X11480017Y-14863969D02*
X11470493Y-14854445D01*
X11470493Y-14854445D02*
X11480017Y-14844921D01*
X11480017Y-14844921D02*
X11480017Y-14863969D01*
X11613350Y-14663969D02*
X11632398Y-14663969D01*
X11632398Y-14663969D02*
X11651446Y-14673492D01*
X11651446Y-14673492D02*
X11660969Y-14683016D01*
X11660969Y-14683016D02*
X11670493Y-14702064D01*
X11670493Y-14702064D02*
X11680017Y-14740159D01*
X11680017Y-14740159D02*
X11680017Y-14787778D01*
X11680017Y-14787778D02*
X11670493Y-14825873D01*
X11670493Y-14825873D02*
X11660969Y-14844921D01*
X11660969Y-14844921D02*
X11651446Y-14854445D01*
X11651446Y-14854445D02*
X11632398Y-14863969D01*
X11632398Y-14863969D02*
X11613350Y-14863969D01*
X11613350Y-14863969D02*
X11594303Y-14854445D01*
X11594303Y-14854445D02*
X11584779Y-14844921D01*
X11584779Y-14844921D02*
X11575255Y-14825873D01*
X11575255Y-14825873D02*
X11565731Y-14787778D01*
X11565731Y-14787778D02*
X11565731Y-14740159D01*
X11565731Y-14740159D02*
X11575255Y-14702064D01*
X11575255Y-14702064D02*
X11584779Y-14683016D01*
X11584779Y-14683016D02*
X11594303Y-14673492D01*
X11594303Y-14673492D02*
X11613350Y-14663969D01*
X11746684Y-14663969D02*
X11870493Y-14663969D01*
X11870493Y-14663969D02*
X11803826Y-14740159D01*
X11803826Y-14740159D02*
X11832398Y-14740159D01*
X11832398Y-14740159D02*
X11851446Y-14749683D01*
X11851446Y-14749683D02*
X11860969Y-14759207D01*
X11860969Y-14759207D02*
X11870493Y-14778254D01*
X11870493Y-14778254D02*
X11870493Y-14825873D01*
X11870493Y-14825873D02*
X11860969Y-14844921D01*
X11860969Y-14844921D02*
X11851446Y-14854445D01*
X11851446Y-14854445D02*
X11832398Y-14863969D01*
X11832398Y-14863969D02*
X11775255Y-14863969D01*
X11775255Y-14863969D02*
X11756207Y-14854445D01*
X11756207Y-14854445D02*
X11746684Y-14844921D01*
X12051446Y-14663969D02*
X11956207Y-14663969D01*
X11956207Y-14663969D02*
X11946684Y-14759207D01*
X11946684Y-14759207D02*
X11956207Y-14749683D01*
X11956207Y-14749683D02*
X11975255Y-14740159D01*
X11975255Y-14740159D02*
X12022874Y-14740159D01*
X12022874Y-14740159D02*
X12041922Y-14749683D01*
X12041922Y-14749683D02*
X12051446Y-14759207D01*
X12051446Y-14759207D02*
X12060969Y-14778254D01*
X12060969Y-14778254D02*
X12060969Y-14825873D01*
X12060969Y-14825873D02*
X12051446Y-14844921D01*
X12051446Y-14844921D02*
X12041922Y-14854445D01*
X12041922Y-14854445D02*
X12022874Y-14863969D01*
X12022874Y-14863969D02*
X11975255Y-14863969D01*
X11975255Y-14863969D02*
X11956207Y-14854445D01*
X11956207Y-14854445D02*
X11946684Y-14844921D01*
X12232398Y-14730635D02*
X12232398Y-14863969D01*
X12184779Y-14654445D02*
X12137160Y-14797302D01*
X12137160Y-14797302D02*
X12260969Y-14797302D01*
X12327636Y-14663969D02*
X12327636Y-14702064D01*
X12403827Y-14663969D02*
X12403827Y-14702064D01*
X12699065Y-14940159D02*
X12689541Y-14930635D01*
X12689541Y-14930635D02*
X12670493Y-14902064D01*
X12670493Y-14902064D02*
X12660969Y-14883016D01*
X12660969Y-14883016D02*
X12651446Y-14854445D01*
X12651446Y-14854445D02*
X12641922Y-14806826D01*
X12641922Y-14806826D02*
X12641922Y-14768731D01*
X12641922Y-14768731D02*
X12651446Y-14721111D01*
X12651446Y-14721111D02*
X12660969Y-14692540D01*
X12660969Y-14692540D02*
X12670493Y-14673492D01*
X12670493Y-14673492D02*
X12689541Y-14644921D01*
X12689541Y-14644921D02*
X12699065Y-14635397D01*
X12813350Y-14663969D02*
X12832398Y-14663969D01*
X12832398Y-14663969D02*
X12851446Y-14673492D01*
X12851446Y-14673492D02*
X12860969Y-14683016D01*
X12860969Y-14683016D02*
X12870493Y-14702064D01*
X12870493Y-14702064D02*
X12880017Y-14740159D01*
X12880017Y-14740159D02*
X12880017Y-14787778D01*
X12880017Y-14787778D02*
X12870493Y-14825873D01*
X12870493Y-14825873D02*
X12860969Y-14844921D01*
X12860969Y-14844921D02*
X12851446Y-14854445D01*
X12851446Y-14854445D02*
X12832398Y-14863969D01*
X12832398Y-14863969D02*
X12813350Y-14863969D01*
X12813350Y-14863969D02*
X12794303Y-14854445D01*
X12794303Y-14854445D02*
X12784779Y-14844921D01*
X12784779Y-14844921D02*
X12775255Y-14825873D01*
X12775255Y-14825873D02*
X12765731Y-14787778D01*
X12765731Y-14787778D02*
X12765731Y-14740159D01*
X12765731Y-14740159D02*
X12775255Y-14702064D01*
X12775255Y-14702064D02*
X12784779Y-14683016D01*
X12784779Y-14683016D02*
X12794303Y-14673492D01*
X12794303Y-14673492D02*
X12813350Y-14663969D01*
X13118112Y-14863969D02*
X13118112Y-14663969D01*
X13203827Y-14863969D02*
X13203827Y-14759207D01*
X13203827Y-14759207D02*
X13194303Y-14740159D01*
X13194303Y-14740159D02*
X13175255Y-14730635D01*
X13175255Y-14730635D02*
X13146684Y-14730635D01*
X13146684Y-14730635D02*
X13127636Y-14740159D01*
X13127636Y-14740159D02*
X13118112Y-14749683D01*
X13327636Y-14863969D02*
X13308589Y-14854445D01*
X13308589Y-14854445D02*
X13299065Y-14844921D01*
X13299065Y-14844921D02*
X13289541Y-14825873D01*
X13289541Y-14825873D02*
X13289541Y-14768731D01*
X13289541Y-14768731D02*
X13299065Y-14749683D01*
X13299065Y-14749683D02*
X13308589Y-14740159D01*
X13308589Y-14740159D02*
X13327636Y-14730635D01*
X13327636Y-14730635D02*
X13356208Y-14730635D01*
X13356208Y-14730635D02*
X13375255Y-14740159D01*
X13375255Y-14740159D02*
X13384779Y-14749683D01*
X13384779Y-14749683D02*
X13394303Y-14768731D01*
X13394303Y-14768731D02*
X13394303Y-14825873D01*
X13394303Y-14825873D02*
X13384779Y-14844921D01*
X13384779Y-14844921D02*
X13375255Y-14854445D01*
X13375255Y-14854445D02*
X13356208Y-14863969D01*
X13356208Y-14863969D02*
X13327636Y-14863969D01*
X13508589Y-14863969D02*
X13489541Y-14854445D01*
X13489541Y-14854445D02*
X13480017Y-14835397D01*
X13480017Y-14835397D02*
X13480017Y-14663969D01*
X13660970Y-14854445D02*
X13641922Y-14863969D01*
X13641922Y-14863969D02*
X13603827Y-14863969D01*
X13603827Y-14863969D02*
X13584779Y-14854445D01*
X13584779Y-14854445D02*
X13575255Y-14835397D01*
X13575255Y-14835397D02*
X13575255Y-14759207D01*
X13575255Y-14759207D02*
X13584779Y-14740159D01*
X13584779Y-14740159D02*
X13603827Y-14730635D01*
X13603827Y-14730635D02*
X13641922Y-14730635D01*
X13641922Y-14730635D02*
X13660970Y-14740159D01*
X13660970Y-14740159D02*
X13670493Y-14759207D01*
X13670493Y-14759207D02*
X13670493Y-14778254D01*
X13670493Y-14778254D02*
X13575255Y-14797302D01*
X13746684Y-14854445D02*
X13765731Y-14863969D01*
X13765731Y-14863969D02*
X13803827Y-14863969D01*
X13803827Y-14863969D02*
X13822874Y-14854445D01*
X13822874Y-14854445D02*
X13832398Y-14835397D01*
X13832398Y-14835397D02*
X13832398Y-14825873D01*
X13832398Y-14825873D02*
X13822874Y-14806826D01*
X13822874Y-14806826D02*
X13803827Y-14797302D01*
X13803827Y-14797302D02*
X13775255Y-14797302D01*
X13775255Y-14797302D02*
X13756208Y-14787778D01*
X13756208Y-14787778D02*
X13746684Y-14768731D01*
X13746684Y-14768731D02*
X13746684Y-14759207D01*
X13746684Y-14759207D02*
X13756208Y-14740159D01*
X13756208Y-14740159D02*
X13775255Y-14730635D01*
X13775255Y-14730635D02*
X13803827Y-14730635D01*
X13803827Y-14730635D02*
X13822874Y-14740159D01*
X14070493Y-14787778D02*
X14222874Y-14787778D01*
X14146684Y-14863969D02*
X14146684Y-14711588D01*
X14556208Y-14663969D02*
X14518112Y-14663969D01*
X14518112Y-14663969D02*
X14499065Y-14673492D01*
X14499065Y-14673492D02*
X14489541Y-14683016D01*
X14489541Y-14683016D02*
X14470493Y-14711588D01*
X14470493Y-14711588D02*
X14460970Y-14749683D01*
X14460970Y-14749683D02*
X14460970Y-14825873D01*
X14460970Y-14825873D02*
X14470493Y-14844921D01*
X14470493Y-14844921D02*
X14480017Y-14854445D01*
X14480017Y-14854445D02*
X14499065Y-14863969D01*
X14499065Y-14863969D02*
X14537160Y-14863969D01*
X14537160Y-14863969D02*
X14556208Y-14854445D01*
X14556208Y-14854445D02*
X14565732Y-14844921D01*
X14565732Y-14844921D02*
X14575255Y-14825873D01*
X14575255Y-14825873D02*
X14575255Y-14778254D01*
X14575255Y-14778254D02*
X14565732Y-14759207D01*
X14565732Y-14759207D02*
X14556208Y-14749683D01*
X14556208Y-14749683D02*
X14537160Y-14740159D01*
X14537160Y-14740159D02*
X14499065Y-14740159D01*
X14499065Y-14740159D02*
X14480017Y-14749683D01*
X14480017Y-14749683D02*
X14470493Y-14759207D01*
X14470493Y-14759207D02*
X14460970Y-14778254D01*
X14803827Y-14854445D02*
X14822874Y-14863969D01*
X14822874Y-14863969D02*
X14860970Y-14863969D01*
X14860970Y-14863969D02*
X14880017Y-14854445D01*
X14880017Y-14854445D02*
X14889541Y-14835397D01*
X14889541Y-14835397D02*
X14889541Y-14825873D01*
X14889541Y-14825873D02*
X14880017Y-14806826D01*
X14880017Y-14806826D02*
X14860970Y-14797302D01*
X14860970Y-14797302D02*
X14832398Y-14797302D01*
X14832398Y-14797302D02*
X14813351Y-14787778D01*
X14813351Y-14787778D02*
X14803827Y-14768731D01*
X14803827Y-14768731D02*
X14803827Y-14759207D01*
X14803827Y-14759207D02*
X14813351Y-14740159D01*
X14813351Y-14740159D02*
X14832398Y-14730635D01*
X14832398Y-14730635D02*
X14860970Y-14730635D01*
X14860970Y-14730635D02*
X14880017Y-14740159D01*
X15003827Y-14863969D02*
X14984779Y-14854445D01*
X14984779Y-14854445D02*
X14975255Y-14835397D01*
X14975255Y-14835397D02*
X14975255Y-14663969D01*
X15108589Y-14863969D02*
X15089541Y-14854445D01*
X15089541Y-14854445D02*
X15080017Y-14844921D01*
X15080017Y-14844921D02*
X15070494Y-14825873D01*
X15070494Y-14825873D02*
X15070494Y-14768731D01*
X15070494Y-14768731D02*
X15080017Y-14749683D01*
X15080017Y-14749683D02*
X15089541Y-14740159D01*
X15089541Y-14740159D02*
X15108589Y-14730635D01*
X15108589Y-14730635D02*
X15137160Y-14730635D01*
X15137160Y-14730635D02*
X15156208Y-14740159D01*
X15156208Y-14740159D02*
X15165732Y-14749683D01*
X15165732Y-14749683D02*
X15175255Y-14768731D01*
X15175255Y-14768731D02*
X15175255Y-14825873D01*
X15175255Y-14825873D02*
X15165732Y-14844921D01*
X15165732Y-14844921D02*
X15156208Y-14854445D01*
X15156208Y-14854445D02*
X15137160Y-14863969D01*
X15137160Y-14863969D02*
X15108589Y-14863969D01*
X15232398Y-14730635D02*
X15308589Y-14730635D01*
X15260970Y-14663969D02*
X15260970Y-14835397D01*
X15260970Y-14835397D02*
X15270494Y-14854445D01*
X15270494Y-14854445D02*
X15289541Y-14863969D01*
X15289541Y-14863969D02*
X15308589Y-14863969D01*
X15365732Y-14854445D02*
X15384779Y-14863969D01*
X15384779Y-14863969D02*
X15422874Y-14863969D01*
X15422874Y-14863969D02*
X15441922Y-14854445D01*
X15441922Y-14854445D02*
X15451446Y-14835397D01*
X15451446Y-14835397D02*
X15451446Y-14825873D01*
X15451446Y-14825873D02*
X15441922Y-14806826D01*
X15441922Y-14806826D02*
X15422874Y-14797302D01*
X15422874Y-14797302D02*
X15394303Y-14797302D01*
X15394303Y-14797302D02*
X15375255Y-14787778D01*
X15375255Y-14787778D02*
X15365732Y-14768731D01*
X15365732Y-14768731D02*
X15365732Y-14759207D01*
X15365732Y-14759207D02*
X15375255Y-14740159D01*
X15375255Y-14740159D02*
X15394303Y-14730635D01*
X15394303Y-14730635D02*
X15422874Y-14730635D01*
X15422874Y-14730635D02*
X15441922Y-14740159D01*
X15518113Y-14940159D02*
X15527636Y-14930635D01*
X15527636Y-14930635D02*
X15546684Y-14902064D01*
X15546684Y-14902064D02*
X15556208Y-14883016D01*
X15556208Y-14883016D02*
X15565732Y-14854445D01*
X15565732Y-14854445D02*
X15575255Y-14806826D01*
X15575255Y-14806826D02*
X15575255Y-14768731D01*
X15575255Y-14768731D02*
X15565732Y-14721111D01*
X15565732Y-14721111D02*
X15556208Y-14692540D01*
X15556208Y-14692540D02*
X15546684Y-14673492D01*
X15546684Y-14673492D02*
X15527636Y-14644921D01*
X15527636Y-14644921D02*
X15518113Y-14635397D01*
D13*
X9109358Y-15071841D02*
X9109358Y-15001129D01*
X9038646Y-15001129D01*
X9038646Y-15071841D01*
X9109358Y-15071841D01*
D12*
X9489541Y-15127969D02*
X9375255Y-15127969D01*
X9432398Y-15127969D02*
X9432398Y-14927969D01*
X9432398Y-14927969D02*
X9413350Y-14956540D01*
X9413350Y-14956540D02*
X9394303Y-14975588D01*
X9394303Y-14975588D02*
X9375255Y-14985111D01*
X9575255Y-15108921D02*
X9584779Y-15118445D01*
X9584779Y-15118445D02*
X9575255Y-15127969D01*
X9575255Y-15127969D02*
X9565731Y-15118445D01*
X9565731Y-15118445D02*
X9575255Y-15108921D01*
X9575255Y-15108921D02*
X9575255Y-15127969D01*
X9708588Y-14927969D02*
X9727636Y-14927969D01*
X9727636Y-14927969D02*
X9746684Y-14937492D01*
X9746684Y-14937492D02*
X9756207Y-14947016D01*
X9756207Y-14947016D02*
X9765731Y-14966064D01*
X9765731Y-14966064D02*
X9775255Y-15004159D01*
X9775255Y-15004159D02*
X9775255Y-15051778D01*
X9775255Y-15051778D02*
X9765731Y-15089873D01*
X9765731Y-15089873D02*
X9756207Y-15108921D01*
X9756207Y-15108921D02*
X9746684Y-15118445D01*
X9746684Y-15118445D02*
X9727636Y-15127969D01*
X9727636Y-15127969D02*
X9708588Y-15127969D01*
X9708588Y-15127969D02*
X9689541Y-15118445D01*
X9689541Y-15118445D02*
X9680017Y-15108921D01*
X9680017Y-15108921D02*
X9670493Y-15089873D01*
X9670493Y-15089873D02*
X9660969Y-15051778D01*
X9660969Y-15051778D02*
X9660969Y-15004159D01*
X9660969Y-15004159D02*
X9670493Y-14966064D01*
X9670493Y-14966064D02*
X9680017Y-14947016D01*
X9680017Y-14947016D02*
X9689541Y-14937492D01*
X9689541Y-14937492D02*
X9708588Y-14927969D01*
X9899064Y-14927969D02*
X9918112Y-14927969D01*
X9918112Y-14927969D02*
X9937160Y-14937492D01*
X9937160Y-14937492D02*
X9946684Y-14947016D01*
X9946684Y-14947016D02*
X9956207Y-14966064D01*
X9956207Y-14966064D02*
X9965731Y-15004159D01*
X9965731Y-15004159D02*
X9965731Y-15051778D01*
X9965731Y-15051778D02*
X9956207Y-15089873D01*
X9956207Y-15089873D02*
X9946684Y-15108921D01*
X9946684Y-15108921D02*
X9937160Y-15118445D01*
X9937160Y-15118445D02*
X9918112Y-15127969D01*
X9918112Y-15127969D02*
X9899064Y-15127969D01*
X9899064Y-15127969D02*
X9880017Y-15118445D01*
X9880017Y-15118445D02*
X9870493Y-15108921D01*
X9870493Y-15108921D02*
X9860969Y-15089873D01*
X9860969Y-15089873D02*
X9851445Y-15051778D01*
X9851445Y-15051778D02*
X9851445Y-15004159D01*
X9851445Y-15004159D02*
X9860969Y-14966064D01*
X9860969Y-14966064D02*
X9870493Y-14947016D01*
X9870493Y-14947016D02*
X9880017Y-14937492D01*
X9880017Y-14937492D02*
X9899064Y-14927969D01*
X10089541Y-14927969D02*
X10108588Y-14927969D01*
X10108588Y-14927969D02*
X10127636Y-14937492D01*
X10127636Y-14937492D02*
X10137160Y-14947016D01*
X10137160Y-14947016D02*
X10146684Y-14966064D01*
X10146684Y-14966064D02*
X10156207Y-15004159D01*
X10156207Y-15004159D02*
X10156207Y-15051778D01*
X10156207Y-15051778D02*
X10146684Y-15089873D01*
X10146684Y-15089873D02*
X10137160Y-15108921D01*
X10137160Y-15108921D02*
X10127636Y-15118445D01*
X10127636Y-15118445D02*
X10108588Y-15127969D01*
X10108588Y-15127969D02*
X10089541Y-15127969D01*
X10089541Y-15127969D02*
X10070493Y-15118445D01*
X10070493Y-15118445D02*
X10060969Y-15108921D01*
X10060969Y-15108921D02*
X10051445Y-15089873D01*
X10051445Y-15089873D02*
X10041922Y-15051778D01*
X10041922Y-15051778D02*
X10041922Y-15004159D01*
X10041922Y-15004159D02*
X10051445Y-14966064D01*
X10051445Y-14966064D02*
X10060969Y-14947016D01*
X10060969Y-14947016D02*
X10070493Y-14937492D01*
X10070493Y-14937492D02*
X10089541Y-14927969D01*
X10241922Y-15127969D02*
X10241922Y-14994635D01*
X10241922Y-15013683D02*
X10251445Y-15004159D01*
X10251445Y-15004159D02*
X10270493Y-14994635D01*
X10270493Y-14994635D02*
X10299065Y-14994635D01*
X10299065Y-14994635D02*
X10318112Y-15004159D01*
X10318112Y-15004159D02*
X10327636Y-15023207D01*
X10327636Y-15023207D02*
X10327636Y-15127969D01*
X10327636Y-15023207D02*
X10337160Y-15004159D01*
X10337160Y-15004159D02*
X10356207Y-14994635D01*
X10356207Y-14994635D02*
X10384779Y-14994635D01*
X10384779Y-14994635D02*
X10403826Y-15004159D01*
X10403826Y-15004159D02*
X10413350Y-15023207D01*
X10413350Y-15023207D02*
X10413350Y-15127969D01*
X10508588Y-15127969D02*
X10508588Y-14994635D01*
X10508588Y-15013683D02*
X10518112Y-15004159D01*
X10518112Y-15004159D02*
X10537160Y-14994635D01*
X10537160Y-14994635D02*
X10565731Y-14994635D01*
X10565731Y-14994635D02*
X10584779Y-15004159D01*
X10584779Y-15004159D02*
X10594303Y-15023207D01*
X10594303Y-15023207D02*
X10594303Y-15127969D01*
X10594303Y-15023207D02*
X10603826Y-15004159D01*
X10603826Y-15004159D02*
X10622874Y-14994635D01*
X10622874Y-14994635D02*
X10651445Y-14994635D01*
X10651445Y-14994635D02*
X10670493Y-15004159D01*
X10670493Y-15004159D02*
X10680017Y-15023207D01*
X10680017Y-15023207D02*
X10680017Y-15127969D01*
X11070493Y-14918445D02*
X10899065Y-15175588D01*
X11327636Y-14927969D02*
X11346684Y-14927969D01*
X11346684Y-14927969D02*
X11365731Y-14937492D01*
X11365731Y-14937492D02*
X11375255Y-14947016D01*
X11375255Y-14947016D02*
X11384779Y-14966064D01*
X11384779Y-14966064D02*
X11394303Y-15004159D01*
X11394303Y-15004159D02*
X11394303Y-15051778D01*
X11394303Y-15051778D02*
X11384779Y-15089873D01*
X11384779Y-15089873D02*
X11375255Y-15108921D01*
X11375255Y-15108921D02*
X11365731Y-15118445D01*
X11365731Y-15118445D02*
X11346684Y-15127969D01*
X11346684Y-15127969D02*
X11327636Y-15127969D01*
X11327636Y-15127969D02*
X11308588Y-15118445D01*
X11308588Y-15118445D02*
X11299065Y-15108921D01*
X11299065Y-15108921D02*
X11289541Y-15089873D01*
X11289541Y-15089873D02*
X11280017Y-15051778D01*
X11280017Y-15051778D02*
X11280017Y-15004159D01*
X11280017Y-15004159D02*
X11289541Y-14966064D01*
X11289541Y-14966064D02*
X11299065Y-14947016D01*
X11299065Y-14947016D02*
X11308588Y-14937492D01*
X11308588Y-14937492D02*
X11327636Y-14927969D01*
X11480017Y-15108921D02*
X11489541Y-15118445D01*
X11489541Y-15118445D02*
X11480017Y-15127969D01*
X11480017Y-15127969D02*
X11470493Y-15118445D01*
X11470493Y-15118445D02*
X11480017Y-15108921D01*
X11480017Y-15108921D02*
X11480017Y-15127969D01*
X11613350Y-14927969D02*
X11632398Y-14927969D01*
X11632398Y-14927969D02*
X11651446Y-14937492D01*
X11651446Y-14937492D02*
X11660969Y-14947016D01*
X11660969Y-14947016D02*
X11670493Y-14966064D01*
X11670493Y-14966064D02*
X11680017Y-15004159D01*
X11680017Y-15004159D02*
X11680017Y-15051778D01*
X11680017Y-15051778D02*
X11670493Y-15089873D01*
X11670493Y-15089873D02*
X11660969Y-15108921D01*
X11660969Y-15108921D02*
X11651446Y-15118445D01*
X11651446Y-15118445D02*
X11632398Y-15127969D01*
X11632398Y-15127969D02*
X11613350Y-15127969D01*
X11613350Y-15127969D02*
X11594303Y-15118445D01*
X11594303Y-15118445D02*
X11584779Y-15108921D01*
X11584779Y-15108921D02*
X11575255Y-15089873D01*
X11575255Y-15089873D02*
X11565731Y-15051778D01*
X11565731Y-15051778D02*
X11565731Y-15004159D01*
X11565731Y-15004159D02*
X11575255Y-14966064D01*
X11575255Y-14966064D02*
X11584779Y-14947016D01*
X11584779Y-14947016D02*
X11594303Y-14937492D01*
X11594303Y-14937492D02*
X11613350Y-14927969D01*
X11746684Y-14927969D02*
X11870493Y-14927969D01*
X11870493Y-14927969D02*
X11803826Y-15004159D01*
X11803826Y-15004159D02*
X11832398Y-15004159D01*
X11832398Y-15004159D02*
X11851446Y-15013683D01*
X11851446Y-15013683D02*
X11860969Y-15023207D01*
X11860969Y-15023207D02*
X11870493Y-15042254D01*
X11870493Y-15042254D02*
X11870493Y-15089873D01*
X11870493Y-15089873D02*
X11860969Y-15108921D01*
X11860969Y-15108921D02*
X11851446Y-15118445D01*
X11851446Y-15118445D02*
X11832398Y-15127969D01*
X11832398Y-15127969D02*
X11775255Y-15127969D01*
X11775255Y-15127969D02*
X11756207Y-15118445D01*
X11756207Y-15118445D02*
X11746684Y-15108921D01*
X11965731Y-15127969D02*
X12003826Y-15127969D01*
X12003826Y-15127969D02*
X12022874Y-15118445D01*
X12022874Y-15118445D02*
X12032398Y-15108921D01*
X12032398Y-15108921D02*
X12051446Y-15080350D01*
X12051446Y-15080350D02*
X12060969Y-15042254D01*
X12060969Y-15042254D02*
X12060969Y-14966064D01*
X12060969Y-14966064D02*
X12051446Y-14947016D01*
X12051446Y-14947016D02*
X12041922Y-14937492D01*
X12041922Y-14937492D02*
X12022874Y-14927969D01*
X12022874Y-14927969D02*
X11984779Y-14927969D01*
X11984779Y-14927969D02*
X11965731Y-14937492D01*
X11965731Y-14937492D02*
X11956207Y-14947016D01*
X11956207Y-14947016D02*
X11946684Y-14966064D01*
X11946684Y-14966064D02*
X11946684Y-15013683D01*
X11946684Y-15013683D02*
X11956207Y-15032731D01*
X11956207Y-15032731D02*
X11965731Y-15042254D01*
X11965731Y-15042254D02*
X11984779Y-15051778D01*
X11984779Y-15051778D02*
X12022874Y-15051778D01*
X12022874Y-15051778D02*
X12041922Y-15042254D01*
X12041922Y-15042254D02*
X12051446Y-15032731D01*
X12051446Y-15032731D02*
X12060969Y-15013683D01*
X12232398Y-14994635D02*
X12232398Y-15127969D01*
X12184779Y-14918445D02*
X12137160Y-15061302D01*
X12137160Y-15061302D02*
X12260969Y-15061302D01*
X12327636Y-14927969D02*
X12327636Y-14966064D01*
X12403827Y-14927969D02*
X12403827Y-14966064D01*
X12699065Y-15204159D02*
X12689541Y-15194635D01*
X12689541Y-15194635D02*
X12670493Y-15166064D01*
X12670493Y-15166064D02*
X12660969Y-15147016D01*
X12660969Y-15147016D02*
X12651446Y-15118445D01*
X12651446Y-15118445D02*
X12641922Y-15070826D01*
X12641922Y-15070826D02*
X12641922Y-15032731D01*
X12641922Y-15032731D02*
X12651446Y-14985111D01*
X12651446Y-14985111D02*
X12660969Y-14956540D01*
X12660969Y-14956540D02*
X12670493Y-14937492D01*
X12670493Y-14937492D02*
X12689541Y-14908921D01*
X12689541Y-14908921D02*
X12699065Y-14899397D01*
X12756208Y-14927969D02*
X12880017Y-14927969D01*
X12880017Y-14927969D02*
X12813350Y-15004159D01*
X12813350Y-15004159D02*
X12841922Y-15004159D01*
X12841922Y-15004159D02*
X12860969Y-15013683D01*
X12860969Y-15013683D02*
X12870493Y-15023207D01*
X12870493Y-15023207D02*
X12880017Y-15042254D01*
X12880017Y-15042254D02*
X12880017Y-15089873D01*
X12880017Y-15089873D02*
X12870493Y-15108921D01*
X12870493Y-15108921D02*
X12860969Y-15118445D01*
X12860969Y-15118445D02*
X12841922Y-15127969D01*
X12841922Y-15127969D02*
X12784779Y-15127969D01*
X12784779Y-15127969D02*
X12765731Y-15118445D01*
X12765731Y-15118445D02*
X12756208Y-15108921D01*
X13003827Y-14927969D02*
X13022874Y-14927969D01*
X13022874Y-14927969D02*
X13041922Y-14937492D01*
X13041922Y-14937492D02*
X13051446Y-14947016D01*
X13051446Y-14947016D02*
X13060969Y-14966064D01*
X13060969Y-14966064D02*
X13070493Y-15004159D01*
X13070493Y-15004159D02*
X13070493Y-15051778D01*
X13070493Y-15051778D02*
X13060969Y-15089873D01*
X13060969Y-15089873D02*
X13051446Y-15108921D01*
X13051446Y-15108921D02*
X13041922Y-15118445D01*
X13041922Y-15118445D02*
X13022874Y-15127969D01*
X13022874Y-15127969D02*
X13003827Y-15127969D01*
X13003827Y-15127969D02*
X12984779Y-15118445D01*
X12984779Y-15118445D02*
X12975255Y-15108921D01*
X12975255Y-15108921D02*
X12965731Y-15089873D01*
X12965731Y-15089873D02*
X12956208Y-15051778D01*
X12956208Y-15051778D02*
X12956208Y-15004159D01*
X12956208Y-15004159D02*
X12965731Y-14966064D01*
X12965731Y-14966064D02*
X12975255Y-14947016D01*
X12975255Y-14947016D02*
X12984779Y-14937492D01*
X12984779Y-14937492D02*
X13003827Y-14927969D01*
X13308589Y-15127969D02*
X13308589Y-14927969D01*
X13394303Y-15127969D02*
X13394303Y-15023207D01*
X13394303Y-15023207D02*
X13384779Y-15004159D01*
X13384779Y-15004159D02*
X13365731Y-14994635D01*
X13365731Y-14994635D02*
X13337160Y-14994635D01*
X13337160Y-14994635D02*
X13318112Y-15004159D01*
X13318112Y-15004159D02*
X13308589Y-15013683D01*
X13518112Y-15127969D02*
X13499065Y-15118445D01*
X13499065Y-15118445D02*
X13489541Y-15108921D01*
X13489541Y-15108921D02*
X13480017Y-15089873D01*
X13480017Y-15089873D02*
X13480017Y-15032731D01*
X13480017Y-15032731D02*
X13489541Y-15013683D01*
X13489541Y-15013683D02*
X13499065Y-15004159D01*
X13499065Y-15004159D02*
X13518112Y-14994635D01*
X13518112Y-14994635D02*
X13546684Y-14994635D01*
X13546684Y-14994635D02*
X13565731Y-15004159D01*
X13565731Y-15004159D02*
X13575255Y-15013683D01*
X13575255Y-15013683D02*
X13584779Y-15032731D01*
X13584779Y-15032731D02*
X13584779Y-15089873D01*
X13584779Y-15089873D02*
X13575255Y-15108921D01*
X13575255Y-15108921D02*
X13565731Y-15118445D01*
X13565731Y-15118445D02*
X13546684Y-15127969D01*
X13546684Y-15127969D02*
X13518112Y-15127969D01*
X13699065Y-15127969D02*
X13680017Y-15118445D01*
X13680017Y-15118445D02*
X13670493Y-15099397D01*
X13670493Y-15099397D02*
X13670493Y-14927969D01*
X13851446Y-15118445D02*
X13832398Y-15127969D01*
X13832398Y-15127969D02*
X13794303Y-15127969D01*
X13794303Y-15127969D02*
X13775255Y-15118445D01*
X13775255Y-15118445D02*
X13765731Y-15099397D01*
X13765731Y-15099397D02*
X13765731Y-15023207D01*
X13765731Y-15023207D02*
X13775255Y-15004159D01*
X13775255Y-15004159D02*
X13794303Y-14994635D01*
X13794303Y-14994635D02*
X13832398Y-14994635D01*
X13832398Y-14994635D02*
X13851446Y-15004159D01*
X13851446Y-15004159D02*
X13860970Y-15023207D01*
X13860970Y-15023207D02*
X13860970Y-15042254D01*
X13860970Y-15042254D02*
X13765731Y-15061302D01*
X13937160Y-15118445D02*
X13956208Y-15127969D01*
X13956208Y-15127969D02*
X13994303Y-15127969D01*
X13994303Y-15127969D02*
X14013351Y-15118445D01*
X14013351Y-15118445D02*
X14022874Y-15099397D01*
X14022874Y-15099397D02*
X14022874Y-15089873D01*
X14022874Y-15089873D02*
X14013351Y-15070826D01*
X14013351Y-15070826D02*
X13994303Y-15061302D01*
X13994303Y-15061302D02*
X13965731Y-15061302D01*
X13965731Y-15061302D02*
X13946684Y-15051778D01*
X13946684Y-15051778D02*
X13937160Y-15032731D01*
X13937160Y-15032731D02*
X13937160Y-15023207D01*
X13937160Y-15023207D02*
X13946684Y-15004159D01*
X13946684Y-15004159D02*
X13965731Y-14994635D01*
X13965731Y-14994635D02*
X13994303Y-14994635D01*
X13994303Y-14994635D02*
X14013351Y-15004159D01*
X14089541Y-15204159D02*
X14099065Y-15194635D01*
X14099065Y-15194635D02*
X14118112Y-15166064D01*
X14118112Y-15166064D02*
X14127636Y-15147016D01*
X14127636Y-15147016D02*
X14137160Y-15118445D01*
X14137160Y-15118445D02*
X14146684Y-15070826D01*
X14146684Y-15070826D02*
X14146684Y-15032731D01*
X14146684Y-15032731D02*
X14137160Y-14985111D01*
X14137160Y-14985111D02*
X14127636Y-14956540D01*
X14127636Y-14956540D02*
X14118112Y-14937492D01*
X14118112Y-14937492D02*
X14099065Y-14908921D01*
X14099065Y-14908921D02*
X14089541Y-14899397D01*
D14*
X9044002Y-15380485D02*
X9124002Y-15300485D01*
X9044002Y-15220485D01*
X8964002Y-15300485D01*
X9044002Y-15380485D01*
D12*
X9489541Y-15391969D02*
X9375255Y-15391969D01*
X9432398Y-15391969D02*
X9432398Y-15191969D01*
X9432398Y-15191969D02*
X9413350Y-15220540D01*
X9413350Y-15220540D02*
X9394303Y-15239588D01*
X9394303Y-15239588D02*
X9375255Y-15249111D01*
X9575255Y-15372921D02*
X9584779Y-15382445D01*
X9584779Y-15382445D02*
X9575255Y-15391969D01*
X9575255Y-15391969D02*
X9565731Y-15382445D01*
X9565731Y-15382445D02*
X9575255Y-15372921D01*
X9575255Y-15372921D02*
X9575255Y-15391969D01*
X9756207Y-15191969D02*
X9718112Y-15191969D01*
X9718112Y-15191969D02*
X9699064Y-15201492D01*
X9699064Y-15201492D02*
X9689541Y-15211016D01*
X9689541Y-15211016D02*
X9670493Y-15239588D01*
X9670493Y-15239588D02*
X9660969Y-15277683D01*
X9660969Y-15277683D02*
X9660969Y-15353873D01*
X9660969Y-15353873D02*
X9670493Y-15372921D01*
X9670493Y-15372921D02*
X9680017Y-15382445D01*
X9680017Y-15382445D02*
X9699064Y-15391969D01*
X9699064Y-15391969D02*
X9737160Y-15391969D01*
X9737160Y-15391969D02*
X9756207Y-15382445D01*
X9756207Y-15382445D02*
X9765731Y-15372921D01*
X9765731Y-15372921D02*
X9775255Y-15353873D01*
X9775255Y-15353873D02*
X9775255Y-15306254D01*
X9775255Y-15306254D02*
X9765731Y-15287207D01*
X9765731Y-15287207D02*
X9756207Y-15277683D01*
X9756207Y-15277683D02*
X9737160Y-15268159D01*
X9737160Y-15268159D02*
X9699064Y-15268159D01*
X9699064Y-15268159D02*
X9680017Y-15277683D01*
X9680017Y-15277683D02*
X9670493Y-15287207D01*
X9670493Y-15287207D02*
X9660969Y-15306254D01*
X9899064Y-15191969D02*
X9918112Y-15191969D01*
X9918112Y-15191969D02*
X9937160Y-15201492D01*
X9937160Y-15201492D02*
X9946684Y-15211016D01*
X9946684Y-15211016D02*
X9956207Y-15230064D01*
X9956207Y-15230064D02*
X9965731Y-15268159D01*
X9965731Y-15268159D02*
X9965731Y-15315778D01*
X9965731Y-15315778D02*
X9956207Y-15353873D01*
X9956207Y-15353873D02*
X9946684Y-15372921D01*
X9946684Y-15372921D02*
X9937160Y-15382445D01*
X9937160Y-15382445D02*
X9918112Y-15391969D01*
X9918112Y-15391969D02*
X9899064Y-15391969D01*
X9899064Y-15391969D02*
X9880017Y-15382445D01*
X9880017Y-15382445D02*
X9870493Y-15372921D01*
X9870493Y-15372921D02*
X9860969Y-15353873D01*
X9860969Y-15353873D02*
X9851445Y-15315778D01*
X9851445Y-15315778D02*
X9851445Y-15268159D01*
X9851445Y-15268159D02*
X9860969Y-15230064D01*
X9860969Y-15230064D02*
X9870493Y-15211016D01*
X9870493Y-15211016D02*
X9880017Y-15201492D01*
X9880017Y-15201492D02*
X9899064Y-15191969D01*
X10089541Y-15191969D02*
X10108588Y-15191969D01*
X10108588Y-15191969D02*
X10127636Y-15201492D01*
X10127636Y-15201492D02*
X10137160Y-15211016D01*
X10137160Y-15211016D02*
X10146684Y-15230064D01*
X10146684Y-15230064D02*
X10156207Y-15268159D01*
X10156207Y-15268159D02*
X10156207Y-15315778D01*
X10156207Y-15315778D02*
X10146684Y-15353873D01*
X10146684Y-15353873D02*
X10137160Y-15372921D01*
X10137160Y-15372921D02*
X10127636Y-15382445D01*
X10127636Y-15382445D02*
X10108588Y-15391969D01*
X10108588Y-15391969D02*
X10089541Y-15391969D01*
X10089541Y-15391969D02*
X10070493Y-15382445D01*
X10070493Y-15382445D02*
X10060969Y-15372921D01*
X10060969Y-15372921D02*
X10051445Y-15353873D01*
X10051445Y-15353873D02*
X10041922Y-15315778D01*
X10041922Y-15315778D02*
X10041922Y-15268159D01*
X10041922Y-15268159D02*
X10051445Y-15230064D01*
X10051445Y-15230064D02*
X10060969Y-15211016D01*
X10060969Y-15211016D02*
X10070493Y-15201492D01*
X10070493Y-15201492D02*
X10089541Y-15191969D01*
X10241922Y-15391969D02*
X10241922Y-15258635D01*
X10241922Y-15277683D02*
X10251445Y-15268159D01*
X10251445Y-15268159D02*
X10270493Y-15258635D01*
X10270493Y-15258635D02*
X10299065Y-15258635D01*
X10299065Y-15258635D02*
X10318112Y-15268159D01*
X10318112Y-15268159D02*
X10327636Y-15287207D01*
X10327636Y-15287207D02*
X10327636Y-15391969D01*
X10327636Y-15287207D02*
X10337160Y-15268159D01*
X10337160Y-15268159D02*
X10356207Y-15258635D01*
X10356207Y-15258635D02*
X10384779Y-15258635D01*
X10384779Y-15258635D02*
X10403826Y-15268159D01*
X10403826Y-15268159D02*
X10413350Y-15287207D01*
X10413350Y-15287207D02*
X10413350Y-15391969D01*
X10508588Y-15391969D02*
X10508588Y-15258635D01*
X10508588Y-15277683D02*
X10518112Y-15268159D01*
X10518112Y-15268159D02*
X10537160Y-15258635D01*
X10537160Y-15258635D02*
X10565731Y-15258635D01*
X10565731Y-15258635D02*
X10584779Y-15268159D01*
X10584779Y-15268159D02*
X10594303Y-15287207D01*
X10594303Y-15287207D02*
X10594303Y-15391969D01*
X10594303Y-15287207D02*
X10603826Y-15268159D01*
X10603826Y-15268159D02*
X10622874Y-15258635D01*
X10622874Y-15258635D02*
X10651445Y-15258635D01*
X10651445Y-15258635D02*
X10670493Y-15268159D01*
X10670493Y-15268159D02*
X10680017Y-15287207D01*
X10680017Y-15287207D02*
X10680017Y-15391969D01*
X11070493Y-15182445D02*
X10899065Y-15439588D01*
X11327636Y-15191969D02*
X11346684Y-15191969D01*
X11346684Y-15191969D02*
X11365731Y-15201492D01*
X11365731Y-15201492D02*
X11375255Y-15211016D01*
X11375255Y-15211016D02*
X11384779Y-15230064D01*
X11384779Y-15230064D02*
X11394303Y-15268159D01*
X11394303Y-15268159D02*
X11394303Y-15315778D01*
X11394303Y-15315778D02*
X11384779Y-15353873D01*
X11384779Y-15353873D02*
X11375255Y-15372921D01*
X11375255Y-15372921D02*
X11365731Y-15382445D01*
X11365731Y-15382445D02*
X11346684Y-15391969D01*
X11346684Y-15391969D02*
X11327636Y-15391969D01*
X11327636Y-15391969D02*
X11308588Y-15382445D01*
X11308588Y-15382445D02*
X11299065Y-15372921D01*
X11299065Y-15372921D02*
X11289541Y-15353873D01*
X11289541Y-15353873D02*
X11280017Y-15315778D01*
X11280017Y-15315778D02*
X11280017Y-15268159D01*
X11280017Y-15268159D02*
X11289541Y-15230064D01*
X11289541Y-15230064D02*
X11299065Y-15211016D01*
X11299065Y-15211016D02*
X11308588Y-15201492D01*
X11308588Y-15201492D02*
X11327636Y-15191969D01*
X11480017Y-15372921D02*
X11489541Y-15382445D01*
X11489541Y-15382445D02*
X11480017Y-15391969D01*
X11480017Y-15391969D02*
X11470493Y-15382445D01*
X11470493Y-15382445D02*
X11480017Y-15372921D01*
X11480017Y-15372921D02*
X11480017Y-15391969D01*
X11613350Y-15191969D02*
X11632398Y-15191969D01*
X11632398Y-15191969D02*
X11651446Y-15201492D01*
X11651446Y-15201492D02*
X11660969Y-15211016D01*
X11660969Y-15211016D02*
X11670493Y-15230064D01*
X11670493Y-15230064D02*
X11680017Y-15268159D01*
X11680017Y-15268159D02*
X11680017Y-15315778D01*
X11680017Y-15315778D02*
X11670493Y-15353873D01*
X11670493Y-15353873D02*
X11660969Y-15372921D01*
X11660969Y-15372921D02*
X11651446Y-15382445D01*
X11651446Y-15382445D02*
X11632398Y-15391969D01*
X11632398Y-15391969D02*
X11613350Y-15391969D01*
X11613350Y-15391969D02*
X11594303Y-15382445D01*
X11594303Y-15382445D02*
X11584779Y-15372921D01*
X11584779Y-15372921D02*
X11575255Y-15353873D01*
X11575255Y-15353873D02*
X11565731Y-15315778D01*
X11565731Y-15315778D02*
X11565731Y-15268159D01*
X11565731Y-15268159D02*
X11575255Y-15230064D01*
X11575255Y-15230064D02*
X11584779Y-15211016D01*
X11584779Y-15211016D02*
X11594303Y-15201492D01*
X11594303Y-15201492D02*
X11613350Y-15191969D01*
X11851446Y-15191969D02*
X11813350Y-15191969D01*
X11813350Y-15191969D02*
X11794303Y-15201492D01*
X11794303Y-15201492D02*
X11784779Y-15211016D01*
X11784779Y-15211016D02*
X11765731Y-15239588D01*
X11765731Y-15239588D02*
X11756207Y-15277683D01*
X11756207Y-15277683D02*
X11756207Y-15353873D01*
X11756207Y-15353873D02*
X11765731Y-15372921D01*
X11765731Y-15372921D02*
X11775255Y-15382445D01*
X11775255Y-15382445D02*
X11794303Y-15391969D01*
X11794303Y-15391969D02*
X11832398Y-15391969D01*
X11832398Y-15391969D02*
X11851446Y-15382445D01*
X11851446Y-15382445D02*
X11860969Y-15372921D01*
X11860969Y-15372921D02*
X11870493Y-15353873D01*
X11870493Y-15353873D02*
X11870493Y-15306254D01*
X11870493Y-15306254D02*
X11860969Y-15287207D01*
X11860969Y-15287207D02*
X11851446Y-15277683D01*
X11851446Y-15277683D02*
X11832398Y-15268159D01*
X11832398Y-15268159D02*
X11794303Y-15268159D01*
X11794303Y-15268159D02*
X11775255Y-15277683D01*
X11775255Y-15277683D02*
X11765731Y-15287207D01*
X11765731Y-15287207D02*
X11756207Y-15306254D01*
X11937160Y-15191969D02*
X12060969Y-15191969D01*
X12060969Y-15191969D02*
X11994303Y-15268159D01*
X11994303Y-15268159D02*
X12022874Y-15268159D01*
X12022874Y-15268159D02*
X12041922Y-15277683D01*
X12041922Y-15277683D02*
X12051446Y-15287207D01*
X12051446Y-15287207D02*
X12060969Y-15306254D01*
X12060969Y-15306254D02*
X12060969Y-15353873D01*
X12060969Y-15353873D02*
X12051446Y-15372921D01*
X12051446Y-15372921D02*
X12041922Y-15382445D01*
X12041922Y-15382445D02*
X12022874Y-15391969D01*
X12022874Y-15391969D02*
X11965731Y-15391969D01*
X11965731Y-15391969D02*
X11946684Y-15382445D01*
X11946684Y-15382445D02*
X11937160Y-15372921D01*
X12184779Y-15191969D02*
X12203827Y-15191969D01*
X12203827Y-15191969D02*
X12222874Y-15201492D01*
X12222874Y-15201492D02*
X12232398Y-15211016D01*
X12232398Y-15211016D02*
X12241922Y-15230064D01*
X12241922Y-15230064D02*
X12251446Y-15268159D01*
X12251446Y-15268159D02*
X12251446Y-15315778D01*
X12251446Y-15315778D02*
X12241922Y-15353873D01*
X12241922Y-15353873D02*
X12232398Y-15372921D01*
X12232398Y-15372921D02*
X12222874Y-15382445D01*
X12222874Y-15382445D02*
X12203827Y-15391969D01*
X12203827Y-15391969D02*
X12184779Y-15391969D01*
X12184779Y-15391969D02*
X12165731Y-15382445D01*
X12165731Y-15382445D02*
X12156207Y-15372921D01*
X12156207Y-15372921D02*
X12146684Y-15353873D01*
X12146684Y-15353873D02*
X12137160Y-15315778D01*
X12137160Y-15315778D02*
X12137160Y-15268159D01*
X12137160Y-15268159D02*
X12146684Y-15230064D01*
X12146684Y-15230064D02*
X12156207Y-15211016D01*
X12156207Y-15211016D02*
X12165731Y-15201492D01*
X12165731Y-15201492D02*
X12184779Y-15191969D01*
X12327636Y-15191969D02*
X12327636Y-15230064D01*
X12403827Y-15191969D02*
X12403827Y-15230064D01*
X12699065Y-15468159D02*
X12689541Y-15458635D01*
X12689541Y-15458635D02*
X12670493Y-15430064D01*
X12670493Y-15430064D02*
X12660969Y-15411016D01*
X12660969Y-15411016D02*
X12651446Y-15382445D01*
X12651446Y-15382445D02*
X12641922Y-15334826D01*
X12641922Y-15334826D02*
X12641922Y-15296731D01*
X12641922Y-15296731D02*
X12651446Y-15249111D01*
X12651446Y-15249111D02*
X12660969Y-15220540D01*
X12660969Y-15220540D02*
X12670493Y-15201492D01*
X12670493Y-15201492D02*
X12689541Y-15172921D01*
X12689541Y-15172921D02*
X12699065Y-15163397D01*
X12860969Y-15258635D02*
X12860969Y-15391969D01*
X12813350Y-15182445D02*
X12765731Y-15325302D01*
X12765731Y-15325302D02*
X12889541Y-15325302D01*
X12956208Y-15211016D02*
X12965731Y-15201492D01*
X12965731Y-15201492D02*
X12984779Y-15191969D01*
X12984779Y-15191969D02*
X13032398Y-15191969D01*
X13032398Y-15191969D02*
X13051446Y-15201492D01*
X13051446Y-15201492D02*
X13060969Y-15211016D01*
X13060969Y-15211016D02*
X13070493Y-15230064D01*
X13070493Y-15230064D02*
X13070493Y-15249111D01*
X13070493Y-15249111D02*
X13060969Y-15277683D01*
X13060969Y-15277683D02*
X12946684Y-15391969D01*
X12946684Y-15391969D02*
X13070493Y-15391969D01*
X13308589Y-15391969D02*
X13308589Y-15191969D01*
X13394303Y-15391969D02*
X13394303Y-15287207D01*
X13394303Y-15287207D02*
X13384779Y-15268159D01*
X13384779Y-15268159D02*
X13365731Y-15258635D01*
X13365731Y-15258635D02*
X13337160Y-15258635D01*
X13337160Y-15258635D02*
X13318112Y-15268159D01*
X13318112Y-15268159D02*
X13308589Y-15277683D01*
X13518112Y-15391969D02*
X13499065Y-15382445D01*
X13499065Y-15382445D02*
X13489541Y-15372921D01*
X13489541Y-15372921D02*
X13480017Y-15353873D01*
X13480017Y-15353873D02*
X13480017Y-15296731D01*
X13480017Y-15296731D02*
X13489541Y-15277683D01*
X13489541Y-15277683D02*
X13499065Y-15268159D01*
X13499065Y-15268159D02*
X13518112Y-15258635D01*
X13518112Y-15258635D02*
X13546684Y-15258635D01*
X13546684Y-15258635D02*
X13565731Y-15268159D01*
X13565731Y-15268159D02*
X13575255Y-15277683D01*
X13575255Y-15277683D02*
X13584779Y-15296731D01*
X13584779Y-15296731D02*
X13584779Y-15353873D01*
X13584779Y-15353873D02*
X13575255Y-15372921D01*
X13575255Y-15372921D02*
X13565731Y-15382445D01*
X13565731Y-15382445D02*
X13546684Y-15391969D01*
X13546684Y-15391969D02*
X13518112Y-15391969D01*
X13699065Y-15391969D02*
X13680017Y-15382445D01*
X13680017Y-15382445D02*
X13670493Y-15363397D01*
X13670493Y-15363397D02*
X13670493Y-15191969D01*
X13851446Y-15382445D02*
X13832398Y-15391969D01*
X13832398Y-15391969D02*
X13794303Y-15391969D01*
X13794303Y-15391969D02*
X13775255Y-15382445D01*
X13775255Y-15382445D02*
X13765731Y-15363397D01*
X13765731Y-15363397D02*
X13765731Y-15287207D01*
X13765731Y-15287207D02*
X13775255Y-15268159D01*
X13775255Y-15268159D02*
X13794303Y-15258635D01*
X13794303Y-15258635D02*
X13832398Y-15258635D01*
X13832398Y-15258635D02*
X13851446Y-15268159D01*
X13851446Y-15268159D02*
X13860970Y-15287207D01*
X13860970Y-15287207D02*
X13860970Y-15306254D01*
X13860970Y-15306254D02*
X13765731Y-15325302D01*
X13937160Y-15382445D02*
X13956208Y-15391969D01*
X13956208Y-15391969D02*
X13994303Y-15391969D01*
X13994303Y-15391969D02*
X14013351Y-15382445D01*
X14013351Y-15382445D02*
X14022874Y-15363397D01*
X14022874Y-15363397D02*
X14022874Y-15353873D01*
X14022874Y-15353873D02*
X14013351Y-15334826D01*
X14013351Y-15334826D02*
X13994303Y-15325302D01*
X13994303Y-15325302D02*
X13965731Y-15325302D01*
X13965731Y-15325302D02*
X13946684Y-15315778D01*
X13946684Y-15315778D02*
X13937160Y-15296731D01*
X13937160Y-15296731D02*
X13937160Y-15287207D01*
X13937160Y-15287207D02*
X13946684Y-15268159D01*
X13946684Y-15268159D02*
X13965731Y-15258635D01*
X13965731Y-15258635D02*
X13994303Y-15258635D01*
X13994303Y-15258635D02*
X14013351Y-15268159D01*
X14089541Y-15468159D02*
X14099065Y-15458635D01*
X14099065Y-15458635D02*
X14118112Y-15430064D01*
X14118112Y-15430064D02*
X14127636Y-15411016D01*
X14127636Y-15411016D02*
X14137160Y-15382445D01*
X14137160Y-15382445D02*
X14146684Y-15334826D01*
X14146684Y-15334826D02*
X14146684Y-15296731D01*
X14146684Y-15296731D02*
X14137160Y-15249111D01*
X14137160Y-15249111D02*
X14127636Y-15220540D01*
X14127636Y-15220540D02*
X14118112Y-15201492D01*
X14118112Y-15201492D02*
X14099065Y-15172921D01*
X14099065Y-15172921D02*
X14089541Y-15163397D01*
M02*
