M48
; DRILL file {KiCad 8.0.8+1} date 2025-07-09T05:02:12+0000
; FORMAT={-:-/ absolute / metric / decimal}
; #@! TF.CreationDate,2025-07-09T05:02:12+00:00
; #@! TF.GenerationSoftware,Kicad,Pcbnew,8.0.8+1
; #@! TF.FileFunction,Plated,1,2,PTH
FMAT,2
METRIC
; #@! TA.AperFunction,Plated,PTH,ViaDrill
T1C0.300
; #@! TA.AperFunction,Plated,PTH,ComponentDrill
T2C0.400
; #@! TA.AperFunction,Plated,PTH,ComponentDrill
T3C0.900
; #@! TA.AperFunction,Plated,PTH,ComponentDrill
T4C1.000
; #@! TA.AperFunction,Plated,PTH,ComponentDrill
T5C1.600
%
G90
G05
T1
X95.05Y-59.6
X95.05Y-77.1
X95.05Y-94.6
X95.94Y-61.0
X95.94Y-78.5
X95.94Y-96.0
X104.06Y-61.0
X104.06Y-78.5
X104.06Y-96.0
X104.95Y-59.6
X104.95Y-77.1
X104.95Y-94.6
X113.55Y-59.6
X113.55Y-75.4
X113.55Y-77.1
X113.55Y-92.9
X113.55Y-94.6
X114.44Y-61.0
X114.44Y-74.0
X114.44Y-78.5
X114.44Y-91.5
X114.44Y-96.0
X122.56Y-61.0
X122.56Y-74.0
X122.56Y-78.5
X122.56Y-91.5
X122.56Y-96.0
X123.45Y-59.6
X123.45Y-75.4
X123.45Y-77.1
X123.45Y-92.9
X123.45Y-94.6
X132.05Y-55.225
X132.05Y-72.725
X132.05Y-90.225
X132.94Y-56.625
X132.94Y-74.125
X132.94Y-91.625
X141.06Y-56.625
X141.06Y-74.125
X141.06Y-91.625
X141.95Y-55.225
X141.95Y-72.725
X141.95Y-90.225
X150.55Y-53.037
X150.55Y-68.837
X150.55Y-70.537
X150.55Y-88.037
X150.55Y-103.837
X151.44Y-54.438
X151.44Y-67.438
X151.44Y-71.938
X151.44Y-89.438
X151.44Y-102.438
X159.56Y-54.438
X159.56Y-67.438
X159.56Y-71.938
X159.56Y-89.438
X159.56Y-102.438
X159.8Y-108.537
X160.45Y-53.037
X160.45Y-68.837
X160.45Y-70.537
X160.45Y-88.037
X160.45Y-103.837
X160.69Y-109.938
X168.81Y-109.938
X169.05Y-55.225
X169.05Y-72.725
X169.05Y-90.225
X169.7Y-108.537
X169.94Y-56.625
X169.94Y-74.125
X169.94Y-91.625
X178.06Y-56.625
X178.06Y-74.125
X178.06Y-91.625
X178.95Y-55.225
X178.95Y-72.725
X178.95Y-90.225
X181.866Y-110.19
X182.364Y-111.773
X187.55Y-57.412
X187.55Y-73.212
X187.55Y-74.912
X187.55Y-92.412
X187.55Y-108.212
X188.44Y-58.812
X188.44Y-71.812
X188.44Y-76.312
X188.44Y-93.812
X188.44Y-106.812
X190.207Y-113.875
X191.429Y-112.753
X196.56Y-58.812
X196.56Y-71.812
X196.56Y-76.312
X196.56Y-93.812
X196.56Y-106.812
X197.45Y-57.412
X197.45Y-73.212
X197.45Y-74.912
X197.45Y-92.412
X197.45Y-108.212
X199.862Y-121.909
X201.52Y-121.838
X204.812Y-113.335
X205.58Y-114.806
T2
X208.804Y-61.92
X208.804Y-64.46
X208.804Y-67.0
X208.804Y-69.54
X208.804Y-72.08
X208.804Y-74.62
X208.804Y-77.16
X208.804Y-79.7
X208.804Y-82.24
X208.804Y-84.78
X208.804Y-87.32
X208.804Y-89.86
X215.604Y-61.92
X215.604Y-64.46
X215.604Y-67.0
X215.604Y-69.54
X215.604Y-72.08
X215.604Y-74.62
X215.604Y-77.16
X215.604Y-79.7
X215.604Y-82.24
X215.604Y-84.78
X215.604Y-87.32
X215.604Y-89.86
T4
X204.584Y-61.92
X204.584Y-64.46
X204.584Y-67.0
X204.584Y-69.54
X204.584Y-72.08
X204.584Y-74.62
X204.584Y-77.16
X204.584Y-79.7
X204.584Y-82.24
X204.584Y-84.78
X204.584Y-87.32
X204.584Y-89.86
X208.087Y-97.008
X210.627Y-97.008
X213.167Y-97.008
X215.707Y-97.008
X219.6Y-93.251
X219.6Y-99.751
X219.824Y-61.92
X219.824Y-64.46
X219.824Y-67.0
X219.824Y-69.54
X219.824Y-72.08
X219.824Y-74.62
X219.824Y-77.16
X219.824Y-79.7
X219.824Y-82.24
X219.824Y-84.78
X219.824Y-87.32
X219.824Y-89.86
T5
X95.0Y-59.85
X95.0Y-77.35
X95.0Y-94.85
X105.0Y-59.85
X105.0Y-77.35
X105.0Y-94.85
X113.5Y-59.85
X113.5Y-77.35
X113.5Y-94.85
X123.5Y-59.85
X123.5Y-77.35
X123.5Y-94.85
X132.0Y-55.475
X132.0Y-72.975
X132.0Y-90.475
X142.0Y-55.475
X142.0Y-72.975
X142.0Y-90.475
X150.5Y-53.287
X150.5Y-70.787
X150.5Y-88.287
X159.75Y-108.787
X160.5Y-53.287
X160.5Y-70.787
X160.5Y-88.287
X169.0Y-55.475
X169.0Y-72.975
X169.0Y-90.475
X169.75Y-108.787
X179.0Y-55.475
X179.0Y-72.975
X179.0Y-90.475
X181.753Y-110.419
X187.5Y-57.662
X187.5Y-75.162
X187.5Y-92.662
X191.413Y-113.007
X197.5Y-57.662
X197.5Y-75.162
X197.5Y-92.662
X200.054Y-122.077
X205.054Y-113.417
T3
X211.46Y-104.26G85X209.76Y-104.26
G05
X211.46Y-108.86G85X209.76Y-108.86
G05
X215.46Y-104.26G85X214.86Y-104.26
G05
X215.46Y-108.86G85X214.86Y-108.86
G05
X218.46Y-104.26G85X217.86Y-104.26
G05
X218.46Y-108.86G85X217.86Y-108.86
G05
M30
