G04 #@! TF.GenerationSoftware,KiCad,Pcbnew,8.0.8+1*
G04 #@! TF.CreationDate,2025-07-09T05:02:12+00:00*
G04 #@! TF.ProjectId,corney_island,636f726e-6579-45f6-9973-6c616e642e6b,0.2*
G04 #@! TF.SameCoordinates,Original*
G04 #@! TF.FileFunction,Profile,NP*
%FSLAX46Y46*%
G04 Gerber Fmt 4.6, Leading zero omitted, Abs format (unit mm)*
G04 Created by KiCad (PCBNEW 8.0.8+1) date 2025-07-09 05:02:12*
%MOMM*%
%LPD*%
G01*
G04 APERTURE LIST*
G04 #@! TA.AperFunction,Profile*
%ADD10C,0.150000*%
G04 #@! TD*
G04 #@! TA.AperFunction,Profile*
%ADD11C,0.120000*%
G04 #@! TD*
G04 APERTURE END LIST*
D10*
X91316981Y-108012450D02*
X91315019Y-57202506D01*
X91815006Y-56702486D02*
X127815014Y-56701514D01*
X128315000Y-56201514D02*
X128315000Y-52827500D01*
X128815000Y-52327500D02*
X146315000Y-52327500D01*
X146815000Y-51827500D02*
X146815000Y-50752500D01*
X147315000Y-50252500D02*
X163843000Y-50252500D01*
X164343000Y-50752500D02*
X164343000Y-51827500D01*
X164843000Y-52327500D02*
X182343000Y-52327500D01*
X182843000Y-52827500D02*
X182843000Y-54123122D01*
X183342878Y-54623122D02*
X200837063Y-54627377D01*
X201336905Y-55133401D02*
X201324097Y-56196476D01*
X221253000Y-112909096D02*
X207799933Y-135723804D01*
X207119235Y-135902849D02*
X193184927Y-127857872D01*
X193008466Y-127796322D02*
X156246981Y-122330034D01*
X155921790Y-122137157D02*
X145757574Y-108703349D01*
X145358774Y-108505034D02*
X91817050Y-108512431D01*
X201824060Y-56702500D02*
X221068000Y-56702500D01*
X221568000Y-57202500D02*
X221568000Y-112229525D01*
X221501013Y-112479525D02*
X221253000Y-112909096D01*
X91315019Y-57202506D02*
G75*
G02*
X91815006Y-56702519I499981J6D01*
G01*
X128315000Y-56201514D02*
G75*
G02*
X127815013Y-56701500I-500000J14D01*
G01*
X128315000Y-52827500D02*
G75*
G02*
X128815000Y-52327500I500000J0D01*
G01*
X146815000Y-51827500D02*
G75*
G02*
X146315000Y-52327500I-500000J0D01*
G01*
X146815000Y-50752500D02*
G75*
G02*
X147315000Y-50252500I500000J0D01*
G01*
X163843000Y-50252500D02*
G75*
G02*
X164343000Y-50752500I0J-500000D01*
G01*
X164843000Y-52327500D02*
G75*
G02*
X164343000Y-51827500I0J500000D01*
G01*
X182343000Y-52327500D02*
G75*
G02*
X182843000Y-52827500I0J-500000D01*
G01*
X183342878Y-54623122D02*
G75*
G02*
X182842978Y-54123122I122J500022D01*
G01*
X200837063Y-54627377D02*
G75*
G02*
X201336887Y-55133401I-163J-500023D01*
G01*
X201824060Y-56702500D02*
G75*
G02*
X201324136Y-56196476I40J500000D01*
G01*
X221068000Y-56702500D02*
G75*
G02*
X221568000Y-57202500I0J-500000D01*
G01*
X221568000Y-112229525D02*
G75*
G02*
X221501002Y-112479519I-500000J25D01*
G01*
X207799933Y-135723804D02*
G75*
G02*
X207119217Y-135902879I-430733J254004D01*
G01*
X193008466Y-127796322D02*
G75*
G02*
X193184923Y-127857878I-73566J-494578D01*
G01*
X156246981Y-122330034D02*
G75*
G02*
X155921788Y-122137158I73519J494534D01*
G01*
X145358774Y-108505034D02*
G75*
G02*
X145757536Y-108703378I26J-499966D01*
G01*
X91817050Y-108512431D02*
G75*
G02*
X91316969Y-108012450I-50J500031D01*
G01*
D11*
X98200000Y-93750000D02*
X101800000Y-93750000D01*
X101800000Y-96850000D01*
X98200000Y-96850000D01*
X98200000Y-93750000D01*
X98200000Y-76250000D02*
X101800000Y-76250000D01*
X101800000Y-79350000D01*
X98200000Y-79350000D01*
X98200000Y-76250000D01*
X98200000Y-58750000D02*
X101800000Y-58750000D01*
X101800000Y-61850000D01*
X98200000Y-61850000D01*
X98200000Y-58750000D01*
X116700000Y-93750000D02*
X120300000Y-93750000D01*
X120300000Y-96850000D01*
X116700000Y-96850000D01*
X116700000Y-93750000D01*
X116700000Y-76250000D02*
X120300000Y-76250000D01*
X120300000Y-79350000D01*
X116700000Y-79350000D01*
X116700000Y-76250000D01*
X116700000Y-58750000D02*
X120300000Y-58750000D01*
X120300000Y-61850000D01*
X116700000Y-61850000D01*
X116700000Y-58750000D01*
X135200000Y-89375000D02*
X138800000Y-89375000D01*
X138800000Y-92475000D01*
X135200000Y-92475000D01*
X135200000Y-89375000D01*
X135200000Y-71875000D02*
X138800000Y-71875000D01*
X138800000Y-74975000D01*
X135200000Y-74975000D01*
X135200000Y-71875000D01*
X135200000Y-54375000D02*
X138800000Y-54375000D01*
X138800000Y-57475000D01*
X135200000Y-57475000D01*
X135200000Y-54375000D01*
X153700000Y-87187500D02*
X157300000Y-87187500D01*
X157300000Y-90287500D01*
X153700000Y-90287500D01*
X153700000Y-87187500D01*
X153700000Y-69687500D02*
X157300000Y-69687500D01*
X157300000Y-72787500D01*
X153700000Y-72787500D01*
X153700000Y-69687500D01*
X153700000Y-52187500D02*
X157300000Y-52187500D01*
X157300000Y-55287500D01*
X153700000Y-55287500D01*
X153700000Y-52187500D01*
X172200000Y-89375000D02*
X175800000Y-89375000D01*
X175800000Y-92475000D01*
X172200000Y-92475000D01*
X172200000Y-89375000D01*
X172200000Y-71875000D02*
X175800000Y-71875000D01*
X175800000Y-74975000D01*
X172200000Y-74975000D01*
X172200000Y-71875000D01*
X172200000Y-54375000D02*
X175800000Y-54375000D01*
X175800000Y-57475000D01*
X172200000Y-57475000D01*
X172200000Y-54375000D01*
X190700000Y-91562500D02*
X194300000Y-91562500D01*
X194300000Y-94662500D01*
X190700000Y-94662500D01*
X190700000Y-91562500D01*
X190700000Y-74062500D02*
X194300000Y-74062500D01*
X194300000Y-77162500D01*
X190700000Y-77162500D01*
X190700000Y-74062500D01*
X190700000Y-56562500D02*
X194300000Y-56562500D01*
X194300000Y-59662500D01*
X190700000Y-59662500D01*
X190700000Y-56562500D01*
X162950000Y-107687500D02*
X166550000Y-107687500D01*
X166550000Y-110787500D01*
X162950000Y-110787500D01*
X162950000Y-107687500D01*
X188606286Y-111116338D02*
X187803947Y-114110708D01*
X184326614Y-113178960D01*
X185128953Y-110184590D01*
X188606286Y-111116338D01*
X205185863Y-117188402D02*
X203385863Y-120306094D01*
X200701185Y-118756094D01*
X202501185Y-115638402D01*
X205185863Y-117188402D01*
X194300000Y-74062500D02*
X190700000Y-74062500D01*
X190700000Y-70962500D01*
X194300000Y-70962500D01*
X194300000Y-74062500D01*
X157300000Y-69687500D02*
X153700000Y-69687500D01*
X153700000Y-66587500D01*
X157300000Y-66587500D01*
X157300000Y-69687500D01*
X120300000Y-76250000D02*
X116700000Y-76250000D01*
X116700000Y-73150000D01*
X120300000Y-73150000D01*
X120300000Y-76250000D01*
X120300000Y-93750000D02*
X116700000Y-93750000D01*
X116700000Y-90650000D01*
X120300000Y-90650000D01*
X120300000Y-93750000D01*
X157300000Y-104687500D02*
X153700000Y-104687500D01*
X153700000Y-101587500D01*
X157300000Y-101587500D01*
X157300000Y-104687500D01*
X194300000Y-109062500D02*
X190700000Y-109062500D01*
X190700000Y-105962500D01*
X194300000Y-105962500D01*
X194300000Y-109062500D01*
M02*
