G04 #@! TF.GenerationSoftware,KiCad,Pcbnew,8.0.8+1*
G04 #@! TF.CreationDate,2025-07-09T05:02:12+00:00*
G04 #@! TF.ProjectId,corney_island,636f726e-6579-45f6-9973-6c616e642e6b,0.2*
G04 #@! TF.SameCoordinates,Original*
G04 #@! TF.FileFunction,Legend,Bot*
G04 #@! TF.FilePolarity,Positive*
%FSLAX46Y46*%
G04 Gerber Fmt 4.6, Leading zero omitted, Abs format (unit mm)*
G04 Created by KiCad (PCBNEW 8.0.8+1) date 2025-07-09 05:02:12*
%MOMM*%
%LPD*%
G01*
G04 APERTURE LIST*
%ADD10C,0.150000*%
%ADD11C,0.100000*%
%ADD12C,0.120000*%
%ADD13C,2.300000*%
%ADD14C,4.400000*%
%ADD15C,5.100000*%
%ADD16C,2.000000*%
%ADD17C,3.100000*%
%ADD18C,1.800000*%
%ADD19C,0.900000*%
%ADD20O,1.800000X1.800000*%
%ADD21C,1.600000*%
%ADD22O,2.300000X1.700000*%
%ADD23O,3.400000X1.700000*%
G04 APERTURE END LIST*
D10*
X141619048Y-106454819D02*
X141619048Y-107169104D01*
X141619048Y-107169104D02*
X141666667Y-107311961D01*
X141666667Y-107311961D02*
X141761905Y-107407200D01*
X141761905Y-107407200D02*
X141904762Y-107454819D01*
X141904762Y-107454819D02*
X142000000Y-107454819D01*
X140666667Y-107454819D02*
X141142857Y-107454819D01*
X141142857Y-107454819D02*
X141142857Y-106454819D01*
X139761905Y-107359580D02*
X139809524Y-107407200D01*
X139809524Y-107407200D02*
X139952381Y-107454819D01*
X139952381Y-107454819D02*
X140047619Y-107454819D01*
X140047619Y-107454819D02*
X140190476Y-107407200D01*
X140190476Y-107407200D02*
X140285714Y-107311961D01*
X140285714Y-107311961D02*
X140333333Y-107216723D01*
X140333333Y-107216723D02*
X140380952Y-107026247D01*
X140380952Y-107026247D02*
X140380952Y-106883390D01*
X140380952Y-106883390D02*
X140333333Y-106692914D01*
X140333333Y-106692914D02*
X140285714Y-106597676D01*
X140285714Y-106597676D02*
X140190476Y-106502438D01*
X140190476Y-106502438D02*
X140047619Y-106454819D01*
X140047619Y-106454819D02*
X139952381Y-106454819D01*
X139952381Y-106454819D02*
X139809524Y-106502438D01*
X139809524Y-106502438D02*
X139761905Y-106550057D01*
X139047619Y-106454819D02*
X139047619Y-107169104D01*
X139047619Y-107169104D02*
X139095238Y-107311961D01*
X139095238Y-107311961D02*
X139190476Y-107407200D01*
X139190476Y-107407200D02*
X139333333Y-107454819D01*
X139333333Y-107454819D02*
X139428571Y-107454819D01*
X138095238Y-107454819D02*
X138571428Y-107454819D01*
X138571428Y-107454819D02*
X138571428Y-106454819D01*
X137190476Y-107359580D02*
X137238095Y-107407200D01*
X137238095Y-107407200D02*
X137380952Y-107454819D01*
X137380952Y-107454819D02*
X137476190Y-107454819D01*
X137476190Y-107454819D02*
X137619047Y-107407200D01*
X137619047Y-107407200D02*
X137714285Y-107311961D01*
X137714285Y-107311961D02*
X137761904Y-107216723D01*
X137761904Y-107216723D02*
X137809523Y-107026247D01*
X137809523Y-107026247D02*
X137809523Y-106883390D01*
X137809523Y-106883390D02*
X137761904Y-106692914D01*
X137761904Y-106692914D02*
X137714285Y-106597676D01*
X137714285Y-106597676D02*
X137619047Y-106502438D01*
X137619047Y-106502438D02*
X137476190Y-106454819D01*
X137476190Y-106454819D02*
X137380952Y-106454819D01*
X137380952Y-106454819D02*
X137238095Y-106502438D01*
X137238095Y-106502438D02*
X137190476Y-106550057D01*
X136476190Y-106454819D02*
X136476190Y-107169104D01*
X136476190Y-107169104D02*
X136523809Y-107311961D01*
X136523809Y-107311961D02*
X136619047Y-107407200D01*
X136619047Y-107407200D02*
X136761904Y-107454819D01*
X136761904Y-107454819D02*
X136857142Y-107454819D01*
X135523809Y-107454819D02*
X135999999Y-107454819D01*
X135999999Y-107454819D02*
X135999999Y-106454819D01*
X134619047Y-107359580D02*
X134666666Y-107407200D01*
X134666666Y-107407200D02*
X134809523Y-107454819D01*
X134809523Y-107454819D02*
X134904761Y-107454819D01*
X134904761Y-107454819D02*
X135047618Y-107407200D01*
X135047618Y-107407200D02*
X135142856Y-107311961D01*
X135142856Y-107311961D02*
X135190475Y-107216723D01*
X135190475Y-107216723D02*
X135238094Y-107026247D01*
X135238094Y-107026247D02*
X135238094Y-106883390D01*
X135238094Y-106883390D02*
X135190475Y-106692914D01*
X135190475Y-106692914D02*
X135142856Y-106597676D01*
X135142856Y-106597676D02*
X135047618Y-106502438D01*
X135047618Y-106502438D02*
X134904761Y-106454819D01*
X134904761Y-106454819D02*
X134809523Y-106454819D01*
X134809523Y-106454819D02*
X134666666Y-106502438D01*
X134666666Y-106502438D02*
X134619047Y-106550057D01*
X133904761Y-106454819D02*
X133904761Y-107169104D01*
X133904761Y-107169104D02*
X133952380Y-107311961D01*
X133952380Y-107311961D02*
X134047618Y-107407200D01*
X134047618Y-107407200D02*
X134190475Y-107454819D01*
X134190475Y-107454819D02*
X134285713Y-107454819D01*
X132952380Y-107454819D02*
X133428570Y-107454819D01*
X133428570Y-107454819D02*
X133428570Y-106454819D01*
X132047618Y-107359580D02*
X132095237Y-107407200D01*
X132095237Y-107407200D02*
X132238094Y-107454819D01*
X132238094Y-107454819D02*
X132333332Y-107454819D01*
X132333332Y-107454819D02*
X132476189Y-107407200D01*
X132476189Y-107407200D02*
X132571427Y-107311961D01*
X132571427Y-107311961D02*
X132619046Y-107216723D01*
X132619046Y-107216723D02*
X132666665Y-107026247D01*
X132666665Y-107026247D02*
X132666665Y-106883390D01*
X132666665Y-106883390D02*
X132619046Y-106692914D01*
X132619046Y-106692914D02*
X132571427Y-106597676D01*
X132571427Y-106597676D02*
X132476189Y-106502438D01*
X132476189Y-106502438D02*
X132333332Y-106454819D01*
X132333332Y-106454819D02*
X132238094Y-106454819D01*
X132238094Y-106454819D02*
X132095237Y-106502438D01*
X132095237Y-106502438D02*
X132047618Y-106550057D01*
X211396857Y-62374819D02*
X211873047Y-62374819D01*
X211873047Y-62374819D02*
X211873047Y-61374819D01*
X211063523Y-61851009D02*
X210730190Y-61851009D01*
X210587333Y-62374819D02*
X211063523Y-62374819D01*
X211063523Y-62374819D02*
X211063523Y-61374819D01*
X211063523Y-61374819D02*
X210587333Y-61374819D01*
X210158761Y-62374819D02*
X210158761Y-61374819D01*
X210158761Y-61374819D02*
X209920666Y-61374819D01*
X209920666Y-61374819D02*
X209777809Y-61422438D01*
X209777809Y-61422438D02*
X209682571Y-61517676D01*
X209682571Y-61517676D02*
X209634952Y-61612914D01*
X209634952Y-61612914D02*
X209587333Y-61803390D01*
X209587333Y-61803390D02*
X209587333Y-61946247D01*
X209587333Y-61946247D02*
X209634952Y-62136723D01*
X209634952Y-62136723D02*
X209682571Y-62231961D01*
X209682571Y-62231961D02*
X209777809Y-62327200D01*
X209777809Y-62327200D02*
X209920666Y-62374819D01*
X209920666Y-62374819D02*
X210158761Y-62374819D01*
X214344476Y-62374819D02*
X214677809Y-61898628D01*
X214915904Y-62374819D02*
X214915904Y-61374819D01*
X214915904Y-61374819D02*
X214534952Y-61374819D01*
X214534952Y-61374819D02*
X214439714Y-61422438D01*
X214439714Y-61422438D02*
X214392095Y-61470057D01*
X214392095Y-61470057D02*
X214344476Y-61565295D01*
X214344476Y-61565295D02*
X214344476Y-61708152D01*
X214344476Y-61708152D02*
X214392095Y-61803390D01*
X214392095Y-61803390D02*
X214439714Y-61851009D01*
X214439714Y-61851009D02*
X214534952Y-61898628D01*
X214534952Y-61898628D02*
X214915904Y-61898628D01*
X213963523Y-62089104D02*
X213487333Y-62089104D01*
X214058761Y-62374819D02*
X213725428Y-61374819D01*
X213725428Y-61374819D02*
X213392095Y-62374819D01*
X213153999Y-61374819D02*
X212915904Y-62374819D01*
X212915904Y-62374819D02*
X212725428Y-61660533D01*
X212725428Y-61660533D02*
X212534952Y-62374819D01*
X212534952Y-62374819D02*
X212296857Y-61374819D01*
X211825428Y-64914819D02*
X211825428Y-63914819D01*
X211825428Y-63914819D02*
X211587333Y-63914819D01*
X211587333Y-63914819D02*
X211444476Y-63962438D01*
X211444476Y-63962438D02*
X211349238Y-64057676D01*
X211349238Y-64057676D02*
X211301619Y-64152914D01*
X211301619Y-64152914D02*
X211254000Y-64343390D01*
X211254000Y-64343390D02*
X211254000Y-64486247D01*
X211254000Y-64486247D02*
X211301619Y-64676723D01*
X211301619Y-64676723D02*
X211349238Y-64771961D01*
X211349238Y-64771961D02*
X211444476Y-64867200D01*
X211444476Y-64867200D02*
X211587333Y-64914819D01*
X211587333Y-64914819D02*
X211825428Y-64914819D01*
X210873047Y-64629104D02*
X210396857Y-64629104D01*
X210968285Y-64914819D02*
X210634952Y-63914819D01*
X210634952Y-63914819D02*
X210301619Y-64914819D01*
X210111142Y-63914819D02*
X209539714Y-63914819D01*
X209825428Y-64914819D02*
X209825428Y-63914819D01*
X214415904Y-63962438D02*
X214511142Y-63914819D01*
X214511142Y-63914819D02*
X214653999Y-63914819D01*
X214653999Y-63914819D02*
X214796856Y-63962438D01*
X214796856Y-63962438D02*
X214892094Y-64057676D01*
X214892094Y-64057676D02*
X214939713Y-64152914D01*
X214939713Y-64152914D02*
X214987332Y-64343390D01*
X214987332Y-64343390D02*
X214987332Y-64486247D01*
X214987332Y-64486247D02*
X214939713Y-64676723D01*
X214939713Y-64676723D02*
X214892094Y-64771961D01*
X214892094Y-64771961D02*
X214796856Y-64867200D01*
X214796856Y-64867200D02*
X214653999Y-64914819D01*
X214653999Y-64914819D02*
X214558761Y-64914819D01*
X214558761Y-64914819D02*
X214415904Y-64867200D01*
X214415904Y-64867200D02*
X214368285Y-64819580D01*
X214368285Y-64819580D02*
X214368285Y-64486247D01*
X214368285Y-64486247D02*
X214558761Y-64486247D01*
X213939713Y-64914819D02*
X213939713Y-63914819D01*
X213939713Y-63914819D02*
X213368285Y-64914819D01*
X213368285Y-64914819D02*
X213368285Y-63914819D01*
X212892094Y-64914819D02*
X212892094Y-63914819D01*
X212892094Y-63914819D02*
X212653999Y-63914819D01*
X212653999Y-63914819D02*
X212511142Y-63962438D01*
X212511142Y-63962438D02*
X212415904Y-64057676D01*
X212415904Y-64057676D02*
X212368285Y-64152914D01*
X212368285Y-64152914D02*
X212320666Y-64343390D01*
X212320666Y-64343390D02*
X212320666Y-64486247D01*
X212320666Y-64486247D02*
X212368285Y-64676723D01*
X212368285Y-64676723D02*
X212415904Y-64771961D01*
X212415904Y-64771961D02*
X212511142Y-64867200D01*
X212511142Y-64867200D02*
X212653999Y-64914819D01*
X212653999Y-64914819D02*
X212892094Y-64914819D01*
X211515904Y-66502438D02*
X211611142Y-66454819D01*
X211611142Y-66454819D02*
X211753999Y-66454819D01*
X211753999Y-66454819D02*
X211896856Y-66502438D01*
X211896856Y-66502438D02*
X211992094Y-66597676D01*
X211992094Y-66597676D02*
X212039713Y-66692914D01*
X212039713Y-66692914D02*
X212087332Y-66883390D01*
X212087332Y-66883390D02*
X212087332Y-67026247D01*
X212087332Y-67026247D02*
X212039713Y-67216723D01*
X212039713Y-67216723D02*
X211992094Y-67311961D01*
X211992094Y-67311961D02*
X211896856Y-67407200D01*
X211896856Y-67407200D02*
X211753999Y-67454819D01*
X211753999Y-67454819D02*
X211658761Y-67454819D01*
X211658761Y-67454819D02*
X211515904Y-67407200D01*
X211515904Y-67407200D02*
X211468285Y-67359580D01*
X211468285Y-67359580D02*
X211468285Y-67026247D01*
X211468285Y-67026247D02*
X211658761Y-67026247D01*
X211039713Y-67454819D02*
X211039713Y-66454819D01*
X211039713Y-66454819D02*
X210468285Y-67454819D01*
X210468285Y-67454819D02*
X210468285Y-66454819D01*
X209992094Y-67454819D02*
X209992094Y-66454819D01*
X209992094Y-66454819D02*
X209753999Y-66454819D01*
X209753999Y-66454819D02*
X209611142Y-66502438D01*
X209611142Y-66502438D02*
X209515904Y-66597676D01*
X209515904Y-66597676D02*
X209468285Y-66692914D01*
X209468285Y-66692914D02*
X209420666Y-66883390D01*
X209420666Y-66883390D02*
X209420666Y-67026247D01*
X209420666Y-67026247D02*
X209468285Y-67216723D01*
X209468285Y-67216723D02*
X209515904Y-67311961D01*
X209515904Y-67311961D02*
X209611142Y-67407200D01*
X209611142Y-67407200D02*
X209753999Y-67454819D01*
X209753999Y-67454819D02*
X209992094Y-67454819D01*
X214201619Y-67454819D02*
X214534952Y-66978628D01*
X214773047Y-67454819D02*
X214773047Y-66454819D01*
X214773047Y-66454819D02*
X214392095Y-66454819D01*
X214392095Y-66454819D02*
X214296857Y-66502438D01*
X214296857Y-66502438D02*
X214249238Y-66550057D01*
X214249238Y-66550057D02*
X214201619Y-66645295D01*
X214201619Y-66645295D02*
X214201619Y-66788152D01*
X214201619Y-66788152D02*
X214249238Y-66883390D01*
X214249238Y-66883390D02*
X214296857Y-66931009D01*
X214296857Y-66931009D02*
X214392095Y-66978628D01*
X214392095Y-66978628D02*
X214773047Y-66978628D01*
X213820666Y-67407200D02*
X213677809Y-67454819D01*
X213677809Y-67454819D02*
X213439714Y-67454819D01*
X213439714Y-67454819D02*
X213344476Y-67407200D01*
X213344476Y-67407200D02*
X213296857Y-67359580D01*
X213296857Y-67359580D02*
X213249238Y-67264342D01*
X213249238Y-67264342D02*
X213249238Y-67169104D01*
X213249238Y-67169104D02*
X213296857Y-67073866D01*
X213296857Y-67073866D02*
X213344476Y-67026247D01*
X213344476Y-67026247D02*
X213439714Y-66978628D01*
X213439714Y-66978628D02*
X213630190Y-66931009D01*
X213630190Y-66931009D02*
X213725428Y-66883390D01*
X213725428Y-66883390D02*
X213773047Y-66835771D01*
X213773047Y-66835771D02*
X213820666Y-66740533D01*
X213820666Y-66740533D02*
X213820666Y-66645295D01*
X213820666Y-66645295D02*
X213773047Y-66550057D01*
X213773047Y-66550057D02*
X213725428Y-66502438D01*
X213725428Y-66502438D02*
X213630190Y-66454819D01*
X213630190Y-66454819D02*
X213392095Y-66454819D01*
X213392095Y-66454819D02*
X213249238Y-66502438D01*
X212963523Y-66454819D02*
X212392095Y-66454819D01*
X212677809Y-67454819D02*
X212677809Y-66454819D01*
X211515904Y-69042438D02*
X211611142Y-68994819D01*
X211611142Y-68994819D02*
X211753999Y-68994819D01*
X211753999Y-68994819D02*
X211896856Y-69042438D01*
X211896856Y-69042438D02*
X211992094Y-69137676D01*
X211992094Y-69137676D02*
X212039713Y-69232914D01*
X212039713Y-69232914D02*
X212087332Y-69423390D01*
X212087332Y-69423390D02*
X212087332Y-69566247D01*
X212087332Y-69566247D02*
X212039713Y-69756723D01*
X212039713Y-69756723D02*
X211992094Y-69851961D01*
X211992094Y-69851961D02*
X211896856Y-69947200D01*
X211896856Y-69947200D02*
X211753999Y-69994819D01*
X211753999Y-69994819D02*
X211658761Y-69994819D01*
X211658761Y-69994819D02*
X211515904Y-69947200D01*
X211515904Y-69947200D02*
X211468285Y-69899580D01*
X211468285Y-69899580D02*
X211468285Y-69566247D01*
X211468285Y-69566247D02*
X211658761Y-69566247D01*
X211039713Y-69994819D02*
X211039713Y-68994819D01*
X211039713Y-68994819D02*
X210468285Y-69994819D01*
X210468285Y-69994819D02*
X210468285Y-68994819D01*
X209992094Y-69994819D02*
X209992094Y-68994819D01*
X209992094Y-68994819D02*
X209753999Y-68994819D01*
X209753999Y-68994819D02*
X209611142Y-69042438D01*
X209611142Y-69042438D02*
X209515904Y-69137676D01*
X209515904Y-69137676D02*
X209468285Y-69232914D01*
X209468285Y-69232914D02*
X209420666Y-69423390D01*
X209420666Y-69423390D02*
X209420666Y-69566247D01*
X209420666Y-69566247D02*
X209468285Y-69756723D01*
X209468285Y-69756723D02*
X209515904Y-69851961D01*
X209515904Y-69851961D02*
X209611142Y-69947200D01*
X209611142Y-69947200D02*
X209753999Y-69994819D01*
X209753999Y-69994819D02*
X209992094Y-69994819D01*
X214987332Y-68994819D02*
X214653999Y-69994819D01*
X214653999Y-69994819D02*
X214320666Y-68994819D01*
X213415904Y-69899580D02*
X213463523Y-69947200D01*
X213463523Y-69947200D02*
X213606380Y-69994819D01*
X213606380Y-69994819D02*
X213701618Y-69994819D01*
X213701618Y-69994819D02*
X213844475Y-69947200D01*
X213844475Y-69947200D02*
X213939713Y-69851961D01*
X213939713Y-69851961D02*
X213987332Y-69756723D01*
X213987332Y-69756723D02*
X214034951Y-69566247D01*
X214034951Y-69566247D02*
X214034951Y-69423390D01*
X214034951Y-69423390D02*
X213987332Y-69232914D01*
X213987332Y-69232914D02*
X213939713Y-69137676D01*
X213939713Y-69137676D02*
X213844475Y-69042438D01*
X213844475Y-69042438D02*
X213701618Y-68994819D01*
X213701618Y-68994819D02*
X213606380Y-68994819D01*
X213606380Y-68994819D02*
X213463523Y-69042438D01*
X213463523Y-69042438D02*
X213415904Y-69090057D01*
X212415904Y-69899580D02*
X212463523Y-69947200D01*
X212463523Y-69947200D02*
X212606380Y-69994819D01*
X212606380Y-69994819D02*
X212701618Y-69994819D01*
X212701618Y-69994819D02*
X212844475Y-69947200D01*
X212844475Y-69947200D02*
X212939713Y-69851961D01*
X212939713Y-69851961D02*
X212987332Y-69756723D01*
X212987332Y-69756723D02*
X213034951Y-69566247D01*
X213034951Y-69566247D02*
X213034951Y-69423390D01*
X213034951Y-69423390D02*
X212987332Y-69232914D01*
X212987332Y-69232914D02*
X212939713Y-69137676D01*
X212939713Y-69137676D02*
X212844475Y-69042438D01*
X212844475Y-69042438D02*
X212701618Y-68994819D01*
X212701618Y-68994819D02*
X212606380Y-68994819D01*
X212606380Y-68994819D02*
X212463523Y-69042438D01*
X212463523Y-69042438D02*
X212415904Y-69090057D01*
X211968285Y-72487200D02*
X211825428Y-72534819D01*
X211825428Y-72534819D02*
X211587333Y-72534819D01*
X211587333Y-72534819D02*
X211492095Y-72487200D01*
X211492095Y-72487200D02*
X211444476Y-72439580D01*
X211444476Y-72439580D02*
X211396857Y-72344342D01*
X211396857Y-72344342D02*
X211396857Y-72249104D01*
X211396857Y-72249104D02*
X211444476Y-72153866D01*
X211444476Y-72153866D02*
X211492095Y-72106247D01*
X211492095Y-72106247D02*
X211587333Y-72058628D01*
X211587333Y-72058628D02*
X211777809Y-72011009D01*
X211777809Y-72011009D02*
X211873047Y-71963390D01*
X211873047Y-71963390D02*
X211920666Y-71915771D01*
X211920666Y-71915771D02*
X211968285Y-71820533D01*
X211968285Y-71820533D02*
X211968285Y-71725295D01*
X211968285Y-71725295D02*
X211920666Y-71630057D01*
X211920666Y-71630057D02*
X211873047Y-71582438D01*
X211873047Y-71582438D02*
X211777809Y-71534819D01*
X211777809Y-71534819D02*
X211539714Y-71534819D01*
X211539714Y-71534819D02*
X211396857Y-71582438D01*
X210968285Y-72534819D02*
X210968285Y-71534819D01*
X210968285Y-71534819D02*
X210730190Y-71534819D01*
X210730190Y-71534819D02*
X210587333Y-71582438D01*
X210587333Y-71582438D02*
X210492095Y-71677676D01*
X210492095Y-71677676D02*
X210444476Y-71772914D01*
X210444476Y-71772914D02*
X210396857Y-71963390D01*
X210396857Y-71963390D02*
X210396857Y-72106247D01*
X210396857Y-72106247D02*
X210444476Y-72296723D01*
X210444476Y-72296723D02*
X210492095Y-72391961D01*
X210492095Y-72391961D02*
X210587333Y-72487200D01*
X210587333Y-72487200D02*
X210730190Y-72534819D01*
X210730190Y-72534819D02*
X210968285Y-72534819D01*
X210015904Y-72249104D02*
X209539714Y-72249104D01*
X210111142Y-72534819D02*
X209777809Y-71534819D01*
X209777809Y-71534819D02*
X209444476Y-72534819D01*
X214410666Y-72439580D02*
X214458285Y-72487200D01*
X214458285Y-72487200D02*
X214601142Y-72534819D01*
X214601142Y-72534819D02*
X214696380Y-72534819D01*
X214696380Y-72534819D02*
X214839237Y-72487200D01*
X214839237Y-72487200D02*
X214934475Y-72391961D01*
X214934475Y-72391961D02*
X214982094Y-72296723D01*
X214982094Y-72296723D02*
X215029713Y-72106247D01*
X215029713Y-72106247D02*
X215029713Y-71963390D01*
X215029713Y-71963390D02*
X214982094Y-71772914D01*
X214982094Y-71772914D02*
X214934475Y-71677676D01*
X214934475Y-71677676D02*
X214839237Y-71582438D01*
X214839237Y-71582438D02*
X214696380Y-71534819D01*
X214696380Y-71534819D02*
X214601142Y-71534819D01*
X214601142Y-71534819D02*
X214458285Y-71582438D01*
X214458285Y-71582438D02*
X214410666Y-71630057D01*
X213791618Y-71534819D02*
X213696380Y-71534819D01*
X213696380Y-71534819D02*
X213601142Y-71582438D01*
X213601142Y-71582438D02*
X213553523Y-71630057D01*
X213553523Y-71630057D02*
X213505904Y-71725295D01*
X213505904Y-71725295D02*
X213458285Y-71915771D01*
X213458285Y-71915771D02*
X213458285Y-72153866D01*
X213458285Y-72153866D02*
X213505904Y-72344342D01*
X213505904Y-72344342D02*
X213553523Y-72439580D01*
X213553523Y-72439580D02*
X213601142Y-72487200D01*
X213601142Y-72487200D02*
X213696380Y-72534819D01*
X213696380Y-72534819D02*
X213791618Y-72534819D01*
X213791618Y-72534819D02*
X213886856Y-72487200D01*
X213886856Y-72487200D02*
X213934475Y-72439580D01*
X213934475Y-72439580D02*
X213982094Y-72344342D01*
X213982094Y-72344342D02*
X214029713Y-72153866D01*
X214029713Y-72153866D02*
X214029713Y-71915771D01*
X214029713Y-71915771D02*
X213982094Y-71725295D01*
X213982094Y-71725295D02*
X213934475Y-71630057D01*
X213934475Y-71630057D02*
X213886856Y-71582438D01*
X213886856Y-71582438D02*
X213791618Y-71534819D01*
X211944475Y-75027200D02*
X211801618Y-75074819D01*
X211801618Y-75074819D02*
X211563523Y-75074819D01*
X211563523Y-75074819D02*
X211468285Y-75027200D01*
X211468285Y-75027200D02*
X211420666Y-74979580D01*
X211420666Y-74979580D02*
X211373047Y-74884342D01*
X211373047Y-74884342D02*
X211373047Y-74789104D01*
X211373047Y-74789104D02*
X211420666Y-74693866D01*
X211420666Y-74693866D02*
X211468285Y-74646247D01*
X211468285Y-74646247D02*
X211563523Y-74598628D01*
X211563523Y-74598628D02*
X211753999Y-74551009D01*
X211753999Y-74551009D02*
X211849237Y-74503390D01*
X211849237Y-74503390D02*
X211896856Y-74455771D01*
X211896856Y-74455771D02*
X211944475Y-74360533D01*
X211944475Y-74360533D02*
X211944475Y-74265295D01*
X211944475Y-74265295D02*
X211896856Y-74170057D01*
X211896856Y-74170057D02*
X211849237Y-74122438D01*
X211849237Y-74122438D02*
X211753999Y-74074819D01*
X211753999Y-74074819D02*
X211515904Y-74074819D01*
X211515904Y-74074819D02*
X211373047Y-74122438D01*
X210373047Y-74979580D02*
X210420666Y-75027200D01*
X210420666Y-75027200D02*
X210563523Y-75074819D01*
X210563523Y-75074819D02*
X210658761Y-75074819D01*
X210658761Y-75074819D02*
X210801618Y-75027200D01*
X210801618Y-75027200D02*
X210896856Y-74931961D01*
X210896856Y-74931961D02*
X210944475Y-74836723D01*
X210944475Y-74836723D02*
X210992094Y-74646247D01*
X210992094Y-74646247D02*
X210992094Y-74503390D01*
X210992094Y-74503390D02*
X210944475Y-74312914D01*
X210944475Y-74312914D02*
X210896856Y-74217676D01*
X210896856Y-74217676D02*
X210801618Y-74122438D01*
X210801618Y-74122438D02*
X210658761Y-74074819D01*
X210658761Y-74074819D02*
X210563523Y-74074819D01*
X210563523Y-74074819D02*
X210420666Y-74122438D01*
X210420666Y-74122438D02*
X210373047Y-74170057D01*
X209468285Y-75074819D02*
X209944475Y-75074819D01*
X209944475Y-75074819D02*
X209944475Y-74074819D01*
X214410666Y-74979580D02*
X214458285Y-75027200D01*
X214458285Y-75027200D02*
X214601142Y-75074819D01*
X214601142Y-75074819D02*
X214696380Y-75074819D01*
X214696380Y-75074819D02*
X214839237Y-75027200D01*
X214839237Y-75027200D02*
X214934475Y-74931961D01*
X214934475Y-74931961D02*
X214982094Y-74836723D01*
X214982094Y-74836723D02*
X215029713Y-74646247D01*
X215029713Y-74646247D02*
X215029713Y-74503390D01*
X215029713Y-74503390D02*
X214982094Y-74312914D01*
X214982094Y-74312914D02*
X214934475Y-74217676D01*
X214934475Y-74217676D02*
X214839237Y-74122438D01*
X214839237Y-74122438D02*
X214696380Y-74074819D01*
X214696380Y-74074819D02*
X214601142Y-74074819D01*
X214601142Y-74074819D02*
X214458285Y-74122438D01*
X214458285Y-74122438D02*
X214410666Y-74170057D01*
X213458285Y-75074819D02*
X214029713Y-75074819D01*
X213743999Y-75074819D02*
X213743999Y-74074819D01*
X213743999Y-74074819D02*
X213839237Y-74217676D01*
X213839237Y-74217676D02*
X213934475Y-74312914D01*
X213934475Y-74312914D02*
X214029713Y-74360533D01*
X210330666Y-77519580D02*
X210378285Y-77567200D01*
X210378285Y-77567200D02*
X210521142Y-77614819D01*
X210521142Y-77614819D02*
X210616380Y-77614819D01*
X210616380Y-77614819D02*
X210759237Y-77567200D01*
X210759237Y-77567200D02*
X210854475Y-77471961D01*
X210854475Y-77471961D02*
X210902094Y-77376723D01*
X210902094Y-77376723D02*
X210949713Y-77186247D01*
X210949713Y-77186247D02*
X210949713Y-77043390D01*
X210949713Y-77043390D02*
X210902094Y-76852914D01*
X210902094Y-76852914D02*
X210854475Y-76757676D01*
X210854475Y-76757676D02*
X210759237Y-76662438D01*
X210759237Y-76662438D02*
X210616380Y-76614819D01*
X210616380Y-76614819D02*
X210521142Y-76614819D01*
X210521142Y-76614819D02*
X210378285Y-76662438D01*
X210378285Y-76662438D02*
X210330666Y-76710057D01*
X209949713Y-77567200D02*
X209806856Y-77614819D01*
X209806856Y-77614819D02*
X209568761Y-77614819D01*
X209568761Y-77614819D02*
X209473523Y-77567200D01*
X209473523Y-77567200D02*
X209425904Y-77519580D01*
X209425904Y-77519580D02*
X209378285Y-77424342D01*
X209378285Y-77424342D02*
X209378285Y-77329104D01*
X209378285Y-77329104D02*
X209425904Y-77233866D01*
X209425904Y-77233866D02*
X209473523Y-77186247D01*
X209473523Y-77186247D02*
X209568761Y-77138628D01*
X209568761Y-77138628D02*
X209759237Y-77091009D01*
X209759237Y-77091009D02*
X209854475Y-77043390D01*
X209854475Y-77043390D02*
X209902094Y-76995771D01*
X209902094Y-76995771D02*
X209949713Y-76900533D01*
X209949713Y-76900533D02*
X209949713Y-76805295D01*
X209949713Y-76805295D02*
X209902094Y-76710057D01*
X209902094Y-76710057D02*
X209854475Y-76662438D01*
X209854475Y-76662438D02*
X209759237Y-76614819D01*
X209759237Y-76614819D02*
X209521142Y-76614819D01*
X209521142Y-76614819D02*
X209378285Y-76662438D01*
X214410666Y-77519580D02*
X214458285Y-77567200D01*
X214458285Y-77567200D02*
X214601142Y-77614819D01*
X214601142Y-77614819D02*
X214696380Y-77614819D01*
X214696380Y-77614819D02*
X214839237Y-77567200D01*
X214839237Y-77567200D02*
X214934475Y-77471961D01*
X214934475Y-77471961D02*
X214982094Y-77376723D01*
X214982094Y-77376723D02*
X215029713Y-77186247D01*
X215029713Y-77186247D02*
X215029713Y-77043390D01*
X215029713Y-77043390D02*
X214982094Y-76852914D01*
X214982094Y-76852914D02*
X214934475Y-76757676D01*
X214934475Y-76757676D02*
X214839237Y-76662438D01*
X214839237Y-76662438D02*
X214696380Y-76614819D01*
X214696380Y-76614819D02*
X214601142Y-76614819D01*
X214601142Y-76614819D02*
X214458285Y-76662438D01*
X214458285Y-76662438D02*
X214410666Y-76710057D01*
X214029713Y-76710057D02*
X213982094Y-76662438D01*
X213982094Y-76662438D02*
X213886856Y-76614819D01*
X213886856Y-76614819D02*
X213648761Y-76614819D01*
X213648761Y-76614819D02*
X213553523Y-76662438D01*
X213553523Y-76662438D02*
X213505904Y-76710057D01*
X213505904Y-76710057D02*
X213458285Y-76805295D01*
X213458285Y-76805295D02*
X213458285Y-76900533D01*
X213458285Y-76900533D02*
X213505904Y-77043390D01*
X213505904Y-77043390D02*
X214077332Y-77614819D01*
X214077332Y-77614819D02*
X213458285Y-77614819D01*
X210330666Y-80154819D02*
X210663999Y-79678628D01*
X210902094Y-80154819D02*
X210902094Y-79154819D01*
X210902094Y-79154819D02*
X210521142Y-79154819D01*
X210521142Y-79154819D02*
X210425904Y-79202438D01*
X210425904Y-79202438D02*
X210378285Y-79250057D01*
X210378285Y-79250057D02*
X210330666Y-79345295D01*
X210330666Y-79345295D02*
X210330666Y-79488152D01*
X210330666Y-79488152D02*
X210378285Y-79583390D01*
X210378285Y-79583390D02*
X210425904Y-79631009D01*
X210425904Y-79631009D02*
X210521142Y-79678628D01*
X210521142Y-79678628D02*
X210902094Y-79678628D01*
X209711618Y-79154819D02*
X209616380Y-79154819D01*
X209616380Y-79154819D02*
X209521142Y-79202438D01*
X209521142Y-79202438D02*
X209473523Y-79250057D01*
X209473523Y-79250057D02*
X209425904Y-79345295D01*
X209425904Y-79345295D02*
X209378285Y-79535771D01*
X209378285Y-79535771D02*
X209378285Y-79773866D01*
X209378285Y-79773866D02*
X209425904Y-79964342D01*
X209425904Y-79964342D02*
X209473523Y-80059580D01*
X209473523Y-80059580D02*
X209521142Y-80107200D01*
X209521142Y-80107200D02*
X209616380Y-80154819D01*
X209616380Y-80154819D02*
X209711618Y-80154819D01*
X209711618Y-80154819D02*
X209806856Y-80107200D01*
X209806856Y-80107200D02*
X209854475Y-80059580D01*
X209854475Y-80059580D02*
X209902094Y-79964342D01*
X209902094Y-79964342D02*
X209949713Y-79773866D01*
X209949713Y-79773866D02*
X209949713Y-79535771D01*
X209949713Y-79535771D02*
X209902094Y-79345295D01*
X209902094Y-79345295D02*
X209854475Y-79250057D01*
X209854475Y-79250057D02*
X209806856Y-79202438D01*
X209806856Y-79202438D02*
X209711618Y-79154819D01*
X214410666Y-80059580D02*
X214458285Y-80107200D01*
X214458285Y-80107200D02*
X214601142Y-80154819D01*
X214601142Y-80154819D02*
X214696380Y-80154819D01*
X214696380Y-80154819D02*
X214839237Y-80107200D01*
X214839237Y-80107200D02*
X214934475Y-80011961D01*
X214934475Y-80011961D02*
X214982094Y-79916723D01*
X214982094Y-79916723D02*
X215029713Y-79726247D01*
X215029713Y-79726247D02*
X215029713Y-79583390D01*
X215029713Y-79583390D02*
X214982094Y-79392914D01*
X214982094Y-79392914D02*
X214934475Y-79297676D01*
X214934475Y-79297676D02*
X214839237Y-79202438D01*
X214839237Y-79202438D02*
X214696380Y-79154819D01*
X214696380Y-79154819D02*
X214601142Y-79154819D01*
X214601142Y-79154819D02*
X214458285Y-79202438D01*
X214458285Y-79202438D02*
X214410666Y-79250057D01*
X214077332Y-79154819D02*
X213458285Y-79154819D01*
X213458285Y-79154819D02*
X213791618Y-79535771D01*
X213791618Y-79535771D02*
X213648761Y-79535771D01*
X213648761Y-79535771D02*
X213553523Y-79583390D01*
X213553523Y-79583390D02*
X213505904Y-79631009D01*
X213505904Y-79631009D02*
X213458285Y-79726247D01*
X213458285Y-79726247D02*
X213458285Y-79964342D01*
X213458285Y-79964342D02*
X213505904Y-80059580D01*
X213505904Y-80059580D02*
X213553523Y-80107200D01*
X213553523Y-80107200D02*
X213648761Y-80154819D01*
X213648761Y-80154819D02*
X213934475Y-80154819D01*
X213934475Y-80154819D02*
X214029713Y-80107200D01*
X214029713Y-80107200D02*
X214077332Y-80059580D01*
X210330666Y-82694819D02*
X210663999Y-82218628D01*
X210902094Y-82694819D02*
X210902094Y-81694819D01*
X210902094Y-81694819D02*
X210521142Y-81694819D01*
X210521142Y-81694819D02*
X210425904Y-81742438D01*
X210425904Y-81742438D02*
X210378285Y-81790057D01*
X210378285Y-81790057D02*
X210330666Y-81885295D01*
X210330666Y-81885295D02*
X210330666Y-82028152D01*
X210330666Y-82028152D02*
X210378285Y-82123390D01*
X210378285Y-82123390D02*
X210425904Y-82171009D01*
X210425904Y-82171009D02*
X210521142Y-82218628D01*
X210521142Y-82218628D02*
X210902094Y-82218628D01*
X209378285Y-82694819D02*
X209949713Y-82694819D01*
X209663999Y-82694819D02*
X209663999Y-81694819D01*
X209663999Y-81694819D02*
X209759237Y-81837676D01*
X209759237Y-81837676D02*
X209854475Y-81932914D01*
X209854475Y-81932914D02*
X209949713Y-81980533D01*
X214410666Y-82599580D02*
X214458285Y-82647200D01*
X214458285Y-82647200D02*
X214601142Y-82694819D01*
X214601142Y-82694819D02*
X214696380Y-82694819D01*
X214696380Y-82694819D02*
X214839237Y-82647200D01*
X214839237Y-82647200D02*
X214934475Y-82551961D01*
X214934475Y-82551961D02*
X214982094Y-82456723D01*
X214982094Y-82456723D02*
X215029713Y-82266247D01*
X215029713Y-82266247D02*
X215029713Y-82123390D01*
X215029713Y-82123390D02*
X214982094Y-81932914D01*
X214982094Y-81932914D02*
X214934475Y-81837676D01*
X214934475Y-81837676D02*
X214839237Y-81742438D01*
X214839237Y-81742438D02*
X214696380Y-81694819D01*
X214696380Y-81694819D02*
X214601142Y-81694819D01*
X214601142Y-81694819D02*
X214458285Y-81742438D01*
X214458285Y-81742438D02*
X214410666Y-81790057D01*
X213553523Y-82028152D02*
X213553523Y-82694819D01*
X213791618Y-81647200D02*
X214029713Y-82361485D01*
X214029713Y-82361485D02*
X213410666Y-82361485D01*
X210330666Y-85234819D02*
X210663999Y-84758628D01*
X210902094Y-85234819D02*
X210902094Y-84234819D01*
X210902094Y-84234819D02*
X210521142Y-84234819D01*
X210521142Y-84234819D02*
X210425904Y-84282438D01*
X210425904Y-84282438D02*
X210378285Y-84330057D01*
X210378285Y-84330057D02*
X210330666Y-84425295D01*
X210330666Y-84425295D02*
X210330666Y-84568152D01*
X210330666Y-84568152D02*
X210378285Y-84663390D01*
X210378285Y-84663390D02*
X210425904Y-84711009D01*
X210425904Y-84711009D02*
X210521142Y-84758628D01*
X210521142Y-84758628D02*
X210902094Y-84758628D01*
X209949713Y-84330057D02*
X209902094Y-84282438D01*
X209902094Y-84282438D02*
X209806856Y-84234819D01*
X209806856Y-84234819D02*
X209568761Y-84234819D01*
X209568761Y-84234819D02*
X209473523Y-84282438D01*
X209473523Y-84282438D02*
X209425904Y-84330057D01*
X209425904Y-84330057D02*
X209378285Y-84425295D01*
X209378285Y-84425295D02*
X209378285Y-84520533D01*
X209378285Y-84520533D02*
X209425904Y-84663390D01*
X209425904Y-84663390D02*
X209997332Y-85234819D01*
X209997332Y-85234819D02*
X209378285Y-85234819D01*
X214410666Y-85139580D02*
X214458285Y-85187200D01*
X214458285Y-85187200D02*
X214601142Y-85234819D01*
X214601142Y-85234819D02*
X214696380Y-85234819D01*
X214696380Y-85234819D02*
X214839237Y-85187200D01*
X214839237Y-85187200D02*
X214934475Y-85091961D01*
X214934475Y-85091961D02*
X214982094Y-84996723D01*
X214982094Y-84996723D02*
X215029713Y-84806247D01*
X215029713Y-84806247D02*
X215029713Y-84663390D01*
X215029713Y-84663390D02*
X214982094Y-84472914D01*
X214982094Y-84472914D02*
X214934475Y-84377676D01*
X214934475Y-84377676D02*
X214839237Y-84282438D01*
X214839237Y-84282438D02*
X214696380Y-84234819D01*
X214696380Y-84234819D02*
X214601142Y-84234819D01*
X214601142Y-84234819D02*
X214458285Y-84282438D01*
X214458285Y-84282438D02*
X214410666Y-84330057D01*
X213505904Y-84234819D02*
X213982094Y-84234819D01*
X213982094Y-84234819D02*
X214029713Y-84711009D01*
X214029713Y-84711009D02*
X213982094Y-84663390D01*
X213982094Y-84663390D02*
X213886856Y-84615771D01*
X213886856Y-84615771D02*
X213648761Y-84615771D01*
X213648761Y-84615771D02*
X213553523Y-84663390D01*
X213553523Y-84663390D02*
X213505904Y-84711009D01*
X213505904Y-84711009D02*
X213458285Y-84806247D01*
X213458285Y-84806247D02*
X213458285Y-85044342D01*
X213458285Y-85044342D02*
X213505904Y-85139580D01*
X213505904Y-85139580D02*
X213553523Y-85187200D01*
X213553523Y-85187200D02*
X213648761Y-85234819D01*
X213648761Y-85234819D02*
X213886856Y-85234819D01*
X213886856Y-85234819D02*
X213982094Y-85187200D01*
X213982094Y-85187200D02*
X214029713Y-85139580D01*
X210330666Y-87774819D02*
X210663999Y-87298628D01*
X210902094Y-87774819D02*
X210902094Y-86774819D01*
X210902094Y-86774819D02*
X210521142Y-86774819D01*
X210521142Y-86774819D02*
X210425904Y-86822438D01*
X210425904Y-86822438D02*
X210378285Y-86870057D01*
X210378285Y-86870057D02*
X210330666Y-86965295D01*
X210330666Y-86965295D02*
X210330666Y-87108152D01*
X210330666Y-87108152D02*
X210378285Y-87203390D01*
X210378285Y-87203390D02*
X210425904Y-87251009D01*
X210425904Y-87251009D02*
X210521142Y-87298628D01*
X210521142Y-87298628D02*
X210902094Y-87298628D01*
X209997332Y-86774819D02*
X209378285Y-86774819D01*
X209378285Y-86774819D02*
X209711618Y-87155771D01*
X209711618Y-87155771D02*
X209568761Y-87155771D01*
X209568761Y-87155771D02*
X209473523Y-87203390D01*
X209473523Y-87203390D02*
X209425904Y-87251009D01*
X209425904Y-87251009D02*
X209378285Y-87346247D01*
X209378285Y-87346247D02*
X209378285Y-87584342D01*
X209378285Y-87584342D02*
X209425904Y-87679580D01*
X209425904Y-87679580D02*
X209473523Y-87727200D01*
X209473523Y-87727200D02*
X209568761Y-87774819D01*
X209568761Y-87774819D02*
X209854475Y-87774819D01*
X209854475Y-87774819D02*
X209949713Y-87727200D01*
X209949713Y-87727200D02*
X209997332Y-87679580D01*
X214868285Y-87774819D02*
X214868285Y-86774819D01*
X214868285Y-86774819D02*
X214487333Y-86774819D01*
X214487333Y-86774819D02*
X214392095Y-86822438D01*
X214392095Y-86822438D02*
X214344476Y-86870057D01*
X214344476Y-86870057D02*
X214296857Y-86965295D01*
X214296857Y-86965295D02*
X214296857Y-87108152D01*
X214296857Y-87108152D02*
X214344476Y-87203390D01*
X214344476Y-87203390D02*
X214392095Y-87251009D01*
X214392095Y-87251009D02*
X214487333Y-87298628D01*
X214487333Y-87298628D02*
X214868285Y-87298628D01*
X213344476Y-87774819D02*
X213915904Y-87774819D01*
X213630190Y-87774819D02*
X213630190Y-86774819D01*
X213630190Y-86774819D02*
X213725428Y-86917676D01*
X213725428Y-86917676D02*
X213820666Y-87012914D01*
X213820666Y-87012914D02*
X213915904Y-87060533D01*
X212487333Y-86774819D02*
X212677809Y-86774819D01*
X212677809Y-86774819D02*
X212773047Y-86822438D01*
X212773047Y-86822438D02*
X212820666Y-86870057D01*
X212820666Y-86870057D02*
X212915904Y-87012914D01*
X212915904Y-87012914D02*
X212963523Y-87203390D01*
X212963523Y-87203390D02*
X212963523Y-87584342D01*
X212963523Y-87584342D02*
X212915904Y-87679580D01*
X212915904Y-87679580D02*
X212868285Y-87727200D01*
X212868285Y-87727200D02*
X212773047Y-87774819D01*
X212773047Y-87774819D02*
X212582571Y-87774819D01*
X212582571Y-87774819D02*
X212487333Y-87727200D01*
X212487333Y-87727200D02*
X212439714Y-87679580D01*
X212439714Y-87679580D02*
X212392095Y-87584342D01*
X212392095Y-87584342D02*
X212392095Y-87346247D01*
X212392095Y-87346247D02*
X212439714Y-87251009D01*
X212439714Y-87251009D02*
X212487333Y-87203390D01*
X212487333Y-87203390D02*
X212582571Y-87155771D01*
X212582571Y-87155771D02*
X212773047Y-87155771D01*
X212773047Y-87155771D02*
X212868285Y-87203390D01*
X212868285Y-87203390D02*
X212915904Y-87251009D01*
X212915904Y-87251009D02*
X212963523Y-87346247D01*
X210902094Y-90314819D02*
X210902094Y-89314819D01*
X210902094Y-89314819D02*
X210521142Y-89314819D01*
X210521142Y-89314819D02*
X210425904Y-89362438D01*
X210425904Y-89362438D02*
X210378285Y-89410057D01*
X210378285Y-89410057D02*
X210330666Y-89505295D01*
X210330666Y-89505295D02*
X210330666Y-89648152D01*
X210330666Y-89648152D02*
X210378285Y-89743390D01*
X210378285Y-89743390D02*
X210425904Y-89791009D01*
X210425904Y-89791009D02*
X210521142Y-89838628D01*
X210521142Y-89838628D02*
X210902094Y-89838628D01*
X209854475Y-90314819D02*
X209663999Y-90314819D01*
X209663999Y-90314819D02*
X209568761Y-90267200D01*
X209568761Y-90267200D02*
X209521142Y-90219580D01*
X209521142Y-90219580D02*
X209425904Y-90076723D01*
X209425904Y-90076723D02*
X209378285Y-89886247D01*
X209378285Y-89886247D02*
X209378285Y-89505295D01*
X209378285Y-89505295D02*
X209425904Y-89410057D01*
X209425904Y-89410057D02*
X209473523Y-89362438D01*
X209473523Y-89362438D02*
X209568761Y-89314819D01*
X209568761Y-89314819D02*
X209759237Y-89314819D01*
X209759237Y-89314819D02*
X209854475Y-89362438D01*
X209854475Y-89362438D02*
X209902094Y-89410057D01*
X209902094Y-89410057D02*
X209949713Y-89505295D01*
X209949713Y-89505295D02*
X209949713Y-89743390D01*
X209949713Y-89743390D02*
X209902094Y-89838628D01*
X209902094Y-89838628D02*
X209854475Y-89886247D01*
X209854475Y-89886247D02*
X209759237Y-89933866D01*
X209759237Y-89933866D02*
X209568761Y-89933866D01*
X209568761Y-89933866D02*
X209473523Y-89886247D01*
X209473523Y-89886247D02*
X209425904Y-89838628D01*
X209425904Y-89838628D02*
X209378285Y-89743390D01*
X214868285Y-90314819D02*
X214868285Y-89314819D01*
X214868285Y-89314819D02*
X214487333Y-89314819D01*
X214487333Y-89314819D02*
X214392095Y-89362438D01*
X214392095Y-89362438D02*
X214344476Y-89410057D01*
X214344476Y-89410057D02*
X214296857Y-89505295D01*
X214296857Y-89505295D02*
X214296857Y-89648152D01*
X214296857Y-89648152D02*
X214344476Y-89743390D01*
X214344476Y-89743390D02*
X214392095Y-89791009D01*
X214392095Y-89791009D02*
X214487333Y-89838628D01*
X214487333Y-89838628D02*
X214868285Y-89838628D01*
X213344476Y-90314819D02*
X213915904Y-90314819D01*
X213630190Y-90314819D02*
X213630190Y-89314819D01*
X213630190Y-89314819D02*
X213725428Y-89457676D01*
X213725428Y-89457676D02*
X213820666Y-89552914D01*
X213820666Y-89552914D02*
X213915904Y-89600533D01*
X212725428Y-89314819D02*
X212630190Y-89314819D01*
X212630190Y-89314819D02*
X212534952Y-89362438D01*
X212534952Y-89362438D02*
X212487333Y-89410057D01*
X212487333Y-89410057D02*
X212439714Y-89505295D01*
X212439714Y-89505295D02*
X212392095Y-89695771D01*
X212392095Y-89695771D02*
X212392095Y-89933866D01*
X212392095Y-89933866D02*
X212439714Y-90124342D01*
X212439714Y-90124342D02*
X212487333Y-90219580D01*
X212487333Y-90219580D02*
X212534952Y-90267200D01*
X212534952Y-90267200D02*
X212630190Y-90314819D01*
X212630190Y-90314819D02*
X212725428Y-90314819D01*
X212725428Y-90314819D02*
X212820666Y-90267200D01*
X212820666Y-90267200D02*
X212868285Y-90219580D01*
X212868285Y-90219580D02*
X212915904Y-90124342D01*
X212915904Y-90124342D02*
X212963523Y-89933866D01*
X212963523Y-89933866D02*
X212963523Y-89695771D01*
X212963523Y-89695771D02*
X212915904Y-89505295D01*
X212915904Y-89505295D02*
X212868285Y-89410057D01*
X212868285Y-89410057D02*
X212820666Y-89362438D01*
X212820666Y-89362438D02*
X212725428Y-89314819D01*
X215209438Y-99668588D02*
X215161819Y-99573350D01*
X215161819Y-99573350D02*
X215161819Y-99430493D01*
X215161819Y-99430493D02*
X215209438Y-99287636D01*
X215209438Y-99287636D02*
X215304676Y-99192398D01*
X215304676Y-99192398D02*
X215399914Y-99144779D01*
X215399914Y-99144779D02*
X215590390Y-99097160D01*
X215590390Y-99097160D02*
X215733247Y-99097160D01*
X215733247Y-99097160D02*
X215923723Y-99144779D01*
X215923723Y-99144779D02*
X216018961Y-99192398D01*
X216018961Y-99192398D02*
X216114200Y-99287636D01*
X216114200Y-99287636D02*
X216161819Y-99430493D01*
X216161819Y-99430493D02*
X216161819Y-99525731D01*
X216161819Y-99525731D02*
X216114200Y-99668588D01*
X216114200Y-99668588D02*
X216066580Y-99716207D01*
X216066580Y-99716207D02*
X215733247Y-99716207D01*
X215733247Y-99716207D02*
X215733247Y-99525731D01*
X216161819Y-100144779D02*
X215161819Y-100144779D01*
X215161819Y-100144779D02*
X216161819Y-100716207D01*
X216161819Y-100716207D02*
X215161819Y-100716207D01*
X216161819Y-101192398D02*
X215161819Y-101192398D01*
X215161819Y-101192398D02*
X215161819Y-101430493D01*
X215161819Y-101430493D02*
X215209438Y-101573350D01*
X215209438Y-101573350D02*
X215304676Y-101668588D01*
X215304676Y-101668588D02*
X215399914Y-101716207D01*
X215399914Y-101716207D02*
X215590390Y-101763826D01*
X215590390Y-101763826D02*
X215733247Y-101763826D01*
X215733247Y-101763826D02*
X215923723Y-101716207D01*
X215923723Y-101716207D02*
X216018961Y-101668588D01*
X216018961Y-101668588D02*
X216114200Y-101573350D01*
X216114200Y-101573350D02*
X216161819Y-101430493D01*
X216161819Y-101430493D02*
X216161819Y-101192398D01*
X212621819Y-99001922D02*
X213621819Y-99335255D01*
X213621819Y-99335255D02*
X212621819Y-99668588D01*
X213526580Y-100573350D02*
X213574200Y-100525731D01*
X213574200Y-100525731D02*
X213621819Y-100382874D01*
X213621819Y-100382874D02*
X213621819Y-100287636D01*
X213621819Y-100287636D02*
X213574200Y-100144779D01*
X213574200Y-100144779D02*
X213478961Y-100049541D01*
X213478961Y-100049541D02*
X213383723Y-100001922D01*
X213383723Y-100001922D02*
X213193247Y-99954303D01*
X213193247Y-99954303D02*
X213050390Y-99954303D01*
X213050390Y-99954303D02*
X212859914Y-100001922D01*
X212859914Y-100001922D02*
X212764676Y-100049541D01*
X212764676Y-100049541D02*
X212669438Y-100144779D01*
X212669438Y-100144779D02*
X212621819Y-100287636D01*
X212621819Y-100287636D02*
X212621819Y-100382874D01*
X212621819Y-100382874D02*
X212669438Y-100525731D01*
X212669438Y-100525731D02*
X212717057Y-100573350D01*
X213526580Y-101573350D02*
X213574200Y-101525731D01*
X213574200Y-101525731D02*
X213621819Y-101382874D01*
X213621819Y-101382874D02*
X213621819Y-101287636D01*
X213621819Y-101287636D02*
X213574200Y-101144779D01*
X213574200Y-101144779D02*
X213478961Y-101049541D01*
X213478961Y-101049541D02*
X213383723Y-101001922D01*
X213383723Y-101001922D02*
X213193247Y-100954303D01*
X213193247Y-100954303D02*
X213050390Y-100954303D01*
X213050390Y-100954303D02*
X212859914Y-101001922D01*
X212859914Y-101001922D02*
X212764676Y-101049541D01*
X212764676Y-101049541D02*
X212669438Y-101144779D01*
X212669438Y-101144779D02*
X212621819Y-101287636D01*
X212621819Y-101287636D02*
X212621819Y-101382874D01*
X212621819Y-101382874D02*
X212669438Y-101525731D01*
X212669438Y-101525731D02*
X212717057Y-101573350D01*
X211034200Y-99097160D02*
X211081819Y-99240017D01*
X211081819Y-99240017D02*
X211081819Y-99478112D01*
X211081819Y-99478112D02*
X211034200Y-99573350D01*
X211034200Y-99573350D02*
X210986580Y-99620969D01*
X210986580Y-99620969D02*
X210891342Y-99668588D01*
X210891342Y-99668588D02*
X210796104Y-99668588D01*
X210796104Y-99668588D02*
X210700866Y-99620969D01*
X210700866Y-99620969D02*
X210653247Y-99573350D01*
X210653247Y-99573350D02*
X210605628Y-99478112D01*
X210605628Y-99478112D02*
X210558009Y-99287636D01*
X210558009Y-99287636D02*
X210510390Y-99192398D01*
X210510390Y-99192398D02*
X210462771Y-99144779D01*
X210462771Y-99144779D02*
X210367533Y-99097160D01*
X210367533Y-99097160D02*
X210272295Y-99097160D01*
X210272295Y-99097160D02*
X210177057Y-99144779D01*
X210177057Y-99144779D02*
X210129438Y-99192398D01*
X210129438Y-99192398D02*
X210081819Y-99287636D01*
X210081819Y-99287636D02*
X210081819Y-99525731D01*
X210081819Y-99525731D02*
X210129438Y-99668588D01*
X210986580Y-100668588D02*
X211034200Y-100620969D01*
X211034200Y-100620969D02*
X211081819Y-100478112D01*
X211081819Y-100478112D02*
X211081819Y-100382874D01*
X211081819Y-100382874D02*
X211034200Y-100240017D01*
X211034200Y-100240017D02*
X210938961Y-100144779D01*
X210938961Y-100144779D02*
X210843723Y-100097160D01*
X210843723Y-100097160D02*
X210653247Y-100049541D01*
X210653247Y-100049541D02*
X210510390Y-100049541D01*
X210510390Y-100049541D02*
X210319914Y-100097160D01*
X210319914Y-100097160D02*
X210224676Y-100144779D01*
X210224676Y-100144779D02*
X210129438Y-100240017D01*
X210129438Y-100240017D02*
X210081819Y-100382874D01*
X210081819Y-100382874D02*
X210081819Y-100478112D01*
X210081819Y-100478112D02*
X210129438Y-100620969D01*
X210129438Y-100620969D02*
X210177057Y-100668588D01*
X211081819Y-101573350D02*
X211081819Y-101097160D01*
X211081819Y-101097160D02*
X210081819Y-101097160D01*
X208494200Y-99097160D02*
X208541819Y-99240017D01*
X208541819Y-99240017D02*
X208541819Y-99478112D01*
X208541819Y-99478112D02*
X208494200Y-99573350D01*
X208494200Y-99573350D02*
X208446580Y-99620969D01*
X208446580Y-99620969D02*
X208351342Y-99668588D01*
X208351342Y-99668588D02*
X208256104Y-99668588D01*
X208256104Y-99668588D02*
X208160866Y-99620969D01*
X208160866Y-99620969D02*
X208113247Y-99573350D01*
X208113247Y-99573350D02*
X208065628Y-99478112D01*
X208065628Y-99478112D02*
X208018009Y-99287636D01*
X208018009Y-99287636D02*
X207970390Y-99192398D01*
X207970390Y-99192398D02*
X207922771Y-99144779D01*
X207922771Y-99144779D02*
X207827533Y-99097160D01*
X207827533Y-99097160D02*
X207732295Y-99097160D01*
X207732295Y-99097160D02*
X207637057Y-99144779D01*
X207637057Y-99144779D02*
X207589438Y-99192398D01*
X207589438Y-99192398D02*
X207541819Y-99287636D01*
X207541819Y-99287636D02*
X207541819Y-99525731D01*
X207541819Y-99525731D02*
X207589438Y-99668588D01*
X208541819Y-100097160D02*
X207541819Y-100097160D01*
X207541819Y-100097160D02*
X207541819Y-100335255D01*
X207541819Y-100335255D02*
X207589438Y-100478112D01*
X207589438Y-100478112D02*
X207684676Y-100573350D01*
X207684676Y-100573350D02*
X207779914Y-100620969D01*
X207779914Y-100620969D02*
X207970390Y-100668588D01*
X207970390Y-100668588D02*
X208113247Y-100668588D01*
X208113247Y-100668588D02*
X208303723Y-100620969D01*
X208303723Y-100620969D02*
X208398961Y-100573350D01*
X208398961Y-100573350D02*
X208494200Y-100478112D01*
X208494200Y-100478112D02*
X208541819Y-100335255D01*
X208541819Y-100335255D02*
X208541819Y-100097160D01*
X208256104Y-101049541D02*
X208256104Y-101525731D01*
X208541819Y-100954303D02*
X207541819Y-101287636D01*
X207541819Y-101287636D02*
X208541819Y-101620969D01*
X220054819Y-95953380D02*
X219578628Y-95620047D01*
X220054819Y-95381952D02*
X219054819Y-95381952D01*
X219054819Y-95381952D02*
X219054819Y-95762904D01*
X219054819Y-95762904D02*
X219102438Y-95858142D01*
X219102438Y-95858142D02*
X219150057Y-95905761D01*
X219150057Y-95905761D02*
X219245295Y-95953380D01*
X219245295Y-95953380D02*
X219388152Y-95953380D01*
X219388152Y-95953380D02*
X219483390Y-95905761D01*
X219483390Y-95905761D02*
X219531009Y-95858142D01*
X219531009Y-95858142D02*
X219578628Y-95762904D01*
X219578628Y-95762904D02*
X219578628Y-95381952D01*
X220007200Y-96334333D02*
X220054819Y-96477190D01*
X220054819Y-96477190D02*
X220054819Y-96715285D01*
X220054819Y-96715285D02*
X220007200Y-96810523D01*
X220007200Y-96810523D02*
X219959580Y-96858142D01*
X219959580Y-96858142D02*
X219864342Y-96905761D01*
X219864342Y-96905761D02*
X219769104Y-96905761D01*
X219769104Y-96905761D02*
X219673866Y-96858142D01*
X219673866Y-96858142D02*
X219626247Y-96810523D01*
X219626247Y-96810523D02*
X219578628Y-96715285D01*
X219578628Y-96715285D02*
X219531009Y-96524809D01*
X219531009Y-96524809D02*
X219483390Y-96429571D01*
X219483390Y-96429571D02*
X219435771Y-96381952D01*
X219435771Y-96381952D02*
X219340533Y-96334333D01*
X219340533Y-96334333D02*
X219245295Y-96334333D01*
X219245295Y-96334333D02*
X219150057Y-96381952D01*
X219150057Y-96381952D02*
X219102438Y-96429571D01*
X219102438Y-96429571D02*
X219054819Y-96524809D01*
X219054819Y-96524809D02*
X219054819Y-96762904D01*
X219054819Y-96762904D02*
X219102438Y-96905761D01*
X219054819Y-97191476D02*
X219054819Y-97762904D01*
X220054819Y-97477190D02*
X219054819Y-97477190D01*
X101500000Y-108200000D02*
X102000000Y-107700000D01*
X98500000Y-108200000D02*
X101500000Y-108200000D01*
X98000000Y-107700000D02*
X98500000Y-108200000D01*
X98000000Y-107700000D02*
X98000000Y-106780000D01*
X97480000Y-106200000D02*
X93000000Y-106200000D01*
X93000000Y-106200000D02*
X93000000Y-105600000D01*
X97480000Y-106200000D02*
G75*
G02*
X98000000Y-106780000I-30000J-550000D01*
G01*
X101500000Y-103700000D02*
X102000000Y-104200000D01*
X99200000Y-103700000D02*
X101500000Y-103700000D01*
X97500000Y-101500000D02*
X97500000Y-102200000D01*
X93000000Y-101500000D02*
X97500000Y-101500000D01*
X93000000Y-102000000D02*
X93000000Y-101500000D01*
X99200000Y-103700000D02*
G75*
G02*
X97500000Y-102220000I-110000J1590000D01*
G01*
X101500000Y-90700000D02*
X102000000Y-90200000D01*
X98500000Y-90700000D02*
X101500000Y-90700000D01*
X98000000Y-90200000D02*
X98500000Y-90700000D01*
X98000000Y-90200000D02*
X98000000Y-89280000D01*
X97480000Y-88700000D02*
X93000000Y-88700000D01*
X93000000Y-88700000D02*
X93000000Y-88100000D01*
X97480000Y-88700000D02*
G75*
G02*
X98000000Y-89280000I-30000J-550000D01*
G01*
X101500000Y-86200000D02*
X102000000Y-86700000D01*
X99200000Y-86200000D02*
X101500000Y-86200000D01*
X97500000Y-84000000D02*
X97500000Y-84700000D01*
X93000000Y-84000000D02*
X97500000Y-84000000D01*
X93000000Y-84500000D02*
X93000000Y-84000000D01*
X99200000Y-86200000D02*
G75*
G02*
X97500000Y-84720000I-110000J1590000D01*
G01*
X101500000Y-73200000D02*
X102000000Y-72700000D01*
X98500000Y-73200000D02*
X101500000Y-73200000D01*
X98000000Y-72700000D02*
X98500000Y-73200000D01*
X98000000Y-72700000D02*
X98000000Y-71780000D01*
X97480000Y-71200000D02*
X93000000Y-71200000D01*
X93000000Y-71200000D02*
X93000000Y-70600000D01*
X97480000Y-71200000D02*
G75*
G02*
X98000000Y-71780000I-30000J-550000D01*
G01*
X101500000Y-68700000D02*
X102000000Y-69200000D01*
X99200000Y-68700000D02*
X101500000Y-68700000D01*
X97500000Y-66500000D02*
X97500000Y-67200000D01*
X93000000Y-66500000D02*
X97500000Y-66500000D01*
X93000000Y-67000000D02*
X93000000Y-66500000D01*
X99200000Y-68700000D02*
G75*
G02*
X97500000Y-67220000I-110000J1590000D01*
G01*
X120000000Y-108200000D02*
X120500000Y-107700000D01*
X117000000Y-108200000D02*
X120000000Y-108200000D01*
X116500000Y-107700000D02*
X117000000Y-108200000D01*
X116500000Y-107700000D02*
X116500000Y-106780000D01*
X115980000Y-106200000D02*
X111500000Y-106200000D01*
X111500000Y-106200000D02*
X111500000Y-105600000D01*
X115980000Y-106200000D02*
G75*
G02*
X116500000Y-106780000I-30000J-550000D01*
G01*
X120000000Y-103700000D02*
X120500000Y-104200000D01*
X117700000Y-103700000D02*
X120000000Y-103700000D01*
X116000000Y-101500000D02*
X116000000Y-102200000D01*
X111500000Y-101500000D02*
X116000000Y-101500000D01*
X111500000Y-102000000D02*
X111500000Y-101500000D01*
X117700000Y-103700000D02*
G75*
G02*
X116000000Y-102220000I-110000J1590000D01*
G01*
X120000000Y-90700000D02*
X120500000Y-90200000D01*
X117000000Y-90700000D02*
X120000000Y-90700000D01*
X116500000Y-90200000D02*
X117000000Y-90700000D01*
X116500000Y-90200000D02*
X116500000Y-89280000D01*
X115980000Y-88700000D02*
X111500000Y-88700000D01*
X111500000Y-88700000D02*
X111500000Y-88100000D01*
X115980000Y-88700000D02*
G75*
G02*
X116500000Y-89280000I-30000J-550000D01*
G01*
X120000000Y-86200000D02*
X120500000Y-86700000D01*
X117700000Y-86200000D02*
X120000000Y-86200000D01*
X116000000Y-84000000D02*
X116000000Y-84700000D01*
X111500000Y-84000000D02*
X116000000Y-84000000D01*
X111500000Y-84500000D02*
X111500000Y-84000000D01*
X117700000Y-86200000D02*
G75*
G02*
X116000000Y-84720000I-110000J1590000D01*
G01*
X120000000Y-73200000D02*
X120500000Y-72700000D01*
X117000000Y-73200000D02*
X120000000Y-73200000D01*
X116500000Y-72700000D02*
X117000000Y-73200000D01*
X116500000Y-72700000D02*
X116500000Y-71780000D01*
X115980000Y-71200000D02*
X111500000Y-71200000D01*
X111500000Y-71200000D02*
X111500000Y-70600000D01*
X115980000Y-71200000D02*
G75*
G02*
X116500000Y-71780000I-30000J-550000D01*
G01*
X120000000Y-68700000D02*
X120500000Y-69200000D01*
X117700000Y-68700000D02*
X120000000Y-68700000D01*
X116000000Y-66500000D02*
X116000000Y-67200000D01*
X111500000Y-66500000D02*
X116000000Y-66500000D01*
X111500000Y-67000000D02*
X111500000Y-66500000D01*
X117700000Y-68700000D02*
G75*
G02*
X116000000Y-67220000I-110000J1590000D01*
G01*
X138500000Y-103825000D02*
X139000000Y-103325000D01*
X135500000Y-103825000D02*
X138500000Y-103825000D01*
X135000000Y-103325000D02*
X135500000Y-103825000D01*
X135000000Y-103325000D02*
X135000000Y-102405000D01*
X134480000Y-101825000D02*
X130000000Y-101825000D01*
X130000000Y-101825000D02*
X130000000Y-101225000D01*
X134480000Y-101825000D02*
G75*
G02*
X135000000Y-102405000I-30000J-550000D01*
G01*
X138500000Y-99325000D02*
X139000000Y-99825000D01*
X136200000Y-99325000D02*
X138500000Y-99325000D01*
X134500000Y-97125000D02*
X134500000Y-97825000D01*
X130000000Y-97125000D02*
X134500000Y-97125000D01*
X130000000Y-97625000D02*
X130000000Y-97125000D01*
X136200000Y-99325000D02*
G75*
G02*
X134500000Y-97845000I-110000J1590000D01*
G01*
X138500000Y-86325000D02*
X139000000Y-85825000D01*
X135500000Y-86325000D02*
X138500000Y-86325000D01*
X135000000Y-85825000D02*
X135500000Y-86325000D01*
X135000000Y-85825000D02*
X135000000Y-84905000D01*
X134480000Y-84325000D02*
X130000000Y-84325000D01*
X130000000Y-84325000D02*
X130000000Y-83725000D01*
X134480000Y-84325000D02*
G75*
G02*
X135000000Y-84905000I-30000J-550000D01*
G01*
X138500000Y-81825000D02*
X139000000Y-82325000D01*
X136200000Y-81825000D02*
X138500000Y-81825000D01*
X134500000Y-79625000D02*
X134500000Y-80325000D01*
X130000000Y-79625000D02*
X134500000Y-79625000D01*
X130000000Y-80125000D02*
X130000000Y-79625000D01*
X136200000Y-81825000D02*
G75*
G02*
X134500000Y-80345000I-110000J1590000D01*
G01*
X138500000Y-68825000D02*
X139000000Y-68325000D01*
X135500000Y-68825000D02*
X138500000Y-68825000D01*
X135000000Y-68325000D02*
X135500000Y-68825000D01*
X135000000Y-68325000D02*
X135000000Y-67405000D01*
X134480000Y-66825000D02*
X130000000Y-66825000D01*
X130000000Y-66825000D02*
X130000000Y-66225000D01*
X134480000Y-66825000D02*
G75*
G02*
X135000000Y-67405000I-30000J-550000D01*
G01*
X138500000Y-64325000D02*
X139000000Y-64825000D01*
X136200000Y-64325000D02*
X138500000Y-64325000D01*
X134500000Y-62125000D02*
X134500000Y-62825000D01*
X130000000Y-62125000D02*
X134500000Y-62125000D01*
X130000000Y-62625000D02*
X130000000Y-62125000D01*
X136200000Y-64325000D02*
G75*
G02*
X134500000Y-62845000I-110000J1590000D01*
G01*
X157000000Y-101637500D02*
X157500000Y-101137500D01*
X154000000Y-101637500D02*
X157000000Y-101637500D01*
X153500000Y-101137500D02*
X154000000Y-101637500D01*
X153500000Y-101137500D02*
X153500000Y-100217500D01*
X152980000Y-99637500D02*
X148500000Y-99637500D01*
X148500000Y-99637500D02*
X148500000Y-99037500D01*
X152980000Y-99637500D02*
G75*
G02*
X153500000Y-100217500I-30000J-550000D01*
G01*
X157000000Y-97137500D02*
X157500000Y-97637500D01*
X154700000Y-97137500D02*
X157000000Y-97137500D01*
X153000000Y-94937500D02*
X153000000Y-95637500D01*
X148500000Y-94937500D02*
X153000000Y-94937500D01*
X148500000Y-95437500D02*
X148500000Y-94937500D01*
X154700000Y-97137500D02*
G75*
G02*
X153000000Y-95657500I-110000J1590000D01*
G01*
X157000000Y-84137500D02*
X157500000Y-83637500D01*
X154000000Y-84137500D02*
X157000000Y-84137500D01*
X153500000Y-83637500D02*
X154000000Y-84137500D01*
X153500000Y-83637500D02*
X153500000Y-82717500D01*
X152980000Y-82137500D02*
X148500000Y-82137500D01*
X148500000Y-82137500D02*
X148500000Y-81537500D01*
X152980000Y-82137500D02*
G75*
G02*
X153500000Y-82717500I-30000J-550000D01*
G01*
X157000000Y-79637500D02*
X157500000Y-80137500D01*
X154700000Y-79637500D02*
X157000000Y-79637500D01*
X153000000Y-77437500D02*
X153000000Y-78137500D01*
X148500000Y-77437500D02*
X153000000Y-77437500D01*
X148500000Y-77937500D02*
X148500000Y-77437500D01*
X154700000Y-79637500D02*
G75*
G02*
X153000000Y-78157500I-110000J1590000D01*
G01*
X157000000Y-66637500D02*
X157500000Y-66137500D01*
X154000000Y-66637500D02*
X157000000Y-66637500D01*
X153500000Y-66137500D02*
X154000000Y-66637500D01*
X153500000Y-66137500D02*
X153500000Y-65217500D01*
X152980000Y-64637500D02*
X148500000Y-64637500D01*
X148500000Y-64637500D02*
X148500000Y-64037500D01*
X152980000Y-64637500D02*
G75*
G02*
X153500000Y-65217500I-30000J-550000D01*
G01*
X157000000Y-62137500D02*
X157500000Y-62637500D01*
X154700000Y-62137500D02*
X157000000Y-62137500D01*
X153000000Y-59937500D02*
X153000000Y-60637500D01*
X148500000Y-59937500D02*
X153000000Y-59937500D01*
X148500000Y-60437500D02*
X148500000Y-59937500D01*
X154700000Y-62137500D02*
G75*
G02*
X153000000Y-60657500I-110000J1590000D01*
G01*
X175500000Y-103825000D02*
X176000000Y-103325000D01*
X172500000Y-103825000D02*
X175500000Y-103825000D01*
X172000000Y-103325000D02*
X172500000Y-103825000D01*
X172000000Y-103325000D02*
X172000000Y-102405000D01*
X171480000Y-101825000D02*
X167000000Y-101825000D01*
X167000000Y-101825000D02*
X167000000Y-101225000D01*
X171480000Y-101825000D02*
G75*
G02*
X172000000Y-102405000I-30000J-550000D01*
G01*
X175500000Y-99325000D02*
X176000000Y-99825000D01*
X173200000Y-99325000D02*
X175500000Y-99325000D01*
X171500000Y-97125000D02*
X171500000Y-97825000D01*
X167000000Y-97125000D02*
X171500000Y-97125000D01*
X167000000Y-97625000D02*
X167000000Y-97125000D01*
X173200000Y-99325000D02*
G75*
G02*
X171500000Y-97845000I-110000J1590000D01*
G01*
X175500000Y-86325000D02*
X176000000Y-85825000D01*
X172500000Y-86325000D02*
X175500000Y-86325000D01*
X172000000Y-85825000D02*
X172500000Y-86325000D01*
X172000000Y-85825000D02*
X172000000Y-84905000D01*
X171480000Y-84325000D02*
X167000000Y-84325000D01*
X167000000Y-84325000D02*
X167000000Y-83725000D01*
X171480000Y-84325000D02*
G75*
G02*
X172000000Y-84905000I-30000J-550000D01*
G01*
X175500000Y-81825000D02*
X176000000Y-82325000D01*
X173200000Y-81825000D02*
X175500000Y-81825000D01*
X171500000Y-79625000D02*
X171500000Y-80325000D01*
X167000000Y-79625000D02*
X171500000Y-79625000D01*
X167000000Y-80125000D02*
X167000000Y-79625000D01*
X173200000Y-81825000D02*
G75*
G02*
X171500000Y-80345000I-110000J1590000D01*
G01*
X175500000Y-68825000D02*
X176000000Y-68325000D01*
X172500000Y-68825000D02*
X175500000Y-68825000D01*
X172000000Y-68325000D02*
X172500000Y-68825000D01*
X172000000Y-68325000D02*
X172000000Y-67405000D01*
X171480000Y-66825000D02*
X167000000Y-66825000D01*
X167000000Y-66825000D02*
X167000000Y-66225000D01*
X171480000Y-66825000D02*
G75*
G02*
X172000000Y-67405000I-30000J-550000D01*
G01*
X175500000Y-64325000D02*
X176000000Y-64825000D01*
X173200000Y-64325000D02*
X175500000Y-64325000D01*
X171500000Y-62125000D02*
X171500000Y-62825000D01*
X167000000Y-62125000D02*
X171500000Y-62125000D01*
X167000000Y-62625000D02*
X167000000Y-62125000D01*
X173200000Y-64325000D02*
G75*
G02*
X171500000Y-62845000I-110000J1590000D01*
G01*
X194000000Y-106012500D02*
X194500000Y-105512500D01*
X191000000Y-106012500D02*
X194000000Y-106012500D01*
X190500000Y-105512500D02*
X191000000Y-106012500D01*
X190500000Y-105512500D02*
X190500000Y-104592500D01*
X189980000Y-104012500D02*
X185500000Y-104012500D01*
X185500000Y-104012500D02*
X185500000Y-103412500D01*
X189980000Y-104012500D02*
G75*
G02*
X190500000Y-104592500I-30000J-550000D01*
G01*
X194000000Y-101512500D02*
X194500000Y-102012500D01*
X191700000Y-101512500D02*
X194000000Y-101512500D01*
X190000000Y-99312500D02*
X190000000Y-100012500D01*
X185500000Y-99312500D02*
X190000000Y-99312500D01*
X185500000Y-99812500D02*
X185500000Y-99312500D01*
X191700000Y-101512500D02*
G75*
G02*
X190000000Y-100032500I-110000J1590000D01*
G01*
X194000000Y-88512500D02*
X194500000Y-88012500D01*
X191000000Y-88512500D02*
X194000000Y-88512500D01*
X190500000Y-88012500D02*
X191000000Y-88512500D01*
X190500000Y-88012500D02*
X190500000Y-87092500D01*
X189980000Y-86512500D02*
X185500000Y-86512500D01*
X185500000Y-86512500D02*
X185500000Y-85912500D01*
X189980000Y-86512500D02*
G75*
G02*
X190500000Y-87092500I-30000J-550000D01*
G01*
X194000000Y-84012500D02*
X194500000Y-84512500D01*
X191700000Y-84012500D02*
X194000000Y-84012500D01*
X190000000Y-81812500D02*
X190000000Y-82512500D01*
X185500000Y-81812500D02*
X190000000Y-81812500D01*
X185500000Y-82312500D02*
X185500000Y-81812500D01*
X191700000Y-84012500D02*
G75*
G02*
X190000000Y-82532500I-110000J1590000D01*
G01*
X194000000Y-71012500D02*
X194500000Y-70512500D01*
X191000000Y-71012500D02*
X194000000Y-71012500D01*
X190500000Y-70512500D02*
X191000000Y-71012500D01*
X190500000Y-70512500D02*
X190500000Y-69592500D01*
X189980000Y-69012500D02*
X185500000Y-69012500D01*
X185500000Y-69012500D02*
X185500000Y-68412500D01*
X189980000Y-69012500D02*
G75*
G02*
X190500000Y-69592500I-30000J-550000D01*
G01*
X194000000Y-66512500D02*
X194500000Y-67012500D01*
X191700000Y-66512500D02*
X194000000Y-66512500D01*
X190000000Y-64312500D02*
X190000000Y-65012500D01*
X185500000Y-64312500D02*
X190000000Y-64312500D01*
X185500000Y-64812500D02*
X185500000Y-64312500D01*
X191700000Y-66512500D02*
G75*
G02*
X190000000Y-65032500I-110000J1590000D01*
G01*
X166250000Y-122137500D02*
X166750000Y-121637500D01*
X163250000Y-122137500D02*
X166250000Y-122137500D01*
X162750000Y-121637500D02*
X163250000Y-122137500D01*
X162750000Y-121637500D02*
X162750000Y-120717500D01*
X162230000Y-120137500D02*
X157750000Y-120137500D01*
X157750000Y-120137500D02*
X157750000Y-119537500D01*
X162230000Y-120137500D02*
G75*
G02*
X162750000Y-120717500I-30000J-550000D01*
G01*
X166250000Y-117637500D02*
X166750000Y-118137500D01*
X163950000Y-117637500D02*
X166250000Y-117637500D01*
X162250000Y-115437500D02*
X162250000Y-116137500D01*
X157750000Y-115437500D02*
X162250000Y-115437500D01*
X157750000Y-115937500D02*
X157750000Y-115437500D01*
X163950000Y-117637500D02*
G75*
G02*
X162250000Y-116157500I-110000J1590000D01*
G01*
X184576573Y-124996320D02*
X185188945Y-124642767D01*
X181678795Y-124219863D02*
X184576573Y-124996320D01*
X181325242Y-123607491D02*
X181678795Y-124219863D01*
X181325242Y-123607491D02*
X181563355Y-122718839D01*
X181211189Y-122024016D02*
X176883841Y-120864507D01*
X176883841Y-120864507D02*
X177039133Y-120284951D01*
X181211189Y-122024016D02*
G75*
G02*
X181563356Y-122718839I-171328J-523495D01*
G01*
X185741258Y-120649654D02*
X186094812Y-121262027D01*
X183519629Y-120054370D02*
X185741258Y-120649654D01*
X182446957Y-117489341D02*
X182265784Y-118165489D01*
X178100291Y-116324655D02*
X182446957Y-117489341D01*
X177970881Y-116807618D02*
X178100291Y-116324655D01*
X183519629Y-120054370D02*
G75*
G02*
X182260607Y-118184808I305270J1564292D01*
G01*
X214865251Y-123123210D02*
X214682239Y-122440197D01*
X213365251Y-125721286D02*
X214865251Y-123123210D01*
X212682239Y-125904299D02*
X213365251Y-125721286D01*
X212682239Y-125904299D02*
X211885495Y-125444299D01*
X211123201Y-125604632D02*
X208883201Y-129484426D01*
X208883201Y-129484426D02*
X208363585Y-129184426D01*
X211123201Y-125604632D02*
G75*
G02*
X211885495Y-125444300I461313J-300981D01*
G01*
X210968137Y-120873210D02*
X211651150Y-120690197D01*
X209818137Y-122865068D02*
X210968137Y-120873210D01*
X207062881Y-123237312D02*
X207669099Y-123587312D01*
X204812881Y-127134426D02*
X207062881Y-123237312D01*
X205245894Y-127384426D02*
X204812881Y-127134426D01*
X209818137Y-122865068D02*
G75*
G02*
X207686420Y-123597311I-1431980J699737D01*
G01*
D11*
X92250000Y-98750000D02*
X92250000Y-99250000D01*
X91850000Y-98750000D02*
X92250000Y-98150000D01*
X92650000Y-98750000D02*
X91850000Y-98750000D01*
X92250000Y-98150000D02*
X92650000Y-98750000D01*
X92250000Y-98150000D02*
X91700000Y-98150000D01*
X92250000Y-98150000D02*
X92800000Y-98150000D01*
X92250000Y-97750000D02*
X92250000Y-98150000D01*
X92250000Y-81250000D02*
X92250000Y-81750000D01*
X91850000Y-81250000D02*
X92250000Y-80650000D01*
X92650000Y-81250000D02*
X91850000Y-81250000D01*
X92250000Y-80650000D02*
X92650000Y-81250000D01*
X92250000Y-80650000D02*
X91700000Y-80650000D01*
X92250000Y-80650000D02*
X92800000Y-80650000D01*
X92250000Y-80250000D02*
X92250000Y-80650000D01*
X92250000Y-63750000D02*
X92250000Y-64250000D01*
X91850000Y-63750000D02*
X92250000Y-63150000D01*
X92650000Y-63750000D02*
X91850000Y-63750000D01*
X92250000Y-63150000D02*
X92650000Y-63750000D01*
X92250000Y-63150000D02*
X91700000Y-63150000D01*
X92250000Y-63150000D02*
X92800000Y-63150000D01*
X92250000Y-62750000D02*
X92250000Y-63150000D01*
X110750000Y-98750000D02*
X110750000Y-99250000D01*
X110350000Y-98750000D02*
X110750000Y-98150000D01*
X111150000Y-98750000D02*
X110350000Y-98750000D01*
X110750000Y-98150000D02*
X111150000Y-98750000D01*
X110750000Y-98150000D02*
X110200000Y-98150000D01*
X110750000Y-98150000D02*
X111300000Y-98150000D01*
X110750000Y-97750000D02*
X110750000Y-98150000D01*
X110750000Y-81250000D02*
X110750000Y-81750000D01*
X110350000Y-81250000D02*
X110750000Y-80650000D01*
X111150000Y-81250000D02*
X110350000Y-81250000D01*
X110750000Y-80650000D02*
X111150000Y-81250000D01*
X110750000Y-80650000D02*
X110200000Y-80650000D01*
X110750000Y-80650000D02*
X111300000Y-80650000D01*
X110750000Y-80250000D02*
X110750000Y-80650000D01*
X110750000Y-63750000D02*
X110750000Y-64250000D01*
X110350000Y-63750000D02*
X110750000Y-63150000D01*
X111150000Y-63750000D02*
X110350000Y-63750000D01*
X110750000Y-63150000D02*
X111150000Y-63750000D01*
X110750000Y-63150000D02*
X110200000Y-63150000D01*
X110750000Y-63150000D02*
X111300000Y-63150000D01*
X110750000Y-62750000D02*
X110750000Y-63150000D01*
X129250000Y-94375000D02*
X129250000Y-94875000D01*
X128850000Y-94375000D02*
X129250000Y-93775000D01*
X129650000Y-94375000D02*
X128850000Y-94375000D01*
X129250000Y-93775000D02*
X129650000Y-94375000D01*
X129250000Y-93775000D02*
X128700000Y-93775000D01*
X129250000Y-93775000D02*
X129800000Y-93775000D01*
X129250000Y-93375000D02*
X129250000Y-93775000D01*
X129250000Y-76875000D02*
X129250000Y-77375000D01*
X128850000Y-76875000D02*
X129250000Y-76275000D01*
X129650000Y-76875000D02*
X128850000Y-76875000D01*
X129250000Y-76275000D02*
X129650000Y-76875000D01*
X129250000Y-76275000D02*
X128700000Y-76275000D01*
X129250000Y-76275000D02*
X129800000Y-76275000D01*
X129250000Y-75875000D02*
X129250000Y-76275000D01*
X129250000Y-59375000D02*
X129250000Y-59875000D01*
X128850000Y-59375000D02*
X129250000Y-58775000D01*
X129650000Y-59375000D02*
X128850000Y-59375000D01*
X129250000Y-58775000D02*
X129650000Y-59375000D01*
X129250000Y-58775000D02*
X128700000Y-58775000D01*
X129250000Y-58775000D02*
X129800000Y-58775000D01*
X129250000Y-58375000D02*
X129250000Y-58775000D01*
X147750000Y-92187500D02*
X147750000Y-92687500D01*
X147350000Y-92187500D02*
X147750000Y-91587500D01*
X148150000Y-92187500D02*
X147350000Y-92187500D01*
X147750000Y-91587500D02*
X148150000Y-92187500D01*
X147750000Y-91587500D02*
X147200000Y-91587500D01*
X147750000Y-91587500D02*
X148300000Y-91587500D01*
X147750000Y-91187500D02*
X147750000Y-91587500D01*
X147750000Y-74687500D02*
X147750000Y-75187500D01*
X147350000Y-74687500D02*
X147750000Y-74087500D01*
X148150000Y-74687500D02*
X147350000Y-74687500D01*
X147750000Y-74087500D02*
X148150000Y-74687500D01*
X147750000Y-74087500D02*
X147200000Y-74087500D01*
X147750000Y-74087500D02*
X148300000Y-74087500D01*
X147750000Y-73687500D02*
X147750000Y-74087500D01*
X147750000Y-57187500D02*
X147750000Y-57687500D01*
X147350000Y-57187500D02*
X147750000Y-56587500D01*
X148150000Y-57187500D02*
X147350000Y-57187500D01*
X147750000Y-56587500D02*
X148150000Y-57187500D01*
X147750000Y-56587500D02*
X147200000Y-56587500D01*
X147750000Y-56587500D02*
X148300000Y-56587500D01*
X147750000Y-56187500D02*
X147750000Y-56587500D01*
X166250000Y-94375000D02*
X166250000Y-94875000D01*
X165850000Y-94375000D02*
X166250000Y-93775000D01*
X166650000Y-94375000D02*
X165850000Y-94375000D01*
X166250000Y-93775000D02*
X166650000Y-94375000D01*
X166250000Y-93775000D02*
X165700000Y-93775000D01*
X166250000Y-93775000D02*
X166800000Y-93775000D01*
X166250000Y-93375000D02*
X166250000Y-93775000D01*
X166250000Y-76875000D02*
X166250000Y-77375000D01*
X165850000Y-76875000D02*
X166250000Y-76275000D01*
X166650000Y-76875000D02*
X165850000Y-76875000D01*
X166250000Y-76275000D02*
X166650000Y-76875000D01*
X166250000Y-76275000D02*
X165700000Y-76275000D01*
X166250000Y-76275000D02*
X166800000Y-76275000D01*
X166250000Y-75875000D02*
X166250000Y-76275000D01*
X166250000Y-59375000D02*
X166250000Y-59875000D01*
X165850000Y-59375000D02*
X166250000Y-58775000D01*
X166650000Y-59375000D02*
X165850000Y-59375000D01*
X166250000Y-58775000D02*
X166650000Y-59375000D01*
X166250000Y-58775000D02*
X165700000Y-58775000D01*
X166250000Y-58775000D02*
X166800000Y-58775000D01*
X166250000Y-58375000D02*
X166250000Y-58775000D01*
X184750000Y-96562500D02*
X184750000Y-97062500D01*
X184350000Y-96562500D02*
X184750000Y-95962500D01*
X185150000Y-96562500D02*
X184350000Y-96562500D01*
X184750000Y-95962500D02*
X185150000Y-96562500D01*
X184750000Y-95962500D02*
X184200000Y-95962500D01*
X184750000Y-95962500D02*
X185300000Y-95962500D01*
X184750000Y-95562500D02*
X184750000Y-95962500D01*
X184750000Y-79062500D02*
X184750000Y-79562500D01*
X184350000Y-79062500D02*
X184750000Y-78462500D01*
X185150000Y-79062500D02*
X184350000Y-79062500D01*
X184750000Y-78462500D02*
X185150000Y-79062500D01*
X184750000Y-78462500D02*
X184200000Y-78462500D01*
X184750000Y-78462500D02*
X185300000Y-78462500D01*
X184750000Y-78062500D02*
X184750000Y-78462500D01*
X184750000Y-61562500D02*
X184750000Y-62062500D01*
X184350000Y-61562500D02*
X184750000Y-60962500D01*
X185150000Y-61562500D02*
X184350000Y-61562500D01*
X184750000Y-60962500D02*
X185150000Y-61562500D01*
X184750000Y-60962500D02*
X184200000Y-60962500D01*
X184750000Y-60962500D02*
X185300000Y-60962500D01*
X184750000Y-60562500D02*
X184750000Y-60962500D01*
X157000000Y-112687500D02*
X157000000Y-113187500D01*
X156600000Y-112687500D02*
X157000000Y-112087500D01*
X157400000Y-112687500D02*
X156600000Y-112687500D01*
X157000000Y-112087500D02*
X157400000Y-112687500D01*
X157000000Y-112087500D02*
X156450000Y-112087500D01*
X157000000Y-112087500D02*
X157550000Y-112087500D01*
X157000000Y-111687500D02*
X157000000Y-112087500D01*
X178087598Y-113474245D02*
X177958189Y-113957208D01*
X177701228Y-113370718D02*
X178242890Y-112894690D01*
X178473969Y-113577773D02*
X177701228Y-113370718D01*
X178242890Y-112894690D02*
X178473969Y-113577773D01*
X178242890Y-112894690D02*
X177711630Y-112752339D01*
X178242890Y-112894690D02*
X178774149Y-113037040D01*
X178346417Y-112508320D02*
X178242890Y-112894690D01*
X202056311Y-126408945D02*
X202489324Y-126658945D01*
X201856311Y-126755355D02*
X201536696Y-126108945D01*
X202256311Y-126062535D02*
X201856311Y-126755355D01*
X201536696Y-126108945D02*
X202256311Y-126062535D01*
X201536696Y-126108945D02*
X201261696Y-126585259D01*
X201536696Y-126108945D02*
X201811696Y-125632631D01*
X201190286Y-125908945D02*
X201536696Y-126108945D01*
D12*
X205914000Y-60590000D02*
X203254000Y-60590000D01*
X205914000Y-60590000D02*
X205914000Y-91190000D01*
X205914000Y-91190000D02*
X203254000Y-91190000D01*
X203254000Y-60590000D02*
X203254000Y-91190000D01*
X221154000Y-60590000D02*
X218494000Y-60590000D01*
X221154000Y-60590000D02*
X221154000Y-91190000D01*
X221154000Y-91190000D02*
X218494000Y-91190000D01*
X218494000Y-60590000D02*
X218494000Y-91190000D01*
X203254000Y-63190000D02*
X205914000Y-63190000D01*
X217037000Y-95678000D02*
X217037000Y-98338000D01*
X217037000Y-95678000D02*
X206757000Y-95678000D01*
X217037000Y-98338000D02*
X206757000Y-98338000D01*
X206757000Y-95678000D02*
X206757000Y-98338000D01*
D10*
X221100000Y-93501000D02*
X221350000Y-93501000D01*
X221350000Y-93501000D02*
X221350000Y-99501000D01*
X221350000Y-99501000D02*
X221100000Y-99501000D01*
X218100000Y-99501000D02*
X217850000Y-99501000D01*
X217850000Y-99501000D02*
X217850000Y-93501000D01*
X217850000Y-93501000D02*
X218100000Y-93501000D01*
D12*
X96200000Y-93700000D02*
X97800000Y-93700000D01*
X96200000Y-95300000D02*
X96200000Y-93700000D01*
X96200000Y-76200000D02*
X97800000Y-76200000D01*
X96200000Y-77800000D02*
X96200000Y-76200000D01*
X96200000Y-58700000D02*
X97800000Y-58700000D01*
X96200000Y-60300000D02*
X96200000Y-58700000D01*
X114700000Y-93700000D02*
X116300000Y-93700000D01*
X114700000Y-95300000D02*
X114700000Y-93700000D01*
X114700000Y-76200000D02*
X116300000Y-76200000D01*
X114700000Y-77800000D02*
X114700000Y-76200000D01*
X114700000Y-58700000D02*
X116300000Y-58700000D01*
X114700000Y-60300000D02*
X114700000Y-58700000D01*
X133200000Y-89325000D02*
X134800000Y-89325000D01*
X133200000Y-90925000D02*
X133200000Y-89325000D01*
X133200000Y-71825000D02*
X134800000Y-71825000D01*
X133200000Y-73425000D02*
X133200000Y-71825000D01*
X133200000Y-54325000D02*
X134800000Y-54325000D01*
X133200000Y-55925000D02*
X133200000Y-54325000D01*
X151700000Y-87137500D02*
X153300000Y-87137500D01*
X151700000Y-88737500D02*
X151700000Y-87137500D01*
X151700000Y-69637500D02*
X153300000Y-69637500D01*
X151700000Y-71237500D02*
X151700000Y-69637500D01*
X151700000Y-52137500D02*
X153300000Y-52137500D01*
X151700000Y-53737500D02*
X151700000Y-52137500D01*
X170200000Y-89325000D02*
X171800000Y-89325000D01*
X170200000Y-90925000D02*
X170200000Y-89325000D01*
X170200000Y-71825000D02*
X171800000Y-71825000D01*
X170200000Y-73425000D02*
X170200000Y-71825000D01*
X170200000Y-54325000D02*
X171800000Y-54325000D01*
X170200000Y-55925000D02*
X170200000Y-54325000D01*
X188700000Y-91512500D02*
X190300000Y-91512500D01*
X188700000Y-93112500D02*
X188700000Y-91512500D01*
X188700000Y-74012500D02*
X190300000Y-74012500D01*
X188700000Y-75612500D02*
X188700000Y-74012500D01*
X188700000Y-56512500D02*
X190300000Y-56512500D01*
X188700000Y-58112500D02*
X188700000Y-56512500D01*
X160950000Y-107637500D02*
X162550000Y-107637500D01*
X160950000Y-109237500D02*
X160950000Y-107637500D01*
X183210042Y-109618655D02*
X184755524Y-110032766D01*
X182795932Y-111164137D02*
X183210042Y-109618655D01*
X199657883Y-120463145D02*
X200457883Y-119077504D01*
X201043524Y-121263145D02*
X199657883Y-120463145D01*
X196300000Y-70912500D02*
X194700000Y-70912500D01*
X196300000Y-72512500D02*
X196300000Y-70912500D01*
X159300000Y-66537500D02*
X157700000Y-66537500D01*
X159300000Y-68137500D02*
X159300000Y-66537500D01*
X122300000Y-73100000D02*
X120700000Y-73100000D01*
X122300000Y-74700000D02*
X122300000Y-73100000D01*
X122300000Y-90600000D02*
X120700000Y-90600000D01*
X122300000Y-92200000D02*
X122300000Y-90600000D01*
X159300000Y-101537500D02*
X157700000Y-101537500D01*
X159300000Y-103137500D02*
X159300000Y-101537500D01*
X196300000Y-105912500D02*
X194700000Y-105912500D01*
X196300000Y-107512500D02*
X196300000Y-105912500D01*
%LPC*%
D13*
X204927000Y-100438500D03*
X218969000Y-108882500D03*
D14*
X109250000Y-73750000D03*
X109250000Y-91250000D03*
X183218000Y-70423500D03*
X151157000Y-107365000D03*
X197157608Y-114631748D03*
D15*
X100000000Y-100000000D03*
D16*
X94500000Y-100000000D03*
X105500000Y-100000000D03*
X105000000Y-94850000D03*
D17*
X100000000Y-105950000D03*
G36*
G01*
X104625000Y-104650000D02*
X104625000Y-107250000D01*
G75*
G02*
X104575000Y-107300000I-50000J0D01*
G01*
X101975000Y-107300000D01*
G75*
G02*
X101925000Y-107250000I0J50000D01*
G01*
X101925000Y-104650000D01*
G75*
G02*
X101975000Y-104600000I50000J0D01*
G01*
X104575000Y-104600000D01*
G75*
G02*
X104625000Y-104650000I0J-50000D01*
G01*
G37*
G36*
G01*
X93075000Y-102450000D02*
X93075000Y-105050000D01*
G75*
G02*
X93025000Y-105100000I-50000J0D01*
G01*
X90425000Y-105100000D01*
G75*
G02*
X90375000Y-105050000I0J50000D01*
G01*
X90375000Y-102450000D01*
G75*
G02*
X90425000Y-102400000I50000J0D01*
G01*
X93025000Y-102400000D01*
G75*
G02*
X93075000Y-102450000I0J-50000D01*
G01*
G37*
X95000000Y-103750000D03*
D15*
X100000000Y-82500000D03*
D16*
X94500000Y-82500000D03*
X105500000Y-82500000D03*
X105000000Y-77350000D03*
D17*
X100000000Y-88450000D03*
G36*
G01*
X104625000Y-87150000D02*
X104625000Y-89750000D01*
G75*
G02*
X104575000Y-89800000I-50000J0D01*
G01*
X101975000Y-89800000D01*
G75*
G02*
X101925000Y-89750000I0J50000D01*
G01*
X101925000Y-87150000D01*
G75*
G02*
X101975000Y-87100000I50000J0D01*
G01*
X104575000Y-87100000D01*
G75*
G02*
X104625000Y-87150000I0J-50000D01*
G01*
G37*
G36*
G01*
X93075000Y-84950000D02*
X93075000Y-87550000D01*
G75*
G02*
X93025000Y-87600000I-50000J0D01*
G01*
X90425000Y-87600000D01*
G75*
G02*
X90375000Y-87550000I0J50000D01*
G01*
X90375000Y-84950000D01*
G75*
G02*
X90425000Y-84900000I50000J0D01*
G01*
X93025000Y-84900000D01*
G75*
G02*
X93075000Y-84950000I0J-50000D01*
G01*
G37*
X95000000Y-86250000D03*
D15*
X100000000Y-65000000D03*
D16*
X94500000Y-65000000D03*
X105500000Y-65000000D03*
X105000000Y-59850000D03*
D17*
X100000000Y-70950000D03*
G36*
G01*
X104625000Y-69650000D02*
X104625000Y-72250000D01*
G75*
G02*
X104575000Y-72300000I-50000J0D01*
G01*
X101975000Y-72300000D01*
G75*
G02*
X101925000Y-72250000I0J50000D01*
G01*
X101925000Y-69650000D01*
G75*
G02*
X101975000Y-69600000I50000J0D01*
G01*
X104575000Y-69600000D01*
G75*
G02*
X104625000Y-69650000I0J-50000D01*
G01*
G37*
G36*
G01*
X93075000Y-67450000D02*
X93075000Y-70050000D01*
G75*
G02*
X93025000Y-70100000I-50000J0D01*
G01*
X90425000Y-70100000D01*
G75*
G02*
X90375000Y-70050000I0J50000D01*
G01*
X90375000Y-67450000D01*
G75*
G02*
X90425000Y-67400000I50000J0D01*
G01*
X93025000Y-67400000D01*
G75*
G02*
X93075000Y-67450000I0J-50000D01*
G01*
G37*
X95000000Y-68750000D03*
D15*
X118500000Y-100000000D03*
D16*
X113000000Y-100000000D03*
X124000000Y-100000000D03*
X123500000Y-94850000D03*
D17*
X118500000Y-105950000D03*
G36*
G01*
X123125000Y-104650000D02*
X123125000Y-107250000D01*
G75*
G02*
X123075000Y-107300000I-50000J0D01*
G01*
X120475000Y-107300000D01*
G75*
G02*
X120425000Y-107250000I0J50000D01*
G01*
X120425000Y-104650000D01*
G75*
G02*
X120475000Y-104600000I50000J0D01*
G01*
X123075000Y-104600000D01*
G75*
G02*
X123125000Y-104650000I0J-50000D01*
G01*
G37*
G36*
G01*
X111575000Y-102450000D02*
X111575000Y-105050000D01*
G75*
G02*
X111525000Y-105100000I-50000J0D01*
G01*
X108925000Y-105100000D01*
G75*
G02*
X108875000Y-105050000I0J50000D01*
G01*
X108875000Y-102450000D01*
G75*
G02*
X108925000Y-102400000I50000J0D01*
G01*
X111525000Y-102400000D01*
G75*
G02*
X111575000Y-102450000I0J-50000D01*
G01*
G37*
X113500000Y-103750000D03*
D15*
X118500000Y-82500000D03*
D16*
X113000000Y-82500000D03*
X124000000Y-82500000D03*
X123500000Y-77350000D03*
D17*
X118500000Y-88450000D03*
G36*
G01*
X123125000Y-87150000D02*
X123125000Y-89750000D01*
G75*
G02*
X123075000Y-89800000I-50000J0D01*
G01*
X120475000Y-89800000D01*
G75*
G02*
X120425000Y-89750000I0J50000D01*
G01*
X120425000Y-87150000D01*
G75*
G02*
X120475000Y-87100000I50000J0D01*
G01*
X123075000Y-87100000D01*
G75*
G02*
X123125000Y-87150000I0J-50000D01*
G01*
G37*
G36*
G01*
X111575000Y-84950000D02*
X111575000Y-87550000D01*
G75*
G02*
X111525000Y-87600000I-50000J0D01*
G01*
X108925000Y-87600000D01*
G75*
G02*
X108875000Y-87550000I0J50000D01*
G01*
X108875000Y-84950000D01*
G75*
G02*
X108925000Y-84900000I50000J0D01*
G01*
X111525000Y-84900000D01*
G75*
G02*
X111575000Y-84950000I0J-50000D01*
G01*
G37*
X113500000Y-86250000D03*
D15*
X118500000Y-65000000D03*
D16*
X113000000Y-65000000D03*
X124000000Y-65000000D03*
X123500000Y-59850000D03*
D17*
X118500000Y-70950000D03*
G36*
G01*
X123125000Y-69650000D02*
X123125000Y-72250000D01*
G75*
G02*
X123075000Y-72300000I-50000J0D01*
G01*
X120475000Y-72300000D01*
G75*
G02*
X120425000Y-72250000I0J50000D01*
G01*
X120425000Y-69650000D01*
G75*
G02*
X120475000Y-69600000I50000J0D01*
G01*
X123075000Y-69600000D01*
G75*
G02*
X123125000Y-69650000I0J-50000D01*
G01*
G37*
G36*
G01*
X111575000Y-67450000D02*
X111575000Y-70050000D01*
G75*
G02*
X111525000Y-70100000I-50000J0D01*
G01*
X108925000Y-70100000D01*
G75*
G02*
X108875000Y-70050000I0J50000D01*
G01*
X108875000Y-67450000D01*
G75*
G02*
X108925000Y-67400000I50000J0D01*
G01*
X111525000Y-67400000D01*
G75*
G02*
X111575000Y-67450000I0J-50000D01*
G01*
G37*
X113500000Y-68750000D03*
D15*
X137000000Y-95625000D03*
D16*
X131500000Y-95625000D03*
X142500000Y-95625000D03*
X142000000Y-90475000D03*
D17*
X137000000Y-101575000D03*
G36*
G01*
X141625000Y-100275000D02*
X141625000Y-102875000D01*
G75*
G02*
X141575000Y-102925000I-50000J0D01*
G01*
X138975000Y-102925000D01*
G75*
G02*
X138925000Y-102875000I0J50000D01*
G01*
X138925000Y-100275000D01*
G75*
G02*
X138975000Y-100225000I50000J0D01*
G01*
X141575000Y-100225000D01*
G75*
G02*
X141625000Y-100275000I0J-50000D01*
G01*
G37*
G36*
G01*
X130075000Y-98075000D02*
X130075000Y-100675000D01*
G75*
G02*
X130025000Y-100725000I-50000J0D01*
G01*
X127425000Y-100725000D01*
G75*
G02*
X127375000Y-100675000I0J50000D01*
G01*
X127375000Y-98075000D01*
G75*
G02*
X127425000Y-98025000I50000J0D01*
G01*
X130025000Y-98025000D01*
G75*
G02*
X130075000Y-98075000I0J-50000D01*
G01*
G37*
X132000000Y-99375000D03*
D15*
X137000000Y-78125000D03*
D16*
X131500000Y-78125000D03*
X142500000Y-78125000D03*
X142000000Y-72975000D03*
D17*
X137000000Y-84075000D03*
G36*
G01*
X141625000Y-82775000D02*
X141625000Y-85375000D01*
G75*
G02*
X141575000Y-85425000I-50000J0D01*
G01*
X138975000Y-85425000D01*
G75*
G02*
X138925000Y-85375000I0J50000D01*
G01*
X138925000Y-82775000D01*
G75*
G02*
X138975000Y-82725000I50000J0D01*
G01*
X141575000Y-82725000D01*
G75*
G02*
X141625000Y-82775000I0J-50000D01*
G01*
G37*
G36*
G01*
X130075000Y-80575000D02*
X130075000Y-83175000D01*
G75*
G02*
X130025000Y-83225000I-50000J0D01*
G01*
X127425000Y-83225000D01*
G75*
G02*
X127375000Y-83175000I0J50000D01*
G01*
X127375000Y-80575000D01*
G75*
G02*
X127425000Y-80525000I50000J0D01*
G01*
X130025000Y-80525000D01*
G75*
G02*
X130075000Y-80575000I0J-50000D01*
G01*
G37*
X132000000Y-81875000D03*
D15*
X137000000Y-60625000D03*
D16*
X131500000Y-60625000D03*
X142500000Y-60625000D03*
X142000000Y-55475000D03*
D17*
X137000000Y-66575000D03*
G36*
G01*
X141625000Y-65275000D02*
X141625000Y-67875000D01*
G75*
G02*
X141575000Y-67925000I-50000J0D01*
G01*
X138975000Y-67925000D01*
G75*
G02*
X138925000Y-67875000I0J50000D01*
G01*
X138925000Y-65275000D01*
G75*
G02*
X138975000Y-65225000I50000J0D01*
G01*
X141575000Y-65225000D01*
G75*
G02*
X141625000Y-65275000I0J-50000D01*
G01*
G37*
G36*
G01*
X130075000Y-63075000D02*
X130075000Y-65675000D01*
G75*
G02*
X130025000Y-65725000I-50000J0D01*
G01*
X127425000Y-65725000D01*
G75*
G02*
X127375000Y-65675000I0J50000D01*
G01*
X127375000Y-63075000D01*
G75*
G02*
X127425000Y-63025000I50000J0D01*
G01*
X130025000Y-63025000D01*
G75*
G02*
X130075000Y-63075000I0J-50000D01*
G01*
G37*
X132000000Y-64375000D03*
D15*
X155500000Y-93437500D03*
D16*
X150000000Y-93437500D03*
X161000000Y-93437500D03*
X160500000Y-88287500D03*
D17*
X155500000Y-99387500D03*
G36*
G01*
X160125000Y-98087500D02*
X160125000Y-100687500D01*
G75*
G02*
X160075000Y-100737500I-50000J0D01*
G01*
X157475000Y-100737500D01*
G75*
G02*
X157425000Y-100687500I0J50000D01*
G01*
X157425000Y-98087500D01*
G75*
G02*
X157475000Y-98037500I50000J0D01*
G01*
X160075000Y-98037500D01*
G75*
G02*
X160125000Y-98087500I0J-50000D01*
G01*
G37*
G36*
G01*
X148575000Y-95887500D02*
X148575000Y-98487500D01*
G75*
G02*
X148525000Y-98537500I-50000J0D01*
G01*
X145925000Y-98537500D01*
G75*
G02*
X145875000Y-98487500I0J50000D01*
G01*
X145875000Y-95887500D01*
G75*
G02*
X145925000Y-95837500I50000J0D01*
G01*
X148525000Y-95837500D01*
G75*
G02*
X148575000Y-95887500I0J-50000D01*
G01*
G37*
X150500000Y-97187500D03*
D15*
X155500000Y-75937500D03*
D16*
X150000000Y-75937500D03*
X161000000Y-75937500D03*
X160500000Y-70787500D03*
D17*
X155500000Y-81887500D03*
G36*
G01*
X160125000Y-80587500D02*
X160125000Y-83187500D01*
G75*
G02*
X160075000Y-83237500I-50000J0D01*
G01*
X157475000Y-83237500D01*
G75*
G02*
X157425000Y-83187500I0J50000D01*
G01*
X157425000Y-80587500D01*
G75*
G02*
X157475000Y-80537500I50000J0D01*
G01*
X160075000Y-80537500D01*
G75*
G02*
X160125000Y-80587500I0J-50000D01*
G01*
G37*
G36*
G01*
X148575000Y-78387500D02*
X148575000Y-80987500D01*
G75*
G02*
X148525000Y-81037500I-50000J0D01*
G01*
X145925000Y-81037500D01*
G75*
G02*
X145875000Y-80987500I0J50000D01*
G01*
X145875000Y-78387500D01*
G75*
G02*
X145925000Y-78337500I50000J0D01*
G01*
X148525000Y-78337500D01*
G75*
G02*
X148575000Y-78387500I0J-50000D01*
G01*
G37*
X150500000Y-79687500D03*
D15*
X155500000Y-58437500D03*
D16*
X150000000Y-58437500D03*
X161000000Y-58437500D03*
X160500000Y-53287500D03*
D17*
X155500000Y-64387500D03*
G36*
G01*
X160125000Y-63087500D02*
X160125000Y-65687500D01*
G75*
G02*
X160075000Y-65737500I-50000J0D01*
G01*
X157475000Y-65737500D01*
G75*
G02*
X157425000Y-65687500I0J50000D01*
G01*
X157425000Y-63087500D01*
G75*
G02*
X157475000Y-63037500I50000J0D01*
G01*
X160075000Y-63037500D01*
G75*
G02*
X160125000Y-63087500I0J-50000D01*
G01*
G37*
G36*
G01*
X148575000Y-60887500D02*
X148575000Y-63487500D01*
G75*
G02*
X148525000Y-63537500I-50000J0D01*
G01*
X145925000Y-63537500D01*
G75*
G02*
X145875000Y-63487500I0J50000D01*
G01*
X145875000Y-60887500D01*
G75*
G02*
X145925000Y-60837500I50000J0D01*
G01*
X148525000Y-60837500D01*
G75*
G02*
X148575000Y-60887500I0J-50000D01*
G01*
G37*
X150500000Y-62187500D03*
D15*
X174000000Y-95625000D03*
D16*
X168500000Y-95625000D03*
X179500000Y-95625000D03*
X179000000Y-90475000D03*
D17*
X174000000Y-101575000D03*
G36*
G01*
X178625000Y-100275000D02*
X178625000Y-102875000D01*
G75*
G02*
X178575000Y-102925000I-50000J0D01*
G01*
X175975000Y-102925000D01*
G75*
G02*
X175925000Y-102875000I0J50000D01*
G01*
X175925000Y-100275000D01*
G75*
G02*
X175975000Y-100225000I50000J0D01*
G01*
X178575000Y-100225000D01*
G75*
G02*
X178625000Y-100275000I0J-50000D01*
G01*
G37*
G36*
G01*
X167075000Y-98075000D02*
X167075000Y-100675000D01*
G75*
G02*
X167025000Y-100725000I-50000J0D01*
G01*
X164425000Y-100725000D01*
G75*
G02*
X164375000Y-100675000I0J50000D01*
G01*
X164375000Y-98075000D01*
G75*
G02*
X164425000Y-98025000I50000J0D01*
G01*
X167025000Y-98025000D01*
G75*
G02*
X167075000Y-98075000I0J-50000D01*
G01*
G37*
X169000000Y-99375000D03*
D15*
X174000000Y-78125000D03*
D16*
X168500000Y-78125000D03*
X179500000Y-78125000D03*
X179000000Y-72975000D03*
D17*
X174000000Y-84075000D03*
G36*
G01*
X178625000Y-82775000D02*
X178625000Y-85375000D01*
G75*
G02*
X178575000Y-85425000I-50000J0D01*
G01*
X175975000Y-85425000D01*
G75*
G02*
X175925000Y-85375000I0J50000D01*
G01*
X175925000Y-82775000D01*
G75*
G02*
X175975000Y-82725000I50000J0D01*
G01*
X178575000Y-82725000D01*
G75*
G02*
X178625000Y-82775000I0J-50000D01*
G01*
G37*
G36*
G01*
X167075000Y-80575000D02*
X167075000Y-83175000D01*
G75*
G02*
X167025000Y-83225000I-50000J0D01*
G01*
X164425000Y-83225000D01*
G75*
G02*
X164375000Y-83175000I0J50000D01*
G01*
X164375000Y-80575000D01*
G75*
G02*
X164425000Y-80525000I50000J0D01*
G01*
X167025000Y-80525000D01*
G75*
G02*
X167075000Y-80575000I0J-50000D01*
G01*
G37*
X169000000Y-81875000D03*
D15*
X174000000Y-60625000D03*
D16*
X168500000Y-60625000D03*
X179500000Y-60625000D03*
X179000000Y-55475000D03*
D17*
X174000000Y-66575000D03*
G36*
G01*
X178625000Y-65275000D02*
X178625000Y-67875000D01*
G75*
G02*
X178575000Y-67925000I-50000J0D01*
G01*
X175975000Y-67925000D01*
G75*
G02*
X175925000Y-67875000I0J50000D01*
G01*
X175925000Y-65275000D01*
G75*
G02*
X175975000Y-65225000I50000J0D01*
G01*
X178575000Y-65225000D01*
G75*
G02*
X178625000Y-65275000I0J-50000D01*
G01*
G37*
G36*
G01*
X167075000Y-63075000D02*
X167075000Y-65675000D01*
G75*
G02*
X167025000Y-65725000I-50000J0D01*
G01*
X164425000Y-65725000D01*
G75*
G02*
X164375000Y-65675000I0J50000D01*
G01*
X164375000Y-63075000D01*
G75*
G02*
X164425000Y-63025000I50000J0D01*
G01*
X167025000Y-63025000D01*
G75*
G02*
X167075000Y-63075000I0J-50000D01*
G01*
G37*
X169000000Y-64375000D03*
D15*
X192500000Y-97812500D03*
D16*
X187000000Y-97812500D03*
X198000000Y-97812500D03*
X197500000Y-92662500D03*
D17*
X192500000Y-103762500D03*
G36*
G01*
X197125000Y-102462500D02*
X197125000Y-105062500D01*
G75*
G02*
X197075000Y-105112500I-50000J0D01*
G01*
X194475000Y-105112500D01*
G75*
G02*
X194425000Y-105062500I0J50000D01*
G01*
X194425000Y-102462500D01*
G75*
G02*
X194475000Y-102412500I50000J0D01*
G01*
X197075000Y-102412500D01*
G75*
G02*
X197125000Y-102462500I0J-50000D01*
G01*
G37*
G36*
G01*
X185575000Y-100262500D02*
X185575000Y-102862500D01*
G75*
G02*
X185525000Y-102912500I-50000J0D01*
G01*
X182925000Y-102912500D01*
G75*
G02*
X182875000Y-102862500I0J50000D01*
G01*
X182875000Y-100262500D01*
G75*
G02*
X182925000Y-100212500I50000J0D01*
G01*
X185525000Y-100212500D01*
G75*
G02*
X185575000Y-100262500I0J-50000D01*
G01*
G37*
X187500000Y-101562500D03*
D15*
X192500000Y-80312500D03*
D16*
X187000000Y-80312500D03*
X198000000Y-80312500D03*
X197500000Y-75162500D03*
D17*
X192500000Y-86262500D03*
G36*
G01*
X197125000Y-84962500D02*
X197125000Y-87562500D01*
G75*
G02*
X197075000Y-87612500I-50000J0D01*
G01*
X194475000Y-87612500D01*
G75*
G02*
X194425000Y-87562500I0J50000D01*
G01*
X194425000Y-84962500D01*
G75*
G02*
X194475000Y-84912500I50000J0D01*
G01*
X197075000Y-84912500D01*
G75*
G02*
X197125000Y-84962500I0J-50000D01*
G01*
G37*
G36*
G01*
X185575000Y-82762500D02*
X185575000Y-85362500D01*
G75*
G02*
X185525000Y-85412500I-50000J0D01*
G01*
X182925000Y-85412500D01*
G75*
G02*
X182875000Y-85362500I0J50000D01*
G01*
X182875000Y-82762500D01*
G75*
G02*
X182925000Y-82712500I50000J0D01*
G01*
X185525000Y-82712500D01*
G75*
G02*
X185575000Y-82762500I0J-50000D01*
G01*
G37*
X187500000Y-84062500D03*
D15*
X192500000Y-62812500D03*
D16*
X187000000Y-62812500D03*
X198000000Y-62812500D03*
X197500000Y-57662500D03*
D17*
X192500000Y-68762500D03*
G36*
G01*
X197125000Y-67462500D02*
X197125000Y-70062500D01*
G75*
G02*
X197075000Y-70112500I-50000J0D01*
G01*
X194475000Y-70112500D01*
G75*
G02*
X194425000Y-70062500I0J50000D01*
G01*
X194425000Y-67462500D01*
G75*
G02*
X194475000Y-67412500I50000J0D01*
G01*
X197075000Y-67412500D01*
G75*
G02*
X197125000Y-67462500I0J-50000D01*
G01*
G37*
G36*
G01*
X185575000Y-65262500D02*
X185575000Y-67862500D01*
G75*
G02*
X185525000Y-67912500I-50000J0D01*
G01*
X182925000Y-67912500D01*
G75*
G02*
X182875000Y-67862500I0J50000D01*
G01*
X182875000Y-65262500D01*
G75*
G02*
X182925000Y-65212500I50000J0D01*
G01*
X185525000Y-65212500D01*
G75*
G02*
X185575000Y-65262500I0J-50000D01*
G01*
G37*
X187500000Y-66562500D03*
D15*
X164750000Y-113937500D03*
D16*
X159250000Y-113937500D03*
X170250000Y-113937500D03*
X169750000Y-108787500D03*
D17*
X164750000Y-119887500D03*
G36*
G01*
X169375000Y-118587500D02*
X169375000Y-121187500D01*
G75*
G02*
X169325000Y-121237500I-50000J0D01*
G01*
X166725000Y-121237500D01*
G75*
G02*
X166675000Y-121187500I0J50000D01*
G01*
X166675000Y-118587500D01*
G75*
G02*
X166725000Y-118537500I50000J0D01*
G01*
X169325000Y-118537500D01*
G75*
G02*
X169375000Y-118587500I0J-50000D01*
G01*
G37*
G36*
G01*
X157825000Y-116387500D02*
X157825000Y-118987500D01*
G75*
G02*
X157775000Y-119037500I-50000J0D01*
G01*
X155175000Y-119037500D01*
G75*
G02*
X155125000Y-118987500I0J50000D01*
G01*
X155125000Y-116387500D01*
G75*
G02*
X155175000Y-116337500I50000J0D01*
G01*
X157775000Y-116337500D01*
G75*
G02*
X157825000Y-116387500I0J-50000D01*
G01*
G37*
X159750000Y-117687500D03*
D15*
X185250000Y-116687500D03*
D16*
X179937408Y-115263995D03*
X190562592Y-118111005D03*
X191412547Y-113007077D03*
D17*
X183710027Y-122434759D03*
G36*
G01*
X188513898Y-122376093D02*
X187840969Y-124887500D01*
G75*
G02*
X187779732Y-124922855I-48296J12941D01*
G01*
X185268325Y-124249926D01*
G75*
G02*
X185232970Y-124188689I12941J48296D01*
G01*
X185905899Y-121677282D01*
G75*
G02*
X185967136Y-121641927I48296J-12941D01*
G01*
X188478543Y-122314856D01*
G75*
G02*
X188513898Y-122376093I-12941J-48296D01*
G01*
G37*
G36*
G01*
X177926856Y-117261696D02*
X177253927Y-119773103D01*
G75*
G02*
X177192690Y-119808458I-48296J12941D01*
G01*
X174681283Y-119135529D01*
G75*
G02*
X174645928Y-119074292I12941J48296D01*
G01*
X175318857Y-116562885D01*
G75*
G02*
X175380094Y-116527530I48296J-12941D01*
G01*
X177891501Y-117200459D01*
G75*
G02*
X177926856Y-117261696I-12941J-48296D01*
G01*
G37*
X179449799Y-119015627D03*
D15*
X207013843Y-120322248D03*
D16*
X204263843Y-125085388D03*
X209763843Y-115559108D03*
X205053812Y-113417121D03*
D17*
X212166694Y-123297248D03*
G36*
G01*
X213353361Y-118641881D02*
X215605027Y-119941881D01*
G75*
G02*
X215623328Y-120010182I-25000J-43301D01*
G01*
X214323328Y-122261848D01*
G75*
G02*
X214255027Y-122280149I-43301J25000D01*
G01*
X212003361Y-120980149D01*
G75*
G02*
X211985060Y-120911848I25000J43301D01*
G01*
X213285060Y-118660182D01*
G75*
G02*
X213353361Y-118641881I43301J-25000D01*
G01*
G37*
G36*
G01*
X205673105Y-127544474D02*
X207924771Y-128844474D01*
G75*
G02*
X207943072Y-128912775I-25000J-43301D01*
G01*
X206643072Y-131164441D01*
G75*
G02*
X206574771Y-131182742I-43301J25000D01*
G01*
X204323105Y-129882742D01*
G75*
G02*
X204304804Y-129814441I25000J43301D01*
G01*
X205604804Y-127562775D01*
G75*
G02*
X205673105Y-127544474I43301J-25000D01*
G01*
G37*
X207761438Y-126527375D03*
G36*
G01*
X91650000Y-96350000D02*
X92850000Y-96350000D01*
G75*
G02*
X92900000Y-96400000I0J-50000D01*
G01*
X92900000Y-97300000D01*
G75*
G02*
X92850000Y-97350000I-50000J0D01*
G01*
X91650000Y-97350000D01*
G75*
G02*
X91600000Y-97300000I0J50000D01*
G01*
X91600000Y-96400000D01*
G75*
G02*
X91650000Y-96350000I50000J0D01*
G01*
G37*
G36*
G01*
X91650000Y-99650000D02*
X92850000Y-99650000D01*
G75*
G02*
X92900000Y-99700000I0J-50000D01*
G01*
X92900000Y-100600000D01*
G75*
G02*
X92850000Y-100650000I-50000J0D01*
G01*
X91650000Y-100650000D01*
G75*
G02*
X91600000Y-100600000I0J50000D01*
G01*
X91600000Y-99700000D01*
G75*
G02*
X91650000Y-99650000I50000J0D01*
G01*
G37*
G36*
G01*
X91650000Y-78850000D02*
X92850000Y-78850000D01*
G75*
G02*
X92900000Y-78900000I0J-50000D01*
G01*
X92900000Y-79800000D01*
G75*
G02*
X92850000Y-79850000I-50000J0D01*
G01*
X91650000Y-79850000D01*
G75*
G02*
X91600000Y-79800000I0J50000D01*
G01*
X91600000Y-78900000D01*
G75*
G02*
X91650000Y-78850000I50000J0D01*
G01*
G37*
G36*
G01*
X91650000Y-82150000D02*
X92850000Y-82150000D01*
G75*
G02*
X92900000Y-82200000I0J-50000D01*
G01*
X92900000Y-83100000D01*
G75*
G02*
X92850000Y-83150000I-50000J0D01*
G01*
X91650000Y-83150000D01*
G75*
G02*
X91600000Y-83100000I0J50000D01*
G01*
X91600000Y-82200000D01*
G75*
G02*
X91650000Y-82150000I50000J0D01*
G01*
G37*
G36*
G01*
X91650000Y-61350000D02*
X92850000Y-61350000D01*
G75*
G02*
X92900000Y-61400000I0J-50000D01*
G01*
X92900000Y-62300000D01*
G75*
G02*
X92850000Y-62350000I-50000J0D01*
G01*
X91650000Y-62350000D01*
G75*
G02*
X91600000Y-62300000I0J50000D01*
G01*
X91600000Y-61400000D01*
G75*
G02*
X91650000Y-61350000I50000J0D01*
G01*
G37*
G36*
G01*
X91650000Y-64650000D02*
X92850000Y-64650000D01*
G75*
G02*
X92900000Y-64700000I0J-50000D01*
G01*
X92900000Y-65600000D01*
G75*
G02*
X92850000Y-65650000I-50000J0D01*
G01*
X91650000Y-65650000D01*
G75*
G02*
X91600000Y-65600000I0J50000D01*
G01*
X91600000Y-64700000D01*
G75*
G02*
X91650000Y-64650000I50000J0D01*
G01*
G37*
G36*
G01*
X110150000Y-96350000D02*
X111350000Y-96350000D01*
G75*
G02*
X111400000Y-96400000I0J-50000D01*
G01*
X111400000Y-97300000D01*
G75*
G02*
X111350000Y-97350000I-50000J0D01*
G01*
X110150000Y-97350000D01*
G75*
G02*
X110100000Y-97300000I0J50000D01*
G01*
X110100000Y-96400000D01*
G75*
G02*
X110150000Y-96350000I50000J0D01*
G01*
G37*
G36*
G01*
X110150000Y-99650000D02*
X111350000Y-99650000D01*
G75*
G02*
X111400000Y-99700000I0J-50000D01*
G01*
X111400000Y-100600000D01*
G75*
G02*
X111350000Y-100650000I-50000J0D01*
G01*
X110150000Y-100650000D01*
G75*
G02*
X110100000Y-100600000I0J50000D01*
G01*
X110100000Y-99700000D01*
G75*
G02*
X110150000Y-99650000I50000J0D01*
G01*
G37*
G36*
G01*
X110150000Y-78850000D02*
X111350000Y-78850000D01*
G75*
G02*
X111400000Y-78900000I0J-50000D01*
G01*
X111400000Y-79800000D01*
G75*
G02*
X111350000Y-79850000I-50000J0D01*
G01*
X110150000Y-79850000D01*
G75*
G02*
X110100000Y-79800000I0J50000D01*
G01*
X110100000Y-78900000D01*
G75*
G02*
X110150000Y-78850000I50000J0D01*
G01*
G37*
G36*
G01*
X110150000Y-82150000D02*
X111350000Y-82150000D01*
G75*
G02*
X111400000Y-82200000I0J-50000D01*
G01*
X111400000Y-83100000D01*
G75*
G02*
X111350000Y-83150000I-50000J0D01*
G01*
X110150000Y-83150000D01*
G75*
G02*
X110100000Y-83100000I0J50000D01*
G01*
X110100000Y-82200000D01*
G75*
G02*
X110150000Y-82150000I50000J0D01*
G01*
G37*
G36*
G01*
X110150000Y-61350000D02*
X111350000Y-61350000D01*
G75*
G02*
X111400000Y-61400000I0J-50000D01*
G01*
X111400000Y-62300000D01*
G75*
G02*
X111350000Y-62350000I-50000J0D01*
G01*
X110150000Y-62350000D01*
G75*
G02*
X110100000Y-62300000I0J50000D01*
G01*
X110100000Y-61400000D01*
G75*
G02*
X110150000Y-61350000I50000J0D01*
G01*
G37*
G36*
G01*
X110150000Y-64650000D02*
X111350000Y-64650000D01*
G75*
G02*
X111400000Y-64700000I0J-50000D01*
G01*
X111400000Y-65600000D01*
G75*
G02*
X111350000Y-65650000I-50000J0D01*
G01*
X110150000Y-65650000D01*
G75*
G02*
X110100000Y-65600000I0J50000D01*
G01*
X110100000Y-64700000D01*
G75*
G02*
X110150000Y-64650000I50000J0D01*
G01*
G37*
G36*
G01*
X128650000Y-91975000D02*
X129850000Y-91975000D01*
G75*
G02*
X129900000Y-92025000I0J-50000D01*
G01*
X129900000Y-92925000D01*
G75*
G02*
X129850000Y-92975000I-50000J0D01*
G01*
X128650000Y-92975000D01*
G75*
G02*
X128600000Y-92925000I0J50000D01*
G01*
X128600000Y-92025000D01*
G75*
G02*
X128650000Y-91975000I50000J0D01*
G01*
G37*
G36*
G01*
X128650000Y-95275000D02*
X129850000Y-95275000D01*
G75*
G02*
X129900000Y-95325000I0J-50000D01*
G01*
X129900000Y-96225000D01*
G75*
G02*
X129850000Y-96275000I-50000J0D01*
G01*
X128650000Y-96275000D01*
G75*
G02*
X128600000Y-96225000I0J50000D01*
G01*
X128600000Y-95325000D01*
G75*
G02*
X128650000Y-95275000I50000J0D01*
G01*
G37*
G36*
G01*
X128650000Y-74475000D02*
X129850000Y-74475000D01*
G75*
G02*
X129900000Y-74525000I0J-50000D01*
G01*
X129900000Y-75425000D01*
G75*
G02*
X129850000Y-75475000I-50000J0D01*
G01*
X128650000Y-75475000D01*
G75*
G02*
X128600000Y-75425000I0J50000D01*
G01*
X128600000Y-74525000D01*
G75*
G02*
X128650000Y-74475000I50000J0D01*
G01*
G37*
G36*
G01*
X128650000Y-77775000D02*
X129850000Y-77775000D01*
G75*
G02*
X129900000Y-77825000I0J-50000D01*
G01*
X129900000Y-78725000D01*
G75*
G02*
X129850000Y-78775000I-50000J0D01*
G01*
X128650000Y-78775000D01*
G75*
G02*
X128600000Y-78725000I0J50000D01*
G01*
X128600000Y-77825000D01*
G75*
G02*
X128650000Y-77775000I50000J0D01*
G01*
G37*
G36*
G01*
X128650000Y-56975000D02*
X129850000Y-56975000D01*
G75*
G02*
X129900000Y-57025000I0J-50000D01*
G01*
X129900000Y-57925000D01*
G75*
G02*
X129850000Y-57975000I-50000J0D01*
G01*
X128650000Y-57975000D01*
G75*
G02*
X128600000Y-57925000I0J50000D01*
G01*
X128600000Y-57025000D01*
G75*
G02*
X128650000Y-56975000I50000J0D01*
G01*
G37*
G36*
G01*
X128650000Y-60275000D02*
X129850000Y-60275000D01*
G75*
G02*
X129900000Y-60325000I0J-50000D01*
G01*
X129900000Y-61225000D01*
G75*
G02*
X129850000Y-61275000I-50000J0D01*
G01*
X128650000Y-61275000D01*
G75*
G02*
X128600000Y-61225000I0J50000D01*
G01*
X128600000Y-60325000D01*
G75*
G02*
X128650000Y-60275000I50000J0D01*
G01*
G37*
G36*
G01*
X147150000Y-89787500D02*
X148350000Y-89787500D01*
G75*
G02*
X148400000Y-89837500I0J-50000D01*
G01*
X148400000Y-90737500D01*
G75*
G02*
X148350000Y-90787500I-50000J0D01*
G01*
X147150000Y-90787500D01*
G75*
G02*
X147100000Y-90737500I0J50000D01*
G01*
X147100000Y-89837500D01*
G75*
G02*
X147150000Y-89787500I50000J0D01*
G01*
G37*
G36*
G01*
X147150000Y-93087500D02*
X148350000Y-93087500D01*
G75*
G02*
X148400000Y-93137500I0J-50000D01*
G01*
X148400000Y-94037500D01*
G75*
G02*
X148350000Y-94087500I-50000J0D01*
G01*
X147150000Y-94087500D01*
G75*
G02*
X147100000Y-94037500I0J50000D01*
G01*
X147100000Y-93137500D01*
G75*
G02*
X147150000Y-93087500I50000J0D01*
G01*
G37*
G36*
G01*
X147150000Y-72287500D02*
X148350000Y-72287500D01*
G75*
G02*
X148400000Y-72337500I0J-50000D01*
G01*
X148400000Y-73237500D01*
G75*
G02*
X148350000Y-73287500I-50000J0D01*
G01*
X147150000Y-73287500D01*
G75*
G02*
X147100000Y-73237500I0J50000D01*
G01*
X147100000Y-72337500D01*
G75*
G02*
X147150000Y-72287500I50000J0D01*
G01*
G37*
G36*
G01*
X147150000Y-75587500D02*
X148350000Y-75587500D01*
G75*
G02*
X148400000Y-75637500I0J-50000D01*
G01*
X148400000Y-76537500D01*
G75*
G02*
X148350000Y-76587500I-50000J0D01*
G01*
X147150000Y-76587500D01*
G75*
G02*
X147100000Y-76537500I0J50000D01*
G01*
X147100000Y-75637500D01*
G75*
G02*
X147150000Y-75587500I50000J0D01*
G01*
G37*
G36*
G01*
X147150000Y-54787500D02*
X148350000Y-54787500D01*
G75*
G02*
X148400000Y-54837500I0J-50000D01*
G01*
X148400000Y-55737500D01*
G75*
G02*
X148350000Y-55787500I-50000J0D01*
G01*
X147150000Y-55787500D01*
G75*
G02*
X147100000Y-55737500I0J50000D01*
G01*
X147100000Y-54837500D01*
G75*
G02*
X147150000Y-54787500I50000J0D01*
G01*
G37*
G36*
G01*
X147150000Y-58087500D02*
X148350000Y-58087500D01*
G75*
G02*
X148400000Y-58137500I0J-50000D01*
G01*
X148400000Y-59037500D01*
G75*
G02*
X148350000Y-59087500I-50000J0D01*
G01*
X147150000Y-59087500D01*
G75*
G02*
X147100000Y-59037500I0J50000D01*
G01*
X147100000Y-58137500D01*
G75*
G02*
X147150000Y-58087500I50000J0D01*
G01*
G37*
G36*
G01*
X165650000Y-91975000D02*
X166850000Y-91975000D01*
G75*
G02*
X166900000Y-92025000I0J-50000D01*
G01*
X166900000Y-92925000D01*
G75*
G02*
X166850000Y-92975000I-50000J0D01*
G01*
X165650000Y-92975000D01*
G75*
G02*
X165600000Y-92925000I0J50000D01*
G01*
X165600000Y-92025000D01*
G75*
G02*
X165650000Y-91975000I50000J0D01*
G01*
G37*
G36*
G01*
X165650000Y-95275000D02*
X166850000Y-95275000D01*
G75*
G02*
X166900000Y-95325000I0J-50000D01*
G01*
X166900000Y-96225000D01*
G75*
G02*
X166850000Y-96275000I-50000J0D01*
G01*
X165650000Y-96275000D01*
G75*
G02*
X165600000Y-96225000I0J50000D01*
G01*
X165600000Y-95325000D01*
G75*
G02*
X165650000Y-95275000I50000J0D01*
G01*
G37*
G36*
G01*
X165650000Y-74475000D02*
X166850000Y-74475000D01*
G75*
G02*
X166900000Y-74525000I0J-50000D01*
G01*
X166900000Y-75425000D01*
G75*
G02*
X166850000Y-75475000I-50000J0D01*
G01*
X165650000Y-75475000D01*
G75*
G02*
X165600000Y-75425000I0J50000D01*
G01*
X165600000Y-74525000D01*
G75*
G02*
X165650000Y-74475000I50000J0D01*
G01*
G37*
G36*
G01*
X165650000Y-77775000D02*
X166850000Y-77775000D01*
G75*
G02*
X166900000Y-77825000I0J-50000D01*
G01*
X166900000Y-78725000D01*
G75*
G02*
X166850000Y-78775000I-50000J0D01*
G01*
X165650000Y-78775000D01*
G75*
G02*
X165600000Y-78725000I0J50000D01*
G01*
X165600000Y-77825000D01*
G75*
G02*
X165650000Y-77775000I50000J0D01*
G01*
G37*
G36*
G01*
X165650000Y-56975000D02*
X166850000Y-56975000D01*
G75*
G02*
X166900000Y-57025000I0J-50000D01*
G01*
X166900000Y-57925000D01*
G75*
G02*
X166850000Y-57975000I-50000J0D01*
G01*
X165650000Y-57975000D01*
G75*
G02*
X165600000Y-57925000I0J50000D01*
G01*
X165600000Y-57025000D01*
G75*
G02*
X165650000Y-56975000I50000J0D01*
G01*
G37*
G36*
G01*
X165650000Y-60275000D02*
X166850000Y-60275000D01*
G75*
G02*
X166900000Y-60325000I0J-50000D01*
G01*
X166900000Y-61225000D01*
G75*
G02*
X166850000Y-61275000I-50000J0D01*
G01*
X165650000Y-61275000D01*
G75*
G02*
X165600000Y-61225000I0J50000D01*
G01*
X165600000Y-60325000D01*
G75*
G02*
X165650000Y-60275000I50000J0D01*
G01*
G37*
G36*
G01*
X184150000Y-94162500D02*
X185350000Y-94162500D01*
G75*
G02*
X185400000Y-94212500I0J-50000D01*
G01*
X185400000Y-95112500D01*
G75*
G02*
X185350000Y-95162500I-50000J0D01*
G01*
X184150000Y-95162500D01*
G75*
G02*
X184100000Y-95112500I0J50000D01*
G01*
X184100000Y-94212500D01*
G75*
G02*
X184150000Y-94162500I50000J0D01*
G01*
G37*
G36*
G01*
X184150000Y-97462500D02*
X185350000Y-97462500D01*
G75*
G02*
X185400000Y-97512500I0J-50000D01*
G01*
X185400000Y-98412500D01*
G75*
G02*
X185350000Y-98462500I-50000J0D01*
G01*
X184150000Y-98462500D01*
G75*
G02*
X184100000Y-98412500I0J50000D01*
G01*
X184100000Y-97512500D01*
G75*
G02*
X184150000Y-97462500I50000J0D01*
G01*
G37*
G36*
G01*
X184150000Y-76662500D02*
X185350000Y-76662500D01*
G75*
G02*
X185400000Y-76712500I0J-50000D01*
G01*
X185400000Y-77612500D01*
G75*
G02*
X185350000Y-77662500I-50000J0D01*
G01*
X184150000Y-77662500D01*
G75*
G02*
X184100000Y-77612500I0J50000D01*
G01*
X184100000Y-76712500D01*
G75*
G02*
X184150000Y-76662500I50000J0D01*
G01*
G37*
G36*
G01*
X184150000Y-79962500D02*
X185350000Y-79962500D01*
G75*
G02*
X185400000Y-80012500I0J-50000D01*
G01*
X185400000Y-80912500D01*
G75*
G02*
X185350000Y-80962500I-50000J0D01*
G01*
X184150000Y-80962500D01*
G75*
G02*
X184100000Y-80912500I0J50000D01*
G01*
X184100000Y-80012500D01*
G75*
G02*
X184150000Y-79962500I50000J0D01*
G01*
G37*
G36*
G01*
X184150000Y-59162500D02*
X185350000Y-59162500D01*
G75*
G02*
X185400000Y-59212500I0J-50000D01*
G01*
X185400000Y-60112500D01*
G75*
G02*
X185350000Y-60162500I-50000J0D01*
G01*
X184150000Y-60162500D01*
G75*
G02*
X184100000Y-60112500I0J50000D01*
G01*
X184100000Y-59212500D01*
G75*
G02*
X184150000Y-59162500I50000J0D01*
G01*
G37*
G36*
G01*
X184150000Y-62462500D02*
X185350000Y-62462500D01*
G75*
G02*
X185400000Y-62512500I0J-50000D01*
G01*
X185400000Y-63412500D01*
G75*
G02*
X185350000Y-63462500I-50000J0D01*
G01*
X184150000Y-63462500D01*
G75*
G02*
X184100000Y-63412500I0J50000D01*
G01*
X184100000Y-62512500D01*
G75*
G02*
X184150000Y-62462500I50000J0D01*
G01*
G37*
G36*
G01*
X156400000Y-110287500D02*
X157600000Y-110287500D01*
G75*
G02*
X157650000Y-110337500I0J-50000D01*
G01*
X157650000Y-111237500D01*
G75*
G02*
X157600000Y-111287500I-50000J0D01*
G01*
X156400000Y-111287500D01*
G75*
G02*
X156350000Y-111237500I0J50000D01*
G01*
X156350000Y-110337500D01*
G75*
G02*
X156400000Y-110287500I50000J0D01*
G01*
G37*
G36*
G01*
X156400000Y-113587500D02*
X157600000Y-113587500D01*
G75*
G02*
X157650000Y-113637500I0J-50000D01*
G01*
X157650000Y-114537500D01*
G75*
G02*
X157600000Y-114587500I-50000J0D01*
G01*
X156400000Y-114587500D01*
G75*
G02*
X156350000Y-114537500I0J50000D01*
G01*
X156350000Y-113637500D01*
G75*
G02*
X156400000Y-113587500I50000J0D01*
G01*
G37*
G36*
G01*
X178129208Y-111000732D02*
X179288319Y-111311315D01*
G75*
G02*
X179323674Y-111372552I-12941J-48296D01*
G01*
X179090737Y-112241885D01*
G75*
G02*
X179029500Y-112277240I-48296J12941D01*
G01*
X177870389Y-111966657D01*
G75*
G02*
X177835034Y-111905420I12941J48296D01*
G01*
X178067971Y-111036087D01*
G75*
G02*
X178129208Y-111000732I48296J-12941D01*
G01*
G37*
G36*
G01*
X177275106Y-114188288D02*
X178434217Y-114498871D01*
G75*
G02*
X178469572Y-114560108I-12941J-48296D01*
G01*
X178236635Y-115429441D01*
G75*
G02*
X178175398Y-115464796I-48296J12941D01*
G01*
X177016287Y-115154213D01*
G75*
G02*
X176980932Y-115092976I12941J48296D01*
G01*
X177213869Y-114223643D01*
G75*
G02*
X177275106Y-114188288I48296J-12941D01*
G01*
G37*
G36*
G01*
X199677851Y-125728560D02*
X200277851Y-124689330D01*
G75*
G02*
X200346152Y-124671029I43301J-25000D01*
G01*
X201125574Y-125121029D01*
G75*
G02*
X201143875Y-125189330I-25000J-43301D01*
G01*
X200543875Y-126228560D01*
G75*
G02*
X200475574Y-126246861I-43301J25000D01*
G01*
X199696152Y-125796861D01*
G75*
G02*
X199677851Y-125728560I25000J43301D01*
G01*
G37*
G36*
G01*
X202535735Y-127378560D02*
X203135735Y-126339330D01*
G75*
G02*
X203204036Y-126321029I43301J-25000D01*
G01*
X203983458Y-126771029D01*
G75*
G02*
X204001759Y-126839330I-25000J-43301D01*
G01*
X203401759Y-127878560D01*
G75*
G02*
X203333458Y-127896861I-43301J25000D01*
G01*
X202554036Y-127446861D01*
G75*
G02*
X202535735Y-127378560I25000J43301D01*
G01*
G37*
D15*
X100000000Y-100000000D03*
D16*
X94500000Y-100000000D03*
X105500000Y-100000000D03*
X95000000Y-94850000D03*
D17*
X100000000Y-105950000D03*
X105000000Y-103750000D03*
D15*
X100000000Y-82500000D03*
D16*
X94500000Y-82500000D03*
X105500000Y-82500000D03*
X95000000Y-77350000D03*
D17*
X100000000Y-88450000D03*
X105000000Y-86250000D03*
D15*
X100000000Y-65000000D03*
D16*
X94500000Y-65000000D03*
X105500000Y-65000000D03*
X95000000Y-59850000D03*
D17*
X100000000Y-70950000D03*
X105000000Y-68750000D03*
D15*
X118500000Y-100000000D03*
D16*
X113000000Y-100000000D03*
X124000000Y-100000000D03*
X113500000Y-94850000D03*
D17*
X118500000Y-105950000D03*
X123500000Y-103750000D03*
D15*
X118500000Y-82500000D03*
D16*
X113000000Y-82500000D03*
X124000000Y-82500000D03*
X113500000Y-77350000D03*
D17*
X118500000Y-88450000D03*
X123500000Y-86250000D03*
D15*
X118500000Y-65000000D03*
D16*
X113000000Y-65000000D03*
X124000000Y-65000000D03*
X113500000Y-59850000D03*
D17*
X118500000Y-70950000D03*
X123500000Y-68750000D03*
D15*
X137000000Y-95625000D03*
D16*
X131500000Y-95625000D03*
X142500000Y-95625000D03*
X132000000Y-90475000D03*
D17*
X137000000Y-101575000D03*
X142000000Y-99375000D03*
D15*
X137000000Y-78125000D03*
D16*
X131500000Y-78125000D03*
X142500000Y-78125000D03*
X132000000Y-72975000D03*
D17*
X137000000Y-84075000D03*
X142000000Y-81875000D03*
D15*
X137000000Y-60625000D03*
D16*
X131500000Y-60625000D03*
X142500000Y-60625000D03*
X132000000Y-55475000D03*
D17*
X137000000Y-66575000D03*
X142000000Y-64375000D03*
D15*
X155500000Y-93437500D03*
D16*
X150000000Y-93437500D03*
X161000000Y-93437500D03*
X150500000Y-88287500D03*
D17*
X155500000Y-99387500D03*
X160500000Y-97187500D03*
D15*
X155500000Y-75937500D03*
D16*
X150000000Y-75937500D03*
X161000000Y-75937500D03*
X150500000Y-70787500D03*
D17*
X155500000Y-81887500D03*
X160500000Y-79687500D03*
D15*
X155500000Y-58437500D03*
D16*
X150000000Y-58437500D03*
X161000000Y-58437500D03*
X150500000Y-53287500D03*
D17*
X155500000Y-64387500D03*
X160500000Y-62187500D03*
D15*
X174000000Y-95625000D03*
D16*
X168500000Y-95625000D03*
X179500000Y-95625000D03*
X169000000Y-90475000D03*
D17*
X174000000Y-101575000D03*
X179000000Y-99375000D03*
D15*
X174000000Y-78125000D03*
D16*
X168500000Y-78125000D03*
X179500000Y-78125000D03*
X169000000Y-72975000D03*
D17*
X174000000Y-84075000D03*
X179000000Y-81875000D03*
D15*
X174000000Y-60625000D03*
D16*
X168500000Y-60625000D03*
X179500000Y-60625000D03*
X169000000Y-55475000D03*
D17*
X174000000Y-66575000D03*
X179000000Y-64375000D03*
D15*
X192500000Y-97812500D03*
D16*
X187000000Y-97812500D03*
X198000000Y-97812500D03*
X187500000Y-92662500D03*
D17*
X192500000Y-103762500D03*
X197500000Y-101562500D03*
D15*
X192500000Y-80312500D03*
D16*
X187000000Y-80312500D03*
X198000000Y-80312500D03*
X187500000Y-75162500D03*
D17*
X192500000Y-86262500D03*
X197500000Y-84062500D03*
D15*
X192500000Y-62812500D03*
D16*
X187000000Y-62812500D03*
X198000000Y-62812500D03*
X187500000Y-57662500D03*
D17*
X192500000Y-68762500D03*
X197500000Y-66562500D03*
D15*
X164750000Y-113937500D03*
D16*
X159250000Y-113937500D03*
X170250000Y-113937500D03*
X159750000Y-108787500D03*
D17*
X164750000Y-119887500D03*
X169750000Y-117687500D03*
D15*
X185250000Y-116687500D03*
D16*
X179937408Y-115263995D03*
X190562592Y-118111005D03*
X181753289Y-110418887D03*
D17*
X183710027Y-122434759D03*
X189109058Y-121603817D03*
D15*
X207013843Y-120322248D03*
D16*
X204263843Y-125085388D03*
X209763843Y-115559108D03*
X200053812Y-122077375D03*
D17*
X212166694Y-123297248D03*
X212761438Y-117867121D03*
D18*
X204584000Y-61920000D03*
X219824000Y-61920000D03*
D19*
X208804000Y-61920000D03*
X215604000Y-61920000D03*
G36*
G01*
X206374000Y-62520000D02*
X206374000Y-61320000D01*
G75*
G02*
X206424000Y-61270000I50000J0D01*
G01*
X207024000Y-61270000D01*
G75*
G02*
X207074000Y-61320000I0J-50000D01*
G01*
X207074000Y-62520000D01*
G75*
G02*
X207024000Y-62570000I-50000J0D01*
G01*
X206424000Y-62570000D01*
G75*
G02*
X206374000Y-62520000I0J50000D01*
G01*
G37*
G36*
G01*
X207274000Y-62520000D02*
X207274000Y-61320000D01*
G75*
G02*
X207324000Y-61270000I50000J0D01*
G01*
X207924000Y-61270000D01*
G75*
G02*
X207974000Y-61320000I0J-50000D01*
G01*
X207974000Y-62520000D01*
G75*
G02*
X207924000Y-62570000I-50000J0D01*
G01*
X207324000Y-62570000D01*
G75*
G02*
X207274000Y-62520000I0J50000D01*
G01*
G37*
G36*
G01*
X216434000Y-62520000D02*
X216434000Y-61320000D01*
G75*
G02*
X216484000Y-61270000I50000J0D01*
G01*
X217084000Y-61270000D01*
G75*
G02*
X217134000Y-61320000I0J-50000D01*
G01*
X217134000Y-62520000D01*
G75*
G02*
X217084000Y-62570000I-50000J0D01*
G01*
X216484000Y-62570000D01*
G75*
G02*
X216434000Y-62520000I0J50000D01*
G01*
G37*
G36*
G01*
X217334000Y-62520000D02*
X217334000Y-61320000D01*
G75*
G02*
X217384000Y-61270000I50000J0D01*
G01*
X217984000Y-61270000D01*
G75*
G02*
X218034000Y-61320000I0J-50000D01*
G01*
X218034000Y-62520000D01*
G75*
G02*
X217984000Y-62570000I-50000J0D01*
G01*
X217384000Y-62570000D01*
G75*
G02*
X217334000Y-62520000I0J50000D01*
G01*
G37*
D18*
X204584000Y-64460000D03*
X219824000Y-64460000D03*
D19*
X208804000Y-64460000D03*
X215604000Y-64460000D03*
G36*
G01*
X206374000Y-65060000D02*
X206374000Y-63860000D01*
G75*
G02*
X206424000Y-63810000I50000J0D01*
G01*
X207024000Y-63810000D01*
G75*
G02*
X207074000Y-63860000I0J-50000D01*
G01*
X207074000Y-65060000D01*
G75*
G02*
X207024000Y-65110000I-50000J0D01*
G01*
X206424000Y-65110000D01*
G75*
G02*
X206374000Y-65060000I0J50000D01*
G01*
G37*
G36*
G01*
X207274000Y-65060000D02*
X207274000Y-63860000D01*
G75*
G02*
X207324000Y-63810000I50000J0D01*
G01*
X207924000Y-63810000D01*
G75*
G02*
X207974000Y-63860000I0J-50000D01*
G01*
X207974000Y-65060000D01*
G75*
G02*
X207924000Y-65110000I-50000J0D01*
G01*
X207324000Y-65110000D01*
G75*
G02*
X207274000Y-65060000I0J50000D01*
G01*
G37*
G36*
G01*
X216434000Y-65060000D02*
X216434000Y-63860000D01*
G75*
G02*
X216484000Y-63810000I50000J0D01*
G01*
X217084000Y-63810000D01*
G75*
G02*
X217134000Y-63860000I0J-50000D01*
G01*
X217134000Y-65060000D01*
G75*
G02*
X217084000Y-65110000I-50000J0D01*
G01*
X216484000Y-65110000D01*
G75*
G02*
X216434000Y-65060000I0J50000D01*
G01*
G37*
G36*
G01*
X217334000Y-65060000D02*
X217334000Y-63860000D01*
G75*
G02*
X217384000Y-63810000I50000J0D01*
G01*
X217984000Y-63810000D01*
G75*
G02*
X218034000Y-63860000I0J-50000D01*
G01*
X218034000Y-65060000D01*
G75*
G02*
X217984000Y-65110000I-50000J0D01*
G01*
X217384000Y-65110000D01*
G75*
G02*
X217334000Y-65060000I0J50000D01*
G01*
G37*
D18*
X204584000Y-67000000D03*
X219824000Y-67000000D03*
D19*
X208804000Y-67000000D03*
X215604000Y-67000000D03*
G36*
G01*
X206374000Y-67600000D02*
X206374000Y-66400000D01*
G75*
G02*
X206424000Y-66350000I50000J0D01*
G01*
X207024000Y-66350000D01*
G75*
G02*
X207074000Y-66400000I0J-50000D01*
G01*
X207074000Y-67600000D01*
G75*
G02*
X207024000Y-67650000I-50000J0D01*
G01*
X206424000Y-67650000D01*
G75*
G02*
X206374000Y-67600000I0J50000D01*
G01*
G37*
G36*
G01*
X207274000Y-67600000D02*
X207274000Y-66400000D01*
G75*
G02*
X207324000Y-66350000I50000J0D01*
G01*
X207924000Y-66350000D01*
G75*
G02*
X207974000Y-66400000I0J-50000D01*
G01*
X207974000Y-67600000D01*
G75*
G02*
X207924000Y-67650000I-50000J0D01*
G01*
X207324000Y-67650000D01*
G75*
G02*
X207274000Y-67600000I0J50000D01*
G01*
G37*
G36*
G01*
X216434000Y-67600000D02*
X216434000Y-66400000D01*
G75*
G02*
X216484000Y-66350000I50000J0D01*
G01*
X217084000Y-66350000D01*
G75*
G02*
X217134000Y-66400000I0J-50000D01*
G01*
X217134000Y-67600000D01*
G75*
G02*
X217084000Y-67650000I-50000J0D01*
G01*
X216484000Y-67650000D01*
G75*
G02*
X216434000Y-67600000I0J50000D01*
G01*
G37*
G36*
G01*
X217334000Y-67600000D02*
X217334000Y-66400000D01*
G75*
G02*
X217384000Y-66350000I50000J0D01*
G01*
X217984000Y-66350000D01*
G75*
G02*
X218034000Y-66400000I0J-50000D01*
G01*
X218034000Y-67600000D01*
G75*
G02*
X217984000Y-67650000I-50000J0D01*
G01*
X217384000Y-67650000D01*
G75*
G02*
X217334000Y-67600000I0J50000D01*
G01*
G37*
D18*
X204584000Y-69540000D03*
X219824000Y-69540000D03*
D19*
X208804000Y-69540000D03*
X215604000Y-69540000D03*
G36*
G01*
X206374000Y-70140000D02*
X206374000Y-68940000D01*
G75*
G02*
X206424000Y-68890000I50000J0D01*
G01*
X207024000Y-68890000D01*
G75*
G02*
X207074000Y-68940000I0J-50000D01*
G01*
X207074000Y-70140000D01*
G75*
G02*
X207024000Y-70190000I-50000J0D01*
G01*
X206424000Y-70190000D01*
G75*
G02*
X206374000Y-70140000I0J50000D01*
G01*
G37*
G36*
G01*
X207274000Y-70140000D02*
X207274000Y-68940000D01*
G75*
G02*
X207324000Y-68890000I50000J0D01*
G01*
X207924000Y-68890000D01*
G75*
G02*
X207974000Y-68940000I0J-50000D01*
G01*
X207974000Y-70140000D01*
G75*
G02*
X207924000Y-70190000I-50000J0D01*
G01*
X207324000Y-70190000D01*
G75*
G02*
X207274000Y-70140000I0J50000D01*
G01*
G37*
G36*
G01*
X216434000Y-70140000D02*
X216434000Y-68940000D01*
G75*
G02*
X216484000Y-68890000I50000J0D01*
G01*
X217084000Y-68890000D01*
G75*
G02*
X217134000Y-68940000I0J-50000D01*
G01*
X217134000Y-70140000D01*
G75*
G02*
X217084000Y-70190000I-50000J0D01*
G01*
X216484000Y-70190000D01*
G75*
G02*
X216434000Y-70140000I0J50000D01*
G01*
G37*
G36*
G01*
X217334000Y-70140000D02*
X217334000Y-68940000D01*
G75*
G02*
X217384000Y-68890000I50000J0D01*
G01*
X217984000Y-68890000D01*
G75*
G02*
X218034000Y-68940000I0J-50000D01*
G01*
X218034000Y-70140000D01*
G75*
G02*
X217984000Y-70190000I-50000J0D01*
G01*
X217384000Y-70190000D01*
G75*
G02*
X217334000Y-70140000I0J50000D01*
G01*
G37*
D18*
X204584000Y-72080000D03*
X219824000Y-72080000D03*
D19*
X208804000Y-72080000D03*
X215604000Y-72080000D03*
G36*
G01*
X206374000Y-72680000D02*
X206374000Y-71480000D01*
G75*
G02*
X206424000Y-71430000I50000J0D01*
G01*
X207024000Y-71430000D01*
G75*
G02*
X207074000Y-71480000I0J-50000D01*
G01*
X207074000Y-72680000D01*
G75*
G02*
X207024000Y-72730000I-50000J0D01*
G01*
X206424000Y-72730000D01*
G75*
G02*
X206374000Y-72680000I0J50000D01*
G01*
G37*
G36*
G01*
X207274000Y-72680000D02*
X207274000Y-71480000D01*
G75*
G02*
X207324000Y-71430000I50000J0D01*
G01*
X207924000Y-71430000D01*
G75*
G02*
X207974000Y-71480000I0J-50000D01*
G01*
X207974000Y-72680000D01*
G75*
G02*
X207924000Y-72730000I-50000J0D01*
G01*
X207324000Y-72730000D01*
G75*
G02*
X207274000Y-72680000I0J50000D01*
G01*
G37*
G36*
G01*
X216434000Y-72680000D02*
X216434000Y-71480000D01*
G75*
G02*
X216484000Y-71430000I50000J0D01*
G01*
X217084000Y-71430000D01*
G75*
G02*
X217134000Y-71480000I0J-50000D01*
G01*
X217134000Y-72680000D01*
G75*
G02*
X217084000Y-72730000I-50000J0D01*
G01*
X216484000Y-72730000D01*
G75*
G02*
X216434000Y-72680000I0J50000D01*
G01*
G37*
G36*
G01*
X217334000Y-72680000D02*
X217334000Y-71480000D01*
G75*
G02*
X217384000Y-71430000I50000J0D01*
G01*
X217984000Y-71430000D01*
G75*
G02*
X218034000Y-71480000I0J-50000D01*
G01*
X218034000Y-72680000D01*
G75*
G02*
X217984000Y-72730000I-50000J0D01*
G01*
X217384000Y-72730000D01*
G75*
G02*
X217334000Y-72680000I0J50000D01*
G01*
G37*
D18*
X204584000Y-74620000D03*
X219824000Y-74620000D03*
D19*
X208804000Y-74620000D03*
X215604000Y-74620000D03*
G36*
G01*
X206374000Y-75220000D02*
X206374000Y-74020000D01*
G75*
G02*
X206424000Y-73970000I50000J0D01*
G01*
X207024000Y-73970000D01*
G75*
G02*
X207074000Y-74020000I0J-50000D01*
G01*
X207074000Y-75220000D01*
G75*
G02*
X207024000Y-75270000I-50000J0D01*
G01*
X206424000Y-75270000D01*
G75*
G02*
X206374000Y-75220000I0J50000D01*
G01*
G37*
G36*
G01*
X207274000Y-75220000D02*
X207274000Y-74020000D01*
G75*
G02*
X207324000Y-73970000I50000J0D01*
G01*
X207924000Y-73970000D01*
G75*
G02*
X207974000Y-74020000I0J-50000D01*
G01*
X207974000Y-75220000D01*
G75*
G02*
X207924000Y-75270000I-50000J0D01*
G01*
X207324000Y-75270000D01*
G75*
G02*
X207274000Y-75220000I0J50000D01*
G01*
G37*
G36*
G01*
X216434000Y-75220000D02*
X216434000Y-74020000D01*
G75*
G02*
X216484000Y-73970000I50000J0D01*
G01*
X217084000Y-73970000D01*
G75*
G02*
X217134000Y-74020000I0J-50000D01*
G01*
X217134000Y-75220000D01*
G75*
G02*
X217084000Y-75270000I-50000J0D01*
G01*
X216484000Y-75270000D01*
G75*
G02*
X216434000Y-75220000I0J50000D01*
G01*
G37*
G36*
G01*
X217334000Y-75220000D02*
X217334000Y-74020000D01*
G75*
G02*
X217384000Y-73970000I50000J0D01*
G01*
X217984000Y-73970000D01*
G75*
G02*
X218034000Y-74020000I0J-50000D01*
G01*
X218034000Y-75220000D01*
G75*
G02*
X217984000Y-75270000I-50000J0D01*
G01*
X217384000Y-75270000D01*
G75*
G02*
X217334000Y-75220000I0J50000D01*
G01*
G37*
D18*
X204584000Y-77160000D03*
X219824000Y-77160000D03*
D19*
X208804000Y-77160000D03*
X215604000Y-77160000D03*
G36*
G01*
X206374000Y-77760000D02*
X206374000Y-76560000D01*
G75*
G02*
X206424000Y-76510000I50000J0D01*
G01*
X207024000Y-76510000D01*
G75*
G02*
X207074000Y-76560000I0J-50000D01*
G01*
X207074000Y-77760000D01*
G75*
G02*
X207024000Y-77810000I-50000J0D01*
G01*
X206424000Y-77810000D01*
G75*
G02*
X206374000Y-77760000I0J50000D01*
G01*
G37*
G36*
G01*
X207274000Y-77760000D02*
X207274000Y-76560000D01*
G75*
G02*
X207324000Y-76510000I50000J0D01*
G01*
X207924000Y-76510000D01*
G75*
G02*
X207974000Y-76560000I0J-50000D01*
G01*
X207974000Y-77760000D01*
G75*
G02*
X207924000Y-77810000I-50000J0D01*
G01*
X207324000Y-77810000D01*
G75*
G02*
X207274000Y-77760000I0J50000D01*
G01*
G37*
G36*
G01*
X216434000Y-77760000D02*
X216434000Y-76560000D01*
G75*
G02*
X216484000Y-76510000I50000J0D01*
G01*
X217084000Y-76510000D01*
G75*
G02*
X217134000Y-76560000I0J-50000D01*
G01*
X217134000Y-77760000D01*
G75*
G02*
X217084000Y-77810000I-50000J0D01*
G01*
X216484000Y-77810000D01*
G75*
G02*
X216434000Y-77760000I0J50000D01*
G01*
G37*
G36*
G01*
X217334000Y-77760000D02*
X217334000Y-76560000D01*
G75*
G02*
X217384000Y-76510000I50000J0D01*
G01*
X217984000Y-76510000D01*
G75*
G02*
X218034000Y-76560000I0J-50000D01*
G01*
X218034000Y-77760000D01*
G75*
G02*
X217984000Y-77810000I-50000J0D01*
G01*
X217384000Y-77810000D01*
G75*
G02*
X217334000Y-77760000I0J50000D01*
G01*
G37*
D18*
X204584000Y-79700000D03*
X219824000Y-79700000D03*
D19*
X208804000Y-79700000D03*
X215604000Y-79700000D03*
G36*
G01*
X206374000Y-80300000D02*
X206374000Y-79100000D01*
G75*
G02*
X206424000Y-79050000I50000J0D01*
G01*
X207024000Y-79050000D01*
G75*
G02*
X207074000Y-79100000I0J-50000D01*
G01*
X207074000Y-80300000D01*
G75*
G02*
X207024000Y-80350000I-50000J0D01*
G01*
X206424000Y-80350000D01*
G75*
G02*
X206374000Y-80300000I0J50000D01*
G01*
G37*
G36*
G01*
X207274000Y-80300000D02*
X207274000Y-79100000D01*
G75*
G02*
X207324000Y-79050000I50000J0D01*
G01*
X207924000Y-79050000D01*
G75*
G02*
X207974000Y-79100000I0J-50000D01*
G01*
X207974000Y-80300000D01*
G75*
G02*
X207924000Y-80350000I-50000J0D01*
G01*
X207324000Y-80350000D01*
G75*
G02*
X207274000Y-80300000I0J50000D01*
G01*
G37*
G36*
G01*
X216434000Y-80300000D02*
X216434000Y-79100000D01*
G75*
G02*
X216484000Y-79050000I50000J0D01*
G01*
X217084000Y-79050000D01*
G75*
G02*
X217134000Y-79100000I0J-50000D01*
G01*
X217134000Y-80300000D01*
G75*
G02*
X217084000Y-80350000I-50000J0D01*
G01*
X216484000Y-80350000D01*
G75*
G02*
X216434000Y-80300000I0J50000D01*
G01*
G37*
G36*
G01*
X217334000Y-80300000D02*
X217334000Y-79100000D01*
G75*
G02*
X217384000Y-79050000I50000J0D01*
G01*
X217984000Y-79050000D01*
G75*
G02*
X218034000Y-79100000I0J-50000D01*
G01*
X218034000Y-80300000D01*
G75*
G02*
X217984000Y-80350000I-50000J0D01*
G01*
X217384000Y-80350000D01*
G75*
G02*
X217334000Y-80300000I0J50000D01*
G01*
G37*
D18*
X204584000Y-82240000D03*
X219824000Y-82240000D03*
D19*
X208804000Y-82240000D03*
X215604000Y-82240000D03*
G36*
G01*
X206374000Y-82840000D02*
X206374000Y-81640000D01*
G75*
G02*
X206424000Y-81590000I50000J0D01*
G01*
X207024000Y-81590000D01*
G75*
G02*
X207074000Y-81640000I0J-50000D01*
G01*
X207074000Y-82840000D01*
G75*
G02*
X207024000Y-82890000I-50000J0D01*
G01*
X206424000Y-82890000D01*
G75*
G02*
X206374000Y-82840000I0J50000D01*
G01*
G37*
G36*
G01*
X207274000Y-82840000D02*
X207274000Y-81640000D01*
G75*
G02*
X207324000Y-81590000I50000J0D01*
G01*
X207924000Y-81590000D01*
G75*
G02*
X207974000Y-81640000I0J-50000D01*
G01*
X207974000Y-82840000D01*
G75*
G02*
X207924000Y-82890000I-50000J0D01*
G01*
X207324000Y-82890000D01*
G75*
G02*
X207274000Y-82840000I0J50000D01*
G01*
G37*
G36*
G01*
X216434000Y-82840000D02*
X216434000Y-81640000D01*
G75*
G02*
X216484000Y-81590000I50000J0D01*
G01*
X217084000Y-81590000D01*
G75*
G02*
X217134000Y-81640000I0J-50000D01*
G01*
X217134000Y-82840000D01*
G75*
G02*
X217084000Y-82890000I-50000J0D01*
G01*
X216484000Y-82890000D01*
G75*
G02*
X216434000Y-82840000I0J50000D01*
G01*
G37*
G36*
G01*
X217334000Y-82840000D02*
X217334000Y-81640000D01*
G75*
G02*
X217384000Y-81590000I50000J0D01*
G01*
X217984000Y-81590000D01*
G75*
G02*
X218034000Y-81640000I0J-50000D01*
G01*
X218034000Y-82840000D01*
G75*
G02*
X217984000Y-82890000I-50000J0D01*
G01*
X217384000Y-82890000D01*
G75*
G02*
X217334000Y-82840000I0J50000D01*
G01*
G37*
D18*
X204584000Y-84780000D03*
X219824000Y-84780000D03*
D19*
X208804000Y-84780000D03*
X215604000Y-84780000D03*
G36*
G01*
X206374000Y-85380000D02*
X206374000Y-84180000D01*
G75*
G02*
X206424000Y-84130000I50000J0D01*
G01*
X207024000Y-84130000D01*
G75*
G02*
X207074000Y-84180000I0J-50000D01*
G01*
X207074000Y-85380000D01*
G75*
G02*
X207024000Y-85430000I-50000J0D01*
G01*
X206424000Y-85430000D01*
G75*
G02*
X206374000Y-85380000I0J50000D01*
G01*
G37*
G36*
G01*
X207274000Y-85380000D02*
X207274000Y-84180000D01*
G75*
G02*
X207324000Y-84130000I50000J0D01*
G01*
X207924000Y-84130000D01*
G75*
G02*
X207974000Y-84180000I0J-50000D01*
G01*
X207974000Y-85380000D01*
G75*
G02*
X207924000Y-85430000I-50000J0D01*
G01*
X207324000Y-85430000D01*
G75*
G02*
X207274000Y-85380000I0J50000D01*
G01*
G37*
G36*
G01*
X216434000Y-85380000D02*
X216434000Y-84180000D01*
G75*
G02*
X216484000Y-84130000I50000J0D01*
G01*
X217084000Y-84130000D01*
G75*
G02*
X217134000Y-84180000I0J-50000D01*
G01*
X217134000Y-85380000D01*
G75*
G02*
X217084000Y-85430000I-50000J0D01*
G01*
X216484000Y-85430000D01*
G75*
G02*
X216434000Y-85380000I0J50000D01*
G01*
G37*
G36*
G01*
X217334000Y-85380000D02*
X217334000Y-84180000D01*
G75*
G02*
X217384000Y-84130000I50000J0D01*
G01*
X217984000Y-84130000D01*
G75*
G02*
X218034000Y-84180000I0J-50000D01*
G01*
X218034000Y-85380000D01*
G75*
G02*
X217984000Y-85430000I-50000J0D01*
G01*
X217384000Y-85430000D01*
G75*
G02*
X217334000Y-85380000I0J50000D01*
G01*
G37*
D18*
X204584000Y-87320000D03*
X219824000Y-87320000D03*
D19*
X208804000Y-87320000D03*
X215604000Y-87320000D03*
G36*
G01*
X206374000Y-87920000D02*
X206374000Y-86720000D01*
G75*
G02*
X206424000Y-86670000I50000J0D01*
G01*
X207024000Y-86670000D01*
G75*
G02*
X207074000Y-86720000I0J-50000D01*
G01*
X207074000Y-87920000D01*
G75*
G02*
X207024000Y-87970000I-50000J0D01*
G01*
X206424000Y-87970000D01*
G75*
G02*
X206374000Y-87920000I0J50000D01*
G01*
G37*
G36*
G01*
X207274000Y-87920000D02*
X207274000Y-86720000D01*
G75*
G02*
X207324000Y-86670000I50000J0D01*
G01*
X207924000Y-86670000D01*
G75*
G02*
X207974000Y-86720000I0J-50000D01*
G01*
X207974000Y-87920000D01*
G75*
G02*
X207924000Y-87970000I-50000J0D01*
G01*
X207324000Y-87970000D01*
G75*
G02*
X207274000Y-87920000I0J50000D01*
G01*
G37*
G36*
G01*
X216434000Y-87920000D02*
X216434000Y-86720000D01*
G75*
G02*
X216484000Y-86670000I50000J0D01*
G01*
X217084000Y-86670000D01*
G75*
G02*
X217134000Y-86720000I0J-50000D01*
G01*
X217134000Y-87920000D01*
G75*
G02*
X217084000Y-87970000I-50000J0D01*
G01*
X216484000Y-87970000D01*
G75*
G02*
X216434000Y-87920000I0J50000D01*
G01*
G37*
G36*
G01*
X217334000Y-87920000D02*
X217334000Y-86720000D01*
G75*
G02*
X217384000Y-86670000I50000J0D01*
G01*
X217984000Y-86670000D01*
G75*
G02*
X218034000Y-86720000I0J-50000D01*
G01*
X218034000Y-87920000D01*
G75*
G02*
X217984000Y-87970000I-50000J0D01*
G01*
X217384000Y-87970000D01*
G75*
G02*
X217334000Y-87920000I0J50000D01*
G01*
G37*
D18*
X204584000Y-89860000D03*
X219824000Y-89860000D03*
D19*
X208804000Y-89860000D03*
X215604000Y-89860000D03*
G36*
G01*
X206374000Y-90460000D02*
X206374000Y-89260000D01*
G75*
G02*
X206424000Y-89210000I50000J0D01*
G01*
X207024000Y-89210000D01*
G75*
G02*
X207074000Y-89260000I0J-50000D01*
G01*
X207074000Y-90460000D01*
G75*
G02*
X207024000Y-90510000I-50000J0D01*
G01*
X206424000Y-90510000D01*
G75*
G02*
X206374000Y-90460000I0J50000D01*
G01*
G37*
G36*
G01*
X207274000Y-90460000D02*
X207274000Y-89260000D01*
G75*
G02*
X207324000Y-89210000I50000J0D01*
G01*
X207924000Y-89210000D01*
G75*
G02*
X207974000Y-89260000I0J-50000D01*
G01*
X207974000Y-90460000D01*
G75*
G02*
X207924000Y-90510000I-50000J0D01*
G01*
X207324000Y-90510000D01*
G75*
G02*
X207274000Y-90460000I0J50000D01*
G01*
G37*
G36*
G01*
X216434000Y-90460000D02*
X216434000Y-89260000D01*
G75*
G02*
X216484000Y-89210000I50000J0D01*
G01*
X217084000Y-89210000D01*
G75*
G02*
X217134000Y-89260000I0J-50000D01*
G01*
X217134000Y-90460000D01*
G75*
G02*
X217084000Y-90510000I-50000J0D01*
G01*
X216484000Y-90510000D01*
G75*
G02*
X216434000Y-90460000I0J50000D01*
G01*
G37*
G36*
G01*
X217334000Y-90460000D02*
X217334000Y-89260000D01*
G75*
G02*
X217384000Y-89210000I50000J0D01*
G01*
X217984000Y-89210000D01*
G75*
G02*
X218034000Y-89260000I0J-50000D01*
G01*
X218034000Y-90460000D01*
G75*
G02*
X217984000Y-90510000I-50000J0D01*
G01*
X217384000Y-90510000D01*
G75*
G02*
X217334000Y-90460000I0J50000D01*
G01*
G37*
G36*
G01*
X215107000Y-94008000D02*
X216307000Y-94008000D01*
G75*
G02*
X216357000Y-94058000I0J-50000D01*
G01*
X216357000Y-94658000D01*
G75*
G02*
X216307000Y-94708000I-50000J0D01*
G01*
X215107000Y-94708000D01*
G75*
G02*
X215057000Y-94658000I0J50000D01*
G01*
X215057000Y-94058000D01*
G75*
G02*
X215107000Y-94008000I50000J0D01*
G01*
G37*
G36*
G01*
X212567000Y-94008000D02*
X213767000Y-94008000D01*
G75*
G02*
X213817000Y-94058000I0J-50000D01*
G01*
X213817000Y-94658000D01*
G75*
G02*
X213767000Y-94708000I-50000J0D01*
G01*
X212567000Y-94708000D01*
G75*
G02*
X212517000Y-94658000I0J50000D01*
G01*
X212517000Y-94058000D01*
G75*
G02*
X212567000Y-94008000I50000J0D01*
G01*
G37*
G36*
G01*
X210027000Y-94008000D02*
X211227000Y-94008000D01*
G75*
G02*
X211277000Y-94058000I0J-50000D01*
G01*
X211277000Y-94658000D01*
G75*
G02*
X211227000Y-94708000I-50000J0D01*
G01*
X210027000Y-94708000D01*
G75*
G02*
X209977000Y-94658000I0J50000D01*
G01*
X209977000Y-94058000D01*
G75*
G02*
X210027000Y-94008000I50000J0D01*
G01*
G37*
G36*
G01*
X207487000Y-94008000D02*
X208687000Y-94008000D01*
G75*
G02*
X208737000Y-94058000I0J-50000D01*
G01*
X208737000Y-94658000D01*
G75*
G02*
X208687000Y-94708000I-50000J0D01*
G01*
X207487000Y-94708000D01*
G75*
G02*
X207437000Y-94658000I0J50000D01*
G01*
X207437000Y-94058000D01*
G75*
G02*
X207487000Y-94008000I50000J0D01*
G01*
G37*
G36*
G01*
X215107000Y-94908000D02*
X216307000Y-94908000D01*
G75*
G02*
X216357000Y-94958000I0J-50000D01*
G01*
X216357000Y-95558000D01*
G75*
G02*
X216307000Y-95608000I-50000J0D01*
G01*
X215107000Y-95608000D01*
G75*
G02*
X215057000Y-95558000I0J50000D01*
G01*
X215057000Y-94958000D01*
G75*
G02*
X215107000Y-94908000I50000J0D01*
G01*
G37*
G36*
G01*
X212567000Y-94908000D02*
X213767000Y-94908000D01*
G75*
G02*
X213817000Y-94958000I0J-50000D01*
G01*
X213817000Y-95558000D01*
G75*
G02*
X213767000Y-95608000I-50000J0D01*
G01*
X212567000Y-95608000D01*
G75*
G02*
X212517000Y-95558000I0J50000D01*
G01*
X212517000Y-94958000D01*
G75*
G02*
X212567000Y-94908000I50000J0D01*
G01*
G37*
G36*
G01*
X210027000Y-94908000D02*
X211227000Y-94908000D01*
G75*
G02*
X211277000Y-94958000I0J-50000D01*
G01*
X211277000Y-95558000D01*
G75*
G02*
X211227000Y-95608000I-50000J0D01*
G01*
X210027000Y-95608000D01*
G75*
G02*
X209977000Y-95558000I0J50000D01*
G01*
X209977000Y-94958000D01*
G75*
G02*
X210027000Y-94908000I50000J0D01*
G01*
G37*
G36*
G01*
X207487000Y-94908000D02*
X208687000Y-94908000D01*
G75*
G02*
X208737000Y-94958000I0J-50000D01*
G01*
X208737000Y-95558000D01*
G75*
G02*
X208687000Y-95608000I-50000J0D01*
G01*
X207487000Y-95608000D01*
G75*
G02*
X207437000Y-95558000I0J50000D01*
G01*
X207437000Y-94958000D01*
G75*
G02*
X207487000Y-94908000I50000J0D01*
G01*
G37*
D20*
X208087000Y-97008000D03*
X210627000Y-97008000D03*
X213167000Y-97008000D03*
X215707000Y-97008000D03*
D18*
X219600000Y-99751000D03*
X219600000Y-93251000D03*
D21*
X212760000Y-106560000D03*
X219760000Y-106560000D03*
D22*
X218160000Y-104260000D03*
X215160000Y-104260000D03*
D23*
X210610000Y-104260000D03*
D22*
X218160000Y-108860000D03*
X215160000Y-108860000D03*
D23*
X210610000Y-108860000D03*
G36*
G01*
X101950000Y-95100000D02*
X101950000Y-94100000D01*
G75*
G02*
X102000000Y-94050000I50000J0D01*
G01*
X103400000Y-94050000D01*
G75*
G02*
X103450000Y-94100000I0J-50000D01*
G01*
X103450000Y-95100000D01*
G75*
G02*
X103400000Y-95150000I-50000J0D01*
G01*
X102000000Y-95150000D01*
G75*
G02*
X101950000Y-95100000I0J50000D01*
G01*
G37*
G36*
G01*
X101950000Y-96500000D02*
X101950000Y-95500000D01*
G75*
G02*
X102000000Y-95450000I50000J0D01*
G01*
X103400000Y-95450000D01*
G75*
G02*
X103450000Y-95500000I0J-50000D01*
G01*
X103450000Y-96500000D01*
G75*
G02*
X103400000Y-96550000I-50000J0D01*
G01*
X102000000Y-96550000D01*
G75*
G02*
X101950000Y-96500000I0J50000D01*
G01*
G37*
G36*
G01*
X96550000Y-95100000D02*
X96550000Y-94100000D01*
G75*
G02*
X96600000Y-94050000I50000J0D01*
G01*
X98000000Y-94050000D01*
G75*
G02*
X98050000Y-94100000I0J-50000D01*
G01*
X98050000Y-95100000D01*
G75*
G02*
X98000000Y-95150000I-50000J0D01*
G01*
X96600000Y-95150000D01*
G75*
G02*
X96550000Y-95100000I0J50000D01*
G01*
G37*
G36*
G01*
X96550000Y-96500000D02*
X96550000Y-95500000D01*
G75*
G02*
X96600000Y-95450000I50000J0D01*
G01*
X98000000Y-95450000D01*
G75*
G02*
X98050000Y-95500000I0J-50000D01*
G01*
X98050000Y-96500000D01*
G75*
G02*
X98000000Y-96550000I-50000J0D01*
G01*
X96600000Y-96550000D01*
G75*
G02*
X96550000Y-96500000I0J50000D01*
G01*
G37*
G36*
G01*
X101950000Y-77600000D02*
X101950000Y-76600000D01*
G75*
G02*
X102000000Y-76550000I50000J0D01*
G01*
X103400000Y-76550000D01*
G75*
G02*
X103450000Y-76600000I0J-50000D01*
G01*
X103450000Y-77600000D01*
G75*
G02*
X103400000Y-77650000I-50000J0D01*
G01*
X102000000Y-77650000D01*
G75*
G02*
X101950000Y-77600000I0J50000D01*
G01*
G37*
G36*
G01*
X101950000Y-79000000D02*
X101950000Y-78000000D01*
G75*
G02*
X102000000Y-77950000I50000J0D01*
G01*
X103400000Y-77950000D01*
G75*
G02*
X103450000Y-78000000I0J-50000D01*
G01*
X103450000Y-79000000D01*
G75*
G02*
X103400000Y-79050000I-50000J0D01*
G01*
X102000000Y-79050000D01*
G75*
G02*
X101950000Y-79000000I0J50000D01*
G01*
G37*
G36*
G01*
X96550000Y-77600000D02*
X96550000Y-76600000D01*
G75*
G02*
X96600000Y-76550000I50000J0D01*
G01*
X98000000Y-76550000D01*
G75*
G02*
X98050000Y-76600000I0J-50000D01*
G01*
X98050000Y-77600000D01*
G75*
G02*
X98000000Y-77650000I-50000J0D01*
G01*
X96600000Y-77650000D01*
G75*
G02*
X96550000Y-77600000I0J50000D01*
G01*
G37*
G36*
G01*
X96550000Y-79000000D02*
X96550000Y-78000000D01*
G75*
G02*
X96600000Y-77950000I50000J0D01*
G01*
X98000000Y-77950000D01*
G75*
G02*
X98050000Y-78000000I0J-50000D01*
G01*
X98050000Y-79000000D01*
G75*
G02*
X98000000Y-79050000I-50000J0D01*
G01*
X96600000Y-79050000D01*
G75*
G02*
X96550000Y-79000000I0J50000D01*
G01*
G37*
G36*
G01*
X101950000Y-60100000D02*
X101950000Y-59100000D01*
G75*
G02*
X102000000Y-59050000I50000J0D01*
G01*
X103400000Y-59050000D01*
G75*
G02*
X103450000Y-59100000I0J-50000D01*
G01*
X103450000Y-60100000D01*
G75*
G02*
X103400000Y-60150000I-50000J0D01*
G01*
X102000000Y-60150000D01*
G75*
G02*
X101950000Y-60100000I0J50000D01*
G01*
G37*
G36*
G01*
X101950000Y-61500000D02*
X101950000Y-60500000D01*
G75*
G02*
X102000000Y-60450000I50000J0D01*
G01*
X103400000Y-60450000D01*
G75*
G02*
X103450000Y-60500000I0J-50000D01*
G01*
X103450000Y-61500000D01*
G75*
G02*
X103400000Y-61550000I-50000J0D01*
G01*
X102000000Y-61550000D01*
G75*
G02*
X101950000Y-61500000I0J50000D01*
G01*
G37*
G36*
G01*
X96550000Y-60100000D02*
X96550000Y-59100000D01*
G75*
G02*
X96600000Y-59050000I50000J0D01*
G01*
X98000000Y-59050000D01*
G75*
G02*
X98050000Y-59100000I0J-50000D01*
G01*
X98050000Y-60100000D01*
G75*
G02*
X98000000Y-60150000I-50000J0D01*
G01*
X96600000Y-60150000D01*
G75*
G02*
X96550000Y-60100000I0J50000D01*
G01*
G37*
G36*
G01*
X96550000Y-61500000D02*
X96550000Y-60500000D01*
G75*
G02*
X96600000Y-60450000I50000J0D01*
G01*
X98000000Y-60450000D01*
G75*
G02*
X98050000Y-60500000I0J-50000D01*
G01*
X98050000Y-61500000D01*
G75*
G02*
X98000000Y-61550000I-50000J0D01*
G01*
X96600000Y-61550000D01*
G75*
G02*
X96550000Y-61500000I0J50000D01*
G01*
G37*
G36*
G01*
X120450000Y-95100000D02*
X120450000Y-94100000D01*
G75*
G02*
X120500000Y-94050000I50000J0D01*
G01*
X121900000Y-94050000D01*
G75*
G02*
X121950000Y-94100000I0J-50000D01*
G01*
X121950000Y-95100000D01*
G75*
G02*
X121900000Y-95150000I-50000J0D01*
G01*
X120500000Y-95150000D01*
G75*
G02*
X120450000Y-95100000I0J50000D01*
G01*
G37*
G36*
G01*
X120450000Y-96500000D02*
X120450000Y-95500000D01*
G75*
G02*
X120500000Y-95450000I50000J0D01*
G01*
X121900000Y-95450000D01*
G75*
G02*
X121950000Y-95500000I0J-50000D01*
G01*
X121950000Y-96500000D01*
G75*
G02*
X121900000Y-96550000I-50000J0D01*
G01*
X120500000Y-96550000D01*
G75*
G02*
X120450000Y-96500000I0J50000D01*
G01*
G37*
G36*
G01*
X115050000Y-95100000D02*
X115050000Y-94100000D01*
G75*
G02*
X115100000Y-94050000I50000J0D01*
G01*
X116500000Y-94050000D01*
G75*
G02*
X116550000Y-94100000I0J-50000D01*
G01*
X116550000Y-95100000D01*
G75*
G02*
X116500000Y-95150000I-50000J0D01*
G01*
X115100000Y-95150000D01*
G75*
G02*
X115050000Y-95100000I0J50000D01*
G01*
G37*
G36*
G01*
X115050000Y-96500000D02*
X115050000Y-95500000D01*
G75*
G02*
X115100000Y-95450000I50000J0D01*
G01*
X116500000Y-95450000D01*
G75*
G02*
X116550000Y-95500000I0J-50000D01*
G01*
X116550000Y-96500000D01*
G75*
G02*
X116500000Y-96550000I-50000J0D01*
G01*
X115100000Y-96550000D01*
G75*
G02*
X115050000Y-96500000I0J50000D01*
G01*
G37*
G36*
G01*
X120450000Y-77600000D02*
X120450000Y-76600000D01*
G75*
G02*
X120500000Y-76550000I50000J0D01*
G01*
X121900000Y-76550000D01*
G75*
G02*
X121950000Y-76600000I0J-50000D01*
G01*
X121950000Y-77600000D01*
G75*
G02*
X121900000Y-77650000I-50000J0D01*
G01*
X120500000Y-77650000D01*
G75*
G02*
X120450000Y-77600000I0J50000D01*
G01*
G37*
G36*
G01*
X120450000Y-79000000D02*
X120450000Y-78000000D01*
G75*
G02*
X120500000Y-77950000I50000J0D01*
G01*
X121900000Y-77950000D01*
G75*
G02*
X121950000Y-78000000I0J-50000D01*
G01*
X121950000Y-79000000D01*
G75*
G02*
X121900000Y-79050000I-50000J0D01*
G01*
X120500000Y-79050000D01*
G75*
G02*
X120450000Y-79000000I0J50000D01*
G01*
G37*
G36*
G01*
X115050000Y-77600000D02*
X115050000Y-76600000D01*
G75*
G02*
X115100000Y-76550000I50000J0D01*
G01*
X116500000Y-76550000D01*
G75*
G02*
X116550000Y-76600000I0J-50000D01*
G01*
X116550000Y-77600000D01*
G75*
G02*
X116500000Y-77650000I-50000J0D01*
G01*
X115100000Y-77650000D01*
G75*
G02*
X115050000Y-77600000I0J50000D01*
G01*
G37*
G36*
G01*
X115050000Y-79000000D02*
X115050000Y-78000000D01*
G75*
G02*
X115100000Y-77950000I50000J0D01*
G01*
X116500000Y-77950000D01*
G75*
G02*
X116550000Y-78000000I0J-50000D01*
G01*
X116550000Y-79000000D01*
G75*
G02*
X116500000Y-79050000I-50000J0D01*
G01*
X115100000Y-79050000D01*
G75*
G02*
X115050000Y-79000000I0J50000D01*
G01*
G37*
G36*
G01*
X120450000Y-60100000D02*
X120450000Y-59100000D01*
G75*
G02*
X120500000Y-59050000I50000J0D01*
G01*
X121900000Y-59050000D01*
G75*
G02*
X121950000Y-59100000I0J-50000D01*
G01*
X121950000Y-60100000D01*
G75*
G02*
X121900000Y-60150000I-50000J0D01*
G01*
X120500000Y-60150000D01*
G75*
G02*
X120450000Y-60100000I0J50000D01*
G01*
G37*
G36*
G01*
X120450000Y-61500000D02*
X120450000Y-60500000D01*
G75*
G02*
X120500000Y-60450000I50000J0D01*
G01*
X121900000Y-60450000D01*
G75*
G02*
X121950000Y-60500000I0J-50000D01*
G01*
X121950000Y-61500000D01*
G75*
G02*
X121900000Y-61550000I-50000J0D01*
G01*
X120500000Y-61550000D01*
G75*
G02*
X120450000Y-61500000I0J50000D01*
G01*
G37*
G36*
G01*
X115050000Y-60100000D02*
X115050000Y-59100000D01*
G75*
G02*
X115100000Y-59050000I50000J0D01*
G01*
X116500000Y-59050000D01*
G75*
G02*
X116550000Y-59100000I0J-50000D01*
G01*
X116550000Y-60100000D01*
G75*
G02*
X116500000Y-60150000I-50000J0D01*
G01*
X115100000Y-60150000D01*
G75*
G02*
X115050000Y-60100000I0J50000D01*
G01*
G37*
G36*
G01*
X115050000Y-61500000D02*
X115050000Y-60500000D01*
G75*
G02*
X115100000Y-60450000I50000J0D01*
G01*
X116500000Y-60450000D01*
G75*
G02*
X116550000Y-60500000I0J-50000D01*
G01*
X116550000Y-61500000D01*
G75*
G02*
X116500000Y-61550000I-50000J0D01*
G01*
X115100000Y-61550000D01*
G75*
G02*
X115050000Y-61500000I0J50000D01*
G01*
G37*
G36*
G01*
X138950000Y-90725000D02*
X138950000Y-89725000D01*
G75*
G02*
X139000000Y-89675000I50000J0D01*
G01*
X140400000Y-89675000D01*
G75*
G02*
X140450000Y-89725000I0J-50000D01*
G01*
X140450000Y-90725000D01*
G75*
G02*
X140400000Y-90775000I-50000J0D01*
G01*
X139000000Y-90775000D01*
G75*
G02*
X138950000Y-90725000I0J50000D01*
G01*
G37*
G36*
G01*
X138950000Y-92125000D02*
X138950000Y-91125000D01*
G75*
G02*
X139000000Y-91075000I50000J0D01*
G01*
X140400000Y-91075000D01*
G75*
G02*
X140450000Y-91125000I0J-50000D01*
G01*
X140450000Y-92125000D01*
G75*
G02*
X140400000Y-92175000I-50000J0D01*
G01*
X139000000Y-92175000D01*
G75*
G02*
X138950000Y-92125000I0J50000D01*
G01*
G37*
G36*
G01*
X133550000Y-90725000D02*
X133550000Y-89725000D01*
G75*
G02*
X133600000Y-89675000I50000J0D01*
G01*
X135000000Y-89675000D01*
G75*
G02*
X135050000Y-89725000I0J-50000D01*
G01*
X135050000Y-90725000D01*
G75*
G02*
X135000000Y-90775000I-50000J0D01*
G01*
X133600000Y-90775000D01*
G75*
G02*
X133550000Y-90725000I0J50000D01*
G01*
G37*
G36*
G01*
X133550000Y-92125000D02*
X133550000Y-91125000D01*
G75*
G02*
X133600000Y-91075000I50000J0D01*
G01*
X135000000Y-91075000D01*
G75*
G02*
X135050000Y-91125000I0J-50000D01*
G01*
X135050000Y-92125000D01*
G75*
G02*
X135000000Y-92175000I-50000J0D01*
G01*
X133600000Y-92175000D01*
G75*
G02*
X133550000Y-92125000I0J50000D01*
G01*
G37*
G36*
G01*
X138950000Y-73225000D02*
X138950000Y-72225000D01*
G75*
G02*
X139000000Y-72175000I50000J0D01*
G01*
X140400000Y-72175000D01*
G75*
G02*
X140450000Y-72225000I0J-50000D01*
G01*
X140450000Y-73225000D01*
G75*
G02*
X140400000Y-73275000I-50000J0D01*
G01*
X139000000Y-73275000D01*
G75*
G02*
X138950000Y-73225000I0J50000D01*
G01*
G37*
G36*
G01*
X138950000Y-74625000D02*
X138950000Y-73625000D01*
G75*
G02*
X139000000Y-73575000I50000J0D01*
G01*
X140400000Y-73575000D01*
G75*
G02*
X140450000Y-73625000I0J-50000D01*
G01*
X140450000Y-74625000D01*
G75*
G02*
X140400000Y-74675000I-50000J0D01*
G01*
X139000000Y-74675000D01*
G75*
G02*
X138950000Y-74625000I0J50000D01*
G01*
G37*
G36*
G01*
X133550000Y-73225000D02*
X133550000Y-72225000D01*
G75*
G02*
X133600000Y-72175000I50000J0D01*
G01*
X135000000Y-72175000D01*
G75*
G02*
X135050000Y-72225000I0J-50000D01*
G01*
X135050000Y-73225000D01*
G75*
G02*
X135000000Y-73275000I-50000J0D01*
G01*
X133600000Y-73275000D01*
G75*
G02*
X133550000Y-73225000I0J50000D01*
G01*
G37*
G36*
G01*
X133550000Y-74625000D02*
X133550000Y-73625000D01*
G75*
G02*
X133600000Y-73575000I50000J0D01*
G01*
X135000000Y-73575000D01*
G75*
G02*
X135050000Y-73625000I0J-50000D01*
G01*
X135050000Y-74625000D01*
G75*
G02*
X135000000Y-74675000I-50000J0D01*
G01*
X133600000Y-74675000D01*
G75*
G02*
X133550000Y-74625000I0J50000D01*
G01*
G37*
G36*
G01*
X138950000Y-55725000D02*
X138950000Y-54725000D01*
G75*
G02*
X139000000Y-54675000I50000J0D01*
G01*
X140400000Y-54675000D01*
G75*
G02*
X140450000Y-54725000I0J-50000D01*
G01*
X140450000Y-55725000D01*
G75*
G02*
X140400000Y-55775000I-50000J0D01*
G01*
X139000000Y-55775000D01*
G75*
G02*
X138950000Y-55725000I0J50000D01*
G01*
G37*
G36*
G01*
X138950000Y-57125000D02*
X138950000Y-56125000D01*
G75*
G02*
X139000000Y-56075000I50000J0D01*
G01*
X140400000Y-56075000D01*
G75*
G02*
X140450000Y-56125000I0J-50000D01*
G01*
X140450000Y-57125000D01*
G75*
G02*
X140400000Y-57175000I-50000J0D01*
G01*
X139000000Y-57175000D01*
G75*
G02*
X138950000Y-57125000I0J50000D01*
G01*
G37*
G36*
G01*
X133550000Y-55725000D02*
X133550000Y-54725000D01*
G75*
G02*
X133600000Y-54675000I50000J0D01*
G01*
X135000000Y-54675000D01*
G75*
G02*
X135050000Y-54725000I0J-50000D01*
G01*
X135050000Y-55725000D01*
G75*
G02*
X135000000Y-55775000I-50000J0D01*
G01*
X133600000Y-55775000D01*
G75*
G02*
X133550000Y-55725000I0J50000D01*
G01*
G37*
G36*
G01*
X133550000Y-57125000D02*
X133550000Y-56125000D01*
G75*
G02*
X133600000Y-56075000I50000J0D01*
G01*
X135000000Y-56075000D01*
G75*
G02*
X135050000Y-56125000I0J-50000D01*
G01*
X135050000Y-57125000D01*
G75*
G02*
X135000000Y-57175000I-50000J0D01*
G01*
X133600000Y-57175000D01*
G75*
G02*
X133550000Y-57125000I0J50000D01*
G01*
G37*
G36*
G01*
X157450000Y-88537500D02*
X157450000Y-87537500D01*
G75*
G02*
X157500000Y-87487500I50000J0D01*
G01*
X158900000Y-87487500D01*
G75*
G02*
X158950000Y-87537500I0J-50000D01*
G01*
X158950000Y-88537500D01*
G75*
G02*
X158900000Y-88587500I-50000J0D01*
G01*
X157500000Y-88587500D01*
G75*
G02*
X157450000Y-88537500I0J50000D01*
G01*
G37*
G36*
G01*
X157450000Y-89937500D02*
X157450000Y-88937500D01*
G75*
G02*
X157500000Y-88887500I50000J0D01*
G01*
X158900000Y-88887500D01*
G75*
G02*
X158950000Y-88937500I0J-50000D01*
G01*
X158950000Y-89937500D01*
G75*
G02*
X158900000Y-89987500I-50000J0D01*
G01*
X157500000Y-89987500D01*
G75*
G02*
X157450000Y-89937500I0J50000D01*
G01*
G37*
G36*
G01*
X152050000Y-88537500D02*
X152050000Y-87537500D01*
G75*
G02*
X152100000Y-87487500I50000J0D01*
G01*
X153500000Y-87487500D01*
G75*
G02*
X153550000Y-87537500I0J-50000D01*
G01*
X153550000Y-88537500D01*
G75*
G02*
X153500000Y-88587500I-50000J0D01*
G01*
X152100000Y-88587500D01*
G75*
G02*
X152050000Y-88537500I0J50000D01*
G01*
G37*
G36*
G01*
X152050000Y-89937500D02*
X152050000Y-88937500D01*
G75*
G02*
X152100000Y-88887500I50000J0D01*
G01*
X153500000Y-88887500D01*
G75*
G02*
X153550000Y-88937500I0J-50000D01*
G01*
X153550000Y-89937500D01*
G75*
G02*
X153500000Y-89987500I-50000J0D01*
G01*
X152100000Y-89987500D01*
G75*
G02*
X152050000Y-89937500I0J50000D01*
G01*
G37*
G36*
G01*
X157450000Y-71037500D02*
X157450000Y-70037500D01*
G75*
G02*
X157500000Y-69987500I50000J0D01*
G01*
X158900000Y-69987500D01*
G75*
G02*
X158950000Y-70037500I0J-50000D01*
G01*
X158950000Y-71037500D01*
G75*
G02*
X158900000Y-71087500I-50000J0D01*
G01*
X157500000Y-71087500D01*
G75*
G02*
X157450000Y-71037500I0J50000D01*
G01*
G37*
G36*
G01*
X157450000Y-72437500D02*
X157450000Y-71437500D01*
G75*
G02*
X157500000Y-71387500I50000J0D01*
G01*
X158900000Y-71387500D01*
G75*
G02*
X158950000Y-71437500I0J-50000D01*
G01*
X158950000Y-72437500D01*
G75*
G02*
X158900000Y-72487500I-50000J0D01*
G01*
X157500000Y-72487500D01*
G75*
G02*
X157450000Y-72437500I0J50000D01*
G01*
G37*
G36*
G01*
X152050000Y-71037500D02*
X152050000Y-70037500D01*
G75*
G02*
X152100000Y-69987500I50000J0D01*
G01*
X153500000Y-69987500D01*
G75*
G02*
X153550000Y-70037500I0J-50000D01*
G01*
X153550000Y-71037500D01*
G75*
G02*
X153500000Y-71087500I-50000J0D01*
G01*
X152100000Y-71087500D01*
G75*
G02*
X152050000Y-71037500I0J50000D01*
G01*
G37*
G36*
G01*
X152050000Y-72437500D02*
X152050000Y-71437500D01*
G75*
G02*
X152100000Y-71387500I50000J0D01*
G01*
X153500000Y-71387500D01*
G75*
G02*
X153550000Y-71437500I0J-50000D01*
G01*
X153550000Y-72437500D01*
G75*
G02*
X153500000Y-72487500I-50000J0D01*
G01*
X152100000Y-72487500D01*
G75*
G02*
X152050000Y-72437500I0J50000D01*
G01*
G37*
G36*
G01*
X157450000Y-53537500D02*
X157450000Y-52537500D01*
G75*
G02*
X157500000Y-52487500I50000J0D01*
G01*
X158900000Y-52487500D01*
G75*
G02*
X158950000Y-52537500I0J-50000D01*
G01*
X158950000Y-53537500D01*
G75*
G02*
X158900000Y-53587500I-50000J0D01*
G01*
X157500000Y-53587500D01*
G75*
G02*
X157450000Y-53537500I0J50000D01*
G01*
G37*
G36*
G01*
X157450000Y-54937500D02*
X157450000Y-53937500D01*
G75*
G02*
X157500000Y-53887500I50000J0D01*
G01*
X158900000Y-53887500D01*
G75*
G02*
X158950000Y-53937500I0J-50000D01*
G01*
X158950000Y-54937500D01*
G75*
G02*
X158900000Y-54987500I-50000J0D01*
G01*
X157500000Y-54987500D01*
G75*
G02*
X157450000Y-54937500I0J50000D01*
G01*
G37*
G36*
G01*
X152050000Y-53537500D02*
X152050000Y-52537500D01*
G75*
G02*
X152100000Y-52487500I50000J0D01*
G01*
X153500000Y-52487500D01*
G75*
G02*
X153550000Y-52537500I0J-50000D01*
G01*
X153550000Y-53537500D01*
G75*
G02*
X153500000Y-53587500I-50000J0D01*
G01*
X152100000Y-53587500D01*
G75*
G02*
X152050000Y-53537500I0J50000D01*
G01*
G37*
G36*
G01*
X152050000Y-54937500D02*
X152050000Y-53937500D01*
G75*
G02*
X152100000Y-53887500I50000J0D01*
G01*
X153500000Y-53887500D01*
G75*
G02*
X153550000Y-53937500I0J-50000D01*
G01*
X153550000Y-54937500D01*
G75*
G02*
X153500000Y-54987500I-50000J0D01*
G01*
X152100000Y-54987500D01*
G75*
G02*
X152050000Y-54937500I0J50000D01*
G01*
G37*
G36*
G01*
X175950000Y-90725000D02*
X175950000Y-89725000D01*
G75*
G02*
X176000000Y-89675000I50000J0D01*
G01*
X177400000Y-89675000D01*
G75*
G02*
X177450000Y-89725000I0J-50000D01*
G01*
X177450000Y-90725000D01*
G75*
G02*
X177400000Y-90775000I-50000J0D01*
G01*
X176000000Y-90775000D01*
G75*
G02*
X175950000Y-90725000I0J50000D01*
G01*
G37*
G36*
G01*
X175950000Y-92125000D02*
X175950000Y-91125000D01*
G75*
G02*
X176000000Y-91075000I50000J0D01*
G01*
X177400000Y-91075000D01*
G75*
G02*
X177450000Y-91125000I0J-50000D01*
G01*
X177450000Y-92125000D01*
G75*
G02*
X177400000Y-92175000I-50000J0D01*
G01*
X176000000Y-92175000D01*
G75*
G02*
X175950000Y-92125000I0J50000D01*
G01*
G37*
G36*
G01*
X170550000Y-90725000D02*
X170550000Y-89725000D01*
G75*
G02*
X170600000Y-89675000I50000J0D01*
G01*
X172000000Y-89675000D01*
G75*
G02*
X172050000Y-89725000I0J-50000D01*
G01*
X172050000Y-90725000D01*
G75*
G02*
X172000000Y-90775000I-50000J0D01*
G01*
X170600000Y-90775000D01*
G75*
G02*
X170550000Y-90725000I0J50000D01*
G01*
G37*
G36*
G01*
X170550000Y-92125000D02*
X170550000Y-91125000D01*
G75*
G02*
X170600000Y-91075000I50000J0D01*
G01*
X172000000Y-91075000D01*
G75*
G02*
X172050000Y-91125000I0J-50000D01*
G01*
X172050000Y-92125000D01*
G75*
G02*
X172000000Y-92175000I-50000J0D01*
G01*
X170600000Y-92175000D01*
G75*
G02*
X170550000Y-92125000I0J50000D01*
G01*
G37*
G36*
G01*
X175950000Y-73225000D02*
X175950000Y-72225000D01*
G75*
G02*
X176000000Y-72175000I50000J0D01*
G01*
X177400000Y-72175000D01*
G75*
G02*
X177450000Y-72225000I0J-50000D01*
G01*
X177450000Y-73225000D01*
G75*
G02*
X177400000Y-73275000I-50000J0D01*
G01*
X176000000Y-73275000D01*
G75*
G02*
X175950000Y-73225000I0J50000D01*
G01*
G37*
G36*
G01*
X175950000Y-74625000D02*
X175950000Y-73625000D01*
G75*
G02*
X176000000Y-73575000I50000J0D01*
G01*
X177400000Y-73575000D01*
G75*
G02*
X177450000Y-73625000I0J-50000D01*
G01*
X177450000Y-74625000D01*
G75*
G02*
X177400000Y-74675000I-50000J0D01*
G01*
X176000000Y-74675000D01*
G75*
G02*
X175950000Y-74625000I0J50000D01*
G01*
G37*
G36*
G01*
X170550000Y-73225000D02*
X170550000Y-72225000D01*
G75*
G02*
X170600000Y-72175000I50000J0D01*
G01*
X172000000Y-72175000D01*
G75*
G02*
X172050000Y-72225000I0J-50000D01*
G01*
X172050000Y-73225000D01*
G75*
G02*
X172000000Y-73275000I-50000J0D01*
G01*
X170600000Y-73275000D01*
G75*
G02*
X170550000Y-73225000I0J50000D01*
G01*
G37*
G36*
G01*
X170550000Y-74625000D02*
X170550000Y-73625000D01*
G75*
G02*
X170600000Y-73575000I50000J0D01*
G01*
X172000000Y-73575000D01*
G75*
G02*
X172050000Y-73625000I0J-50000D01*
G01*
X172050000Y-74625000D01*
G75*
G02*
X172000000Y-74675000I-50000J0D01*
G01*
X170600000Y-74675000D01*
G75*
G02*
X170550000Y-74625000I0J50000D01*
G01*
G37*
G36*
G01*
X175950000Y-55725000D02*
X175950000Y-54725000D01*
G75*
G02*
X176000000Y-54675000I50000J0D01*
G01*
X177400000Y-54675000D01*
G75*
G02*
X177450000Y-54725000I0J-50000D01*
G01*
X177450000Y-55725000D01*
G75*
G02*
X177400000Y-55775000I-50000J0D01*
G01*
X176000000Y-55775000D01*
G75*
G02*
X175950000Y-55725000I0J50000D01*
G01*
G37*
G36*
G01*
X175950000Y-57125000D02*
X175950000Y-56125000D01*
G75*
G02*
X176000000Y-56075000I50000J0D01*
G01*
X177400000Y-56075000D01*
G75*
G02*
X177450000Y-56125000I0J-50000D01*
G01*
X177450000Y-57125000D01*
G75*
G02*
X177400000Y-57175000I-50000J0D01*
G01*
X176000000Y-57175000D01*
G75*
G02*
X175950000Y-57125000I0J50000D01*
G01*
G37*
G36*
G01*
X170550000Y-55725000D02*
X170550000Y-54725000D01*
G75*
G02*
X170600000Y-54675000I50000J0D01*
G01*
X172000000Y-54675000D01*
G75*
G02*
X172050000Y-54725000I0J-50000D01*
G01*
X172050000Y-55725000D01*
G75*
G02*
X172000000Y-55775000I-50000J0D01*
G01*
X170600000Y-55775000D01*
G75*
G02*
X170550000Y-55725000I0J50000D01*
G01*
G37*
G36*
G01*
X170550000Y-57125000D02*
X170550000Y-56125000D01*
G75*
G02*
X170600000Y-56075000I50000J0D01*
G01*
X172000000Y-56075000D01*
G75*
G02*
X172050000Y-56125000I0J-50000D01*
G01*
X172050000Y-57125000D01*
G75*
G02*
X172000000Y-57175000I-50000J0D01*
G01*
X170600000Y-57175000D01*
G75*
G02*
X170550000Y-57125000I0J50000D01*
G01*
G37*
G36*
G01*
X194450000Y-92912500D02*
X194450000Y-91912500D01*
G75*
G02*
X194500000Y-91862500I50000J0D01*
G01*
X195900000Y-91862500D01*
G75*
G02*
X195950000Y-91912500I0J-50000D01*
G01*
X195950000Y-92912500D01*
G75*
G02*
X195900000Y-92962500I-50000J0D01*
G01*
X194500000Y-92962500D01*
G75*
G02*
X194450000Y-92912500I0J50000D01*
G01*
G37*
G36*
G01*
X194450000Y-94312500D02*
X194450000Y-93312500D01*
G75*
G02*
X194500000Y-93262500I50000J0D01*
G01*
X195900000Y-93262500D01*
G75*
G02*
X195950000Y-93312500I0J-50000D01*
G01*
X195950000Y-94312500D01*
G75*
G02*
X195900000Y-94362500I-50000J0D01*
G01*
X194500000Y-94362500D01*
G75*
G02*
X194450000Y-94312500I0J50000D01*
G01*
G37*
G36*
G01*
X189050000Y-92912500D02*
X189050000Y-91912500D01*
G75*
G02*
X189100000Y-91862500I50000J0D01*
G01*
X190500000Y-91862500D01*
G75*
G02*
X190550000Y-91912500I0J-50000D01*
G01*
X190550000Y-92912500D01*
G75*
G02*
X190500000Y-92962500I-50000J0D01*
G01*
X189100000Y-92962500D01*
G75*
G02*
X189050000Y-92912500I0J50000D01*
G01*
G37*
G36*
G01*
X189050000Y-94312500D02*
X189050000Y-93312500D01*
G75*
G02*
X189100000Y-93262500I50000J0D01*
G01*
X190500000Y-93262500D01*
G75*
G02*
X190550000Y-93312500I0J-50000D01*
G01*
X190550000Y-94312500D01*
G75*
G02*
X190500000Y-94362500I-50000J0D01*
G01*
X189100000Y-94362500D01*
G75*
G02*
X189050000Y-94312500I0J50000D01*
G01*
G37*
G36*
G01*
X194450000Y-75412500D02*
X194450000Y-74412500D01*
G75*
G02*
X194500000Y-74362500I50000J0D01*
G01*
X195900000Y-74362500D01*
G75*
G02*
X195950000Y-74412500I0J-50000D01*
G01*
X195950000Y-75412500D01*
G75*
G02*
X195900000Y-75462500I-50000J0D01*
G01*
X194500000Y-75462500D01*
G75*
G02*
X194450000Y-75412500I0J50000D01*
G01*
G37*
G36*
G01*
X194450000Y-76812500D02*
X194450000Y-75812500D01*
G75*
G02*
X194500000Y-75762500I50000J0D01*
G01*
X195900000Y-75762500D01*
G75*
G02*
X195950000Y-75812500I0J-50000D01*
G01*
X195950000Y-76812500D01*
G75*
G02*
X195900000Y-76862500I-50000J0D01*
G01*
X194500000Y-76862500D01*
G75*
G02*
X194450000Y-76812500I0J50000D01*
G01*
G37*
G36*
G01*
X189050000Y-75412500D02*
X189050000Y-74412500D01*
G75*
G02*
X189100000Y-74362500I50000J0D01*
G01*
X190500000Y-74362500D01*
G75*
G02*
X190550000Y-74412500I0J-50000D01*
G01*
X190550000Y-75412500D01*
G75*
G02*
X190500000Y-75462500I-50000J0D01*
G01*
X189100000Y-75462500D01*
G75*
G02*
X189050000Y-75412500I0J50000D01*
G01*
G37*
G36*
G01*
X189050000Y-76812500D02*
X189050000Y-75812500D01*
G75*
G02*
X189100000Y-75762500I50000J0D01*
G01*
X190500000Y-75762500D01*
G75*
G02*
X190550000Y-75812500I0J-50000D01*
G01*
X190550000Y-76812500D01*
G75*
G02*
X190500000Y-76862500I-50000J0D01*
G01*
X189100000Y-76862500D01*
G75*
G02*
X189050000Y-76812500I0J50000D01*
G01*
G37*
G36*
G01*
X194450000Y-57912500D02*
X194450000Y-56912500D01*
G75*
G02*
X194500000Y-56862500I50000J0D01*
G01*
X195900000Y-56862500D01*
G75*
G02*
X195950000Y-56912500I0J-50000D01*
G01*
X195950000Y-57912500D01*
G75*
G02*
X195900000Y-57962500I-50000J0D01*
G01*
X194500000Y-57962500D01*
G75*
G02*
X194450000Y-57912500I0J50000D01*
G01*
G37*
G36*
G01*
X194450000Y-59312500D02*
X194450000Y-58312500D01*
G75*
G02*
X194500000Y-58262500I50000J0D01*
G01*
X195900000Y-58262500D01*
G75*
G02*
X195950000Y-58312500I0J-50000D01*
G01*
X195950000Y-59312500D01*
G75*
G02*
X195900000Y-59362500I-50000J0D01*
G01*
X194500000Y-59362500D01*
G75*
G02*
X194450000Y-59312500I0J50000D01*
G01*
G37*
G36*
G01*
X189050000Y-57912500D02*
X189050000Y-56912500D01*
G75*
G02*
X189100000Y-56862500I50000J0D01*
G01*
X190500000Y-56862500D01*
G75*
G02*
X190550000Y-56912500I0J-50000D01*
G01*
X190550000Y-57912500D01*
G75*
G02*
X190500000Y-57962500I-50000J0D01*
G01*
X189100000Y-57962500D01*
G75*
G02*
X189050000Y-57912500I0J50000D01*
G01*
G37*
G36*
G01*
X189050000Y-59312500D02*
X189050000Y-58312500D01*
G75*
G02*
X189100000Y-58262500I50000J0D01*
G01*
X190500000Y-58262500D01*
G75*
G02*
X190550000Y-58312500I0J-50000D01*
G01*
X190550000Y-59312500D01*
G75*
G02*
X190500000Y-59362500I-50000J0D01*
G01*
X189100000Y-59362500D01*
G75*
G02*
X189050000Y-59312500I0J50000D01*
G01*
G37*
G36*
G01*
X166700000Y-109037500D02*
X166700000Y-108037500D01*
G75*
G02*
X166750000Y-107987500I50000J0D01*
G01*
X168150000Y-107987500D01*
G75*
G02*
X168200000Y-108037500I0J-50000D01*
G01*
X168200000Y-109037500D01*
G75*
G02*
X168150000Y-109087500I-50000J0D01*
G01*
X166750000Y-109087500D01*
G75*
G02*
X166700000Y-109037500I0J50000D01*
G01*
G37*
G36*
G01*
X166700000Y-110437500D02*
X166700000Y-109437500D01*
G75*
G02*
X166750000Y-109387500I50000J0D01*
G01*
X168150000Y-109387500D01*
G75*
G02*
X168200000Y-109437500I0J-50000D01*
G01*
X168200000Y-110437500D01*
G75*
G02*
X168150000Y-110487500I-50000J0D01*
G01*
X166750000Y-110487500D01*
G75*
G02*
X166700000Y-110437500I0J50000D01*
G01*
G37*
G36*
G01*
X161300000Y-109037500D02*
X161300000Y-108037500D01*
G75*
G02*
X161350000Y-107987500I50000J0D01*
G01*
X162750000Y-107987500D01*
G75*
G02*
X162800000Y-108037500I0J-50000D01*
G01*
X162800000Y-109037500D01*
G75*
G02*
X162750000Y-109087500I-50000J0D01*
G01*
X161350000Y-109087500D01*
G75*
G02*
X161300000Y-109037500I0J50000D01*
G01*
G37*
G36*
G01*
X161300000Y-110437500D02*
X161300000Y-109437500D01*
G75*
G02*
X161350000Y-109387500I50000J0D01*
G01*
X162750000Y-109387500D01*
G75*
G02*
X162800000Y-109437500I0J-50000D01*
G01*
X162800000Y-110437500D01*
G75*
G02*
X162750000Y-110487500I-50000J0D01*
G01*
X161350000Y-110487500D01*
G75*
G02*
X161300000Y-110437500I0J50000D01*
G01*
G37*
G36*
G01*
X188401769Y-112459161D02*
X188660588Y-111493235D01*
G75*
G02*
X188721825Y-111457880I48296J-12941D01*
G01*
X190074122Y-111820226D01*
G75*
G02*
X190109477Y-111881463I-12941J-48296D01*
G01*
X189850658Y-112847389D01*
G75*
G02*
X189789421Y-112882744I-48296J12941D01*
G01*
X188437124Y-112520398D01*
G75*
G02*
X188401769Y-112459161I12941J48296D01*
G01*
G37*
G36*
G01*
X188039422Y-113811458D02*
X188298241Y-112845532D01*
G75*
G02*
X188359478Y-112810177I48296J-12941D01*
G01*
X189711775Y-113172523D01*
G75*
G02*
X189747130Y-113233760I-12941J-48296D01*
G01*
X189488311Y-114199686D01*
G75*
G02*
X189427074Y-114235041I-48296J12941D01*
G01*
X188074777Y-113872695D01*
G75*
G02*
X188039422Y-113811458I12941J48296D01*
G01*
G37*
G36*
G01*
X183185770Y-111061538D02*
X183444589Y-110095612D01*
G75*
G02*
X183505826Y-110060257I48296J-12941D01*
G01*
X184858123Y-110422603D01*
G75*
G02*
X184893478Y-110483840I-12941J-48296D01*
G01*
X184634659Y-111449766D01*
G75*
G02*
X184573422Y-111485121I-48296J12941D01*
G01*
X183221125Y-111122775D01*
G75*
G02*
X183185770Y-111061538I12941J48296D01*
G01*
G37*
G36*
G01*
X182823423Y-112413835D02*
X183082242Y-111447909D01*
G75*
G02*
X183143479Y-111412554I48296J-12941D01*
G01*
X184495776Y-111774900D01*
G75*
G02*
X184531131Y-111836137I-12941J-48296D01*
G01*
X184272312Y-112802063D01*
G75*
G02*
X184211075Y-112837418I-48296J12941D01*
G01*
X182858778Y-112475072D01*
G75*
G02*
X182823423Y-112413835I12941J48296D01*
G01*
G37*
G36*
G01*
X203745319Y-116183498D02*
X202879293Y-115683498D01*
G75*
G02*
X202860992Y-115615197I25000J43301D01*
G01*
X203560992Y-114402761D01*
G75*
G02*
X203629293Y-114384460I43301J-25000D01*
G01*
X204495319Y-114884460D01*
G75*
G02*
X204513620Y-114952761I-25000J-43301D01*
G01*
X203813620Y-116165197D01*
G75*
G02*
X203745319Y-116183498I-43301J25000D01*
G01*
G37*
G36*
G01*
X204957755Y-116883498D02*
X204091729Y-116383498D01*
G75*
G02*
X204073428Y-116315197I25000J43301D01*
G01*
X204773428Y-115102761D01*
G75*
G02*
X204841729Y-115084460I43301J-25000D01*
G01*
X205707755Y-115584460D01*
G75*
G02*
X205726056Y-115652761I-25000J-43301D01*
G01*
X205026056Y-116865197D01*
G75*
G02*
X204957755Y-116883498I-43301J25000D01*
G01*
G37*
G36*
G01*
X201045319Y-120860036D02*
X200179293Y-120360036D01*
G75*
G02*
X200160992Y-120291735I25000J43301D01*
G01*
X200860992Y-119079299D01*
G75*
G02*
X200929293Y-119060998I43301J-25000D01*
G01*
X201795319Y-119560998D01*
G75*
G02*
X201813620Y-119629299I-25000J-43301D01*
G01*
X201113620Y-120841735D01*
G75*
G02*
X201045319Y-120860036I-43301J25000D01*
G01*
G37*
G36*
G01*
X202257755Y-121560036D02*
X201391729Y-121060036D01*
G75*
G02*
X201373428Y-120991735I25000J43301D01*
G01*
X202073428Y-119779299D01*
G75*
G02*
X202141729Y-119760998I43301J-25000D01*
G01*
X203007755Y-120260998D01*
G75*
G02*
X203026056Y-120329299I-25000J-43301D01*
G01*
X202326056Y-121541735D01*
G75*
G02*
X202257755Y-121560036I-43301J25000D01*
G01*
G37*
G36*
G01*
X190550000Y-71312500D02*
X190550000Y-72312500D01*
G75*
G02*
X190500000Y-72362500I-50000J0D01*
G01*
X189100000Y-72362500D01*
G75*
G02*
X189050000Y-72312500I0J50000D01*
G01*
X189050000Y-71312500D01*
G75*
G02*
X189100000Y-71262500I50000J0D01*
G01*
X190500000Y-71262500D01*
G75*
G02*
X190550000Y-71312500I0J-50000D01*
G01*
G37*
G36*
G01*
X190550000Y-72712500D02*
X190550000Y-73712500D01*
G75*
G02*
X190500000Y-73762500I-50000J0D01*
G01*
X189100000Y-73762500D01*
G75*
G02*
X189050000Y-73712500I0J50000D01*
G01*
X189050000Y-72712500D01*
G75*
G02*
X189100000Y-72662500I50000J0D01*
G01*
X190500000Y-72662500D01*
G75*
G02*
X190550000Y-72712500I0J-50000D01*
G01*
G37*
G36*
G01*
X195950000Y-71312500D02*
X195950000Y-72312500D01*
G75*
G02*
X195900000Y-72362500I-50000J0D01*
G01*
X194500000Y-72362500D01*
G75*
G02*
X194450000Y-72312500I0J50000D01*
G01*
X194450000Y-71312500D01*
G75*
G02*
X194500000Y-71262500I50000J0D01*
G01*
X195900000Y-71262500D01*
G75*
G02*
X195950000Y-71312500I0J-50000D01*
G01*
G37*
G36*
G01*
X195950000Y-72712500D02*
X195950000Y-73712500D01*
G75*
G02*
X195900000Y-73762500I-50000J0D01*
G01*
X194500000Y-73762500D01*
G75*
G02*
X194450000Y-73712500I0J50000D01*
G01*
X194450000Y-72712500D01*
G75*
G02*
X194500000Y-72662500I50000J0D01*
G01*
X195900000Y-72662500D01*
G75*
G02*
X195950000Y-72712500I0J-50000D01*
G01*
G37*
G36*
G01*
X153550000Y-66937500D02*
X153550000Y-67937500D01*
G75*
G02*
X153500000Y-67987500I-50000J0D01*
G01*
X152100000Y-67987500D01*
G75*
G02*
X152050000Y-67937500I0J50000D01*
G01*
X152050000Y-66937500D01*
G75*
G02*
X152100000Y-66887500I50000J0D01*
G01*
X153500000Y-66887500D01*
G75*
G02*
X153550000Y-66937500I0J-50000D01*
G01*
G37*
G36*
G01*
X153550000Y-68337500D02*
X153550000Y-69337500D01*
G75*
G02*
X153500000Y-69387500I-50000J0D01*
G01*
X152100000Y-69387500D01*
G75*
G02*
X152050000Y-69337500I0J50000D01*
G01*
X152050000Y-68337500D01*
G75*
G02*
X152100000Y-68287500I50000J0D01*
G01*
X153500000Y-68287500D01*
G75*
G02*
X153550000Y-68337500I0J-50000D01*
G01*
G37*
G36*
G01*
X158950000Y-66937500D02*
X158950000Y-67937500D01*
G75*
G02*
X158900000Y-67987500I-50000J0D01*
G01*
X157500000Y-67987500D01*
G75*
G02*
X157450000Y-67937500I0J50000D01*
G01*
X157450000Y-66937500D01*
G75*
G02*
X157500000Y-66887500I50000J0D01*
G01*
X158900000Y-66887500D01*
G75*
G02*
X158950000Y-66937500I0J-50000D01*
G01*
G37*
G36*
G01*
X158950000Y-68337500D02*
X158950000Y-69337500D01*
G75*
G02*
X158900000Y-69387500I-50000J0D01*
G01*
X157500000Y-69387500D01*
G75*
G02*
X157450000Y-69337500I0J50000D01*
G01*
X157450000Y-68337500D01*
G75*
G02*
X157500000Y-68287500I50000J0D01*
G01*
X158900000Y-68287500D01*
G75*
G02*
X158950000Y-68337500I0J-50000D01*
G01*
G37*
G36*
G01*
X116550000Y-73500000D02*
X116550000Y-74500000D01*
G75*
G02*
X116500000Y-74550000I-50000J0D01*
G01*
X115100000Y-74550000D01*
G75*
G02*
X115050000Y-74500000I0J50000D01*
G01*
X115050000Y-73500000D01*
G75*
G02*
X115100000Y-73450000I50000J0D01*
G01*
X116500000Y-73450000D01*
G75*
G02*
X116550000Y-73500000I0J-50000D01*
G01*
G37*
G36*
G01*
X116550000Y-74900000D02*
X116550000Y-75900000D01*
G75*
G02*
X116500000Y-75950000I-50000J0D01*
G01*
X115100000Y-75950000D01*
G75*
G02*
X115050000Y-75900000I0J50000D01*
G01*
X115050000Y-74900000D01*
G75*
G02*
X115100000Y-74850000I50000J0D01*
G01*
X116500000Y-74850000D01*
G75*
G02*
X116550000Y-74900000I0J-50000D01*
G01*
G37*
G36*
G01*
X121950000Y-73500000D02*
X121950000Y-74500000D01*
G75*
G02*
X121900000Y-74550000I-50000J0D01*
G01*
X120500000Y-74550000D01*
G75*
G02*
X120450000Y-74500000I0J50000D01*
G01*
X120450000Y-73500000D01*
G75*
G02*
X120500000Y-73450000I50000J0D01*
G01*
X121900000Y-73450000D01*
G75*
G02*
X121950000Y-73500000I0J-50000D01*
G01*
G37*
G36*
G01*
X121950000Y-74900000D02*
X121950000Y-75900000D01*
G75*
G02*
X121900000Y-75950000I-50000J0D01*
G01*
X120500000Y-75950000D01*
G75*
G02*
X120450000Y-75900000I0J50000D01*
G01*
X120450000Y-74900000D01*
G75*
G02*
X120500000Y-74850000I50000J0D01*
G01*
X121900000Y-74850000D01*
G75*
G02*
X121950000Y-74900000I0J-50000D01*
G01*
G37*
G36*
G01*
X116550000Y-91000000D02*
X116550000Y-92000000D01*
G75*
G02*
X116500000Y-92050000I-50000J0D01*
G01*
X115100000Y-92050000D01*
G75*
G02*
X115050000Y-92000000I0J50000D01*
G01*
X115050000Y-91000000D01*
G75*
G02*
X115100000Y-90950000I50000J0D01*
G01*
X116500000Y-90950000D01*
G75*
G02*
X116550000Y-91000000I0J-50000D01*
G01*
G37*
G36*
G01*
X116550000Y-92400000D02*
X116550000Y-93400000D01*
G75*
G02*
X116500000Y-93450000I-50000J0D01*
G01*
X115100000Y-93450000D01*
G75*
G02*
X115050000Y-93400000I0J50000D01*
G01*
X115050000Y-92400000D01*
G75*
G02*
X115100000Y-92350000I50000J0D01*
G01*
X116500000Y-92350000D01*
G75*
G02*
X116550000Y-92400000I0J-50000D01*
G01*
G37*
G36*
G01*
X121950000Y-91000000D02*
X121950000Y-92000000D01*
G75*
G02*
X121900000Y-92050000I-50000J0D01*
G01*
X120500000Y-92050000D01*
G75*
G02*
X120450000Y-92000000I0J50000D01*
G01*
X120450000Y-91000000D01*
G75*
G02*
X120500000Y-90950000I50000J0D01*
G01*
X121900000Y-90950000D01*
G75*
G02*
X121950000Y-91000000I0J-50000D01*
G01*
G37*
G36*
G01*
X121950000Y-92400000D02*
X121950000Y-93400000D01*
G75*
G02*
X121900000Y-93450000I-50000J0D01*
G01*
X120500000Y-93450000D01*
G75*
G02*
X120450000Y-93400000I0J50000D01*
G01*
X120450000Y-92400000D01*
G75*
G02*
X120500000Y-92350000I50000J0D01*
G01*
X121900000Y-92350000D01*
G75*
G02*
X121950000Y-92400000I0J-50000D01*
G01*
G37*
G36*
G01*
X153550000Y-101937500D02*
X153550000Y-102937500D01*
G75*
G02*
X153500000Y-102987500I-50000J0D01*
G01*
X152100000Y-102987500D01*
G75*
G02*
X152050000Y-102937500I0J50000D01*
G01*
X152050000Y-101937500D01*
G75*
G02*
X152100000Y-101887500I50000J0D01*
G01*
X153500000Y-101887500D01*
G75*
G02*
X153550000Y-101937500I0J-50000D01*
G01*
G37*
G36*
G01*
X153550000Y-103337500D02*
X153550000Y-104337500D01*
G75*
G02*
X153500000Y-104387500I-50000J0D01*
G01*
X152100000Y-104387500D01*
G75*
G02*
X152050000Y-104337500I0J50000D01*
G01*
X152050000Y-103337500D01*
G75*
G02*
X152100000Y-103287500I50000J0D01*
G01*
X153500000Y-103287500D01*
G75*
G02*
X153550000Y-103337500I0J-50000D01*
G01*
G37*
G36*
G01*
X158950000Y-101937500D02*
X158950000Y-102937500D01*
G75*
G02*
X158900000Y-102987500I-50000J0D01*
G01*
X157500000Y-102987500D01*
G75*
G02*
X157450000Y-102937500I0J50000D01*
G01*
X157450000Y-101937500D01*
G75*
G02*
X157500000Y-101887500I50000J0D01*
G01*
X158900000Y-101887500D01*
G75*
G02*
X158950000Y-101937500I0J-50000D01*
G01*
G37*
G36*
G01*
X158950000Y-103337500D02*
X158950000Y-104337500D01*
G75*
G02*
X158900000Y-104387500I-50000J0D01*
G01*
X157500000Y-104387500D01*
G75*
G02*
X157450000Y-104337500I0J50000D01*
G01*
X157450000Y-103337500D01*
G75*
G02*
X157500000Y-103287500I50000J0D01*
G01*
X158900000Y-103287500D01*
G75*
G02*
X158950000Y-103337500I0J-50000D01*
G01*
G37*
G36*
G01*
X190550000Y-106312500D02*
X190550000Y-107312500D01*
G75*
G02*
X190500000Y-107362500I-50000J0D01*
G01*
X189100000Y-107362500D01*
G75*
G02*
X189050000Y-107312500I0J50000D01*
G01*
X189050000Y-106312500D01*
G75*
G02*
X189100000Y-106262500I50000J0D01*
G01*
X190500000Y-106262500D01*
G75*
G02*
X190550000Y-106312500I0J-50000D01*
G01*
G37*
G36*
G01*
X190550000Y-107712500D02*
X190550000Y-108712500D01*
G75*
G02*
X190500000Y-108762500I-50000J0D01*
G01*
X189100000Y-108762500D01*
G75*
G02*
X189050000Y-108712500I0J50000D01*
G01*
X189050000Y-107712500D01*
G75*
G02*
X189100000Y-107662500I50000J0D01*
G01*
X190500000Y-107662500D01*
G75*
G02*
X190550000Y-107712500I0J-50000D01*
G01*
G37*
G36*
G01*
X195950000Y-106312500D02*
X195950000Y-107312500D01*
G75*
G02*
X195900000Y-107362500I-50000J0D01*
G01*
X194500000Y-107362500D01*
G75*
G02*
X194450000Y-107312500I0J50000D01*
G01*
X194450000Y-106312500D01*
G75*
G02*
X194500000Y-106262500I50000J0D01*
G01*
X195900000Y-106262500D01*
G75*
G02*
X195950000Y-106312500I0J-50000D01*
G01*
G37*
G36*
G01*
X195950000Y-107712500D02*
X195950000Y-108712500D01*
G75*
G02*
X195900000Y-108762500I-50000J0D01*
G01*
X194500000Y-108762500D01*
G75*
G02*
X194450000Y-108712500I0J50000D01*
G01*
X194450000Y-107712500D01*
G75*
G02*
X194500000Y-107662500I50000J0D01*
G01*
X195900000Y-107662500D01*
G75*
G02*
X195950000Y-107712500I0J-50000D01*
G01*
G37*
%LPD*%
M02*
