%TF.GenerationSoftware,KiCad,Pcbnew,8.0.8+1*%
%TF.CreationDate,2025-07-09T06:01:45+00:00*%
%TF.ProjectId,controller_overlay,636f6e74-726f-46c6-9c65-725f6f766572,0.2*%
%TF.SameCoordinates,Original*%
%TF.FileFunction,Drillmap*%
%TF.FilePolarity,Positive*%
%FSLAX45Y45*%
G04 Gerber Fmt 4.5, Leading zero omitted, Abs format (unit mm)*
G04 Created by KiCad (PCBNEW 8.0.8+1) date 2025-07-09 06:01:45*
%MOMM*%
%LPD*%
G01*
G04 APERTURE LIST*
%ADD10C,0.150000*%
%ADD11C,0.200000*%
G04 APERTURE END LIST*
D10*
X20234800Y-10097815D02*
X20234800Y-5720250D01*
X20284800Y-5670250D02*
X22106800Y-5670250D01*
X22156800Y-5720250D02*
X22156800Y-11149748D01*
X22081800Y-11193049D02*
X20259800Y-10141117D01*
X20234800Y-5720250D02*
G75*
G02*
X20284800Y-5670250I50000J0D01*
G01*
X22106800Y-5670250D02*
G75*
G02*
X22156800Y-5720250I0J-50000D01*
G01*
X22156800Y-11149748D02*
G75*
G02*
X22081801Y-11193048I-50000J2D01*
G01*
X20259800Y-10141117D02*
G75*
G02*
X20234804Y-10097815I25000J43297D01*
G01*
X20602700Y-10043850D02*
G75*
G02*
X20382700Y-10043850I-110000J0D01*
G01*
X20382700Y-10043850D02*
G75*
G02*
X20602700Y-10043850I110000J0D01*
G01*
X22006900Y-10888250D02*
G75*
G02*
X21786900Y-10888250I-110000J0D01*
G01*
X21786900Y-10888250D02*
G75*
G02*
X22006900Y-10888250I110000J0D01*
G01*
D11*
X20488077Y-11518730D02*
X20488077Y-11318730D01*
X20488077Y-11318730D02*
X20535696Y-11318730D01*
X20535696Y-11318730D02*
X20564267Y-11328253D01*
X20564267Y-11328253D02*
X20583315Y-11347301D01*
X20583315Y-11347301D02*
X20592839Y-11366349D01*
X20592839Y-11366349D02*
X20602363Y-11404444D01*
X20602363Y-11404444D02*
X20602363Y-11433015D01*
X20602363Y-11433015D02*
X20592839Y-11471111D01*
X20592839Y-11471111D02*
X20583315Y-11490158D01*
X20583315Y-11490158D02*
X20564267Y-11509206D01*
X20564267Y-11509206D02*
X20535696Y-11518730D01*
X20535696Y-11518730D02*
X20488077Y-11518730D01*
X20688077Y-11518730D02*
X20688077Y-11385396D01*
X20688077Y-11423492D02*
X20697601Y-11404444D01*
X20697601Y-11404444D02*
X20707124Y-11394920D01*
X20707124Y-11394920D02*
X20726172Y-11385396D01*
X20726172Y-11385396D02*
X20745220Y-11385396D01*
X20811886Y-11518730D02*
X20811886Y-11385396D01*
X20811886Y-11318730D02*
X20802363Y-11328253D01*
X20802363Y-11328253D02*
X20811886Y-11337777D01*
X20811886Y-11337777D02*
X20821410Y-11328253D01*
X20821410Y-11328253D02*
X20811886Y-11318730D01*
X20811886Y-11318730D02*
X20811886Y-11337777D01*
X20935696Y-11518730D02*
X20916648Y-11509206D01*
X20916648Y-11509206D02*
X20907124Y-11490158D01*
X20907124Y-11490158D02*
X20907124Y-11318730D01*
X21040458Y-11518730D02*
X21021410Y-11509206D01*
X21021410Y-11509206D02*
X21011886Y-11490158D01*
X21011886Y-11490158D02*
X21011886Y-11318730D01*
X21269029Y-11518730D02*
X21269029Y-11318730D01*
X21269029Y-11318730D02*
X21335696Y-11461587D01*
X21335696Y-11461587D02*
X21402363Y-11318730D01*
X21402363Y-11318730D02*
X21402363Y-11518730D01*
X21583315Y-11518730D02*
X21583315Y-11413968D01*
X21583315Y-11413968D02*
X21573791Y-11394920D01*
X21573791Y-11394920D02*
X21554744Y-11385396D01*
X21554744Y-11385396D02*
X21516648Y-11385396D01*
X21516648Y-11385396D02*
X21497601Y-11394920D01*
X21583315Y-11509206D02*
X21564267Y-11518730D01*
X21564267Y-11518730D02*
X21516648Y-11518730D01*
X21516648Y-11518730D02*
X21497601Y-11509206D01*
X21497601Y-11509206D02*
X21488077Y-11490158D01*
X21488077Y-11490158D02*
X21488077Y-11471111D01*
X21488077Y-11471111D02*
X21497601Y-11452063D01*
X21497601Y-11452063D02*
X21516648Y-11442539D01*
X21516648Y-11442539D02*
X21564267Y-11442539D01*
X21564267Y-11442539D02*
X21583315Y-11433015D01*
X21678553Y-11385396D02*
X21678553Y-11585396D01*
X21678553Y-11394920D02*
X21697601Y-11385396D01*
X21697601Y-11385396D02*
X21735696Y-11385396D01*
X21735696Y-11385396D02*
X21754744Y-11394920D01*
X21754744Y-11394920D02*
X21764267Y-11404444D01*
X21764267Y-11404444D02*
X21773791Y-11423492D01*
X21773791Y-11423492D02*
X21773791Y-11480634D01*
X21773791Y-11480634D02*
X21764267Y-11499682D01*
X21764267Y-11499682D02*
X21754744Y-11509206D01*
X21754744Y-11509206D02*
X21735696Y-11518730D01*
X21735696Y-11518730D02*
X21697601Y-11518730D01*
X21697601Y-11518730D02*
X21678553Y-11509206D01*
X21859505Y-11499682D02*
X21869029Y-11509206D01*
X21869029Y-11509206D02*
X21859505Y-11518730D01*
X21859505Y-11518730D02*
X21849982Y-11509206D01*
X21849982Y-11509206D02*
X21859505Y-11499682D01*
X21859505Y-11499682D02*
X21859505Y-11518730D01*
X21859505Y-11394920D02*
X21869029Y-11404444D01*
X21869029Y-11404444D02*
X21859505Y-11413968D01*
X21859505Y-11413968D02*
X21849982Y-11404444D01*
X21849982Y-11404444D02*
X21859505Y-11394920D01*
X21859505Y-11394920D02*
X21859505Y-11413968D01*
M02*
