%TF.GenerationSoftware,KiCad,Pcbnew,8.0.8+1*%
%TF.CreationDate,2025-07-09T04:57:54+00:00*%
%TF.ProjectId,backplate,6261636b-706c-4617-9465-2e6b69636164,0.2*%
%TF.SameCoordinates,Original*%
%TF.FileFunction,Drillmap*%
%TF.FilePolarity,Positive*%
%FSLAX45Y45*%
G04 Gerber Fmt 4.5, Leading zero omitted, Abs format (unit mm)*
G04 Created by KiCad (PCBNEW 8.0.8+1) date 2025-07-09 04:57:54*
%MOMM*%
%LPD*%
G01*
G04 APERTURE LIST*
%ADD10C,0.150000*%
%ADD11C,0.200000*%
G04 APERTURE END LIST*
D10*
X9131698Y-10801245D02*
X9131502Y-5720251D01*
X9181501Y-5670249D02*
X12781501Y-5670151D01*
X12831500Y-5620151D02*
X12831500Y-5282750D01*
X12881500Y-5232750D02*
X14631500Y-5232750D01*
X14681500Y-5182750D02*
X14681500Y-5075250D01*
X14731500Y-5025250D02*
X16384300Y-5025250D01*
X16434300Y-5075250D02*
X16434300Y-5182750D01*
X16484300Y-5232750D02*
X18234300Y-5232750D01*
X18284300Y-5282750D02*
X18284300Y-5412312D01*
X18334288Y-5462312D02*
X20083706Y-5462738D01*
X20133691Y-5513340D02*
X20132410Y-5619648D01*
X22125300Y-11290910D02*
X20779993Y-13572380D01*
X20711924Y-13590285D02*
X19318493Y-12785787D01*
X19300847Y-12779632D02*
X15624698Y-12233003D01*
X15592179Y-12213716D02*
X14575757Y-10870335D01*
X14535877Y-10850503D02*
X9181705Y-10851243D01*
X20182406Y-5670250D02*
X22106800Y-5670250D01*
X22156800Y-5720250D02*
X22156800Y-11222952D01*
X22150101Y-11247952D02*
X22125300Y-11290910D01*
X9131502Y-5720251D02*
G75*
G02*
X9181501Y-5670252I49998J1D01*
G01*
X12831500Y-5620151D02*
G75*
G02*
X12781501Y-5670150I-50000J1D01*
G01*
X12831500Y-5282750D02*
G75*
G02*
X12881500Y-5232750I50000J0D01*
G01*
X14681500Y-5182750D02*
G75*
G02*
X14631500Y-5232750I-50000J0D01*
G01*
X14681500Y-5075250D02*
G75*
G02*
X14731500Y-5025250I50000J0D01*
G01*
X16384300Y-5025250D02*
G75*
G02*
X16434300Y-5075250I0J-50000D01*
G01*
X16484300Y-5232750D02*
G75*
G02*
X16434300Y-5182750I0J50000D01*
G01*
X18234300Y-5232750D02*
G75*
G02*
X18284300Y-5282750I0J-50000D01*
G01*
X18334288Y-5462312D02*
G75*
G02*
X18284298Y-5412312I12J50002D01*
G01*
X20083706Y-5462738D02*
G75*
G02*
X20133689Y-5513340I-16J-50002D01*
G01*
X20182406Y-5670250D02*
G75*
G02*
X20132414Y-5619648I4J50000D01*
G01*
X22106800Y-5670250D02*
G75*
G02*
X22156800Y-5720250I0J-50000D01*
G01*
X22156800Y-11222952D02*
G75*
G02*
X22150100Y-11247952I-50000J3D01*
G01*
X20779993Y-13572380D02*
G75*
G02*
X20711922Y-13590288I-43073J25400D01*
G01*
X19300847Y-12779632D02*
G75*
G02*
X19318492Y-12785788I-7357J-49458D01*
G01*
X15624698Y-12233003D02*
G75*
G02*
X15592179Y-12213716I7352J49453D01*
G01*
X14535877Y-10850503D02*
G75*
G02*
X14575754Y-10870338I3J-49997D01*
G01*
X9181705Y-10851243D02*
G75*
G02*
X9131697Y-10801245I-5J50003D01*
G01*
X11035000Y-7375000D02*
G75*
G02*
X10815000Y-7375000I-110000J0D01*
G01*
X10815000Y-7375000D02*
G75*
G02*
X11035000Y-7375000I110000J0D01*
G01*
X11035000Y-9125000D02*
G75*
G02*
X10815000Y-9125000I-110000J0D01*
G01*
X10815000Y-9125000D02*
G75*
G02*
X11035000Y-9125000I110000J0D01*
G01*
X18431800Y-7042350D02*
G75*
G02*
X18211800Y-7042350I-110000J0D01*
G01*
X18211800Y-7042350D02*
G75*
G02*
X18431800Y-7042350I110000J0D01*
G01*
X15225700Y-10736500D02*
G75*
G02*
X15005700Y-10736500I-110000J0D01*
G01*
X15005700Y-10736500D02*
G75*
G02*
X15225700Y-10736500I110000J0D01*
G01*
X19825761Y-11463175D02*
G75*
G02*
X19605761Y-11463175I-110000J0D01*
G01*
X19605761Y-11463175D02*
G75*
G02*
X19825761Y-11463175I110000J0D01*
G01*
D11*
X9384779Y-13915969D02*
X9384779Y-13715969D01*
X9384779Y-13715969D02*
X9432398Y-13715969D01*
X9432398Y-13715969D02*
X9460969Y-13725492D01*
X9460969Y-13725492D02*
X9480017Y-13744540D01*
X9480017Y-13744540D02*
X9489541Y-13763588D01*
X9489541Y-13763588D02*
X9499064Y-13801683D01*
X9499064Y-13801683D02*
X9499064Y-13830254D01*
X9499064Y-13830254D02*
X9489541Y-13868350D01*
X9489541Y-13868350D02*
X9480017Y-13887397D01*
X9480017Y-13887397D02*
X9460969Y-13906445D01*
X9460969Y-13906445D02*
X9432398Y-13915969D01*
X9432398Y-13915969D02*
X9384779Y-13915969D01*
X9584779Y-13915969D02*
X9584779Y-13782635D01*
X9584779Y-13820731D02*
X9594303Y-13801683D01*
X9594303Y-13801683D02*
X9603826Y-13792159D01*
X9603826Y-13792159D02*
X9622874Y-13782635D01*
X9622874Y-13782635D02*
X9641922Y-13782635D01*
X9708588Y-13915969D02*
X9708588Y-13782635D01*
X9708588Y-13715969D02*
X9699064Y-13725492D01*
X9699064Y-13725492D02*
X9708588Y-13735016D01*
X9708588Y-13735016D02*
X9718112Y-13725492D01*
X9718112Y-13725492D02*
X9708588Y-13715969D01*
X9708588Y-13715969D02*
X9708588Y-13735016D01*
X9832398Y-13915969D02*
X9813350Y-13906445D01*
X9813350Y-13906445D02*
X9803826Y-13887397D01*
X9803826Y-13887397D02*
X9803826Y-13715969D01*
X9937160Y-13915969D02*
X9918112Y-13906445D01*
X9918112Y-13906445D02*
X9908588Y-13887397D01*
X9908588Y-13887397D02*
X9908588Y-13715969D01*
X10165731Y-13915969D02*
X10165731Y-13715969D01*
X10165731Y-13715969D02*
X10232398Y-13858826D01*
X10232398Y-13858826D02*
X10299064Y-13715969D01*
X10299064Y-13715969D02*
X10299064Y-13915969D01*
X10480017Y-13915969D02*
X10480017Y-13811207D01*
X10480017Y-13811207D02*
X10470493Y-13792159D01*
X10470493Y-13792159D02*
X10451445Y-13782635D01*
X10451445Y-13782635D02*
X10413350Y-13782635D01*
X10413350Y-13782635D02*
X10394303Y-13792159D01*
X10480017Y-13906445D02*
X10460969Y-13915969D01*
X10460969Y-13915969D02*
X10413350Y-13915969D01*
X10413350Y-13915969D02*
X10394303Y-13906445D01*
X10394303Y-13906445D02*
X10384779Y-13887397D01*
X10384779Y-13887397D02*
X10384779Y-13868350D01*
X10384779Y-13868350D02*
X10394303Y-13849302D01*
X10394303Y-13849302D02*
X10413350Y-13839778D01*
X10413350Y-13839778D02*
X10460969Y-13839778D01*
X10460969Y-13839778D02*
X10480017Y-13830254D01*
X10575255Y-13782635D02*
X10575255Y-13982635D01*
X10575255Y-13792159D02*
X10594303Y-13782635D01*
X10594303Y-13782635D02*
X10632398Y-13782635D01*
X10632398Y-13782635D02*
X10651445Y-13792159D01*
X10651445Y-13792159D02*
X10660969Y-13801683D01*
X10660969Y-13801683D02*
X10670493Y-13820731D01*
X10670493Y-13820731D02*
X10670493Y-13877873D01*
X10670493Y-13877873D02*
X10660969Y-13896921D01*
X10660969Y-13896921D02*
X10651445Y-13906445D01*
X10651445Y-13906445D02*
X10632398Y-13915969D01*
X10632398Y-13915969D02*
X10594303Y-13915969D01*
X10594303Y-13915969D02*
X10575255Y-13906445D01*
X10756207Y-13896921D02*
X10765731Y-13906445D01*
X10765731Y-13906445D02*
X10756207Y-13915969D01*
X10756207Y-13915969D02*
X10746684Y-13906445D01*
X10746684Y-13906445D02*
X10756207Y-13896921D01*
X10756207Y-13896921D02*
X10756207Y-13915969D01*
X10756207Y-13792159D02*
X10765731Y-13801683D01*
X10765731Y-13801683D02*
X10756207Y-13811207D01*
X10756207Y-13811207D02*
X10746684Y-13801683D01*
X10746684Y-13801683D02*
X10756207Y-13792159D01*
X10756207Y-13792159D02*
X10756207Y-13811207D01*
M02*
