0
SECTION
2
HEADER
9
$INSUNITS
70
4
0
ENDSEC
0
SECTION
2
TABLES
0
TABLE
2
LTYPE
0
LTYPE
72
65
70
64
2
CONTINUOUS
3
______
73
0
40
0
0
ENDTAB
0
TABLE
2
LAYER
0
ENDTAB
0
ENDSEC
0
SECTION
2
ENTITIES
0
LINE
8
0
10
-8
20
-9.5
11
8
21
-9.5
0
ARC
8
0
10
8
20
-7.5
40
2
50
270
51
360
0
LINE
8
0
10
10
20
-7.5
11
10
21
2.4
0
LINE
8
0
10
-10
20
-7.5
11
-10
21
41.5
0
ARC
8
0
10
-8
20
-7.5
40
2
50
180
51
270
0
LINE
8
0
10
8
20
43.5
11
-8
21
43.5
0
ARC
8
0
10
-8
20
41.5
40
2
50
90
51
180
0
LINE
8
0
10
10
20
2.4
11
26
21
2.4
0
ARC
8
0
10
26
20
4.4
40
2
50
270
51
360
0
LINE
8
0
10
28
20
4.4
11
28
21
5.8
0
LINE
8
0
10
26
20
55.4
11
10
21
55.4
0
ARC
8
0
10
10
20
53.4
40
2
50
90
51
180
0
LINE
8
0
10
8
20
53.4
11
8
21
43.5
0
LINE
8
0
10
28
20
5.8
11
35
21
5.8
0
LINE
8
0
10
46
20
53.7
11
46
21
56.8
0
ARC
8
0
10
44
20
56.8
40
2
50
0
51
90
0
LINE
8
0
10
44
20
58.8
11
28
21
58.8
0
ARC
8
0
10
28
20
56.8
40
2
50
90
51
180
0
LINE
8
0
10
26
20
56.8
11
26
21
55.4
0
ARC
8
0
10
62
20
51.7
40
2
50
8.6232234
51
90
0
LINE
8
0
10
62
20
53.7
11
46
21
53.7
0
LINE
8
0
10
82
20
49.7
11
82
21
50
0
ARC
8
0
10
80
20
50
40
2
50
0
51
90
0
LINE
8
0
10
80
20
52
11
64
21
52
0
ARC
8
0
10
64
20
50
40
2
50
90
51
90.6477025
0
LINE
8
0
10
37
20
-18
11
53
21
-18
0
LINE
8
0
10
35
20
-16
11
35
21
5.8
0
ARC
8
0
10
37
20
-16
40
2
50
180
51
270
0
LINE
8
0
10
71.7526903
20
-23.0247682
11
85.6090967
21
-31.0247682
0
ARC
8
0
10
86.6090967
20
-29.2927174
40
2
50
240
51
330
0
LINE
8
0
10
88.3411475
20
-30.2927174
11
95.8411475
21
-17.3023364
0
ARC
8
0
10
94.1090967
20
-16.3023364
40
2
50
330
51
390.0773174
0
LINE
8
0
10
71.7526903
20
-23.0247682
11
53
21
-18
0
LINE
8
0
10
95.8397965
20
-15.3
11
100.5
21
-15.3
0
ARC
8
0
10
100.5
20
-13.3
40
2
50
270
51
360
0
LINE
8
0
10
102.5
20
-13.3
11
102.5
21
47.7
0
ARC
8
0
10
100.5
20
47.7
40
2
50
0
51
90
0
LINE
8
0
10
100.5
20
49.7
11
82
21
49.7
0
LINE
8
0
10
-8
20
-8.5
11
8
21
-8.5
0
ARC
8
0
10
8
20
-7.5
40
1
50
270
51
360
0
LINE
8
0
10
9
20
-7.5
11
9
21
4.4
0
ARC
8
0
10
8
20
7.5
40
1
50
0
51
90
0
ARC
8
0
10
-8
20
7.5
40
1
50
90
51
180
0
LINE
8
0
10
-9
20
7.5
11
-9
21
-7.5
0
ARC
8
0
10
-8
20
-7.5
40
1
50
180
51
270
0
ARC
8
0
10
8
20
9.5
40
1
50
270
51
360
0
LINE
8
0
10
9
20
19.4
11
9
21
21.4
0
ARC
8
0
10
8
20
24.5
40
1
50
0
51
90
0
ARC
8
0
10
-8
20
24.5
40
1
50
90
51
180
0
LINE
8
0
10
-9
20
24.5
11
-9
21
9.5
0
ARC
8
0
10
-8
20
9.5
40
1
50
180
51
270
0
ARC
8
0
10
8
20
26.5
40
1
50
270
51
360
0
LINE
8
0
10
9
20
36.4
11
9
21
38.4
0
ARC
8
0
10
8
20
41.5
40
1
50
0
51
90
0
LINE
8
0
10
8
20
42.5
11
-8
21
42.5
0
ARC
8
0
10
-8
20
41.5
40
1
50
90
51
180
0
LINE
8
0
10
-9
20
41.5
11
-9
21
26.5
0
ARC
8
0
10
-8
20
26.5
40
1
50
180
51
270
0
LINE
8
0
10
10
20
3.4
11
26
21
3.4
0
ARC
8
0
10
26
20
4.4
40
1
50
270
51
360
0
LINE
8
0
10
27
20
4.4
11
27
21
7.8
0
ARC
8
0
10
26
20
19.4
40
1
50
0
51
90
0
ARC
8
0
10
10
20
19.4
40
1
50
90
51
180
0
LINE
8
0
10
9
20
9.5
11
9
21
7.5
0
ARC
8
0
10
10
20
4.4
40
1
50
180
51
270
0
ARC
8
0
10
26
20
21.4
40
1
50
270
51
360
0
LINE
8
0
10
27
20
22.8
11
27
21
24.8
0
ARC
8
0
10
26
20
36.4
40
1
50
0
51
90
0
ARC
8
0
10
10
20
36.4
40
1
50
90
51
180
0
LINE
8
0
10
9
20
26.5
11
9
21
24.5
0
ARC
8
0
10
10
20
21.4
40
1
50
180
51
270
0
ARC
8
0
10
26
20
38.4
40
1
50
270
51
360
0
LINE
8
0
10
27
20
39.8
11
27
21
41.8
0
ARC
8
0
10
26
20
53.4
40
1
50
0
51
90
0
LINE
8
0
10
26
20
54.4
11
10
21
54.4
0
ARC
8
0
10
10
20
53.4
40
1
50
90
51
180
0
LINE
8
0
10
9
20
53.4
11
9
21
41.5
0
ARC
8
0
10
10
20
38.4
40
1
50
180
51
270
0
LINE
8
0
10
28
20
6.8
11
44
21
6.8
0
ARC
8
0
10
44
20
7.8
40
1
50
270
51
360
0
LINE
8
0
10
45
20
17.7
11
45
21
19.7
0
ARC
8
0
10
44
20
22.8
40
1
50
0
51
90
0
ARC
8
0
10
28
20
22.8
40
1
50
90
51
180
0
LINE
8
0
10
27
20
21.4
11
27
21
19.4
0
ARC
8
0
10
28
20
7.8
40
1
50
180
51
270
0
ARC
8
0
10
44
20
24.8
40
1
50
270
51
360
0
LINE
8
0
10
45
20
34.7
11
45
21
36.7
0
ARC
8
0
10
44
20
39.8
40
1
50
0
51
90
0
ARC
8
0
10
28
20
39.8
40
1
50
90
51
180
0
LINE
8
0
10
27
20
38.4
11
27
21
36.4
0
ARC
8
0
10
28
20
24.8
40
1
50
180
51
270
0
ARC
8
0
10
44
20
41.8
40
1
50
270
51
360
0
LINE
8
0
10
45
20
51.7
11
45
21
56.8
0
ARC
8
0
10
44
20
56.8
40
1
50
0
51
90
0
LINE
8
0
10
44
20
57.8
11
28
21
57.8
0
ARC
8
0
10
28
20
56.8
40
1
50
90
51
180
0
LINE
8
0
10
27
20
56.8
11
27
21
53.4
0
ARC
8
0
10
28
20
41.8
40
1
50
180
51
270
0
LINE
8
0
10
46
20
1.7
11
62
21
1.7
0
ARC
8
0
10
62
20
2.7
40
1
50
270
51
360
0
LINE
8
0
10
63
20
16
11
63
21
17.7
0
ARC
8
0
10
62
20
17.7
40
1
50
0
51
90
0
ARC
8
0
10
46
20
17.7
40
1
50
90
51
180
0
LINE
8
0
10
45
20
7.8
11
45
21
2.7
0
ARC
8
0
10
46
20
2.7
40
1
50
180
51
270
0
ARC
8
0
10
62
20
19.7
40
1
50
270
51
360
0
LINE
8
0
10
63
20
33
11
63
21
34.7
0
ARC
8
0
10
62
20
34.7
40
1
50
0
51
90
0
ARC
8
0
10
46
20
34.7
40
1
50
90
51
180
0
LINE
8
0
10
45
20
24.8
11
45
21
22.8
0
ARC
8
0
10
46
20
19.7
40
1
50
180
51
270
0
ARC
8
0
10
62
20
36.7
40
1
50
270
51
360
0
LINE
8
0
10
63
20
50
11
63
21
51.7
0
ARC
8
0
10
62
20
51.7
40
1
50
0
51
90
0
LINE
8
0
10
62
20
52.7
11
46
21
52.7
0
ARC
8
0
10
46
20
51.7
40
1
50
90
51
180
0
LINE
8
0
10
45
20
41.8
11
45
21
39.8
0
ARC
8
0
10
46
20
36.7
40
1
50
180
51
270
0
LINE
8
0
10
64
20
0
11
80
21
0
0
ARC
8
0
10
80
20
1
40
1
50
270
51
360
0
LINE
8
0
10
81
20
1
11
81
21
16
0
ARC
8
0
10
80
20
16
40
1
50
0
51
90
0
ARC
8
0
10
64
20
16
40
1
50
90
51
180
0
LINE
8
0
10
63
20
2.7
11
63
21
1
0
ARC
8
0
10
64
20
1
40
1
50
180
51
270
0
ARC
8
0
10
80
20
18
40
1
50
270
51
360
0
LINE
8
0
10
81
20
18
11
81
21
33
0
ARC
8
0
10
80
20
33
40
1
50
0
51
90
0
ARC
8
0
10
64
20
33
40
1
50
90
51
180
0
LINE
8
0
10
63
20
19.7
11
63
21
18
0
ARC
8
0
10
64
20
18
40
1
50
180
51
270
0
ARC
8
0
10
80
20
35
40
1
50
270
51
360
0
LINE
8
0
10
81
20
35
11
81
21
50
0
ARC
8
0
10
80
20
50
40
1
50
0
51
90
0
LINE
8
0
10
80
20
51
11
64
21
51
0
ARC
8
0
10
64
20
50
40
1
50
90
51
180
0
LINE
8
0
10
63
20
36.7
11
63
21
35
0
ARC
8
0
10
64
20
35
40
1
50
180
51
270
0
LINE
8
0
10
37
20
-17
11
53
21
-17
0
ARC
8
0
10
53
20
-16
40
1
50
270
51
360
0
LINE
8
0
10
54
20
-16
11
54
21
-1
0
ARC
8
0
10
53
20
-1
40
1
50
0
51
90
0
LINE
8
0
10
53
20
0
11
37
21
0
0
ARC
8
0
10
37
20
-1
40
1
50
90
51
180
0
LINE
8
0
10
36
20
-1
11
36
21
-16
0
ARC
8
0
10
37
20
-16
40
1
50
180
51
270
0
LINE
8
0
10
54.9659258
20
-17.2588191
11
70.420739
21
-21.3999238
0
ARC
8
0
10
70.6795581
20
-20.433998
40
1
50
255
51
345
0
LINE
8
0
10
71.6454839
20
-20.692817
11
75.5277696
21
-6.2039296
0
ARC
8
0
10
74.5618437
20
-5.9451106
40
1
50
345
51
75
0
LINE
8
0
10
74.8206628
20
-4.9791847
11
59.3658496
21
-0.83808
0
ARC
8
0
10
59.1070305
20
-1.8040058
40
1
50
75
51
165
0
LINE
8
0
10
58.1411047
20
-1.5451868
11
54.258819
21
-16.0340742
0
ARC
8
0
10
55.2247449
20
-16.2928932
40
1
50
165
51
255
0
LINE
8
0
10
72.2526903
20
-22.1587428
11
86.1090967
21
-30.1587428
0
ARC
8
0
10
86.6090967
20
-29.2927174
40
1
50
240
51
330
0
LINE
8
0
10
87.4751221
20
-29.7927174
11
94.9751221
21
-16.8023364
0
ARC
8
0
10
94.1090967
20
-16.3023364
40
1
50
330
51
60
0
LINE
8
0
10
94.6090967
20
-15.436311
11
80.7526903
21
-7.436311
0
ARC
8
0
10
80.2526903
20
-8.3023364
40
1
50
60
51
150
0
LINE
8
0
10
79.3866649
20
-7.8023364
11
71.8866649
21
-20.7927174
0
ARC
8
0
10
72.7526903
20
-21.2927174
40
1
50
150
51
240
0
ENDSEC
0
EOF