0
SECTION
2
HEADER
9
$INSUNITS
70
4
0
ENDSEC
0
SECTION
2
TABLES
0
TABLE
2
LTYPE
0
LTYPE
72
65
70
64
2
CONTINUOUS
3
______
73
0
40
0
0
ENDTAB
0
TABLE
2
LAYER
0
ENDTAB
0
ENDSEC
0
SECTION
2
ENTITIES
0
LINE
8
0
10
-7.75
20
-8.25
11
7.75
21
-8.25
0
ARC
8
0
10
7.75
20
-7.25
40
1
50
270
51
360
0
LINE
8
0
10
8.75
20
-7.25
11
8.75
21
7.25
0
ARC
8
0
10
7.75
20
7.25
40
1
50
0
51
90
0
LINE
8
0
10
7.75
20
8.25
11
-7.75
21
8.25
0
ARC
8
0
10
-7.75
20
7.25
40
1
50
90
51
180
0
LINE
8
0
10
-8.75
20
7.25
11
-8.75
21
-7.25
0
ARC
8
0
10
-7.75
20
-7.25
40
1
50
180
51
270
0
LINE
8
0
10
-7.75
20
8.75
11
7.75
21
8.75
0
ARC
8
0
10
7.75
20
9.75
40
1
50
270
51
360
0
LINE
8
0
10
8.75
20
9.75
11
8.75
21
24.25
0
ARC
8
0
10
7.75
20
24.25
40
1
50
0
51
90
0
LINE
8
0
10
7.75
20
25.25
11
-7.75
21
25.25
0
ARC
8
0
10
-7.75
20
24.25
40
1
50
90
51
180
0
LINE
8
0
10
-8.75
20
24.25
11
-8.75
21
9.75
0
ARC
8
0
10
-7.75
20
9.75
40
1
50
180
51
270
0
LINE
8
0
10
-7.75
20
25.75
11
7.75
21
25.75
0
ARC
8
0
10
7.75
20
26.75
40
1
50
270
51
360
0
LINE
8
0
10
8.75
20
26.75
11
8.75
21
41.25
0
ARC
8
0
10
7.75
20
41.25
40
1
50
0
51
90
0
LINE
8
0
10
7.75
20
42.25
11
-7.75
21
42.25
0
ARC
8
0
10
-7.75
20
41.25
40
1
50
90
51
180
0
LINE
8
0
10
-8.75
20
41.25
11
-8.75
21
26.75
0
ARC
8
0
10
-7.75
20
26.75
40
1
50
180
51
270
0
LINE
8
0
10
10.25
20
3.65
11
25.75
21
3.65
0
ARC
8
0
10
25.75
20
4.65
40
1
50
270
51
360
0
LINE
8
0
10
26.75
20
4.65
11
26.75
21
19.15
0
ARC
8
0
10
25.75
20
19.15
40
1
50
0
51
90
0
LINE
8
0
10
25.75
20
20.15
11
10.25
21
20.15
0
ARC
8
0
10
10.25
20
19.15
40
1
50
90
51
180
0
LINE
8
0
10
9.25
20
19.15
11
9.25
21
4.65
0
ARC
8
0
10
10.25
20
4.65
40
1
50
180
51
270
0
LINE
8
0
10
10.25
20
20.65
11
25.75
21
20.65
0
ARC
8
0
10
25.75
20
21.65
40
1
50
270
51
360
0
LINE
8
0
10
26.75
20
21.65
11
26.75
21
36.15
0
ARC
8
0
10
25.75
20
36.15
40
1
50
0
51
90
0
LINE
8
0
10
25.75
20
37.15
11
10.25
21
37.15
0
ARC
8
0
10
10.25
20
36.15
40
1
50
90
51
180
0
LINE
8
0
10
9.25
20
36.15
11
9.25
21
21.65
0
ARC
8
0
10
10.25
20
21.65
40
1
50
180
51
270
0
LINE
8
0
10
10.25
20
37.65
11
25.75
21
37.65
0
ARC
8
0
10
25.75
20
38.65
40
1
50
270
51
360
0
LINE
8
0
10
26.75
20
38.65
11
26.75
21
53.15
0
ARC
8
0
10
25.75
20
53.15
40
1
50
0
51
90
0
LINE
8
0
10
25.75
20
54.15
11
10.25
21
54.15
0
ARC
8
0
10
10.25
20
53.15
40
1
50
90
51
180
0
LINE
8
0
10
9.25
20
53.15
11
9.25
21
38.65
0
ARC
8
0
10
10.25
20
38.65
40
1
50
180
51
270
0
LINE
8
0
10
28.25
20
7.05
11
43.75
21
7.05
0
ARC
8
0
10
43.75
20
8.05
40
1
50
270
51
360
0
LINE
8
0
10
44.75
20
8.05
11
44.75
21
22.55
0
ARC
8
0
10
43.75
20
22.55
40
1
50
0
51
90
0
LINE
8
0
10
43.75
20
23.55
11
28.25
21
23.55
0
ARC
8
0
10
28.25
20
22.55
40
1
50
90
51
180
0
LINE
8
0
10
27.25
20
22.55
11
27.25
21
8.05
0
ARC
8
0
10
28.25
20
8.05
40
1
50
180
51
270
0
LINE
8
0
10
28.25
20
24.05
11
43.75
21
24.05
0
ARC
8
0
10
43.75
20
25.05
40
1
50
270
51
360
0
LINE
8
0
10
44.75
20
25.05
11
44.75
21
39.55
0
ARC
8
0
10
43.75
20
39.55
40
1
50
0
51
90
0
LINE
8
0
10
43.75
20
40.55
11
28.25
21
40.55
0
ARC
8
0
10
28.25
20
39.55
40
1
50
90
51
180
0
LINE
8
0
10
27.25
20
39.55
11
27.25
21
25.05
0
ARC
8
0
10
28.25
20
25.05
40
1
50
180
51
270
0
LINE
8
0
10
28.25
20
41.05
11
43.75
21
41.05
0
ARC
8
0
10
43.75
20
42.05
40
1
50
270
51
360
0
LINE
8
0
10
44.75
20
42.05
11
44.75
21
56.55
0
ARC
8
0
10
43.75
20
56.55
40
1
50
0
51
90
0
LINE
8
0
10
43.75
20
57.55
11
28.25
21
57.55
0
ARC
8
0
10
28.25
20
56.55
40
1
50
90
51
180
0
LINE
8
0
10
27.25
20
56.55
11
27.25
21
42.05
0
ARC
8
0
10
28.25
20
42.05
40
1
50
180
51
270
0
LINE
8
0
10
46.25
20
1.95
11
61.75
21
1.95
0
ARC
8
0
10
61.75
20
2.95
40
1
50
270
51
360
0
LINE
8
0
10
62.75
20
2.95
11
62.75
21
17.45
0
ARC
8
0
10
61.75
20
17.45
40
1
50
0
51
90
0
LINE
8
0
10
61.75
20
18.45
11
46.25
21
18.45
0
ARC
8
0
10
46.25
20
17.45
40
1
50
90
51
180
0
LINE
8
0
10
45.25
20
17.45
11
45.25
21
2.95
0
ARC
8
0
10
46.25
20
2.95
40
1
50
180
51
270
0
LINE
8
0
10
46.25
20
18.95
11
61.75
21
18.95
0
ARC
8
0
10
61.75
20
19.95
40
1
50
270
51
360
0
LINE
8
0
10
62.75
20
19.95
11
62.75
21
34.45
0
ARC
8
0
10
61.75
20
34.45
40
1
50
0
51
90
0
LINE
8
0
10
61.75
20
35.45
11
46.25
21
35.45
0
ARC
8
0
10
46.25
20
34.45
40
1
50
90
51
180
0
LINE
8
0
10
45.25
20
34.45
11
45.25
21
19.95
0
ARC
8
0
10
46.25
20
19.95
40
1
50
180
51
270
0
LINE
8
0
10
46.25
20
35.95
11
61.75
21
35.95
0
ARC
8
0
10
61.75
20
36.95
40
1
50
270
51
360
0
LINE
8
0
10
62.75
20
36.95
11
62.75
21
51.45
0
ARC
8
0
10
61.75
20
51.45
40
1
50
0
51
90
0
LINE
8
0
10
61.75
20
52.45
11
46.25
21
52.45
0
ARC
8
0
10
46.25
20
51.45
40
1
50
90
51
180
0
LINE
8
0
10
45.25
20
51.45
11
45.25
21
36.95
0
ARC
8
0
10
46.25
20
36.95
40
1
50
180
51
270
0
LINE
8
0
10
64.25
20
0.25
11
79.75
21
0.25
0
ARC
8
0
10
79.75
20
1.25
40
1
50
270
51
360
0
LINE
8
0
10
80.75
20
1.25
11
80.75
21
15.75
0
ARC
8
0
10
79.75
20
15.75
40
1
50
0
51
90
0
LINE
8
0
10
79.75
20
16.75
11
64.25
21
16.75
0
ARC
8
0
10
64.25
20
15.75
40
1
50
90
51
180
0
LINE
8
0
10
63.25
20
15.75
11
63.25
21
1.25
0
ARC
8
0
10
64.25
20
1.25
40
1
50
180
51
270
0
LINE
8
0
10
64.25
20
17.25
11
79.75
21
17.25
0
ARC
8
0
10
79.75
20
18.25
40
1
50
270
51
360
0
LINE
8
0
10
80.75
20
18.25
11
80.75
21
32.75
0
ARC
8
0
10
79.75
20
32.75
40
1
50
0
51
90
0
LINE
8
0
10
79.75
20
33.75
11
64.25
21
33.75
0
ARC
8
0
10
64.25
20
32.75
40
1
50
90
51
180
0
LINE
8
0
10
63.25
20
32.75
11
63.25
21
18.25
0
ARC
8
0
10
64.25
20
18.25
40
1
50
180
51
270
0
LINE
8
0
10
64.25
20
34.25
11
79.75
21
34.25
0
ARC
8
0
10
79.75
20
35.25
40
1
50
270
51
360
0
LINE
8
0
10
80.75
20
35.25
11
80.75
21
49.75
0
ARC
8
0
10
79.75
20
49.75
40
1
50
0
51
90
0
LINE
8
0
10
79.75
20
50.75
11
64.25
21
50.75
0
ARC
8
0
10
64.25
20
49.75
40
1
50
90
51
180
0
LINE
8
0
10
63.25
20
49.75
11
63.25
21
35.25
0
ARC
8
0
10
64.25
20
35.25
40
1
50
180
51
270
0
LINE
8
0
10
37.25
20
-16.75
11
52.75
21
-16.75
0
ARC
8
0
10
52.75
20
-15.75
40
1
50
270
51
360
0
LINE
8
0
10
53.75
20
-15.75
11
53.75
21
-1.25
0
ARC
8
0
10
52.75
20
-1.25
40
1
50
0
51
90
0
LINE
8
0
10
52.75
20
-0.25
11
37.25
21
-0.25
0
ARC
8
0
10
37.25
20
-1.25
40
1
50
90
51
180
0
LINE
8
0
10
36.25
20
-1.25
11
36.25
21
-15.75
0
ARC
8
0
10
37.25
20
-15.75
40
1
50
180
51
270
0
LINE
8
0
10
55.272112
20
-17.0820424
11
70.2439623
21
-21.0937376
0
ARC
8
0
10
70.5027814
20
-20.1278117
40
1
50
255
51
345
0
LINE
8
0
10
71.4687072
20
-20.3866308
11
75.2215834
21
-6.3807063
0
ARC
8
0
10
74.2556575
20
-6.1218873
40
1
50
345
51
75
0
LINE
8
0
10
74.5144766
20
-5.1559614
11
59.5426263
21
-1.1442662
0
ARC
8
0
10
59.2838072
20
-2.1101921
40
1
50
75
51
165
0
LINE
8
0
10
58.3178814
20
-1.851373
11
54.5650052
21
-15.8572975
0
ARC
8
0
10
55.5309311
20
-16.1161165
40
1
50
165
51
255
0
LINE
8
0
10
72.5941966
20
-22.0672365
11
86.0175904
21
-29.8172365
0
ARC
8
0
10
86.5175904
20
-28.9512111
40
1
50
240
51
330
0
LINE
8
0
10
87.3836158
20
-29.4512111
11
94.6336158
21
-16.8938427
0
ARC
8
0
10
93.7675904
20
-16.3938427
40
1
50
330
51
60
0
LINE
8
0
10
94.2675904
20
-15.5278173
11
80.8441966
21
-7.7778173
0
ARC
8
0
10
80.3441966
20
-8.6438427
40
1
50
60
51
150
0
LINE
8
0
10
79.4781712
20
-8.1438427
11
72.2281712
21
-20.7012111
0
ARC
8
0
10
73.0941966
20
-21.2012111
40
1
50
150
51
240
0
ENDSEC
0
EOF