0
SECTION
2
HEADER
9
$INSUNITS
70
4
0
ENDSEC
0
SECTION
2
TABLES
0
TABLE
2
LTYPE
0
LTYPE
72
65
70
64
2
CONTINUOUS
3
______
73
0
40
0
0
ENDTAB
0
TABLE
2
LAYER
0
ENDTAB
0
ENDSEC
0
SECTION
2
ENTITIES
0
LINE
8
0
10
-8
20
-9.5
11
8
21
-9.5
0
ARC
8
0
10
8
20
-7.5
40
2
50
270
51
360
0
LINE
8
0
10
10
20
-7.5
11
10
21
2.4
0
LINE
8
0
10
-10
20
-7.5
11
-10
21
41.5
0
ARC
8
0
10
-8
20
-7.5
40
2
50
180
51
270
0
LINE
8
0
10
8
20
43.5
11
-8
21
43.5
0
ARC
8
0
10
-8
20
41.5
40
2
50
90
51
180
0
LINE
8
0
10
10
20
2.4
11
26
21
2.4
0
ARC
8
0
10
26
20
4.4
40
2
50
270
51
360
0
LINE
8
0
10
28
20
4.4
11
28
21
5.8
0
LINE
8
0
10
26
20
55.4
11
10
21
55.4
0
ARC
8
0
10
10
20
53.4
40
2
50
90
51
180
0
LINE
8
0
10
8
20
53.4
11
8
21
43.5
0
LINE
8
0
10
28
20
5.8
11
35
21
5.8
0
LINE
8
0
10
46
20
53.7
11
46
21
56.8
0
ARC
8
0
10
44
20
56.8
40
2
50
0
51
90
0
LINE
8
0
10
44
20
58.8
11
28
21
58.8
0
ARC
8
0
10
28
20
56.8
40
2
50
90
51
180
0
LINE
8
0
10
26
20
56.8
11
26
21
55.4
0
ARC
8
0
10
62
20
51.7
40
2
50
8.6232234
51
90
0
LINE
8
0
10
62
20
53.7
11
46
21
53.7
0
LINE
8
0
10
82
20
1
11
82
21
50
0
ARC
8
0
10
80
20
50
40
2
50
0
51
90
0
LINE
8
0
10
80
20
52
11
64
21
52
0
ARC
8
0
10
64
20
50
40
2
50
90
51
90.6477025
0
LINE
8
0
10
37
20
-18
11
53
21
-18
0
LINE
8
0
10
35
20
-16
11
35
21
5.8
0
ARC
8
0
10
37
20
-16
40
2
50
180
51
270
0
LINE
8
0
10
71.7526903
20
-23.0247682
11
85.6090967
21
-31.0247682
0
ARC
8
0
10
86.6090967
20
-29.2927174
40
2
50
240
51
330
0
LINE
8
0
10
88.3411475
20
-30.2927174
11
95.8411475
21
-17.3023364
0
ARC
8
0
10
94.1090967
20
-16.3023364
40
2
50
330
51
60
0
LINE
8
0
10
82
20
1
11
95.1090967
21
-14.5702856
0
LINE
8
0
10
71.7526903
20
-23.0247682
11
53
21
-18
0
ENDSEC
0
EOF