0
SECTION
2
HEADER
9
$INSUNITS
70
4
0
ENDSEC
0
SECTION
2
TABLES
0
TABLE
2
LTYPE
0
LTYPE
72
65
70
64
2
CONTINUOUS
3
______
73
0
40
0
0
ENDTAB
0
TABLE
2
LAYER
0
ENDTAB
0
ENDSEC
0
SECTION
2
ENTITIES
0
LINE
8
0
10
-8
20
-9.5
11
8
21
-9.5
0
ARC
8
0
10
8
20
-7.5
40
2
50
270
51
360
0
LINE
8
0
10
10
20
-7.5
11
10
21
2.4
0
ARC
8
0
10
-8
20
7.5
40
2
50
149.9999999
51
180
0
LINE
8
0
10
-10
20
7.5
11
-10
21
-7.5
0
ARC
8
0
10
-8
20
-7.5
40
2
50
180
51
270
0
ARC
8
0
10
-8
20
24.5
40
2
50
149.9999999
51
180
0
LINE
8
0
10
-10
20
24.5
11
-10
21
9.5
0
ARC
8
0
10
-8
20
9.5
40
2
50
180
51
210.0000001
0
LINE
8
0
10
8
20
43.5
11
-8
21
43.5
0
ARC
8
0
10
-8
20
41.5
40
2
50
90
51
180
0
LINE
8
0
10
-10
20
41.5
11
-10
21
26.5
0
ARC
8
0
10
-8
20
26.5
40
2
50
180
51
210.0000001
0
LINE
8
0
10
10
20
2.4
11
26
21
2.4
0
ARC
8
0
10
26
20
4.4
40
2
50
270
51
360
0
LINE
8
0
10
28
20
4.4
11
28
21
5.8
0
LINE
8
0
10
26
20
55.4
11
10
21
55.4
0
ARC
8
0
10
10
20
53.4
40
2
50
90
51
180
0
LINE
8
0
10
8
20
53.4
11
8
21
43.5
0
LINE
8
0
10
28
20
5.8
11
44
21
5.8
0
LINE
8
0
10
46
20
53.7
11
46
21
56.8
0
ARC
8
0
10
44
20
56.8
40
2
50
0
51
90
0
LINE
8
0
10
44
20
58.8
11
28
21
58.8
0
ARC
8
0
10
28
20
56.8
40
2
50
90
51
180
0
LINE
8
0
10
26
20
56.8
11
26
21
55.4
0
LINE
8
0
10
54.0535654
20
0.7
11
62
21
0.7
0
ARC
8
0
10
62
20
2.7
40
2
50
270
51
270.6477025
0
LINE
8
0
10
44
20
5.8
11
44
21
2.7
0
ARC
8
0
10
46
20
2.7
40
2
50
180
51
238.2116688
0
ARC
8
0
10
62
20
51.7
40
2
50
8.6232234
51
90
0
LINE
8
0
10
62
20
53.7
11
46
21
53.7
0
LINE
8
0
10
64
20
-1
11
80
21
-1
0
ARC
8
0
10
80
20
1
40
2
50
270
51
360
0
LINE
8
0
10
82
20
1
11
82
21
16
0
ARC
8
0
10
80
20
16
40
2
50
0
51
30.0000001
0
ARC
8
0
10
64
20
1
40
2
50
188.6232234
51
245.9050344
0
ARC
8
0
10
64
20
1
40
2
50
264.094965
51
270
0
ARC
8
0
10
80
20
18
40
2
50
329.9999999
51
360
0
LINE
8
0
10
82
20
18
11
82
21
33
0
ARC
8
0
10
80
20
33
40
2
50
0
51
30.0000001
0
ARC
8
0
10
80
20
35
40
2
50
329.9999999
51
360
0
LINE
8
0
10
82
20
35
11
82
21
50
0
ARC
8
0
10
80
20
50
40
2
50
0
51
90
0
LINE
8
0
10
80
20
52
11
64
21
52
0
ARC
8
0
10
64
20
50
40
2
50
90
51
90.6477025
0
LINE
8
0
10
37
20
-18
11
53
21
-18
0
ARC
8
0
10
53
20
-16
40
2
50
270
51
296.6239813
0
LINE
8
0
10
55
20
-9.4042459
11
55
21
-1
0
ARC
8
0
10
53
20
-1
40
2
50
0
51
58.2116688
0
LINE
8
0
10
44.9464346
20
1
11
37
21
1
0
ARC
8
0
10
37
20
-1
40
2
50
90
51
180
0
LINE
8
0
10
35
20
-1
11
35
21
-16
0
ARC
8
0
10
37
20
-16
40
2
50
180
51
270
0
LINE
8
0
10
54.7071068
20
-18.2247449
11
70.16192
21
-22.3658496
0
ARC
8
0
10
70.6795581
20
-20.433998
40
2
50
255
51
281.6239837
0
LINE
8
0
10
74.3185164
20
-14.580627
11
76.4936954
21
-6.4627487
0
ARC
8
0
10
74.5618437
20
-5.9451106
40
2
50
345
51
75
0
LINE
8
0
10
75.0794818
20
-4.0132589
11
63.7942401
21
-0.9893876
0
LINE
8
0
10
63.1834995
20
-0.8257401
11
59.6246686
21
0.1278458
0
ARC
8
0
10
59.1070305
20
-1.8040058
40
2
50
75
51
165
0
LINE
8
0
10
57.1751789
20
-1.2863678
11
55
21
-9.4042459
0
ARC
8
0
10
55.2247449
20
-16.2928932
40
2
50
228.3760191
51
255
0
LINE
8
0
10
71.7526903
20
-23.0247682
11
85.6090967
21
-31.0247682
0
ARC
8
0
10
86.6090967
20
-29.2927174
40
2
50
240
51
330
0
LINE
8
0
10
88.3411475
20
-30.2927174
11
95.8411475
21
-17.3023364
0
ARC
8
0
10
94.1090967
20
-16.3023364
40
2
50
330
51
60
0
LINE
8
0
10
95.1090967
20
-14.5702856
11
81.2526903
21
-6.5702856
0
ARC
8
0
10
80.2526903
20
-8.3023364
40
2
50
60
51
150
0
LINE
8
0
10
78.5206395
20
-7.3023364
11
74.3185164
21
-14.580627
0
ARC
8
0
10
72.7526903
20
-21.2927174
40
2
50
213.3760218
51
240
0
ENDSEC
0
EOF